999
dxflib 3.26.4.0
  0
SECTION
  2
HEADER
  9
$ACADVER
  1
AC1015
  9
$HANDSEED
  5
FFFF
  9
$DIMADEC
 70
0
  9
$DIMASZ
 40
2.5
  9
$DIMATFIT
 70
0
  9
$DIMAUNIT
 70
0
  9
$DIMAZIN
 70
2
  9
$DIMBLK
  1
0
  9
$DIMBLK1
  1
0
  9
$DIMBLK2
  1
0
  9
$DIMDEC
 70
4
  9
$DIMDLI
 40
5.0
  9
$DIMDSEP
 70
46
  9
$DIMEXE
 40
1.25
  9
$DIMEXO
 40
0.625
  9
$DIMGAP
 40
0.625
  9
$DIMLFAC
 40
1.0
  9
$DIMLUNIT
 70
2
  9
$DIMSCALE
 40
1.0
  9
$DIMTAD
 70
1
  9
$DIMTIH
 70
0
  9
$DIMTSZ
 40
0.0
  9
$DIMTXT
 40
2.5
  9
$DIMZIN
 70
8
  9
$DWGCODEPAGE
  3
ANSI_1252
  9
$INSUNITS
 70
4
  9
$LTSCALE
 40
1.0
  9
$MAXACTVP
 70
64
  9
$MEASUREMENT
 70
1
  9
$MIRRTEXT
 70
0
  9
$PDMODE
 70
0
  9
$PDSIZE
 40
0.0
  0
ENDSEC
  0
SECTION
  2
TABLES
  0
TABLE
  2
VPORT
  5
8
100
AcDbSymbolTable
 70
1
  0
VPORT
  5
30
100
AcDbSymbolTableRecord
100
AcDbViewportTableRecord
  2
*Active
 70
0
 10
0.0
 20
0.0
 11
1.0
 21
1.0
 12
286.3055555555554861
 22
148.5
 13
0.0
 23
0.0
 14
10.0
 24
10.0
 15
10.0
 25
10.0
 16
0.0
 26
0.0
 36
1.0
 17
0.0
 27
0.0
 37
0.0
 40
297.0
 41
1.92798353909465
 42
50.0
 43
0.0
 44
0.0
 50
0.0
 51
0.0
 71
0
 72
100
 73
1
 74
3
 75
1
 76
1
 77
0
 78
0
281
0
 65
1
110
0.0
120
0.0
130
0.0
111
1.0
121
0.0
131
0.0
112
0.0
122
1.0
132
0.0
 79
0
146
0.0
  0
ENDTAB
  0
TABLE
  2
LTYPE
  5
5
100
AcDbSymbolTable
 70
41
  0
LTYPE
  5
16
100
AcDbSymbolTableRecord
100
AcDbLinetypeTableRecord
  2
Continuous
 70
0
  3
Solid line
 72
65
 73
0
 40
0.0
  0
LTYPE
  5
31
100
AcDbSymbolTableRecord
100
AcDbLinetypeTableRecord
  2
ACAD_ISO10W100
 70
0
  3
ISO dash dot __ . __ . __ . __ . __ . __ . __ . 
 72
65
 73
4
 40
18.0
 49
12.0
 74
0
 49
-2.9500000000000002
 74
0
 49
0.1
 74
0
 49
-2.9500000000000002
 74
0
  0
LTYPE
  5
32
100
AcDbSymbolTableRecord
100
AcDbLinetypeTableRecord
  2
DIVIDEX2
 70
0
  3
Divide (2x) ________  .  .  ________  .  .  _
 72
65
 73
6
 40
63.5
 49
25.3999999999999986
 74
0
 49
-12.6499999999999986
 74
0
 49
0.1
 74
0
 49
-12.5999999999999979
 74
0
 49
0.1
 74
0
 49
-12.6499999999999986
 74
0
  0
LTYPE
  5
33
100
AcDbSymbolTableRecord
100
AcDbLinetypeTableRecord
  2
HIDDENX2
 70
0
  3
Hidden (2x) ____ ____ ____ ____ ____ ____ ____ 
 72
65
 73
2
 40
19.0499999999999972
 49
12.6999999999999993
 74
0
 49
-6.3499999999999996
 74
0
  0
LTYPE
  5
34
100
AcDbSymbolTableRecord
100
AcDbLinetypeTableRecord
  2
HIDDEN
 70
0
  3
Hidden __ __ __ __ __ __ __ __ __ __ __ __ __ __
 72
65
 73
2
 40
9.5249999999999986
 49
6.3499999999999996
 74
0
 49
-3.1749999999999998
 74
0
  0
LTYPE
  5
35
100
AcDbSymbolTableRecord
100
AcDbLinetypeTableRecord
  2
ACAD_ISO14W100
 70
0
  3
ISO dash triple-dot __ . . . __ . . . __ . . . _
 72
65
 73
8
 40
24.0000000000000036
 49
12.0
 74
0
 49
-2.9500000000000002
 74
0
 49
0.1
 74
0
 49
-2.9000000000000004
 74
0
 49
0.1
 74
0
 49
-2.9000000000000004
 74
0
 49
0.1
 74
0
 49
-2.9500000000000002
 74
0
  0
LTYPE
  5
36
100
AcDbSymbolTableRecord
100
AcDbLinetypeTableRecord
  2
DASHED2
 70
0
  3
Dashed (.5x) _ _ _ _ _ _ _ _ _ _ _ _ _ _ _ _ _ 
 72
65
 73
2
 40
9.5249999999999986
 49
6.3499999999999996
 74
0
 49
-3.1749999999999998
 74
0
  0
LTYPE
  5
37
100
AcDbSymbolTableRecord
100
AcDbLinetypeTableRecord
  2
DASHDOT
 70
0
  3
Dash dot __ . __ . __ . __ . __ . __ . __ . __
 72
65
 73
4
 40
25.4000000000000021
 49
12.6999999999999993
 74
0
 49
-6.2999999999999998
 74
0
 49
0.1
 74
0
 49
-6.2999999999999998
 74
0
  0
LTYPE
  5
15
100
AcDbSymbolTableRecord
100
AcDbLinetypeTableRecord
  2
BYLAYER
 70
0
  3

 72
65
 73
0
 40
0.0
  0
LTYPE
  5
38
100
AcDbSymbolTableRecord
100
AcDbLinetypeTableRecord
  2
ACAD_ISO07W100
 70
0
  3
ISO dot . . . . . . . . . . . . . . . . . . . . 
 72
65
 73
2
 40
3.0
 49
0.1
 74
0
 49
-2.8999999999999999
 74
0
  0
LTYPE
  5
39
100
AcDbSymbolTableRecord
100
AcDbLinetypeTableRecord
  2
PHANTOMX2
 70
0
  3
Phantom (2x) ____________    ____    ____   _
 72
65
 73
6
 40
127.0000000000000142
 49
63.5
 74
0
 49
-12.6999999999999993
 74
0
 49
12.6999999999999993
 74
0
 49
-12.6999999999999993
 74
0
 49
12.6999999999999993
 74
0
 49
-12.6999999999999993
 74
0
  0
LTYPE
  5
3A
100
AcDbSymbolTableRecord
100
AcDbLinetypeTableRecord
  2
ACAD_ISO05W100
 70
0
  3
ISO long-dash double-dot ____ .. ____ .. ____ . 
 72
65
 73
6
 40
33.0000000000000071
 49
24.0
 74
0
 49
-2.9500000000000002
 74
0
 49
0.1
 74
0
 49
-2.9000000000000004
 74
0
 49
0.1
 74
0
 49
-2.9500000000000002
 74
0
  0
LTYPE
  5
3B
100
AcDbSymbolTableRecord
100
AcDbLinetypeTableRecord
  2
DIVIDE
 70
0
  3
Divide ____ . . ____ . . ____ . . ____ . . ____
 72
65
 73
6
 40
31.7500000000000036
 49
12.6999999999999993
 74
0
 49
-6.2999999999999998
 74
0
 49
0.1
 74
0
 49
-6.25
 74
0
 49
0.1
 74
0
 49
-6.2999999999999998
 74
0
  0
LTYPE
  5
14
100
AcDbSymbolTableRecord
100
AcDbLinetypeTableRecord
  2
BYBLOCK
 70
0
  3

 72
65
 73
0
 40
0.0
  0
LTYPE
  5
3C
100
AcDbSymbolTableRecord
100
AcDbLinetypeTableRecord
  2
DOT2
 70
0
  3
Dot (.5x) ........................................
 72
65
 73
2
 40
3.1749999999999998
 49
0.1
 74
0
 49
-3.0749999999999997
 74
0
  0
LTYPE
  5
3D
100
AcDbSymbolTableRecord
100
AcDbLinetypeTableRecord
  2
ACAD_ISO09W100
 70
0
  3
ISO long-dash double-short-dash ____ __ __ ____
 72
65
 73
6
 40
45.0
 49
24.0
 74
0
 49
-3.0
 74
0
 49
6.0
 74
0
 49
-3.0
 74
0
 49
6.0
 74
0
 49
-3.0
 74
0
  0
LTYPE
  5
3E
100
AcDbSymbolTableRecord
100
AcDbLinetypeTableRecord
  2
DASHDOTX2
 70
0
  3
Dash dot (2x) ____  .  ____  .  ____  .  ___
 72
65
 73
4
 40
50.7999999999999972
 49
25.3999999999999986
 74
0
 49
-12.6499999999999986
 74
0
 49
0.1
 74
0
 49
-12.6499999999999986
 74
0
  0
LTYPE
  5
3F
100
AcDbSymbolTableRecord
100
AcDbLinetypeTableRecord
  2
CENTER
 70
0
  3
Center ____ _ ____ _ ____ _ ____ _ ____ _ ____
 72
65
 73
4
 40
50.8000000000000043
 49
31.75
 74
0
 49
-6.3499999999999996
 74
0
 49
6.3499999999999996
 74
0
 49
-6.3499999999999996
 74
0
  0
LTYPE
  5
40
100
AcDbSymbolTableRecord
100
AcDbLinetypeTableRecord
  2
BORDER2
 70
0
  3
Border (.5x) __.__.__.__.__.__.__.__.__.__.__.
 72
65
 73
6
 40
22.2250000000000014
 49
6.3499999999999996
 74
0
 49
-3.1749999999999998
 74
0
 49
6.3499999999999996
 74
0
 49
-3.125
 74
0
 49
0.1
 74
0
 49
-3.125
 74
0
  0
LTYPE
  5
41
100
AcDbSymbolTableRecord
100
AcDbLinetypeTableRecord
  2
DASHEDX2
 70
0
  3
Dashed (2x) ____  ____  ____  ____  ____  ___
 72
65
 73
2
 40
38.0999999999999943
 49
25.3999999999999986
 74
0
 49
-12.6999999999999993
 74
0
  0
LTYPE
  5
42
100
AcDbSymbolTableRecord
100
AcDbLinetypeTableRecord
  2
DIVIDE2
 70
0
  3
Divide (.5x) __..__..__..__..__..__..__..__.._
 72
65
 73
6
 40
15.8749999999999982
 49
6.3499999999999996
 74
0
 49
-3.125
 74
0
 49
0.1
 74
0
 49
-3.0750000000000002
 74
0
 49
0.1
 74
0
 49
-3.125
 74
0
  0
LTYPE
  5
43
100
AcDbSymbolTableRecord
100
AcDbLinetypeTableRecord
  2
BORDERX2
 70
0
  3
Border (2x) ____  ____  .  ____  ____  .  ___
 72
65
 73
6
 40
88.8999999999999773
 49
25.3999999999999986
 74
0
 49
-12.6999999999999993
 74
0
 49
25.3999999999999986
 74
0
 49
-12.6499999999999986
 74
0
 49
0.1
 74
0
 49
-12.6499999999999986
 74
0
  0
LTYPE
  5
44
100
AcDbSymbolTableRecord
100
AcDbLinetypeTableRecord
  2
ACAD_ISO11W100
 70
0
  3
ISO double-dash dot __ __ . __ __ . __ __ . __ _
 72
65
 73
6
 40
33.0
 49
12.0
 74
0
 49
-3.0
 74
0
 49
12.0
 74
0
 49
-2.9500000000000002
 74
0
 49
0.1
 74
0
 49
-2.9500000000000002
 74
0
  0
LTYPE
  5
45
100
AcDbSymbolTableRecord
100
AcDbLinetypeTableRecord
  2
CENTER2
 70
0
  3
Center (.5x) ___ _ ___ _ ___ _ ___ _ ___ _ ___
 72
65
 73
4
 40
28.5750000000000028
 49
19.0500000000000007
 74
0
 49
-3.1749999999999998
 74
0
 49
3.1749999999999998
 74
0
 49
-3.1749999999999998
 74
0
  0
LTYPE
  5
46
100
AcDbSymbolTableRecord
100
AcDbLinetypeTableRecord
  2
ACAD_ISO15W100
 70
0
  3
ISO double-dash triple-dot __ __ . . . __ __ . .
 72
65
 73
10
 40
39.0000000000000071
 49
12.0
 74
0
 49
-3.0
 74
0
 49
12.0
 74
0
 49
-2.9500000000000002
 74
0
 49
0.1
 74
0
 49
-2.9000000000000004
 74
0
 49
0.1
 74
0
 49
-2.9000000000000004
 74
0
 49
0.1
 74
0
 49
-2.9500000000000002
 74
0
  0
LTYPE
  5
47
100
AcDbSymbolTableRecord
100
AcDbLinetypeTableRecord
  2
PHANTOM
 70
0
  3
Phantom ______  __  __  ______  __  __  ______ 
 72
65
 73
6
 40
63.5000000000000071
 49
31.75
 74
0
 49
-6.3499999999999996
 74
0
 49
6.3499999999999996
 74
0
 49
-6.3499999999999996
 74
0
 49
6.3499999999999996
 74
0
 49
-6.3499999999999996
 74
0
  0
LTYPE
  5
48
100
AcDbSymbolTableRecord
100
AcDbLinetypeTableRecord
  2
CENTERX2
 70
0
  3
Center (2x) ________  __  ________  __  _____
 72
65
 73
4
 40
101.6000000000000085
 49
63.5
 74
0
 49
-12.6999999999999993
 74
0
 49
12.6999999999999993
 74
0
 49
-12.6999999999999993
 74
0
  0
LTYPE
  5
49
100
AcDbSymbolTableRecord
100
AcDbLinetypeTableRecord
  2
ACAD_ISO04W100
 70
0
  3
ISO long-dash dot ____ . ____ . ____ . ____ . _
 72
65
 73
4
 40
30.0
 49
24.0
 74
0
 49
-2.9500000000000002
 74
0
 49
0.1
 74
0
 49
-2.9500000000000002
 74
0
  0
LTYPE
  5
4A
100
AcDbSymbolTableRecord
100
AcDbLinetypeTableRecord
  2
ACAD_ISO02W100
 70
0
  3
ISO dash __ __ __ __ __ __ __ __ __ __ __ __ __
 72
65
 73
2
 40
15.0
 49
12.0
 74
0
 49
-3.0
 74
0
  0
LTYPE
  5
4B
100
AcDbSymbolTableRecord
100
AcDbLinetypeTableRecord
  2
DASHED
 70
0
  3
Dashed __ __ __ __ __ __ __ __ __ __ __ __ __ _
 72
65
 73
2
 40
19.0499999999999972
 49
12.6999999999999993
 74
0
 49
-6.3499999999999996
 74
0
  0
LTYPE
  5
4C
100
AcDbSymbolTableRecord
100
AcDbLinetypeTableRecord
  2
BORDER
 70
0
  3
Border __ __ . __ __ . __ __ . __ __ . __ __ .
 72
65
 73
6
 40
44.4499999999999957
 49
12.6999999999999993
 74
0
 49
-6.3499999999999996
 74
0
 49
12.6999999999999993
 74
0
 49
-6.2999999999999998
 74
0
 49
0.1
 74
0
 49
-6.2999999999999998
 74
0
  0
LTYPE
  5
4D
100
AcDbSymbolTableRecord
100
AcDbLinetypeTableRecord
  2
DOT
 70
0
  3
Dot . . . . . . . . . . . . . . . . . . . . . . . .
 72
65
 73
2
 40
6.3499999999999996
 49
0.1
 74
0
 49
-6.25
 74
0
  0
LTYPE
  5
4E
100
AcDbSymbolTableRecord
100
AcDbLinetypeTableRecord
  2
HIDDEN2
 70
0
  3
Hidden (.5x) _ _ _ _ _ _ _ _ _ _ _ _ _ _ _ _ _ 
 72
65
 73
2
 40
4.7624999999999993
 49
3.1749999999999998
 74
0
 49
-1.5874999999999999
 74
0
  0
LTYPE
  5
4F
100
AcDbSymbolTableRecord
100
AcDbLinetypeTableRecord
  2
ACAD_ISO13W100
 70
0
  3
ISO double-dash double-dot __ __ . . __ __ . . _
 72
65
 73
8
 40
36.0000000000000071
 49
12.0
 74
0
 49
-3.0
 74
0
 49
12.0
 74
0
 49
-2.9500000000000002
 74
0
 49
0.1
 74
0
 49
-2.9000000000000004
 74
0
 49
0.1
 74
0
 49
-2.9500000000000002
 74
0
  0
LTYPE
  5
50
100
AcDbSymbolTableRecord
100
AcDbLinetypeTableRecord
  2
ACAD_ISO03W100
 70
0
  3
ISO dash space __    __    __    __    __    __
 72
65
 73
2
 40
30.0
 49
12.0
 74
0
 49
-18.0
 74
0
  0
LTYPE
  5
51
100
AcDbSymbolTableRecord
100
AcDbLinetypeTableRecord
  2
ACAD_ISO08W100
 70
0
  3
ISO long-dash short-dash ____ __ ____ __ ____ _
 72
65
 73
4
 40
36.0
 49
24.0
 74
0
 49
-3.0
 74
0
 49
6.0
 74
0
 49
-3.0
 74
0
  0
LTYPE
  5
52
100
AcDbSymbolTableRecord
100
AcDbLinetypeTableRecord
  2
PHANTOM2
 70
0
  3
Phantom (.5x) ___ _ _ ___ _ _ ___ _ _ ___ _ _
 72
65
 73
6
 40
31.7500000000000036
 49
15.875
 74
0
 49
-3.1749999999999998
 74
0
 49
3.1749999999999998
 74
0
 49
-3.1749999999999998
 74
0
 49
3.1749999999999998
 74
0
 49
-3.1749999999999998
 74
0
  0
LTYPE
  5
53
100
AcDbSymbolTableRecord
100
AcDbLinetypeTableRecord
  2
DASHDOT2
 70
0
  3
Dash dot (.5x) _._._._._._._._._._._._._._._.
 72
65
 73
4
 40
12.6999999999999993
 49
6.3499999999999996
 74
0
 49
-3.125
 74
0
 49
0.1
 74
0
 49
-3.125
 74
0
  0
LTYPE
  5
54
100
AcDbSymbolTableRecord
100
AcDbLinetypeTableRecord
  2
ACAD_ISO06W100
 70
0
  3
ISO long-dash triple-dot ____ ... ____ ... ____
 72
65
 73
8
 40
36.0000000000000071
 49
24.0
 74
0
 49
-2.9500000000000002
 74
0
 49
0.1
 74
0
 49
-2.9000000000000004
 74
0
 49
0.1
 74
0
 49
-2.9000000000000004
 74
0
 49
0.1
 74
0
 49
-2.9500000000000002
 74
0
  0
LTYPE
  5
55
100
AcDbSymbolTableRecord
100
AcDbLinetypeTableRecord
  2
DOTX2
 70
0
  3
Dot (2x) .  .  .  .  .  .  .  .  .  .  .  .  .  .
 72
65
 73
2
 40
12.6999999999999993
 49
0.1
 74
0
 49
-12.5999999999999996
 74
0
  0
LTYPE
  5
56
100
AcDbSymbolTableRecord
100
AcDbLinetypeTableRecord
  2
ACAD_ISO12W100
 70
0
  3
ISO dash double-dot __ . . __ . . __ . . __ . . 
 72
65
 73
6
 40
21.0
 49
12.0
 74
0
 49
-2.9500000000000002
 74
0
 49
0.1
 74
0
 49
-2.9000000000000004
 74
0
 49
0.1
 74
0
 49
-2.9500000000000002
 74
0
  0
ENDTAB
  0
TABLE
  2
LAYER
  5
2
100
AcDbSymbolTable
 70
7
  0
LAYER
  5
57
100
AcDbSymbolTableRecord
100
AcDbLayerTableRecord
  2
Cotas
 70
0
 62
1
420
16711680
  6
Continuous
370
20
390
F
  0
LAYER
  5
10
100
AcDbSymbolTableRecord
100
AcDbLayerTableRecord
  2
0
 70
0
 62
7
420
16777215
  6
Continuous
370
25
390
F
  0
LAYER
  5
58
100
AcDbSymbolTableRecord
100
AcDbLayerTableRecord
  2
Ejes de revoluci\U+00f3n
 70
0
 62
6
420
16711935
  6
ACAD_ISO04W100
370
20
390
F
  0
LAYER
  5
59
100
AcDbSymbolTableRecord
100
AcDbLayerTableRecord
  2
Contornos Visibles
 70
0
 62
7
420
16777215
  6
Continuous
370
50
390
F
  0
LAYER
  5
5A
100
AcDbSymbolTableRecord
100
AcDbLayerTableRecord
  2
Referencias
 70
1
 62
2
420
16776960
  6
Continuous
370
25
390
F
  0
LAYER
  5
5B
100
AcDbSymbolTableRecord
100
AcDbLayerTableRecord
  2
Contornos Ocultos
 70
0
 62
252
420
10526884
  6
ACAD_ISO02W100
370
30
390
F
  0
LAYER
  5
5C
100
AcDbSymbolTableRecord
100
AcDbLayerTableRecord
  2
Referencias 2
 70
1
 62
3
420
65280
  6
Continuous
370
25
390
F
  0
ENDTAB
  0
TABLE
  2
STYLE
  5
3
100
AcDbSymbolTable
 70
1
  0
STYLE
  5
5D
100
AcDbSymbolTableRecord
100
AcDbTextStyleTableRecord
  2
Standard
 70
0
 40
0.0
 41
1.0
 50
0.0
 71
0
 42
2.5
  3

  4

1001
ACAD
1000
txt
1071
0
  0
ENDTAB
  0
TABLE
  2
VIEW
  5
6
100
AcDbSymbolTable
 70
0
  0
ENDTAB
  0
TABLE
  2
UCS
  5
7
100
AcDbSymbolTable
 70
0
  0
ENDTAB
  0
TABLE
  2
APPID
  5
9
100
AcDbSymbolTable
 70
1
  0
APPID
  5
12
100
AcDbSymbolTableRecord
100
AcDbRegAppTableRecord
  2
ACAD
 70
0
  0
APPID
  5
5E
100
AcDbSymbolTableRecord
100
AcDbRegAppTableRecord
  2
QCAD
 70
0
  0
ENDTAB
  0
TABLE
  2
DIMSTYLE
  5
A
100
AcDbSymbolTable
 70
1
100
AcDbDimStyleTable
 71
0
  0
DIMSTYLE
105
27
100
AcDbSymbolTableRecord
100
AcDbDimStyleTableRecord
  2
Standard
 41
2.5
 42
0.625
 43
3.75
 44
1.25
 70
0
 73
0
 74
0
 77
1
 78
8
140
2.5
141
2.5
143
0.03937007874016
147
0.625
171
3
172
1
271
2
272
2
274
3
278
44
283
0
284
8
340
5D
  0
ENDTAB
  0
TABLE
  2
BLOCK_RECORD
  5
1
100
AcDbSymbolTable
 70
1
  0
BLOCK_RECORD
  5
1F
100
AcDbSymbolTableRecord
100
AcDbBlockTableRecord
  2
*Model_Space
340
22
  0
BLOCK_RECORD
  5
1B
100
AcDbSymbolTableRecord
100
AcDbBlockTableRecord
  2
*Paper_Space
340
1E
  0
BLOCK_RECORD
  5
23
100
AcDbSymbolTableRecord
100
AcDbBlockTableRecord
  2
*Paper_Space0
340
26
  0
ENDTAB
  0
ENDSEC
  0
SECTION
  2
BLOCKS
  0
BLOCK
  5
20
100
AcDbEntity
  8
0
100
AcDbBlockBegin
  2
*Model_Space
 70
0
 10
0.0
 20
0.0
 30
0.0
  3
*Model_Space
  1

  0
ENDBLK
  5
21
100
AcDbEntity
  8
0
100
AcDbBlockEnd
  0
BLOCK
  5
1C
100
AcDbEntity
 67
1
  8
0
100
AcDbBlockBegin
  2
*Paper_Space
 70
0
 10
0.0
 20
0.0
 30
0.0
  3
*Paper_Space
  1

  0
ENDBLK
  5
1D
100
AcDbEntity
 67
1
  8
0
100
AcDbBlockEnd
  0
BLOCK
  5
24
100
AcDbEntity
  8
0
100
AcDbBlockBegin
  2
*Paper_Space0
 70
0
 10
0.0
 20
0.0
 30
0.0
  3
*Paper_Space0
  1

  0
ENDBLK
  5
25
100
AcDbEntity
  8
0
100
AcDbBlockEnd
  0
ENDSEC
  0
SECTION
  2
ENTITIES
  0
IMAGE
  5
5F
100
AcDbEntity
  8
0
 62
256
370
-1
 48
1.0
  6
BYLAYER
100
AcDbRasterImage
 90
0
 10
2154.8160049772354796
 20
687.1720462757626819
 30
0.0
 11
0.125
 21
0.0
 31
0.0
 12
0.0
 22
0.125
 32
0.0
 13
200.0
 23
141.0
340
60
 70
15
280
0
281
50
282
50
283
0
  0
LINE
  5
61
100
AcDbEntity
  8
Contornos Visibles
 62
256
370
-1
 48
1.0
  6
BYLAYER
100
AcDbLine
 10
2649.035401727390763
 20
729.609413840873458
 30
0.0
 11
2684.635401727390672
 21
729.609413840873458
 31
0.0
  0
LINE
  5
62
100
AcDbEntity
  8
Contornos Visibles
 62
256
370
-1
 48
1.0
  6
BYLAYER
100
AcDbLine
 10
2649.035401727390763
 20
723.609413840873458
 30
0.0
 11
2649.035401727390763
 21
729.609413840873458
 31
0.0
  0
LINE
  5
63
100
AcDbEntity
  8
Contornos Visibles
 62
256
370
-1
 48
1.0
  6
BYLAYER
100
AcDbLine
 10
2684.635401727390672
 20
723.609413840873458
 30
0.0
 11
2684.635401727390672
 21
729.609413840873458
 31
0.0
  0
LINE
  5
64
100
AcDbEntity
  8
Contornos Visibles
 62
256
370
-1
 48
1.0
  6
BYLAYER
100
AcDbLine
 10
2615.8354017273909449
 20
723.609413840873458
 30
0.0
 11
2649.035401727390763
 21
723.609413840873458
 31
0.0
  0
LINE
  5
65
100
AcDbEntity
  8
Contornos Visibles
 62
256
370
-1
 48
1.0
  6
BYLAYER
100
AcDbLine
 10
2684.635401727390672
 20
723.609413840873458
 30
0.0
 11
2717.8354017273904901
 21
723.609413840873458
 31
0.0
  0
LINE
  5
66
100
AcDbEntity
  8
Contornos Visibles
 62
256
370
-1
 48
1.0
  6
BYLAYER
100
AcDbLine
 10
2615.8354017273909449
 20
723.609413840873458
 30
0.0
 11
2615.8354017273909449
 21
753.0094138408734352
 31
0.0
  0
LINE
  5
67
100
AcDbEntity
  8
Contornos Visibles
 62
256
370
-1
 48
1.0
  6
BYLAYER
100
AcDbLine
 10
2717.8354017273904901
 20
723.609413840873458
 30
0.0
 11
2717.8354017273904901
 21
753.0094138408734352
 31
0.0
  0
LINE
  5
68
100
AcDbEntity
  8
Referencias
 62
256
370
-1
 48
1.0
  6
BYLAYER
100
AcDbLine
 10
2615.8354017273909449
 20
753.0094138408734352
 30
0.0
 11
2615.8354017273909449
 21
766.2094138408734807
 31
0.0
  0
LINE
  5
69
100
AcDbEntity
  8
Referencias
 62
256
370
-1
 48
1.0
  6
BYLAYER
100
AcDbLine
 10
2717.8354017273904901
 20
753.0094138408734352
 30
0.0
 11
2717.8354017273904901
 21
766.2094138408734807
 31
0.0
  0
LINE
  5
6A
100
AcDbEntity
  8
Contornos Visibles
 62
256
370
-1
 48
1.0
  6
BYLAYER
100
AcDbLine
 10
2615.8354017273909449
 20
753.0094138408734352
 30
0.0
 11
2623.035401727390763
 21
753.0094138408734352
 31
0.0
  0
LINE
  5
6B
100
AcDbEntity
  8
Contornos Visibles
 62
256
370
-1
 48
1.0
  6
BYLAYER
100
AcDbLine
 10
2615.8354017273909449
 20
766.2094138408734807
 30
0.0
 11
2623.035401727390763
 21
766.2094138408734807
 31
0.0
  0
LINE
  5
6C
100
AcDbEntity
  8
Contornos Visibles
 62
256
370
-1
 48
1.0
  6
BYLAYER
100
AcDbLine
 10
2710.635401727390672
 20
753.0094138408734352
 30
0.0
 11
2717.8354017273904901
 21
753.0094138408734352
 31
0.0
  0
LINE
  5
6D
100
AcDbEntity
  8
Contornos Visibles
 62
256
370
-1
 48
1.0
  6
BYLAYER
100
AcDbLine
 10
2710.635401727390672
 20
766.2094138408734807
 30
0.0
 11
2717.8354017273904901
 21
766.2094138408734807
 31
0.0
  0
ARC
  5
6E
100
AcDbEntity
  8
Contornos Visibles
 62
256
370
-1
 48
1.0
  6
BYLAYER
100
AcDbCircle
 10
2623.035401727390763
 20
759.609413840873458
 30
0.0
 40
6.5999999999999996
100
AcDbArc
 50
270.0
 51
90.0
  0
ARC
  5
6F
100
AcDbEntity
  8
Contornos Visibles
 62
256
370
-1
 48
1.0
  6
BYLAYER
100
AcDbCircle
 10
2710.635401727390672
 20
759.609413840873458
 30
0.0
 40
6.5999999999999996
100
AcDbArc
 50
90.0
 51
270.0
  0
LINE
  5
70
100
AcDbEntity
  8
Contornos Visibles
 62
256
370
-1
 48
1.0
  6
BYLAYER
100
AcDbLine
 10
2615.8354017273909449
 20
766.209413840873367
 30
0.0
 11
2615.8354017273909449
 21
788.4094138408734125
 31
0.0
  0
LINE
  5
71
100
AcDbEntity
  8
Contornos Visibles
 62
256
370
-1
 48
1.0
  6
BYLAYER
100
AcDbLine
 10
2717.8354017273900354
 20
766.209413840873367
 30
0.0
 11
2717.8354017273900354
 21
788.4094138408734125
 31
0.0
  0
LINE
  5
72
100
AcDbEntity
  8
Contornos Visibles
 62
256
370
-1
 48
1.0
  6
BYLAYER
100
AcDbLine
 10
2615.8354017273909449
 20
788.4094138408734125
 30
0.0
 11
2621.8354017273909449
 21
788.4094138408734125
 31
0.0
  0
LINE
  5
73
100
AcDbEntity
  8
Contornos Visibles
 62
256
370
-1
 48
1.0
  6
BYLAYER
100
AcDbLine
 10
2711.8354017273900354
 20
788.4094138408734125
 30
0.0
 11
2717.8354017273900354
 21
788.4094138408734125
 31
0.0
  0
LINE
  5
74
100
AcDbEntity
  8
Referencias
 62
256
370
-1
 48
1.0
  6
BYLAYER
100
AcDbLine
 10
2710.635401727390672
 20
759.609413840873458
 30
0.0
 11
2710.635401727390672
 21
793.8094138408735034
 31
0.0
  0
XLINE
  5
75
100
AcDbEntity
  8
Referencias
 62
256
370
-1
 48
1.0
  6
BYLAYER
100
AcDbLine
 10
2710.635401727390672
 20
793.8094138408735034
 30
0.0
 11
1.0
 21
0.0
 31
0.0
  0
LINE
  5
76
100
AcDbEntity
  8
Contornos Visibles
 62
256
370
-1
 48
1.0
  6
BYLAYER
100
AcDbLine
 10
2711.8354017273900354
 20
788.4094138408734125
 30
0.0
 11
2711.8354017273900354
 21
793.8094138408735034
 31
0.0
  0
LINE
  5
77
100
AcDbEntity
  8
Contornos Visibles
 62
256
370
-1
 48
1.0
  6
BYLAYER
100
AcDbLine
 10
2621.8354017273909449
 20
788.4094138408734125
 30
0.0
 11
2621.8354017273909449
 21
793.8094138408735034
 31
0.0
  0
LINE
  5
78
100
AcDbEntity
  8
Referencias
 62
256
370
-1
 48
1.0
  6
BYLAYER
100
AcDbLine
 10
2615.8354017273909449
 20
788.4094138408732988
 30
0.0
 11
2635.035401727390763
 21
788.4094138408732988
 31
0.0
  0
XLINE
  5
79
100
AcDbEntity
  8
Referencias
 62
256
370
-1
 48
1.0
  6
BYLAYER
100
AcDbLine
 10
2698.635401727390672
 20
788.4094138408732988
 30
0.0
 11
0.0
 21
1.0
 31
0.0
  0
CIRCLE
  5
7A
100
AcDbEntity
  8
Contornos Visibles
 62
256
370
-1
 48
1.0
  6
BYLAYER
100
AcDbCircle
 10
2698.635401727390672
 20
793.8094138408735034
 30
0.0
 40
6.0
  0
CIRCLE
  5
7B
100
AcDbEntity
  8
Contornos Visibles
 62
256
370
-1
 48
1.0
  6
BYLAYER
100
AcDbCircle
 10
2635.0354017273903082
 20
793.8094138408735034
 30
0.0
 40
6.0
  0
LINE
  5
7C
100
AcDbEntity
  8
Referencias
 62
256
370
-1
 48
1.0
  6
BYLAYER
100
AcDbLine
 10
2666.8354017273904901
 20
729.609413840873458
 30
0.0
 11
2666.8354017273904901
 21
797.8094138408735034
 31
0.0
  0
XLINE
  5
7D
100
AcDbEntity
  8
Referencias
 62
256
370
-1
 48
1.0
  6
BYLAYER
100
AcDbLine
 10
2666.8354017273904901
 20
797.8094138408735034
 30
0.0
 11
1.0
 21
0.0
 31
0.0
  0
ARC
  5
7E
100
AcDbEntity
  8
Contornos Visibles
 62
256
370
-1
 48
1.0
  6
BYLAYER
100
AcDbCircle
 10
2698.635401727390672
 20
793.8094138408735034
 30
0.0
 40
13.1999999999998181
100
AcDbArc
 50
0.0
 51
76.8634412130549833
  0
ARC
  5
7F
100
AcDbEntity
  8
Contornos Visibles
 62
256
370
-1
 48
1.0
  6
BYLAYER
100
AcDbCircle
 10
2698.635401727390672
 20
793.8094138408735034
 30
0.0
 40
13.1999999999998181
100
AcDbArc
 50
103.1365587869450167
 51
162.3602986057638873
  0
ARC
  5
80
100
AcDbEntity
  8
Contornos Visibles
 62
256
370
-1
 48
1.0
  6
BYLAYER
100
AcDbCircle
 10
2635.0354017273903082
 20
793.8094138408735034
 30
0.0
 40
13.1999999999998181
100
AcDbArc
 50
17.6397013942360736
 51
76.8634412130549549
  0
ARC
  5
81
100
AcDbEntity
  8
Contornos Visibles
 62
256
370
-1
 48
1.0
  6
BYLAYER
100
AcDbCircle
 10
2635.0354017273903082
 20
793.8094138408735034
 30
0.0
 40
13.1999999999998181
100
AcDbArc
 50
103.1365587869450167
 51
180.0
  0
LINE
  5
82
100
AcDbEntity
  8
Contornos Visibles
 62
256
370
-1
 48
1.0
  6
BYLAYER
100
AcDbLine
 10
2666.8354017273904901
 20
797.8094138408735034
 30
0.0
 11
2686.056053572577639
 21
797.8094138408735034
 31
0.0
  0
LINE
  5
83
100
AcDbEntity
  8
Contornos Visibles
 62
256
370
-1
 48
1.0
  6
BYLAYER
100
AcDbLine
 10
2666.8354017273904901
 20
797.8094138408735034
 30
0.0
 11
2647.6147498822033413
 21
797.8094138408735034
 31
0.0
  0
LINE
  5
84
100
AcDbEntity
  8
Referencias 2
 62
256
370
-1
 48
1.0
  6
BYLAYER
100
AcDbLine
 10
2698.635401727390672
 20
723.609413840873458
 30
0.0
 11
2698.635401727390672
 21
810.4094138408734125
 31
0.0
  0
LINE
  5
85
100
AcDbEntity
  8
Contornos Visibles
 62
256
370
-1
 48
1.0
  6
BYLAYER
100
AcDbLine
 10
2695.635401727390672
 20
810.4094138408734125
 30
0.0
 11
2701.635401727390672
 21
810.4094138408734125
 31
0.0
  0
LINE
  5
86
100
AcDbEntity
  8
Contornos Visibles
 62
256
370
-1
 48
1.0
  6
BYLAYER
100
AcDbLine
 10
2638.0354017273903082
 20
810.4094138408734125
 30
0.0
 11
2632.0354017273903082
 21
810.4094138408734125
 31
0.0
  0
LINE
  5
87
100
AcDbEntity
  8
Contornos Visibles
 62
256
370
-1
 48
1.0
  6
BYLAYER
100
AcDbLine
 10
2695.635401727390672
 20
806.663985012250464
 30
0.0
 11
2695.635401727390672
 21
810.4094138408734125
 31
0.0
  0
LINE
  5
88
100
AcDbEntity
  8
Contornos Visibles
 62
256
370
-1
 48
1.0
  6
BYLAYER
100
AcDbLine
 10
2638.0354017273903082
 20
806.663985012250464
 30
0.0
 11
2638.0354017273903082
 21
810.4094138408734125
 31
0.0
  0
LINE
  5
89
100
AcDbEntity
  8
Contornos Visibles
 62
256
370
-1
 48
1.0
  6
BYLAYER
100
AcDbLine
 10
2701.635401727390672
 20
806.663985012250464
 30
0.0
 11
2701.635401727390672
 21
810.4094138408734125
 31
0.0
  0
LINE
  5
8A
100
AcDbEntity
  8
Contornos Visibles
 62
256
370
-1
 48
1.0
  6
BYLAYER
100
AcDbLine
 10
2632.0354017273903082
 20
806.663985012250464
 30
0.0
 11
2632.0354017273903082
 21
810.4094138408734125
 31
0.0
  0
XLINE
  5
8B
100
AcDbEntity
  8
Referencias
 62
256
370
-1
 48
1.0
  6
BYLAYER
100
AcDbLine
 10
2635.0354017273903082
 20
793.8094138408735034
 30
0.0
 11
0.0
 21
1.0
 31
0.0
  0
LINE
  5
8C
100
AcDbEntity
  8
Referencias 2
 62
256
370
-1
 48
1.0
  6
BYLAYER
100
AcDbLine
 10
2635.0354017273903082
 20
793.8094138408735034
 30
0.0
 11
2645.0354017273903082
 21
793.8094138408735034
 31
0.0
  0
LINE
  5
8D
100
AcDbEntity
  8
Referencias 2
 62
256
370
-1
 48
1.0
  6
BYLAYER
100
AcDbLine
 10
2625.0354017273903082
 20
793.8094138408735034
 30
0.0
 11
2635.0354017273903082
 21
793.8094138408735034
 31
0.0
  0
LINE
  5
8E
100
AcDbEntity
  8
Referencias 2
 62
256
370
-1
 48
1.0
  6
BYLAYER
100
AcDbLine
 10
2635.0354017273903082
 20
783.8094138408735034
 30
0.0
 11
2635.0354017273903082
 21
793.8094138408735034
 31
0.0
  0
LINE
  5
8F
100
AcDbEntity
  8
Referencias 2
 62
256
370
-1
 48
1.0
  6
BYLAYER
100
AcDbLine
 10
2635.0354017273903082
 20
793.8094138408735034
 30
0.0
 11
2635.0354017273903082
 21
803.8094138408735034
 31
0.0
  0
LINE
  5
90
100
AcDbEntity
  8
Referencias 2
 62
256
370
-1
 48
1.0
  6
BYLAYER
100
AcDbLine
 10
2635.0354017273903082
 20
793.8094138408735034
 30
0.0
 11
2642.1064695392556132
 21
800.8804816527390358
 31
0.0
  0
LINE
  5
91
100
AcDbEntity
  8
Referencias 2
 62
256
370
-1
 48
1.0
  6
BYLAYER
100
AcDbLine
 10
2627.964333915525458
 20
786.7383460290079711
 30
0.0
 11
2635.035401727390763
 21
793.8094138408735034
 31
0.0
  0
LINE
  5
92
100
AcDbEntity
  8
Referencias 2
 62
256
370
-1
 48
1.0
  6
BYLAYER
100
AcDbLine
 10
2627.9643339155250032
 20
800.8804816527390358
 30
0.0
 11
2635.0354017273903082
 21
793.8094138408735034
 31
0.0
  0
LINE
  5
93
100
AcDbEntity
  8
Referencias 2
 62
256
370
-1
 48
1.0
  6
BYLAYER
100
AcDbLine
 10
2635.0354017273903082
 20
793.809413840872935
 30
0.0
 11
2642.1064695392556132
 21
786.7383460290075163
 31
0.0
  0
LWPOLYLINE
  5
94
100
AcDbEntity
  8
Contornos Visibles
 62
256
370
-1
 48
1.0
  6
BYLAYER
100
AcDbPolyline
 90
6
 70
129
 10
2640.2315541500970539
 20
790.8094138408725939
 10
2640.2315541500979634
 20
796.8094138408723666
 10
2635.0354017273921272
 20
799.8094138408730487
 10
2629.8392493046853815
 20
796.8094138408739582
 10
2629.839249304684472
 20
790.8094138408741856
 10
2635.0354017273903082
 20
787.8094138408735034
  0
LINE
  5
95
100
AcDbEntity
  8
Referencias 2
 62
256
370
-1
 48
1.0
  6
BYLAYER
100
AcDbLine
 10
2666.8354017273904901
 20
751.109413840873458
 30
0.0
 11
2683.635401727390672
 21
751.109413840873458
 31
0.0
  0
LINE
  5
96
100
AcDbEntity
  8
Referencias 2
 62
256
370
-1
 48
1.0
  6
BYLAYER
100
AcDbLine
 10
2666.8354017273904901
 20
759.609413840873458
 30
0.0
 11
2683.635401727390672
 21
759.609413840873458
 31
0.0
  0
LINE
  5
97
100
AcDbEntity
  8
Ejes de revoluci\U+00f3n
 62
256
370
-1
 48
1.0
  6
BYLAYER
100
AcDbLine
 10
2666.8354017273904901
 20
729.609413840873458
 30
0.0
 11
2666.8354017273904901
 21
797.8094138408735034
 31
0.0
  0
LINE
  5
98
100
AcDbEntity
  8
Contornos Visibles
 62
256
370
-1
 48
1.0
  6
BYLAYER
100
AcDbLine
 10
2683.635401727390672
 20
751.109413840873458
 30
0.0
 11
2683.635401727390672
 21
759.609413840873458
 31
0.0
  0
LINE
  5
99
100
AcDbEntity
  8
Referencias 2
 62
256
370
-1
 48
1.0
  6
BYLAYER
100
AcDbLine
 10
2683.635401727390672
 20
759.6094138408735716
 30
0.0
 11
2689.635401727390672
 21
759.6094138408735716
 31
0.0
  0
ARC
  5
9A
100
AcDbEntity
  8
Contornos Visibles
 62
256
370
-1
 48
1.0
  6
BYLAYER
100
AcDbCircle
 10
2689.635401727390672
 20
759.6094138408735716
 30
0.0
 40
6.0
100
AcDbArc
 50
90.0
 51
180.0
  0
LINE
  5
9B
100
AcDbEntity
  8
Referencias 2
 62
256
370
-1
 48
1.0
  6
BYLAYER
100
AcDbLine
 10
2689.635401727390672
 20
759.6094138408735716
 30
0.0
 11
2692.035401727390763
 21
759.6094138408735716
 31
0.0
  0
LINE
  5
9C
100
AcDbEntity
  8
Contornos Visibles
 62
256
370
-1
 48
1.0
  6
BYLAYER
100
AcDbLine
 10
2689.635401727390672
 20
765.6094138408735716
 30
0.0
 11
2692.035401727390763
 21
765.6094138408735716
 31
0.0
  0
ARC
  5
9D
100
AcDbEntity
  8
Contornos Visibles
 62
256
370
-1
 48
1.0
  6
BYLAYER
100
AcDbCircle
 10
2692.0354017273912177
 20
759.6094138408735716
 30
0.0
 40
6.0
100
AcDbArc
 50
332.9723061140949198
 51
90.0000000000043627
  0
LINE
  5
9E
100
AcDbEntity
  8
Referencias 2
 62
256
370
-1
 48
1.0
  6
BYLAYER
100
AcDbLine
 10
2666.8354017273904901
 20
729.609413840873458
 30
0.0
 11
2666.8354017273904901
 21
750.0394138408734079
 31
0.0
  0
LINE
  5
9F
100
AcDbEntity
  8
Referencias 2
 62
256
370
-1
 48
1.0
  6
BYLAYER
100
AcDbLine
 10
2666.8354017273904901
 20
750.0394138408734079
 30
0.0
 11
2689.7354017273905811
 21
750.0394138408734079
 31
0.0
  0
ARC
  5
A0
100
AcDbEntity
  8
Contornos Visibles
 62
256
370
-1
 48
1.0
  6
BYLAYER
100
AcDbCircle
 10
2689.7354017273905811
 20
750.0394138408734079
 30
0.0
 40
3.6999999999998181
100
AcDbArc
 50
223.3644964624193676
 51
332.9723061140967388
  0
LINE
  5
A1
100
AcDbEntity
  8
Contornos Visibles
 62
256
370
-1
 48
1.0
  6
BYLAYER
100
AcDbLine
 10
2693.0313135683318251
 20
748.3580557181811628
 30
0.0
 11
2697.3801236316198811
 21
756.8828871554264879
 31
0.0
  0
LINE
  5
A2
100
AcDbEntity
  8
Contornos Visibles
 62
256
370
-1
 48
1.0
  6
BYLAYER
100
AcDbLine
 10
2683.635401727390672
 20
751.109413840873458
 30
0.0
 11
2687.0455006628262709
 21
747.4988563699912447
 31
0.0
  0
LINE
  5
A3
100
AcDbEntity
  8
Ejes de revoluci\U+00f3n
 62
256
370
-1
 48
1.0
  6
BYLAYER
100
AcDbLine
 10
2711.8354017273900354
 20
793.8094138408735034
 30
0.0
 11
2621.8354017273909449
 21
793.8094138408735034
 31
0.0
  0
LINE
  5
A4
100
AcDbEntity
  8
Ejes de revoluci\U+00f3n
 62
256
370
-1
 48
1.0
  6
BYLAYER
100
AcDbLine
 10
2623.035401727390763
 20
766.2094138408734807
 30
0.0
 11
2623.035401727390763
 21
753.0094138408734352
 31
0.0
  0
LINE
  5
A5
100
AcDbEntity
  8
Ejes de revoluci\U+00f3n
 62
256
370
-1
 48
1.0
  6
BYLAYER
100
AcDbLine
 10
2710.6354017273902173
 20
766.2094138408734807
 30
0.0
 11
2710.6354017273902173
 21
753.0094138408734352
 31
0.0
  0
LINE
  5
A6
100
AcDbEntity
  8
Ejes de revoluci\U+00f3n
 62
256
370
-1
 48
1.0
  6
BYLAYER
100
AcDbLine
 10
2629.635401727390672
 20
759.609413840873458
 30
0.0
 11
2615.8354017273909449
 21
759.609413840873458
 31
0.0
  0
LINE
  5
A7
100
AcDbEntity
  8
Ejes de revoluci\U+00f3n
 62
256
370
-1
 48
1.0
  6
BYLAYER
100
AcDbLine
 10
2683.635401727390672
 20
759.6094138408735716
 30
0.0
 11
2717.8354017273900354
 21
759.609413840873458
 31
0.0
  0
LINE
  5
A8
100
AcDbEntity
  8
Ejes de revoluci\U+00f3n
 62
256
370
-1
 48
1.0
  6
BYLAYER
100
AcDbLine
 10
2698.635401727390672
 20
787.8094138408735034
 30
0.0
 11
2698.635401727390672
 21
810.4094138408734125
 31
0.0
  0
LINE
  5
A9
100
AcDbEntity
  8
Ejes de revoluci\U+00f3n
 62
256
370
-1
 48
1.0
  6
BYLAYER
100
AcDbLine
 10
2635.0354017273903082
 20
787.8094138408735034
 30
0.0
 11
2635.0354017273903082
 21
810.4094138408734125
 31
0.0
  0
DIMENSION
  5
AA
100
AcDbEntity
  8
Cotas
 62
256
370
-1
 48
1.0
  6
BYLAYER
100
AcDbDimension
 10
2710.635401727390672
 20
759.609413840873458
 30
0.0
 11
2698.8111466531977385
 21
753.0206706607585829
 31
0.0
 70
4
 71
8
 72
2
 74
0
 41
1.0
 42
0.0
  1
R<>
  3
Standard
100
AcDbRadialDimension
 15
2705.3706323198475729
 25
755.6291873290532521
 35
0.0
 40
0.0
1001
ACAD
1000
DSTYLE
1002
{
1070
144
1040
1.0
1070
40
1040
1.0
1002
}
  0
DIMENSION
  5
AB
100
AcDbEntity
  8
Cotas
 62
256
370
-1
 48
1.0
  6
BYLAYER
100
AcDbDimension
 10
2710.6354017273902173
 20
738.3094138408735034
 30
0.0
 11
2714.2354017273901263
 21
740.1844138408735034
 31
0.0
 70
0
 71
8
 72
2
 74
0
 75
0
 41
1.0
 42
0.0
  1

  3
Standard
100
AcDbAlignedDimension
 13
2710.6354017273902173
 23
753.0094138408733215
 33
0.0
 14
2717.8354017273904901
 24
738.3094138408735034
 34
0.0
 50
0.0
100
AcDbRotatedDimension
1001
ACAD
1000
DSTYLE
1002
{
1070
144
1040
1.0
1070
40
1040
1.0
1002
}
  0
DIMENSION
  5
AC
100
AcDbEntity
  8
Cotas
 62
256
370
-1
 48
1.0
  6
BYLAYER
100
AcDbDimension
 10
2738.132121520668079
 20
723.609413840873458
 30
0.0
 11
2736.257121520668079
 21
741.609413840873458
 31
0.0
 70
0
 71
8
 72
2
 74
0
 75
0
 41
1.0
 42
0.0
  1

  3
Standard
100
AcDbAlignedDimension
 13
2717.8354017273904901
 23
723.609413840873458
 33
0.0
 14
2717.8354017273900354
 24
759.609413840873458
 34
0.0
 50
90.0
100
AcDbRotatedDimension
1001
ACAD
1000
DSTYLE
1002
{
1070
144
1040
1.0
1070
40
1040
1.0
1002
}
  0
DIMENSION
  5
AD
100
AcDbEntity
  8
Cotas
 62
256
370
-1
 48
1.0
  6
BYLAYER
100
AcDbDimension
 10
2738.132121520668079
 20
793.8094138408735034
 30
0.0
 11
2736.257121520668079
 21
776.7094138408734807
 31
0.0
 70
0
 71
8
 72
2
 74
0
 75
0
 41
1.0
 42
0.0
  1

  3
Standard
100
AcDbAlignedDimension
 13
2711.8354017273900354
 23
793.8094138408735034
 33
0.0
 14
2717.8354017273900354
 24
759.609413840873458
 34
0.0
 50
90.0
100
AcDbRotatedDimension
1001
ACAD
1000
DSTYLE
1002
{
1070
144
1040
1.0
1070
40
1040
1.0
1002
}
  0
DIMENSION
  5
AE
100
AcDbEntity
  8
Cotas
 62
256
370
-1
 48
1.0
  6
BYLAYER
100
AcDbDimension
 10
2694.094831249850813
 20
789.8872690528153271
 30
0.0
 11
2688.6052917880665518
 21
789.0434567020846544
 31
0.0
 70
131
 71
8
 72
2
 74
0
 75
0
 41
1.0
 42
0.0
  1
2-\U+00f8<>
  3
Standard
100
AcDbDiametricDimension
 15
2703.175972204930531
 25
797.7315586289316798
 35
0.0
 40
0.0
1001
ACAD
1000
DSTYLE
1002
{
1070
279
1070
2
1070
144
1040
1.0
1070
40
1040
1.0
1002
}
  0
DIMENSION
  5
AF
100
AcDbEntity
  8
Cotas
 62
256
370
-1
 48
1.0
  6
BYLAYER
100
AcDbDimension
 10
2695.6354017273902173
 20
815.6610926632949941
 30
0.0
 11
2697.3040239574097541
 21
817.6717673810900351
 31
0.0
 70
128
 71
8
 72
2
 74
0
 75
0
 41
1.0
 42
0.0
  1

  3
Standard
100
AcDbAlignedDimension
 13
2695.6354017273902173
 23
810.4094138408734125
 33
0.0
 14
2701.635401727390672
 24
810.4094138408734125
 34
0.0
 50
0.0
100
AcDbRotatedDimension
1001
ACAD
1000
DSTYLE
1002
{
1070
279
1070
2
1070
144
1040
1.0
1070
40
1040
1.0
1002
}
  0
DIMENSION
  5
B0
100
AcDbEntity
  8
Cotas
 62
256
370
-1
 48
1.0
  6
BYLAYER
100
AcDbDimension
 10
2692.0354017273912177
 20
770.0900743932171508
 30
0.0
 11
2686.9270683940571871
 21
771.9650743932171508
 31
0.0
 70
0
 71
8
 72
2
 74
0
 75
0
 41
1.0
 42
0.0
  1

  3
Standard
100
AcDbAlignedDimension
 13
2692.0354017273912177
 23
765.6094138408735716
 33
0.0
 14
2689.635401727390672
 24
765.6094138408735716
 34
0.0
 50
0.0
100
AcDbRotatedDimension
1001
ACAD
1000
DSTYLE
1002
{
1070
144
1040
1.0
1070
40
1040
1.0
1002
}
  0
DIMENSION
  5
B1
100
AcDbEntity
  8
Cotas
 62
256
370
-1
 48
1.0
  6
BYLAYER
100
AcDbDimension
 10
2692.0354017273912177
 20
759.6094138408735716
 30
0.0
 11
2699.4161679278131487
 21
768.5189701189656262
 31
0.0
 70
4
 71
8
 72
2
 74
0
 41
1.0
 42
0.0
  1
R<>
  3
Standard
100
AcDbRadialDimension
 15
2696.5612760466074178
 25
763.5485078543061945
 35
0.0
 40
0.0
1001
ACAD
1000
DSTYLE
1002
{
1070
144
1040
1.0
1070
40
1040
1.0
1002
}
  0
DIMENSION
  5
B2
100
AcDbEntity
  8
Cotas
 62
256
370
-1
 48
1.0
  6
BYLAYER
100
AcDbDimension
 10
2689.635401727390672
 20
759.6094138408735716
 30
0.0
 11
2681.7583135368645344
 21
768.0833376319192212
 31
0.0
 70
4
 71
8
 72
2
 74
0
 41
1.0
 42
0.0
  1
R<>
  3
Standard
100
AcDbRadialDimension
 15
2684.8921504360796462
 25
763.2838617160617787
 35
0.0
 40
0.0
1001
ACAD
1000
DSTYLE
1002
{
1070
144
1040
1.0
1070
40
1040
1.0
1002
}
  0
LINE
  5
B3
100
AcDbEntity
  8
Ejes de revoluci\U+00f3n
 62
256
370
-1
 48
1.0
  6
BYLAYER
100
AcDbLine
 10
2692.2928916991609185
 20
750.0263406964659225
 30
0.0
 11
2684.1611090083497402
 21
750.0298142348577812
 31
0.0
  0
DIMENSION
  5
B4
100
AcDbEntity
  8
Cotas
 62
256
370
-1
 48
1.0
  6
BYLAYER
100
AcDbDimension
 10
2615.8354017273909449
 20
700.0224273598237232
 30
0.0
 11
2632.4354017273908539
 21
701.8974273598237232
 31
0.0
 70
0
 71
8
 72
2
 74
0
 75
0
 41
1.0
 42
0.0
  1

  3
Standard
100
AcDbAlignedDimension
 13
2615.8354017273909449
 23
723.609413840873458
 33
0.0
 14
2649.0354017273903082
 24
723.6094138408735716
 34
0.0
 50
0.0
100
AcDbRotatedDimension
1001
ACAD
1000
DSTYLE
1002
{
1070
144
1040
1.0
1070
40
1040
1.0
1002
}
  0
DIMENSION
  5
B5
100
AcDbEntity
  8
Cotas
 62
256
370
-1
 48
1.0
  6
BYLAYER
100
AcDbDimension
 10
2649.0354017273903082
 20
700.0224273598237232
 30
0.0
 11
2666.8354017273904901
 21
701.8974273598237232
 31
0.0
 70
0
 71
8
 72
2
 74
0
 75
0
 41
1.0
 42
0.0
  1

  3
Standard
100
AcDbAlignedDimension
 13
2649.0354017273903082
 23
723.6094138408735716
 33
0.0
 14
2684.635401727390672
 24
723.6094138408735716
 34
0.0
 50
0.0
100
AcDbRotatedDimension
1001
ACAD
1000
DSTYLE
1002
{
1070
144
1040
1.0
1070
40
1040
1.0
1002
}
  0
DIMENSION
  5
B6
100
AcDbEntity
  8
Cotas
 62
256
370
-1
 48
1.0
  6
BYLAYER
100
AcDbDimension
 10
2615.8354017273909449
 20
681.6709446545208948
 30
0.0
 11
2666.8354017273904901
 21
683.5459446545208948
 31
0.0
 70
0
 71
8
 72
2
 74
0
 75
0
 41
1.0
 42
0.0
  1

  3
Standard
100
AcDbAlignedDimension
 13
2615.8354017273909449
 23
723.609413840873458
 33
0.0
 14
2717.8354017273904901
 24
723.609413840873458
 34
0.0
 50
0.0
100
AcDbRotatedDimension
1001
ACAD
1000
DSTYLE
1002
{
1070
144
1040
1.0
1070
40
1040
1.0
1002
}
  0
DIMENSION
  5
B7
100
AcDbEntity
  8
Cotas
 62
256
370
-1
 48
1.0
  6
BYLAYER
100
AcDbDimension
 10
2689.7354017273905811
 20
750.0394138408734079
 30
0.0
 11
2695.9484248544140428
 21
741.3629706667417167
 31
0.0
 70
4
 71
8
 72
2
 74
0
 41
1.0
 42
0.0
  1
R<>
  3
Standard
100
AcDbRadialDimension
 15
2691.3274911059438637
 25
746.6994660253084248
 35
0.0
 40
0.0
1001
ACAD
1000
DSTYLE
1002
{
1070
144
1040
1.0
1070
40
1040
1.0
1002
}
  0
DIMENSION
  5
B8
100
AcDbEntity
  8
Cotas
 62
256
370
-1
 48
1.0
  6
BYLAYER
100
AcDbDimension
 10
2675.2354017273905811
 20
755.359413840873458
 30
0.0
 11
2675.2354017273905811
 21
757.234413840873458
 31
0.0
 70
0
 71
8
 72
2
 74
0
 75
0
 41
1.0
 42
0.0
  1

  3
Standard
100
AcDbAlignedDimension
 13
2683.635401727390672
 23
755.359413840873458
 33
0.0
 14
2666.8354017273904901
 24
755.359413840873458
 34
0.0
 50
0.0
100
AcDbRotatedDimension
1001
ACAD
1000
DSTYLE
1002
{
1070
144
1040
1.0
1070
40
1040
1.0
1002
}
  0
LINE
  5
B9
100
AcDbEntity
  8
Referencias 2
 62
256
370
-1
 48
1.0
  6
BYLAYER
100
AcDbLine
 10
2683.635401727390672
 20
751.109413840873458
 30
0.0
 11
2689.7354017273905811
 21
751.109413840873458
 31
0.0
  0
LINE
  5
BA
100
AcDbEntity
  8
Ejes de revoluci\U+00f3n
 62
256
370
-1
 48
1.0
  6
BYLAYER
100
AcDbLine
 10
2689.7354017273905811
 20
746.3394138408735898
 30
0.0
 11
2689.7354017273905811
 21
751.109413840873458
 31
0.0
  0
DIMENSION
  5
BB
100
AcDbEntity
  8
Cotas
 62
256
370
-1
 48
1.0
  6
BYLAYER
100
AcDbDimension
 10
2683.635401727390672
 20
739.2348945761884806
 30
0.0
 11
2686.6854017273908539
 21
741.1098945761884806
 31
0.0
 70
0
 71
8
 72
2
 74
0
 75
0
 41
1.0
 42
0.0
  1

  3
Standard
100
AcDbAlignedDimension
 13
2683.635401727390672
 23
751.1094138408726621
 33
0.0
 14
2689.7354017273905811
 24
746.3394138408735898
 34
0.0
 50
0.0
100
AcDbRotatedDimension
1001
ACAD
1000
DSTYLE
1002
{
1070
144
1040
1.0
1070
40
1040
1.0
1002
}
  0
DIMENSION
  5
BC
100
AcDbEntity
  8
Cotas
 62
256
370
-1
 48
1.0
  6
BYLAYER
100
AcDbDimension
 10
2676.3127401721962997
 20
739.8244138408733761
 30
0.0
 11
2674.4377401721962997
 21
739.8244138408733761
 31
0.0
 70
0
 71
8
 72
2
 74
0
 75
0
 41
1.0
 42
0.0
  1

  3
Standard
100
AcDbAlignedDimension
 13
2676.3127401721962997
 23
750.0394138408734079
 33
0.0
 14
2676.3127401721962997
 24
729.609413840873458
 34
0.0
 50
90.0
100
AcDbRotatedDimension
1001
ACAD
1000
DSTYLE
1002
{
1070
144
1040
1.0
1070
40
1040
1.0
1002
}
  0
DIMENSION
  5
BD
100
AcDbEntity
  8
Cotas
 62
256
370
-1
 48
1.0
  6
BYLAYER
100
AcDbDimension
 10
2659.2693256345919508
 20
751.109413840873458
 30
0.0
 11
2657.3943256345919508
 21
740.359413840873458
 31
0.0
 70
0
 71
8
 72
2
 74
0
 75
0
 41
1.0
 42
0.0
  1

  3
Standard
100
AcDbAlignedDimension
 13
2666.8354017273904901
 23
751.109413840873458
 33
0.0
 14
2666.8354017273904901
 24
729.609413840873458
 34
0.0
 50
90.0
100
AcDbRotatedDimension
1001
ACAD
1000
DSTYLE
1002
{
1070
144
1040
1.0
1070
40
1040
1.0
1002
}
  0
DIMENSION
  5
BE
100
AcDbEntity
  8
Cotas
 62
256
370
-1
 48
1.0
  6
BYLAYER
100
AcDbDimension
 10
2632.0354017273903082
 20
815.6610926632949941
 30
0.0
 11
2636.7377268023155921
 21
817.6717673810900351
 31
0.0
 70
128
 71
8
 72
2
 74
0
 75
0
 41
1.0
 42
0.0
  1

  3
Standard
100
AcDbAlignedDimension
 13
2632.0354017273903082
 23
810.4094138408734125
 33
0.0
 14
2638.0354017273903082
 24
810.4094138408734125
 34
0.0
 50
0.0
100
AcDbRotatedDimension
1001
ACAD
1000
DSTYLE
1002
{
1070
279
1070
2
1070
144
1040
1.0
1070
40
1040
1.0
1002
}
  0
DIMENSION
  5
BF
100
AcDbEntity
  8
Cotas
 62
256
370
-1
 48
1.0
  6
BYLAYER
100
AcDbDimension
 10
2635.0354017273903082
 20
834.6810307196426493
 30
0.0
 11
2666.8354017273904901
 21
836.5560307196426493
 31
0.0
 70
0
 71
8
 72
2
 74
0
 75
0
 41
1.0
 42
0.0
  1

  3
Standard
100
AcDbAlignedDimension
 13
2635.0354017273903082
 23
810.4094138408732988
 33
0.0
 14
2698.635401727390672
 24
810.4094138408732988
 34
0.0
 50
0.0
100
AcDbRotatedDimension
1001
ACAD
1000
DSTYLE
1002
{
1070
144
1040
1.0
1070
40
1040
1.0
1002
}
  0
DIMENSION
  5
C0
100
AcDbEntity
  8
Cotas
 62
256
370
-1
 48
1.0
  6
BYLAYER
100
AcDbDimension
 10
2615.8354017273909449
 20
834.6810307196426493
 30
0.0
 11
2625.4354017273908539
 21
836.5560307196426493
 31
0.0
 70
0
 71
8
 72
2
 74
0
 75
0
 41
1.0
 42
0.0
  1

  3
Standard
100
AcDbAlignedDimension
 13
2615.8354017273909449
 23
788.4094138408732988
 33
0.0
 14
2635.0354017273903082
 24
834.6810307196426493
 34
0.0
 50
0.0
100
AcDbRotatedDimension
1001
ACAD
1000
DSTYLE
1002
{
1070
144
1040
1.0
1070
40
1040
1.0
1002
}
  0
DIMENSION
  5
C1
100
AcDbEntity
  8
Cotas
 62
256
370
-1
 48
1.0
  6
BYLAYER
100
AcDbDimension
 10
2615.8354017273909449
 20
815.6610926632949941
 30
0.0
 11
2618.8354017273909449
 21
817.5360926632949941
 31
0.0
 70
0
 71
8
 72
2
 74
0
 75
0
 41
1.0
 42
0.0
  1

  3
Standard
100
AcDbAlignedDimension
 13
2615.8354017273909449
 23
788.4094138408732988
 33
0.0
 14
2621.8354017273909449
 24
788.4094138408734125
 34
0.0
 50
0.0
100
AcDbRotatedDimension
1001
ACAD
1000
DSTYLE
1002
{
1070
144
1040
1.0
1070
40
1040
1.0
1002
}
  0
DIMENSION
  5
C2
100
AcDbEntity
  8
Cotas
 62
256
370
-1
 48
1.0
  6
BYLAYER
100
AcDbDimension
 10
2635.0354017273903082
 20
793.8094138408735034
 30
0.0
 11
2612.7291460968699539
 21
798.135780554803091
 31
0.0
 70
4
 71
8
 72
2
 74
0
 41
1.0
 42
0.0
  1
2-R<>
  3
Standard
100
AcDbRadialDimension
 15
2621.9136830029028715
 25
795.2448572272282945
 35
0.0
 40
0.0
1001
ACAD
1000
DSTYLE
1002
{
1070
144
1040
1.0
1070
40
1040
1.0
1002
}
  0
DIMENSION
  5
C3
100
AcDbEntity
  8
Cotas
 62
256
370
-1
 48
1.0
  6
BYLAYER
100
AcDbDimension
 10
2606.6235851772062233
 20
788.4094138408732988
 30
0.0
 11
2604.7485851772062233
 21
777.3094138408733897
 31
0.0
 70
0
 71
8
 72
2
 74
0
 75
0
 41
1.0
 42
0.0
  1

  3
Standard
100
AcDbAlignedDimension
 13
2615.8354017273909449
 23
788.4094138408732988
 33
0.0
 14
2615.8354017273909449
 24
766.2094138408734807
 34
0.0
 50
90.0
100
AcDbRotatedDimension
1001
ACAD
1000
DSTYLE
1002
{
1070
144
1040
1.0
1070
40
1040
1.0
1002
}
  0
DIMENSION
  5
C4
100
AcDbEntity
  8
Cotas
 62
256
370
-1
 48
1.0
  6
BYLAYER
100
AcDbDimension
 10
2606.6235851772062233
 20
766.2094138408734807
 30
0.0
 11
2604.7485851772062233
 21
759.609413840873458
 31
0.0
 70
0
 71
8
 72
2
 74
0
 75
0
 41
1.0
 42
0.0
  1

  3
Standard
100
AcDbAlignedDimension
 13
2615.8354017273909449
 23
766.2094138408734807
 33
0.0
 14
2615.8354017273909449
 24
753.0094138408733215
 34
0.0
 50
90.0
100
AcDbRotatedDimension
1001
ACAD
1000
DSTYLE
1002
{
1070
144
1040
1.0
1070
40
1040
1.0
1002
}
  0
DIMENSION
  5
C5
100
AcDbEntity
  8
Cotas
 62
256
370
-1
 48
1.0
  6
BYLAYER
100
AcDbDimension
 10
2606.6235851772062233
 20
753.0094138408733215
 30
0.0
 11
2604.7485851772062233
 21
738.3094138408733897
 31
0.0
 70
0
 71
8
 72
2
 74
0
 75
0
 41
1.0
 42
0.0
  1

  3
Standard
100
AcDbAlignedDimension
 13
2615.8354017273909449
 23
753.0094138408733215
 33
0.0
 14
2615.8354017273909449
 24
723.609413840873458
 34
0.0
 50
90.0
100
AcDbRotatedDimension
1001
ACAD
1000
DSTYLE
1002
{
1070
144
1040
1.0
1070
40
1040
1.0
1002
}
  0
DIMENSION
  5
C6
100
AcDbEntity
  8
Cotas
 62
256
370
-1
 48
1.0
  6
BYLAYER
100
AcDbDimension
 10
2595.0053893924973636
 20
723.609413840873458
 30
0.0
 11
2593.1303893924973636
 21
767.0094138408733215
 31
0.0
 70
0
 71
8
 72
2
 74
0
 75
0
 41
1.0
 42
0.0
  1

  3
Standard
100
AcDbAlignedDimension
 13
2615.8354017273909449
 23
723.609413840873458
 33
0.0
 14
2635.0354017273903082
 24
810.4094138408732988
 34
0.0
 50
90.0
100
AcDbRotatedDimension
1001
ACAD
1000
DSTYLE
1002
{
1070
144
1040
1.0
1070
40
1040
1.0
1002
}
  0
DIMENSION
  5
C7
100
AcDbEntity
  8
Cotas
 62
256
370
-1
 48
1.0
  6
BYLAYER
100
AcDbDimension
 10
2644.8066855575921181
 20
729.609413840873458
 30
0.0
 11
2642.9316855575921181
 21
726.609413840873458
 31
0.0
 70
0
 71
8
 72
2
 74
0
 75
0
 41
1.0
 42
0.0
  1

  3
Standard
100
AcDbAlignedDimension
 13
2649.0354017273903082
 23
729.609413840873458
 33
0.0
 14
2649.0354017273903082
 24
723.6094138408735716
 34
0.0
 50
90.0
100
AcDbRotatedDimension
1001
ACAD
1000
DSTYLE
1002
{
1070
144
1040
1.0
1070
40
1040
1.0
1002
}
  0
DIMENSION
  5
C8
100
AcDbEntity
  8
Cotas
 62
256
370
-1
 48
1.0
  6
BYLAYER
100
AcDbDimension
 10
2653.275433890234126
 20
765.6094138408735716
 30
0.0
 11
2651.400433890234126
 21
747.609413840873458
 31
0.0
 70
0
 71
8
 72
2
 74
0
 75
0
 41
1.0
 42
0.0
  1

  3
Standard
100
AcDbAlignedDimension
 13
2689.635401727390672
 23
765.6094138408735716
 33
0.0
 14
2654.2866277209973305
 24
729.609413840873458
 34
0.0
 50
90.0
100
AcDbRotatedDimension
1001
ACAD
1000
DSTYLE
1002
{
1070
144
1040
1.0
1070
40
1040
1.0
1002
}
  0
ENDSEC
  0
SECTION
  2
OBJECTS
  0
DICTIONARY
  5
C
100
AcDbDictionary
280
0
281
1
  3
ACAD_GROUP
350
D
  3
ACAD_LAYOUT
350
1A
  3
ACAD_MLINESTYLE
350
17
  3
ACAD_PLOTSETTINGS
350
19
  3
ACAD_PLOTSTYLENAME
350
E
  3
AcDbVariableDictionary
350
C9
  3
QCAD_OBJECTS
350
CA
  0
DICTIONARY
  5
D
100
AcDbDictionary
280
0
281
1
  0
ACDBDICTIONARYWDFLT
  5
E
100
AcDbDictionary
281
1
  3
Normal
350
F
100
AcDbDictionaryWithDefault
340
F
  0
ACDBPLACEHOLDER
  5
F
  0
DICTIONARY
  5
17
100
AcDbDictionary
280
0
281
1
  3
Standard
350
18
  0
MLINESTYLE
  5
18
100
AcDbMlineStyle
  2
STANDARD
 70
0
  3

 62
256
 51
90.0
 52
90.0
 71
2
 49
0.5
 62
256
  6
BYLAYER
 49
-0.5
 62
256
  6
BYLAYER
  0
DICTIONARY
  5
19
100
AcDbDictionary
280
0
281
1
  0
DICTIONARY
  5
1A
100
AcDbDictionary
281
1
  3
Layout1
350
1E
  3
Layout2
350
26
  3
Model
350
22
  0
LAYOUT
  5
1E
100
AcDbPlotSettings
  1

  2
none_device
  4

  6

 40
0.0
 41
0.0
 42
0.0
 43
0.0
 44
0.0
 45
0.0
 46
0.0
 47
0.0
 48
0.0
 49
0.0
140
0.0
141
0.0
142
1.0
143
1.0
 70
688
 72
0
 73
0
 74
5
  7

 75
16
147
1.0
148
0.0
149
0.0
100
AcDbLayout
  1
Layout1
 70
1
 71
1
 10
0.0
 20
0.0
 11
420.0
 21
297.0
 12
0.0
 22
0.0
 32
0.0
 14
100000000000000000000.0
 24
100000000000000000000.0
 34
100000000000000000000.0
 15
-100000000000000000000.0
 25
-100000000000000000000.0
 35
-100000000000000000000.0
146
0.0
 13
0.0
 23
0.0
 33
0.0
 16
1.0
 26
0.0
 36
0.0
 17
0.0
 27
1.0
 37
0.0
 76
0
330
1B
  0
LAYOUT
  5
22
100
AcDbPlotSettings
  1

  2
none_device
  4

  6

 40
0.0
 41
0.0
 42
0.0
 43
0.0
 44
0.0
 45
0.0
 46
0.0
 47
0.0
 48
0.0
 49
0.0
140
0.0
141
0.0
142
1.0
143
1.0
 70
1712
 72
0
 73
0
 74
0
  7

 75
0
147
1.0
148
0.0
149
0.0
100
AcDbLayout
  1
Model
 70
1
 71
0
 10
0.0
 20
0.0
 11
12.0
 21
9.0
 12
0.0
 22
0.0
 32
0.0
 14
0.0
 24
0.0
 34
0.0
 15
0.0
 25
0.0
 35
0.0
146
0.0
 13
0.0
 23
0.0
 33
0.0
 16
1.0
 26
0.0
 36
0.0
 17
0.0
 27
1.0
 37
0.0
 76
0
330
1F
  0
LAYOUT
  5
26
100
AcDbPlotSettings
  1

  2
none_device
  4

  6

 40
0.0
 41
0.0
 42
0.0
 43
0.0
 44
0.0
 45
0.0
 46
0.0
 47
0.0
 48
0.0
 49
0.0
140
0.0
141
0.0
142
1.0
143
1.0
 70
688
 72
0
 73
0
 74
5
  7

 75
16
147
1.0
148
0.0
149
0.0
100
AcDbLayout
  1
Layout2
 70
1
 71
2
 10
0.0
 20
0.0
 11
12.0
 21
9.0
 12
0.0
 22
0.0
 32
0.0
 14
0.0
 24
0.0
 34
0.0
 15
0.0
 25
0.0
 35
0.0
146
0.0
 13
0.0
 23
0.0
 33
0.0
 16
1.0
 26
0.0
 36
0.0
 17
0.0
 27
1.0
 37
0.0
 76
0
330
23
  0
DICTIONARY
  5
C9
100
AcDbDictionary
281
1
  3
DIMASSOC
350
CC
  3
HIDETEXT
350
CB
  0
DICTIONARYVAR
  5
CB
100
DictionaryVariables
280
0
  1
2
  0
DICTIONARYVAR
  5
CC
100
DictionaryVariables
280
0
  1
1
  0
DICTIONARY
  5
CA
100
AcDbDictionary
281
1
  3
ColorSettings/BackgroundColor
350
CD
  3
ColorSettings/ColorMode
350
CE
  3
Grid/DisplayGrid00
350
CF
  3
Grid/DisplayGrid01
350
D0
  3
Grid/DisplayGrid02
350
D1
  3
Grid/DisplayGrid03
350
D2
  3
Grid/GridSpacingX00
350
D3
  3
Grid/GridSpacingX01
350
D4
  3
Grid/GridSpacingX02
350
D5
  3
Grid/GridSpacingX03
350
D6
  3
Grid/GridSpacingY00
350
D7
  3
Grid/GridSpacingY01
350
D8
  3
Grid/GridSpacingY02
350
D9
  3
Grid/GridSpacingY03
350
DA
  3
Grid/IsometricGrid00
350
DB
  3
Grid/IsometricGrid01
350
DC
  3
Grid/IsometricGrid02
350
DD
  3
Grid/IsometricGrid03
350
DE
  3
Grid/IsometricProjection00
350
DF
  3
Grid/IsometricProjection01
350
E0
  3
Grid/IsometricProjection02
350
E1
  3
Grid/IsometricProjection03
350
E2
  3
Grid/MetaGridSpacingX00
350
E3
  3
Grid/MetaGridSpacingX01
350
E4
  3
Grid/MetaGridSpacingX02
350
E5
  3
Grid/MetaGridSpacingX03
350
E6
  3
Grid/MetaGridSpacingY00
350
E7
  3
Grid/MetaGridSpacingY01
350
E8
  3
Grid/MetaGridSpacingY02
350
E9
  3
Grid/MetaGridSpacingY03
350
EA
  3
MultiPageSettings/Columns
350
EB
  3
MultiPageSettings/GlueMarginsBottom
350
EC
  3
MultiPageSettings/GlueMarginsLeft
350
ED
  3
MultiPageSettings/GlueMarginsRight
350
EE
  3
MultiPageSettings/GlueMarginsTop
350
EF
  3
MultiPageSettings/PrintCropMarks
350
F0
  3
MultiPageSettings/Rows
350
F1
  3
PageSettings/OffsetX
350
F2
  3
PageSettings/OffsetY
350
F3
  3
PageSettings/PageOrientation
350
F4
  3
PageSettings/PaperHeight
350
F5
  3
PageSettings/PaperWidth
350
F6
  3
PageSettings/Scale
350
F7
  3
PageSettings/ShowPaperBorders
350
F8
  3
PageTagSettings/EnablePageTags
350
F9
  3
PageTagSettings/TagAlignment
350
FA
  3
PageTagSettings/TagFont
350
FB
  3
PageTagSettings/TagPosition
350
FC
  3
QCADVersion
350
FD
  3
UnitSettings/PaperUnit
350
FE
  3
ViewportCenter
350
FF
  3
ViewportHeight
350
100
  3
ViewportWidth
350
101
  0
XRECORD
  5
CD
330
CA
100
AcDbXrecord
280
1
1000
Blanca
  0
XRECORD
  5
CE
330
CA
100
AcDbXrecord
280
1
1000
FullColor
  0
XRECORD
  5
CF
330
CA
100
AcDbXrecord
280
1
290
0
  0
XRECORD
  5
D0
330
CA
100
AcDbXrecord
280
1
290
1
  0
XRECORD
  5
D1
330
CA
100
AcDbXrecord
280
1
290
1
  0
XRECORD
  5
D2
330
CA
100
AcDbXrecord
280
1
290
1
  0
XRECORD
  5
D3
330
CA
100
AcDbXrecord
280
1
1000
auto
  0
XRECORD
  5
D4
330
CA
100
AcDbXrecord
280
1
1000
auto
  0
XRECORD
  5
D5
330
CA
100
AcDbXrecord
280
1
1000
auto
  0
XRECORD
  5
D6
330
CA
100
AcDbXrecord
280
1
1000
auto
  0
XRECORD
  5
D7
330
CA
100
AcDbXrecord
280
1
1000
auto
  0
XRECORD
  5
D8
330
CA
100
AcDbXrecord
280
1
1000
auto
  0
XRECORD
  5
D9
330
CA
100
AcDbXrecord
280
1
1000
auto
  0
XRECORD
  5
DA
330
CA
100
AcDbXrecord
280
1
1000
auto
  0
XRECORD
  5
DB
330
CA
100
AcDbXrecord
280
1
290
0
  0
XRECORD
  5
DC
330
CA
100
AcDbXrecord
280
1
290
0
  0
XRECORD
  5
DD
330
CA
100
AcDbXrecord
280
1
290
0
  0
XRECORD
  5
DE
330
CA
100
AcDbXrecord
280
1
290
0
  0
XRECORD
  5
DF
330
CA
100
AcDbXrecord
280
1
 90
65537
  0
XRECORD
  5
E0
330
CA
100
AcDbXrecord
280
1
 90
65537
  0
XRECORD
  5
E1
330
CA
100
AcDbXrecord
280
1
 90
65537
  0
XRECORD
  5
E2
330
CA
100
AcDbXrecord
280
1
 90
65537
  0
XRECORD
  5
E3
330
CA
100
AcDbXrecord
280
1
1000
auto
  0
XRECORD
  5
E4
330
CA
100
AcDbXrecord
280
1
1000
auto
  0
XRECORD
  5
E5
330
CA
100
AcDbXrecord
280
1
1000
auto
  0
XRECORD
  5
E6
330
CA
100
AcDbXrecord
280
1
1000
auto
  0
XRECORD
  5
E7
330
CA
100
AcDbXrecord
280
1
1000
1
  0
XRECORD
  5
E8
330
CA
100
AcDbXrecord
280
1
1000
auto
  0
XRECORD
  5
E9
330
CA
100
AcDbXrecord
280
1
1000
auto
  0
XRECORD
  5
EA
330
CA
100
AcDbXrecord
280
1
1000
auto
  0
XRECORD
  5
EB
330
CA
100
AcDbXrecord
280
1
 90
1
  0
XRECORD
  5
EC
330
CA
100
AcDbXrecord
280
1
 40
10.0
  0
XRECORD
  5
ED
330
CA
100
AcDbXrecord
280
1
 40
10.0
  0
XRECORD
  5
EE
330
CA
100
AcDbXrecord
280
1
 40
10.0
  0
XRECORD
  5
EF
330
CA
100
AcDbXrecord
280
1
 40
10.0
  0
XRECORD
  5
F0
330
CA
100
AcDbXrecord
280
1
290
0
  0
XRECORD
  5
F1
330
CA
100
AcDbXrecord
280
1
 90
1
  0
XRECORD
  5
F2
330
CA
100
AcDbXrecord
280
1
 40
793.1665914866936191
  0
XRECORD
  5
F3
330
CA
100
AcDbXrecord
280
1
 40
306.6308471493692309
  0
XRECORD
  5
F4
330
CA
100
AcDbXrecord
280
1
1000
Portrait
  0
XRECORD
  5
F5
330
CA
100
AcDbXrecord
280
1
 40
279.3999999999999773
  0
XRECORD
  5
F6
330
CA
100
AcDbXrecord
280
1
 40
215.9000000000000057
  0
XRECORD
  5
F7
330
CA
100
AcDbXrecord
280
1
 90
1
  0
XRECORD
  5
F8
330
CA
100
AcDbXrecord
280
1
290
1
  0
XRECORD
  5
F9
330
CA
100
AcDbXrecord
280
1
290
0
  0
XRECORD
  5
FA
330
CA
100
AcDbXrecord
280
1
1000
Inside
  0
XRECORD
  5
FB
330
CA
100
AcDbXrecord
280
1
1000
Arial,10,-1,5,50,0,0,0,0,0
  0
XRECORD
  5
FC
330
CA
100
AcDbXrecord
280
1
1000
TopLeft
  0
XRECORD
  5
FD
330
CA
100
AcDbXrecord
280
1
1000
3.28.1
  0
XRECORD
  5
FE
330
CA
100
AcDbXrecord
280
1
 90
4
  0
XRECORD
  5
100
330
CA
100
AcDbXrecord
280
1
 40
184.9387767229278552
  0
XRECORD
  5
101
330
CA
100
AcDbXrecord
280
1
 40
343.0803021247784272
  0
IMAGEDEF
  5
60
100
AcDbRasterImageDef
 90
0
  1
C:/Users/iamth/Documents/Estudio aut\U+00f3nomo/CAD/QCad/1. StudyCadCam/2D CAD EXERCISES 57a.png
 10
200.0
 20
141.0
 11
1.0
 21
1.0
280
1
281
0
  0
ENDSEC
  0
EOF
