999
dxflib 3.26.4.0
  0
SECTION
  2
HEADER
  9
$ACADVER
  1
AC1015
  9
$HANDSEED
  5
FFFF
  9
$DIMADEC
 70
0
  9
$DIMASZ
 40
2.5
  9
$DIMATFIT
 70
0
  9
$DIMAUNIT
 70
0
  9
$DIMAZIN
 70
2
  9
$DIMBLK
  1
0
  9
$DIMBLK1
  1
0
  9
$DIMBLK2
  1
0
  9
$DIMDEC
 70
4
  9
$DIMDLI
 40
5.0
  9
$DIMDSEP
 70
46
  9
$DIMEXE
 40
1.25
  9
$DIMEXO
 40
0.625
  9
$DIMGAP
 40
0.625
  9
$DIMLFAC
 40
1.0
  9
$DIMLUNIT
 70
2
  9
$DIMSCALE
 40
0.2
  9
$DIMTAD
 70
1
  9
$DIMTIH
 70
0
  9
$DIMTSZ
 40
0.0
  9
$DIMTXT
 40
2.5
  9
$DIMZIN
 70
8
  9
$DWGCODEPAGE
  3
ANSI_1252
  9
$INSUNITS
 70
4
  9
$LTSCALE
 40
1.0
  9
$MAXACTVP
 70
64
  9
$MEASUREMENT
 70
1
  9
$MIRRTEXT
 70
0
  9
$PDMODE
 70
0
  9
$PDSIZE
 40
0.0
  0
ENDSEC
  0
SECTION
  2
TABLES
  0
TABLE
  2
VPORT
  5
8
100
AcDbSymbolTable
 70
1
  0
VPORT
  5
30
100
AcDbSymbolTableRecord
100
AcDbViewportTableRecord
  2
*Active
 70
0
 10
0.0
 20
0.0
 11
1.0
 21
1.0
 12
286.3055555555554861
 22
148.5
 13
0.0
 23
0.0
 14
10.0
 24
10.0
 15
10.0
 25
10.0
 16
0.0
 26
0.0
 36
1.0
 17
0.0
 27
0.0
 37
0.0
 40
297.0
 41
1.92798353909465
 42
50.0
 43
0.0
 44
0.0
 50
0.0
 51
0.0
 71
0
 72
100
 73
1
 74
3
 75
1
 76
1
 77
0
 78
0
281
0
 65
1
110
0.0
120
0.0
130
0.0
111
1.0
121
0.0
131
0.0
112
0.0
122
1.0
132
0.0
 79
0
146
0.0
  0
ENDTAB
  0
TABLE
  2
LTYPE
  5
5
100
AcDbSymbolTable
 70
41
  0
LTYPE
  5
16
100
AcDbSymbolTableRecord
100
AcDbLinetypeTableRecord
  2
Continuous
 70
0
  3
Solid line
 72
65
 73
0
 40
0.0
  0
LTYPE
  5
31
100
AcDbSymbolTableRecord
100
AcDbLinetypeTableRecord
  2
DASHDOT2
 70
0
  3
Dash dot (.5x) _._._._._._._._._._._._._._._.
 72
65
 73
4
 40
12.6999999999999993
 49
6.3499999999999996
 74
0
 49
-3.125
 74
0
 49
0.1
 74
0
 49
-3.125
 74
0
  0
LTYPE
  5
32
100
AcDbSymbolTableRecord
100
AcDbLinetypeTableRecord
  2
ACAD_ISO02W100
 70
0
  3
ISO dash __ __ __ __ __ __ __ __ __ __ __ __ __
 72
65
 73
2
 40
15.0
 49
12.0
 74
0
 49
-3.0
 74
0
  0
LTYPE
  5
33
100
AcDbSymbolTableRecord
100
AcDbLinetypeTableRecord
  2
DOTX2
 70
0
  3
Dot (2x) .  .  .  .  .  .  .  .  .  .  .  .  .  .
 72
65
 73
2
 40
12.6999999999999993
 49
0.1
 74
0
 49
-12.5999999999999996
 74
0
  0
LTYPE
  5
34
100
AcDbSymbolTableRecord
100
AcDbLinetypeTableRecord
  2
PHANTOMX2
 70
0
  3
Phantom (2x) ____________    ____    ____   _
 72
65
 73
6
 40
127.0000000000000142
 49
63.5
 74
0
 49
-12.6999999999999993
 74
0
 49
12.6999999999999993
 74
0
 49
-12.6999999999999993
 74
0
 49
12.6999999999999993
 74
0
 49
-12.6999999999999993
 74
0
  0
LTYPE
  5
35
100
AcDbSymbolTableRecord
100
AcDbLinetypeTableRecord
  2
DOT2
 70
0
  3
Dot (.5x) ........................................
 72
65
 73
2
 40
3.1749999999999998
 49
0.1
 74
0
 49
-3.0749999999999997
 74
0
  0
LTYPE
  5
36
100
AcDbSymbolTableRecord
100
AcDbLinetypeTableRecord
  2
ACAD_ISO06W100
 70
0
  3
ISO long-dash triple-dot ____ ... ____ ... ____
 72
65
 73
8
 40
36.0000000000000071
 49
24.0
 74
0
 49
-2.9500000000000002
 74
0
 49
0.1
 74
0
 49
-2.9000000000000004
 74
0
 49
0.1
 74
0
 49
-2.9000000000000004
 74
0
 49
0.1
 74
0
 49
-2.9500000000000002
 74
0
  0
LTYPE
  5
37
100
AcDbSymbolTableRecord
100
AcDbLinetypeTableRecord
  2
ACAD_ISO15W100
 70
0
  3
ISO double-dash triple-dot __ __ . . . __ __ . .
 72
65
 73
10
 40
39.0000000000000071
 49
12.0
 74
0
 49
-3.0
 74
0
 49
12.0
 74
0
 49
-2.9500000000000002
 74
0
 49
0.1
 74
0
 49
-2.9000000000000004
 74
0
 49
0.1
 74
0
 49
-2.9000000000000004
 74
0
 49
0.1
 74
0
 49
-2.9500000000000002
 74
0
  0
LTYPE
  5
38
100
AcDbSymbolTableRecord
100
AcDbLinetypeTableRecord
  2
BORDER
 70
0
  3
Border __ __ . __ __ . __ __ . __ __ . __ __ .
 72
65
 73
6
 40
44.4499999999999957
 49
12.6999999999999993
 74
0
 49
-6.3499999999999996
 74
0
 49
12.6999999999999993
 74
0
 49
-6.2999999999999998
 74
0
 49
0.1
 74
0
 49
-6.2999999999999998
 74
0
  0
LTYPE
  5
39
100
AcDbSymbolTableRecord
100
AcDbLinetypeTableRecord
  2
DASHDOTX2
 70
0
  3
Dash dot (2x) ____  .  ____  .  ____  .  ___
 72
65
 73
4
 40
50.7999999999999972
 49
25.3999999999999986
 74
0
 49
-12.6499999999999986
 74
0
 49
0.1
 74
0
 49
-12.6499999999999986
 74
0
  0
LTYPE
  5
14
100
AcDbSymbolTableRecord
100
AcDbLinetypeTableRecord
  2
BYBLOCK
 70
0
  3

 72
65
 73
0
 40
0.0
  0
LTYPE
  5
15
100
AcDbSymbolTableRecord
100
AcDbLinetypeTableRecord
  2
BYLAYER
 70
0
  3

 72
65
 73
0
 40
0.0
  0
LTYPE
  5
3A
100
AcDbSymbolTableRecord
100
AcDbLinetypeTableRecord
  2
HIDDENX2
 70
0
  3
Hidden (2x) ____ ____ ____ ____ ____ ____ ____ 
 72
65
 73
2
 40
19.0499999999999972
 49
12.6999999999999993
 74
0
 49
-6.3499999999999996
 74
0
  0
LTYPE
  5
3B
100
AcDbSymbolTableRecord
100
AcDbLinetypeTableRecord
  2
ACAD_ISO12W100
 70
0
  3
ISO dash double-dot __ . . __ . . __ . . __ . . 
 72
65
 73
6
 40
21.0
 49
12.0
 74
0
 49
-2.9500000000000002
 74
0
 49
0.1
 74
0
 49
-2.9000000000000004
 74
0
 49
0.1
 74
0
 49
-2.9500000000000002
 74
0
  0
LTYPE
  5
3C
100
AcDbSymbolTableRecord
100
AcDbLinetypeTableRecord
  2
CENTER
 70
0
  3
Center ____ _ ____ _ ____ _ ____ _ ____ _ ____
 72
65
 73
4
 40
50.8000000000000043
 49
31.75
 74
0
 49
-6.3499999999999996
 74
0
 49
6.3499999999999996
 74
0
 49
-6.3499999999999996
 74
0
  0
LTYPE
  5
3D
100
AcDbSymbolTableRecord
100
AcDbLinetypeTableRecord
  2
ACAD_ISO03W100
 70
0
  3
ISO dash space __    __    __    __    __    __
 72
65
 73
2
 40
30.0
 49
12.0
 74
0
 49
-18.0
 74
0
  0
LTYPE
  5
3E
100
AcDbSymbolTableRecord
100
AcDbLinetypeTableRecord
  2
ACAD_ISO04W100
 70
0
  3
ISO long-dash dot ____ . ____ . ____ . ____ . _
 72
65
 73
4
 40
30.0
 49
24.0
 74
0
 49
-2.9500000000000002
 74
0
 49
0.1
 74
0
 49
-2.9500000000000002
 74
0
  0
LTYPE
  5
3F
100
AcDbSymbolTableRecord
100
AcDbLinetypeTableRecord
  2
ACAD_ISO13W100
 70
0
  3
ISO double-dash double-dot __ __ . . __ __ . . _
 72
65
 73
8
 40
36.0000000000000071
 49
12.0
 74
0
 49
-3.0
 74
0
 49
12.0
 74
0
 49
-2.9500000000000002
 74
0
 49
0.1
 74
0
 49
-2.9000000000000004
 74
0
 49
0.1
 74
0
 49
-2.9500000000000002
 74
0
  0
LTYPE
  5
40
100
AcDbSymbolTableRecord
100
AcDbLinetypeTableRecord
  2
DASHDOT
 70
0
  3
Dash dot __ . __ . __ . __ . __ . __ . __ . __
 72
65
 73
4
 40
25.4000000000000021
 49
12.6999999999999993
 74
0
 49
-6.2999999999999998
 74
0
 49
0.1
 74
0
 49
-6.2999999999999998
 74
0
  0
LTYPE
  5
41
100
AcDbSymbolTableRecord
100
AcDbLinetypeTableRecord
  2
CENTER2
 70
0
  3
Center (.5x) ___ _ ___ _ ___ _ ___ _ ___ _ ___
 72
65
 73
4
 40
28.5750000000000028
 49
19.0500000000000007
 74
0
 49
-3.1749999999999998
 74
0
 49
3.1749999999999998
 74
0
 49
-3.1749999999999998
 74
0
  0
LTYPE
  5
42
100
AcDbSymbolTableRecord
100
AcDbLinetypeTableRecord
  2
BORDER2
 70
0
  3
Border (.5x) __.__.__.__.__.__.__.__.__.__.__.
 72
65
 73
6
 40
22.2250000000000014
 49
6.3499999999999996
 74
0
 49
-3.1749999999999998
 74
0
 49
6.3499999999999996
 74
0
 49
-3.125
 74
0
 49
0.1
 74
0
 49
-3.125
 74
0
  0
LTYPE
  5
43
100
AcDbSymbolTableRecord
100
AcDbLinetypeTableRecord
  2
ACAD_ISO14W100
 70
0
  3
ISO dash triple-dot __ . . . __ . . . __ . . . _
 72
65
 73
8
 40
24.0000000000000036
 49
12.0
 74
0
 49
-2.9500000000000002
 74
0
 49
0.1
 74
0
 49
-2.9000000000000004
 74
0
 49
0.1
 74
0
 49
-2.9000000000000004
 74
0
 49
0.1
 74
0
 49
-2.9500000000000002
 74
0
  0
LTYPE
  5
44
100
AcDbSymbolTableRecord
100
AcDbLinetypeTableRecord
  2
DIVIDE2
 70
0
  3
Divide (.5x) __..__..__..__..__..__..__..__.._
 72
65
 73
6
 40
15.8749999999999982
 49
6.3499999999999996
 74
0
 49
-3.125
 74
0
 49
0.1
 74
0
 49
-3.0750000000000002
 74
0
 49
0.1
 74
0
 49
-3.125
 74
0
  0
LTYPE
  5
45
100
AcDbSymbolTableRecord
100
AcDbLinetypeTableRecord
  2
DASHEDX2
 70
0
  3
Dashed (2x) ____  ____  ____  ____  ____  ___
 72
65
 73
2
 40
38.0999999999999943
 49
25.3999999999999986
 74
0
 49
-12.6999999999999993
 74
0
  0
LTYPE
  5
46
100
AcDbSymbolTableRecord
100
AcDbLinetypeTableRecord
  2
ACAD_ISO11W100
 70
0
  3
ISO double-dash dot __ __ . __ __ . __ __ . __ _
 72
65
 73
6
 40
33.0
 49
12.0
 74
0
 49
-3.0
 74
0
 49
12.0
 74
0
 49
-2.9500000000000002
 74
0
 49
0.1
 74
0
 49
-2.9500000000000002
 74
0
  0
LTYPE
  5
47
100
AcDbSymbolTableRecord
100
AcDbLinetypeTableRecord
  2
DASHED2
 70
0
  3
Dashed (.5x) _ _ _ _ _ _ _ _ _ _ _ _ _ _ _ _ _ 
 72
65
 73
2
 40
9.5249999999999986
 49
6.3499999999999996
 74
0
 49
-3.1749999999999998
 74
0
  0
LTYPE
  5
48
100
AcDbSymbolTableRecord
100
AcDbLinetypeTableRecord
  2
DOT
 70
0
  3
Dot . . . . . . . . . . . . . . . . . . . . . . . .
 72
65
 73
2
 40
6.3499999999999996
 49
0.1
 74
0
 49
-6.25
 74
0
  0
LTYPE
  5
49
100
AcDbSymbolTableRecord
100
AcDbLinetypeTableRecord
  2
DASHED
 70
0
  3
Dashed __ __ __ __ __ __ __ __ __ __ __ __ __ _
 72
65
 73
2
 40
19.0499999999999972
 49
12.6999999999999993
 74
0
 49
-6.3499999999999996
 74
0
  0
LTYPE
  5
4A
100
AcDbSymbolTableRecord
100
AcDbLinetypeTableRecord
  2
ACAD_ISO10W100
 70
0
  3
ISO dash dot __ . __ . __ . __ . __ . __ . __ . 
 72
65
 73
4
 40
18.0
 49
12.0
 74
0
 49
-2.9500000000000002
 74
0
 49
0.1
 74
0
 49
-2.9500000000000002
 74
0
  0
LTYPE
  5
4B
100
AcDbSymbolTableRecord
100
AcDbLinetypeTableRecord
  2
ACAD_ISO09W100
 70
0
  3
ISO long-dash double-short-dash ____ __ __ ____
 72
65
 73
6
 40
45.0
 49
24.0
 74
0
 49
-3.0
 74
0
 49
6.0
 74
0
 49
-3.0
 74
0
 49
6.0
 74
0
 49
-3.0
 74
0
  0
LTYPE
  5
4C
100
AcDbSymbolTableRecord
100
AcDbLinetypeTableRecord
  2
DIVIDE
 70
0
  3
Divide ____ . . ____ . . ____ . . ____ . . ____
 72
65
 73
6
 40
31.7500000000000036
 49
12.6999999999999993
 74
0
 49
-6.2999999999999998
 74
0
 49
0.1
 74
0
 49
-6.25
 74
0
 49
0.1
 74
0
 49
-6.2999999999999998
 74
0
  0
LTYPE
  5
4D
100
AcDbSymbolTableRecord
100
AcDbLinetypeTableRecord
  2
ACAD_ISO05W100
 70
0
  3
ISO long-dash double-dot ____ .. ____ .. ____ . 
 72
65
 73
6
 40
33.0000000000000071
 49
24.0
 74
0
 49
-2.9500000000000002
 74
0
 49
0.1
 74
0
 49
-2.9000000000000004
 74
0
 49
0.1
 74
0
 49
-2.9500000000000002
 74
0
  0
LTYPE
  5
4E
100
AcDbSymbolTableRecord
100
AcDbLinetypeTableRecord
  2
CENTERX2
 70
0
  3
Center (2x) ________  __  ________  __  _____
 72
65
 73
4
 40
101.6000000000000085
 49
63.5
 74
0
 49
-12.6999999999999993
 74
0
 49
12.6999999999999993
 74
0
 49
-12.6999999999999993
 74
0
  0
LTYPE
  5
4F
100
AcDbSymbolTableRecord
100
AcDbLinetypeTableRecord
  2
HIDDEN
 70
0
  3
Hidden __ __ __ __ __ __ __ __ __ __ __ __ __ __
 72
65
 73
2
 40
9.5249999999999986
 49
6.3499999999999996
 74
0
 49
-3.1749999999999998
 74
0
  0
LTYPE
  5
50
100
AcDbSymbolTableRecord
100
AcDbLinetypeTableRecord
  2
PHANTOM
 70
0
  3
Phantom ______  __  __  ______  __  __  ______ 
 72
65
 73
6
 40
63.5000000000000071
 49
31.75
 74
0
 49
-6.3499999999999996
 74
0
 49
6.3499999999999996
 74
0
 49
-6.3499999999999996
 74
0
 49
6.3499999999999996
 74
0
 49
-6.3499999999999996
 74
0
  0
LTYPE
  5
51
100
AcDbSymbolTableRecord
100
AcDbLinetypeTableRecord
  2
DIVIDEX2
 70
0
  3
Divide (2x) ________  .  .  ________  .  .  _
 72
65
 73
6
 40
63.5
 49
25.3999999999999986
 74
0
 49
-12.6499999999999986
 74
0
 49
0.1
 74
0
 49
-12.5999999999999979
 74
0
 49
0.1
 74
0
 49
-12.6499999999999986
 74
0
  0
LTYPE
  5
52
100
AcDbSymbolTableRecord
100
AcDbLinetypeTableRecord
  2
HIDDEN2
 70
0
  3
Hidden (.5x) _ _ _ _ _ _ _ _ _ _ _ _ _ _ _ _ _ 
 72
65
 73
2
 40
4.7624999999999993
 49
3.1749999999999998
 74
0
 49
-1.5874999999999999
 74
0
  0
LTYPE
  5
53
100
AcDbSymbolTableRecord
100
AcDbLinetypeTableRecord
  2
ACAD_ISO08W100
 70
0
  3
ISO long-dash short-dash ____ __ ____ __ ____ _
 72
65
 73
4
 40
36.0
 49
24.0
 74
0
 49
-3.0
 74
0
 49
6.0
 74
0
 49
-3.0
 74
0
  0
LTYPE
  5
54
100
AcDbSymbolTableRecord
100
AcDbLinetypeTableRecord
  2
PHANTOM2
 70
0
  3
Phantom (.5x) ___ _ _ ___ _ _ ___ _ _ ___ _ _
 72
65
 73
6
 40
31.7500000000000036
 49
15.875
 74
0
 49
-3.1749999999999998
 74
0
 49
3.1749999999999998
 74
0
 49
-3.1749999999999998
 74
0
 49
3.1749999999999998
 74
0
 49
-3.1749999999999998
 74
0
  0
LTYPE
  5
55
100
AcDbSymbolTableRecord
100
AcDbLinetypeTableRecord
  2
ACAD_ISO07W100
 70
0
  3
ISO dot . . . . . . . . . . . . . . . . . . . . 
 72
65
 73
2
 40
3.0
 49
0.1
 74
0
 49
-2.8999999999999999
 74
0
  0
LTYPE
  5
56
100
AcDbSymbolTableRecord
100
AcDbLinetypeTableRecord
  2
BORDERX2
 70
0
  3
Border (2x) ____  ____  .  ____  ____  .  ___
 72
65
 73
6
 40
88.8999999999999773
 49
25.3999999999999986
 74
0
 49
-12.6999999999999993
 74
0
 49
25.3999999999999986
 74
0
 49
-12.6499999999999986
 74
0
 49
0.1
 74
0
 49
-12.6499999999999986
 74
0
  0
ENDTAB
  0
TABLE
  2
LAYER
  5
2
100
AcDbSymbolTable
 70
7
  0
LAYER
  5
57
100
AcDbSymbolTableRecord
100
AcDbLayerTableRecord
  2
Cotas
 70
0
 62
1
420
16711680
  6
Continuous
370
20
390
F
  0
LAYER
  5
58
100
AcDbSymbolTableRecord
100
AcDbLayerTableRecord
  2
Referencias
 70
1
 62
2
420
16776960
  6
Continuous
370
25
390
F
  0
LAYER
  5
59
100
AcDbSymbolTableRecord
100
AcDbLayerTableRecord
  2
Ejes de revoluci\U+00f3n
 70
0
 62
6
420
16711935
  6
ACAD_ISO04W100
370
20
390
F
  0
LAYER
  5
5A
100
AcDbSymbolTableRecord
100
AcDbLayerTableRecord
  2
Contornos Visibles
 70
0
 62
7
420
16777215
  6
Continuous
370
50
390
F
  0
LAYER
  5
10
100
AcDbSymbolTableRecord
100
AcDbLayerTableRecord
  2
0
 70
0
 62
7
420
16777215
  6
Continuous
370
25
390
F
  0
LAYER
  5
5B
100
AcDbSymbolTableRecord
100
AcDbLayerTableRecord
  2
Contornos Ocultos
 70
0
 62
252
420
10526884
  6
ACAD_ISO02W100
370
30
390
F
  0
LAYER
  5
5C
100
AcDbSymbolTableRecord
100
AcDbLayerTableRecord
  2
Referencias 2
 70
1
 62
3
420
65280
  6
Continuous
370
25
390
F
  0
ENDTAB
  0
TABLE
  2
STYLE
  5
3
100
AcDbSymbolTable
 70
1
  0
STYLE
  5
5D
100
AcDbSymbolTableRecord
100
AcDbTextStyleTableRecord
  2
Standard
 70
0
 40
0.0
 41
1.0
 50
0.0
 71
0
 42
2.5
  3

  4

1001
ACAD
1000
txt
1071
0
  0
ENDTAB
  0
TABLE
  2
VIEW
  5
6
100
AcDbSymbolTable
 70
0
  0
ENDTAB
  0
TABLE
  2
UCS
  5
7
100
AcDbSymbolTable
 70
0
  0
ENDTAB
  0
TABLE
  2
APPID
  5
9
100
AcDbSymbolTable
 70
1
  0
APPID
  5
12
100
AcDbSymbolTableRecord
100
AcDbRegAppTableRecord
  2
ACAD
 70
0
  0
APPID
  5
5E
100
AcDbSymbolTableRecord
100
AcDbRegAppTableRecord
  2
QCAD
 70
0
  0
ENDTAB
  0
TABLE
  2
DIMSTYLE
  5
A
100
AcDbSymbolTable
 70
1
100
AcDbDimStyleTable
 71
0
  0
DIMSTYLE
105
27
100
AcDbSymbolTableRecord
100
AcDbDimStyleTableRecord
  2
Standard
 41
2.5
 42
0.625
 43
3.75
 44
1.25
 70
0
 73
0
 74
0
 77
1
 78
8
140
2.5
141
2.5
143
0.03937007874016
147
0.625
171
3
172
1
271
2
272
2
274
3
278
44
283
0
284
8
340
5D
  0
ENDTAB
  0
TABLE
  2
BLOCK_RECORD
  5
1
100
AcDbSymbolTable
 70
1
  0
BLOCK_RECORD
  5
1F
100
AcDbSymbolTableRecord
100
AcDbBlockTableRecord
  2
*Model_Space
340
22
  0
BLOCK_RECORD
  5
1B
100
AcDbSymbolTableRecord
100
AcDbBlockTableRecord
  2
*Paper_Space
340
1E
  0
BLOCK_RECORD
  5
23
100
AcDbSymbolTableRecord
100
AcDbBlockTableRecord
  2
*Paper_Space0
340
26
  0
ENDTAB
  0
ENDSEC
  0
SECTION
  2
BLOCKS
  0
BLOCK
  5
20
100
AcDbEntity
  8
0
100
AcDbBlockBegin
  2
*Model_Space
 70
0
 10
0.0
 20
0.0
 30
0.0
  3
*Model_Space
  1

  0
ENDBLK
  5
21
100
AcDbEntity
  8
0
100
AcDbBlockEnd
  0
BLOCK
  5
1C
100
AcDbEntity
 67
1
  8
0
100
AcDbBlockBegin
  2
*Paper_Space
 70
0
 10
0.0
 20
0.0
 30
0.0
  3
*Paper_Space
  1

  0
ENDBLK
  5
1D
100
AcDbEntity
 67
1
  8
0
100
AcDbBlockEnd
  0
BLOCK
  5
24
100
AcDbEntity
  8
0
100
AcDbBlockBegin
  2
*Paper_Space0
 70
0
 10
0.0
 20
0.0
 30
0.0
  3
*Paper_Space0
  1

  0
ENDBLK
  5
25
100
AcDbEntity
  8
0
100
AcDbBlockEnd
  0
ENDSEC
  0
SECTION
  2
ENTITIES
  0
IMAGE
  5
5F
100
AcDbEntity
  8
0
 62
256
370
-1
 48
1.0
  6
BYLAYER
100
AcDbRasterImage
 90
0
 10
3020.7011314180545014
 20
686.2136886140078786
 30
0.0
 11
0.09765625
 21
0.0
 31
0.0
 12
0.0
 22
0.09765625
 32
0.0
 13
200.0
 23
141.0
340
60
 70
15
280
0
281
50
282
50
283
0
  0
ARC
  5
61
100
AcDbEntity
  8
Contornos Visibles
 62
256
370
-1
 48
1.0
  6
BYLAYER
100
AcDbCircle
 10
3431.1458167925898124
 20
762.7893242409127197
 30
0.0
 40
2.5
100
AcDbArc
 50
250.5287793655064661
 51
289.4712206344935339
  0
ARC
  5
62
100
AcDbEntity
  8
Contornos Visibles
 62
256
370
-1
 48
1.0
  6
BYLAYER
100
AcDbCircle
 10
3431.1458167925898124
 20
762.7893242409127197
 30
0.0
 40
2.5
100
AcDbArc
 50
340.5287793655080009
 51
0.0
  0
ARC
  5
63
100
AcDbEntity
  8
Contornos Visibles
 62
256
370
-1
 48
1.0
  6
BYLAYER
100
AcDbCircle
 10
3431.1458167925898124
 20
762.7893242409127197
 30
0.0
 40
2.5
100
AcDbArc
 50
160.5287793655080293
 51
199.4712206344919707
  0
ARC
  5
64
100
AcDbEntity
  8
Contornos Visibles
 62
256
370
-1
 48
1.0
  6
BYLAYER
100
AcDbCircle
 10
3431.1458167925898124
 20
762.7893242409127197
 30
0.0
 40
2.5
100
AcDbArc
 50
0.0
 51
19.4712206344919529
  0
ARC
  5
65
100
AcDbEntity
  8
Contornos Visibles
 62
256
370
-1
 48
1.0
  6
BYLAYER
100
AcDbCircle
 10
3431.1458167925898124
 20
766.7893242409127197
 30
0.0
 40
2.5
100
AcDbArc
 50
340.5287793655080009
 51
0.0
  0
ARC
  5
66
100
AcDbEntity
  8
Contornos Visibles
 62
256
370
-1
 48
1.0
  6
BYLAYER
100
AcDbCircle
 10
3431.1458167925898124
 20
766.7893242409127197
 30
0.0
 40
2.5
100
AcDbArc
 50
180.0
 51
199.4712206344919707
  0
ARC
  5
67
100
AcDbEntity
  8
Contornos Visibles
 62
256
370
-1
 48
1.0
  6
BYLAYER
100
AcDbCircle
 10
3431.1458167925898124
 20
770.7893242409127197
 30
0.0
 40
2.5
100
AcDbArc
 50
70.5287793655064803
 51
109.4712206344935623
  0
ARC
  5
68
100
AcDbEntity
  8
Contornos Visibles
 62
256
370
-1
 48
1.0
  6
BYLAYER
100
AcDbCircle
 10
3431.1458167925898124
 20
770.7893242409127197
 30
0.0
 40
2.5
100
AcDbArc
 50
0.0
 51
19.4712206344919743
  0
ARC
  5
69
100
AcDbEntity
  8
Contornos Visibles
 62
256
370
-1
 48
1.0
  6
BYLAYER
100
AcDbCircle
 10
3431.1458167925898124
 20
766.7893242409127197
 30
0.0
 40
2.5
100
AcDbArc
 50
160.5287793655080293
 51
180.0
  0
ARC
  5
6A
100
AcDbEntity
  8
Contornos Visibles
 62
256
370
-1
 48
1.0
  6
BYLAYER
100
AcDbCircle
 10
3431.1458167925898124
 20
766.7893242409127197
 30
0.0
 40
2.5
100
AcDbArc
 50
0.0
 51
19.4712206344919743
  0
ARC
  5
6B
100
AcDbEntity
  8
Contornos Visibles
 62
256
370
-1
 48
1.0
  6
BYLAYER
100
AcDbCircle
 10
3431.1458167925898124
 20
770.7893242409127197
 30
0.0
 40
2.5
100
AcDbArc
 50
340.5287793655080009
 51
0.0
  0
ARC
  5
6C
100
AcDbEntity
  8
Contornos Visibles
 62
256
370
-1
 48
1.0
  6
BYLAYER
100
AcDbCircle
 10
3431.1458167925898124
 20
770.7893242409127197
 30
0.0
 40
2.5
100
AcDbArc
 50
160.5287793655080293
 51
199.4712206344919707
  0
ARC
  5
6D
100
AcDbEntity
  8
Contornos Visibles
 62
256
370
-1
 48
1.0
  6
BYLAYER
100
AcDbCircle
 10
3431.1458167925898124
 20
778.7893242409127197
 30
0.0
 40
2.5
100
AcDbArc
 50
70.5287793655064803
 51
109.4712206344935623
  0
ARC
  5
6E
100
AcDbEntity
  8
Contornos Visibles
 62
256
370
-1
 48
1.0
  6
BYLAYER
100
AcDbCircle
 10
3431.1458167925898124
 20
778.7893242409127197
 30
0.0
 40
2.5
100
AcDbArc
 50
0.0
 51
19.4712206344919743
  0
ARC
  5
6F
100
AcDbEntity
  8
Contornos Visibles
 62
256
370
-1
 48
1.0
  6
BYLAYER
100
AcDbCircle
 10
3431.1458167925898124
 20
778.7893242409127197
 30
0.0
 40
2.5
100
AcDbArc
 50
340.5287793655080009
 51
0.0
  0
ARC
  5
70
100
AcDbEntity
  8
Contornos Visibles
 62
256
370
-1
 48
1.0
  6
BYLAYER
100
AcDbCircle
 10
3431.1458167925898124
 20
778.7893242409127197
 30
0.0
 40
2.5
100
AcDbArc
 50
160.5287793655080293
 51
199.4712206344919707
  0
XLINE
  5
71
100
AcDbEntity
  8
Referencias 2
 62
256
370
-1
 48
1.0
  6
BYLAYER
100
AcDbLine
 10
3431.1458167925898124
 20
762.7893242409127197
 30
0.0
 11
1.0
 21
0.0
 31
0.0
  0
LINE
  5
72
100
AcDbEntity
  8
Contornos Visibles
 62
256
370
-1
 48
1.0
  6
BYLAYER
100
AcDbLine
 10
3432.1458167925898124
 20
760.66800389735306
 30
0.0
 11
3432.1458167925898124
 21
761.5393242409127197
 31
0.0
  0
LINE
  5
73
100
AcDbEntity
  8
Contornos Visibles
 62
256
370
-1
 48
1.0
  6
BYLAYER
100
AcDbLine
 10
3432.1458167925898124
 20
764.0393242409127197
 30
0.0
 11
3432.1458167925898124
 21
765.5393242409127197
 31
0.0
  0
LINE
  5
74
100
AcDbEntity
  8
Contornos Visibles
 62
256
370
-1
 48
1.0
  6
BYLAYER
100
AcDbLine
 10
3432.1458167925898124
 20
772.9106445844723794
 30
0.0
 11
3432.1458167925898124
 21
772.0393242409127197
 31
0.0
  0
LINE
  5
75
100
AcDbEntity
  8
Contornos Visibles
 62
256
370
-1
 48
1.0
  6
BYLAYER
100
AcDbLine
 10
3432.1458167925898124
 20
769.5393242409127197
 30
0.0
 11
3432.1458167925898124
 21
768.0393242409127197
 31
0.0
  0
LINE
  5
76
100
AcDbEntity
  8
Contornos Visibles
 62
256
370
-1
 48
1.0
  6
BYLAYER
100
AcDbLine
 10
3432.1458167925898124
 20
780.9106445844723794
 30
0.0
 11
3432.1458167925898124
 21
780.0393242409127197
 31
0.0
  0
LINE
  5
77
100
AcDbEntity
  8
Contornos Visibles
 62
256
370
-1
 48
1.0
  6
BYLAYER
100
AcDbLine
 10
3432.1458167925898124
 20
777.5393242409127197
 30
0.0
 11
3432.1458167925898124
 21
776.0393242409127197
 31
0.0
  0
LINE
  5
78
100
AcDbEntity
  8
Contornos Visibles
 62
256
370
-1
 48
1.0
  6
BYLAYER
100
AcDbLine
 10
3430.1458167925898124
 20
760.66800389735306
 30
0.0
 11
3430.1458167925898124
 21
761.5393242409127197
 31
0.0
  0
LINE
  5
79
100
AcDbEntity
  8
Contornos Visibles
 62
256
370
-1
 48
1.0
  6
BYLAYER
100
AcDbLine
 10
3430.1458167925898124
 20
764.0393242409127197
 30
0.0
 11
3430.1458167925898124
 21
765.5393242409127197
 31
0.0
  0
LINE
  5
7A
100
AcDbEntity
  8
Contornos Visibles
 62
256
370
-1
 48
1.0
  6
BYLAYER
100
AcDbLine
 10
3430.1458167925898124
 20
772.9106445844723794
 30
0.0
 11
3430.1458167925898124
 21
772.0393242409127197
 31
0.0
  0
LINE
  5
7B
100
AcDbEntity
  8
Contornos Visibles
 62
256
370
-1
 48
1.0
  6
BYLAYER
100
AcDbLine
 10
3430.1458167925898124
 20
769.5393242409127197
 30
0.0
 11
3430.1458167925898124
 21
768.0393242409127197
 31
0.0
  0
LINE
  5
7C
100
AcDbEntity
  8
Contornos Visibles
 62
256
370
-1
 48
1.0
  6
BYLAYER
100
AcDbLine
 10
3430.1458167925898124
 20
780.9106445844723794
 30
0.0
 11
3430.1458167925898124
 21
780.0393242409127197
 31
0.0
  0
LINE
  5
7D
100
AcDbEntity
  8
Contornos Visibles
 62
256
370
-1
 48
1.0
  6
BYLAYER
100
AcDbLine
 10
3430.1458167925898124
 20
777.5393242409127197
 30
0.0
 11
3430.1458167925898124
 21
776.0393242409127197
 31
0.0
  0
LINE
  5
7E
100
AcDbEntity
  8
Contornos Visibles
 62
256
370
-1
 48
1.0
  6
BYLAYER
100
AcDbLine
 10
3429.0244964490302664
 20
761.7893242409127197
 30
0.0
 11
3429.8958167925898124
 21
761.7893242409127197
 31
0.0
  0
LINE
  5
7F
100
AcDbEntity
  8
Contornos Visibles
 62
256
370
-1
 48
1.0
  6
BYLAYER
100
AcDbLine
 10
3429.0244964490302664
 20
765.7893242409127197
 30
0.0
 11
3429.8958167925898124
 21
765.7893242409127197
 31
0.0
  0
LINE
  5
80
100
AcDbEntity
  8
Contornos Visibles
 62
256
370
-1
 48
1.0
  6
BYLAYER
100
AcDbLine
 10
3429.0244964490302664
 20
771.7893242409127197
 30
0.0
 11
3429.8958167925898124
 21
771.7893242409127197
 31
0.0
  0
LINE
  5
81
100
AcDbEntity
  8
Contornos Visibles
 62
256
370
-1
 48
1.0
  6
BYLAYER
100
AcDbLine
 10
3429.0244964490302664
 20
767.7893242409127197
 30
0.0
 11
3429.8958167925898124
 21
767.7893242409127197
 31
0.0
  0
LINE
  5
82
100
AcDbEntity
  8
Contornos Visibles
 62
256
370
-1
 48
1.0
  6
BYLAYER
100
AcDbLine
 10
3429.0244964490302664
 20
779.7893242409127197
 30
0.0
 11
3429.8958167925898124
 21
779.7893242409127197
 31
0.0
  0
LINE
  5
83
100
AcDbEntity
  8
Contornos Visibles
 62
256
370
-1
 48
1.0
  6
BYLAYER
100
AcDbLine
 10
3432.3958167925893576
 20
761.7893242409127197
 30
0.0
 11
3433.2671371361493584
 21
761.7893242409127197
 31
0.0
  0
LINE
  5
84
100
AcDbEntity
  8
Contornos Visibles
 62
256
370
-1
 48
1.0
  6
BYLAYER
100
AcDbLine
 10
3432.3958167925893576
 20
765.7893242409127197
 30
0.0
 11
3433.2671371361493584
 21
765.7893242409127197
 31
0.0
  0
LINE
  5
85
100
AcDbEntity
  8
Contornos Visibles
 62
256
370
-1
 48
1.0
  6
BYLAYER
100
AcDbLine
 10
3432.3958167925893576
 20
771.7893242409127197
 30
0.0
 11
3433.2671371361493584
 21
771.7893242409127197
 31
0.0
  0
LINE
  5
86
100
AcDbEntity
  8
Contornos Visibles
 62
256
370
-1
 48
1.0
  6
BYLAYER
100
AcDbLine
 10
3432.3958167925893576
 20
767.7893242409127197
 30
0.0
 11
3433.2671371361493584
 21
767.7893242409127197
 31
0.0
  0
LINE
  5
87
100
AcDbEntity
  8
Contornos Visibles
 62
256
370
-1
 48
1.0
  6
BYLAYER
100
AcDbLine
 10
3432.3958167925893576
 20
779.7893242409127197
 30
0.0
 11
3433.2671371361493584
 21
779.7893242409127197
 31
0.0
  0
ARC
  5
88
100
AcDbEntity
  8
Contornos Visibles
 62
256
370
-1
 48
1.0
  6
BYLAYER
100
AcDbCircle
 10
3429.8958167925898124
 20
761.5393242409127197
 30
0.0
 40
0.25
100
AcDbArc
 50
0.0
 51
90.0
  0
ARC
  5
89
100
AcDbEntity
  8
Contornos Visibles
 62
256
370
-1
 48
1.0
  6
BYLAYER
100
AcDbCircle
 10
3429.8958167925898124
 20
765.5393242409127197
 30
0.0
 40
0.25
100
AcDbArc
 50
0.0
 51
90.0
  0
ARC
  5
8A
100
AcDbEntity
  8
Contornos Visibles
 62
256
370
-1
 48
1.0
  6
BYLAYER
100
AcDbCircle
 10
3429.8958167925898124
 20
768.0393242409127197
 30
0.0
 40
0.25
100
AcDbArc
 50
270.0
 51
0.0
  0
ARC
  5
8B
100
AcDbEntity
  8
Contornos Visibles
 62
256
370
-1
 48
1.0
  6
BYLAYER
100
AcDbCircle
 10
3429.8958167925898124
 20
772.0393242409127197
 30
0.0
 40
0.25
100
AcDbArc
 50
270.0
 51
0.0
  0
ARC
  5
8C
100
AcDbEntity
  8
Contornos Visibles
 62
256
370
-1
 48
1.0
  6
BYLAYER
100
AcDbCircle
 10
3429.8958167925898124
 20
780.0393242409127197
 30
0.0
 40
0.25
100
AcDbArc
 50
270.0
 51
0.0
  0
ARC
  5
8D
100
AcDbEntity
  8
Contornos Visibles
 62
256
370
-1
 48
1.0
  6
BYLAYER
100
AcDbCircle
 10
3431.8958167925898124
 20
776.0393242409127197
 30
0.0
 40
0.25
100
AcDbArc
 50
270.0
 51
0.0
  0
ARC
  5
8E
100
AcDbEntity
  8
Contornos Visibles
 62
256
370
-1
 48
1.0
  6
BYLAYER
100
AcDbCircle
 10
3432.3958167925893576
 20
761.5393242409127197
 30
0.0
 40
0.25
100
AcDbArc
 50
90.0
 51
180.0
  0
ARC
  5
8F
100
AcDbEntity
  8
Contornos Visibles
 62
256
370
-1
 48
1.0
  6
BYLAYER
100
AcDbCircle
 10
3432.3958167925893576
 20
765.5393242409127197
 30
0.0
 40
0.25
100
AcDbArc
 50
90.0
 51
180.0
  0
ARC
  5
90
100
AcDbEntity
  8
Contornos Visibles
 62
256
370
-1
 48
1.0
  6
BYLAYER
100
AcDbCircle
 10
3432.3958167925893576
 20
768.0393242409127197
 30
0.0
 40
0.25
100
AcDbArc
 50
180.0
 51
270.0
  0
ARC
  5
91
100
AcDbEntity
  8
Contornos Visibles
 62
256
370
-1
 48
1.0
  6
BYLAYER
100
AcDbCircle
 10
3432.3958167925893576
 20
772.0393242409127197
 30
0.0
 40
0.25
100
AcDbArc
 50
180.0
 51
270.0
  0
ARC
  5
92
100
AcDbEntity
  8
Contornos Visibles
 62
256
370
-1
 48
1.0
  6
BYLAYER
100
AcDbCircle
 10
3432.3958167925893576
 20
780.0393242409127197
 30
0.0
 40
0.25
100
AcDbArc
 50
180.0
 51
270.0
  0
ARC
  5
93
100
AcDbEntity
  8
Contornos Visibles
 62
256
370
-1
 48
1.0
  6
BYLAYER
100
AcDbCircle
 10
3430.3958167925893576
 20
776.0393242409127197
 30
0.0
 40
0.25
100
AcDbArc
 50
180.0
 51
270.0000000001042508
  0
ARC
  5
94
100
AcDbEntity
  8
Contornos Visibles
 62
256
370
-1
 48
1.0
  6
BYLAYER
100
AcDbCircle
 10
3430.3958167925898124
 20
760.66800389735306
 30
0.0
 40
0.25
100
AcDbArc
 50
180.0
 51
250.5287793654796076
  0
ARC
  5
95
100
AcDbEntity
  8
Contornos Visibles
 62
256
370
-1
 48
1.0
  6
BYLAYER
100
AcDbCircle
 10
3430.3958167925898124
 20
772.9106445844723794
 30
0.0
 40
0.25
100
AcDbArc
 50
109.4712206345204208
 51
180.0
  0
ARC
  5
96
100
AcDbEntity
  8
Contornos Visibles
 62
256
370
-1
 48
1.0
  6
BYLAYER
100
AcDbCircle
 10
3430.3958167925898124
 20
780.9106445844723794
 30
0.0
 40
0.25
100
AcDbArc
 50
109.4712206345204208
 51
180.0
  0
ARC
  5
97
100
AcDbEntity
  8
Contornos Visibles
 62
256
370
-1
 48
1.0
  6
BYLAYER
100
AcDbCircle
 10
3431.8958167925898124
 20
760.66800389735306
 30
0.0
 40
0.25
100
AcDbArc
 50
289.4712206345204208
 51
0.0
  0
ARC
  5
98
100
AcDbEntity
  8
Contornos Visibles
 62
256
370
-1
 48
1.0
  6
BYLAYER
100
AcDbCircle
 10
3431.8958167925898124
 20
772.9106445844723794
 30
0.0
 40
0.25
100
AcDbArc
 50
0.0
 51
70.5287793654796076
  0
ARC
  5
99
100
AcDbEntity
  8
Contornos Visibles
 62
256
370
-1
 48
1.0
  6
BYLAYER
100
AcDbCircle
 10
3431.8958167925898124
 20
780.9106445844723794
 30
0.0
 40
0.25
100
AcDbArc
 50
0.0
 51
70.5287793654796076
  0
ARC
  5
9A
100
AcDbEntity
  8
Contornos Visibles
 62
256
370
-1
 48
1.0
  6
BYLAYER
100
AcDbCircle
 10
3429.0244964490302664
 20
762.0393242409127197
 30
0.0
 40
0.25
100
AcDbArc
 50
199.4712206344958076
 51
270.0
  0
ARC
  5
9B
100
AcDbEntity
  8
Contornos Visibles
 62
256
370
-1
 48
1.0
  6
BYLAYER
100
AcDbCircle
 10
3429.0244964490302664
 20
766.0393242409127197
 30
0.0
 40
0.25
100
AcDbArc
 50
199.4712206344958076
 51
270.0
  0
ARC
  5
9C
100
AcDbEntity
  8
Contornos Visibles
 62
256
370
-1
 48
1.0
  6
BYLAYER
100
AcDbCircle
 10
3429.0244964490302664
 20
767.5393242409127197
 30
0.0
 40
0.25
100
AcDbArc
 50
90.0000000000000142
 51
160.5287793655042208
  0
ARC
  5
9D
100
AcDbEntity
  8
Contornos Visibles
 62
256
370
-1
 48
1.0
  6
BYLAYER
100
AcDbCircle
 10
3429.0244964490302664
 20
771.5393242409127197
 30
0.0
 40
0.25
100
AcDbArc
 50
90.0000000000000142
 51
160.5287793655042208
  0
ARC
  5
9E
100
AcDbEntity
  8
Contornos Visibles
 62
256
370
-1
 48
1.0
  6
BYLAYER
100
AcDbCircle
 10
3429.0244964490302664
 20
779.5393242409127197
 30
0.0
 40
0.25
100
AcDbArc
 50
90.0000000000000142
 51
160.5287793655042208
  0
ARC
  5
9F
100
AcDbEntity
  8
Contornos Visibles
 62
256
370
-1
 48
1.0
  6
BYLAYER
100
AcDbCircle
 10
3433.2671371361493584
 20
762.0393242409127197
 30
0.0
 40
0.25
100
AcDbArc
 50
270.0
 51
340.5287793655041924
  0
ARC
  5
A0
100
AcDbEntity
  8
Contornos Visibles
 62
256
370
-1
 48
1.0
  6
BYLAYER
100
AcDbCircle
 10
3433.2671371361493584
 20
766.0393242409127197
 30
0.0
 40
0.25
100
AcDbArc
 50
270.0
 51
340.5287793655041924
  0
ARC
  5
A1
100
AcDbEntity
  8
Contornos Visibles
 62
256
370
-1
 48
1.0
  6
BYLAYER
100
AcDbCircle
 10
3433.2671371361493584
 20
767.5393242409127197
 30
0.0
 40
0.25
100
AcDbArc
 50
19.471220634495829
 51
90.0000000000000142
  0
ARC
  5
A2
100
AcDbEntity
  8
Contornos Visibles
 62
256
370
-1
 48
1.0
  6
BYLAYER
100
AcDbCircle
 10
3433.2671371361493584
 20
771.5393242409127197
 30
0.0
 40
0.25
100
AcDbArc
 50
19.471220634495829
 51
90.0000000000000142
  0
ARC
  5
A3
100
AcDbEntity
  8
Contornos Visibles
 62
256
370
-1
 48
1.0
  6
BYLAYER
100
AcDbCircle
 10
3433.2671371361493584
 20
779.5393242409127197
 30
0.0
 40
0.25
100
AcDbArc
 50
19.471220634495829
 51
90.0000000000000142
  0
LINE
  5
A4
100
AcDbEntity
  8
Contornos Visibles
 62
256
370
-1
 48
1.0
  6
BYLAYER
100
AcDbLine
 10
3429.0244964490302664
 20
763.7893242409127197
 30
0.0
 11
3429.8958167925902671
 21
763.7893242409127197
 31
0.0
  0
LINE
  5
A5
100
AcDbEntity
  8
Contornos Visibles
 62
256
370
-1
 48
1.0
  6
BYLAYER
100
AcDbLine
 10
3429.0244964490302664
 20
769.7893242409127197
 30
0.0
 11
3429.8958167925902671
 21
769.7893242409127197
 31
0.0
  0
LINE
  5
A6
100
AcDbEntity
  8
Contornos Visibles
 62
256
370
-1
 48
1.0
  6
BYLAYER
100
AcDbLine
 10
3429.0244964490302664
 20
777.7893242409127197
 30
0.0
 11
3429.8958167925902671
 21
777.7893242409127197
 31
0.0
  0
LINE
  5
A7
100
AcDbEntity
  8
Contornos Visibles
 62
256
370
-1
 48
1.0
  6
BYLAYER
100
AcDbLine
 10
3432.3958167925902671
 20
763.7893242409127197
 30
0.0
 11
3433.2671371361493584
 21
763.7893242409127197
 31
0.0
  0
LINE
  5
A8
100
AcDbEntity
  8
Contornos Visibles
 62
256
370
-1
 48
1.0
  6
BYLAYER
100
AcDbLine
 10
3432.3958167925902671
 20
769.7893242409127197
 30
0.0
 11
3433.2671371361493584
 21
769.7893242409127197
 31
0.0
  0
LINE
  5
A9
100
AcDbEntity
  8
Contornos Visibles
 62
256
370
-1
 48
1.0
  6
BYLAYER
100
AcDbLine
 10
3432.3958167925902671
 20
777.7893242409127197
 30
0.0
 11
3433.2671371361493584
 21
777.7893242409127197
 31
0.0
  0
ARC
  5
AA
100
AcDbEntity
  8
Contornos Visibles
 62
256
370
-1
 48
1.0
  6
BYLAYER
100
AcDbCircle
 10
3429.0244964490302664
 20
763.5393242409127197
 30
0.0
 40
0.25
100
AcDbArc
 50
90.0
 51
160.5287793655041639
  0
ARC
  5
AB
100
AcDbEntity
  8
Contornos Visibles
 62
256
370
-1
 48
1.0
  6
BYLAYER
100
AcDbCircle
 10
3429.0244964490302664
 20
770.0393242409127197
 30
0.0
 40
0.25
100
AcDbArc
 50
199.4712206344958076
 51
270.0
  0
ARC
  5
AC
100
AcDbEntity
  8
Contornos Visibles
 62
256
370
-1
 48
1.0
  6
BYLAYER
100
AcDbCircle
 10
3429.0244964490302664
 20
778.0393242409127197
 30
0.0
 40
0.25
100
AcDbArc
 50
199.4712206344958076
 51
270.0
  0
ARC
  5
AD
100
AcDbEntity
  8
Contornos Visibles
 62
256
370
-1
 48
1.0
  6
BYLAYER
100
AcDbCircle
 10
3433.2671371361493584
 20
763.5393242409127197
 30
0.0
 40
0.25
100
AcDbArc
 50
19.471220634495829
 51
90.0
  0
ARC
  5
AE
100
AcDbEntity
  8
Contornos Visibles
 62
256
370
-1
 48
1.0
  6
BYLAYER
100
AcDbCircle
 10
3433.2671371361493584
 20
770.0393242409127197
 30
0.0
 40
0.25
100
AcDbArc
 50
270.0
 51
340.5287793655041924
  0
ARC
  5
AF
100
AcDbEntity
  8
Contornos Visibles
 62
256
370
-1
 48
1.0
  6
BYLAYER
100
AcDbCircle
 10
3433.2671371361493584
 20
778.0393242409127197
 30
0.0
 40
0.25
100
AcDbArc
 50
270.0
 51
340.5287793655041924
  0
ARC
  5
B0
100
AcDbEntity
  8
Contornos Visibles
 62
256
370
-1
 48
1.0
  6
BYLAYER
100
AcDbCircle
 10
3429.8958167925902671
 20
764.0393242409127197
 30
0.0
 40
0.25
100
AcDbArc
 50
270.0
 51
0.0
  0
ARC
  5
B1
100
AcDbEntity
  8
Contornos Visibles
 62
256
370
-1
 48
1.0
  6
BYLAYER
100
AcDbCircle
 10
3429.8958167925902671
 20
769.5393242409127197
 30
0.0
 40
0.25
100
AcDbArc
 50
0.0
 51
90.0000000000000142
  0
ARC
  5
B2
100
AcDbEntity
  8
Contornos Visibles
 62
256
370
-1
 48
1.0
  6
BYLAYER
100
AcDbCircle
 10
3429.8958167925902671
 20
777.5393242409127197
 30
0.0
 40
0.25
100
AcDbArc
 50
0.0
 51
90.0000000000000142
  0
ARC
  5
B3
100
AcDbEntity
  8
Contornos Visibles
 62
256
370
-1
 48
1.0
  6
BYLAYER
100
AcDbCircle
 10
3432.3958167925902671
 20
764.0393242409127197
 30
0.0
 40
0.25
100
AcDbArc
 50
180.0
 51
270.0
  0
ARC
  5
B4
100
AcDbEntity
  8
Contornos Visibles
 62
256
370
-1
 48
1.0
  6
BYLAYER
100
AcDbCircle
 10
3432.3958167925902671
 20
769.5393242409127197
 30
0.0
 40
0.25
100
AcDbArc
 50
90.0000000000000142
 51
180.0
  0
ARC
  5
B5
100
AcDbEntity
  8
Contornos Visibles
 62
256
370
-1
 48
1.0
  6
BYLAYER
100
AcDbCircle
 10
3432.3958167925902671
 20
777.5393242409127197
 30
0.0
 40
0.25
100
AcDbArc
 50
90.0000000000000142
 51
180.0
  0
LINE
  5
B6
100
AcDbEntity
  8
Referencias 2
 62
256
370
-1
 48
1.0
  6
BYLAYER
100
AcDbLine
 10
3430.6458167925898124
 20
775.2893242409127197
 30
0.0
 11
3431.6458167925898124
 21
775.2893242409127197
 31
0.0
  0
LINE
  5
B7
100
AcDbEntity
  8
Contornos Visibles
 62
256
370
-1
 48
1.0
  6
BYLAYER
100
AcDbLine
 10
3430.6458167925898124
 20
775.2893242409127197
 30
0.0
 11
3430.6458167925898124
 21
775.5393242409127197
 31
0.0
  0
LINE
  5
B8
100
AcDbEntity
  8
Contornos Visibles
 62
256
370
-1
 48
1.0
  6
BYLAYER
100
AcDbLine
 10
3431.6458167925898124
 20
775.2893242409127197
 30
0.0
 11
3431.6458167925898124
 21
775.5393242409127197
 31
0.0
  0
ARC
  5
B9
100
AcDbEntity
  8
Contornos Visibles
 62
256
370
-1
 48
1.0
  6
BYLAYER
100
AcDbCircle
 10
3431.1458167925898124
 20
775.2893242409127197
 30
0.0
 40
0.5
100
AcDbArc
 50
180.0
 51
0.0
  0
ARC
  5
BA
100
AcDbEntity
  8
Contornos Visibles
 62
256
370
-1
 48
1.0
  6
BYLAYER
100
AcDbCircle
 10
3431.8958167925898124
 20
775.5393242409127197
 30
0.0
 40
0.25
100
AcDbArc
 50
90.0
 51
180.0
  0
ARC
  5
BB
100
AcDbEntity
  8
Contornos Visibles
 62
256
370
-1
 48
1.0
  6
BYLAYER
100
AcDbCircle
 10
3430.3958167925898124
 20
775.5393242409127197
 30
0.0
 40
0.25
100
AcDbArc
 50
0.0
 51
90.0
  0
XLINE
  5
BC
100
AcDbEntity
  8
Referencias 2
 62
256
370
-1
 48
1.0
  6
BYLAYER
100
AcDbLine
 10
3433.6458167925898124
 20
778.7893242409127197
 30
0.0
 11
1.0
 21
0.0
 31
0.0
  0
XLINE
  5
BD
100
AcDbEntity
  8
Referencias 2
 62
256
370
-1
 48
1.0
  6
BYLAYER
100
AcDbLine
 10
3431.1458167925898124
 20
774.7893242409127197
 30
0.0
 11
0.0
 21
1.0
 31
0.0
  0
ARC
  5
BE
100
AcDbEntity
  8
Contornos Visibles
 62
256
370
-1
 48
1.0
  6
BYLAYER
100
AcDbCircle
 10
3431.1458167925898124
 20
778.7893242409127197
 30
0.0
 40
3.75
100
AcDbArc
 50
181.7280852248577787
 51
243.0422508607200598
  0
ARC
  5
BF
100
AcDbEntity
  8
Contornos Visibles
 62
256
370
-1
 48
1.0
  6
BYLAYER
100
AcDbCircle
 10
3431.1458167925898124
 20
778.7893242409127197
 30
0.0
 40
3.75
100
AcDbArc
 50
296.9577491392799402
 51
358.2719147751421929
  0
LINE
  5
C0
100
AcDbEntity
  8
Referencias
 62
256
370
-1
 48
1.0
  6
BYLAYER
100
AcDbLine
 10
3431.1458167925898124
 20
766.7893242409127197
 30
0.0
 11
3431.1458167925898124
 21
782.5393242409127197
 31
0.0
  0
LINE
  5
C1
100
AcDbEntity
  8
Referencias 2
 62
256
370
-1
 48
1.0
  6
BYLAYER
100
AcDbLine
 10
3431.1458167925898124
 20
766.7893242409127197
 30
0.0
 11
3438.8458167925896305
 21
766.7893242409127197
 31
0.0
  0
ELLIPSE
  5
C2
100
AcDbEntity
  8
Contornos Visibles
 62
256
370
-1
 48
1.0
  6
BYLAYER
100
AcDbEllipse
 10
3431.1458167925898124
 20
766.7893242409127197
 30
0.0
 11
0.0
 21
15.75
 31
0.0
 40
0.4888888888888773
 41
4.6216502683231688
 42
1.6615350388564178
  0
ARC
  5
C3
100
AcDbEntity
  8
Contornos Visibles
 62
256
370
-1
 48
1.0
  6
BYLAYER
100
AcDbCircle
 10
3431.1458167925898124
 20
766.7893242409127197
 30
0.0
 40
7.8000000000001819
100
AcDbArc
 50
190.5428646076766199
 51
349.4571353923233801
  0
ELLIPSE
  5
C4
100
AcDbEntity
  8
Contornos Visibles
 62
256
370
-1
 48
1.0
  6
BYLAYER
100
AcDbEllipse
 10
3431.1458167925898124
 20
766.7893242409127197
 30
0.0
 11
0.0000000000000009
 21
14.5499999999998391
 31
0.0
 40
0.4467353951890083
 41
1.5707963267948966
 42
1.658834865029041
  0
ELLIPSE
  5
C5
100
AcDbEntity
  8
Contornos Visibles
 62
256
370
-1
 48
1.0
  6
BYLAYER
100
AcDbEllipse
 10
3431.1458167925898124
 20
766.7893242409127197
 30
0.0
 11
0.0000000000000009
 21
14.5499999999998391
 31
0.0
 40
0.4467353951890083
 41
4.6243504421505452
 42
4.7123889803846897
  0
ELLIPSE
  5
C6
100
AcDbEntity
  8
Contornos Visibles
 62
256
370
-1
 48
1.0
  6
BYLAYER
100
AcDbEllipse
 10
3431.1458167925898124
 20
766.7893242409127197
 30
0.0
 11
0.0000000000000009
 21
14.5499999999998391
 31
0.0
 40
0.4467353951890083
 41
0.6146433034845201
 42
1.5707963267948966
  0
ELLIPSE
  5
C7
100
AcDbEntity
  8
Contornos Visibles
 62
256
370
-1
 48
1.0
  6
BYLAYER
100
AcDbEllipse
 10
3431.1458167925898124
 20
766.7893242409127197
 30
0.0
 11
0.0000000000000009
 21
14.5499999999998391
 31
0.0
 40
0.4467353951890083
 41
4.7123889803846897
 42
5.668542003695066
  0
ARC
  5
C8
100
AcDbEntity
  8
Contornos Visibles
 62
256
370
-1
 48
1.0
  6
BYLAYER
100
AcDbCircle
 10
3431.1458167925898124
 20
766.7893242409127197
 30
0.0
 40
6.6000000000001817
100
AcDbArc
 50
307.462651072544304
 51
349.4571353923233801
  0
ARC
  5
C9
100
AcDbEntity
  8
Contornos Visibles
 62
256
370
-1
 48
1.0
  6
BYLAYER
100
AcDbCircle
 10
3431.1458167925898124
 20
766.7893242409127197
 30
0.0
 40
6.6000000000001817
100
AcDbArc
 50
190.5428646076765631
 51
232.537348927455696
  0
ARC
  5
CA
100
AcDbEntity
  8
Contornos Visibles
 62
256
370
-1
 48
1.0
  6
BYLAYER
100
AcDbCircle
 10
3431.1458167925898124
 20
770.7893242409127197
 30
0.0
 40
3.75
100
AcDbArc
 50
119.1763958550140785
 51
180.0
  0
ARC
  5
CB
100
AcDbEntity
  8
Contornos Visibles
 62
256
370
-1
 48
1.0
  6
BYLAYER
100
AcDbCircle
 10
3431.1458167925898124
 20
770.7893242409127197
 30
0.0
 40
3.75
100
AcDbArc
 50
0.0
 51
60.8236041449859215
  0
LINE
  5
CC
100
AcDbEntity
  8
Contornos Visibles
 62
256
370
-1
 48
1.0
  6
BYLAYER
100
AcDbLine
 10
3432.8458167925896305
 20
774.2818161879329182
 30
0.0
 11
3432.8458167925896305
 21
775.446795258240968
 31
0.0
  0
LINE
  5
CD
100
AcDbEntity
  8
Contornos Visibles
 62
256
370
-1
 48
1.0
  6
BYLAYER
100
AcDbLine
 10
3429.4458167925899943
 20
774.2818161879329182
 30
0.0
 11
3429.4458167925899943
 21
775.446795258240968
 31
0.0
  0
ARC
  5
CE
100
AcDbEntity
  8
Contornos Visibles
 62
256
370
-1
 48
1.0
  6
BYLAYER
100
AcDbCircle
 10
3429.1958167925899943
 20
774.2818161879329182
 30
0.0
 40
0.25
100
AcDbArc
 50
299.1763958549692006
 51
0.0
  0
ARC
  5
CF
100
AcDbEntity
  8
Contornos Visibles
 62
256
370
-1
 48
1.0
  6
BYLAYER
100
AcDbCircle
 10
3433.0958167925896305
 20
774.2818161879329182
 30
0.0
 40
0.25
100
AcDbArc
 50
180.0
 51
240.8236041450307994
  0
LINE
  5
D0
100
AcDbEntity
  8
Referencias
 62
256
370
-1
 48
1.0
  6
BYLAYER
100
AcDbLine
 10
3427.3958167925898124
 20
770.7893242409127197
 30
0.0
 11
3434.8958167925898124
 21
770.7893242409127197
 31
0.0
  0
LINE
  5
D1
100
AcDbEntity
  8
Contornos Visibles
 62
256
370
-1
 48
1.0
  6
BYLAYER
100
AcDbLine
 10
3434.8958167925898124
 20
762.7893242409127197
 30
0.0
 11
3434.8958167925898124
 21
770.789324240912606
 31
0.0
  0
LINE
  5
D2
100
AcDbEntity
  8
Contornos Visibles
 62
256
370
-1
 48
1.0
  6
BYLAYER
100
AcDbLine
 10
3427.3958167925898124
 20
762.7893242409127197
 30
0.0
 11
3427.3958167925898124
 21
770.789324240912606
 31
0.0
  0
ARC
  5
D3
100
AcDbEntity
  8
Contornos Visibles
 62
256
370
-1
 48
1.0
  6
BYLAYER
100
AcDbCircle
 10
3431.1458167925898124
 20
762.7893242409127197
 30
0.0
 40
3.75
100
AcDbArc
 50
344.9253021450862207
 51
0.0
  0
ARC
  5
D4
100
AcDbEntity
  8
Contornos Visibles
 62
256
370
-1
 48
1.0
  6
BYLAYER
100
AcDbCircle
 10
3431.1458167925898124
 20
762.7893242409127197
 30
0.0
 40
3.75
100
AcDbArc
 50
180.0
 51
195.0746978549137793
  0
ARC
  5
D5
100
AcDbEntity
  8
Contornos Visibles
 62
256
370
-1
 48
1.0
  6
BYLAYER
100
AcDbCircle
 10
3435.0081671006719262
 20
761.749011740912465
 30
0.0
 40
0.25
100
AcDbArc
 50
164.9253021450978167
 51
307.4626510725879598
  0
ARC
  5
D6
100
AcDbEntity
  8
Contornos Visibles
 62
256
370
-1
 48
1.0
  6
BYLAYER
100
AcDbCircle
 10
3427.2834664845076986
 20
761.749011740912465
 30
0.0
 40
0.25
100
AcDbArc
 50
232.5373489274120686
 51
15.0746978549021922
  0
DIMENSION
  5
D7
100
AcDbEntity
  8
Cotas
 62
256
370
-1
 48
1.0
  6
BYLAYER
100
AcDbDimension
 10
3431.8958167925898124
 20
780.9106445844723794
 30
0.0
 11
3433.0843560348766914
 21
782.3962457339687262
 31
0.0
 70
4
 71
8
 72
2
 74
0
 41
1.0
 42
0.0
  1
R<>
  3
Standard
100
AcDbRadialDimension
 15
3432.0874090148749929
 25
781.0712447723922196
 35
0.0
 40
0.0
1001
ACAD
1000
DSTYLE
1002
{
1070
144
1040
1.0
1070
40
1040
0.2
1002
}
  0
DIMENSION
  5
D8
100
AcDbEntity
  8
Cotas
 62
256
370
-1
 48
1.0
  6
BYLAYER
100
AcDbDimension
 10
3431.1458167925898124
 20
778.7893242409127197
 30
0.0
 11
3431.1658989933712292
 21
780.0942080308387858
 31
0.0
 70
4
 71
8
 72
2
 74
0
 41
1.0
 42
0.0
  1
R<>
  3
Standard
100
AcDbRadialDimension
 15
3430.4643802124128342
 25
781.194660846711713
 35
0.0
 40
0.0
1001
ACAD
1000
DSTYLE
1002
{
1070
144
1040
1.0
1070
40
1040
0.2
1002
}
  0
DIMENSION
  5
D9
100
AcDbEntity
  8
Cotas
 62
256
370
-1
 48
1.0
  6
BYLAYER
100
AcDbDimension
 10
3429.8958167925898124
 20
780.0393242409127197
 30
0.0
 11
3428.8519253374156506
 21
781.6298986452252393
 31
0.0
 70
4
 71
8
 72
2
 74
0
 41
1.0
 42
0.0
  1
R<>
  3
Standard
100
AcDbRadialDimension
 15
3429.7201400949470553
 25
780.2171941312968784
 35
0.0
 40
0.0
1001
ACAD
1000
DSTYLE
1002
{
1070
144
1040
1.0
1070
40
1040
0.2
1002
}
  0
DIMENSION
  5
DA
100
AcDbEntity
  8
Cotas
 62
256
370
-1
 48
1.0
  6
BYLAYER
100
AcDbDimension
 10
3431.1458167925898124
 20
778.7893242409127197
 30
0.0
 11
3429.747501513129464
 21
777.4851139897541543
 31
0.0
 70
4
 71
8
 72
2
 74
0
 41
1.0
 42
0.0
  1
R<>
  3
Standard
100
AcDbRadialDimension
 15
3428.9583682748416322
 25
775.7434140350461576
 35
0.0
 40
0.0
1001
ACAD
1000
DSTYLE
1002
{
1070
144
1040
1.0
1070
40
1040
0.2
1002
}
  0
DIMENSION
  5
DB
100
AcDbEntity
  8
Cotas
 62
256
370
-1
 48
1.0
  6
BYLAYER
100
AcDbDimension
 10
3431.1458167925898124
 20
775.2893242409127197
 30
0.0
 11
3429.8158071995453611
 21
773.8460576502792492
 31
0.0
 70
4
 71
8
 72
2
 74
0
 41
1.0
 42
0.0
  1
R<>
  3
Standard
100
AcDbRadialDimension
 15
3430.8834804530729343
 25
774.8636722175781415
 35
0.0
 40
0.0
1001
ACAD
1000
DSTYLE
1002
{
1070
144
1040
1.0
1070
40
1040
0.2
1002
}
  0
DIMENSION
  5
DC
100
AcDbEntity
  8
Cotas
 62
256
370
-1
 48
1.0
  6
BYLAYER
100
AcDbDimension
 10
3433.0958167925896305
 20
774.2818161879329182
 30
0.0
 11
3434.9810481195800094
 21
774.537822339369427
 31
0.0
 70
4
 71
8
 72
2
 74
0
 41
1.0
 42
0.0
  1
R<>
  3
Standard
100
AcDbRadialDimension
 15
3433.3453139672878933
 25
774.2659681654205315
 35
0.0
 40
0.0
1001
ACAD
1000
DSTYLE
1002
{
1070
144
1040
1.0
1070
40
1040
0.2
1002
}
  0
DIMENSION
  5
DD
100
AcDbEntity
  8
Cotas
 62
256
370
-1
 48
1.0
  6
BYLAYER
100
AcDbDimension
 10
3431.1458167925898124
 20
770.7893242409127197
 30
0.0
 11
3433.0075304013807909
 21
771.2255265321081197
 31
0.0
 70
4
 71
8
 72
2
 74
0
 41
1.0
 42
0.0
  1
R<>
  3
Standard
100
AcDbRadialDimension
 15
3434.8938053830315766
 25
770.9121311052150531
 35
0.0
 40
0.0
1001
ACAD
1000
DSTYLE
1002
{
1070
144
1040
1.0
1070
40
1040
0.2
1002
}
  0
DIMENSION
  5
DE
100
AcDbEntity
  8
Cotas
 62
256
370
-1
 48
1.0
  6
BYLAYER
100
AcDbDimension
 10
3433.2671371361493584
 20
767.5393242409127197
 30
0.0
 11
3434.0836174764485804
 21
769.2577526391137326
 31
0.0
 70
4
 71
8
 72
2
 74
0
 41
1.0
 42
0.0
  1
R<>
  3
Standard
100
AcDbRadialDimension
 15
3433.4168288737969306
 25
767.7395550669111799
 35
0.0
 40
0.0
1001
ACAD
1000
DSTYLE
1002
{
1070
144
1040
1.0
1070
40
1040
0.2
1002
}
  0
DIMENSION
  5
DF
100
AcDbEntity
  8
Cotas
 62
256
370
-1
 48
1.0
  6
BYLAYER
100
AcDbDimension
 10
3431.1458167925898124
 20
762.7893242409127197
 30
0.0
 11
3429.2338075856232535
 21
762.7676264881839643
 31
0.0
 70
4
 71
8
 72
2
 74
0
 41
1.0
 42
0.0
  1
R<>
  3
Standard
100
AcDbRadialDimension
 15
3427.4772212994721485
 25
762.0122096368314715
 35
0.0
 40
0.0
1001
ACAD
1000
DSTYLE
1002
{
1070
144
1040
1.0
1070
40
1040
0.2
1002
}
  0
DIMENSION
  5
E0
100
AcDbEntity
  8
Cotas
 62
256
370
-1
 48
1.0
  6
BYLAYER
100
AcDbDimension
 10
3431.1458167925898124
 20
762.7893242409127197
 30
0.0
 11
3430.5166628353254055
 21
761.645956278243375
 31
0.0
 70
4
 71
8
 72
2
 74
0
 41
1.0
 42
0.0
  1
R<>
  3
Standard
100
AcDbRadialDimension
 15
3430.62078272201461
 25
760.3450780944014014
 35
0.0
 40
0.0
1001
ACAD
1000
DSTYLE
1002
{
1070
144
1040
1.0
1070
40
1040
0.2
1002
}
  0
DIMENSION
  5
E1
100
AcDbEntity
  8
Cotas
 62
256
370
-1
 48
1.0
  6
BYLAYER
100
AcDbDimension
 10
3432.3958167925893576
 20
761.5393242409127197
 30
0.0
 11
3431.7781024943410557
 21
763.3387867583272737
 31
0.0
 70
4
 71
8
 72
2
 74
0
 41
1.0
 42
0.0
  1
R<>
  3
Standard
100
AcDbRadialDimension
 15
3432.2696324424000522
 25
761.7551424740797756
 35
0.0
 40
0.0
1001
ACAD
1000
DSTYLE
1002
{
1070
144
1040
1.0
1070
40
1040
0.2
1002
}
  0
DIMENSION
  5
E2
100
AcDbEntity
  8
Cotas
 62
256
370
-1
 48
1.0
  6
BYLAYER
100
AcDbDimension
 10
3431.1458167925898124
 20
766.7893242409127197
 30
0.0
 11
3433.9862269079130783
 21
764.0906772879434357
 31
0.0
 70
4
 71
8
 72
2
 74
0
 41
1.0
 42
0.0
  1
R<>
  3
Standard
100
AcDbRadialDimension
 15
3436.260379448553067
 25
760.9002454642084103
 35
0.0
 40
0.0
1001
ACAD
1000
DSTYLE
1002
{
1070
144
1040
1.0
1070
40
1040
0.2
1002
}
  0
DIMENSION
  5
E3
100
AcDbEntity
  8
Cotas
 62
256
370
-1
 48
1.0
  6
BYLAYER
100
AcDbDimension
 10
3442.6975681522903869
 20
779.7893242409127197
 30
0.0
 11
3442.3225681522903869
 21
778.7893242409127197
 31
0.0
 70
0
 71
8
 72
2
 74
0
 75
0
 41
1.0
 42
0.0
  1

  3
Standard
100
AcDbAlignedDimension
 13
3433.2671371361493584
 23
779.7893242409127197
 33
0.0
 14
3433.2671371361493584
 24
777.7893242409127197
 34
0.0
 50
90.0
100
AcDbRotatedDimension
1001
ACAD
1000
DSTYLE
1002
{
1070
144
1040
1.0
1070
40
1040
0.2
1002
}
  0
DIMENSION
  5
E4
100
AcDbEntity
  8
Cotas
 62
256
370
-1
 48
1.0
  6
BYLAYER
100
AcDbDimension
 10
3442.6975681522903869
 20
771.7893242409127197
 30
0.0
 11
3442.3225681522903869
 21
770.7893242409127197
 31
0.0
 70
0
 71
8
 72
2
 74
0
 75
0
 41
1.0
 42
0.0
  1

  3
Standard
100
AcDbAlignedDimension
 13
3433.2671371361493584
 23
771.7893242409127197
 33
0.0
 14
3433.2671371361493584
 24
769.7893242409127197
 34
0.0
 50
90.0
100
AcDbRotatedDimension
1001
ACAD
1000
DSTYLE
1002
{
1070
144
1040
1.0
1070
40
1040
0.2
1002
}
  0
DIMENSION
  5
E5
100
AcDbEntity
  8
Cotas
 62
256
370
-1
 48
1.0
  6
BYLAYER
100
AcDbDimension
 10
3442.6975681522903869
 20
767.7893242409127197
 30
0.0
 11
3442.3225681522903869
 21
766.7893242409127197
 31
0.0
 70
0
 71
8
 72
2
 74
0
 75
0
 41
1.0
 42
0.0
  1

  3
Standard
100
AcDbAlignedDimension
 13
3433.2671371361493584
 23
767.7893242409127197
 33
0.0
 14
3433.2671371361493584
 24
765.7893242409127197
 34
0.0
 50
90.0
100
AcDbRotatedDimension
1001
ACAD
1000
DSTYLE
1002
{
1070
144
1040
1.0
1070
40
1040
0.2
1002
}
  0
DIMENSION
  5
E6
100
AcDbEntity
  8
Cotas
 62
256
370
-1
 48
1.0
  6
BYLAYER
100
AcDbDimension
 10
3442.6975681522903869
 20
763.7893242409127197
 30
0.0
 11
3442.3225681522903869
 21
762.7893242409127197
 31
0.0
 70
0
 71
8
 72
2
 74
0
 75
0
 41
1.0
 42
0.0
  1

  3
Standard
100
AcDbAlignedDimension
 13
3433.2671371361493584
 23
763.7893242409127197
 33
0.0
 14
3433.2671371361493584
 24
761.7893242409127197
 34
0.0
 50
90.0
100
AcDbRotatedDimension
1001
ACAD
1000
DSTYLE
1002
{
1070
144
1040
1.0
1070
40
1040
0.2
1002
}
  0
DIMENSION
  5
E7
100
AcDbEntity
  8
Cotas
 62
256
370
-1
 48
1.0
  6
BYLAYER
100
AcDbDimension
 10
3447.8232309904078647
 20
766.7893242409127197
 30
0.0
 11
3447.4482309904078647
 21
774.6643242409127197
 31
0.0
 70
0
 71
8
 72
2
 74
0
 75
0
 41
1.0
 42
0.0
  1

  3
Standard
100
AcDbAlignedDimension
 13
3433.6458167925898124
 23
766.7893242409127197
 33
0.0
 14
3431.1458167925898124
 24
782.5393242409127197
 34
0.0
 50
90.0
100
AcDbRotatedDimension
1001
ACAD
1000
DSTYLE
1002
{
1070
144
1040
1.0
1070
40
1040
0.2
1002
}
  0
DIMENSION
  5
E8
100
AcDbEntity
  8
Cotas
 62
256
370
-1
 48
1.0
  6
BYLAYER
100
AcDbDimension
 10
3422.1194925112208693
 20
778.7893242409120376
 30
0.0
 11
3421.7444925112208693
 21
777.0393242409123786
 31
0.0
 70
0
 71
8
 72
2
 74
0
 75
0
 41
1.0
 42
0.0
  1

  3
Standard
100
AcDbAlignedDimension
 13
3431.1458167925898124
 23
778.7893242409120376
 33
0.0
 14
3431.1458167925898124
 24
775.2893242409127197
 34
0.0
 50
90.0
100
AcDbRotatedDimension
1001
ACAD
1000
DSTYLE
1002
{
1070
144
1040
1.0
1070
40
1040
0.2
1002
}
  0
DIMENSION
  5
E9
100
AcDbEntity
  8
Cotas
 62
256
370
-1
 48
1.0
  6
BYLAYER
100
AcDbDimension
 10
3420.2493233831041834
 20
778.7893242409120376
 30
0.0
 11
3419.8743233831041834
 21
774.7893242409123786
 31
0.0
 70
0
 71
8
 72
2
 74
0
 75
0
 41
1.0
 42
0.0
  1

  3
Standard
100
AcDbAlignedDimension
 13
3431.1458167925898124
 23
778.7893242409120376
 33
0.0
 14
3431.1458167925898124
 24
770.7893242409127197
 34
0.0
 50
90.0
100
AcDbRotatedDimension
1001
ACAD
1000
DSTYLE
1002
{
1070
144
1040
1.0
1070
40
1040
0.2
1002
}
  0
DIMENSION
  5
EA
100
AcDbEntity
  8
Cotas
 62
256
370
-1
 48
1.0
  6
BYLAYER
100
AcDbDimension
 10
3420.2493233831041834
 20
766.7893242409127197
 30
0.0
 11
3419.8743233831041834
 21
768.7893242409127197
 31
0.0
 70
0
 71
8
 72
2
 74
0
 75
0
 41
1.0
 42
0.0
  1

  3
Standard
100
AcDbAlignedDimension
 13
3431.1458167925898124
 23
766.7893242409127197
 33
0.0
 14
3431.1458167925898124
 24
770.7893242409127197
 34
0.0
 50
90.0
100
AcDbRotatedDimension
1001
ACAD
1000
DSTYLE
1002
{
1070
144
1040
1.0
1070
40
1040
0.2
1002
}
  0
DIMENSION
  5
EB
100
AcDbEntity
  8
Cotas
 62
256
370
-1
 48
1.0
  6
BYLAYER
100
AcDbDimension
 10
3420.2493233831041834
 20
762.7893242409128334
 30
0.0
 11
3419.8743233831041834
 21
764.7893242409127197
 31
0.0
 70
0
 71
8
 72
2
 74
0
 75
0
 41
1.0
 42
0.0
  1

  3
Standard
100
AcDbAlignedDimension
 13
3431.1458167925902671
 23
762.7893242409128334
 33
0.0
 14
3431.1458167925898124
 24
766.7893242409127197
 34
0.0
 50
90.0
100
AcDbRotatedDimension
1001
ACAD
1000
DSTYLE
1002
{
1070
144
1040
1.0
1070
40
1040
0.2
1002
}
  0
DIMENSION
  5
EC
100
AcDbEntity
  8
Cotas
 62
256
370
-1
 48
1.0
  6
BYLAYER
100
AcDbDimension
 10
3430.1458167925898124
 20
756.8614163611158574
 30
0.0
 11
3431.1458167925898124
 21
757.2364163611158574
 31
0.0
 70
0
 71
8
 72
2
 74
0
 75
0
 41
1.0
 42
0.0
  1

  3
Standard
100
AcDbAlignedDimension
 13
3430.1458167925898124
 23
760.66800389735306
 33
0.0
 14
3432.1458167925898124
 24
760.66800389735306
 34
0.0
 50
0.0
100
AcDbRotatedDimension
1001
ACAD
1000
DSTYLE
1002
{
1070
144
1040
1.0
1070
40
1040
0.2
1002
}
  0
DIMENSION
  5
ED
100
AcDbEntity
  8
Cotas
 62
256
370
-1
 48
1.0
  6
BYLAYER
100
AcDbDimension
 10
3427.3958167925898124
 20
754.456415753778856
 30
0.0
 11
3431.1458167925898124
 21
754.831415753778856
 31
0.0
 70
0
 71
8
 72
2
 74
0
 75
0
 41
1.0
 42
0.0
  1

  3
Standard
100
AcDbAlignedDimension
 13
3427.3958167925898124
 23
762.7893242409128334
 33
0.0
 14
3434.8958167925898124
 24
762.7893242409127197
 34
0.0
 50
0.0
100
AcDbRotatedDimension
1001
ACAD
1000
DSTYLE
1002
{
1070
144
1040
1.0
1070
40
1040
0.2
1002
}
  0
DIMENSION
  5
EE
100
AcDbEntity
  8
Cotas
 62
256
370
-1
 48
1.0
  6
BYLAYER
100
AcDbDimension
 10
3431.1458167925898124
 20
786.9077956821856787
 30
0.0
 11
3434.9958167925897214
 21
787.2827956821856787
 31
0.0
 70
0
 71
8
 72
2
 74
0
 75
0
 41
1.0
 42
0.0
  1
7.8
  3
Standard
100
AcDbAlignedDimension
 13
3431.1458167925898124
 23
766.7893242409130607
 33
0.0
 14
3438.8458167925896305
 24
766.7893242409127197
 34
0.0
 50
0.0
100
AcDbRotatedDimension
1001
ACAD
1000
DSTYLE
1002
{
1070
144
1040
1.0
1070
40
1040
0.2
1002
}
  0
ENDSEC
  0
SECTION
  2
OBJECTS
  0
DICTIONARY
  5
C
100
AcDbDictionary
280
0
281
1
  3
ACAD_GROUP
350
D
  3
ACAD_LAYOUT
350
1A
  3
ACAD_MLINESTYLE
350
17
  3
ACAD_PLOTSETTINGS
350
19
  3
ACAD_PLOTSTYLENAME
350
E
  3
AcDbVariableDictionary
350
EF
  3
QCAD_OBJECTS
350
F0
  0
DICTIONARY
  5
D
100
AcDbDictionary
280
0
281
1
  0
ACDBDICTIONARYWDFLT
  5
E
100
AcDbDictionary
281
1
  3
Normal
350
F
100
AcDbDictionaryWithDefault
340
F
  0
ACDBPLACEHOLDER
  5
F
  0
DICTIONARY
  5
17
100
AcDbDictionary
280
0
281
1
  3
Standard
350
18
  0
MLINESTYLE
  5
18
100
AcDbMlineStyle
  2
STANDARD
 70
0
  3

 62
256
 51
90.0
 52
90.0
 71
2
 49
0.5
 62
256
  6
BYLAYER
 49
-0.5
 62
256
  6
BYLAYER
  0
DICTIONARY
  5
19
100
AcDbDictionary
280
0
281
1
  0
DICTIONARY
  5
1A
100
AcDbDictionary
281
1
  3
Layout1
350
1E
  3
Layout2
350
26
  3
Model
350
22
  0
LAYOUT
  5
1E
100
AcDbPlotSettings
  1

  2
none_device
  4

  6

 40
0.0
 41
0.0
 42
0.0
 43
0.0
 44
0.0
 45
0.0
 46
0.0
 47
0.0
 48
0.0
 49
0.0
140
0.0
141
0.0
142
1.0
143
1.0
 70
688
 72
0
 73
0
 74
5
  7

 75
16
147
1.0
148
0.0
149
0.0
100
AcDbLayout
  1
Layout1
 70
1
 71
1
 10
0.0
 20
0.0
 11
420.0
 21
297.0
 12
0.0
 22
0.0
 32
0.0
 14
100000000000000000000.0
 24
100000000000000000000.0
 34
100000000000000000000.0
 15
-100000000000000000000.0
 25
-100000000000000000000.0
 35
-100000000000000000000.0
146
0.0
 13
0.0
 23
0.0
 33
0.0
 16
1.0
 26
0.0
 36
0.0
 17
0.0
 27
1.0
 37
0.0
 76
0
330
1B
  0
LAYOUT
  5
22
100
AcDbPlotSettings
  1

  2
none_device
  4

  6

 40
0.0
 41
0.0
 42
0.0
 43
0.0
 44
0.0
 45
0.0
 46
0.0
 47
0.0
 48
0.0
 49
0.0
140
0.0
141
0.0
142
1.0
143
1.0
 70
1712
 72
0
 73
0
 74
0
  7

 75
0
147
1.0
148
0.0
149
0.0
100
AcDbLayout
  1
Model
 70
1
 71
0
 10
0.0
 20
0.0
 11
12.0
 21
9.0
 12
0.0
 22
0.0
 32
0.0
 14
0.0
 24
0.0
 34
0.0
 15
0.0
 25
0.0
 35
0.0
146
0.0
 13
0.0
 23
0.0
 33
0.0
 16
1.0
 26
0.0
 36
0.0
 17
0.0
 27
1.0
 37
0.0
 76
0
330
1F
  0
LAYOUT
  5
26
100
AcDbPlotSettings
  1

  2
none_device
  4

  6

 40
0.0
 41
0.0
 42
0.0
 43
0.0
 44
0.0
 45
0.0
 46
0.0
 47
0.0
 48
0.0
 49
0.0
140
0.0
141
0.0
142
1.0
143
1.0
 70
688
 72
0
 73
0
 74
5
  7

 75
16
147
1.0
148
0.0
149
0.0
100
AcDbLayout
  1
Layout2
 70
1
 71
2
 10
0.0
 20
0.0
 11
12.0
 21
9.0
 12
0.0
 22
0.0
 32
0.0
 14
0.0
 24
0.0
 34
0.0
 15
0.0
 25
0.0
 35
0.0
146
0.0
 13
0.0
 23
0.0
 33
0.0
 16
1.0
 26
0.0
 36
0.0
 17
0.0
 27
1.0
 37
0.0
 76
0
330
23
  0
DICTIONARY
  5
EF
100
AcDbDictionary
281
1
  3
DIMASSOC
350
F2
  3
HIDETEXT
350
F1
  0
DICTIONARYVAR
  5
F1
100
DictionaryVariables
280
0
  1
2
  0
DICTIONARYVAR
  5
F2
100
DictionaryVariables
280
0
  1
1
  0
DICTIONARY
  5
F0
100
AcDbDictionary
281
1
  3
ColorSettings/BackgroundColor
350
F3
  3
ColorSettings/ColorMode
350
F4
  3
DimensionSettings/AngularFormat
350
F5
  3
DimensionSettings/AngularPrecision
350
F6
  3
DimensionSettings/DecimalPoint
350
F7
  3
DimensionSettings/DimensionFont
350
F8
  3
DimensionSettings/DimensionTextColor
350
F9
  3
DimensionSettings/KeepProportions
350
FA
  3
DimensionSettings/LinearFormat
350
FB
  3
DimensionSettings/LinearPrecision
350
FC
  3
Grid/DisplayGrid00
350
FD
  3
Grid/DisplayGrid01
350
FE
  3
Grid/DisplayGrid02
350
FF
  3
Grid/DisplayGrid03
350
100
  3
Grid/GridSpacingX00
350
101
  3
Grid/GridSpacingX01
350
102
  3
Grid/GridSpacingX02
350
103
  3
Grid/GridSpacingX03
350
104
  3
Grid/GridSpacingY00
350
105
  3
Grid/GridSpacingY01
350
106
  3
Grid/GridSpacingY02
350
107
  3
Grid/GridSpacingY03
350
108
  3
Grid/IsometricGrid00
350
109
  3
Grid/IsometricGrid01
350
10A
  3
Grid/IsometricGrid02
350
10B
  3
Grid/IsometricGrid03
350
10C
  3
Grid/IsometricProjection00
350
10D
  3
Grid/IsometricProjection01
350
10E
  3
Grid/IsometricProjection02
350
10F
  3
Grid/IsometricProjection03
350
110
  3
Grid/MetaGridSpacingX00
350
111
  3
Grid/MetaGridSpacingX01
350
112
  3
Grid/MetaGridSpacingX02
350
113
  3
Grid/MetaGridSpacingX03
350
114
  3
Grid/MetaGridSpacingY00
350
115
  3
Grid/MetaGridSpacingY01
350
116
  3
Grid/MetaGridSpacingY02
350
117
  3
Grid/MetaGridSpacingY03
350
118
  3
MultiPageSettings/Columns
350
119
  3
MultiPageSettings/GlueMarginsBottom
350
11A
  3
MultiPageSettings/GlueMarginsLeft
350
11B
  3
MultiPageSettings/GlueMarginsRight
350
11C
  3
MultiPageSettings/GlueMarginsTop
350
11D
  3
MultiPageSettings/PrintCropMarks
350
11E
  3
MultiPageSettings/Rows
350
11F
  3
PageSettings/OffsetX
350
120
  3
PageSettings/OffsetY
350
121
  3
PageSettings/PageOrientation
350
122
  3
PageSettings/PaperHeight
350
123
  3
PageSettings/PaperWidth
350
124
  3
PageSettings/Scale
350
125
  3
PageSettings/ShowPaperBorders
350
126
  3
PageTagSettings/EnablePageTags
350
127
  3
PageTagSettings/TagAlignment
350
128
  3
PageTagSettings/TagFont
350
129
  3
PageTagSettings/TagPosition
350
12A
  3
QCADVersion
350
12B
  3
UnitSettings/PaperUnit
350
12C
  3
ViewportCenter
350
12D
  3
ViewportHeight
350
12E
  3
ViewportWidth
350
12F
  0
XRECORD
  5
F3
330
F0
100
AcDbXrecord
280
1
1000
Blanca
  0
XRECORD
  5
F4
330
F0
100
AcDbXrecord
280
1
1000
FullColor
  0
XRECORD
  5
F5
330
F0
100
AcDbXrecord
280
1
 90
0
  0
XRECORD
  5
F6
330
F0
100
AcDbXrecord
280
1
 90
0
  0
XRECORD
  5
F7
330
F0
100
AcDbXrecord
280
1
 90
46
  0
XRECORD
  5
F8
330
F0
100
AcDbXrecord
280
1
1000
MS Shell Dlg 2
  0
XRECORD
  5
F9
330
F0
100
AcDbXrecord
280
1
1000
Por Capa
  0
XRECORD
  5
FA
330
F0
100
AcDbXrecord
280
1
290
1
  0
XRECORD
  5
FB
330
F0
100
AcDbXrecord
280
1
 90
2
  0
XRECORD
  5
FC
330
F0
100
AcDbXrecord
280
1
 90
4
  0
XRECORD
  5
FD
330
F0
100
AcDbXrecord
280
1
290
0
  0
XRECORD
  5
FE
330
F0
100
AcDbXrecord
280
1
290
1
  0
XRECORD
  5
FF
330
F0
100
AcDbXrecord
280
1
290
1
  0
XRECORD
  5
100
330
F0
100
AcDbXrecord
280
1
290
1
  0
XRECORD
  5
101
330
F0
100
AcDbXrecord
280
1
1000
auto
  0
XRECORD
  5
102
330
F0
100
AcDbXrecord
280
1
1000
auto
  0
XRECORD
  5
103
330
F0
100
AcDbXrecord
280
1
1000
auto
  0
XRECORD
  5
104
330
F0
100
AcDbXrecord
280
1
1000
auto
  0
XRECORD
  5
105
330
F0
100
AcDbXrecord
280
1
1000
auto
  0
XRECORD
  5
106
330
F0
100
AcDbXrecord
280
1
1000
auto
  0
XRECORD
  5
107
330
F0
100
AcDbXrecord
280
1
1000
auto
  0
XRECORD
  5
108
330
F0
100
AcDbXrecord
280
1
1000
auto
  0
XRECORD
  5
109
330
F0
100
AcDbXrecord
280
1
290
0
  0
XRECORD
  5
10A
330
F0
100
AcDbXrecord
280
1
290
0
  0
XRECORD
  5
10B
330
F0
100
AcDbXrecord
280
1
290
0
  0
XRECORD
  5
10C
330
F0
100
AcDbXrecord
280
1
290
0
  0
XRECORD
  5
10D
330
F0
100
AcDbXrecord
280
1
 90
65540
  0
XRECORD
  5
10E
330
F0
100
AcDbXrecord
280
1
 90
65537
  0
XRECORD
  5
10F
330
F0
100
AcDbXrecord
280
1
 90
65537
  0
XRECORD
  5
110
330
F0
100
AcDbXrecord
280
1
 90
65537
  0
XRECORD
  5
111
330
F0
100
AcDbXrecord
280
1
1000
auto
  0
XRECORD
  5
112
330
F0
100
AcDbXrecord
280
1
1000
auto
  0
XRECORD
  5
113
330
F0
100
AcDbXrecord
280
1
1000
auto
  0
XRECORD
  5
114
330
F0
100
AcDbXrecord
280
1
1000
auto
  0
XRECORD
  5
115
330
F0
100
AcDbXrecord
280
1
1000
1
  0
XRECORD
  5
116
330
F0
100
AcDbXrecord
280
1
1000
auto
  0
XRECORD
  5
117
330
F0
100
AcDbXrecord
280
1
1000
auto
  0
XRECORD
  5
118
330
F0
100
AcDbXrecord
280
1
1000
auto
  0
XRECORD
  5
119
330
F0
100
AcDbXrecord
280
1
 90
1
  0
XRECORD
  5
11A
330
F0
100
AcDbXrecord
280
1
 40
10.0
  0
XRECORD
  5
11B
330
F0
100
AcDbXrecord
280
1
 40
10.0
  0
XRECORD
  5
11C
330
F0
100
AcDbXrecord
280
1
 40
10.0
  0
XRECORD
  5
11D
330
F0
100
AcDbXrecord
280
1
 40
10.0
  0
XRECORD
  5
11E
330
F0
100
AcDbXrecord
280
1
290
0
  0
XRECORD
  5
11F
330
F0
100
AcDbXrecord
280
1
 90
1
  0
XRECORD
  5
120
330
F0
100
AcDbXrecord
280
1
 40
793.1665914866936191
  0
XRECORD
  5
121
330
F0
100
AcDbXrecord
280
1
 40
306.6308471493692309
  0
XRECORD
  5
122
330
F0
100
AcDbXrecord
280
1
1000
Portrait
  0
XRECORD
  5
123
330
F0
100
AcDbXrecord
280
1
 40
279.3999999999999773
  0
XRECORD
  5
124
330
F0
100
AcDbXrecord
280
1
 40
215.9000000000000057
  0
XRECORD
  5
125
330
F0
100
AcDbXrecord
280
1
 90
1
  0
XRECORD
  5
126
330
F0
100
AcDbXrecord
280
1
290
1
  0
XRECORD
  5
127
330
F0
100
AcDbXrecord
280
1
290
0
  0
XRECORD
  5
128
330
F0
100
AcDbXrecord
280
1
1000
Inside
  0
XRECORD
  5
129
330
F0
100
AcDbXrecord
280
1
1000
Arial,10,-1,5,50,0,0,0,0,0
  0
XRECORD
  5
12A
330
F0
100
AcDbXrecord
280
1
1000
TopLeft
  0
XRECORD
  5
12B
330
F0
100
AcDbXrecord
280
1
1000
3.28.1
  0
XRECORD
  5
12C
330
F0
100
AcDbXrecord
280
1
 90
4
  0
XRECORD
  5
12E
330
F0
100
AcDbXrecord
280
1
 40
30.8552536888386157
  0
XRECORD
  5
12F
330
F0
100
AcDbXrecord
280
1
 40
57.4742327933490742
  0
IMAGEDEF
  5
60
100
AcDbRasterImageDef
 90
0
  1
C:/Users/iamth/Documents/OneDrive/Estudio Aut\U+00f3nomo/CAD/QCad/1. StudyCadCam/2D CAD EXERCISES 98.png
 10
200.0
 20
141.0
 11
1.0
 21
1.0
280
1
281
0
  0
ENDSEC
  0
EOF
