999
dxflib 3.26.4.0
  0
SECTION
  2
HEADER
  9
$ACADVER
  1
AC1015
  9
$HANDSEED
  5
FFFF
  9
$DIMADEC
 70
0
  9
$DIMASZ
 40
2.5
  9
$DIMATFIT
 70
0
  9
$DIMAUNIT
 70
0
  9
$DIMAZIN
 70
2
  9
$DIMBLK
  1
0
  9
$DIMBLK1
  1
0
  9
$DIMBLK2
  1
0
  9
$DIMDEC
 70
4
  9
$DIMDLI
 40
5.0
  9
$DIMDSEP
 70
46
  9
$DIMEXE
 40
1.25
  9
$DIMEXO
 40
0.625
  9
$DIMGAP
 40
0.625
  9
$DIMLFAC
 40
1.0
  9
$DIMLUNIT
 70
2
  9
$DIMSCALE
 40
1.0
  9
$DIMTAD
 70
1
  9
$DIMTIH
 70
0
  9
$DIMTSZ
 40
0.0
  9
$DIMTXT
 40
2.5
  9
$DIMZIN
 70
8
  9
$DWGCODEPAGE
  3
ANSI_1252
  9
$INSUNITS
 70
4
  9
$LTSCALE
 40
1.0
  9
$MAXACTVP
 70
64
  9
$MEASUREMENT
 70
1
  9
$MIRRTEXT
 70
0
  9
$PDMODE
 70
0
  9
$PDSIZE
 40
0.0
  0
ENDSEC
  0
SECTION
  2
TABLES
  0
TABLE
  2
VPORT
  5
8
100
AcDbSymbolTable
 70
1
  0
VPORT
  5
30
100
AcDbSymbolTableRecord
100
AcDbViewportTableRecord
  2
*Active
 70
0
 10
0.0
 20
0.0
 11
1.0
 21
1.0
 12
286.3055555555554861
 22
148.5
 13
0.0
 23
0.0
 14
10.0
 24
10.0
 15
10.0
 25
10.0
 16
0.0
 26
0.0
 36
1.0
 17
0.0
 27
0.0
 37
0.0
 40
297.0
 41
1.92798353909465
 42
50.0
 43
0.0
 44
0.0
 50
0.0
 51
0.0
 71
0
 72
100
 73
1
 74
3
 75
1
 76
1
 77
0
 78
0
281
0
 65
1
110
0.0
120
0.0
130
0.0
111
1.0
121
0.0
131
0.0
112
0.0
122
1.0
132
0.0
 79
0
146
0.0
  0
ENDTAB
  0
TABLE
  2
LTYPE
  5
5
100
AcDbSymbolTable
 70
41
  0
LTYPE
  5
16
100
AcDbSymbolTableRecord
100
AcDbLinetypeTableRecord
  2
Continuous
 70
0
  3
Solid line
 72
65
 73
0
 40
0.0
  0
LTYPE
  5
31
100
AcDbSymbolTableRecord
100
AcDbLinetypeTableRecord
  2
PHANTOM
 70
0
  3
Phantom ______  __  __  ______  __  __  ______ 
 72
65
 73
6
 40
63.5000000000000071
 49
31.75
 74
0
 49
-6.3499999999999996
 74
0
 49
6.3499999999999996
 74
0
 49
-6.3499999999999996
 74
0
 49
6.3499999999999996
 74
0
 49
-6.3499999999999996
 74
0
  0
LTYPE
  5
32
100
AcDbSymbolTableRecord
100
AcDbLinetypeTableRecord
  2
BORDER
 70
0
  3
Border __ __ . __ __ . __ __ . __ __ . __ __ .
 72
65
 73
6
 40
44.4499999999999957
 49
12.6999999999999993
 74
0
 49
-6.3499999999999996
 74
0
 49
12.6999999999999993
 74
0
 49
-6.2999999999999998
 74
0
 49
0.1
 74
0
 49
-6.2999999999999998
 74
0
  0
LTYPE
  5
33
100
AcDbSymbolTableRecord
100
AcDbLinetypeTableRecord
  2
CENTER
 70
0
  3
Center ____ _ ____ _ ____ _ ____ _ ____ _ ____
 72
65
 73
4
 40
50.8000000000000043
 49
31.75
 74
0
 49
-6.3499999999999996
 74
0
 49
6.3499999999999996
 74
0
 49
-6.3499999999999996
 74
0
  0
LTYPE
  5
34
100
AcDbSymbolTableRecord
100
AcDbLinetypeTableRecord
  2
ACAD_ISO11W100
 70
0
  3
ISO double-dash dot __ __ . __ __ . __ __ . __ _
 72
65
 73
6
 40
33.0
 49
12.0
 74
0
 49
-3.0
 74
0
 49
12.0
 74
0
 49
-2.9500000000000002
 74
0
 49
0.1
 74
0
 49
-2.9500000000000002
 74
0
  0
LTYPE
  5
35
100
AcDbSymbolTableRecord
100
AcDbLinetypeTableRecord
  2
ACAD_ISO10W100
 70
0
  3
ISO dash dot __ . __ . __ . __ . __ . __ . __ . 
 72
65
 73
4
 40
18.0
 49
12.0
 74
0
 49
-2.9500000000000002
 74
0
 49
0.1
 74
0
 49
-2.9500000000000002
 74
0
  0
LTYPE
  5
36
100
AcDbSymbolTableRecord
100
AcDbLinetypeTableRecord
  2
ACAD_ISO04W100
 70
0
  3
ISO long-dash dot ____ . ____ . ____ . ____ . _
 72
65
 73
4
 40
30.0
 49
24.0
 74
0
 49
-2.9500000000000002
 74
0
 49
0.1
 74
0
 49
-2.9500000000000002
 74
0
  0
LTYPE
  5
37
100
AcDbSymbolTableRecord
100
AcDbLinetypeTableRecord
  2
DOT2
 70
0
  3
Dot (.5x) ........................................
 72
65
 73
2
 40
3.1749999999999998
 49
0.1
 74
0
 49
-3.0749999999999997
 74
0
  0
LTYPE
  5
38
100
AcDbSymbolTableRecord
100
AcDbLinetypeTableRecord
  2
DASHEDX2
 70
0
  3
Dashed (2x) ____  ____  ____  ____  ____  ___
 72
65
 73
2
 40
38.0999999999999943
 49
25.3999999999999986
 74
0
 49
-12.6999999999999993
 74
0
  0
LTYPE
  5
39
100
AcDbSymbolTableRecord
100
AcDbLinetypeTableRecord
  2
HIDDEN2
 70
0
  3
Hidden (.5x) _ _ _ _ _ _ _ _ _ _ _ _ _ _ _ _ _ 
 72
65
 73
2
 40
4.7624999999999993
 49
3.1749999999999998
 74
0
 49
-1.5874999999999999
 74
0
  0
LTYPE
  5
3A
100
AcDbSymbolTableRecord
100
AcDbLinetypeTableRecord
  2
DIVIDEX2
 70
0
  3
Divide (2x) ________  .  .  ________  .  .  _
 72
65
 73
6
 40
63.5
 49
25.3999999999999986
 74
0
 49
-12.6499999999999986
 74
0
 49
0.1
 74
0
 49
-12.5999999999999979
 74
0
 49
0.1
 74
0
 49
-12.6499999999999986
 74
0
  0
LTYPE
  5
3B
100
AcDbSymbolTableRecord
100
AcDbLinetypeTableRecord
  2
DOTX2
 70
0
  3
Dot (2x) .  .  .  .  .  .  .  .  .  .  .  .  .  .
 72
65
 73
2
 40
12.6999999999999993
 49
0.1
 74
0
 49
-12.5999999999999996
 74
0
  0
LTYPE
  5
3C
100
AcDbSymbolTableRecord
100
AcDbLinetypeTableRecord
  2
PHANTOM2
 70
0
  3
Phantom (.5x) ___ _ _ ___ _ _ ___ _ _ ___ _ _
 72
65
 73
6
 40
31.7500000000000036
 49
15.875
 74
0
 49
-3.1749999999999998
 74
0
 49
3.1749999999999998
 74
0
 49
-3.1749999999999998
 74
0
 49
3.1749999999999998
 74
0
 49
-3.1749999999999998
 74
0
  0
LTYPE
  5
3D
100
AcDbSymbolTableRecord
100
AcDbLinetypeTableRecord
  2
DASHDOT
 70
0
  3
Dash dot __ . __ . __ . __ . __ . __ . __ . __
 72
65
 73
4
 40
25.4000000000000021
 49
12.6999999999999993
 74
0
 49
-6.2999999999999998
 74
0
 49
0.1
 74
0
 49
-6.2999999999999998
 74
0
  0
LTYPE
  5
3E
100
AcDbSymbolTableRecord
100
AcDbLinetypeTableRecord
  2
DOT
 70
0
  3
Dot . . . . . . . . . . . . . . . . . . . . . . . .
 72
65
 73
2
 40
6.3499999999999996
 49
0.1
 74
0
 49
-6.25
 74
0
  0
LTYPE
  5
3F
100
AcDbSymbolTableRecord
100
AcDbLinetypeTableRecord
  2
ACAD_ISO07W100
 70
0
  3
ISO dot . . . . . . . . . . . . . . . . . . . . 
 72
65
 73
2
 40
3.0
 49
0.1
 74
0
 49
-2.8999999999999999
 74
0
  0
LTYPE
  5
40
100
AcDbSymbolTableRecord
100
AcDbLinetypeTableRecord
  2
BORDER2
 70
0
  3
Border (.5x) __.__.__.__.__.__.__.__.__.__.__.
 72
65
 73
6
 40
22.2250000000000014
 49
6.3499999999999996
 74
0
 49
-3.1749999999999998
 74
0
 49
6.3499999999999996
 74
0
 49
-3.125
 74
0
 49
0.1
 74
0
 49
-3.125
 74
0
  0
LTYPE
  5
41
100
AcDbSymbolTableRecord
100
AcDbLinetypeTableRecord
  2
CENTER2
 70
0
  3
Center (.5x) ___ _ ___ _ ___ _ ___ _ ___ _ ___
 72
65
 73
4
 40
28.5750000000000028
 49
19.0500000000000007
 74
0
 49
-3.1749999999999998
 74
0
 49
3.1749999999999998
 74
0
 49
-3.1749999999999998
 74
0
  0
LTYPE
  5
42
100
AcDbSymbolTableRecord
100
AcDbLinetypeTableRecord
  2
DASHED2
 70
0
  3
Dashed (.5x) _ _ _ _ _ _ _ _ _ _ _ _ _ _ _ _ _ 
 72
65
 73
2
 40
9.5249999999999986
 49
6.3499999999999996
 74
0
 49
-3.1749999999999998
 74
0
  0
LTYPE
  5
43
100
AcDbSymbolTableRecord
100
AcDbLinetypeTableRecord
  2
ACAD_ISO13W100
 70
0
  3
ISO double-dash double-dot __ __ . . __ __ . . _
 72
65
 73
8
 40
36.0000000000000071
 49
12.0
 74
0
 49
-3.0
 74
0
 49
12.0
 74
0
 49
-2.9500000000000002
 74
0
 49
0.1
 74
0
 49
-2.9000000000000004
 74
0
 49
0.1
 74
0
 49
-2.9500000000000002
 74
0
  0
LTYPE
  5
44
100
AcDbSymbolTableRecord
100
AcDbLinetypeTableRecord
  2
DIVIDE2
 70
0
  3
Divide (.5x) __..__..__..__..__..__..__..__.._
 72
65
 73
6
 40
15.8749999999999982
 49
6.3499999999999996
 74
0
 49
-3.125
 74
0
 49
0.1
 74
0
 49
-3.0750000000000002
 74
0
 49
0.1
 74
0
 49
-3.125
 74
0
  0
LTYPE
  5
45
100
AcDbSymbolTableRecord
100
AcDbLinetypeTableRecord
  2
DASHDOT2
 70
0
  3
Dash dot (.5x) _._._._._._._._._._._._._._._.
 72
65
 73
4
 40
12.6999999999999993
 49
6.3499999999999996
 74
0
 49
-3.125
 74
0
 49
0.1
 74
0
 49
-3.125
 74
0
  0
LTYPE
  5
46
100
AcDbSymbolTableRecord
100
AcDbLinetypeTableRecord
  2
HIDDENX2
 70
0
  3
Hidden (2x) ____ ____ ____ ____ ____ ____ ____ 
 72
65
 73
2
 40
19.0499999999999972
 49
12.6999999999999993
 74
0
 49
-6.3499999999999996
 74
0
  0
LTYPE
  5
47
100
AcDbSymbolTableRecord
100
AcDbLinetypeTableRecord
  2
DASHDOTX2
 70
0
  3
Dash dot (2x) ____  .  ____  .  ____  .  ___
 72
65
 73
4
 40
50.7999999999999972
 49
25.3999999999999986
 74
0
 49
-12.6499999999999986
 74
0
 49
0.1
 74
0
 49
-12.6499999999999986
 74
0
  0
LTYPE
  5
48
100
AcDbSymbolTableRecord
100
AcDbLinetypeTableRecord
  2
ACAD_ISO02W100
 70
0
  3
ISO dash __ __ __ __ __ __ __ __ __ __ __ __ __
 72
65
 73
2
 40
15.0
 49
12.0
 74
0
 49
-3.0
 74
0
  0
LTYPE
  5
49
100
AcDbSymbolTableRecord
100
AcDbLinetypeTableRecord
  2
DASHED
 70
0
  3
Dashed __ __ __ __ __ __ __ __ __ __ __ __ __ _
 72
65
 73
2
 40
19.0499999999999972
 49
12.6999999999999993
 74
0
 49
-6.3499999999999996
 74
0
  0
LTYPE
  5
4A
100
AcDbSymbolTableRecord
100
AcDbLinetypeTableRecord
  2
ACAD_ISO09W100
 70
0
  3
ISO long-dash double-short-dash ____ __ __ ____
 72
65
 73
6
 40
45.0
 49
24.0
 74
0
 49
-3.0
 74
0
 49
6.0
 74
0
 49
-3.0
 74
0
 49
6.0
 74
0
 49
-3.0
 74
0
  0
LTYPE
  5
4B
100
AcDbSymbolTableRecord
100
AcDbLinetypeTableRecord
  2
ACAD_ISO05W100
 70
0
  3
ISO long-dash double-dot ____ .. ____ .. ____ . 
 72
65
 73
6
 40
33.0000000000000071
 49
24.0
 74
0
 49
-2.9500000000000002
 74
0
 49
0.1
 74
0
 49
-2.9000000000000004
 74
0
 49
0.1
 74
0
 49
-2.9500000000000002
 74
0
  0
LTYPE
  5
4C
100
AcDbSymbolTableRecord
100
AcDbLinetypeTableRecord
  2
ACAD_ISO14W100
 70
0
  3
ISO dash triple-dot __ . . . __ . . . __ . . . _
 72
65
 73
8
 40
24.0000000000000036
 49
12.0
 74
0
 49
-2.9500000000000002
 74
0
 49
0.1
 74
0
 49
-2.9000000000000004
 74
0
 49
0.1
 74
0
 49
-2.9000000000000004
 74
0
 49
0.1
 74
0
 49
-2.9500000000000002
 74
0
  0
LTYPE
  5
4D
100
AcDbSymbolTableRecord
100
AcDbLinetypeTableRecord
  2
PHANTOMX2
 70
0
  3
Phantom (2x) ____________    ____    ____   _
 72
65
 73
6
 40
127.0000000000000142
 49
63.5
 74
0
 49
-12.6999999999999993
 74
0
 49
12.6999999999999993
 74
0
 49
-12.6999999999999993
 74
0
 49
12.6999999999999993
 74
0
 49
-12.6999999999999993
 74
0
  0
LTYPE
  5
4E
100
AcDbSymbolTableRecord
100
AcDbLinetypeTableRecord
  2
CENTERX2
 70
0
  3
Center (2x) ________  __  ________  __  _____
 72
65
 73
4
 40
101.6000000000000085
 49
63.5
 74
0
 49
-12.6999999999999993
 74
0
 49
12.6999999999999993
 74
0
 49
-12.6999999999999993
 74
0
  0
LTYPE
  5
4F
100
AcDbSymbolTableRecord
100
AcDbLinetypeTableRecord
  2
ACAD_ISO03W100
 70
0
  3
ISO dash space __    __    __    __    __    __
 72
65
 73
2
 40
30.0
 49
12.0
 74
0
 49
-18.0
 74
0
  0
LTYPE
  5
50
100
AcDbSymbolTableRecord
100
AcDbLinetypeTableRecord
  2
ACAD_ISO06W100
 70
0
  3
ISO long-dash triple-dot ____ ... ____ ... ____
 72
65
 73
8
 40
36.0000000000000071
 49
24.0
 74
0
 49
-2.9500000000000002
 74
0
 49
0.1
 74
0
 49
-2.9000000000000004
 74
0
 49
0.1
 74
0
 49
-2.9000000000000004
 74
0
 49
0.1
 74
0
 49
-2.9500000000000002
 74
0
  0
LTYPE
  5
51
100
AcDbSymbolTableRecord
100
AcDbLinetypeTableRecord
  2
DIVIDE
 70
0
  3
Divide ____ . . ____ . . ____ . . ____ . . ____
 72
65
 73
6
 40
31.7500000000000036
 49
12.6999999999999993
 74
0
 49
-6.2999999999999998
 74
0
 49
0.1
 74
0
 49
-6.25
 74
0
 49
0.1
 74
0
 49
-6.2999999999999998
 74
0
  0
LTYPE
  5
52
100
AcDbSymbolTableRecord
100
AcDbLinetypeTableRecord
  2
HIDDEN
 70
0
  3
Hidden __ __ __ __ __ __ __ __ __ __ __ __ __ __
 72
65
 73
2
 40
9.5249999999999986
 49
6.3499999999999996
 74
0
 49
-3.1749999999999998
 74
0
  0
LTYPE
  5
14
100
AcDbSymbolTableRecord
100
AcDbLinetypeTableRecord
  2
BYBLOCK
 70
0
  3

 72
65
 73
0
 40
0.0
  0
LTYPE
  5
53
100
AcDbSymbolTableRecord
100
AcDbLinetypeTableRecord
  2
BORDERX2
 70
0
  3
Border (2x) ____  ____  .  ____  ____  .  ___
 72
65
 73
6
 40
88.8999999999999773
 49
25.3999999999999986
 74
0
 49
-12.6999999999999993
 74
0
 49
25.3999999999999986
 74
0
 49
-12.6499999999999986
 74
0
 49
0.1
 74
0
 49
-12.6499999999999986
 74
0
  0
LTYPE
  5
54
100
AcDbSymbolTableRecord
100
AcDbLinetypeTableRecord
  2
ACAD_ISO12W100
 70
0
  3
ISO dash double-dot __ . . __ . . __ . . __ . . 
 72
65
 73
6
 40
21.0
 49
12.0
 74
0
 49
-2.9500000000000002
 74
0
 49
0.1
 74
0
 49
-2.9000000000000004
 74
0
 49
0.1
 74
0
 49
-2.9500000000000002
 74
0
  0
LTYPE
  5
55
100
AcDbSymbolTableRecord
100
AcDbLinetypeTableRecord
  2
ACAD_ISO08W100
 70
0
  3
ISO long-dash short-dash ____ __ ____ __ ____ _
 72
65
 73
4
 40
36.0
 49
24.0
 74
0
 49
-3.0
 74
0
 49
6.0
 74
0
 49
-3.0
 74
0
  0
LTYPE
  5
56
100
AcDbSymbolTableRecord
100
AcDbLinetypeTableRecord
  2
ACAD_ISO15W100
 70
0
  3
ISO double-dash triple-dot __ __ . . . __ __ . .
 72
65
 73
10
 40
39.0000000000000071
 49
12.0
 74
0
 49
-3.0
 74
0
 49
12.0
 74
0
 49
-2.9500000000000002
 74
0
 49
0.1
 74
0
 49
-2.9000000000000004
 74
0
 49
0.1
 74
0
 49
-2.9000000000000004
 74
0
 49
0.1
 74
0
 49
-2.9500000000000002
 74
0
  0
LTYPE
  5
15
100
AcDbSymbolTableRecord
100
AcDbLinetypeTableRecord
  2
BYLAYER
 70
0
  3

 72
65
 73
0
 40
0.0
  0
ENDTAB
  0
TABLE
  2
LAYER
  5
2
100
AcDbSymbolTable
 70
7
  0
LAYER
  5
57
100
AcDbSymbolTableRecord
100
AcDbLayerTableRecord
  2
Contornos Visibles
 70
0
 62
7
420
16777215
  6
Continuous
370
50
390
F
  0
LAYER
  5
58
100
AcDbSymbolTableRecord
100
AcDbLayerTableRecord
  2
Cotas
 70
0
 62
1
420
16711680
  6
Continuous
370
20
390
F
  0
LAYER
  5
10
100
AcDbSymbolTableRecord
100
AcDbLayerTableRecord
  2
0
 70
0
 62
7
420
16777215
  6
Continuous
370
25
390
F
  0
LAYER
  5
59
100
AcDbSymbolTableRecord
100
AcDbLayerTableRecord
  2
Referencias
 70
1
 62
2
420
16776960
  6
Continuous
370
25
390
F
  0
LAYER
  5
5A
100
AcDbSymbolTableRecord
100
AcDbLayerTableRecord
  2
Contornos Ocultos
 70
0
 62
252
420
10526884
  6
ACAD_ISO02W100
370
30
390
F
  0
LAYER
  5
5B
100
AcDbSymbolTableRecord
100
AcDbLayerTableRecord
  2
Ejes de revoluci\U+00f3n
 70
0
 62
6
420
16711935
  6
ACAD_ISO04W100
370
20
390
F
  0
LAYER
  5
5C
100
AcDbSymbolTableRecord
100
AcDbLayerTableRecord
  2
Referencias 2
 70
0
 62
3
420
65280
  6
Continuous
370
25
390
F
  0
ENDTAB
  0
TABLE
  2
STYLE
  5
3
100
AcDbSymbolTable
 70
1
  0
STYLE
  5
5D
100
AcDbSymbolTableRecord
100
AcDbTextStyleTableRecord
  2
Standard
 70
0
 40
0.0
 41
1.0
 50
0.0
 71
0
 42
2.5
  3

  4

1001
ACAD
1000
txt
1071
0
  0
ENDTAB
  0
TABLE
  2
VIEW
  5
6
100
AcDbSymbolTable
 70
0
  0
ENDTAB
  0
TABLE
  2
UCS
  5
7
100
AcDbSymbolTable
 70
0
  0
ENDTAB
  0
TABLE
  2
APPID
  5
9
100
AcDbSymbolTable
 70
1
  0
APPID
  5
12
100
AcDbSymbolTableRecord
100
AcDbRegAppTableRecord
  2
ACAD
 70
0
  0
APPID
  5
5E
100
AcDbSymbolTableRecord
100
AcDbRegAppTableRecord
  2
QCAD
 70
0
  0
ENDTAB
  0
TABLE
  2
DIMSTYLE
  5
A
100
AcDbSymbolTable
 70
1
100
AcDbDimStyleTable
 71
0
  0
DIMSTYLE
105
27
100
AcDbSymbolTableRecord
100
AcDbDimStyleTableRecord
  2
Standard
 41
2.5
 42
0.625
 43
3.75
 44
1.25
 70
0
 73
0
 74
0
 77
1
 78
8
140
2.5
141
2.5
143
0.03937007874016
147
0.625
171
3
172
1
271
2
272
2
274
3
278
44
283
0
284
8
340
5D
  0
ENDTAB
  0
TABLE
  2
BLOCK_RECORD
  5
1
100
AcDbSymbolTable
 70
1
  0
BLOCK_RECORD
  5
1F
100
AcDbSymbolTableRecord
100
AcDbBlockTableRecord
  2
*Model_Space
340
22
  0
BLOCK_RECORD
  5
1B
100
AcDbSymbolTableRecord
100
AcDbBlockTableRecord
  2
*Paper_Space
340
1E
  0
BLOCK_RECORD
  5
23
100
AcDbSymbolTableRecord
100
AcDbBlockTableRecord
  2
*Paper_Space0
340
26
  0
ENDTAB
  0
ENDSEC
  0
SECTION
  2
BLOCKS
  0
BLOCK
  5
20
100
AcDbEntity
  8
0
100
AcDbBlockBegin
  2
*Model_Space
 70
0
 10
0.0
 20
0.0
 30
0.0
  3
*Model_Space
  1

  0
ENDBLK
  5
21
100
AcDbEntity
  8
0
100
AcDbBlockEnd
  0
BLOCK
  5
1C
100
AcDbEntity
 67
1
  8
0
100
AcDbBlockBegin
  2
*Paper_Space
 70
0
 10
0.0
 20
0.0
 30
0.0
  3
*Paper_Space
  1

  0
ENDBLK
  5
1D
100
AcDbEntity
 67
1
  8
0
100
AcDbBlockEnd
  0
BLOCK
  5
24
100
AcDbEntity
  8
0
100
AcDbBlockBegin
  2
*Paper_Space0
 70
0
 10
0.0
 20
0.0
 30
0.0
  3
*Paper_Space0
  1

  0
ENDBLK
  5
25
100
AcDbEntity
  8
0
100
AcDbBlockEnd
  0
ENDSEC
  0
SECTION
  2
ENTITIES
  0
IMAGE
  5
5F
100
AcDbEntity
  8
0
 62
256
370
-1
 48
1.0
  6
BYLAYER
100
AcDbRasterImage
 90
0
 10
2262.975054430417913
 20
665.8737321228938981
 30
0.0
 11
0.09765625
 21
0.0
 31
0.0
 12
0.0
 22
0.09765625
 32
0.0
 13
200.0
 23
141.0
340
60
 70
15
280
0
281
50
282
50
283
0
  0
LINE
  5
61
100
AcDbEntity
  8
Contornos Visibles
 62
256
370
-1
 48
1.0
  6
BYLAYER
100
AcDbLine
 10
2685.1178458640351892
 20
727.0172850940650733
 30
0.0
 11
2805.1178458640351892
 21
727.0172850940650733
 31
0.0
  0
LINE
  5
62
100
AcDbEntity
  8
Contornos Visibles
 62
256
370
-1
 48
1.0
  6
BYLAYER
100
AcDbLine
 10
2685.1178458640351892
 20
739.0172850940650733
 30
0.0
 11
2805.1178458640351892
 21
739.0172850940650733
 31
0.0
  0
LINE
  5
63
100
AcDbEntity
  8
Contornos Visibles
 62
256
370
-1
 48
1.0
  6
BYLAYER
100
AcDbLine
 10
2805.1178458640351892
 20
739.0172850940650733
 30
0.0
 11
2805.1178458640351892
 21
727.0172850940650733
 31
0.0
  0
LINE
  5
64
100
AcDbEntity
  8
Contornos Visibles
 62
256
370
-1
 48
1.0
  6
BYLAYER
100
AcDbLine
 10
2685.1178458640351892
 20
729.0172850940650733
 30
0.0
 11
2805.1178458640351892
 21
729.0172850940650733
 31
0.0
  0
LINE
  5
65
100
AcDbEntity
  8
Contornos Visibles
 62
256
370
-1
 48
1.0
  6
BYLAYER
100
AcDbLine
 10
2685.1178458640351892
 20
737.0172850940650733
 30
0.0
 11
2805.1178458640351892
 21
737.0172850940650733
 31
0.0
  0
LINE
  5
66
100
AcDbEntity
  8
Ejes de revoluci\U+00f3n
 62
256
370
-1
 48
1.0
  6
BYLAYER
100
AcDbLine
 10
2805.1178458640351892
 20
733.0172850940650733
 30
0.0
 11
2685.1178458640351892
 21
733.0172850940650733
 31
0.0
  0
CIRCLE
  5
67
100
AcDbEntity
  8
Contornos Visibles
 62
256
370
-1
 48
1.0
  6
BYLAYER
100
AcDbCircle
 10
2799.1178458640351892
 20
733.017285094065187
 30
0.0
 40
1.1999999999998181
  0
LINE
  5
68
100
AcDbEntity
  8
Contornos Visibles
 62
256
370
-1
 48
1.0
  6
BYLAYER
100
AcDbLine
 10
2685.1178458640351892
 20
726.617285094065096
 30
0.0
 11
2685.1178458640351892
 21
739.4172850940650505
 31
0.0
  0
CIRCLE
  5
69
100
AcDbEntity
  8
Contornos Visibles
 62
256
370
-1
 48
1.0
  6
BYLAYER
100
AcDbCircle
 10
2687.5178458640352801
 20
728.0172850940649596
 30
0.0
 40
0.5
  0
CIRCLE
  5
6A
100
AcDbEntity
  8
Contornos Visibles
 62
256
370
-1
 48
1.0
  6
BYLAYER
100
AcDbCircle
 10
2687.5178458640352801
 20
738.0172850940649596
 30
0.0
 40
0.5
  0
CIRCLE
  5
6B
100
AcDbEntity
  8
Contornos Visibles
 62
256
370
-1
 48
1.0
  6
BYLAYER
100
AcDbCircle
 10
2693.9178458640353711
 20
728.0172850940649596
 30
0.0
 40
0.5
  0
CIRCLE
  5
6C
100
AcDbEntity
  8
Contornos Visibles
 62
256
370
-1
 48
1.0
  6
BYLAYER
100
AcDbCircle
 10
2693.9178458640353711
 20
738.0172850940649596
 30
0.0
 40
0.5
  0
LINE
  5
6D
100
AcDbEntity
  8
Contornos Visibles
 62
256
370
-1
 48
1.0
  6
BYLAYER
100
AcDbLine
 10
2696.3178458640350073
 20
705.1172850940649823
 30
0.0
 11
2696.3178458640350073
 21
727.0172850940649596
 31
0.0
  0
LINE
  5
6E
100
AcDbEntity
  8
Contornos Visibles
 62
256
370
-1
 48
1.0
  6
BYLAYER
100
AcDbLine
 10
2696.3178458640350073
 20
739.0172850940649596
 30
0.0
 11
2696.3178458640350073
 21
760.9172850940649369
 31
0.0
  0
LINE
  5
6F
100
AcDbEntity
  8
Contornos Visibles
 62
256
370
-1
 48
1.0
  6
BYLAYER
100
AcDbLine
 10
2695.7178458640350982
 20
739.0172850940649596
 30
0.0
 11
2695.7178458640350982
 21
760.9172850940649369
 31
0.0
  0
LINE
  5
70
100
AcDbEntity
  8
Contornos Visibles
 62
256
370
-1
 48
1.0
  6
BYLAYER
100
AcDbLine
 10
2695.7178458640350982
 20
705.1172850940649823
 30
0.0
 11
2695.7178458640350982
 21
727.0172850940649596
 31
0.0
  0
ARC
  5
71
100
AcDbEntity
  8
Contornos Visibles
 62
256
370
-1
 48
1.0
  6
BYLAYER
100
AcDbCircle
 10
2695.7178458640350982
 20
755.1172850940649823
 30
0.0
 40
5.8000000000001819
100
AcDbArc
 50
90.0
 51
180.0
  0
ARC
  5
72
100
AcDbEntity
  8
Contornos Visibles
 62
256
370
-1
 48
1.0
  6
BYLAYER
100
AcDbCircle
 10
2695.7178458640350982
 20
710.9172850940651642
 30
0.0
 40
5.8000000000001819
100
AcDbArc
 50
180.0
 51
270.0
  0
ARC
  5
73
100
AcDbEntity
  8
Contornos Visibles
 62
256
370
-1
 48
1.0
  6
BYLAYER
100
AcDbCircle
 10
2676.056071546262956
 20
748.4574314542608136
 30
0.0
 40
12.8000000000000007
100
AcDbArc
 50
315.0684562771543824
 51
352.0000000000003411
  0
ARC
  5
74
100
AcDbEntity
  8
Contornos Visibles
 62
256
370
-1
 48
1.0
  6
BYLAYER
100
AcDbCircle
 10
2676.056071546262956
 20
717.577138733869333
 30
0.0
 40
12.8000000000000007
100
AcDbArc
 50
7.9999999999996616
 51
44.9315437228456176
  0
LINE
  5
75
100
AcDbEntity
  8
Contornos Visibles
 62
256
370
-1
 48
1.0
  6
BYLAYER
100
AcDbLine
 10
2689.9178458640349163
 20
755.1172850940652097
 30
0.0
 11
2688.7315028261550651
 21
746.6760157619719394
 31
0.0
  0
LINE
  5
76
100
AcDbEntity
  8
Contornos Visibles
 62
256
370
-1
 48
1.0
  6
BYLAYER
100
AcDbLine
 10
2689.9178458640349163
 20
710.9172850940649369
 30
0.0
 11
2688.7315028261550651
 21
719.3585544261582072
 31
0.0
  0
LINE
  5
77
100
AcDbEntity
  8
Contornos Visibles
 62
256
370
-1
 48
1.0
  6
BYLAYER
100
AcDbLine
 10
2698.317845864035462
 20
739.0172850940649596
 30
0.0
 11
2749.1178458640351892
 21
768.346678768898073
 31
0.0
  0
LINE
  5
78
100
AcDbEntity
  8
Contornos Visibles
 62
256
370
-1
 48
1.0
  6
BYLAYER
100
AcDbLine
 10
2724.4422015170175655
 20
746.0172850940650733
 30
0.0
 11
2742.1178458640351892
 21
756.2223231159157422
 31
0.0
  0
LINE
  5
79
100
AcDbEntity
  8
Contornos Visibles
 62
256
370
-1
 48
1.0
  6
BYLAYER
100
AcDbLine
 10
2749.1178458640351892
 20
739.017285094065187
 30
0.0
 11
2749.1178458640351892
 21
768.346678768898073
 31
0.0
  0
LINE
  5
7A
100
AcDbEntity
  8
Contornos Visibles
 62
256
370
-1
 48
1.0
  6
BYLAYER
100
AcDbLine
 10
2724.4422015170175655
 20
746.0172850940650733
 30
0.0
 11
2742.1178458640351892
 21
746.0172850940649596
 31
0.0
  0
LINE
  5
7B
100
AcDbEntity
  8
Contornos Visibles
 62
256
370
-1
 48
1.0
  6
BYLAYER
100
AcDbLine
 10
2742.1178458640351892
 20
746.0172850940650733
 30
0.0
 11
2742.1178458640351892
 21
756.2223231159156285
 31
0.0
  0
LINE
  5
7C
100
AcDbEntity
  8
Referencias
 62
256
370
-1
 48
1.0
  6
BYLAYER
100
AcDbLine
 10
2698.317845864035462
 20
739.017285094065187
 30
0.0
 11
2701.7819474791731409
 21
741.017285094065187
 31
0.0
  0
LINE
  5
7D
100
AcDbEntity
  8
Contornos Visibles
 62
256
370
-1
 48
1.0
  6
BYLAYER
100
AcDbLine
 10
2701.7819474791731409
 20
741.017285094065187
 30
0.0
 11
2709.6885734708312157
 21
770.3706752758913581
 31
0.0
  0
LINE
  5
7E
100
AcDbEntity
  8
Contornos Visibles
 62
256
370
-1
 48
1.0
  6
BYLAYER
100
AcDbLine
 10
2738.6300795069228116
 20
762.291564039421246
 30
0.0
 11
2709.6885734708312157
 21
770.3706752758913581
 31
0.0
  0
LINE
  5
7F
100
AcDbEntity
  8
Contornos Visibles
 62
256
370
-1
 48
1.0
  6
BYLAYER
100
AcDbLine
 10
2711.9878151574735057
 20
754.2997289910724703
 30
0.0
 11
2722.2439553407480162
 21
760.2211142867326998
 31
0.0
  0
LINE
  5
80
100
AcDbEntity
  8
Referencias
 62
256
370
-1
 48
1.0
  6
BYLAYER
100
AcDbLine
 10
2715.8531524739269116
 20
768.6498139140152261
 30
0.0
 11
2715.8683139697427578
 21
768.7061010462118702
 31
0.0
  0
LINE
  5
81
100
AcDbEntity
  8
Contornos Visibles
 62
256
370
-1
 48
1.0
  6
BYLAYER
100
AcDbLine
 10
2711.9878151574730509
 20
754.2997289910724703
 30
0.0
 11
2714.1885091977055708
 21
762.4698170794580392
 31
0.0
  0
LINE
  5
82
100
AcDbEntity
  8
Contornos Visibles
 62
256
370
-1
 48
1.0
  6
BYLAYER
100
AcDbLine
 10
2722.2439553407484709
 20
760.2211142867325862
 30
0.0
 11
2714.1885091977055708
 21
762.4698170794579255
 31
0.0
  0
LINE
  5
83
100
AcDbEntity
  8
Referencias
 62
256
370
-1
 48
1.0
  6
BYLAYER
100
AcDbLine
 10
2708.0239301946098749
 20
764.1906784413341711
 30
0.0
 11
2707.9677834873264146
 21
764.2063519689363602
 31
0.0
  0
LINE
  5
84
100
AcDbEntity
  8
Ejes de revoluci\U+00f3n
 62
256
370
-1
 48
1.0
  6
BYLAYER
100
AcDbLine
 10
2799.1178458640351892
 20
730.8172850940653689
 30
0.0
 11
2799.1178458640351892
 21
735.2172850940650051
 31
0.0
  0
DIMENSION
  5
85
100
AcDbEntity
  8
Cotas
 62
256
370
-1
 48
1.0
  6
BYLAYER
100
AcDbDimension
 10
2799.1178458640351892
 20
751.5427000460776981
 30
0.0
 11
2802.1178458640351892
 21
753.4177000460776981
 31
0.0
 70
0
 71
8
 72
2
 74
0
 75
0
 41
1.0
 42
0.0
  1

  3
Standard
100
AcDbAlignedDimension
 13
2799.1178458640351892
 23
735.2172850940650051
 33
0.0
 14
2805.1178458640351892
 24
739.017285094065187
 34
0.0
 50
0.0
100
AcDbRotatedDimension
1001
ACAD
1000
DSTYLE
1002
{
1070
144
1040
1.0
1070
40
1040
1.0
1002
}
  0
DIMENSION
  5
86
100
AcDbEntity
  8
Cotas
 62
256
370
-1
 48
1.0
  6
BYLAYER
100
AcDbDimension
 10
2800.2827654158982114
 20
732.7292530859702993
 30
0.0
 11
2804.5754324368731432
 21
733.5993341969318635
 31
0.0
 70
3
 71
8
 72
2
 74
0
 75
0
 41
1.0
 42
0.0
  1
\U+00f8<>
  3
Standard
100
AcDbDiametricDimension
 15
2797.9529263121721669
 25
733.3053171021600747
 35
0.0
 40
0.0
1001
ACAD
1000
DSTYLE
1002
{
1070
144
1040
1.0
1070
40
1040
1.0
1002
}
  0
DIMENSION
  5
87
100
AcDbEntity
  8
Cotas
 62
256
370
-1
 48
1.0
  6
BYLAYER
100
AcDbDimension
 10
2745.1178458640351892
 20
728.0172850940650733
 30
0.0
 11
2743.2428458640351892
 21
730.1978406496206162
 31
0.0
 70
0
 71
8
 72
2
 74
0
 75
0
 41
1.0
 42
0.0
  1

  3
Standard
100
AcDbAlignedDimension
 13
2745.1178458640351892
 23
727.0172850940650733
 33
0.0
 14
2745.1178458640351892
 24
729.0172850940650733
 34
0.0
 50
90.0
100
AcDbRotatedDimension
1001
ACAD
1000
DSTYLE
1002
{
1070
144
1040
1.0
1070
40
1040
1.0
1002
}
  0
LINE
  5
88
100
AcDbEntity
  8
Ejes de revoluci\U+00f3n
 62
256
370
-1
 48
1.0
  6
BYLAYER
100
AcDbLine
 10
2686.9178458640353711
 20
738.0172850940649596
 30
0.0
 11
2688.1178458640351892
 21
738.0172850940649596
 31
0.0
  0
LINE
  5
89
100
AcDbEntity
  8
Ejes de revoluci\U+00f3n
 62
256
370
-1
 48
1.0
  6
BYLAYER
100
AcDbLine
 10
2687.5178458640352801
 20
737.4172850940649369
 30
0.0
 11
2687.5178458640352801
 21
738.6172850940649823
 31
0.0
  0
LINE
  5
8A
100
AcDbEntity
  8
Ejes de revoluci\U+00f3n
 62
256
370
-1
 48
1.0
  6
BYLAYER
100
AcDbLine
 10
2693.317845864035462
 20
738.0172850940649596
 30
0.0
 11
2694.5178458640352801
 21
738.0172850940649596
 31
0.0
  0
LINE
  5
8B
100
AcDbEntity
  8
Ejes de revoluci\U+00f3n
 62
256
370
-1
 48
1.0
  6
BYLAYER
100
AcDbLine
 10
2693.9178458640353711
 20
737.4172850940649369
 30
0.0
 11
2693.9178458640353711
 21
738.6172850940649823
 31
0.0
  0
LINE
  5
8C
100
AcDbEntity
  8
Ejes de revoluci\U+00f3n
 62
256
370
-1
 48
1.0
  6
BYLAYER
100
AcDbLine
 10
2686.9178458640353711
 20
728.0172850940649596
 30
0.0
 11
2688.1178458640351892
 21
728.0172850940649596
 31
0.0
  0
LINE
  5
8D
100
AcDbEntity
  8
Ejes de revoluci\U+00f3n
 62
256
370
-1
 48
1.0
  6
BYLAYER
100
AcDbLine
 10
2687.5178458640352801
 20
727.4172850940649369
 30
0.0
 11
2687.5178458640352801
 21
728.6172850940649823
 31
0.0
  0
LINE
  5
8E
100
AcDbEntity
  8
Ejes de revoluci\U+00f3n
 62
256
370
-1
 48
1.0
  6
BYLAYER
100
AcDbLine
 10
2693.317845864035462
 20
728.0172850940649596
 30
0.0
 11
2694.5178458640352801
 21
728.0172850940649596
 31
0.0
  0
LINE
  5
8F
100
AcDbEntity
  8
Ejes de revoluci\U+00f3n
 62
256
370
-1
 48
1.0
  6
BYLAYER
100
AcDbLine
 10
2693.9178458640353711
 20
727.4172850940649369
 30
0.0
 11
2693.9178458640353711
 21
728.6172850940649823
 31
0.0
  0
LINE
  5
90
100
AcDbEntity
  8
Contornos Visibles
 62
256
370
-1
 48
1.0
  6
BYLAYER
100
AcDbLine
 10
2695.7178458640350982
 20
760.9172850940651642
 30
0.0
 11
2696.3178458640350073
 21
760.9172850940649369
 31
0.0
  0
LINE
  5
91
100
AcDbEntity
  8
Contornos Visibles
 62
256
370
-1
 48
1.0
  6
BYLAYER
100
AcDbLine
 10
2695.7178458640350982
 20
705.1172850940649823
 30
0.0
 11
2696.3178458640350073
 21
705.1172850940649823
 31
0.0
  0
DIMENSION
  5
92
100
AcDbEntity
  8
Cotas
 62
256
370
-1
 48
1.0
  6
BYLAYER
100
AcDbDimension
 10
2733.2800236905263773
 20
742.5172850940650733
 30
0.0
 11
2731.4050236905263773
 21
742.5172850940650733
 31
0.0
 70
0
 71
8
 72
2
 74
0
 75
0
 41
1.0
 42
0.0
  1

  3
Standard
100
AcDbAlignedDimension
 13
2733.2800236905263773
 23
746.0172850940650733
 33
0.0
 14
2733.2800236905263773
 24
739.0172850940650733
 34
0.0
 50
90.0
100
AcDbRotatedDimension
1001
ACAD
1000
DSTYLE
1002
{
1070
144
1040
1.0
1070
40
1040
1.0
1002
}
  0
DIMENSION
  5
93
100
AcDbEntity
  8
Cotas
 62
256
370
-1
 48
1.0
  6
BYLAYER
100
AcDbDimension
 10
2745.6178458640351892
 20
751.1198041049904077
 30
0.0
 11
2745.6178458640351892
 21
752.9948041049904077
 31
0.0
 70
0
 71
8
 72
2
 74
0
 75
0
 41
1.0
 42
0.0
  1

  3
Standard
100
AcDbAlignedDimension
 13
2742.1178458640351892
 23
751.1198041049904077
 33
0.0
 14
2749.1178458640351892
 24
751.1198041049904077
 34
0.0
 50
0.0
100
AcDbRotatedDimension
1001
ACAD
1000
DSTYLE
1002
{
1070
144
1040
1.0
1070
40
1040
1.0
1002
}
  0
DIMENSION
  5
94
100
AcDbEntity
  8
Cotas
 62
256
370
-1
 48
1.0
  6
BYLAYER
100
AcDbDimension
 10
2761.852691809652697
 20
767.6162417350338956
 30
0.0
 11
2761.7264894417485266
 21
771.5848306482794214
 31
0.0
 70
1
 71
8
 72
2
 74
0
 75
0
 41
1.0
 42
0.0
  1

  3
Standard
100
AcDbAlignedDimension
 13
2733.2800236905263773
 23
751.1198041049904077
 33
0.0
 14
2729.7800236905263773
 24
757.1819819314814595
 34
0.0
1001
ACAD
1000
DSTYLE
1002
{
1070
144
1040
1.0
1070
40
1040
1.0
1002
}
  0
DIMENSION
  5
95
100
AcDbEntity
  8
Cotas
 62
256
370
-1
 48
1.0
  6
BYLAYER
100
AcDbDimension
 10
2714.8840129717959826
 20
739.0172850940650733
 30
0.0
 11
2713.7470688077178238
 21
743.1515329216647388
 31
0.0
 70
2
 71
8
 72
2
 74
0
 75
0
 41
1.0
 42
0.0
  1

  3
Standard
100
AcDb2LineAngularDimension
 13
2714.9629534624186817
 23
748.627342446682178
 33
0.0
 14
2698.317845864035462
 24
739.0172850940649596
 34
0.0
 15
2685.1178458640351892
 25
739.0172850940650733
 35
0.0
 16
2712.0827037134267812
 26
742.0663157429037255
 36
0.0
  0
DIMENSION
  5
96
100
AcDbEntity
  8
Cotas
 62
256
370
-1
 48
1.0
  6
BYLAYER
100
AcDbDimension
 10
2717.1158852491107609
 20
757.2604216389025851
 30
0.0
 11
2720.3396828812064996
 21
755.4266403467925102
 31
0.0
 70
1
 71
8
 72
2
 74
0
 75
0
 41
1.0
 42
0.0
  1

  3
Standard
100
AcDbAlignedDimension
 13
2717.1158852491107609
 23
757.2604216389025851
 33
0.0
 14
2720.315885249110579
 24
751.7178590546823216
 34
0.0
1001
ACAD
1000
DSTYLE
1002
{
1070
144
1040
1.0
1070
40
1040
1.0
1002
}
  0
DIMENSION
  5
97
100
AcDbEntity
  8
Cotas
 62
256
370
-1
 48
1.0
  6
BYLAYER
100
AcDbDimension
 10
2718.2162322692270209
 20
761.345465683095199
 30
0.0
 11
2717.2706731671451053
 21
764.9317650270526201
 31
0.0
 70
1
 71
8
 72
2
 74
0
 75
0
 41
1.0
 42
0.0
  1

  3
Standard
100
AcDbAlignedDimension
 13
2718.2162322692270209
 23
761.345465683095199
 33
0.0
 14
2719.9370222527318219
 24
767.5097889900501968
 34
0.0
1001
ACAD
1000
DSTYLE
1002
{
1070
144
1040
1.0
1070
40
1040
1.0
1002
}
  0
DIMENSION
  5
98
100
AcDbEntity
  8
Cotas
 62
256
370
-1
 48
1.0
  6
BYLAYER
100
AcDbDimension
 10
2713.0881621775893109
 20
758.3847730352651979
 30
0.0
 11
2710.4859601594853302
 21
761.0275309993954806
 31
0.0
 70
1
 71
8
 72
2
 74
0
 75
0
 41
1.0
 42
0.0
  1

  3
Standard
100
AcDbAlignedDimension
 13
2713.0881621775893109
 23
758.3847730352651979
 33
0.0
 14
2706.9084216786777688
 24
760.0493472649446858
 34
0.0
1001
ACAD
1000
DSTYLE
1002
{
1070
144
1040
1.0
1070
40
1040
1.0
1002
}
  0
DIMENSION
  5
99
100
AcDbEntity
  8
Cotas
 62
256
370
-1
 48
1.0
  6
BYLAYER
100
AcDbDimension
 10
2697.4403357341084302
 20
740.5371772232551848
 30
0.0
 11
2698.2348865416770423
 21
743.1609748553509007
 31
0.0
 70
1
 71
8
 72
2
 74
0
 75
0
 41
1.0
 42
0.0
  1

  3
Standard
100
AcDbAlignedDimension
 13
2698.317845864035462
 23
739.0172850940650733
 33
0.0
 14
2701.7819474791726861
 24
741.0172850940648459
 34
0.0
1001
ACAD
1000
DSTYLE
1002
{
1070
144
1040
1.0
1070
40
1040
1.0
1002
}
  0
DIMENSION
  5
9A
100
AcDbEntity
  8
Cotas
 62
256
370
-1
 48
1.0
  6
BYLAYER
100
AcDbDimension
 10
2710.3666367836640347
 20
772.7996767943536724
 30
0.0
 11
2725.3415274921899254
 21
770.5660752699529894
 31
0.0
 70
1
 71
8
 72
2
 74
0
 75
0
 41
1.0
 42
0.0
  1
30.4
  3
Standard
100
AcDbAlignedDimension
 13
2709.6885734708307609
 23
770.3706752758914718
 33
0.0
 14
2738.6300795069228116
 24
762.291564039421246
 34
0.0
1001
ACAD
1000
DSTYLE
1002
{
1070
144
1040
1.0
1070
40
1040
1.0
1002
}
  0
DIMENSION
  5
9B
100
AcDbEntity
  8
Cotas
 62
256
370
-1
 48
1.0
  6
BYLAYER
100
AcDbDimension
 10
2696.3178458640350073
 20
770.6700332302760899
 30
0.0
 11
2699.4984014195906639
 21
772.5450332302760899
 31
0.0
 70
0
 71
8
 72
2
 74
0
 75
0
 41
1.0
 42
0.0
  1

  3
Standard
100
AcDbAlignedDimension
 13
2696.3178458640350073
 23
739.0172850940649596
 33
0.0
 14
2698.317845864035462
 24
739.0172850940650733
 34
0.0
 50
0.0
100
AcDbRotatedDimension
1001
ACAD
1000
DSTYLE
1002
{
1070
144
1040
1.0
1070
40
1040
1.0
1002
}
  0
DIMENSION
  5
9C
100
AcDbEntity
  8
Cotas
 62
256
370
-1
 48
1.0
  6
BYLAYER
100
AcDbDimension
 10
2695.7178458640350982
 20
755.1172850940649823
 30
0.0
 11
2687.1901251925769429
 21
764.5879575102026138
 31
0.0
 70
4
 71
8
 72
2
 74
0
 41
1.0
 42
0.0
  1
R<>
  3
Standard
100
AcDbRadialDimension
 15
2691.244913944752625
 25
758.8095581128793583
 35
0.0
 40
0.0
1001
ACAD
1000
DSTYLE
1002
{
1070
144
1040
1.0
1070
40
1040
1.0
1002
}
  0
DIMENSION
  5
9D
100
AcDbEntity
  8
Cotas
 62
256
370
-1
 48
1.0
  6
BYLAYER
100
AcDbDimension
 10
2676.056071546262956
 20
748.4574314542608136
 30
0.0
 11
2682.4442326394696465
 21
746.5424842363871676
 31
0.0
 70
4
 71
8
 72
2
 74
0
 41
1.0
 42
0.0
  1
R<>
  3
Standard
100
AcDbRadialDimension
 15
2686.7891286652243252
 25
741.483086690692744
 35
0.0
 40
0.0
1001
ACAD
1000
DSTYLE
1002
{
1070
144
1040
1.0
1070
40
1040
1.0
1002
}
  0
DIMENSION
  5
9E
100
AcDbEntity
  8
Cotas
 62
256
370
-1
 48
1.0
  6
BYLAYER
100
AcDbDimension
 10
2695.7178458640350982
 20
749.9672850940648914
 30
0.0
 11
2692.6442477562027307
 21
752.4319287365250375
 31
0.0
 70
2
 71
8
 72
2
 74
0
 75
0
 41
1.0
 42
0.0
  1

  3
Standard
100
AcDb2LineAngularDimension
 13
2688.7315028261550651
 23
746.6760157619719394
 33
0.0
 14
2689.9178458640349163
 24
755.1172850940652097
 34
0.0
 15
2695.7178458640350982
 25
760.9172850940649369
 35
0.0
 16
2689.3246743450949907
 26
750.8966504280185745
 36
0.0
  0
DIMENSION
  5
9F
100
AcDbEntity
  8
Cotas
 62
256
370
-1
 48
1.0
  6
BYLAYER
100
AcDbDimension
 10
2698.5168478806558596
 20
738.0172850940649596
 30
0.0
 11
2696.6418478806558596
 21
733.0172850940649596
 31
0.0
 70
0
 71
8
 72
2
 74
0
 75
0
 41
1.0
 42
0.0
  1

  3
Standard
100
AcDbAlignedDimension
 13
2694.4178458640353711
 23
738.0172850940649596
 33
0.0
 14
2694.5178458640352801
 24
728.0172850940649596
 34
0.0
 50
90.0
100
AcDbRotatedDimension
1001
ACAD
1000
DSTYLE
1002
{
1070
144
1040
1.0
1070
40
1040
1.0
1002
}
  0
DIMENSION
  5
A0
100
AcDbEntity
  8
Cotas
 62
256
370
-1
 48
1.0
  6
BYLAYER
100
AcDbDimension
 10
2682.1304025726408327
 20
739.0172850940650733
 30
0.0
 11
2680.2554025726408327
 21
733.0172850940650733
 31
0.0
 70
0
 71
8
 72
2
 74
0
 75
0
 41
1.0
 42
0.0
  1

  3
Standard
100
AcDbAlignedDimension
 13
2685.1178458640351892
 23
739.0172850940650733
 33
0.0
 14
2685.1178458640351892
 24
727.0172850940649596
 34
0.0
 50
90.0
100
AcDbRotatedDimension
1001
ACAD
1000
DSTYLE
1002
{
1070
144
1040
1.0
1070
40
1040
1.0
1002
}
  0
DIMENSION
  5
A1
100
AcDbEntity
  8
Cotas
 62
256
370
-1
 48
1.0
  6
BYLAYER
100
AcDbDimension
 10
2675.8977455015610758
 20
739.4172850940649369
 30
0.0
 11
2674.0227455015610758
 21
733.0172850940650733
 31
0.0
 70
0
 71
8
 72
2
 74
0
 75
0
 41
1.0
 42
0.0
  1

  3
Standard
100
AcDbAlignedDimension
 13
2685.1178458640351892
 23
739.4172850940649369
 33
0.0
 14
2685.1178458640351892
 24
726.6172850940652097
 34
0.0
 50
90.0
100
AcDbRotatedDimension
1001
ACAD
1000
DSTYLE
1002
{
1070
144
1040
1.0
1070
40
1040
1.0
1002
}
  0
DIMENSION
  5
A2
100
AcDbEntity
  8
Cotas
 62
256
370
-1
 48
1.0
  6
BYLAYER
100
AcDbDimension
 10
2658.7258345975110387
 20
705.1172850940649823
 30
0.0
 11
2656.8508345975110387
 21
733.0172850940649596
 31
0.0
 70
0
 71
8
 72
2
 74
0
 75
0
 41
1.0
 42
0.0
  1

  3
Standard
100
AcDbAlignedDimension
 13
2696.3178458640350073
 23
705.1172850940649823
 33
0.0
 14
2696.3178458640350073
 24
760.9172850940649369
 34
0.0
 50
90.0
100
AcDbRotatedDimension
1001
ACAD
1000
DSTYLE
1002
{
1070
144
1040
1.0
1070
40
1040
1.0
1002
}
  0
DIMENSION
  5
A3
100
AcDbEntity
  8
Cotas
 62
256
370
-1
 48
1.0
  6
BYLAYER
100
AcDbDimension
 10
2687.5178458640352801
 20
696.8098618710109804
 30
0.0
 11
2690.7178458640355529
 21
698.6848618710109804
 31
0.0
 70
0
 71
8
 72
2
 74
0
 75
0
 41
1.0
 42
0.0
  1

  3
Standard
100
AcDbAlignedDimension
 13
2687.5178458640352801
 23
727.5172850940649596
 33
0.0
 14
2693.9178458640353711
 24
727.5172850940649596
 34
0.0
 50
0.0
100
AcDbRotatedDimension
1001
ACAD
1000
DSTYLE
1002
{
1070
144
1040
1.0
1070
40
1040
1.0
1002
}
  0
DIMENSION
  5
A4
100
AcDbEntity
  8
Cotas
 62
256
370
-1
 48
1.0
  6
BYLAYER
100
AcDbDimension
 10
2685.1178458640351892
 20
701.5077499582250766
 30
0.0
 11
2690.2261791973683103
 21
703.3827499582250766
 31
0.0
 70
0
 71
8
 72
2
 74
0
 75
0
 41
1.0
 42
0.0
  1

  3
Standard
100
AcDbAlignedDimension
 13
2685.1178458640351892
 23
727.0172850940649596
 33
0.0
 14
2687.5178458640352801
 24
727.5172850940649596
 34
0.0
 50
0.0
100
AcDbRotatedDimension
1001
ACAD
1000
DSTYLE
1002
{
1070
144
1040
1.0
1070
40
1040
1.0
1002
}
  0
DIMENSION
  5
A5
100
AcDbEntity
  8
Cotas
 62
256
370
-1
 48
1.0
  6
BYLAYER
100
AcDbDimension
 10
2685.1178458640351892
 20
690.4211553155881802
 30
0.0
 11
2690.7178458640350982
 21
692.2961553155881802
 31
0.0
 70
0
 71
8
 72
2
 74
0
 75
0
 41
1.0
 42
0.0
  1

  3
Standard
100
AcDbAlignedDimension
 13
2685.1178458640351892
 23
727.0172850940649596
 33
0.0
 14
2696.3178458640350073
 24
727.0172850940650733
 34
0.0
 50
0.0
100
AcDbRotatedDimension
1001
ACAD
1000
DSTYLE
1002
{
1070
144
1040
1.0
1070
40
1040
1.0
1002
}
  0
DIMENSION
  5
A6
100
AcDbEntity
  8
Cotas
 62
256
370
-1
 48
1.0
  6
BYLAYER
100
AcDbDimension
 10
2685.1178458640351892
 20
677.0179851348678994
 30
0.0
 11
2745.1178458640351892
 21
678.8929851348678994
 31
0.0
 70
0
 71
8
 72
2
 74
0
 75
0
 41
1.0
 42
0.0
  1

  3
Standard
100
AcDbAlignedDimension
 13
2685.1178458640351892
 23
727.0172850940649596
 33
0.0
 14
2805.1178458640351892
 24
727.0172850940650733
 34
0.0
 50
0.0
100
AcDbRotatedDimension
1001
ACAD
1000
DSTYLE
1002
{
1070
144
1040
1.0
1070
40
1040
1.0
1002
}
  0
DIMENSION
  5
A7
100
AcDbEntity
  8
Cotas
 62
256
370
-1
 48
1.0
  6
BYLAYER
100
AcDbDimension
 10
2695.7178458640350982
 20
716.0783200656875351
 30
0.0
 11
2698.887270354553948
 21
717.9533200656875351
 31
0.0
 70
0
 71
8
 72
2
 74
0
 75
0
 41
1.0
 42
0.0
  1

  3
Standard
100
AcDbAlignedDimension
 13
2695.7178458640350982
 23
716.0672850940650278
 33
0.0
 14
2696.3178458640350073
 24
716.0672850940650278
 34
0.0
 50
0.0
100
AcDbRotatedDimension
1001
ACAD
1000
DSTYLE
1002
{
1070
144
1040
1.0
1070
40
1040
1.0
1002
}
  0
DIMENSION
  5
A8
100
AcDbEntity
  8
Cotas
 62
256
370
-1
 48
1.0
  6
BYLAYER
100
AcDbDimension
 10
2694.2388035122644396
 20
727.6338973164256458
 30
0.0
 11
2698.3957323870690743
 21
725.5893418221511411
 31
0.0
 70
3
 71
8
 72
2
 74
0
 75
0
 41
1.0
 42
0.0
  1
4-\U+00f8<>
  3
Standard
100
AcDbDiametricDimension
 15
2693.5968882158063025
 25
728.4006728717042733
 35
0.0
 40
0.0
1001
ACAD
1000
DSTYLE
1002
{
1070
144
1040
1.0
1070
40
1040
1.0
1002
}
  0
ENDSEC
  0
SECTION
  2
OBJECTS
  0
DICTIONARY
  5
C
100
AcDbDictionary
280
0
281
1
  3
ACAD_GROUP
350
D
  3
ACAD_LAYOUT
350
1A
  3
ACAD_MLINESTYLE
350
17
  3
ACAD_PLOTSETTINGS
350
19
  3
ACAD_PLOTSTYLENAME
350
E
  3
AcDbVariableDictionary
350
A9
  3
QCAD_OBJECTS
350
AA
  0
DICTIONARY
  5
D
100
AcDbDictionary
280
0
281
1
  0
ACDBDICTIONARYWDFLT
  5
E
100
AcDbDictionary
281
1
  3
Normal
350
F
100
AcDbDictionaryWithDefault
340
F
  0
ACDBPLACEHOLDER
  5
F
  0
DICTIONARY
  5
17
100
AcDbDictionary
280
0
281
1
  3
Standard
350
18
  0
MLINESTYLE
  5
18
100
AcDbMlineStyle
  2
STANDARD
 70
0
  3

 62
256
 51
90.0
 52
90.0
 71
2
 49
0.5
 62
256
  6
BYLAYER
 49
-0.5
 62
256
  6
BYLAYER
  0
DICTIONARY
  5
19
100
AcDbDictionary
280
0
281
1
  0
DICTIONARY
  5
1A
100
AcDbDictionary
281
1
  3
Layout1
350
1E
  3
Layout2
350
26
  3
Model
350
22
  0
LAYOUT
  5
1E
100
AcDbPlotSettings
  1

  2
none_device
  4

  6

 40
0.0
 41
0.0
 42
0.0
 43
0.0
 44
0.0
 45
0.0
 46
0.0
 47
0.0
 48
0.0
 49
0.0
140
0.0
141
0.0
142
1.0
143
1.0
 70
688
 72
0
 73
0
 74
5
  7

 75
16
147
1.0
148
0.0
149
0.0
100
AcDbLayout
  1
Layout1
 70
1
 71
1
 10
0.0
 20
0.0
 11
420.0
 21
297.0
 12
0.0
 22
0.0
 32
0.0
 14
100000000000000000000.0
 24
100000000000000000000.0
 34
100000000000000000000.0
 15
-100000000000000000000.0
 25
-100000000000000000000.0
 35
-100000000000000000000.0
146
0.0
 13
0.0
 23
0.0
 33
0.0
 16
1.0
 26
0.0
 36
0.0
 17
0.0
 27
1.0
 37
0.0
 76
0
330
1B
  0
LAYOUT
  5
22
100
AcDbPlotSettings
  1

  2
none_device
  4

  6

 40
0.0
 41
0.0
 42
0.0
 43
0.0
 44
0.0
 45
0.0
 46
0.0
 47
0.0
 48
0.0
 49
0.0
140
0.0
141
0.0
142
1.0
143
1.0
 70
1712
 72
0
 73
0
 74
0
  7

 75
0
147
1.0
148
0.0
149
0.0
100
AcDbLayout
  1
Model
 70
1
 71
0
 10
0.0
 20
0.0
 11
12.0
 21
9.0
 12
0.0
 22
0.0
 32
0.0
 14
0.0
 24
0.0
 34
0.0
 15
0.0
 25
0.0
 35
0.0
146
0.0
 13
0.0
 23
0.0
 33
0.0
 16
1.0
 26
0.0
 36
0.0
 17
0.0
 27
1.0
 37
0.0
 76
0
330
1F
  0
LAYOUT
  5
26
100
AcDbPlotSettings
  1

  2
none_device
  4

  6

 40
0.0
 41
0.0
 42
0.0
 43
0.0
 44
0.0
 45
0.0
 46
0.0
 47
0.0
 48
0.0
 49
0.0
140
0.0
141
0.0
142
1.0
143
1.0
 70
688
 72
0
 73
0
 74
5
  7

 75
16
147
1.0
148
0.0
149
0.0
100
AcDbLayout
  1
Layout2
 70
1
 71
2
 10
0.0
 20
0.0
 11
12.0
 21
9.0
 12
0.0
 22
0.0
 32
0.0
 14
0.0
 24
0.0
 34
0.0
 15
0.0
 25
0.0
 35
0.0
146
0.0
 13
0.0
 23
0.0
 33
0.0
 16
1.0
 26
0.0
 36
0.0
 17
0.0
 27
1.0
 37
0.0
 76
0
330
23
  0
DICTIONARY
  5
A9
100
AcDbDictionary
281
1
  3
DIMASSOC
350
AC
  3
HIDETEXT
350
AB
  0
DICTIONARYVAR
  5
AB
100
DictionaryVariables
280
0
  1
2
  0
DICTIONARYVAR
  5
AC
100
DictionaryVariables
280
0
  1
1
  0
DICTIONARY
  5
AA
100
AcDbDictionary
281
1
  3
ColorSettings/BackgroundColor
350
AD
  3
ColorSettings/ColorMode
350
AE
  3
Grid/DisplayGrid00
350
AF
  3
Grid/DisplayGrid01
350
B0
  3
Grid/DisplayGrid02
350
B1
  3
Grid/DisplayGrid03
350
B2
  3
Grid/GridSpacingX00
350
B3
  3
Grid/GridSpacingX01
350
B4
  3
Grid/GridSpacingX02
350
B5
  3
Grid/GridSpacingX03
350
B6
  3
Grid/GridSpacingY00
350
B7
  3
Grid/GridSpacingY01
350
B8
  3
Grid/GridSpacingY02
350
B9
  3
Grid/GridSpacingY03
350
BA
  3
Grid/IsometricGrid00
350
BB
  3
Grid/IsometricGrid01
350
BC
  3
Grid/IsometricGrid02
350
BD
  3
Grid/IsometricGrid03
350
BE
  3
Grid/IsometricProjection00
350
BF
  3
Grid/IsometricProjection01
350
C0
  3
Grid/IsometricProjection02
350
C1
  3
Grid/IsometricProjection03
350
C2
  3
Grid/MetaGridSpacingX00
350
C3
  3
Grid/MetaGridSpacingX01
350
C4
  3
Grid/MetaGridSpacingX02
350
C5
  3
Grid/MetaGridSpacingX03
350
C6
  3
Grid/MetaGridSpacingY00
350
C7
  3
Grid/MetaGridSpacingY01
350
C8
  3
Grid/MetaGridSpacingY02
350
C9
  3
Grid/MetaGridSpacingY03
350
CA
  3
MultiPageSettings/Columns
350
CB
  3
MultiPageSettings/GlueMarginsBottom
350
CC
  3
MultiPageSettings/GlueMarginsLeft
350
CD
  3
MultiPageSettings/GlueMarginsRight
350
CE
  3
MultiPageSettings/GlueMarginsTop
350
CF
  3
MultiPageSettings/PrintCropMarks
350
D0
  3
MultiPageSettings/Rows
350
D1
  3
PageSettings/OffsetX
350
D2
  3
PageSettings/OffsetY
350
D3
  3
PageSettings/PageOrientation
350
D4
  3
PageSettings/PaperHeight
350
D5
  3
PageSettings/PaperWidth
350
D6
  3
PageSettings/Scale
350
D7
  3
PageSettings/ShowPaperBorders
350
D8
  3
PageTagSettings/EnablePageTags
350
D9
  3
PageTagSettings/TagAlignment
350
DA
  3
PageTagSettings/TagFont
350
DB
  3
PageTagSettings/TagPosition
350
DC
  3
QCADVersion
350
DD
  3
UnitSettings/PaperUnit
350
DE
  3
ViewportCenter
350
DF
  3
ViewportHeight
350
E0
  3
ViewportWidth
350
E1
  0
XRECORD
  5
AD
330
AA
100
AcDbXrecord
280
1
1000
Blanca
  0
XRECORD
  5
AE
330
AA
100
AcDbXrecord
280
1
1000
FullColor
  0
XRECORD
  5
AF
330
AA
100
AcDbXrecord
280
1
290
0
  0
XRECORD
  5
B0
330
AA
100
AcDbXrecord
280
1
290
1
  0
XRECORD
  5
B1
330
AA
100
AcDbXrecord
280
1
290
1
  0
XRECORD
  5
B2
330
AA
100
AcDbXrecord
280
1
290
1
  0
XRECORD
  5
B3
330
AA
100
AcDbXrecord
280
1
1000
auto
  0
XRECORD
  5
B4
330
AA
100
AcDbXrecord
280
1
1000
auto
  0
XRECORD
  5
B5
330
AA
100
AcDbXrecord
280
1
1000
auto
  0
XRECORD
  5
B6
330
AA
100
AcDbXrecord
280
1
1000
auto
  0
XRECORD
  5
B7
330
AA
100
AcDbXrecord
280
1
1000
auto
  0
XRECORD
  5
B8
330
AA
100
AcDbXrecord
280
1
1000
auto
  0
XRECORD
  5
B9
330
AA
100
AcDbXrecord
280
1
1000
auto
  0
XRECORD
  5
BA
330
AA
100
AcDbXrecord
280
1
1000
auto
  0
XRECORD
  5
BB
330
AA
100
AcDbXrecord
280
1
290
0
  0
XRECORD
  5
BC
330
AA
100
AcDbXrecord
280
1
290
0
  0
XRECORD
  5
BD
330
AA
100
AcDbXrecord
280
1
290
0
  0
XRECORD
  5
BE
330
AA
100
AcDbXrecord
280
1
290
0
  0
XRECORD
  5
BF
330
AA
100
AcDbXrecord
280
1
 90
65537
  0
XRECORD
  5
C0
330
AA
100
AcDbXrecord
280
1
 90
65537
  0
XRECORD
  5
C1
330
AA
100
AcDbXrecord
280
1
 90
65537
  0
XRECORD
  5
C2
330
AA
100
AcDbXrecord
280
1
 90
65537
  0
XRECORD
  5
C3
330
AA
100
AcDbXrecord
280
1
1000
auto
  0
XRECORD
  5
C4
330
AA
100
AcDbXrecord
280
1
1000
auto
  0
XRECORD
  5
C5
330
AA
100
AcDbXrecord
280
1
1000
auto
  0
XRECORD
  5
C6
330
AA
100
AcDbXrecord
280
1
1000
auto
  0
XRECORD
  5
C7
330
AA
100
AcDbXrecord
280
1
1000
1
  0
XRECORD
  5
C8
330
AA
100
AcDbXrecord
280
1
1000
auto
  0
XRECORD
  5
C9
330
AA
100
AcDbXrecord
280
1
1000
auto
  0
XRECORD
  5
CA
330
AA
100
AcDbXrecord
280
1
1000
auto
  0
XRECORD
  5
CB
330
AA
100
AcDbXrecord
280
1
 90
1
  0
XRECORD
  5
CC
330
AA
100
AcDbXrecord
280
1
 40
10.0
  0
XRECORD
  5
CD
330
AA
100
AcDbXrecord
280
1
 40
10.0
  0
XRECORD
  5
CE
330
AA
100
AcDbXrecord
280
1
 40
10.0
  0
XRECORD
  5
CF
330
AA
100
AcDbXrecord
280
1
 40
10.0
  0
XRECORD
  5
D0
330
AA
100
AcDbXrecord
280
1
290
0
  0
XRECORD
  5
D1
330
AA
100
AcDbXrecord
280
1
 90
1
  0
XRECORD
  5
D2
330
AA
100
AcDbXrecord
280
1
 40
793.1665914866936191
  0
XRECORD
  5
D3
330
AA
100
AcDbXrecord
280
1
 40
306.6308471493692309
  0
XRECORD
  5
D4
330
AA
100
AcDbXrecord
280
1
1000
Portrait
  0
XRECORD
  5
D5
330
AA
100
AcDbXrecord
280
1
 40
279.3999999999999773
  0
XRECORD
  5
D6
330
AA
100
AcDbXrecord
280
1
 40
215.9000000000000057
  0
XRECORD
  5
D7
330
AA
100
AcDbXrecord
280
1
 90
1
  0
XRECORD
  5
D8
330
AA
100
AcDbXrecord
280
1
290
1
  0
XRECORD
  5
D9
330
AA
100
AcDbXrecord
280
1
290
0
  0
XRECORD
  5
DA
330
AA
100
AcDbXrecord
280
1
1000
Inside
  0
XRECORD
  5
DB
330
AA
100
AcDbXrecord
280
1
1000
Arial,10,-1,5,50,0,0,0,0,0
  0
XRECORD
  5
DC
330
AA
100
AcDbXrecord
280
1
1000
TopLeft
  0
XRECORD
  5
DD
330
AA
100
AcDbXrecord
280
1
1000
3.28.2
  0
XRECORD
  5
DE
330
AA
100
AcDbXrecord
280
1
 90
4
  0
XRECORD
  5
E0
330
AA
100
AcDbXrecord
280
1
 40
91.186064146313015
  0
XRECORD
  5
E1
330
AA
100
AcDbXrecord
280
1
 40
188.1515267244344614
  0
IMAGEDEF
  5
60
100
AcDbRasterImageDef
 90
0
  1
C:/Users/iamth/Documents/OneDrive/Estudio Aut\U+00f3nomo/CAD/QCad/1. StudyCadCam/2D CAD EXERCISES 70.png
 10
200.0
 20
141.0
 11
1.0
 21
1.0
280
1
281
0
  0
ENDSEC
  0
EOF
