999
dxflib 3.26.4.0
  0
SECTION
  2
HEADER
  9
$ACADVER
  1
AC1015
  9
$HANDSEED
  5
FFFF
  9
$DIMADEC
 70
0
  9
$DIMASZ
 40
2.5
  9
$DIMATFIT
 70
0
  9
$DIMAUNIT
 70
0
  9
$DIMAZIN
 70
2
  9
$DIMBLK
  1
0
  9
$DIMBLK1
  1
0
  9
$DIMBLK2
  1
0
  9
$DIMDEC
 70
4
  9
$DIMDLI
 40
5.0
  9
$DIMDSEP
 70
46
  9
$DIMEXE
 40
1.25
  9
$DIMEXO
 40
0.625
  9
$DIMGAP
 40
0.625
  9
$DIMLFAC
 40
1.0
  9
$DIMLUNIT
 70
2
  9
$DIMSCALE
 40
1.0
  9
$DIMTAD
 70
1
  9
$DIMTIH
 70
0
  9
$DIMTSZ
 40
0.0
  9
$DIMTXT
 40
2.5
  9
$DIMZIN
 70
8
  9
$DWGCODEPAGE
  3
ANSI_1252
  9
$INSUNITS
 70
4
  9
$LTSCALE
 40
1.0
  9
$MAXACTVP
 70
64
  9
$MEASUREMENT
 70
1
  9
$MIRRTEXT
 70
0
  9
$PDMODE
 70
0
  9
$PDSIZE
 40
0.0
  0
ENDSEC
  0
SECTION
  2
TABLES
  0
TABLE
  2
VPORT
  5
8
100
AcDbSymbolTable
 70
1
  0
VPORT
  5
30
100
AcDbSymbolTableRecord
100
AcDbViewportTableRecord
  2
*Active
 70
0
 10
0.0
 20
0.0
 11
1.0
 21
1.0
 12
286.3055555555554861
 22
148.5
 13
0.0
 23
0.0
 14
10.0
 24
10.0
 15
10.0
 25
10.0
 16
0.0
 26
0.0
 36
1.0
 17
0.0
 27
0.0
 37
0.0
 40
297.0
 41
1.92798353909465
 42
50.0
 43
0.0
 44
0.0
 50
0.0
 51
0.0
 71
0
 72
100
 73
1
 74
3
 75
1
 76
1
 77
0
 78
0
281
0
 65
1
110
0.0
120
0.0
130
0.0
111
1.0
121
0.0
131
0.0
112
0.0
122
1.0
132
0.0
 79
0
146
0.0
  0
ENDTAB
  0
TABLE
  2
LTYPE
  5
5
100
AcDbSymbolTable
 70
41
  0
LTYPE
  5
16
100
AcDbSymbolTableRecord
100
AcDbLinetypeTableRecord
  2
Continuous
 70
0
  3
Solid line
 72
65
 73
0
 40
0.0
  0
LTYPE
  5
31
100
AcDbSymbolTableRecord
100
AcDbLinetypeTableRecord
  2
DIVIDE
 70
0
  3
Divide ____ . . ____ . . ____ . . ____ . . ____
 72
65
 73
6
 40
31.7500000000000036
 49
12.6999999999999993
 74
0
 49
-6.2999999999999998
 74
0
 49
0.1
 74
0
 49
-6.25
 74
0
 49
0.1
 74
0
 49
-6.2999999999999998
 74
0
  0
LTYPE
  5
32
100
AcDbSymbolTableRecord
100
AcDbLinetypeTableRecord
  2
PHANTOMX2
 70
0
  3
Phantom (2x) ____________    ____    ____   _
 72
65
 73
6
 40
127.0000000000000142
 49
63.5
 74
0
 49
-12.6999999999999993
 74
0
 49
12.6999999999999993
 74
0
 49
-12.6999999999999993
 74
0
 49
12.6999999999999993
 74
0
 49
-12.6999999999999993
 74
0
  0
LTYPE
  5
33
100
AcDbSymbolTableRecord
100
AcDbLinetypeTableRecord
  2
DASHDOTX2
 70
0
  3
Dash dot (2x) ____  .  ____  .  ____  .  ___
 72
65
 73
4
 40
50.7999999999999972
 49
25.3999999999999986
 74
0
 49
-12.6499999999999986
 74
0
 49
0.1
 74
0
 49
-12.6499999999999986
 74
0
  0
LTYPE
  5
34
100
AcDbSymbolTableRecord
100
AcDbLinetypeTableRecord
  2
PHANTOM2
 70
0
  3
Phantom (.5x) ___ _ _ ___ _ _ ___ _ _ ___ _ _
 72
65
 73
6
 40
31.7500000000000036
 49
15.875
 74
0
 49
-3.1749999999999998
 74
0
 49
3.1749999999999998
 74
0
 49
-3.1749999999999998
 74
0
 49
3.1749999999999998
 74
0
 49
-3.1749999999999998
 74
0
  0
LTYPE
  5
35
100
AcDbSymbolTableRecord
100
AcDbLinetypeTableRecord
  2
PHANTOM
 70
0
  3
Phantom ______  __  __  ______  __  __  ______ 
 72
65
 73
6
 40
63.5000000000000071
 49
31.75
 74
0
 49
-6.3499999999999996
 74
0
 49
6.3499999999999996
 74
0
 49
-6.3499999999999996
 74
0
 49
6.3499999999999996
 74
0
 49
-6.3499999999999996
 74
0
  0
LTYPE
  5
36
100
AcDbSymbolTableRecord
100
AcDbLinetypeTableRecord
  2
ACAD_ISO14W100
 70
0
  3
ISO dash triple-dot __ . . . __ . . . __ . . . _
 72
65
 73
8
 40
24.0000000000000036
 49
12.0
 74
0
 49
-2.9500000000000002
 74
0
 49
0.1
 74
0
 49
-2.9000000000000004
 74
0
 49
0.1
 74
0
 49
-2.9000000000000004
 74
0
 49
0.1
 74
0
 49
-2.9500000000000002
 74
0
  0
LTYPE
  5
37
100
AcDbSymbolTableRecord
100
AcDbLinetypeTableRecord
  2
DASHEDX2
 70
0
  3
Dashed (2x) ____  ____  ____  ____  ____  ___
 72
65
 73
2
 40
38.0999999999999943
 49
25.3999999999999986
 74
0
 49
-12.6999999999999993
 74
0
  0
LTYPE
  5
38
100
AcDbSymbolTableRecord
100
AcDbLinetypeTableRecord
  2
DOT
 70
0
  3
Dot . . . . . . . . . . . . . . . . . . . . . . . .
 72
65
 73
2
 40
6.3499999999999996
 49
0.1
 74
0
 49
-6.25
 74
0
  0
LTYPE
  5
39
100
AcDbSymbolTableRecord
100
AcDbLinetypeTableRecord
  2
ACAD_ISO15W100
 70
0
  3
ISO double-dash triple-dot __ __ . . . __ __ . .
 72
65
 73
10
 40
39.0000000000000071
 49
12.0
 74
0
 49
-3.0
 74
0
 49
12.0
 74
0
 49
-2.9500000000000002
 74
0
 49
0.1
 74
0
 49
-2.9000000000000004
 74
0
 49
0.1
 74
0
 49
-2.9000000000000004
 74
0
 49
0.1
 74
0
 49
-2.9500000000000002
 74
0
  0
LTYPE
  5
3A
100
AcDbSymbolTableRecord
100
AcDbLinetypeTableRecord
  2
ACAD_ISO13W100
 70
0
  3
ISO double-dash double-dot __ __ . . __ __ . . _
 72
65
 73
8
 40
36.0000000000000071
 49
12.0
 74
0
 49
-3.0
 74
0
 49
12.0
 74
0
 49
-2.9500000000000002
 74
0
 49
0.1
 74
0
 49
-2.9000000000000004
 74
0
 49
0.1
 74
0
 49
-2.9500000000000002
 74
0
  0
LTYPE
  5
3B
100
AcDbSymbolTableRecord
100
AcDbLinetypeTableRecord
  2
CENTER2
 70
0
  3
Center (.5x) ___ _ ___ _ ___ _ ___ _ ___ _ ___
 72
65
 73
4
 40
28.5750000000000028
 49
19.0500000000000007
 74
0
 49
-3.1749999999999998
 74
0
 49
3.1749999999999998
 74
0
 49
-3.1749999999999998
 74
0
  0
LTYPE
  5
3C
100
AcDbSymbolTableRecord
100
AcDbLinetypeTableRecord
  2
DASHDOT2
 70
0
  3
Dash dot (.5x) _._._._._._._._._._._._._._._.
 72
65
 73
4
 40
12.6999999999999993
 49
6.3499999999999996
 74
0
 49
-3.125
 74
0
 49
0.1
 74
0
 49
-3.125
 74
0
  0
LTYPE
  5
3D
100
AcDbSymbolTableRecord
100
AcDbLinetypeTableRecord
  2
DASHDOT
 70
0
  3
Dash dot __ . __ . __ . __ . __ . __ . __ . __
 72
65
 73
4
 40
25.4000000000000021
 49
12.6999999999999993
 74
0
 49
-6.2999999999999998
 74
0
 49
0.1
 74
0
 49
-6.2999999999999998
 74
0
  0
LTYPE
  5
3E
100
AcDbSymbolTableRecord
100
AcDbLinetypeTableRecord
  2
BORDER
 70
0
  3
Border __ __ . __ __ . __ __ . __ __ . __ __ .
 72
65
 73
6
 40
44.4499999999999957
 49
12.6999999999999993
 74
0
 49
-6.3499999999999996
 74
0
 49
12.6999999999999993
 74
0
 49
-6.2999999999999998
 74
0
 49
0.1
 74
0
 49
-6.2999999999999998
 74
0
  0
LTYPE
  5
3F
100
AcDbSymbolTableRecord
100
AcDbLinetypeTableRecord
  2
ACAD_ISO03W100
 70
0
  3
ISO dash space __    __    __    __    __    __
 72
65
 73
2
 40
30.0
 49
12.0
 74
0
 49
-18.0
 74
0
  0
LTYPE
  5
40
100
AcDbSymbolTableRecord
100
AcDbLinetypeTableRecord
  2
ACAD_ISO11W100
 70
0
  3
ISO double-dash dot __ __ . __ __ . __ __ . __ _
 72
65
 73
6
 40
33.0
 49
12.0
 74
0
 49
-3.0
 74
0
 49
12.0
 74
0
 49
-2.9500000000000002
 74
0
 49
0.1
 74
0
 49
-2.9500000000000002
 74
0
  0
LTYPE
  5
41
100
AcDbSymbolTableRecord
100
AcDbLinetypeTableRecord
  2
DASHED
 70
0
  3
Dashed __ __ __ __ __ __ __ __ __ __ __ __ __ _
 72
65
 73
2
 40
19.0499999999999972
 49
12.6999999999999993
 74
0
 49
-6.3499999999999996
 74
0
  0
LTYPE
  5
42
100
AcDbSymbolTableRecord
100
AcDbLinetypeTableRecord
  2
BORDER2
 70
0
  3
Border (.5x) __.__.__.__.__.__.__.__.__.__.__.
 72
65
 73
6
 40
22.2250000000000014
 49
6.3499999999999996
 74
0
 49
-3.1749999999999998
 74
0
 49
6.3499999999999996
 74
0
 49
-3.125
 74
0
 49
0.1
 74
0
 49
-3.125
 74
0
  0
LTYPE
  5
43
100
AcDbSymbolTableRecord
100
AcDbLinetypeTableRecord
  2
HIDDEN
 70
0
  3
Hidden __ __ __ __ __ __ __ __ __ __ __ __ __ __
 72
65
 73
2
 40
9.5249999999999986
 49
6.3499999999999996
 74
0
 49
-3.1749999999999998
 74
0
  0
LTYPE
  5
44
100
AcDbSymbolTableRecord
100
AcDbLinetypeTableRecord
  2
ACAD_ISO10W100
 70
0
  3
ISO dash dot __ . __ . __ . __ . __ . __ . __ . 
 72
65
 73
4
 40
18.0
 49
12.0
 74
0
 49
-2.9500000000000002
 74
0
 49
0.1
 74
0
 49
-2.9500000000000002
 74
0
  0
LTYPE
  5
45
100
AcDbSymbolTableRecord
100
AcDbLinetypeTableRecord
  2
ACAD_ISO08W100
 70
0
  3
ISO long-dash short-dash ____ __ ____ __ ____ _
 72
65
 73
4
 40
36.0
 49
24.0
 74
0
 49
-3.0
 74
0
 49
6.0
 74
0
 49
-3.0
 74
0
  0
LTYPE
  5
46
100
AcDbSymbolTableRecord
100
AcDbLinetypeTableRecord
  2
DIVIDEX2
 70
0
  3
Divide (2x) ________  .  .  ________  .  .  _
 72
65
 73
6
 40
63.5
 49
25.3999999999999986
 74
0
 49
-12.6499999999999986
 74
0
 49
0.1
 74
0
 49
-12.5999999999999979
 74
0
 49
0.1
 74
0
 49
-12.6499999999999986
 74
0
  0
LTYPE
  5
47
100
AcDbSymbolTableRecord
100
AcDbLinetypeTableRecord
  2
ACAD_ISO05W100
 70
0
  3
ISO long-dash double-dot ____ .. ____ .. ____ . 
 72
65
 73
6
 40
33.0000000000000071
 49
24.0
 74
0
 49
-2.9500000000000002
 74
0
 49
0.1
 74
0
 49
-2.9000000000000004
 74
0
 49
0.1
 74
0
 49
-2.9500000000000002
 74
0
  0
LTYPE
  5
48
100
AcDbSymbolTableRecord
100
AcDbLinetypeTableRecord
  2
DOT2
 70
0
  3
Dot (.5x) ........................................
 72
65
 73
2
 40
3.1749999999999998
 49
0.1
 74
0
 49
-3.0749999999999997
 74
0
  0
LTYPE
  5
49
100
AcDbSymbolTableRecord
100
AcDbLinetypeTableRecord
  2
DIVIDE2
 70
0
  3
Divide (.5x) __..__..__..__..__..__..__..__.._
 72
65
 73
6
 40
15.8749999999999982
 49
6.3499999999999996
 74
0
 49
-3.125
 74
0
 49
0.1
 74
0
 49
-3.0750000000000002
 74
0
 49
0.1
 74
0
 49
-3.125
 74
0
  0
LTYPE
  5
14
100
AcDbSymbolTableRecord
100
AcDbLinetypeTableRecord
  2
BYBLOCK
 70
0
  3

 72
65
 73
0
 40
0.0
  0
LTYPE
  5
4A
100
AcDbSymbolTableRecord
100
AcDbLinetypeTableRecord
  2
CENTERX2
 70
0
  3
Center (2x) ________  __  ________  __  _____
 72
65
 73
4
 40
101.6000000000000085
 49
63.5
 74
0
 49
-12.6999999999999993
 74
0
 49
12.6999999999999993
 74
0
 49
-12.6999999999999993
 74
0
  0
LTYPE
  5
4B
100
AcDbSymbolTableRecord
100
AcDbLinetypeTableRecord
  2
ACAD_ISO07W100
 70
0
  3
ISO dot . . . . . . . . . . . . . . . . . . . . 
 72
65
 73
2
 40
3.0
 49
0.1
 74
0
 49
-2.8999999999999999
 74
0
  0
LTYPE
  5
4C
100
AcDbSymbolTableRecord
100
AcDbLinetypeTableRecord
  2
ACAD_ISO04W100
 70
0
  3
ISO long-dash dot ____ . ____ . ____ . ____ . _
 72
65
 73
4
 40
30.0
 49
24.0
 74
0
 49
-2.9500000000000002
 74
0
 49
0.1
 74
0
 49
-2.9500000000000002
 74
0
  0
LTYPE
  5
4D
100
AcDbSymbolTableRecord
100
AcDbLinetypeTableRecord
  2
CENTER
 70
0
  3
Center ____ _ ____ _ ____ _ ____ _ ____ _ ____
 72
65
 73
4
 40
50.8000000000000043
 49
31.75
 74
0
 49
-6.3499999999999996
 74
0
 49
6.3499999999999996
 74
0
 49
-6.3499999999999996
 74
0
  0
LTYPE
  5
4E
100
AcDbSymbolTableRecord
100
AcDbLinetypeTableRecord
  2
HIDDEN2
 70
0
  3
Hidden (.5x) _ _ _ _ _ _ _ _ _ _ _ _ _ _ _ _ _ 
 72
65
 73
2
 40
4.7624999999999993
 49
3.1749999999999998
 74
0
 49
-1.5874999999999999
 74
0
  0
LTYPE
  5
4F
100
AcDbSymbolTableRecord
100
AcDbLinetypeTableRecord
  2
ACAD_ISO06W100
 70
0
  3
ISO long-dash triple-dot ____ ... ____ ... ____
 72
65
 73
8
 40
36.0000000000000071
 49
24.0
 74
0
 49
-2.9500000000000002
 74
0
 49
0.1
 74
0
 49
-2.9000000000000004
 74
0
 49
0.1
 74
0
 49
-2.9000000000000004
 74
0
 49
0.1
 74
0
 49
-2.9500000000000002
 74
0
  0
LTYPE
  5
50
100
AcDbSymbolTableRecord
100
AcDbLinetypeTableRecord
  2
DOTX2
 70
0
  3
Dot (2x) .  .  .  .  .  .  .  .  .  .  .  .  .  .
 72
65
 73
2
 40
12.6999999999999993
 49
0.1
 74
0
 49
-12.5999999999999996
 74
0
  0
LTYPE
  5
51
100
AcDbSymbolTableRecord
100
AcDbLinetypeTableRecord
  2
DASHED2
 70
0
  3
Dashed (.5x) _ _ _ _ _ _ _ _ _ _ _ _ _ _ _ _ _ 
 72
65
 73
2
 40
9.5249999999999986
 49
6.3499999999999996
 74
0
 49
-3.1749999999999998
 74
0
  0
LTYPE
  5
52
100
AcDbSymbolTableRecord
100
AcDbLinetypeTableRecord
  2
ACAD_ISO09W100
 70
0
  3
ISO long-dash double-short-dash ____ __ __ ____
 72
65
 73
6
 40
45.0
 49
24.0
 74
0
 49
-3.0
 74
0
 49
6.0
 74
0
 49
-3.0
 74
0
 49
6.0
 74
0
 49
-3.0
 74
0
  0
LTYPE
  5
53
100
AcDbSymbolTableRecord
100
AcDbLinetypeTableRecord
  2
BORDERX2
 70
0
  3
Border (2x) ____  ____  .  ____  ____  .  ___
 72
65
 73
6
 40
88.8999999999999773
 49
25.3999999999999986
 74
0
 49
-12.6999999999999993
 74
0
 49
25.3999999999999986
 74
0
 49
-12.6499999999999986
 74
0
 49
0.1
 74
0
 49
-12.6499999999999986
 74
0
  0
LTYPE
  5
15
100
AcDbSymbolTableRecord
100
AcDbLinetypeTableRecord
  2
BYLAYER
 70
0
  3

 72
65
 73
0
 40
0.0
  0
LTYPE
  5
54
100
AcDbSymbolTableRecord
100
AcDbLinetypeTableRecord
  2
ACAD_ISO02W100
 70
0
  3
ISO dash __ __ __ __ __ __ __ __ __ __ __ __ __
 72
65
 73
2
 40
15.0
 49
12.0
 74
0
 49
-3.0
 74
0
  0
LTYPE
  5
55
100
AcDbSymbolTableRecord
100
AcDbLinetypeTableRecord
  2
HIDDENX2
 70
0
  3
Hidden (2x) ____ ____ ____ ____ ____ ____ ____ 
 72
65
 73
2
 40
19.0499999999999972
 49
12.6999999999999993
 74
0
 49
-6.3499999999999996
 74
0
  0
LTYPE
  5
56
100
AcDbSymbolTableRecord
100
AcDbLinetypeTableRecord
  2
ACAD_ISO12W100
 70
0
  3
ISO dash double-dot __ . . __ . . __ . . __ . . 
 72
65
 73
6
 40
21.0
 49
12.0
 74
0
 49
-2.9500000000000002
 74
0
 49
0.1
 74
0
 49
-2.9000000000000004
 74
0
 49
0.1
 74
0
 49
-2.9500000000000002
 74
0
  0
ENDTAB
  0
TABLE
  2
LAYER
  5
2
100
AcDbSymbolTable
 70
6
  0
LAYER
  5
10
100
AcDbSymbolTableRecord
100
AcDbLayerTableRecord
  2
0
 70
0
 62
7
420
16777215
  6
Continuous
370
25
390
F
  0
LAYER
  5
57
100
AcDbSymbolTableRecord
100
AcDbLayerTableRecord
  2
Ejes de revoluci\U+00f3n
 70
0
 62
6
420
16711935
  6
ACAD_ISO04W100
370
20
390
F
  0
LAYER
  5
58
100
AcDbSymbolTableRecord
100
AcDbLayerTableRecord
  2
Contornos Visibles
 70
0
 62
7
420
16777215
  6
Continuous
370
50
390
F
  0
LAYER
  5
59
100
AcDbSymbolTableRecord
100
AcDbLayerTableRecord
  2
Contornos Ocultos
 70
0
 62
252
420
10526884
  6
ACAD_ISO02W100
370
30
390
F
  0
LAYER
  5
5A
100
AcDbSymbolTableRecord
100
AcDbLayerTableRecord
  2
Referencias
 70
1
 62
2
420
16776960
  6
Continuous
370
25
390
F
  0
LAYER
  5
5B
100
AcDbSymbolTableRecord
100
AcDbLayerTableRecord
  2
Cotas
 70
0
 62
1
420
16711680
  6
Continuous
370
20
390
F
  0
ENDTAB
  0
TABLE
  2
STYLE
  5
3
100
AcDbSymbolTable
 70
1
  0
STYLE
  5
5C
100
AcDbSymbolTableRecord
100
AcDbTextStyleTableRecord
  2
Standard
 70
0
 40
0.0
 41
1.0
 50
0.0
 71
0
 42
2.5
  3

  4

1001
ACAD
1000
txt
1071
0
  0
ENDTAB
  0
TABLE
  2
VIEW
  5
6
100
AcDbSymbolTable
 70
0
  0
ENDTAB
  0
TABLE
  2
UCS
  5
7
100
AcDbSymbolTable
 70
0
  0
ENDTAB
  0
TABLE
  2
APPID
  5
9
100
AcDbSymbolTable
 70
1
  0
APPID
  5
12
100
AcDbSymbolTableRecord
100
AcDbRegAppTableRecord
  2
ACAD
 70
0
  0
APPID
  5
5D
100
AcDbSymbolTableRecord
100
AcDbRegAppTableRecord
  2
QCAD
 70
0
  0
ENDTAB
  0
TABLE
  2
DIMSTYLE
  5
A
100
AcDbSymbolTable
 70
1
100
AcDbDimStyleTable
 71
0
  0
DIMSTYLE
105
27
100
AcDbSymbolTableRecord
100
AcDbDimStyleTableRecord
  2
Standard
 41
2.5
 42
0.625
 43
3.75
 44
1.25
 70
0
 73
0
 74
0
 77
1
 78
8
140
2.5
141
2.5
143
0.03937007874016
147
0.625
171
3
172
1
271
2
272
2
274
3
278
44
283
0
284
8
340
5C
  0
ENDTAB
  0
TABLE
  2
BLOCK_RECORD
  5
1
100
AcDbSymbolTable
 70
1
  0
BLOCK_RECORD
  5
1F
100
AcDbSymbolTableRecord
100
AcDbBlockTableRecord
  2
*Model_Space
340
22
  0
BLOCK_RECORD
  5
1B
100
AcDbSymbolTableRecord
100
AcDbBlockTableRecord
  2
*Paper_Space
340
1E
  0
BLOCK_RECORD
  5
23
100
AcDbSymbolTableRecord
100
AcDbBlockTableRecord
  2
*Paper_Space0
340
26
  0
ENDTAB
  0
ENDSEC
  0
SECTION
  2
BLOCKS
  0
BLOCK
  5
20
100
AcDbEntity
  8
0
100
AcDbBlockBegin
  2
*Model_Space
 70
0
 10
0.0
 20
0.0
 30
0.0
  3
*Model_Space
  1

  0
ENDBLK
  5
21
100
AcDbEntity
  8
0
100
AcDbBlockEnd
  0
BLOCK
  5
1C
100
AcDbEntity
 67
1
  8
0
100
AcDbBlockBegin
  2
*Paper_Space
 70
0
 10
0.0
 20
0.0
 30
0.0
  3
*Paper_Space
  1

  0
ENDBLK
  5
1D
100
AcDbEntity
 67
1
  8
0
100
AcDbBlockEnd
  0
BLOCK
  5
24
100
AcDbEntity
  8
0
100
AcDbBlockBegin
  2
*Paper_Space0
 70
0
 10
0.0
 20
0.0
 30
0.0
  3
*Paper_Space0
  1

  0
ENDBLK
  5
25
100
AcDbEntity
  8
0
100
AcDbBlockEnd
  0
ENDSEC
  0
SECTION
  2
ENTITIES
  0
IMAGE
  5
5E
100
AcDbEntity
  8
Referencias
 62
256
370
-1
 48
1.0
  6
BYLAYER
100
AcDbRasterImage
 90
0
 10
-18.0543795199999906
 20
23.5153907199999992
 30
0.0
 11
0.0244140625
 21
0.0
 31
0.0
 12
0.0
 22
0.0244140625
 32
0.0
 13
50.0
 23
35.0
340
5F
 70
15
280
0
281
50
282
50
283
0
  0
CIRCLE
  5
60
100
AcDbEntity
  8
Contornos Visibles
 62
256
370
-1
 48
1.0
  6
BYLAYER
100
AcDbCircle
 10
163.4826239999999302
 20
94.9944566963191619
 30
0.0
 40
4.5
  0
CIRCLE
  5
61
100
AcDbEntity
  8
Contornos Visibles
 62
256
370
-1
 48
1.0
  6
BYLAYER
100
AcDbCircle
 10
163.4826239999999302
 20
94.9944566963191619
 30
0.0
 40
9.5
  0
LINE
  5
62
100
AcDbEntity
  8
Referencias
 62
256
370
-1
 48
1.0
  6
BYLAYER
100
AcDbLine
 10
163.4826239999999302
 20
94.9944566963191619
 30
0.0
 11
115.4826239999999302
 21
94.9944566963191619
 31
0.0
  0
LINE
  5
63
100
AcDbEntity
  8
Referencias
 62
256
370
-1
 48
1.0
  6
BYLAYER
100
AcDbLine
 10
115.4826239999999302
 20
94.9944566963191619
 30
0.0
 11
115.4826239999999302
 21
110.9944566963191619
 31
0.0
  0
CIRCLE
  5
64
100
AcDbEntity
  8
Contornos Visibles
 62
256
370
-1
 48
1.0
  6
BYLAYER
100
AcDbCircle
 10
115.4826239999999302
 20
110.9944566963191619
 30
0.0
 40
3.25
  0
LINE
  5
65
100
AcDbEntity
  8
Referencias
 62
256
370
-1
 48
1.0
  6
BYLAYER
100
AcDbLine
 10
163.4826239999999302
 20
94.9944566963191619
 30
0.0
 11
86.6826239999999331
 21
94.9944566963191619
 31
0.0
  0
LINE
  5
66
100
AcDbEntity
  8
Referencias
 62
256
370
-1
 48
1.0
  6
BYLAYER
100
AcDbLine
 10
86.6826239999999331
 20
94.9944566963191619
 30
0.0
 11
86.6826239999999331
 21
66.1944566963191647
 31
0.0
  0
ARC
  5
67
100
AcDbEntity
  8
Contornos Visibles
 62
256
370
-1
 48
1.0
  6
BYLAYER
100
AcDbCircle
 10
86.6826239999999331
 20
66.1944566963191647
 30
0.0
 40
4.5
100
AcDbArc
 50
0.0
 51
180.0
  0
ARC
  5
68
100
AcDbEntity
  8
Contornos Visibles
 62
256
370
-1
 48
1.0
  6
BYLAYER
100
AcDbCircle
 10
86.6826239999999331
 20
53.3944566963191676
 30
0.0
 40
4.5
100
AcDbArc
 50
180.0
 51
0.0
  0
ARC
  5
69
100
AcDbEntity
  8
Contornos Visibles
 62
256
370
-1
 48
1.0
  6
BYLAYER
100
AcDbCircle
 10
86.6826239999999331
 20
66.1944566963191647
 30
0.0
 40
9.5999999999999996
100
AcDbArc
 50
0.0
 51
180.0
  0
ARC
  5
6A
100
AcDbEntity
  8
Contornos Visibles
 62
256
370
-1
 48
1.0
  6
BYLAYER
100
AcDbCircle
 10
86.6826239999999331
 20
53.3944566963191676
 30
0.0
 40
9.5999999999999996
100
AcDbArc
 50
180.0
 51
0.0
  0
LINE
  5
6B
100
AcDbEntity
  8
Referencias
 62
256
370
-1
 48
1.0
  6
BYLAYER
100
AcDbLine
 10
86.6826239999999331
 20
66.1944566963191647
 30
0.0
 11
86.6826239999999331
 21
53.3944566963191676
 31
0.0
  0
LINE
  5
6C
100
AcDbEntity
  8
Contornos Visibles
 62
256
370
-1
 48
1.0
  6
BYLAYER
100
AcDbLine
 10
82.1826239999999331
 20
66.1944566963191647
 30
0.0
 11
82.1826239999999331
 21
53.3944566963191676
 31
0.0
  0
LINE
  5
6D
100
AcDbEntity
  8
Contornos Visibles
 62
256
370
-1
 48
1.0
  6
BYLAYER
100
AcDbLine
 10
91.1826239999999331
 20
53.3944566963191676
 30
0.0
 11
91.1826239999999331
 21
66.1944566963191647
 31
0.0
  0
LINE
  5
6E
100
AcDbEntity
  8
Contornos Visibles
 62
256
370
-1
 48
1.0
  6
BYLAYER
100
AcDbLine
 10
96.2826239999999274
 20
66.1944566963191647
 30
0.0
 11
96.2826239999999274
 21
53.3944566963191676
 31
0.0
  0
LINE
  5
6F
100
AcDbEntity
  8
Contornos Visibles
 62
256
370
-1
 48
1.0
  6
BYLAYER
100
AcDbLine
 10
77.0826239999999387
 20
53.3944566963191676
 30
0.0
 11
77.0826239999999387
 21
66.1944566963191647
 31
0.0
  0
ARC
  5
70
100
AcDbEntity
  8
Contornos Visibles
 62
256
370
-1
 48
1.0
  6
BYLAYER
100
AcDbCircle
 10
173.0445281353188989
 20
-14.0872557458082355
 30
0.0
 40
100.0
100
AcDbArc
 50
95.00963852901846
 51
141.9965404200276282
  0
ARC
  5
71
100
AcDbEntity
  8
Contornos Visibles
 62
256
370
-1
 48
1.0
  6
BYLAYER
100
AcDbCircle
 10
145.1154081519517547
 20
26.9290809022253868
 30
0.0
 40
80.0
100
AcDbArc
 50
118.5399390761994738
 51
146.0998822155302719
  0
LINE
  5
72
100
AcDbEntity
  8
Referencias
 62
256
370
-1
 48
1.0
  6
BYLAYER
100
AcDbLine
 10
115.4826239999999302
 20
110.9944566963191619
 30
0.0
 11
129.1209981185536435
 21
110.9944566963191619
 31
0.0
  0
LINE
  5
73
100
AcDbEntity
  8
Referencias
 62
256
370
-1
 48
1.0
  6
BYLAYER
100
AcDbLine
 10
115.4826239999999302
 20
107.7444566963191619
 30
0.0
 11
132.1029668064680607
 21
107.7444566963191619
 31
0.0
  0
ARC
  5
74
100
AcDbEntity
  8
Contornos Visibles
 62
256
370
-1
 48
1.0
  6
BYLAYER
100
AcDbCircle
 10
115.4826239999999302
 20
110.9944566963191761
 30
0.0
 40
6.5
100
AcDbArc
 50
0.0
 51
180.0
  0
LINE
  5
75
100
AcDbEntity
  8
Referencias
 62
256
370
-1
 48
1.0
  6
BYLAYER
100
AcDbLine
 10
115.4826239999999302
 20
107.7444566963191619
 30
0.0
 11
105.9577229299248415
 21
107.7444566963191619
 31
0.0
  0
LINE
  5
76
100
AcDbEntity
  8
Referencias
 62
256
370
-1
 48
1.0
  6
BYLAYER
100
AcDbLine
 10
115.4826239999999302
 20
110.9944566963191761
 30
0.0
 11
105.9269919570853489
 21
110.9944566963191761
 31
0.0
  0
LINE
  5
77
100
AcDbEntity
  8
Contornos Visibles
 62
256
370
-1
 48
1.0
  6
BYLAYER
100
AcDbLine
 10
121.9826239999999302
 20
110.9944566963191619
 30
0.0
 11
121.9826239999999302
 21
107.7444566963191477
 31
0.0
  0
ARC
  5
78
100
AcDbEntity
  8
Contornos Visibles
 62
256
370
-1
 48
1.0
  6
BYLAYER
100
AcDbCircle
 10
125.982623999999916
 20
107.7444566963191477
 30
0.0
 40
4.0
100
AcDbArc
 50
180.0
 51
243.8906294976267191
  0
LINE
  5
79
100
AcDbEntity
  8
Contornos Visibles
 62
256
370
-1
 48
1.0
  6
BYLAYER
100
AcDbLine
 10
108.9826239999999302
 20
110.9944566963191761
 30
0.0
 11
108.9826239999999302
 21
100.72176100135745
 31
0.0
  0
ARC
  5
7A
100
AcDbEntity
  8
Contornos Visibles
 62
256
370
-1
 48
1.0
  6
BYLAYER
100
AcDbCircle
 10
104.9826239999999302
 20
100.72176100135745
 30
0.0
 40
4.0
100
AcDbArc
 50
298.5399390761994596
 51
0.0
  0
ARC
  5
7B
100
AcDbEntity
  8
Contornos Visibles
 62
256
370
-1
 48
1.0
  6
BYLAYER
100
AcDbCircle
 10
145.1154081519517547
 20
26.9290809022253868
 30
0.0
 40
80.0
100
AcDbArc
 50
118.5399390761994738
 51
146.0998822155302719
  0
ARC
  5
7C
100
AcDbEntity
  8
Contornos Visibles
 62
256
370
-1
 48
1.0
  6
BYLAYER
100
AcDbCircle
 10
145.1154081519517547
 20
26.9290809022253868
 30
0.0
 40
80.0
100
AcDbArc
 50
74.8986127676512581
 51
105.1391471385679637
  0
ARC
  5
7D
100
AcDbEntity
  8
Contornos Ocultos
 62
256
370
-1
 48
1.0
  6
BYLAYER
100
AcDbCircle
 10
145.1154081519517547
 20
26.9290809022253868
 30
0.0
 40
80.0
100
AcDbArc
 50
105.1391471385679637
 51
118.5399390761994738
  0
DIMENSION
  5
7E
100
AcDbEntity
  8
Cotas
 62
256
370
-1
 48
1.0
  6
BYLAYER
100
AcDbDimension
 10
167.3355350258948988
 20
97.3193387635511868
 30
0.0
 11
162.5139231386532686
 21
96.599836290442056
 31
0.0
 70
3
 71
8
 72
2
 74
0
 75
0
 41
1.0
 42
0.0
  1
\U+00f8<>
  3
Standard
100
AcDbDiametricDimension
 15
159.6297129741049616
 25
92.6695746290871369
 35
0.0
 40
0.0
1001
ACAD
1000
DSTYLE
1002
{
1070
144
1040
1.0
1070
40
1040
1.0
1002
}
  0
DIMENSION
  5
7F
100
AcDbEntity
  8
Cotas
 62
256
370
-1
 48
1.0
  6
BYLAYER
100
AcDbDimension
 10
171.5399200477167483
 20
89.9615668307005194
 30
0.0
 11
175.7605348847802702
 21
89.3589512672965185
 31
0.0
 70
131
 71
8
 72
2
 74
0
 75
0
 41
1.0
 42
0.0
  1
\U+00f8<>
  3
Standard
100
AcDbDiametricDimension
 15
155.4253279522830837
 25
100.0273465619377902
 35
0.0
 40
0.0
1001
ACAD
1000
DSTYLE
1002
{
1070
279
1070
2
1070
144
1040
1.0
1070
40
1040
1.0
1002
}
  0
DIMENSION
  5
80
100
AcDbEntity
  8
Cotas
 62
256
370
-1
 48
1.0
  6
BYLAYER
100
AcDbDimension
 10
86.6826239999999331
 20
53.3944566963191676
 30
0.0
 11
75.8649104497108482
 21
49.2149821855861447
 31
0.0
 70
4
 71
8
 72
2
 74
0
 41
1.0
 42
0.0
  1
R<>
  3
Standard
100
AcDbRadialDimension
 15
82.8024521733638323
 25
51.1153633248708985
 35
0.0
 40
0.0
1001
ACAD
1000
DSTYLE
1002
{
1070
144
1040
1.0
1070
40
1040
1.0
1002
}
  0
DIMENSION
  5
81
100
AcDbEntity
  8
Cotas
 62
256
370
-1
 48
1.0
  6
BYLAYER
100
AcDbDimension
 10
86.6826239999999331
 20
66.1944566963191647
 30
0.0
 11
100.2318591102775969
 21
75.6324705770484513
 31
0.0
 70
4
 71
8
 72
2
 74
0
 41
1.0
 42
0.0
  1
R<>
  3
Standard
100
AcDbRadialDimension
 15
95.1320349161869814
 25
70.7515890368837006
 35
0.0
 40
0.0
1001
ACAD
1000
DSTYLE
1002
{
1070
144
1040
1.0
1070
40
1040
1.0
1002
}
  0
DIMENSION
  5
82
100
AcDbEntity
  8
Cotas
 62
256
370
-1
 48
1.0
  6
BYLAYER
100
AcDbDimension
 10
145.0742300001082299
 20
51.8369589169814802
 30
0.0
 11
141.2277077296112111
 21
65.627684037912573
 31
0.0
 70
4
 71
8
 72
2
 74
0
 41
1.0
 42
0.0
  1
R100
  3
Standard
100
AcDbRadialDimension
 15
133.9321140894790005
 25
77.9465373277513578
 35
0.0
 40
0.0
1001
ACAD
1000
DSTYLE
1002
{
1070
144
1040
1.0
1070
40
1040
1.0
1002
}
  0
DIMENSION
  5
83
100
AcDbEntity
  8
Cotas
 62
256
370
-1
 48
1.0
  6
BYLAYER
100
AcDbDimension
 10
125.982623999999916
 20
107.7444566963191477
 30
0.0
 11
119.7540111829246001
 21
97.8971216570831473
 31
0.0
 70
4
 71
8
 72
2
 74
0
 41
1.0
 42
0.0
  1
2-R<>
  3
Standard
100
AcDbRadialDimension
 15
124.4162394546395234
 25
104.0639078981022152
 35
0.0
 40
0.0
1001
ACAD
1000
DSTYLE
1002
{
1070
144
1040
1.0
1070
40
1040
1.0
1002
}
  0
DIMENSION
  5
84
100
AcDbEntity
  8
Cotas
 62
256
370
-1
 48
1.0
  6
BYLAYER
100
AcDbDimension
 10
142.8777500001082217
 20
86.2999989169814512
 30
0.0
 11
144.489688386740994
 21
96.6384877552465582
 31
0.0
 70
4
 71
8
 72
2
 74
0
 41
1.0
 42
0.0
  1
R80
  3
Standard
100
AcDbRadialDimension
 15
142.3528457660367224
 25
106.8813682307560669
 35
0.0
 40
0.0
1001
ACAD
1000
DSTYLE
1002
{
1070
144
1040
1.0
1070
40
1040
1.0
1002
}
  0
DIMENSION
  5
85
100
AcDbEntity
  8
Cotas
 62
256
370
-1
 48
1.0
  6
BYLAYER
100
AcDbDimension
 10
117.3835508881319214
 20
113.6305479250092532
 30
0.0
 11
113.9618021372941143
 21
112.0911452856260837
 31
0.0
 70
3
 71
8
 72
2
 74
0
 75
0
 41
1.0
 42
0.0
  1
\U+00f8<>
  3
Standard
100
AcDbDiametricDimension
 15
113.581697111867939
 25
108.3583654676290706
 35
0.0
 40
0.0
1001
ACAD
1000
DSTYLE
1002
{
1070
144
1040
1.0
1070
40
1040
1.0
1002
}
  0
DIMENSION
  5
86
100
AcDbEntity
  8
Cotas
 62
256
370
-1
 48
1.0
  6
BYLAYER
100
AcDbDimension
 10
115.4826239999999302
 20
110.9944566963191761
 30
0.0
 11
109.4608259833087942
 21
123.0065914894419166
 31
0.0
 70
4
 71
8
 72
2
 74
0
 41
1.0
 42
0.0
  1
R<>
  3
Standard
100
AcDbRadialDimension
 15
111.7873202237537669
 25
116.3418607395219055
 35
0.0
 40
0.0
1001
ACAD
1000
DSTYLE
1002
{
1070
144
1040
1.0
1070
40
1040
1.0
1002
}
  0
DIMENSION
  5
87
100
AcDbEntity
  8
Cotas
 62
256
370
-1
 48
1.0
  6
BYLAYER
100
AcDbDimension
 10
86.6826239999999331
 20
26.4900988442791459
 30
0.0
 11
125.0826239999999245
 21
28.3650988442791459
 31
0.0
 70
0
 71
8
 72
2
 74
0
 75
0
 41
1.0
 42
0.0
  1

  3
Standard
100
AcDbAlignedDimension
 13
86.6826239999999331
 23
43.7944566963191662
 33
0.0
 14
163.4826239999999018
 24
85.4545444654948056
 34
0.0
 50
0.0
100
AcDbRotatedDimension
1001
ACAD
1000
DSTYLE
1002
{
1070
144
1040
1.0
1070
40
1040
1.0
1002
}
  0
DIMENSION
  5
88
100
AcDbEntity
  8
Cotas
 62
256
370
-1
 48
1.0
  6
BYLAYER
100
AcDbDimension
 10
163.4826239999999586
 20
130.9145685973655304
 30
0.0
 11
139.4826239999999586
 21
132.7895685973655304
 31
0.0
 70
0
 71
8
 72
2
 74
0
 75
0
 41
1.0
 42
0.0
  1

  3
Standard
100
AcDbAlignedDimension
 13
163.4826239999999586
 23
104.4944566963191619
 33
0.0
 14
115.4826239999999444
 24
117.4944566963191761
 34
0.0
 50
0.0
100
AcDbRotatedDimension
1001
ACAD
1000
DSTYLE
1002
{
1070
144
1040
1.0
1070
40
1040
1.0
1002
}
  0
DIMENSION
  5
89
100
AcDbEntity
  8
Cotas
 62
256
370
-1
 48
1.0
  6
BYLAYER
100
AcDbDimension
 10
53.3839047754855471
 20
53.3944566963191676
 30
0.0
 11
51.5089047754855471
 21
59.7944566963191591
 31
0.0
 70
0
 71
8
 72
2
 74
0
 75
0
 41
1.0
 42
0.0
  1

  3
Standard
100
AcDbAlignedDimension
 13
77.0826239999999387
 23
53.3944566963191676
 33
0.0
 14
77.0826239999999245
 24
66.1944566963191505
 34
0.0
 50
90.0
100
AcDbRotatedDimension
1001
ACAD
1000
DSTYLE
1002
{
1070
144
1040
1.0
1070
40
1040
1.0
1002
}
  0
DIMENSION
  5
8A
100
AcDbEntity
  8
Cotas
 62
256
370
-1
 48
1.0
  6
BYLAYER
100
AcDbDimension
 10
53.3839047754855471
 20
94.9944566963191619
 30
0.0
 11
51.5089047754855471
 21
80.5944566963191562
 31
0.0
 70
0
 71
8
 72
2
 74
0
 75
0
 41
1.0
 42
0.0
  1

  3
Standard
100
AcDbAlignedDimension
 13
103.0784646616265547
 23
94.9944566963191619
 33
0.0
 14
77.0826239999999387
 24
66.1944566963191647
 34
0.0
 50
90.0
100
AcDbRotatedDimension
1001
ACAD
1000
DSTYLE
1002
{
1070
144
1040
1.0
1070
40
1040
1.0
1002
}
  0
DIMENSION
  5
8B
100
AcDbEntity
  8
Cotas
 62
256
370
-1
 48
1.0
  6
BYLAYER
100
AcDbDimension
 10
53.3839047754855471
 20
94.9944566963191619
 30
0.0
 11
51.5089047754855471
 21
102.9944566963191619
 31
0.0
 70
128
 71
8
 72
2
 74
0
 75
0
 41
1.0
 42
0.0
  1

  3
Standard
100
AcDbAlignedDimension
 13
86.6826239999999331
 23
94.9944566963191619
 33
0.0
 14
108.9826239999999302
 24
110.9944566963191761
 34
0.0
 50
90.0
100
AcDbRotatedDimension
1001
ACAD
1000
DSTYLE
1002
{
1070
279
1070
2
1070
144
1040
1.0
1070
40
1040
1.0
1002
}
  0
LINE
  5
8C
100
AcDbEntity
  8
Ejes de revoluci\U+00f3n
 62
256
370
-1
 48
1.0
  6
BYLAYER
100
AcDbLine
 10
77.0826239999999387
 20
53.3944566963191676
 30
0.0
 11
96.2826239999999274
 21
53.3944566963191676
 31
0.0
  0
LINE
  5
8D
100
AcDbEntity
  8
Ejes de revoluci\U+00f3n
 62
256
370
-1
 48
1.0
  6
BYLAYER
100
AcDbLine
 10
86.6826239999999331
 20
43.7944566963191662
 30
0.0
 11
86.6826239999999331
 21
62.994456696319169
 31
0.0
  0
LINE
  5
8E
100
AcDbEntity
  8
Ejes de revoluci\U+00f3n
 62
256
370
-1
 48
1.0
  6
BYLAYER
100
AcDbLine
 10
77.0826239999999387
 20
66.1944566963191647
 30
0.0
 11
96.2826239999999274
 21
66.1944566963191647
 31
0.0
  0
LINE
  5
8F
100
AcDbEntity
  8
Ejes de revoluci\U+00f3n
 62
256
370
-1
 48
1.0
  6
BYLAYER
100
AcDbLine
 10
86.6826239999999331
 20
56.5944566963191633
 30
0.0
 11
86.6826239999999331
 21
75.7944566963191591
 31
0.0
  0
LINE
  5
90
100
AcDbEntity
  8
Ejes de revoluci\U+00f3n
 62
256
370
-1
 48
1.0
  6
BYLAYER
100
AcDbLine
 10
108.9826239999999302
 20
110.9944566963191761
 30
0.0
 11
121.9826239999999302
 21
110.9944566963191761
 31
0.0
  0
LINE
  5
91
100
AcDbEntity
  8
Ejes de revoluci\U+00f3n
 62
256
370
-1
 48
1.0
  6
BYLAYER
100
AcDbLine
 10
115.4826239999999302
 20
104.4944566963191761
 30
0.0
 11
115.4826239999999302
 21
117.4944566963191761
 31
0.0
  0
LINE
  5
92
100
AcDbEntity
  8
Ejes de revoluci\U+00f3n
 62
256
370
-1
 48
1.0
  6
BYLAYER
100
AcDbLine
 10
153.9826239999999302
 20
94.9944566963191619
 30
0.0
 11
172.9826239999999302
 21
94.9944566963191619
 31
0.0
  0
LINE
  5
93
100
AcDbEntity
  8
Ejes de revoluci\U+00f3n
 62
256
370
-1
 48
1.0
  6
BYLAYER
100
AcDbLine
 10
163.4826239999999302
 20
85.4944566963191619
 30
0.0
 11
163.4826239999999302
 21
104.4944566963191619
 31
0.0
  0
ENDSEC
  0
SECTION
  2
OBJECTS
  0
DICTIONARY
  5
C
100
AcDbDictionary
280
0
281
1
  3
ACAD_GROUP
350
D
  3
ACAD_LAYOUT
350
1A
  3
ACAD_MLINESTYLE
350
17
  3
ACAD_PLOTSETTINGS
350
19
  3
ACAD_PLOTSTYLENAME
350
E
  3
AcDbVariableDictionary
350
94
  3
QCAD_OBJECTS
350
95
  0
DICTIONARY
  5
D
100
AcDbDictionary
280
0
281
1
  0
ACDBDICTIONARYWDFLT
  5
E
100
AcDbDictionary
281
1
  3
Normal
350
F
100
AcDbDictionaryWithDefault
340
F
  0
ACDBPLACEHOLDER
  5
F
  0
DICTIONARY
  5
17
100
AcDbDictionary
280
0
281
1
  3
Standard
350
18
  0
MLINESTYLE
  5
18
100
AcDbMlineStyle
  2
STANDARD
 70
0
  3

 62
256
 51
90.0
 52
90.0
 71
2
 49
0.5
 62
256
  6
BYLAYER
 49
-0.5
 62
256
  6
BYLAYER
  0
DICTIONARY
  5
19
100
AcDbDictionary
280
0
281
1
  0
DICTIONARY
  5
1A
100
AcDbDictionary
281
1
  3
Layout1
350
1E
  3
Layout2
350
26
  3
Model
350
22
  0
LAYOUT
  5
1E
100
AcDbPlotSettings
  1

  2
none_device
  4

  6

 40
0.0
 41
0.0
 42
0.0
 43
0.0
 44
0.0
 45
0.0
 46
0.0
 47
0.0
 48
0.0
 49
0.0
140
0.0
141
0.0
142
1.0
143
1.0
 70
688
 72
0
 73
0
 74
5
  7

 75
16
147
1.0
148
0.0
149
0.0
100
AcDbLayout
  1
Layout1
 70
1
 71
1
 10
0.0
 20
0.0
 11
420.0
 21
297.0
 12
0.0
 22
0.0
 32
0.0
 14
100000000000000000000.0
 24
100000000000000000000.0
 34
100000000000000000000.0
 15
-100000000000000000000.0
 25
-100000000000000000000.0
 35
-100000000000000000000.0
146
0.0
 13
0.0
 23
0.0
 33
0.0
 16
1.0
 26
0.0
 36
0.0
 17
0.0
 27
1.0
 37
0.0
 76
0
330
1B
  0
LAYOUT
  5
22
100
AcDbPlotSettings
  1

  2
none_device
  4

  6

 40
0.0
 41
0.0
 42
0.0
 43
0.0
 44
0.0
 45
0.0
 46
0.0
 47
0.0
 48
0.0
 49
0.0
140
0.0
141
0.0
142
1.0
143
1.0
 70
1712
 72
0
 73
0
 74
0
  7

 75
0
147
1.0
148
0.0
149
0.0
100
AcDbLayout
  1
Model
 70
1
 71
0
 10
0.0
 20
0.0
 11
12.0
 21
9.0
 12
0.0
 22
0.0
 32
0.0
 14
0.0
 24
0.0
 34
0.0
 15
0.0
 25
0.0
 35
0.0
146
0.0
 13
0.0
 23
0.0
 33
0.0
 16
1.0
 26
0.0
 36
0.0
 17
0.0
 27
1.0
 37
0.0
 76
0
330
1F
  0
LAYOUT
  5
26
100
AcDbPlotSettings
  1

  2
none_device
  4

  6

 40
0.0
 41
0.0
 42
0.0
 43
0.0
 44
0.0
 45
0.0
 46
0.0
 47
0.0
 48
0.0
 49
0.0
140
0.0
141
0.0
142
1.0
143
1.0
 70
688
 72
0
 73
0
 74
5
  7

 75
16
147
1.0
148
0.0
149
0.0
100
AcDbLayout
  1
Layout2
 70
1
 71
2
 10
0.0
 20
0.0
 11
12.0
 21
9.0
 12
0.0
 22
0.0
 32
0.0
 14
0.0
 24
0.0
 34
0.0
 15
0.0
 25
0.0
 35
0.0
146
0.0
 13
0.0
 23
0.0
 33
0.0
 16
1.0
 26
0.0
 36
0.0
 17
0.0
 27
1.0
 37
0.0
 76
0
330
23
  0
DICTIONARY
  5
94
100
AcDbDictionary
281
1
  3
DIMASSOC
350
97
  3
HIDETEXT
350
96
  0
DICTIONARYVAR
  5
96
100
DictionaryVariables
280
0
  1
2
  0
DICTIONARYVAR
  5
97
100
DictionaryVariables
280
0
  1
1
  0
DICTIONARY
  5
95
100
AcDbDictionary
281
1
  3
ColorSettings/BackgroundColor
350
98
  3
ColorSettings/ColorMode
350
99
  3
Grid/DisplayGrid00
350
9A
  3
Grid/DisplayGrid01
350
9B
  3
Grid/DisplayGrid02
350
9C
  3
Grid/DisplayGrid03
350
9D
  3
Grid/GridSpacingX00
350
9E
  3
Grid/GridSpacingX01
350
9F
  3
Grid/GridSpacingX02
350
A0
  3
Grid/GridSpacingX03
350
A1
  3
Grid/GridSpacingY00
350
A2
  3
Grid/GridSpacingY01
350
A3
  3
Grid/GridSpacingY02
350
A4
  3
Grid/GridSpacingY03
350
A5
  3
Grid/IsometricGrid00
350
A6
  3
Grid/IsometricGrid01
350
A7
  3
Grid/IsometricGrid02
350
A8
  3
Grid/IsometricGrid03
350
A9
  3
Grid/IsometricProjection00
350
AA
  3
Grid/IsometricProjection01
350
AB
  3
Grid/IsometricProjection02
350
AC
  3
Grid/IsometricProjection03
350
AD
  3
Grid/MetaGridSpacingX00
350
AE
  3
Grid/MetaGridSpacingX01
350
AF
  3
Grid/MetaGridSpacingX02
350
B0
  3
Grid/MetaGridSpacingX03
350
B1
  3
Grid/MetaGridSpacingY00
350
B2
  3
Grid/MetaGridSpacingY01
350
B3
  3
Grid/MetaGridSpacingY02
350
B4
  3
Grid/MetaGridSpacingY03
350
B5
  3
MultiPageSettings/Columns
350
B6
  3
MultiPageSettings/GlueMarginsBottom
350
B7
  3
MultiPageSettings/GlueMarginsLeft
350
B8
  3
MultiPageSettings/GlueMarginsRight
350
B9
  3
MultiPageSettings/GlueMarginsTop
350
BA
  3
MultiPageSettings/PrintCropMarks
350
BB
  3
MultiPageSettings/Rows
350
BC
  3
PageSettings/OffsetX
350
BD
  3
PageSettings/OffsetY
350
BE
  3
PageSettings/PageOrientation
350
BF
  3
PageSettings/PaperHeight
350
C0
  3
PageSettings/PaperWidth
350
C1
  3
PageSettings/Scale
350
C2
  3
PageSettings/ShowPaperBorders
350
C3
  3
PageTagSettings/EnablePageTags
350
C4
  3
PageTagSettings/TagAlignment
350
C5
  3
PageTagSettings/TagFont
350
C6
  3
PageTagSettings/TagPosition
350
C7
  3
QCADVersion
350
C8
  3
UnitSettings/PaperUnit
350
C9
  3
ViewportCenter
350
CA
  3
ViewportHeight
350
CB
  3
ViewportWidth
350
CC
  0
XRECORD
  5
98
330
95
100
AcDbXrecord
280
1
1000
Blanca
  0
XRECORD
  5
99
330
95
100
AcDbXrecord
280
1
1000
FullColor
  0
XRECORD
  5
9A
330
95
100
AcDbXrecord
280
1
290
0
  0
XRECORD
  5
9B
330
95
100
AcDbXrecord
280
1
290
1
  0
XRECORD
  5
9C
330
95
100
AcDbXrecord
280
1
290
1
  0
XRECORD
  5
9D
330
95
100
AcDbXrecord
280
1
290
1
  0
XRECORD
  5
9E
330
95
100
AcDbXrecord
280
1
1000
auto
  0
XRECORD
  5
9F
330
95
100
AcDbXrecord
280
1
1000
auto
  0
XRECORD
  5
A0
330
95
100
AcDbXrecord
280
1
1000
auto
  0
XRECORD
  5
A1
330
95
100
AcDbXrecord
280
1
1000
auto
  0
XRECORD
  5
A2
330
95
100
AcDbXrecord
280
1
1000
auto
  0
XRECORD
  5
A3
330
95
100
AcDbXrecord
280
1
1000
auto
  0
XRECORD
  5
A4
330
95
100
AcDbXrecord
280
1
1000
auto
  0
XRECORD
  5
A5
330
95
100
AcDbXrecord
280
1
1000
auto
  0
XRECORD
  5
A6
330
95
100
AcDbXrecord
280
1
290
0
  0
XRECORD
  5
A7
330
95
100
AcDbXrecord
280
1
290
0
  0
XRECORD
  5
A8
330
95
100
AcDbXrecord
280
1
290
0
  0
XRECORD
  5
A9
330
95
100
AcDbXrecord
280
1
290
0
  0
XRECORD
  5
AA
330
95
100
AcDbXrecord
280
1
 90
65537
  0
XRECORD
  5
AB
330
95
100
AcDbXrecord
280
1
 90
65537
  0
XRECORD
  5
AC
330
95
100
AcDbXrecord
280
1
 90
65537
  0
XRECORD
  5
AD
330
95
100
AcDbXrecord
280
1
 90
65537
  0
XRECORD
  5
AE
330
95
100
AcDbXrecord
280
1
1000
auto
  0
XRECORD
  5
AF
330
95
100
AcDbXrecord
280
1
1000
auto
  0
XRECORD
  5
B0
330
95
100
AcDbXrecord
280
1
1000
auto
  0
XRECORD
  5
B1
330
95
100
AcDbXrecord
280
1
1000
auto
  0
XRECORD
  5
B2
330
95
100
AcDbXrecord
280
1
1000
1
  0
XRECORD
  5
B3
330
95
100
AcDbXrecord
280
1
1000
auto
  0
XRECORD
  5
B4
330
95
100
AcDbXrecord
280
1
1000
auto
  0
XRECORD
  5
B5
330
95
100
AcDbXrecord
280
1
1000
auto
  0
XRECORD
  5
B6
330
95
100
AcDbXrecord
280
1
 90
1
  0
XRECORD
  5
B7
330
95
100
AcDbXrecord
280
1
 40
10.0
  0
XRECORD
  5
B8
330
95
100
AcDbXrecord
280
1
 40
10.0
  0
XRECORD
  5
B9
330
95
100
AcDbXrecord
280
1
 40
10.0
  0
XRECORD
  5
BA
330
95
100
AcDbXrecord
280
1
 40
10.0
  0
XRECORD
  5
BB
330
95
100
AcDbXrecord
280
1
290
0
  0
XRECORD
  5
BC
330
95
100
AcDbXrecord
280
1
 90
1
  0
XRECORD
  5
BD
330
95
100
AcDbXrecord
280
1
 40
0.0
  0
XRECORD
  5
BE
330
95
100
AcDbXrecord
280
1
 40
0.0
  0
XRECORD
  5
BF
330
95
100
AcDbXrecord
280
1
1000
Portrait
  0
XRECORD
  5
C0
330
95
100
AcDbXrecord
280
1
 40
279.3999999999999773
  0
XRECORD
  5
C1
330
95
100
AcDbXrecord
280
1
 40
215.9000000000000057
  0
XRECORD
  5
C2
330
95
100
AcDbXrecord
280
1
1000
1:1
  0
XRECORD
  5
C3
330
95
100
AcDbXrecord
280
1
290
1
  0
XRECORD
  5
C4
330
95
100
AcDbXrecord
280
1
290
0
  0
XRECORD
  5
C5
330
95
100
AcDbXrecord
280
1
1000
Inside
  0
XRECORD
  5
C6
330
95
100
AcDbXrecord
280
1
1000
Arial,10,-1,5,50,0,0,0,0,0
  0
XRECORD
  5
C7
330
95
100
AcDbXrecord
280
1
1000
TopLeft
  0
XRECORD
  5
C8
330
95
100
AcDbXrecord
280
1
1000
3.28.1
  0
XRECORD
  5
C9
330
95
100
AcDbXrecord
280
1
 90
4
  0
XRECORD
  5
CB
330
95
100
AcDbXrecord
280
1
 40
83.9599901824693404
  0
XRECORD
  5
CC
330
95
100
AcDbXrecord
280
1
 40
154.7055481289262389
  0
IMAGEDEF
  5
5F
100
AcDbRasterImageDef
 90
0
  1
C:/Users/iamth/Documents/QCad/StudyCadCam/2D CAD EXERCISES 7.png
 10
50.0
 20
35.0
 11
1.0
 21
1.0
280
1
281
0
  0
ENDSEC
  0
EOF
