999
dxflib 3.26.4.0
  0
SECTION
  2
HEADER
  9
$ACADVER
  1
AC1015
  9
$HANDSEED
  5
FFFF
  9
$DIMADEC
 70
0
  9
$DIMASZ
 40
2.5
  9
$DIMATFIT
 70
0
  9
$DIMAUNIT
 70
0
  9
$DIMAZIN
 70
2
  9
$DIMBLK
  1
0
  9
$DIMBLK1
  1
0
  9
$DIMBLK2
  1
0
  9
$DIMDEC
 70
4
  9
$DIMDLI
 40
5.0
  9
$DIMDSEP
 70
46
  9
$DIMEXE
 40
1.25
  9
$DIMEXO
 40
0.625
  9
$DIMGAP
 40
0.625
  9
$DIMLFAC
 40
1.0
  9
$DIMLUNIT
 70
2
  9
$DIMSCALE
 40
1.0
  9
$DIMTAD
 70
1
  9
$DIMTIH
 70
0
  9
$DIMTSZ
 40
0.0
  9
$DIMTXT
 40
2.5
  9
$DIMZIN
 70
8
  9
$DWGCODEPAGE
  3
ANSI_1252
  9
$INSUNITS
 70
4
  9
$LTSCALE
 40
1.0
  9
$MAXACTVP
 70
64
  9
$MEASUREMENT
 70
1
  9
$MIRRTEXT
 70
0
  9
$PDMODE
 70
0
  9
$PDSIZE
 40
0.0
  0
ENDSEC
  0
SECTION
  2
TABLES
  0
TABLE
  2
VPORT
  5
8
100
AcDbSymbolTable
 70
1
  0
VPORT
  5
30
100
AcDbSymbolTableRecord
100
AcDbViewportTableRecord
  2
*Active
 70
0
 10
0.0
 20
0.0
 11
1.0
 21
1.0
 12
286.3055555555554861
 22
148.5
 13
0.0
 23
0.0
 14
10.0
 24
10.0
 15
10.0
 25
10.0
 16
0.0
 26
0.0
 36
1.0
 17
0.0
 27
0.0
 37
0.0
 40
297.0
 41
1.92798353909465
 42
50.0
 43
0.0
 44
0.0
 50
0.0
 51
0.0
 71
0
 72
100
 73
1
 74
3
 75
1
 76
1
 77
0
 78
0
281
0
 65
1
110
0.0
120
0.0
130
0.0
111
1.0
121
0.0
131
0.0
112
0.0
122
1.0
132
0.0
 79
0
146
0.0
  0
ENDTAB
  0
TABLE
  2
LTYPE
  5
5
100
AcDbSymbolTable
 70
41
  0
LTYPE
  5
16
100
AcDbSymbolTableRecord
100
AcDbLinetypeTableRecord
  2
Continuous
 70
0
  3
Solid line
 72
65
 73
0
 40
0.0
  0
LTYPE
  5
31
100
AcDbSymbolTableRecord
100
AcDbLinetypeTableRecord
  2
ACAD_ISO11W100
 70
0
  3
ISO double-dash dot __ __ . __ __ . __ __ . __ _
 72
65
 73
6
 40
33.0
 49
12.0
 74
0
 49
-3.0
 74
0
 49
12.0
 74
0
 49
-2.9500000000000002
 74
0
 49
0.1
 74
0
 49
-2.9500000000000002
 74
0
  0
LTYPE
  5
32
100
AcDbSymbolTableRecord
100
AcDbLinetypeTableRecord
  2
ACAD_ISO14W100
 70
0
  3
ISO dash triple-dot __ . . . __ . . . __ . . . _
 72
65
 73
8
 40
24.0000000000000036
 49
12.0
 74
0
 49
-2.9500000000000002
 74
0
 49
0.1
 74
0
 49
-2.9000000000000004
 74
0
 49
0.1
 74
0
 49
-2.9000000000000004
 74
0
 49
0.1
 74
0
 49
-2.9500000000000002
 74
0
  0
LTYPE
  5
15
100
AcDbSymbolTableRecord
100
AcDbLinetypeTableRecord
  2
BYLAYER
 70
0
  3

 72
65
 73
0
 40
0.0
  0
LTYPE
  5
33
100
AcDbSymbolTableRecord
100
AcDbLinetypeTableRecord
  2
DOT
 70
0
  3
Dot . . . . . . . . . . . . . . . . . . . . . . . .
 72
65
 73
2
 40
6.3499999999999996
 49
0.1
 74
0
 49
-6.25
 74
0
  0
LTYPE
  5
34
100
AcDbSymbolTableRecord
100
AcDbLinetypeTableRecord
  2
DASHED2
 70
0
  3
Dashed (.5x) _ _ _ _ _ _ _ _ _ _ _ _ _ _ _ _ _ 
 72
65
 73
2
 40
9.5249999999999986
 49
6.3499999999999996
 74
0
 49
-3.1749999999999998
 74
0
  0
LTYPE
  5
35
100
AcDbSymbolTableRecord
100
AcDbLinetypeTableRecord
  2
ACAD_ISO09W100
 70
0
  3
ISO long-dash double-short-dash ____ __ __ ____
 72
65
 73
6
 40
45.0
 49
24.0
 74
0
 49
-3.0
 74
0
 49
6.0
 74
0
 49
-3.0
 74
0
 49
6.0
 74
0
 49
-3.0
 74
0
  0
LTYPE
  5
36
100
AcDbSymbolTableRecord
100
AcDbLinetypeTableRecord
  2
ACAD_ISO05W100
 70
0
  3
ISO long-dash double-dot ____ .. ____ .. ____ . 
 72
65
 73
6
 40
33.0000000000000071
 49
24.0
 74
0
 49
-2.9500000000000002
 74
0
 49
0.1
 74
0
 49
-2.9000000000000004
 74
0
 49
0.1
 74
0
 49
-2.9500000000000002
 74
0
  0
LTYPE
  5
37
100
AcDbSymbolTableRecord
100
AcDbLinetypeTableRecord
  2
DIVIDE2
 70
0
  3
Divide (.5x) __..__..__..__..__..__..__..__.._
 72
65
 73
6
 40
15.8749999999999982
 49
6.3499999999999996
 74
0
 49
-3.125
 74
0
 49
0.1
 74
0
 49
-3.0750000000000002
 74
0
 49
0.1
 74
0
 49
-3.125
 74
0
  0
LTYPE
  5
38
100
AcDbSymbolTableRecord
100
AcDbLinetypeTableRecord
  2
DIVIDEX2
 70
0
  3
Divide (2x) ________  .  .  ________  .  .  _
 72
65
 73
6
 40
63.5
 49
25.3999999999999986
 74
0
 49
-12.6499999999999986
 74
0
 49
0.1
 74
0
 49
-12.5999999999999979
 74
0
 49
0.1
 74
0
 49
-12.6499999999999986
 74
0
  0
LTYPE
  5
39
100
AcDbSymbolTableRecord
100
AcDbLinetypeTableRecord
  2
HIDDEN2
 70
0
  3
Hidden (.5x) _ _ _ _ _ _ _ _ _ _ _ _ _ _ _ _ _ 
 72
65
 73
2
 40
4.7624999999999993
 49
3.1749999999999998
 74
0
 49
-1.5874999999999999
 74
0
  0
LTYPE
  5
3A
100
AcDbSymbolTableRecord
100
AcDbLinetypeTableRecord
  2
PHANTOM
 70
0
  3
Phantom ______  __  __  ______  __  __  ______ 
 72
65
 73
6
 40
63.5000000000000071
 49
31.75
 74
0
 49
-6.3499999999999996
 74
0
 49
6.3499999999999996
 74
0
 49
-6.3499999999999996
 74
0
 49
6.3499999999999996
 74
0
 49
-6.3499999999999996
 74
0
  0
LTYPE
  5
3B
100
AcDbSymbolTableRecord
100
AcDbLinetypeTableRecord
  2
DASHDOT
 70
0
  3
Dash dot __ . __ . __ . __ . __ . __ . __ . __
 72
65
 73
4
 40
25.4000000000000021
 49
12.6999999999999993
 74
0
 49
-6.2999999999999998
 74
0
 49
0.1
 74
0
 49
-6.2999999999999998
 74
0
  0
LTYPE
  5
3C
100
AcDbSymbolTableRecord
100
AcDbLinetypeTableRecord
  2
DOTX2
 70
0
  3
Dot (2x) .  .  .  .  .  .  .  .  .  .  .  .  .  .
 72
65
 73
2
 40
12.6999999999999993
 49
0.1
 74
0
 49
-12.5999999999999996
 74
0
  0
LTYPE
  5
3D
100
AcDbSymbolTableRecord
100
AcDbLinetypeTableRecord
  2
CENTERX2
 70
0
  3
Center (2x) ________  __  ________  __  _____
 72
65
 73
4
 40
101.6000000000000085
 49
63.5
 74
0
 49
-12.6999999999999993
 74
0
 49
12.6999999999999993
 74
0
 49
-12.6999999999999993
 74
0
  0
LTYPE
  5
3E
100
AcDbSymbolTableRecord
100
AcDbLinetypeTableRecord
  2
CENTER
 70
0
  3
Center ____ _ ____ _ ____ _ ____ _ ____ _ ____
 72
65
 73
4
 40
50.8000000000000043
 49
31.75
 74
0
 49
-6.3499999999999996
 74
0
 49
6.3499999999999996
 74
0
 49
-6.3499999999999996
 74
0
  0
LTYPE
  5
3F
100
AcDbSymbolTableRecord
100
AcDbLinetypeTableRecord
  2
ACAD_ISO03W100
 70
0
  3
ISO dash space __    __    __    __    __    __
 72
65
 73
2
 40
30.0
 49
12.0
 74
0
 49
-18.0
 74
0
  0
LTYPE
  5
40
100
AcDbSymbolTableRecord
100
AcDbLinetypeTableRecord
  2
ACAD_ISO10W100
 70
0
  3
ISO dash dot __ . __ . __ . __ . __ . __ . __ . 
 72
65
 73
4
 40
18.0
 49
12.0
 74
0
 49
-2.9500000000000002
 74
0
 49
0.1
 74
0
 49
-2.9500000000000002
 74
0
  0
LTYPE
  5
41
100
AcDbSymbolTableRecord
100
AcDbLinetypeTableRecord
  2
DIVIDE
 70
0
  3
Divide ____ . . ____ . . ____ . . ____ . . ____
 72
65
 73
6
 40
31.7500000000000036
 49
12.6999999999999993
 74
0
 49
-6.2999999999999998
 74
0
 49
0.1
 74
0
 49
-6.25
 74
0
 49
0.1
 74
0
 49
-6.2999999999999998
 74
0
  0
LTYPE
  5
42
100
AcDbSymbolTableRecord
100
AcDbLinetypeTableRecord
  2
ACAD_ISO15W100
 70
0
  3
ISO double-dash triple-dot __ __ . . . __ __ . .
 72
65
 73
10
 40
39.0000000000000071
 49
12.0
 74
0
 49
-3.0
 74
0
 49
12.0
 74
0
 49
-2.9500000000000002
 74
0
 49
0.1
 74
0
 49
-2.9000000000000004
 74
0
 49
0.1
 74
0
 49
-2.9000000000000004
 74
0
 49
0.1
 74
0
 49
-2.9500000000000002
 74
0
  0
LTYPE
  5
43
100
AcDbSymbolTableRecord
100
AcDbLinetypeTableRecord
  2
PHANTOM2
 70
0
  3
Phantom (.5x) ___ _ _ ___ _ _ ___ _ _ ___ _ _
 72
65
 73
6
 40
31.7500000000000036
 49
15.875
 74
0
 49
-3.1749999999999998
 74
0
 49
3.1749999999999998
 74
0
 49
-3.1749999999999998
 74
0
 49
3.1749999999999998
 74
0
 49
-3.1749999999999998
 74
0
  0
LTYPE
  5
44
100
AcDbSymbolTableRecord
100
AcDbLinetypeTableRecord
  2
ACAD_ISO08W100
 70
0
  3
ISO long-dash short-dash ____ __ ____ __ ____ _
 72
65
 73
4
 40
36.0
 49
24.0
 74
0
 49
-3.0
 74
0
 49
6.0
 74
0
 49
-3.0
 74
0
  0
LTYPE
  5
45
100
AcDbSymbolTableRecord
100
AcDbLinetypeTableRecord
  2
BORDER2
 70
0
  3
Border (.5x) __.__.__.__.__.__.__.__.__.__.__.
 72
65
 73
6
 40
22.2250000000000014
 49
6.3499999999999996
 74
0
 49
-3.1749999999999998
 74
0
 49
6.3499999999999996
 74
0
 49
-3.125
 74
0
 49
0.1
 74
0
 49
-3.125
 74
0
  0
LTYPE
  5
46
100
AcDbSymbolTableRecord
100
AcDbLinetypeTableRecord
  2
ACAD_ISO12W100
 70
0
  3
ISO dash double-dot __ . . __ . . __ . . __ . . 
 72
65
 73
6
 40
21.0
 49
12.0
 74
0
 49
-2.9500000000000002
 74
0
 49
0.1
 74
0
 49
-2.9000000000000004
 74
0
 49
0.1
 74
0
 49
-2.9500000000000002
 74
0
  0
LTYPE
  5
47
100
AcDbSymbolTableRecord
100
AcDbLinetypeTableRecord
  2
HIDDEN
 70
0
  3
Hidden __ __ __ __ __ __ __ __ __ __ __ __ __ __
 72
65
 73
2
 40
9.5249999999999986
 49
6.3499999999999996
 74
0
 49
-3.1749999999999998
 74
0
  0
LTYPE
  5
48
100
AcDbSymbolTableRecord
100
AcDbLinetypeTableRecord
  2
ACAD_ISO07W100
 70
0
  3
ISO dot . . . . . . . . . . . . . . . . . . . . 
 72
65
 73
2
 40
3.0
 49
0.1
 74
0
 49
-2.8999999999999999
 74
0
  0
LTYPE
  5
49
100
AcDbSymbolTableRecord
100
AcDbLinetypeTableRecord
  2
DASHDOT2
 70
0
  3
Dash dot (.5x) _._._._._._._._._._._._._._._.
 72
65
 73
4
 40
12.6999999999999993
 49
6.3499999999999996
 74
0
 49
-3.125
 74
0
 49
0.1
 74
0
 49
-3.125
 74
0
  0
LTYPE
  5
4A
100
AcDbSymbolTableRecord
100
AcDbLinetypeTableRecord
  2
ACAD_ISO04W100
 70
0
  3
ISO long-dash dot ____ . ____ . ____ . ____ . _
 72
65
 73
4
 40
30.0
 49
24.0
 74
0
 49
-2.9500000000000002
 74
0
 49
0.1
 74
0
 49
-2.9500000000000002
 74
0
  0
LTYPE
  5
4B
100
AcDbSymbolTableRecord
100
AcDbLinetypeTableRecord
  2
BORDERX2
 70
0
  3
Border (2x) ____  ____  .  ____  ____  .  ___
 72
65
 73
6
 40
88.8999999999999773
 49
25.3999999999999986
 74
0
 49
-12.6999999999999993
 74
0
 49
25.3999999999999986
 74
0
 49
-12.6499999999999986
 74
0
 49
0.1
 74
0
 49
-12.6499999999999986
 74
0
  0
LTYPE
  5
4C
100
AcDbSymbolTableRecord
100
AcDbLinetypeTableRecord
  2
DASHEDX2
 70
0
  3
Dashed (2x) ____  ____  ____  ____  ____  ___
 72
65
 73
2
 40
38.0999999999999943
 49
25.3999999999999986
 74
0
 49
-12.6999999999999993
 74
0
  0
LTYPE
  5
4D
100
AcDbSymbolTableRecord
100
AcDbLinetypeTableRecord
  2
DASHED
 70
0
  3
Dashed __ __ __ __ __ __ __ __ __ __ __ __ __ _
 72
65
 73
2
 40
19.0499999999999972
 49
12.6999999999999993
 74
0
 49
-6.3499999999999996
 74
0
  0
LTYPE
  5
4E
100
AcDbSymbolTableRecord
100
AcDbLinetypeTableRecord
  2
ACAD_ISO02W100
 70
0
  3
ISO dash __ __ __ __ __ __ __ __ __ __ __ __ __
 72
65
 73
2
 40
15.0
 49
12.0
 74
0
 49
-3.0
 74
0
  0
LTYPE
  5
4F
100
AcDbSymbolTableRecord
100
AcDbLinetypeTableRecord
  2
DOT2
 70
0
  3
Dot (.5x) ........................................
 72
65
 73
2
 40
3.1749999999999998
 49
0.1
 74
0
 49
-3.0749999999999997
 74
0
  0
LTYPE
  5
50
100
AcDbSymbolTableRecord
100
AcDbLinetypeTableRecord
  2
ACAD_ISO06W100
 70
0
  3
ISO long-dash triple-dot ____ ... ____ ... ____
 72
65
 73
8
 40
36.0000000000000071
 49
24.0
 74
0
 49
-2.9500000000000002
 74
0
 49
0.1
 74
0
 49
-2.9000000000000004
 74
0
 49
0.1
 74
0
 49
-2.9000000000000004
 74
0
 49
0.1
 74
0
 49
-2.9500000000000002
 74
0
  0
LTYPE
  5
51
100
AcDbSymbolTableRecord
100
AcDbLinetypeTableRecord
  2
DASHDOTX2
 70
0
  3
Dash dot (2x) ____  .  ____  .  ____  .  ___
 72
65
 73
4
 40
50.7999999999999972
 49
25.3999999999999986
 74
0
 49
-12.6499999999999986
 74
0
 49
0.1
 74
0
 49
-12.6499999999999986
 74
0
  0
LTYPE
  5
52
100
AcDbSymbolTableRecord
100
AcDbLinetypeTableRecord
  2
PHANTOMX2
 70
0
  3
Phantom (2x) ____________    ____    ____   _
 72
65
 73
6
 40
127.0000000000000142
 49
63.5
 74
0
 49
-12.6999999999999993
 74
0
 49
12.6999999999999993
 74
0
 49
-12.6999999999999993
 74
0
 49
12.6999999999999993
 74
0
 49
-12.6999999999999993
 74
0
  0
LTYPE
  5
53
100
AcDbSymbolTableRecord
100
AcDbLinetypeTableRecord
  2
BORDER
 70
0
  3
Border __ __ . __ __ . __ __ . __ __ . __ __ .
 72
65
 73
6
 40
44.4499999999999957
 49
12.6999999999999993
 74
0
 49
-6.3499999999999996
 74
0
 49
12.6999999999999993
 74
0
 49
-6.2999999999999998
 74
0
 49
0.1
 74
0
 49
-6.2999999999999998
 74
0
  0
LTYPE
  5
54
100
AcDbSymbolTableRecord
100
AcDbLinetypeTableRecord
  2
HIDDENX2
 70
0
  3
Hidden (2x) ____ ____ ____ ____ ____ ____ ____ 
 72
65
 73
2
 40
19.0499999999999972
 49
12.6999999999999993
 74
0
 49
-6.3499999999999996
 74
0
  0
LTYPE
  5
55
100
AcDbSymbolTableRecord
100
AcDbLinetypeTableRecord
  2
ACAD_ISO13W100
 70
0
  3
ISO double-dash double-dot __ __ . . __ __ . . _
 72
65
 73
8
 40
36.0000000000000071
 49
12.0
 74
0
 49
-3.0
 74
0
 49
12.0
 74
0
 49
-2.9500000000000002
 74
0
 49
0.1
 74
0
 49
-2.9000000000000004
 74
0
 49
0.1
 74
0
 49
-2.9500000000000002
 74
0
  0
LTYPE
  5
14
100
AcDbSymbolTableRecord
100
AcDbLinetypeTableRecord
  2
BYBLOCK
 70
0
  3

 72
65
 73
0
 40
0.0
  0
LTYPE
  5
56
100
AcDbSymbolTableRecord
100
AcDbLinetypeTableRecord
  2
CENTER2
 70
0
  3
Center (.5x) ___ _ ___ _ ___ _ ___ _ ___ _ ___
 72
65
 73
4
 40
28.5750000000000028
 49
19.0500000000000007
 74
0
 49
-3.1749999999999998
 74
0
 49
3.1749999999999998
 74
0
 49
-3.1749999999999998
 74
0
  0
ENDTAB
  0
TABLE
  2
LAYER
  5
2
100
AcDbSymbolTable
 70
7
  0
LAYER
  5
57
100
AcDbSymbolTableRecord
100
AcDbLayerTableRecord
  2
Cotas
 70
0
 62
1
420
16711680
  6
Continuous
370
20
390
F
  0
LAYER
  5
58
100
AcDbSymbolTableRecord
100
AcDbLayerTableRecord
  2
Contornos Visibles
 70
0
 62
7
420
16777215
  6
Continuous
370
50
390
F
  0
LAYER
  5
59
100
AcDbSymbolTableRecord
100
AcDbLayerTableRecord
  2
Contornos Ocultos
 70
0
 62
252
420
10526884
  6
ACAD_ISO02W100
370
30
390
F
  0
LAYER
  5
5A
100
AcDbSymbolTableRecord
100
AcDbLayerTableRecord
  2
Ejes de revoluci\U+00f3n
 70
0
 62
6
420
16711935
  6
ACAD_ISO04W100
370
20
390
F
  0
LAYER
  5
10
100
AcDbSymbolTableRecord
100
AcDbLayerTableRecord
  2
0
 70
0
 62
7
420
16777215
  6
Continuous
370
25
390
F
  0
LAYER
  5
5B
100
AcDbSymbolTableRecord
100
AcDbLayerTableRecord
  2
Referencias 2
 70
1
 62
3
420
65280
  6
Continuous
370
25
390
F
  0
LAYER
  5
5C
100
AcDbSymbolTableRecord
100
AcDbLayerTableRecord
  2
Referencias
 70
0
 62
2
420
16776960
  6
Continuous
370
25
390
F
  0
ENDTAB
  0
TABLE
  2
STYLE
  5
3
100
AcDbSymbolTable
 70
3
  0
STYLE
  5
5D
100
AcDbSymbolTableRecord
100
AcDbTextStyleTableRecord
  2
Standard
 70
0
 40
0.0
 41
1.0
 50
0.0
 71
0
 42
2.5
  3

  4

1001
ACAD
1000
txt
1071
0
  0
STYLE
  5
5E
100
AcDbSymbolTableRecord
100
AcDbTextStyleTableRecord
  2
textstyle0
 70
0
 40
0.0
 41
1.0
 50
0.0
 71
0
 42
2.5
  3

  4

1001
ACAD
1000
Arial
1071
0
  0
STYLE
  5
5F
100
AcDbSymbolTableRecord
100
AcDbTextStyleTableRecord
  2
textstyle1
 70
0
 40
0.0
 41
1.0
 50
0.0
 71
0
 42
2.5
  3

  4

1001
ACAD
1000
Arial
1071
0
  0
ENDTAB
  0
TABLE
  2
VIEW
  5
6
100
AcDbSymbolTable
 70
0
  0
ENDTAB
  0
TABLE
  2
UCS
  5
7
100
AcDbSymbolTable
 70
0
  0
ENDTAB
  0
TABLE
  2
APPID
  5
9
100
AcDbSymbolTable
 70
1
  0
APPID
  5
12
100
AcDbSymbolTableRecord
100
AcDbRegAppTableRecord
  2
ACAD
 70
0
  0
APPID
  5
60
100
AcDbSymbolTableRecord
100
AcDbRegAppTableRecord
  2
QCAD
 70
0
  0
ENDTAB
  0
TABLE
  2
DIMSTYLE
  5
A
100
AcDbSymbolTable
 70
1
100
AcDbDimStyleTable
 71
0
  0
DIMSTYLE
105
27
100
AcDbSymbolTableRecord
100
AcDbDimStyleTableRecord
  2
Standard
 41
2.5
 42
0.625
 43
3.75
 44
1.25
 70
0
 73
0
 74
0
 77
1
 78
8
140
2.5
141
2.5
143
0.03937007874016
147
0.625
171
3
172
1
271
2
272
2
274
3
278
44
283
0
284
8
340
5D
  0
ENDTAB
  0
TABLE
  2
BLOCK_RECORD
  5
1
100
AcDbSymbolTable
 70
1
  0
BLOCK_RECORD
  5
1F
100
AcDbSymbolTableRecord
100
AcDbBlockTableRecord
  2
*Model_Space
340
22
  0
BLOCK_RECORD
  5
1B
100
AcDbSymbolTableRecord
100
AcDbBlockTableRecord
  2
*Paper_Space
340
1E
  0
BLOCK_RECORD
  5
23
100
AcDbSymbolTableRecord
100
AcDbBlockTableRecord
  2
*Paper_Space0
340
26
  0
ENDTAB
  0
ENDSEC
  0
SECTION
  2
BLOCKS
  0
BLOCK
  5
20
100
AcDbEntity
  8
0
100
AcDbBlockBegin
  2
*Model_Space
 70
0
 10
0.0
 20
0.0
 30
0.0
  3
*Model_Space
  1

  0
ENDBLK
  5
21
100
AcDbEntity
  8
0
100
AcDbBlockEnd
  0
BLOCK
  5
1C
100
AcDbEntity
 67
1
  8
0
100
AcDbBlockBegin
  2
*Paper_Space
 70
0
 10
0.0
 20
0.0
 30
0.0
  3
*Paper_Space
  1

  0
ENDBLK
  5
1D
100
AcDbEntity
 67
1
  8
0
100
AcDbBlockEnd
  0
BLOCK
  5
24
100
AcDbEntity
  8
0
100
AcDbBlockBegin
  2
*Paper_Space0
 70
0
 10
0.0
 20
0.0
 30
0.0
  3
*Paper_Space0
  1

  0
ENDBLK
  5
25
100
AcDbEntity
  8
0
100
AcDbBlockEnd
  0
ENDSEC
  0
SECTION
  2
ENTITIES
  0
IMAGE
  5
61
100
AcDbEntity
  8
0
 62
256
370
-1
 48
1.0
  6
BYLAYER
100
AcDbRasterImage
 90
0
 10
1831.4727950635647176
 20
575.3180794143140702
 30
0.0
 11
0.09765625
 21
0.0
 31
0.0
 12
0.0
 22
0.09765625
 32
0.0
 13
200.0
 23
141.0
340
62
 70
15
280
0
281
50
282
50
283
0
  0
ARC
  5
63
100
AcDbEntity
  8
Contornos Visibles
 62
256
370
-1
 48
1.0
  6
BYLAYER
100
AcDbCircle
 10
2285.0992439269039096
 20
645.0216557030710192
 30
0.0
 40
10.0
100
AcDbArc
 50
98.6269265586786048
 51
81.3730734413214236
  0
LINE
  5
64
100
AcDbEntity
  8
Contornos Visibles
 62
256
370
-1
 48
1.0
  6
BYLAYER
100
AcDbLine
 10
2283.5992439269039096
 20
657.0216557030710192
 30
0.0
 11
2286.5992439269039096
 21
657.0216557030710192
 31
0.0
  0
LINE
  5
65
100
AcDbEntity
  8
Contornos Visibles
 62
256
370
-1
 48
1.0
  6
BYLAYER
100
AcDbLine
 10
2283.5992439269039096
 20
654.9085156697136654
 30
0.0
 11
2283.5992439269039096
 21
657.0216557030710192
 31
0.0
  0
LINE
  5
66
100
AcDbEntity
  8
Contornos Visibles
 62
256
370
-1
 48
1.0
  6
BYLAYER
100
AcDbLine
 10
2286.5992439269039096
 20
654.9085156697136654
 30
0.0
 11
2286.5992439269039096
 21
657.0216557030710192
 31
0.0
  0
ARC
  5
67
100
AcDbEntity
  8
Ejes de revoluci\U+00f3n
 62
256
370
-1
 48
1.0
  6
BYLAYER
100
AcDbCircle
 10
2285.0992439269039096
 20
645.0216557030712465
 30
0.0
 40
40.0
100
AcDbArc
 50
143.1795520129497845
 51
150.3744201789221222
  0
ARC
  5
68
100
AcDbEntity
  8
Ejes de revoluci\U+00f3n
 62
256
370
-1
 48
1.0
  6
BYLAYER
100
AcDbCircle
 10
2285.0992439269039096
 20
645.0216557030712465
 30
0.0
 40
40.0
100
AcDbArc
 50
121.6513970530890276
 51
128.8462652190619337
  0
ARC
  5
69
100
AcDbEntity
  8
Ejes de revoluci\U+00f3n
 62
256
370
-1
 48
1.0
  6
BYLAYER
100
AcDbCircle
 10
2285.0992439269039096
 20
645.0216557030712465
 30
0.0
 40
40.0
100
AcDbArc
 50
97.1666433969441243
 51
104.3615115629163483
  0
ARC
  5
6A
100
AcDbEntity
  8
Ejes de revoluci\U+00f3n
 62
256
370
-1
 48
1.0
  6
BYLAYER
100
AcDbCircle
 10
2285.0992439269039096
 20
645.0216557030712465
 30
0.0
 40
40.0
100
AcDbArc
 50
128.8462652190618485
 51
143.1795520129497845
  0
ARC
  5
6B
100
AcDbEntity
  8
Ejes de revoluci\U+00f3n
 62
256
370
-1
 48
1.0
  6
BYLAYER
100
AcDbCircle
 10
2285.0992439269039096
 20
645.0216557030712465
 30
0.0
 40
40.0
100
AcDbArc
 50
75.6384884370836517
 51
82.8333566030558757
  0
ARC
  5
6C
100
AcDbEntity
  8
Contornos Visibles
 62
256
370
-1
 48
1.0
  6
BYLAYER
100
AcDbCircle
 10
2285.0992439269039096
 20
645.0216557030712465
 30
0.0
 40
40.0
100
AcDbArc
 50
104.3615115629163483
 51
121.6513970530889281
  0
ARC
  5
6D
100
AcDbEntity
  8
Ejes de revoluci\U+00f3n
 62
256
370
-1
 48
1.0
  6
BYLAYER
100
AcDbCircle
 10
2285.0992439269039096
 20
645.0216557030712465
 30
0.0
 40
40.0
100
AcDbArc
 50
51.1537347809380663
 51
58.3486029469109724
  0
ARC
  5
6E
100
AcDbEntity
  8
Ejes de revoluci\U+00f3n
 62
256
370
-1
 48
1.0
  6
BYLAYER
100
AcDbCircle
 10
2285.0992439269039096
 20
645.0216557030712465
 30
0.0
 40
40.0
100
AcDbArc
 50
82.8333566030558757
 51
97.1666433969441243
  0
ARC
  5
6F
100
AcDbEntity
  8
Ejes de revoluci\U+00f3n
 62
256
370
-1
 48
1.0
  6
BYLAYER
100
AcDbCircle
 10
2285.0992439269039096
 20
645.0216557030712465
 30
0.0
 40
40.0
100
AcDbArc
 50
29.6255798210778956
 51
36.8204479870502297
  0
ARC
  5
70
100
AcDbEntity
  8
Contornos Visibles
 62
256
370
-1
 48
1.0
  6
BYLAYER
100
AcDbCircle
 10
2285.0992439269039096
 20
645.0216557030712465
 30
0.0
 40
40.0
100
AcDbArc
 50
58.3486029469110647
 51
75.6384884370836517
  0
ARC
  5
71
100
AcDbEntity
  8
Contornos Visibles
 62
256
370
-1
 48
1.0
  6
BYLAYER
100
AcDbCircle
 10
2285.0992439269039096
 20
645.0216557030712465
 30
0.0
 40
40.0
100
AcDbArc
 50
150.3744201789222643
 51
29.625579821077725
  0
ARC
  5
72
100
AcDbEntity
  8
Ejes de revoluci\U+00f3n
 62
256
370
-1
 48
1.0
  6
BYLAYER
100
AcDbCircle
 10
2285.0992439269039096
 20
645.0216557030712465
 30
0.0
 40
40.0
100
AcDbArc
 50
36.8204479870501018
 51
51.1537347809381728
  0
CIRCLE
  5
73
100
AcDbEntity
  8
Contornos Visibles
 62
256
370
-1
 48
1.0
  6
BYLAYER
100
AcDbCircle
 10
2285.0992439269039096
 20
685.0216557030712465
 30
0.0
 40
5.0
  0
LINE
  5
74
100
AcDbEntity
  8
Ejes de revoluci\U+00f3n
 62
256
370
-1
 48
1.0
  6
BYLAYER
100
AcDbLine
 10
2285.0992439269039096
 20
645.0216557030710192
 30
0.0
 11
2249.7660244523121946
 21
680.3548751776626204
 31
0.0
  0
LINE
  5
75
100
AcDbEntity
  8
Ejes de revoluci\U+00f3n
 62
256
370
-1
 48
1.0
  6
BYLAYER
100
AcDbLine
 10
2285.0992439269039096
 20
645.0216557030710192
 30
0.0
 11
2320.4324634014956246
 21
680.3548751776626204
 31
0.0
  0
CIRCLE
  5
76
100
AcDbEntity
  8
Contornos Visibles
 62
256
370
-1
 48
1.0
  6
BYLAYER
100
AcDbCircle
 10
2256.3193924421452721
 20
672.8015071878297704
 30
0.0
 40
4.9999999999999201
  0
CIRCLE
  5
77
100
AcDbEntity
  8
Contornos Visibles
 62
256
370
-1
 48
1.0
  6
BYLAYER
100
AcDbCircle
 10
2313.8790954116625471
 20
672.8015071878297704
 30
0.0
 40
4.9999999999999201
  0
ARC
  5
78
100
AcDbEntity
  8
Contornos Visibles
 62
256
370
-1
 48
1.0
  6
BYLAYER
100
AcDbCircle
 10
2256.3193924421452721
 20
672.8015071878297704
 30
0.0
 40
10.0000000000000409
100
AcDbArc
 50
38.8321528345464557
 51
233.1936643974664776
  0
ARC
  5
79
100
AcDbEntity
  8
Contornos Visibles
 62
256
370
-1
 48
1.0
  6
BYLAYER
100
AcDbCircle
 10
2285.0992439269039096
 20
685.0216557030712465
 30
0.0
 40
10.0
100
AcDbArc
 50
352.8192442185415416
 51
187.1807557814584015
  0
ARC
  5
7A
100
AcDbEntity
  8
Contornos Visibles
 62
256
370
-1
 48
1.0
  6
BYLAYER
100
AcDbCircle
 10
2313.8790954116625471
 20
672.8015071878297704
 30
0.0
 40
10.0000000000000409
100
AcDbArc
 50
306.8063356025335224
 51
141.1678471654535656
  0
ARC
  5
7B
100
AcDbEntity
  8
Ejes de revoluci\U+00f3n
 62
256
370
-1
 48
1.0
  6
BYLAYER
100
AcDbCircle
 10
2285.0992439269039096
 20
645.0216557030712465
 30
0.0
 40
65.0
100
AcDbArc
 50
170.0
 51
10.0
  0
ARC
  5
7C
100
AcDbEntity
  8
Referencias 2
 62
256
370
-1
 48
1.0
  6
BYLAYER
100
AcDbCircle
 10
2350.0992439269039096
 20
645.0216557030710192
 30
0.0
 40
10.0
100
AcDbArc
 50
194.4775121859300953
 51
165.5224878140699047
  0
ARC
  5
7D
100
AcDbEntity
  8
Contornos Visibles
 62
256
370
-1
 48
1.0
  6
BYLAYER
100
AcDbCircle
 10
2220.0992439269039096
 20
645.0216557030712465
 30
0.0
 40
10.0
100
AcDbArc
 50
345.5224878140699047
 51
14.4775121859300704
  0
ARC
  5
7E
100
AcDbEntity
  8
Contornos Visibles
 62
256
370
-1
 48
1.0
  6
BYLAYER
100
AcDbCircle
 10
2222.3140652181145924
 20
628.1984177714072075
 30
0.0
 40
10.0
100
AcDbArc
 50
0.5224878140698967
 51
29.4775121859300668
  0
ARC
  5
7F
100
AcDbEntity
  8
Contornos Visibles
 62
256
370
-1
 48
1.0
  6
BYLAYER
100
AcDbCircle
 10
2228.8075926809156044
 20
612.5216557030710192
 30
0.0
 40
10.0
100
AcDbArc
 50
15.5224878140699296
 51
44.4775121859300668
  0
ARC
  5
80
100
AcDbEntity
  8
Contornos Visibles
 62
256
370
-1
 48
1.0
  6
BYLAYER
100
AcDbCircle
 10
2239.1373031497782904
 20
599.0597149259454
 30
0.0
 40
10.0
100
AcDbArc
 50
30.5224878140699154
 51
59.4775121859300739
  0
ARC
  5
81
100
AcDbEntity
  8
Contornos Visibles
 62
256
370
-1
 48
1.0
  6
BYLAYER
100
AcDbCircle
 10
2252.5992439269039096
 20
588.7300044570824866
 30
0.0
 40
10.0
100
AcDbArc
 50
45.5224878140698976
 51
74.4775121859300668
  0
ARC
  5
82
100
AcDbEntity
  8
Contornos Visibles
 62
256
370
-1
 48
1.0
  6
BYLAYER
100
AcDbCircle
 10
2268.2760059952402116
 20
582.2364769942815883
 30
0.0
 40
10.0
100
AcDbArc
 50
60.5224878140699261
 51
89.4775121859300668
  0
ARC
  5
83
100
AcDbEntity
  8
Contornos Visibles
 62
256
370
-1
 48
1.0
  6
BYLAYER
100
AcDbCircle
 10
2285.0992439269039096
 20
580.0216557030710192
 30
0.0
 40
10.0
100
AcDbArc
 50
75.522487814069919
 51
104.4775121859300668
  0
ARC
  5
84
100
AcDbEntity
  8
Contornos Visibles
 62
256
370
-1
 48
1.0
  6
BYLAYER
100
AcDbCircle
 10
2301.9224818585676076
 20
582.2364769942815883
 30
0.0
 40
10.0
100
AcDbArc
 50
90.5224878140699047
 51
119.4775121859300668
  0
ARC
  5
85
100
AcDbEntity
  8
Contornos Visibles
 62
256
370
-1
 48
1.0
  6
BYLAYER
100
AcDbCircle
 10
2317.5992439269039096
 20
588.7300044570824866
 30
0.0
 40
10.0
100
AcDbArc
 50
105.5224878140698905
 51
134.4775121859300668
  0
ARC
  5
86
100
AcDbEntity
  8
Contornos Visibles
 62
256
370
-1
 48
1.0
  6
BYLAYER
100
AcDbCircle
 10
2331.0611847040295288
 20
599.0597149259454
 30
0.0
 40
10.0
100
AcDbArc
 50
120.5224878140698479
 51
149.4775121859300668
  0
ARC
  5
87
100
AcDbEntity
  8
Contornos Visibles
 62
256
370
-1
 48
1.0
  6
BYLAYER
100
AcDbCircle
 10
2341.3908951728922148
 20
612.5216557030710192
 30
0.0
 40
10.0
100
AcDbArc
 50
135.5224878140699332
 51
164.4775121859300384
  0
ARC
  5
88
100
AcDbEntity
  8
Contornos Visibles
 62
256
370
-1
 48
1.0
  6
BYLAYER
100
AcDbCircle
 10
2347.8844226356932268
 20
628.1984177714072075
 30
0.0
 40
10.0
100
AcDbArc
 50
150.5224878140699332
 51
179.4775121859300668
  0
ARC
  5
89
100
AcDbEntity
  8
Contornos Visibles
 62
256
370
-1
 48
1.0
  6
BYLAYER
100
AcDbCircle
 10
2350.0992439269039096
 20
645.0216557030710192
 30
0.0
 40
10.0
100
AcDbArc
 50
165.5224878140699047
 51
194.4775121859300668
  0
LINE
  5
8A
100
AcDbEntity
  8
Contornos Visibles
 62
256
370
-1
 48
1.0
  6
BYLAYER
100
AcDbLine
 10
2229.7817022924223238
 20
647.5216557030710192
 30
0.0
 11
2245.1774453702255414
 21
647.5216557030710192
 31
0.0
  0
LINE
  5
8B
100
AcDbEntity
  8
Contornos Visibles
 62
256
370
-1
 48
1.0
  6
BYLAYER
100
AcDbLine
 10
2231.0195542025808209
 20
633.1192369655382208
 30
0.0
 11
2245.8907000563422116
 21
637.1039484875789185
 31
0.0
  0
LINE
  5
8C
100
AcDbEntity
  8
Contornos Visibles
 62
256
370
-1
 48
1.0
  6
BYLAYER
100
AcDbLine
 10
2235.9428475965396501
 20
619.5279483952913324
 30
0.0
 11
2249.275952212055472
 21
627.2258199341929412
 31
0.0
  0
LINE
  5
8D
100
AcDbEntity
  8
Contornos Visibles
 62
256
370
-1
 48
1.0
  6
BYLAYER
100
AcDbLine
 10
2244.2160681656264387
 20
607.6740138477263145
 30
0.0
 11
2255.1025024973469044
 21
618.5604481794467802
 31
0.0
  0
LINE
  5
8E
100
AcDbEntity
  8
Contornos Visibles
 62
256
370
-1
 48
1.0
  6
BYLAYER
100
AcDbLine
 10
2255.2754096002017832
 20
598.365259372706646
 30
0.0
 11
2262.9732811391036194
 21
611.6983639882225816
 31
0.0
  0
LINE
  5
8F
100
AcDbEntity
  8
Contornos Visibles
 62
256
370
-1
 48
1.0
  6
BYLAYER
100
AcDbLine
 10
2268.3671960579258666
 20
592.2360612042607499
 30
0.0
 11
2272.3519075799667917
 21
607.107207058022027
 31
0.0
  0
LINE
  5
90
100
AcDbEntity
  8
Contornos Visibles
 62
256
370
-1
 48
1.0
  6
BYLAYER
100
AcDbLine
 10
2282.5992439269039096
 20
589.7041140685894334
 30
0.0
 11
2282.5992439269039096
 21
605.099857146392651
 31
0.0
  0
LINE
  5
91
100
AcDbEntity
  8
Contornos Visibles
 62
256
370
-1
 48
1.0
  6
BYLAYER
100
AcDbLine
 10
2297.0016626644364806
 20
590.9419659787481578
 30
0.0
 11
2293.0169511423960103
 21
605.8131118325094349
 31
0.0
  0
LINE
  5
92
100
AcDbEntity
  8
Contornos Visibles
 62
256
370
-1
 48
1.0
  6
BYLAYER
100
AcDbLine
 10
2310.592951234683369
 20
595.8652593727065323
 30
0.0
 11
2302.8950796957819875
 21
609.1983639882225816
 31
0.0
  0
LINE
  5
93
100
AcDbEntity
  8
Contornos Visibles
 62
256
370
-1
 48
1.0
  6
BYLAYER
100
AcDbLine
 10
2322.4468857822485006
 20
604.1384799417935483
 30
0.0
 11
2311.5604514505280349
 21
615.0249142735141277
 31
0.0
  0
LINE
  5
94
100
AcDbEntity
  8
Contornos Visibles
 62
256
370
-1
 48
1.0
  6
BYLAYER
100
AcDbLine
 10
2331.7556402572681691
 20
615.1978213763690064
 30
0.0
 11
2318.4225356417523471
 21
622.8956929152707289
 31
0.0
  0
LINE
  5
95
100
AcDbEntity
  8
Contornos Visibles
 62
256
370
-1
 48
1.0
  6
BYLAYER
100
AcDbLine
 10
2337.8848384257139514
 20
628.2896078340928625
 30
0.0
 11
2323.0136925719530154
 21
632.2743193561336739
 31
0.0
  0
LINE
  5
96
100
AcDbEntity
  8
Contornos Visibles
 62
256
370
-1
 48
1.0
  6
BYLAYER
100
AcDbLine
 10
2340.4167855613854954
 20
642.5216557030710192
 30
0.0
 11
2325.0210424835822778
 21
642.5216557030710192
 31
0.0
  0
LINE
  5
97
100
AcDbEntity
  8
Contornos Visibles
 62
256
370
-1
 48
1.0
  6
BYLAYER
100
AcDbLine
 10
2229.7817022924223238
 20
642.5216557030709055
 30
0.0
 11
2245.1774453702255414
 21
642.5216557030710192
 31
0.0
  0
LINE
  5
98
100
AcDbEntity
  8
Contornos Visibles
 62
256
370
-1
 48
1.0
  6
BYLAYER
100
AcDbLine
 10
2232.3136494280938678
 20
628.2896078340927488
 30
0.0
 11
2247.1847952818548038
 21
632.2743193561336739
 31
0.0
  0
LINE
  5
99
100
AcDbEntity
  8
Contornos Visibles
 62
256
370
-1
 48
1.0
  6
BYLAYER
100
AcDbLine
 10
2238.4428475965396501
 20
615.1978213763690064
 30
0.0
 11
2251.775952212055472
 21
622.8956929152707289
 31
0.0
  0
LINE
  5
9A
100
AcDbEntity
  8
Contornos Visibles
 62
256
370
-1
 48
1.0
  6
BYLAYER
100
AcDbLine
 10
2247.7516020715593186
 20
604.1384799417934346
 30
0.0
 11
2258.6380364032797843
 21
615.0249142735141277
 31
0.0
  0
LINE
  5
9B
100
AcDbEntity
  8
Contornos Visibles
 62
256
370
-1
 48
1.0
  6
BYLAYER
100
AcDbLine
 10
2259.6055366191244502
 20
595.8652593727065323
 30
0.0
 11
2267.3034081580258317
 21
609.1983639882226953
 31
0.0
  0
LINE
  5
9C
100
AcDbEntity
  8
Contornos Visibles
 62
256
370
-1
 48
1.0
  6
BYLAYER
100
AcDbLine
 10
2273.1968251893713386
 20
590.9419659787481578
 30
0.0
 11
2277.1815367114118089
 21
605.8131118325094349
 31
0.0
  0
LINE
  5
9D
100
AcDbEntity
  8
Contornos Visibles
 62
256
370
-1
 48
1.0
  6
BYLAYER
100
AcDbLine
 10
2287.5992439269039096
 20
589.7041140685894334
 30
0.0
 11
2287.5992439269039096
 21
605.099857146392651
 31
0.0
  0
LINE
  5
9E
100
AcDbEntity
  8
Contornos Visibles
 62
256
370
-1
 48
1.0
  6
BYLAYER
100
AcDbLine
 10
2301.8312917958824073
 20
592.2360612042607499
 30
0.0
 11
2297.8465802738410275
 21
607.107207058022027
 31
0.0
  0
LINE
  5
9F
100
AcDbEntity
  8
Contornos Visibles
 62
256
370
-1
 48
1.0
  6
BYLAYER
100
AcDbLine
 10
2314.923078253606036
 20
598.365259372706646
 30
0.0
 11
2307.2252067147041998
 21
611.6983639882225816
 31
0.0
  0
LINE
  5
A0
100
AcDbEntity
  8
Contornos Visibles
 62
256
370
-1
 48
1.0
  6
BYLAYER
100
AcDbLine
 10
2325.9824196881813805
 20
607.6740138477264281
 30
0.0
 11
2315.0959853564609148
 21
618.5604481794467802
 31
0.0
  0
LINE
  5
A1
100
AcDbEntity
  8
Contornos Visibles
 62
256
370
-1
 48
1.0
  6
BYLAYER
100
AcDbLine
 10
2334.2556402572681691
 20
619.5279483952914461
 30
0.0
 11
2320.9225356417523471
 21
627.2258199341928275
 31
0.0
  0
LINE
  5
A2
100
AcDbEntity
  8
Contornos Visibles
 62
256
370
-1
 48
1.0
  6
BYLAYER
100
AcDbLine
 10
2339.1789336512269983
 20
633.1192369655383345
 30
0.0
 11
2324.3077877974656076
 21
637.1039484875789185
 31
0.0
  0
LINE
  5
A3
100
AcDbEntity
  8
Contornos Visibles
 62
256
370
-1
 48
1.0
  6
BYLAYER
100
AcDbLine
 10
2340.4167855613854954
 20
647.5216557030712465
 30
0.0
 11
2325.0210424835822778
 21
647.5216557030710192
 31
0.0
  0
LINE
  5
A4
100
AcDbEntity
  8
Ejes de revoluci\U+00f3n
 62
256
370
-1
 48
1.0
  6
BYLAYER
100
AcDbLine
 10
2285.0992439269039096
 20
580.0216557030712465
 30
0.0
 11
2285.0992439269039096
 21
695.0216557030712465
 31
0.0
  0
LINE
  5
A5
100
AcDbEntity
  8
Ejes de revoluci\U+00f3n
 62
256
370
-1
 48
1.0
  6
BYLAYER
100
AcDbLine
 10
2220.0992439269039096
 20
645.0216557030712465
 30
0.0
 11
2285.0992439269034548
 21
645.0216557030707918
 31
0.0
  0
LINE
  5
A6
100
AcDbEntity
  8
Ejes de revoluci\U+00f3n
 62
256
370
-1
 48
1.0
  6
BYLAYER
100
AcDbLine
 10
2350.0992439269039096
 20
645.0216557030709055
 30
0.0
 11
2285.0992439269034548
 21
645.0216557030707918
 31
0.0
  0
LINE
  5
A7
100
AcDbEntity
  8
Ejes de revoluci\U+00f3n
 62
256
370
-1
 48
1.0
  6
BYLAYER
100
AcDbLine
 10
2222.3140652181145924
 20
628.1984177714072075
 30
0.0
 11
2246.462210875341043
 21
634.6688938989701683
 31
0.0
  0
LINE
  5
A8
100
AcDbEntity
  8
Ejes de revoluci\U+00f3n
 62
256
370
-1
 48
1.0
  6
BYLAYER
100
AcDbLine
 10
2228.8075926809156044
 20
612.5216557030711328
 30
0.0
 11
2250.4582277755262112
 21
625.0216557030709055
 31
0.0
  0
LINE
  5
A9
100
AcDbEntity
  8
Ejes de revoluci\U+00f3n
 62
256
370
-1
 48
1.0
  6
BYLAYER
100
AcDbLine
 10
2239.1373031497782904
 20
599.0597149259455136
 30
0.0
 11
2256.8149726794417802
 21
616.7373844556090035
 31
0.0
  0
LINE
  5
AA
100
AcDbEntity
  8
Ejes de revoluci\U+00f3n
 62
256
370
-1
 48
1.0
  6
BYLAYER
100
AcDbLine
 10
2252.5992439269039096
 20
588.7300044570826003
 30
0.0
 11
2265.0992439269034548
 21
610.3806395516933208
 31
0.0
  0
LINE
  5
AB
100
AcDbEntity
  8
Ejes de revoluci\U+00f3n
 62
256
370
-1
 48
1.0
  6
BYLAYER
100
AcDbLine
 10
2268.2760059952397569
 20
582.2364769942815883
 30
0.0
 11
2274.7464821228027176
 21
606.3846226515080389
 31
0.0
  0
LINE
  5
AC
100
AcDbEntity
  8
Ejes de revoluci\U+00f3n
 62
256
370
-1
 48
1.0
  6
BYLAYER
100
AcDbLine
 10
2285.0992439269034548
 20
580.0216557030710192
 30
0.0
 11
2285.0992439269039096
 21
605.0216557030706781
 31
0.0
  0
LINE
  5
AD
100
AcDbEntity
  8
Ejes de revoluci\U+00f3n
 62
256
370
-1
 48
1.0
  6
BYLAYER
100
AcDbLine
 10
2301.9224818585676076
 20
582.2364769942814746
 30
0.0
 11
2295.4520057310046468
 21
606.3846226515079252
 31
0.0
  0
LINE
  5
AE
100
AcDbEntity
  8
Ejes de revoluci\U+00f3n
 62
256
370
-1
 48
1.0
  6
BYLAYER
100
AcDbLine
 10
2317.5992439269034548
 20
588.7300044570822593
 30
0.0
 11
2305.0992439269039096
 21
610.3806395516930934
 31
0.0
  0
LINE
  5
AF
100
AcDbEntity
  8
Ejes de revoluci\U+00f3n
 62
256
370
-1
 48
1.0
  6
BYLAYER
100
AcDbLine
 10
2331.0611847040290741
 20
599.0597149259451726
 30
0.0
 11
2313.3835151743655842
 21
616.7373844556086624
 31
0.0
  0
LINE
  5
B0
100
AcDbEntity
  8
Ejes de revoluci\U+00f3n
 62
256
370
-1
 48
1.0
  6
BYLAYER
100
AcDbLine
 10
2341.3908951728922148
 20
612.5216557030706781
 30
0.0
 11
2319.740260078281608
 21
625.0216557030705644
 31
0.0
  0
LINE
  5
B1
100
AcDbEntity
  8
Ejes de revoluci\U+00f3n
 62
256
370
-1
 48
1.0
  6
BYLAYER
100
AcDbLine
 10
2347.8844226356932268
 20
628.1984177714067528
 30
0.0
 11
2323.7362769784667762
 21
634.6688938989697135
 31
0.0
  0
DIMENSION
  5
B2
100
AcDbEntity
  8
Cotas
 62
256
370
-1
 48
1.0
  6
BYLAYER
100
AcDbDimension
 10
2282.5992439269039096
 20
574.3030424229563096
 30
0.0
 11
2285.0992439269039096
 21
576.1780424229563096
 31
0.0
 70
0
 71
8
 72
2
 74
0
 75
0
 41
1.0
 42
0.0
  1

  3
Standard
100
AcDbAlignedDimension
 13
2282.5992439269039096
 23
589.7041140685895471
 33
0.0
 14
2287.5992439269039096
 24
589.7041140685895471
 34
0.0
 50
0.0
100
AcDbRotatedDimension
1001
ACAD
1000
DSTYLE
1002
{
1070
144
1040
1.0
1070
40
1040
1.0
1002
}
  0
DIMENSION
  5
B3
100
AcDbEntity
  8
Cotas
 62
256
370
-1
 48
1.0
  6
BYLAYER
100
AcDbDimension
 10
2350.0992439269039096
 20
645.0216557030710192
 30
0.0
 11
2354.5582073776777179
 21
642.0834130404131201
 31
0.0
 70
4
 71
8
 72
2
 74
0
 41
1.0
 42
0.0
  1
R<>
  3
Standard
100
AcDbRadialDimension
 15
2355.9857052130882948
 25
636.937747395435963
 35
0.0
 40
0.0
1001
ACAD
1000
DSTYLE
1002
{
1070
144
1040
1.0
1070
40
1040
1.0
1002
}
  0
ARC
  5
B4
100
AcDbEntity
  8
Ejes de revoluci\U+00f3n
 62
256
370
-1
 48
1.0
  6
BYLAYER
100
AcDbCircle
 10
2350.0992439269039096
 20
645.0216557030709055
 30
0.0
 40
10.0
100
AcDbArc
 50
194.47751218592947
 51
306.0609921316524265
  0
MTEXT
  5
B5
100
AcDbEntity
  8
Cotas
 62
256
370
-1
 48
1.0
  6
BYLAYER
100
AcDbMText
 10
2327.6413032458658563
 20
587.4237287745993399
 30
0.0
 40
2.5
 41
0.0
 71
1
 72
1
  1
%%c130
  7
textstyle0
 50
0.0
 73
2
 44
1.0
  0
LEADER
  5
B6
100
AcDbEntity
  8
Cotas
 62
256
370
-1
 48
1.0
  6
BYLAYER
100
AcDbLeader
  3
Standard
 71
1
 72
0
 73
3
 74
0
 75
0
 40
1.0
 41
10.0
 76
3
 10
2311.0316438442273466
 20
585.4187142108260105
 10
2327.3913032458658563
 20
584.5287765235761981
 10
2335.4599520164965725
 20
584.5287765235761981
1001
ACAD
1000
DSTYLE
1002
{
1070
40
1040
1.0
1002
}
  0
DIMENSION
  5
B7
100
AcDbEntity
  8
Cotas
 62
256
370
-1
 48
1.0
  6
BYLAYER
100
AcDbDimension
 10
2222.3140652181145924
 20
628.1984177714072075
 30
0.0
 11
2211.5734736066533515
 21
635.3418044033727483
 31
0.0
 70
2
 71
8
 72
2
 74
0
 75
0
 41
1.0
 42
0.0
  1

  3
Standard
100
AcDb2LineAngularDimension
 13
2220.0992439269039096
 23
645.0216557030712465
 33
0.0
 14
2285.0992439269034548
 24
645.0216557030707918
 34
0.0
 15
2246.462210875341043
 25
634.6688938989701683
 35
0.0
 16
2210.4455924179233079
 26
630.5929622903402105
 36
0.0
  0
MTEXT
  5
B8
100
AcDbEntity
  8
Cotas
 62
256
370
-1
 48
1.0
  6
BYLAYER
100
AcDbMText
 10
2237.0010220658164144
 20
664.3456579175682464
 30
0.0
 40
2.5
 41
0.0
 71
1
 72
1
  1
%%c80
  7
textstyle1
 50
0.0
 73
2
 44
1.0
  0
LEADER
  5
B9
100
AcDbEntity
  8
Cotas
 62
256
370
-1
 48
1.0
  6
BYLAYER
100
AcDbLeader
  3
Standard
 71
1
 72
0
 73
3
 74
0
 75
0
 40
1.0
 41
10.0
 76
3
 10
2246.8680858869988697
 20
656.7850971607319934
 10
2242.8764772453750993
 20
661.4507056665451046
 10
2236.7510220658164144
 20
661.4507056665451046
1001
ACAD
1000
DSTYLE
1002
{
1070
40
1040
1.0
1002
}
  0
DIMENSION
  5
BA
100
AcDbEntity
  8
Cotas
 62
256
370
-1
 48
1.0
  6
BYLAYER
100
AcDbDimension
 10
2320.4324634014956246
 20
680.3548751776626204
 30
0.0
 11
2285.0992439269039096
 21
714.0962970859425241
 31
0.0
 70
2
 71
8
 72
2
 74
0
 75
0
 41
1.0
 42
0.0
  1

  3
Standard
100
AcDb2LineAngularDimension
 13
2249.7660244523121946
 23
680.3548751776626204
 33
0.0
 14
2285.0992439269039096
 24
645.0216557030710192
 34
0.0
 15
2285.0992439269039096
 25
645.0216557030710192
 35
0.0
 16
2321.0104887556435642
 26
701.8210773272113556
 36
0.0
  0
DIMENSION
  5
BB
100
AcDbEntity
  8
Cotas
 62
256
370
-1
 48
1.0
  6
BYLAYER
100
AcDbDimension
 10
2289.2202237992469236
 20
682.1901322806457983
 30
0.0
 11
2292.8062601485648884
 21
682.0481286940084829
 31
0.0
 70
131
 71
8
 72
2
 74
0
 75
0
 41
1.0
 42
0.0
  1
\U+00f8<>
  3
Standard
100
AcDbDiametricDimension
 15
2280.9782640545608956
 25
687.8531791254966947
 35
0.0
 40
0.0
1001
ACAD
1000
DSTYLE
1002
{
1070
279
1070
2
1070
144
1040
1.0
1070
40
1040
1.0
1002
}
  0
DIMENSION
  5
BC
100
AcDbEntity
  8
Cotas
 62
256
370
-1
 48
1.0
  6
BYLAYER
100
AcDbDimension
 10
2333.5196108075201664
 20
676.5010137197689346
 30
0.0
 11
2328.2282232505062893
 21
677.219931462960858
 31
0.0
 70
4
 71
8
 72
2
 74
0
 41
1.0
 42
0.0
  1
R<>
  3
Standard
100
AcDbRadialDimension
 15
2323.7688483558622465
 25
674.2823132867811182
 35
0.0
 40
0.0
1001
ACAD
1000
DSTYLE
1002
{
1070
144
1040
1.0
1070
40
1040
1.0
1002
}
  0
DIMENSION
  5
BD
100
AcDbEntity
  8
Cotas
 62
256
370
-1
 48
1.0
  6
BYLAYER
100
AcDbDimension
 10
2323.0501015202312374
 20
657.6601844121805698
 30
0.0
 11
2315.7837386055812203
 21
657.8848937729641193
 31
0.0
 70
131
 71
8
 72
2
 74
0
 75
0
 41
1.0
 42
0.0
  1
\U+00f8<>
  3
Standard
100
AcDbDiametricDimension
 15
2247.1483863335765818
 25
632.3831269939619233
 35
0.0
 40
0.0
1001
ACAD
1000
DSTYLE
1002
{
1070
279
1070
2
1070
144
1040
1.0
1070
40
1040
1.0
1002
}
  0
DIMENSION
  5
BE
100
AcDbEntity
  8
Cotas
 62
256
370
-1
 48
1.0
  6
BYLAYER
100
AcDbDimension
 10
2283.5992439269043643
 20
664.9062495636921994
 30
0.0
 11
2285.0992439269039096
 21
666.7812495636921994
 31
0.0
 70
0
 71
8
 72
2
 74
0
 75
0
 41
1.0
 42
0.0
  1

  3
Standard
100
AcDbAlignedDimension
 13
2283.5992439269043643
 23
657.0216557030711328
 33
0.0
 14
2286.5992439269039096
 24
657.0216557030711328
 34
0.0
 50
0.0
100
AcDbRotatedDimension
1001
ACAD
1000
DSTYLE
1002
{
1070
144
1040
1.0
1070
40
1040
1.0
1002
}
  0
DIMENSION
  5
BF
100
AcDbEntity
  8
Cotas
 62
256
370
-1
 48
1.0
  6
BYLAYER
100
AcDbDimension
 10
2309.4692407379839096
 20
657.0216557030710192
 30
0.0
 11
2307.5942407379839096
 21
646.0216557030710192
 31
0.0
 70
0
 71
8
 72
2
 74
0
 75
0
 41
1.0
 42
0.0
  1

  3
Standard
100
AcDbAlignedDimension
 13
2285.0992439269039096
 23
657.0216557030710192
 33
0.0
 14
2285.0992439269039096
 24
635.0216557030710192
 34
0.0
 50
90.0
100
AcDbRotatedDimension
1001
ACAD
1000
DSTYLE
1002
{
1070
144
1040
1.0
1070
40
1040
1.0
1002
}
  0
DIMENSION
  5
C0
100
AcDbEntity
  8
Cotas
 62
256
370
-1
 48
1.0
  6
BYLAYER
100
AcDbDimension
 10
2275.5560539577936652
 20
648.0095521560074303
 30
0.0
 11
2272.62978664117054
 21
650.6157010933881111
 31
0.0
 70
131
 71
8
 72
2
 74
0
 75
0
 41
1.0
 42
0.0
  1
\U+00f8<>
  3
Standard
100
AcDbDiametricDimension
 15
2294.642433896014154
 25
642.033759250134608
 35
0.0
 40
0.0
1001
ACAD
1000
DSTYLE
1002
{
1070
279
1070
2
1070
144
1040
1.0
1070
40
1040
1.0
1002
}
  0
ENDSEC
  0
SECTION
  2
OBJECTS
  0
DICTIONARY
  5
C
100
AcDbDictionary
280
0
281
1
  3
ACAD_GROUP
350
D
  3
ACAD_LAYOUT
350
1A
  3
ACAD_MLINESTYLE
350
17
  3
ACAD_PLOTSETTINGS
350
19
  3
ACAD_PLOTSTYLENAME
350
E
  3
AcDbVariableDictionary
350
C1
  3
QCAD_OBJECTS
350
C2
  0
DICTIONARY
  5
D
100
AcDbDictionary
280
0
281
1
  0
ACDBDICTIONARYWDFLT
  5
E
100
AcDbDictionary
281
1
  3
Normal
350
F
100
AcDbDictionaryWithDefault
340
F
  0
ACDBPLACEHOLDER
  5
F
  0
DICTIONARY
  5
17
100
AcDbDictionary
280
0
281
1
  3
Standard
350
18
  0
MLINESTYLE
  5
18
100
AcDbMlineStyle
  2
STANDARD
 70
0
  3

 62
256
 51
90.0
 52
90.0
 71
2
 49
0.5
 62
256
  6
BYLAYER
 49
-0.5
 62
256
  6
BYLAYER
  0
DICTIONARY
  5
19
100
AcDbDictionary
280
0
281
1
  0
DICTIONARY
  5
1A
100
AcDbDictionary
281
1
  3
Layout1
350
1E
  3
Layout2
350
26
  3
Model
350
22
  0
LAYOUT
  5
1E
100
AcDbPlotSettings
  1

  2
none_device
  4

  6

 40
0.0
 41
0.0
 42
0.0
 43
0.0
 44
0.0
 45
0.0
 46
0.0
 47
0.0
 48
0.0
 49
0.0
140
0.0
141
0.0
142
1.0
143
1.0
 70
688
 72
0
 73
0
 74
5
  7

 75
16
147
1.0
148
0.0
149
0.0
100
AcDbLayout
  1
Layout1
 70
1
 71
1
 10
0.0
 20
0.0
 11
420.0
 21
297.0
 12
0.0
 22
0.0
 32
0.0
 14
100000000000000000000.0
 24
100000000000000000000.0
 34
100000000000000000000.0
 15
-100000000000000000000.0
 25
-100000000000000000000.0
 35
-100000000000000000000.0
146
0.0
 13
0.0
 23
0.0
 33
0.0
 16
1.0
 26
0.0
 36
0.0
 17
0.0
 27
1.0
 37
0.0
 76
0
330
1B
  0
LAYOUT
  5
22
100
AcDbPlotSettings
  1

  2
none_device
  4

  6

 40
0.0
 41
0.0
 42
0.0
 43
0.0
 44
0.0
 45
0.0
 46
0.0
 47
0.0
 48
0.0
 49
0.0
140
0.0
141
0.0
142
1.0
143
1.0
 70
1712
 72
0
 73
0
 74
0
  7

 75
0
147
1.0
148
0.0
149
0.0
100
AcDbLayout
  1
Model
 70
1
 71
0
 10
0.0
 20
0.0
 11
12.0
 21
9.0
 12
0.0
 22
0.0
 32
0.0
 14
0.0
 24
0.0
 34
0.0
 15
0.0
 25
0.0
 35
0.0
146
0.0
 13
0.0
 23
0.0
 33
0.0
 16
1.0
 26
0.0
 36
0.0
 17
0.0
 27
1.0
 37
0.0
 76
0
330
1F
  0
LAYOUT
  5
26
100
AcDbPlotSettings
  1

  2
none_device
  4

  6

 40
0.0
 41
0.0
 42
0.0
 43
0.0
 44
0.0
 45
0.0
 46
0.0
 47
0.0
 48
0.0
 49
0.0
140
0.0
141
0.0
142
1.0
143
1.0
 70
688
 72
0
 73
0
 74
5
  7

 75
16
147
1.0
148
0.0
149
0.0
100
AcDbLayout
  1
Layout2
 70
1
 71
2
 10
0.0
 20
0.0
 11
12.0
 21
9.0
 12
0.0
 22
0.0
 32
0.0
 14
0.0
 24
0.0
 34
0.0
 15
0.0
 25
0.0
 35
0.0
146
0.0
 13
0.0
 23
0.0
 33
0.0
 16
1.0
 26
0.0
 36
0.0
 17
0.0
 27
1.0
 37
0.0
 76
0
330
23
  0
DICTIONARY
  5
C1
100
AcDbDictionary
281
1
  3
DIMASSOC
350
C4
  3
HIDETEXT
350
C3
  0
DICTIONARYVAR
  5
C3
100
DictionaryVariables
280
0
  1
2
  0
DICTIONARYVAR
  5
C4
100
DictionaryVariables
280
0
  1
1
  0
DICTIONARY
  5
C2
100
AcDbDictionary
281
1
  3
ColorSettings/BackgroundColor
350
C5
  3
ColorSettings/ColorMode
350
C6
  3
Grid/DisplayGrid00
350
C7
  3
Grid/DisplayGrid01
350
C8
  3
Grid/DisplayGrid02
350
C9
  3
Grid/DisplayGrid03
350
CA
  3
Grid/GridSpacingX00
350
CB
  3
Grid/GridSpacingX01
350
CC
  3
Grid/GridSpacingX02
350
CD
  3
Grid/GridSpacingX03
350
CE
  3
Grid/GridSpacingY00
350
CF
  3
Grid/GridSpacingY01
350
D0
  3
Grid/GridSpacingY02
350
D1
  3
Grid/GridSpacingY03
350
D2
  3
Grid/IsometricGrid00
350
D3
  3
Grid/IsometricGrid01
350
D4
  3
Grid/IsometricGrid02
350
D5
  3
Grid/IsometricGrid03
350
D6
  3
Grid/IsometricProjection00
350
D7
  3
Grid/IsometricProjection01
350
D8
  3
Grid/IsometricProjection02
350
D9
  3
Grid/IsometricProjection03
350
DA
  3
Grid/MetaGridSpacingX00
350
DB
  3
Grid/MetaGridSpacingX01
350
DC
  3
Grid/MetaGridSpacingX02
350
DD
  3
Grid/MetaGridSpacingX03
350
DE
  3
Grid/MetaGridSpacingY00
350
DF
  3
Grid/MetaGridSpacingY01
350
E0
  3
Grid/MetaGridSpacingY02
350
E1
  3
Grid/MetaGridSpacingY03
350
E2
  3
MultiPageSettings/Columns
350
E3
  3
MultiPageSettings/GlueMarginsBottom
350
E4
  3
MultiPageSettings/GlueMarginsLeft
350
E5
  3
MultiPageSettings/GlueMarginsRight
350
E6
  3
MultiPageSettings/GlueMarginsTop
350
E7
  3
MultiPageSettings/PrintCropMarks
350
E8
  3
MultiPageSettings/Rows
350
E9
  3
PageSettings/OffsetX
350
EA
  3
PageSettings/OffsetY
350
EB
  3
PageSettings/PageOrientation
350
EC
  3
PageSettings/PaperHeight
350
ED
  3
PageSettings/PaperWidth
350
EE
  3
PageSettings/Scale
350
EF
  3
PageSettings/ShowPaperBorders
350
F0
  3
PageTagSettings/EnablePageTags
350
F1
  3
PageTagSettings/TagAlignment
350
F2
  3
PageTagSettings/TagFont
350
F3
  3
PageTagSettings/TagPosition
350
F4
  3
QCADVersion
350
F5
  3
UnitSettings/PaperUnit
350
F6
  3
ViewportCenter
350
F7
  3
ViewportHeight
350
F8
  3
ViewportWidth
350
F9
  0
XRECORD
  5
C5
330
C2
100
AcDbXrecord
280
1
1000
Blanca
  0
XRECORD
  5
C6
330
C2
100
AcDbXrecord
280
1
1000
FullColor
  0
XRECORD
  5
C7
330
C2
100
AcDbXrecord
280
1
290
0
  0
XRECORD
  5
C8
330
C2
100
AcDbXrecord
280
1
290
1
  0
XRECORD
  5
C9
330
C2
100
AcDbXrecord
280
1
290
1
  0
XRECORD
  5
CA
330
C2
100
AcDbXrecord
280
1
290
1
  0
XRECORD
  5
CB
330
C2
100
AcDbXrecord
280
1
1000
auto
  0
XRECORD
  5
CC
330
C2
100
AcDbXrecord
280
1
1000
auto
  0
XRECORD
  5
CD
330
C2
100
AcDbXrecord
280
1
1000
auto
  0
XRECORD
  5
CE
330
C2
100
AcDbXrecord
280
1
1000
auto
  0
XRECORD
  5
CF
330
C2
100
AcDbXrecord
280
1
1000
auto
  0
XRECORD
  5
D0
330
C2
100
AcDbXrecord
280
1
1000
auto
  0
XRECORD
  5
D1
330
C2
100
AcDbXrecord
280
1
1000
auto
  0
XRECORD
  5
D2
330
C2
100
AcDbXrecord
280
1
1000
auto
  0
XRECORD
  5
D3
330
C2
100
AcDbXrecord
280
1
290
0
  0
XRECORD
  5
D4
330
C2
100
AcDbXrecord
280
1
290
0
  0
XRECORD
  5
D5
330
C2
100
AcDbXrecord
280
1
290
0
  0
XRECORD
  5
D6
330
C2
100
AcDbXrecord
280
1
290
0
  0
XRECORD
  5
D7
330
C2
100
AcDbXrecord
280
1
 90
65537
  0
XRECORD
  5
D8
330
C2
100
AcDbXrecord
280
1
 90
65537
  0
XRECORD
  5
D9
330
C2
100
AcDbXrecord
280
1
 90
65537
  0
XRECORD
  5
DA
330
C2
100
AcDbXrecord
280
1
 90
65537
  0
XRECORD
  5
DB
330
C2
100
AcDbXrecord
280
1
1000
auto
  0
XRECORD
  5
DC
330
C2
100
AcDbXrecord
280
1
1000
auto
  0
XRECORD
  5
DD
330
C2
100
AcDbXrecord
280
1
1000
auto
  0
XRECORD
  5
DE
330
C2
100
AcDbXrecord
280
1
1000
auto
  0
XRECORD
  5
DF
330
C2
100
AcDbXrecord
280
1
1000
1
  0
XRECORD
  5
E0
330
C2
100
AcDbXrecord
280
1
1000
auto
  0
XRECORD
  5
E1
330
C2
100
AcDbXrecord
280
1
1000
auto
  0
XRECORD
  5
E2
330
C2
100
AcDbXrecord
280
1
1000
auto
  0
XRECORD
  5
E3
330
C2
100
AcDbXrecord
280
1
 90
1
  0
XRECORD
  5
E4
330
C2
100
AcDbXrecord
280
1
 40
10.0
  0
XRECORD
  5
E5
330
C2
100
AcDbXrecord
280
1
 40
10.0
  0
XRECORD
  5
E6
330
C2
100
AcDbXrecord
280
1
 40
10.0
  0
XRECORD
  5
E7
330
C2
100
AcDbXrecord
280
1
 40
10.0
  0
XRECORD
  5
E8
330
C2
100
AcDbXrecord
280
1
290
0
  0
XRECORD
  5
E9
330
C2
100
AcDbXrecord
280
1
 90
1
  0
XRECORD
  5
EA
330
C2
100
AcDbXrecord
280
1
 40
793.1665914866936191
  0
XRECORD
  5
EB
330
C2
100
AcDbXrecord
280
1
 40
306.6308471493692309
  0
XRECORD
  5
EC
330
C2
100
AcDbXrecord
280
1
1000
Portrait
  0
XRECORD
  5
ED
330
C2
100
AcDbXrecord
280
1
 40
279.3999999999999773
  0
XRECORD
  5
EE
330
C2
100
AcDbXrecord
280
1
 40
215.9000000000000057
  0
XRECORD
  5
EF
330
C2
100
AcDbXrecord
280
1
 90
1
  0
XRECORD
  5
F0
330
C2
100
AcDbXrecord
280
1
290
1
  0
XRECORD
  5
F1
330
C2
100
AcDbXrecord
280
1
290
0
  0
XRECORD
  5
F2
330
C2
100
AcDbXrecord
280
1
1000
Inside
  0
XRECORD
  5
F3
330
C2
100
AcDbXrecord
280
1
1000
Arial,10,-1,5,50,0,0,0,0,0
  0
XRECORD
  5
F4
330
C2
100
AcDbXrecord
280
1
1000
TopLeft
  0
XRECORD
  5
F5
330
C2
100
AcDbXrecord
280
1
1000
3.28.1
  0
XRECORD
  5
F6
330
C2
100
AcDbXrecord
280
1
 90
4
  0
XRECORD
  5
F8
330
C2
100
AcDbXrecord
280
1
 40
35.044159062855897
  0
XRECORD
  5
F9
330
C2
100
AcDbXrecord
280
1
 40
65.2769274347051578
  0
IMAGEDEF
  5
62
100
AcDbRasterImageDef
 90
0
  1
C:/Users/iamth/Documents/Estudio aut\U+00f3nomo/CAD/QCad/1. StudyCadCam/2D CAD EXERCISES 51b.png
 10
200.0
 20
141.0
 11
1.0
 21
1.0
280
1
281
0
  0
ENDSEC
  0
EOF
