999
dxflib 3.26.4.0
  0
SECTION
  2
HEADER
  9
$ACADVER
  1
AC1015
  9
$HANDSEED
  5
FFFF
  9
$DIMADEC
 70
0
  9
$DIMASZ
 40
2.5
  9
$DIMATFIT
 70
0
  9
$DIMAUNIT
 70
0
  9
$DIMAZIN
 70
2
  9
$DIMBLK
  1
0
  9
$DIMBLK1
  1
0
  9
$DIMBLK2
  1
0
  9
$DIMDEC
 70
4
  9
$DIMDLI
 40
5.0
  9
$DIMDSEP
 70
46
  9
$DIMEXE
 40
1.25
  9
$DIMEXO
 40
0.625
  9
$DIMGAP
 40
0.625
  9
$DIMLFAC
 40
1.0
  9
$DIMLUNIT
 70
2
  9
$DIMSCALE
 40
1.0
  9
$DIMTAD
 70
1
  9
$DIMTIH
 70
0
  9
$DIMTSZ
 40
0.0
  9
$DIMTXT
 40
2.5
  9
$DIMZIN
 70
8
  9
$DWGCODEPAGE
  3
ANSI_1252
  9
$INSUNITS
 70
4
  9
$LTSCALE
 40
1.0
  9
$MAXACTVP
 70
64
  9
$MEASUREMENT
 70
1
  9
$MIRRTEXT
 70
0
  9
$PDMODE
 70
0
  9
$PDSIZE
 40
0.0
  0
ENDSEC
  0
SECTION
  2
TABLES
  0
TABLE
  2
VPORT
  5
8
100
AcDbSymbolTable
 70
1
  0
VPORT
  5
30
100
AcDbSymbolTableRecord
100
AcDbViewportTableRecord
  2
*Active
 70
0
 10
0.0
 20
0.0
 11
1.0
 21
1.0
 12
286.3055555555554861
 22
148.5
 13
0.0
 23
0.0
 14
10.0
 24
10.0
 15
10.0
 25
10.0
 16
0.0
 26
0.0
 36
1.0
 17
0.0
 27
0.0
 37
0.0
 40
297.0
 41
1.92798353909465
 42
50.0
 43
0.0
 44
0.0
 50
0.0
 51
0.0
 71
0
 72
100
 73
1
 74
3
 75
1
 76
1
 77
0
 78
0
281
0
 65
1
110
0.0
120
0.0
130
0.0
111
1.0
121
0.0
131
0.0
112
0.0
122
1.0
132
0.0
 79
0
146
0.0
  0
ENDTAB
  0
TABLE
  2
LTYPE
  5
5
100
AcDbSymbolTable
 70
41
  0
LTYPE
  5
16
100
AcDbSymbolTableRecord
100
AcDbLinetypeTableRecord
  2
Continuous
 70
0
  3
Solid line
 72
65
 73
0
 40
0.0
  0
LTYPE
  5
31
100
AcDbSymbolTableRecord
100
AcDbLinetypeTableRecord
  2
HIDDEN
 70
0
  3
Hidden __ __ __ __ __ __ __ __ __ __ __ __ __ __
 72
65
 73
2
 40
9.5249999999999986
 49
6.3499999999999996
 74
0
 49
-3.1749999999999998
 74
0
  0
LTYPE
  5
32
100
AcDbSymbolTableRecord
100
AcDbLinetypeTableRecord
  2
DOTX2
 70
0
  3
Dot (2x) .  .  .  .  .  .  .  .  .  .  .  .  .  .
 72
65
 73
2
 40
12.6999999999999993
 49
0.1
 74
0
 49
-12.5999999999999996
 74
0
  0
LTYPE
  5
33
100
AcDbSymbolTableRecord
100
AcDbLinetypeTableRecord
  2
ACAD_ISO03W100
 70
0
  3
ISO dash space __    __    __    __    __    __
 72
65
 73
2
 40
30.0
 49
12.0
 74
0
 49
-18.0
 74
0
  0
LTYPE
  5
34
100
AcDbSymbolTableRecord
100
AcDbLinetypeTableRecord
  2
DASHED
 70
0
  3
Dashed __ __ __ __ __ __ __ __ __ __ __ __ __ _
 72
65
 73
2
 40
19.0499999999999972
 49
12.6999999999999993
 74
0
 49
-6.3499999999999996
 74
0
  0
LTYPE
  5
35
100
AcDbSymbolTableRecord
100
AcDbLinetypeTableRecord
  2
ACAD_ISO10W100
 70
0
  3
ISO dash dot __ . __ . __ . __ . __ . __ . __ . 
 72
65
 73
4
 40
18.0
 49
12.0
 74
0
 49
-2.9500000000000002
 74
0
 49
0.1
 74
0
 49
-2.9500000000000002
 74
0
  0
LTYPE
  5
14
100
AcDbSymbolTableRecord
100
AcDbLinetypeTableRecord
  2
BYBLOCK
 70
0
  3

 72
65
 73
0
 40
0.0
  0
LTYPE
  5
36
100
AcDbSymbolTableRecord
100
AcDbLinetypeTableRecord
  2
ACAD_ISO14W100
 70
0
  3
ISO dash triple-dot __ . . . __ . . . __ . . . _
 72
65
 73
8
 40
24.0000000000000036
 49
12.0
 74
0
 49
-2.9500000000000002
 74
0
 49
0.1
 74
0
 49
-2.9000000000000004
 74
0
 49
0.1
 74
0
 49
-2.9000000000000004
 74
0
 49
0.1
 74
0
 49
-2.9500000000000002
 74
0
  0
LTYPE
  5
37
100
AcDbSymbolTableRecord
100
AcDbLinetypeTableRecord
  2
PHANTOM
 70
0
  3
Phantom ______  __  __  ______  __  __  ______ 
 72
65
 73
6
 40
63.5000000000000071
 49
31.75
 74
0
 49
-6.3499999999999996
 74
0
 49
6.3499999999999996
 74
0
 49
-6.3499999999999996
 74
0
 49
6.3499999999999996
 74
0
 49
-6.3499999999999996
 74
0
  0
LTYPE
  5
38
100
AcDbSymbolTableRecord
100
AcDbLinetypeTableRecord
  2
ACAD_ISO04W100
 70
0
  3
ISO long-dash dot ____ . ____ . ____ . ____ . _
 72
65
 73
4
 40
30.0
 49
24.0
 74
0
 49
-2.9500000000000002
 74
0
 49
0.1
 74
0
 49
-2.9500000000000002
 74
0
  0
LTYPE
  5
39
100
AcDbSymbolTableRecord
100
AcDbLinetypeTableRecord
  2
BORDER
 70
0
  3
Border __ __ . __ __ . __ __ . __ __ . __ __ .
 72
65
 73
6
 40
44.4499999999999957
 49
12.6999999999999993
 74
0
 49
-6.3499999999999996
 74
0
 49
12.6999999999999993
 74
0
 49
-6.2999999999999998
 74
0
 49
0.1
 74
0
 49
-6.2999999999999998
 74
0
  0
LTYPE
  5
3A
100
AcDbSymbolTableRecord
100
AcDbLinetypeTableRecord
  2
ACAD_ISO09W100
 70
0
  3
ISO long-dash double-short-dash ____ __ __ ____
 72
65
 73
6
 40
45.0
 49
24.0
 74
0
 49
-3.0
 74
0
 49
6.0
 74
0
 49
-3.0
 74
0
 49
6.0
 74
0
 49
-3.0
 74
0
  0
LTYPE
  5
3B
100
AcDbSymbolTableRecord
100
AcDbLinetypeTableRecord
  2
ACAD_ISO05W100
 70
0
  3
ISO long-dash double-dot ____ .. ____ .. ____ . 
 72
65
 73
6
 40
33.0000000000000071
 49
24.0
 74
0
 49
-2.9500000000000002
 74
0
 49
0.1
 74
0
 49
-2.9000000000000004
 74
0
 49
0.1
 74
0
 49
-2.9500000000000002
 74
0
  0
LTYPE
  5
3C
100
AcDbSymbolTableRecord
100
AcDbLinetypeTableRecord
  2
DASHEDX2
 70
0
  3
Dashed (2x) ____  ____  ____  ____  ____  ___
 72
65
 73
2
 40
38.0999999999999943
 49
25.3999999999999986
 74
0
 49
-12.6999999999999993
 74
0
  0
LTYPE
  5
3D
100
AcDbSymbolTableRecord
100
AcDbLinetypeTableRecord
  2
DOT
 70
0
  3
Dot . . . . . . . . . . . . . . . . . . . . . . . .
 72
65
 73
2
 40
6.3499999999999996
 49
0.1
 74
0
 49
-6.25
 74
0
  0
LTYPE
  5
3E
100
AcDbSymbolTableRecord
100
AcDbLinetypeTableRecord
  2
ACAD_ISO13W100
 70
0
  3
ISO double-dash double-dot __ __ . . __ __ . . _
 72
65
 73
8
 40
36.0000000000000071
 49
12.0
 74
0
 49
-3.0
 74
0
 49
12.0
 74
0
 49
-2.9500000000000002
 74
0
 49
0.1
 74
0
 49
-2.9000000000000004
 74
0
 49
0.1
 74
0
 49
-2.9500000000000002
 74
0
  0
LTYPE
  5
3F
100
AcDbSymbolTableRecord
100
AcDbLinetypeTableRecord
  2
BORDER2
 70
0
  3
Border (.5x) __.__.__.__.__.__.__.__.__.__.__.
 72
65
 73
6
 40
22.2250000000000014
 49
6.3499999999999996
 74
0
 49
-3.1749999999999998
 74
0
 49
6.3499999999999996
 74
0
 49
-3.125
 74
0
 49
0.1
 74
0
 49
-3.125
 74
0
  0
LTYPE
  5
40
100
AcDbSymbolTableRecord
100
AcDbLinetypeTableRecord
  2
BORDERX2
 70
0
  3
Border (2x) ____  ____  .  ____  ____  .  ___
 72
65
 73
6
 40
88.8999999999999773
 49
25.3999999999999986
 74
0
 49
-12.6999999999999993
 74
0
 49
25.3999999999999986
 74
0
 49
-12.6499999999999986
 74
0
 49
0.1
 74
0
 49
-12.6499999999999986
 74
0
  0
LTYPE
  5
15
100
AcDbSymbolTableRecord
100
AcDbLinetypeTableRecord
  2
BYLAYER
 70
0
  3

 72
65
 73
0
 40
0.0
  0
LTYPE
  5
41
100
AcDbSymbolTableRecord
100
AcDbLinetypeTableRecord
  2
DIVIDE2
 70
0
  3
Divide (.5x) __..__..__..__..__..__..__..__.._
 72
65
 73
6
 40
15.8749999999999982
 49
6.3499999999999996
 74
0
 49
-3.125
 74
0
 49
0.1
 74
0
 49
-3.0750000000000002
 74
0
 49
0.1
 74
0
 49
-3.125
 74
0
  0
LTYPE
  5
42
100
AcDbSymbolTableRecord
100
AcDbLinetypeTableRecord
  2
PHANTOM2
 70
0
  3
Phantom (.5x) ___ _ _ ___ _ _ ___ _ _ ___ _ _
 72
65
 73
6
 40
31.7500000000000036
 49
15.875
 74
0
 49
-3.1749999999999998
 74
0
 49
3.1749999999999998
 74
0
 49
-3.1749999999999998
 74
0
 49
3.1749999999999998
 74
0
 49
-3.1749999999999998
 74
0
  0
LTYPE
  5
43
100
AcDbSymbolTableRecord
100
AcDbLinetypeTableRecord
  2
DASHDOT
 70
0
  3
Dash dot __ . __ . __ . __ . __ . __ . __ . __
 72
65
 73
4
 40
25.4000000000000021
 49
12.6999999999999993
 74
0
 49
-6.2999999999999998
 74
0
 49
0.1
 74
0
 49
-6.2999999999999998
 74
0
  0
LTYPE
  5
44
100
AcDbSymbolTableRecord
100
AcDbLinetypeTableRecord
  2
DIVIDEX2
 70
0
  3
Divide (2x) ________  .  .  ________  .  .  _
 72
65
 73
6
 40
63.5
 49
25.3999999999999986
 74
0
 49
-12.6499999999999986
 74
0
 49
0.1
 74
0
 49
-12.5999999999999979
 74
0
 49
0.1
 74
0
 49
-12.6499999999999986
 74
0
  0
LTYPE
  5
45
100
AcDbSymbolTableRecord
100
AcDbLinetypeTableRecord
  2
ACAD_ISO12W100
 70
0
  3
ISO dash double-dot __ . . __ . . __ . . __ . . 
 72
65
 73
6
 40
21.0
 49
12.0
 74
0
 49
-2.9500000000000002
 74
0
 49
0.1
 74
0
 49
-2.9000000000000004
 74
0
 49
0.1
 74
0
 49
-2.9500000000000002
 74
0
  0
LTYPE
  5
46
100
AcDbSymbolTableRecord
100
AcDbLinetypeTableRecord
  2
CENTER2
 70
0
  3
Center (.5x) ___ _ ___ _ ___ _ ___ _ ___ _ ___
 72
65
 73
4
 40
28.5750000000000028
 49
19.0500000000000007
 74
0
 49
-3.1749999999999998
 74
0
 49
3.1749999999999998
 74
0
 49
-3.1749999999999998
 74
0
  0
LTYPE
  5
47
100
AcDbSymbolTableRecord
100
AcDbLinetypeTableRecord
  2
DIVIDE
 70
0
  3
Divide ____ . . ____ . . ____ . . ____ . . ____
 72
65
 73
6
 40
31.7500000000000036
 49
12.6999999999999993
 74
0
 49
-6.2999999999999998
 74
0
 49
0.1
 74
0
 49
-6.25
 74
0
 49
0.1
 74
0
 49
-6.2999999999999998
 74
0
  0
LTYPE
  5
48
100
AcDbSymbolTableRecord
100
AcDbLinetypeTableRecord
  2
ACAD_ISO07W100
 70
0
  3
ISO dot . . . . . . . . . . . . . . . . . . . . 
 72
65
 73
2
 40
3.0
 49
0.1
 74
0
 49
-2.8999999999999999
 74
0
  0
LTYPE
  5
49
100
AcDbSymbolTableRecord
100
AcDbLinetypeTableRecord
  2
ACAD_ISO15W100
 70
0
  3
ISO double-dash triple-dot __ __ . . . __ __ . .
 72
65
 73
10
 40
39.0000000000000071
 49
12.0
 74
0
 49
-3.0
 74
0
 49
12.0
 74
0
 49
-2.9500000000000002
 74
0
 49
0.1
 74
0
 49
-2.9000000000000004
 74
0
 49
0.1
 74
0
 49
-2.9000000000000004
 74
0
 49
0.1
 74
0
 49
-2.9500000000000002
 74
0
  0
LTYPE
  5
4A
100
AcDbSymbolTableRecord
100
AcDbLinetypeTableRecord
  2
CENTER
 70
0
  3
Center ____ _ ____ _ ____ _ ____ _ ____ _ ____
 72
65
 73
4
 40
50.8000000000000043
 49
31.75
 74
0
 49
-6.3499999999999996
 74
0
 49
6.3499999999999996
 74
0
 49
-6.3499999999999996
 74
0
  0
LTYPE
  5
4B
100
AcDbSymbolTableRecord
100
AcDbLinetypeTableRecord
  2
PHANTOMX2
 70
0
  3
Phantom (2x) ____________    ____    ____   _
 72
65
 73
6
 40
127.0000000000000142
 49
63.5
 74
0
 49
-12.6999999999999993
 74
0
 49
12.6999999999999993
 74
0
 49
-12.6999999999999993
 74
0
 49
12.6999999999999993
 74
0
 49
-12.6999999999999993
 74
0
  0
LTYPE
  5
4C
100
AcDbSymbolTableRecord
100
AcDbLinetypeTableRecord
  2
ACAD_ISO06W100
 70
0
  3
ISO long-dash triple-dot ____ ... ____ ... ____
 72
65
 73
8
 40
36.0000000000000071
 49
24.0
 74
0
 49
-2.9500000000000002
 74
0
 49
0.1
 74
0
 49
-2.9000000000000004
 74
0
 49
0.1
 74
0
 49
-2.9000000000000004
 74
0
 49
0.1
 74
0
 49
-2.9500000000000002
 74
0
  0
LTYPE
  5
4D
100
AcDbSymbolTableRecord
100
AcDbLinetypeTableRecord
  2
ACAD_ISO08W100
 70
0
  3
ISO long-dash short-dash ____ __ ____ __ ____ _
 72
65
 73
4
 40
36.0
 49
24.0
 74
0
 49
-3.0
 74
0
 49
6.0
 74
0
 49
-3.0
 74
0
  0
LTYPE
  5
4E
100
AcDbSymbolTableRecord
100
AcDbLinetypeTableRecord
  2
HIDDEN2
 70
0
  3
Hidden (.5x) _ _ _ _ _ _ _ _ _ _ _ _ _ _ _ _ _ 
 72
65
 73
2
 40
4.7624999999999993
 49
3.1749999999999998
 74
0
 49
-1.5874999999999999
 74
0
  0
LTYPE
  5
4F
100
AcDbSymbolTableRecord
100
AcDbLinetypeTableRecord
  2
DOT2
 70
0
  3
Dot (.5x) ........................................
 72
65
 73
2
 40
3.1749999999999998
 49
0.1
 74
0
 49
-3.0749999999999997
 74
0
  0
LTYPE
  5
50
100
AcDbSymbolTableRecord
100
AcDbLinetypeTableRecord
  2
DASHDOT2
 70
0
  3
Dash dot (.5x) _._._._._._._._._._._._._._._.
 72
65
 73
4
 40
12.6999999999999993
 49
6.3499999999999996
 74
0
 49
-3.125
 74
0
 49
0.1
 74
0
 49
-3.125
 74
0
  0
LTYPE
  5
51
100
AcDbSymbolTableRecord
100
AcDbLinetypeTableRecord
  2
DASHED2
 70
0
  3
Dashed (.5x) _ _ _ _ _ _ _ _ _ _ _ _ _ _ _ _ _ 
 72
65
 73
2
 40
9.5249999999999986
 49
6.3499999999999996
 74
0
 49
-3.1749999999999998
 74
0
  0
LTYPE
  5
52
100
AcDbSymbolTableRecord
100
AcDbLinetypeTableRecord
  2
CENTERX2
 70
0
  3
Center (2x) ________  __  ________  __  _____
 72
65
 73
4
 40
101.6000000000000085
 49
63.5
 74
0
 49
-12.6999999999999993
 74
0
 49
12.6999999999999993
 74
0
 49
-12.6999999999999993
 74
0
  0
LTYPE
  5
53
100
AcDbSymbolTableRecord
100
AcDbLinetypeTableRecord
  2
DASHDOTX2
 70
0
  3
Dash dot (2x) ____  .  ____  .  ____  .  ___
 72
65
 73
4
 40
50.7999999999999972
 49
25.3999999999999986
 74
0
 49
-12.6499999999999986
 74
0
 49
0.1
 74
0
 49
-12.6499999999999986
 74
0
  0
LTYPE
  5
54
100
AcDbSymbolTableRecord
100
AcDbLinetypeTableRecord
  2
ACAD_ISO11W100
 70
0
  3
ISO double-dash dot __ __ . __ __ . __ __ . __ _
 72
65
 73
6
 40
33.0
 49
12.0
 74
0
 49
-3.0
 74
0
 49
12.0
 74
0
 49
-2.9500000000000002
 74
0
 49
0.1
 74
0
 49
-2.9500000000000002
 74
0
  0
LTYPE
  5
55
100
AcDbSymbolTableRecord
100
AcDbLinetypeTableRecord
  2
HIDDENX2
 70
0
  3
Hidden (2x) ____ ____ ____ ____ ____ ____ ____ 
 72
65
 73
2
 40
19.0499999999999972
 49
12.6999999999999993
 74
0
 49
-6.3499999999999996
 74
0
  0
LTYPE
  5
56
100
AcDbSymbolTableRecord
100
AcDbLinetypeTableRecord
  2
ACAD_ISO02W100
 70
0
  3
ISO dash __ __ __ __ __ __ __ __ __ __ __ __ __
 72
65
 73
2
 40
15.0
 49
12.0
 74
0
 49
-3.0
 74
0
  0
ENDTAB
  0
TABLE
  2
LAYER
  5
2
100
AcDbSymbolTable
 70
7
  0
LAYER
  5
10
100
AcDbSymbolTableRecord
100
AcDbLayerTableRecord
  2
0
 70
0
 62
7
420
16777215
  6
Continuous
370
25
390
F
  0
LAYER
  5
57
100
AcDbSymbolTableRecord
100
AcDbLayerTableRecord
  2
Contornos Ocultos
 70
0
 62
252
420
10526884
  6
ACAD_ISO02W100
370
30
390
F
  0
LAYER
  5
58
100
AcDbSymbolTableRecord
100
AcDbLayerTableRecord
  2
Contornos Visibles
 70
0
 62
7
420
16777215
  6
Continuous
370
50
390
F
  0
LAYER
  5
59
100
AcDbSymbolTableRecord
100
AcDbLayerTableRecord
  2
Referencias 2
 70
1
 62
3
420
65280
  6
Continuous
370
25
390
F
  0
LAYER
  5
5A
100
AcDbSymbolTableRecord
100
AcDbLayerTableRecord
  2
Ejes de revoluci\U+00f3n
 70
0
 62
6
420
16711935
  6
ACAD_ISO04W100
370
20
390
F
  0
LAYER
  5
5B
100
AcDbSymbolTableRecord
100
AcDbLayerTableRecord
  2
Referencias
 70
1
 62
2
420
16776960
  6
Continuous
370
25
390
F
  0
LAYER
  5
5C
100
AcDbSymbolTableRecord
100
AcDbLayerTableRecord
  2
Cotas
 70
0
 62
1
420
16711680
  6
Continuous
370
20
390
F
  0
ENDTAB
  0
TABLE
  2
STYLE
  5
3
100
AcDbSymbolTable
 70
4
  0
STYLE
  5
5D
100
AcDbSymbolTableRecord
100
AcDbTextStyleTableRecord
  2
Standard
 70
0
 40
0.0
 41
1.0
 50
0.0
 71
0
 42
2.5
  3

  4

1001
ACAD
1000
txt
1071
0
  0
STYLE
  5
5E
100
AcDbSymbolTableRecord
100
AcDbTextStyleTableRecord
  2
textstyle0
 70
0
 40
0.0
 41
1.0
 50
0.0
 71
0
 42
2.5
  3

  4

1001
ACAD
1000
Arial
1071
0
  0
STYLE
  5
5F
100
AcDbSymbolTableRecord
100
AcDbTextStyleTableRecord
  2
textstyle1
 70
0
 40
0.0
 41
1.0
 50
0.0
 71
0
 42
2.5
  3

  4

1001
ACAD
1000
Arial
1071
0
  0
STYLE
  5
60
100
AcDbSymbolTableRecord
100
AcDbTextStyleTableRecord
  2
textstyle2
 70
0
 40
0.0
 41
1.0
 50
0.0
 71
0
 42
2.5
  3

  4

1001
ACAD
1000
Arial
1071
0
  0
ENDTAB
  0
TABLE
  2
VIEW
  5
6
100
AcDbSymbolTable
 70
0
  0
ENDTAB
  0
TABLE
  2
UCS
  5
7
100
AcDbSymbolTable
 70
0
  0
ENDTAB
  0
TABLE
  2
APPID
  5
9
100
AcDbSymbolTable
 70
1
  0
APPID
  5
12
100
AcDbSymbolTableRecord
100
AcDbRegAppTableRecord
  2
ACAD
 70
0
  0
APPID
  5
61
100
AcDbSymbolTableRecord
100
AcDbRegAppTableRecord
  2
QCAD
 70
0
  0
ENDTAB
  0
TABLE
  2
DIMSTYLE
  5
A
100
AcDbSymbolTable
 70
1
100
AcDbDimStyleTable
 71
0
  0
DIMSTYLE
105
27
100
AcDbSymbolTableRecord
100
AcDbDimStyleTableRecord
  2
Standard
 41
2.5
 42
0.625
 43
3.75
 44
1.25
 70
0
 73
0
 74
0
 77
1
 78
8
140
2.5
141
2.5
143
0.03937007874016
147
0.625
171
3
172
1
271
2
272
2
274
3
278
44
283
0
284
8
340
5D
  0
ENDTAB
  0
TABLE
  2
BLOCK_RECORD
  5
1
100
AcDbSymbolTable
 70
1
  0
BLOCK_RECORD
  5
1F
100
AcDbSymbolTableRecord
100
AcDbBlockTableRecord
  2
*Model_Space
340
22
  0
BLOCK_RECORD
  5
1B
100
AcDbSymbolTableRecord
100
AcDbBlockTableRecord
  2
*Paper_Space
340
1E
  0
BLOCK_RECORD
  5
23
100
AcDbSymbolTableRecord
100
AcDbBlockTableRecord
  2
*Paper_Space0
340
26
  0
ENDTAB
  0
ENDSEC
  0
SECTION
  2
BLOCKS
  0
BLOCK
  5
20
100
AcDbEntity
  8
0
100
AcDbBlockBegin
  2
*Model_Space
 70
0
 10
0.0
 20
0.0
 30
0.0
  3
*Model_Space
  1

  0
ENDBLK
  5
21
100
AcDbEntity
  8
0
100
AcDbBlockEnd
  0
BLOCK
  5
1C
100
AcDbEntity
 67
1
  8
0
100
AcDbBlockBegin
  2
*Paper_Space
 70
0
 10
0.0
 20
0.0
 30
0.0
  3
*Paper_Space
  1

  0
ENDBLK
  5
1D
100
AcDbEntity
 67
1
  8
0
100
AcDbBlockEnd
  0
BLOCK
  5
24
100
AcDbEntity
  8
0
100
AcDbBlockBegin
  2
*Paper_Space0
 70
0
 10
0.0
 20
0.0
 30
0.0
  3
*Paper_Space0
  1

  0
ENDBLK
  5
25
100
AcDbEntity
  8
0
100
AcDbBlockEnd
  0
ENDSEC
  0
SECTION
  2
ENTITIES
  0
IMAGE
  5
62
100
AcDbEntity
  8
0
 62
256
370
-1
 48
1.0
  6
BYLAYER
100
AcDbRasterImage
 90
0
 10
30.5106213073886146
 20
56.3152703596829127
 30
0.0
 11
0.125
 21
0.0
 31
0.0
 12
0.0
 22
0.125
 32
0.0
 13
200.0
 23
141.0
340
63
 70
15
280
0
281
50
282
50
283
0
  0
ARC
  5
64
100
AcDbEntity
  8
Contornos Visibles
 62
256
370
-1
 48
1.0
  6
BYLAYER
100
AcDbCircle
 10
395.1234641099359806
 20
112.6684101303835206
 30
0.0
 40
10.0
100
AcDbArc
 50
98.6269265586786332
 51
81.3730734413213668
  0
LINE
  5
65
100
AcDbEntity
  8
Referencias
 62
256
370
-1
 48
1.0
  6
BYLAYER
100
AcDbLine
 10
393.6234641099359806
 20
123.6684101303835206
 30
0.0
 11
396.6234641099359806
 21
123.6684101303835206
 31
0.0
  0
LINE
  5
66
100
AcDbEntity
  8
Contornos Visibles
 62
256
370
-1
 48
1.0
  6
BYLAYER
100
AcDbLine
 10
393.6234641099359806
 20
122.55527009702611
 30
0.0
 11
393.6234641099360374
 21
124.6688440829159106
 31
0.0
  0
LINE
  5
67
100
AcDbEntity
  8
Contornos Visibles
 62
256
370
-1
 48
1.0
  6
BYLAYER
100
AcDbLine
 10
393.6234641099360374
 20
124.6688440829159106
 30
0.0
 11
396.6234641099360374
 21
124.6688440829159106
 31
0.0
  0
LINE
  5
68
100
AcDbEntity
  8
Contornos Visibles
 62
256
370
-1
 48
1.0
  6
BYLAYER
100
AcDbLine
 10
396.6234641099360374
 20
124.6688440829159106
 30
0.0
 11
396.6234641099359806
 21
122.55527009702611
 31
0.0
  0
LINE
  5
69
100
AcDbEntity
  8
Referencias
 62
256
370
-1
 48
1.0
  6
BYLAYER
100
AcDbLine
 10
395.1234641099359806
 20
112.6684101303835206
 30
0.0
 11
437.5498709811288336
 21
155.0948170015763594
 31
0.0
  0
LINE
  5
6A
100
AcDbEntity
  8
Referencias
 62
256
370
-1
 48
1.0
  6
BYLAYER
100
AcDbLine
 10
395.1234641099359806
 20
112.6684101303835206
 30
0.0
 11
352.6970572387431275
 21
155.0948170015763594
 31
0.0
  0
CIRCLE
  5
6B
100
AcDbEntity
  8
Ejes de revoluci\U+00f3n
 62
256
370
-1
 48
1.0
  6
BYLAYER
100
AcDbCircle
 10
395.1234641099359806
 20
112.6684101303835064
 30
0.0
 40
40.0
  0
XLINE
  5
6C
100
AcDbEntity
  8
Referencias
 62
256
370
-1
 48
1.0
  6
BYLAYER
100
AcDbLine
 10
395.1234641099359806
 20
112.6684101303835206
 30
0.0
 11
0.0
 21
1.0
 31
0.0
  0
CIRCLE
  5
6D
100
AcDbEntity
  8
Contornos Visibles
 62
256
370
-1
 48
1.0
  6
BYLAYER
100
AcDbCircle
 10
423.4077353573978826
 20
140.9526813778454084
 30
0.0
 40
5.0
  0
CIRCLE
  5
6E
100
AcDbEntity
  8
Contornos Visibles
 62
256
370
-1
 48
1.0
  6
BYLAYER
100
AcDbCircle
 10
366.8391928624740785
 20
140.9526813778454084
 30
0.0
 40
5.0
  0
CIRCLE
  5
6F
100
AcDbEntity
  8
Contornos Visibles
 62
256
370
-1
 48
1.0
  6
BYLAYER
100
AcDbCircle
 10
395.1234641099359806
 20
152.6684101303835064
 30
0.0
 40
5.0
  0
ARC
  5
70
100
AcDbEntity
  8
Contornos Visibles
 62
256
370
-1
 48
1.0
  6
BYLAYER
100
AcDbCircle
 10
423.4077353573978826
 20
140.9526813778454084
 30
0.0
 40
10.0
100
AcDbArc
 50
307.6058709578780395
 51
141.6142642819196453
  0
ARC
  5
71
100
AcDbEntity
  8
Contornos Visibles
 62
256
370
-1
 48
1.0
  6
BYLAYER
100
AcDbCircle
 10
395.1234641099359806
 20
152.6684101303835064
 30
0.0
 40
10.0
100
AcDbArc
 50
352.7638994220575341
 51
187.8209791460678844
  0
ARC
  5
72
100
AcDbEntity
  8
Contornos Visibles
 62
256
370
-1
 48
1.0
  6
BYLAYER
100
AcDbCircle
 10
366.8391928624740785
 20
140.9526813778454084
 30
0.0
 40
10.0
100
AcDbArc
 50
39.4129081218153772
 51
233.5013946992886815
  0
ARC
  5
73
100
AcDbEntity
  8
Contornos Visibles
 62
256
370
-1
 48
1.0
  6
BYLAYER
100
AcDbCircle
 10
395.1234641099359806
 20
112.6684101303835206
 30
0.0
 40
40.0980353064261195
100
AcDbArc
 50
59.3431593449736425
 51
75.6384884370834101
  0
ARC
  5
74
100
AcDbEntity
  8
Contornos Visibles
 62
256
370
-1
 48
1.0
  6
BYLAYER
100
AcDbCircle
 10
395.1234641099359806
 20
112.6684101303835632
 30
0.0
 40
39.9999999999999503
100
AcDbArc
 50
104.3615115629166041
 51
120.6934029397594088
  0
XLINE
  5
75
100
AcDbEntity
  8
Referencias
 62
256
370
-1
 48
1.0
  6
BYLAYER
100
AcDbLine
 10
395.1234641099359806
 20
112.6684101303835206
 30
0.0
 11
1.0
 21
0.0
 31
0.0
  0
ARC
  5
76
100
AcDbEntity
  8
Ejes de revoluci\U+00f3n
 62
256
370
-1
 48
1.0
  6
BYLAYER
100
AcDbCircle
 10
395.1234641099360942
 20
112.6684101303835064
 30
0.0
 40
65.0
100
AcDbArc
 50
180.0
 51
0.0
  0
CIRCLE
  5
77
100
AcDbEntity
  8
Referencias
 62
256
370
-1
 48
1.0
  6
BYLAYER
100
AcDbCircle
 10
395.1234641099359806
 20
47.6684101303835064
 30
0.0
 40
10.0
  0
LINE
  5
78
100
AcDbEntity
  8
Referencias 2
 62
256
370
-1
 48
1.0
  6
BYLAYER
100
AcDbLine
 10
392.6234641099359806
 20
72.6684101303835064
 30
0.0
 11
397.6234641099359806
 21
72.6684101303835064
 31
0.0
  0
LINE
  5
79
100
AcDbEntity
  8
Contornos Visibles
 62
256
370
-1
 48
1.0
  6
BYLAYER
100
AcDbLine
 10
397.6234641099359806
 20
72.6684101303835064
 30
0.0
 11
397.6234641099359806
 21
57.6684101303835064
 31
0.0
  0
LINE
  5
7A
100
AcDbEntity
  8
Contornos Visibles
 62
256
370
-1
 48
1.0
  6
BYLAYER
100
AcDbLine
 10
407.8910404797594538
 20
74.678424691577078
 30
0.0
 11
411.7733261562972871
 21
60.1895372972410385
 31
0.0
  0
LINE
  5
7B
100
AcDbEntity
  8
Contornos Visibles
 62
256
370
-1
 48
1.0
  6
BYLAYER
100
AcDbLine
 10
417.2885276193970867
 20
79.2773939790059643
 30
0.0
 11
424.7885276193970867
 21
66.2870129222393842
 31
0.0
  0
LINE
  5
7C
100
AcDbEntity
  8
Contornos Visibles
 62
256
370
-1
 48
1.0
  6
BYLAYER
100
AcDbLine
 10
425.1755023103642657
 20
86.1519058358879732
 30
0.0
 11
435.7821040281624505
 21
75.5453041180897458
 31
0.0
  0
LINE
  5
7D
100
AcDbEntity
  8
Contornos Visibles
 62
256
370
-1
 48
1.0
  6
BYLAYER
100
AcDbLine
 10
431.0144802613135084
 20
94.8334736398445841
 30
0.0
 11
444.0048613180800885
 21
87.3334736398445699
 31
0.0
  0
LINE
  5
7E
100
AcDbEntity
  8
Contornos Visibles
 62
256
370
-1
 48
1.0
  6
BYLAYER
100
AcDbLine
 10
434.4075447742550296
 20
104.7304628920053489
 30
0.0
 11
448.8964321685910477
 21
100.8481772154675298
 31
0.0
  0
LINE
  5
7F
100
AcDbEntity
  8
Contornos Visibles
 62
256
370
-1
 48
1.0
  6
BYLAYER
100
AcDbLine
 10
435.1234641099359806
 20
115.1684101303835064
 30
0.0
 11
450.1234641099359806
 21
115.1684101303834922
 31
0.0
  0
LINE
  5
80
100
AcDbEntity
  8
Contornos Visibles
 62
256
370
-1
 48
1.0
  6
BYLAYER
100
AcDbLine
 10
387.1855168715578088
 20
73.3843294660645
 30
0.0
 11
383.3032311950200324
 21
58.8954420717284748
 31
0.0
  0
LINE
  5
81
100
AcDbEntity
  8
Contornos Visibles
 62
256
370
-1
 48
1.0
  6
BYLAYER
100
AcDbLine
 10
377.2885276193970299
 20
76.7773939790060354
 30
0.0
 11
369.7885276193970867
 21
63.7870129222394411
 31
0.0
  0
LINE
  5
82
100
AcDbEntity
  8
Contornos Visibles
 62
256
370
-1
 48
1.0
  6
BYLAYER
100
AcDbLine
 10
368.6069598154404616
 20
82.616371929955335
 30
0.0
 11
358.0003580976422768
 21
72.0097702121570933
 31
0.0
  0
LINE
  5
83
100
AcDbEntity
  8
Contornos Visibles
 62
256
370
-1
 48
1.0
  6
BYLAYER
100
AcDbLine
 10
361.7324479585585095
 20
90.5033466209225139
 30
0.0
 11
348.7420669017919295
 21
83.0033466209224855
 31
0.0
  0
LINE
  5
84
100
AcDbEntity
  8
Contornos Visibles
 62
256
370
-1
 48
1.0
  6
BYLAYER
100
AcDbLine
 10
357.1334786711296374
 20
99.9008337605601326
 30
0.0
 11
342.6445912767936193
 21
96.0185480840222851
 31
0.0
  0
LINE
  5
85
100
AcDbEntity
  8
Contornos Visibles
 62
256
370
-1
 48
1.0
  6
BYLAYER
100
AcDbLine
 10
355.1234641099360942
 20
110.1684101303836485
 30
0.0
 11
340.1234641099360942
 21
110.1684101303836201
 31
0.0
  0
LINE
  5
86
100
AcDbEntity
  8
Contornos Visibles
 62
256
370
-1
 48
1.0
  6
BYLAYER
100
AcDbLine
 10
392.6234641099359806
 20
72.6684101303835064
 30
0.0
 11
392.6234641099359806
 21
57.6684101303835064
 31
0.0
  0
LINE
  5
87
100
AcDbEntity
  8
Contornos Visibles
 62
256
370
-1
 48
1.0
  6
BYLAYER
100
AcDbLine
 10
403.0614113483140954
 20
73.3843294660644574
 30
0.0
 11
406.9436970248519287
 21
58.8954420717284464
 31
0.0
  0
LINE
  5
88
100
AcDbEntity
  8
Contornos Visibles
 62
256
370
-1
 48
1.0
  6
BYLAYER
100
AcDbLine
 10
412.9584006004748744
 20
76.7773939790059501
 30
0.0
 11
420.4584006004748744
 21
63.7870129222393771
 31
0.0
  0
LINE
  5
89
100
AcDbEntity
  8
Contornos Visibles
 62
256
370
-1
 48
1.0
  6
BYLAYER
100
AcDbLine
 10
421.6399684044314995
 20
82.6163719299552213
 30
0.0
 11
432.2465701222297412
 21
72.009770212157008
 31
0.0
  0
LINE
  5
8A
100
AcDbEntity
  8
Contornos Visibles
 62
256
370
-1
 48
1.0
  6
BYLAYER
100
AcDbLine
 10
428.5144802613135084
 20
90.503346620922386
 30
0.0
 11
441.5048613180800885
 21
83.003346620922386
 31
0.0
  0
LINE
  5
8B
100
AcDbEntity
  8
Contornos Visibles
 62
256
370
-1
 48
1.0
  6
BYLAYER
100
AcDbLine
 10
433.1134495487424374
 20
99.9008337605600047
 30
0.0
 11
447.6023369430784555
 21
96.0185480840221999
 31
0.0
  0
LINE
  5
8C
100
AcDbEntity
  8
Contornos Visibles
 62
256
370
-1
 48
1.0
  6
BYLAYER
100
AcDbLine
 10
435.1234641099359806
 20
110.1684101303834922
 30
0.0
 11
450.1234641099359806
 21
110.1684101303834922
 31
0.0
  0
LINE
  5
8D
100
AcDbEntity
  8
Contornos Visibles
 62
256
370
-1
 48
1.0
  6
BYLAYER
100
AcDbLine
 10
382.3558877401125073
 20
74.6784246915771064
 30
0.0
 11
378.473602063574674
 21
60.189537297241074
 31
0.0
  0
LINE
  5
8E
100
AcDbEntity
  8
Contornos Visibles
 62
256
370
-1
 48
1.0
  6
BYLAYER
100
AcDbLine
 10
372.9584006004748744
 20
79.2773939790060354
 30
0.0
 11
365.4584006004748744
 21
66.2870129222394411
 31
0.0
  0
LINE
  5
8F
100
AcDbEntity
  8
Contornos Visibles
 62
256
370
-1
 48
1.0
  6
BYLAYER
100
AcDbLine
 10
365.0714259095077523
 20
86.1519058358880585
 30
0.0
 11
354.4648241917095675
 21
75.545304118089831
 31
0.0
  0
LINE
  5
90
100
AcDbEntity
  8
Contornos Visibles
 62
256
370
-1
 48
1.0
  6
BYLAYER
100
AcDbLine
 10
359.2324479585585095
 20
94.8334736398446978
 30
0.0
 11
346.2420669017919295
 21
87.3334736398446694
 31
0.0
  0
LINE
  5
91
100
AcDbEntity
  8
Contornos Visibles
 62
256
370
-1
 48
1.0
  6
BYLAYER
100
AcDbLine
 10
355.8393834456170453
 20
104.7304628920054625
 30
0.0
 11
341.3504960512810271
 21
100.8481772154676293
 31
0.0
  0
LINE
  5
92
100
AcDbEntity
  8
Contornos Visibles
 62
256
370
-1
 48
1.0
  6
BYLAYER
100
AcDbLine
 10
355.1234641099360942
 20
115.1684101303836201
 30
0.0
 11
340.1234641099360942
 21
115.1684101303836059
 31
0.0
  0
ARC
  5
93
100
AcDbEntity
  8
Contornos Visibles
 62
256
370
-1
 48
1.0
  6
BYLAYER
100
AcDbCircle
 10
395.1234641099359806
 20
47.6684101303835064
 30
0.0
 40
9.9999999999999964
100
AcDbArc
 50
75.9637565320738304
 51
104.0362434679268091
  0
ARC
  5
94
100
AcDbEntity
  8
Contornos Visibles
 62
256
370
-1
 48
1.0
  6
BYLAYER
100
AcDbCircle
 10
411.9467020415997922
 20
49.8832314215940613
 30
0.0
 40
9.9999999999999964
100
AcDbArc
 50
90.9637565320738162
 51
119.0362434679267949
  0
ARC
  5
95
100
AcDbEntity
  8
Contornos Visibles
 62
256
370
-1
 48
1.0
  6
BYLAYER
100
AcDbCircle
 10
427.6234641099359806
 20
56.3767588843949952
 30
0.0
 40
9.9999999999999964
100
AcDbArc
 50
105.963756532073802
 51
134.0362434679267949
  0
ARC
  5
96
100
AcDbEntity
  8
Contornos Visibles
 62
256
370
-1
 48
1.0
  6
BYLAYER
100
AcDbCircle
 10
441.0854048870615429
 20
66.7064693532579156
 30
0.0
 40
9.9999999999999964
100
AcDbArc
 50
120.9637565320738162
 51
149.0362434679267949
  0
ARC
  5
97
100
AcDbEntity
  8
Contornos Visibles
 62
256
370
-1
 48
1.0
  6
BYLAYER
100
AcDbCircle
 10
451.4151153559244563
 20
80.168410130383478
 30
0.0
 40
9.9999999999999964
100
AcDbArc
 50
135.963756532073802
 51
164.0362434679267949
  0
ARC
  5
98
100
AcDbEntity
  8
Contornos Visibles
 62
256
370
-1
 48
1.0
  6
BYLAYER
100
AcDbCircle
 10
457.9086428187254114
 20
95.8451721987196663
 30
0.0
 40
9.9999999999999964
100
AcDbArc
 50
150.963756532073802
 51
179.0362434679267949
  0
ARC
  5
99
100
AcDbEntity
  8
Contornos Visibles
 62
256
370
-1
 48
1.0
  6
BYLAYER
100
AcDbCircle
 10
460.1234641099359806
 20
112.6684101303834922
 30
0.0
 40
9.9999999999999964
100
AcDbArc
 50
165.963756532073802
 51
194.0362434679267949
  0
ARC
  5
9A
100
AcDbEntity
  8
Contornos Visibles
 62
256
370
-1
 48
1.0
  6
BYLAYER
100
AcDbCircle
 10
378.3002261782721689
 20
49.8832314215940968
 30
0.0
 40
9.9999999999999964
100
AcDbArc
 50
60.9637565320738304
 51
89.0362434679268091
  0
ARC
  5
9B
100
AcDbEntity
  8
Contornos Visibles
 62
256
370
-1
 48
1.0
  6
BYLAYER
100
AcDbCircle
 10
362.6234641099359806
 20
56.3767588843950733
 30
0.0
 40
9.9999999999999964
100
AcDbArc
 50
45.9637565320738233
 51
74.0362434679267949
  0
ARC
  5
9C
100
AcDbEntity
  8
Contornos Visibles
 62
256
370
-1
 48
1.0
  6
BYLAYER
100
AcDbCircle
 10
349.1615233328104182
 20
66.7064693532580009
 30
0.0
 40
9.9999999999999964
100
AcDbArc
 50
30.9637565320738233
 51
59.0362434679268091
  0
ARC
  5
9D
100
AcDbEntity
  8
Contornos Visibles
 62
256
370
-1
 48
1.0
  6
BYLAYER
100
AcDbCircle
 10
338.8318128639475049
 20
80.1684101303835916
 30
0.0
 40
9.9999999999999964
100
AcDbArc
 50
15.9637565320738268
 51
44.036243467926802
  0
ARC
  5
9E
100
AcDbEntity
  8
Contornos Visibles
 62
256
370
-1
 48
1.0
  6
BYLAYER
100
AcDbCircle
 10
332.3382854011466065
 20
95.8451721987197658
 30
0.0
 40
9.9999999999999964
100
AcDbArc
 50
0.9637565320738305
 51
29.0362434679268127
  0
ARC
  5
9F
100
AcDbEntity
  8
Contornos Visibles
 62
256
370
-1
 48
1.0
  6
BYLAYER
100
AcDbCircle
 10
330.1234641099360942
 20
112.6684101303836343
 30
0.0
 40
9.9999999999999964
100
AcDbArc
 50
345.9637565320738304
 51
14.0362434679268002
  0
ARC
  5
A0
100
AcDbEntity
  8
Contornos Visibles
 62
256
370
-1
 48
1.0
  6
BYLAYER
100
AcDbCircle
 10
395.1234641099360942
 20
112.6684101303835064
 30
0.0
 40
40.0780488547034821
100
AcDbArc
 50
183.5763343749970602
 51
191.4236656250024566
  0
ARC
  5
A1
100
AcDbEntity
  8
Contornos Visibles
 62
256
370
-1
 48
1.0
  6
BYLAYER
100
AcDbCircle
 10
395.061398029503664
 20
112.6207851518294092
 30
0.0
 40
40.0
100
AcDbArc
 50
213.5686664092356466
 51
221.4313335907635292
  0
ARC
  5
A2
100
AcDbEntity
  8
Contornos Visibles
 62
256
370
-1
 48
1.0
  6
BYLAYER
100
AcDbCircle
 10
395.0511866284374491
 20
112.6384718172925261
 30
0.0
 40
40.0
100
AcDbArc
 50
198.5686664092357319
 51
206.4313335907636997
  0
ARC
  5
A3
100
AcDbEntity
  8
Contornos Visibles
 62
256
370
-1
 48
1.0
  6
BYLAYER
100
AcDbCircle
 10
395.0758391313822244
 20
112.6063440499509056
 30
0.0
 40
40.0
100
AcDbArc
 50
228.568666409235675
 51
236.431333590763586
  0
ARC
  5
A4
100
AcDbEntity
  8
Contornos Visibles
 62
256
370
-1
 48
1.0
  6
BYLAYER
100
AcDbCircle
 10
395.0935257968451424
 20
112.5961326488848187
 30
0.0
 40
40.0
100
AcDbArc
 50
243.5686664092358171
 51
251.4313335907638987
  0
ARC
  5
A5
100
AcDbEntity
  8
Contornos Visibles
 62
256
370
-1
 48
1.0
  6
BYLAYER
100
AcDbCircle
 10
395.1132527088700499
 20
112.5908468387385994
 30
0.0
 40
40.0
100
AcDbArc
 50
258.568666409235675
 51
266.431333590763586
  0
ARC
  5
A6
100
AcDbEntity
  8
Contornos Visibles
 62
256
370
-1
 48
1.0
  6
BYLAYER
100
AcDbCircle
 10
395.1336755110021954
 20
112.5908468387386137
 30
0.0
 40
40.0
100
AcDbArc
 50
273.5686664092358455
 51
281.4313335907638134
  0
ARC
  5
A7
100
AcDbEntity
  8
Contornos Visibles
 62
256
370
-1
 48
1.0
  6
BYLAYER
100
AcDbCircle
 10
392.0470739160028302
 20
110.8760217563122978
 30
0.0
 40
40.0
100
AcDbArc
 50
293.5334464555732552
 51
301.5191266904470808
  0
ARC
  5
A8
100
AcDbEntity
  8
Contornos Visibles
 62
256
370
-1
 48
1.0
  6
BYLAYER
100
AcDbCircle
 10
395.1710890884899072
 20
112.6063440499509625
 30
0.0
 40
40.0
100
AcDbArc
 50
303.5686664092360729
 51
311.4313335907639839
  0
ARC
  5
A9
100
AcDbEntity
  8
Contornos Visibles
 62
256
370
-1
 48
1.0
  6
BYLAYER
100
AcDbCircle
 10
395.1855301903684676
 20
112.6207851518294518
 30
0.0
 40
40.0
100
AcDbArc
 50
318.5686664092361866
 51
326.4313335907640976
  0
ARC
  5
AA
100
AcDbEntity
  8
Contornos Visibles
 62
256
370
-1
 48
1.0
  6
BYLAYER
100
AcDbCircle
 10
395.1957415914347962
 20
112.6384718172927961
 30
0.0
 40
40.0
100
AcDbArc
 50
333.568666409235675
 51
341.431333590763586
  0
ARC
  5
AB
100
AcDbEntity
  8
Contornos Visibles
 62
256
370
-1
 48
1.0
  6
BYLAYER
100
AcDbCircle
 10
395.2010274015808591
 20
112.6581987293172489
 30
0.0
 40
40.0
100
AcDbArc
 50
348.5686664092361298
 51
356.4313335907641545
  0
ARC
  5
AC
100
AcDbEntity
  8
Contornos Visibles
 62
256
370
-1
 48
1.0
  6
BYLAYER
100
AcDbCircle
 10
395.2166245217746336
 20
112.4400124165674555
 30
0.0
 40
40.0
100
AcDbArc
 50
3.9111787094120278
 51
30.9814106768190634
  0
ARC
  5
AD
100
AcDbEntity
  8
Contornos Visibles
 62
256
370
-1
 48
1.0
  6
BYLAYER
100
AcDbCircle
 10
394.9992083032860251
 20
112.0180093580187162
 30
0.0
 40
40.0
100
AcDbArc
 50
148.5066926300455066
 51
175.4827048285283126
  0
XLINE
  5
AE
100
AcDbEntity
  8
Referencias 2
 62
256
370
-1
 48
1.0
  6
BYLAYER
100
AcDbLine
 10
395.1234641099360942
 20
112.6684101303835064
 30
0.0
 11
1.0
 21
0.0
 31
0.0
  0
LINE
  5
AF
100
AcDbEntity
  8
Ejes de revoluci\U+00f3n
 62
256
370
-1
 48
1.0
  6
BYLAYER
100
AcDbLine
 10
330.2166245217746336
 20
112.4400124165674697
 30
0.0
 11
460.2166245217746336
 21
112.4400124165674555
 31
0.0
  0
LINE
  5
B0
100
AcDbEntity
  8
Ejes de revoluci\U+00f3n
 62
256
370
-1
 48
1.0
  6
BYLAYER
100
AcDbLine
 10
395.2166245217746336
 20
57.4400124165674555
 30
0.0
 11
395.2166245217746336
 21
167.4400124165674697
 31
0.0
  0
LINE
  5
B1
100
AcDbEntity
  8
Ejes de revoluci\U+00f3n
 62
256
370
-1
 48
1.0
  6
BYLAYER
100
AcDbLine
 10
395.2166245217746336
 20
112.4400124165674981
 30
0.0
 11
434.0143370751960674
 21
151.5592830956436217
 31
0.0
  0
LINE
  5
B2
100
AcDbEntity
  8
Ejes de revoluci\U+00f3n
 62
256
370
-1
 48
1.0
  6
BYLAYER
100
AcDbLine
 10
356.2325911446758937
 20
151.5592830956436217
 30
0.0
 11
395.2166245217745768
 21
112.4400124165674697
 31
0.0
  0
LINE
  5
B3
100
AcDbEntity
  8
Ejes de revoluci\U+00f3n
 62
256
370
-1
 48
1.0
  6
BYLAYER
100
AcDbLine
 10
341.9975436640372664
 20
98.4333626497450211
 30
0.0
 11
356.5037497015848089
 21
102.251229176910968
 31
0.0
  0
LINE
  5
B4
100
AcDbEntity
  8
Ejes de revoluci\U+00f3n
 62
256
370
-1
 48
1.0
  6
BYLAYER
100
AcDbLine
 10
360.5158408806539683
 20
92.6106830801900855
 30
0.0
 11
347.4920669017918726
 21
85.1684101303836343
 31
0.0
  0
LINE
  5
B5
100
AcDbEntity
  8
Ejes de revoluci\U+00f3n
 62
256
370
-1
 48
1.0
  6
BYLAYER
100
AcDbLine
 10
356.2325911446758369
 20
73.7775371651235048
 30
0.0
 11
366.8391928624740217
 21
84.3841388829216612
 31
0.0
  0
LINE
  5
B6
100
AcDbEntity
  8
Ejes de revoluci\U+00f3n
 62
256
370
-1
 48
1.0
  6
BYLAYER
100
AcDbLine
 10
367.6234641099359237
 20
65.0370129222394837
 30
0.0
 11
375.1234641099359237
 21
78.0273939790059927
 31
0.0
  0
LINE
  5
B7
100
AcDbEntity
  8
Ejes de revoluci\U+00f3n
 62
256
370
-1
 48
1.0
  6
BYLAYER
100
AcDbLine
 10
380.8884166292972964
 20
59.5424896844847922
 30
0.0
 11
384.7707023058351297
 21
74.0313770788207819
 31
0.0
  0
LINE
  5
B8
100
AcDbEntity
  8
Ejes de revoluci\U+00f3n
 62
256
370
-1
 48
1.0
  6
BYLAYER
100
AcDbLine
 10
409.3585115905745511
 20
59.5424896844847282
 30
0.0
 11
405.4762259140367746
 21
74.0313770788207677
 31
0.0
  0
LINE
  5
B9
100
AcDbEntity
  8
Ejes de revoluci\U+00f3n
 62
256
370
-1
 48
1.0
  6
BYLAYER
100
AcDbLine
 10
422.6234641099359237
 20
65.0370129222393558
 30
0.0
 11
415.1234641099359237
 21
78.0273939790059359
 31
0.0
  0
LINE
  5
BA
100
AcDbEntity
  8
Ejes de revoluci\U+00f3n
 62
256
370
-1
 48
1.0
  6
BYLAYER
100
AcDbLine
 10
434.0143370751960106
 20
73.7775371651233485
 30
0.0
 11
423.4077353573978257
 21
84.3841388829215617
 31
0.0
  0
LINE
  5
BB
100
AcDbEntity
  8
Ejes de revoluci\U+00f3n
 62
256
370
-1
 48
1.0
  6
BYLAYER
100
AcDbLine
 10
442.7548613180800317
 20
85.1684101303834353
 30
0.0
 11
429.7644802613135084
 21
92.6684101303834353
 31
0.0
  0
LINE
  5
BC
100
AcDbEntity
  8
Ejes de revoluci\U+00f3n
 62
256
370
-1
 48
1.0
  6
BYLAYER
100
AcDbLine
 10
448.2493845558346948
 20
98.4333626497448222
 30
0.0
 11
433.7604971614987335
 21
102.3156483262826555
 31
0.0
  0
LINE
  5
BD
100
AcDbEntity
  8
Referencias 2
 62
256
370
-1
 48
1.0
  6
BYLAYER
100
AcDbLine
 10
395.2166245217746336
 20
102.6688440829159106
 30
0.0
 11
395.2166245217746336
 21
124.6688440829159106
 31
0.0
  0
DIMENSION
  5
BE
100
AcDbEntity
  8
Cotas
 62
256
370
-1
 48
1.0
  6
BYLAYER
100
AcDbDimension
 10
393.6234641099360374
 20
131.186029893912746
 30
0.0
 11
395.1234641099360374
 21
133.061029893912746
 31
0.0
 70
0
 71
8
 72
2
 74
0
 75
0
 41
1.0
 42
0.0
  1

  3
Standard
100
AcDbAlignedDimension
 13
393.6234641099360374
 23
124.6688440829159106
 33
0.0
 14
396.6234641099360374
 24
124.6688440829159106
 34
0.0
 50
0.0
100
AcDbRotatedDimension
1001
ACAD
1000
DSTYLE
1002
{
1070
144
1040
1.0
1070
40
1040
1.0
1002
}
  0
DIMENSION
  5
BF
100
AcDbEntity
  8
Cotas
 62
256
370
-1
 48
1.0
  6
BYLAYER
100
AcDbDimension
 10
411.452579537921963
 20
124.6688440829158964
 30
0.0
 11
409.577579537921963
 21
113.6688440829159106
 31
0.0
 70
0
 71
8
 72
2
 74
0
 75
0
 41
1.0
 42
0.0
  1

  3
Standard
100
AcDbAlignedDimension
 13
395.2166245217745768
 23
124.6688440829158964
 33
0.0
 14
395.2166245217746336
 24
102.6688440829159106
 34
0.0
 50
90.0
100
AcDbRotatedDimension
1001
ACAD
1000
DSTYLE
1002
{
1070
144
1040
1.0
1070
40
1040
1.0
1002
}
  0
DIMENSION
  5
C0
100
AcDbEntity
  8
Cotas
 62
256
370
-1
 48
1.0
  6
BYLAYER
100
AcDbDimension
 10
404.6463978056717679
 20
109.6165690751154216
 30
0.0
 11
382.9206439399036412
 21
118.1285576127143884
 31
0.0
 70
131
 71
8
 72
2
 74
0
 75
0
 41
1.0
 42
0.0
  1
\U+00f8<>
  3
Standard
100
AcDbDiametricDimension
 15
385.6005304142001933
 25
115.7202511856516196
 35
0.0
 40
0.0
1001
ACAD
1000
DSTYLE
1002
{
1070
279
1070
2
1070
144
1040
1.0
1070
40
1040
1.0
1002
}
  0
DIMENSION
  5
C1
100
AcDbEntity
  8
Cotas
 62
256
370
-1
 48
1.0
  6
BYLAYER
100
AcDbDimension
 10
399.191791935580568
 20
149.7617438779413703
 30
0.0
 11
396.2134639546017638
 21
154.1940330650002124
 31
0.0
 70
3
 71
8
 72
2
 74
0
 75
0
 41
1.0
 42
0.0
  1
\U+00f8<>
  3
Standard
100
AcDbDiametricDimension
 15
391.0551362842913932
 25
155.5750763828256424
 35
0.0
 40
0.0
1001
ACAD
1000
DSTYLE
1002
{
1070
144
1040
1.0
1070
40
1040
1.0
1002
}
  0
DIMENSION
  5
C2
100
AcDbEntity
  8
Cotas
 62
256
370
-1
 48
1.0
  6
BYLAYER
100
AcDbDimension
 10
443.1856701370380733
 20
138.1891452138298462
 30
0.0
 11
438.6396524958851728
 21
140.9908141104566539
 31
0.0
 70
4
 71
8
 72
2
 74
0
 41
1.0
 42
0.0
  1
R<>
  3
Standard
100
AcDbRadialDimension
 15
433.3723774643577258
 25
140.1124982548283811
 35
0.0
 40
0.0
1001
ACAD
1000
DSTYLE
1002
{
1070
144
1040
1.0
1070
40
1040
1.0
1002
}
  0
DIMENSION
  5
C3
100
AcDbEntity
  8
Cotas
 62
256
370
-1
 48
1.0
  6
BYLAYER
100
AcDbDimension
 10
432.4742721015787765
 20
126.9956881761849132
 30
0.0
 11
426.586954767928944
 21
127.6054415947856455
 31
0.0
 70
131
 71
8
 72
2
 74
0
 75
0
 41
1.0
 42
0.0
  1
\U+00f8<>
  3
Standard
100
AcDbDiametricDimension
 15
357.9589769419704908
 25
97.8843366569499977
 35
0.0
 40
0.0
1001
ACAD
1000
DSTYLE
1002
{
1070
279
1070
2
1070
144
1040
1.0
1070
40
1040
1.0
1002
}
  0
DIMENSION
  5
C4
100
AcDbEntity
  8
Cotas
 62
256
370
-1
 48
1.0
  6
BYLAYER
100
AcDbDimension
 10
434.0143370751960674
 20
151.5592830956436217
 30
0.0
 11
395.136124476166458
 21
179.6523877230295341
 31
0.0
 70
2
 71
8
 72
2
 74
0
 75
0
 41
1.0
 42
0.0
  1

  3
Standard
100
AcDb2LineAngularDimension
 13
356.2325911446758937
 23
151.5592830956436217
 33
0.0
 14
395.2166245217745768
 24
112.4400124165674697
 34
0.0
 15
395.2166245217746336
 25
112.4400124165674981
 35
0.0
 16
437.3742060064286079
 26
162.357116046307226
 36
0.0
  0
MTEXT
  5
C5
100
AcDbEntity
  8
Cotas
 62
256
370
-1
 48
1.0
  6
BYLAYER
100
AcDbMText
 10
346.4487537771292978
 20
129.7947720972626939
 30
0.0
 40
2.5
 41
0.0
 71
1
 72
1
  1
%%c80
  7
textstyle0
 50
0.0
 73
2
 44
1.0
  0
LEADER
  5
C6
100
AcDbEntity
  8
Cotas
 62
256
370
-1
 48
1.0
  6
BYLAYER
100
AcDbLeader
  3
Standard
 71
1
 72
0
 73
3
 74
0
 75
0
 40
1.0
 41
10.0
 76
3
 10
356.9580914816184531
 20
124.3822089261363573
 10
352.3242089566880395
 20
126.8998198462394953
 10
346.1987537771292978
 20
126.8998198462394953
1001
ACAD
1000
DSTYLE
1002
{
1070
40
1040
1.0
1002
}
  0
DIMENSION
  5
C7
100
AcDbEntity
  8
Cotas
 62
256
370
-1
 48
1.0
  6
BYLAYER
100
AcDbDimension
 10
341.9975436640372664
 20
98.4333626497450211
 30
0.0
 11
316.3642934529817694
 21
102.23722341092693
 31
0.0
 70
2
 71
8
 72
2
 74
0
 75
0
 41
1.0
 42
0.0
  1

  3
Standard
100
AcDb2LineAngularDimension
 13
330.2166245217746336
 23
112.4400124165674697
 33
0.0
 14
460.2166245217746336
 24
112.4400124165674555
 34
0.0
 15
356.5037497015848089
 25
102.251229176910968
 35
0.0
 16
314.7760913567472016
 26
100.0794090399378717
 36
0.0
  0
DIMENSION
  5
C8
100
AcDbEntity
  8
Cotas
 62
256
370
-1
 48
1.0
  6
BYLAYER
100
AcDbDimension
 10
397.7166245217746336
 20
44.0209751364833437
 30
0.0
 11
395.2166245217746336
 21
45.8959751364833437
 31
0.0
 70
0
 71
8
 72
2
 74
0
 75
0
 41
1.0
 42
0.0
  1

  3
Standard
100
AcDbAlignedDimension
 13
397.7166245217746336
 23
57.4400124165674555
 33
0.0
 14
392.7166245217746336
 24
57.4400124165674555
 34
0.0
 50
0.0
100
AcDbRotatedDimension
1001
ACAD
1000
DSTYLE
1002
{
1070
144
1040
1.0
1070
40
1040
1.0
1002
}
  0
MTEXT
  5
C9
100
AcDbEntity
  8
Cotas
 62
256
370
-1
 48
1.0
  6
BYLAYER
100
AcDbMText
 10
423.6068912140029852
 20
47.3270565629204185
 30
0.0
 40
2.5
 41
0.0
 71
1
 72
1
  1
%%c130
  7
textstyle2
 50
0.0
 73
2
 44
1.0
  0
LEADER
  5
CA
100
AcDbEntity
  8
Cotas
 62
256
370
-1
 48
1.0
  6
BYLAYER
100
AcDbLeader
  3
Standard
 71
1
 72
0
 73
3
 74
0
 75
0
 40
1.0
 41
10.0
 76
3
 10
411.9361961937459569
 20
49.8804173301829934
 10
423.3568912140029852
 20
44.432104311897227
 10
431.4255399846335308
 20
44.432104311897227
1001
ACAD
1000
DSTYLE
1002
{
1070
40
1040
1.0
1002
}
  0
ARC
  5
CB
100
AcDbEntity
  8
Cotas
 62
256
370
-1
 48
1.0
  6
BYLAYER
100
AcDbCircle
 10
460.1230628354999226
 20
112.4400124165674555
 30
0.0
 40
9.996990109536398
100
AcDbArc
 50
180.0
 51
326.096818477503632
  0
MTEXT
  5
CC
100
AcDbEntity
  8
Cotas
 62
256
370
-1
 48
1.0
  6
BYLAYER
100
AcDbMText
 10
461.5686958849158259
 20
111.6278279712713868
 30
0.0
 40
2.5
 41
0.0
 71
1
 72
1
  1
R10
  7
textstyle1
 50
0.0
 73
2
 44
1.0
  0
LEADER
  5
CD
100
AcDbEntity
  8
Cotas
 62
256
370
-1
 48
1.0
  6
BYLAYER
100
AcDbLeader
  3
Standard
 71
1
 72
0
 73
3
 74
0
 75
0
 40
1.0
 41
10.0
 76
3
 10
462.8336613919213391
 20
102.8175144708106075
 10
461.3186958849158259
 20
108.8249630326629216
 10
467.7834713980506649
 20
108.8249630326629216
1001
ACAD
1000
DSTYLE
1002
{
1070
40
1040
1.0
1002
}
  0
ENDSEC
  0
SECTION
  2
OBJECTS
  0
DICTIONARY
  5
C
100
AcDbDictionary
280
0
281
1
  3
ACAD_GROUP
350
D
  3
ACAD_LAYOUT
350
1A
  3
ACAD_MLINESTYLE
350
17
  3
ACAD_PLOTSETTINGS
350
19
  3
ACAD_PLOTSTYLENAME
350
E
  3
AcDbVariableDictionary
350
CE
  3
QCAD_OBJECTS
350
CF
  0
DICTIONARY
  5
D
100
AcDbDictionary
280
0
281
1
  0
ACDBDICTIONARYWDFLT
  5
E
100
AcDbDictionary
281
1
  3
Normal
350
F
100
AcDbDictionaryWithDefault
340
F
  0
ACDBPLACEHOLDER
  5
F
  0
DICTIONARY
  5
17
100
AcDbDictionary
280
0
281
1
  3
Standard
350
18
  0
MLINESTYLE
  5
18
100
AcDbMlineStyle
  2
STANDARD
 70
0
  3

 62
256
 51
90.0
 52
90.0
 71
2
 49
0.5
 62
256
  6
BYLAYER
 49
-0.5
 62
256
  6
BYLAYER
  0
DICTIONARY
  5
19
100
AcDbDictionary
280
0
281
1
  0
DICTIONARY
  5
1A
100
AcDbDictionary
281
1
  3
Layout1
350
1E
  3
Layout2
350
26
  3
Model
350
22
  0
LAYOUT
  5
1E
100
AcDbPlotSettings
  1

  2
none_device
  4

  6

 40
0.0
 41
0.0
 42
0.0
 43
0.0
 44
0.0
 45
0.0
 46
0.0
 47
0.0
 48
0.0
 49
0.0
140
0.0
141
0.0
142
1.0
143
1.0
 70
688
 72
0
 73
0
 74
5
  7

 75
16
147
1.0
148
0.0
149
0.0
100
AcDbLayout
  1
Layout1
 70
1
 71
1
 10
0.0
 20
0.0
 11
420.0
 21
297.0
 12
0.0
 22
0.0
 32
0.0
 14
100000000000000000000.0
 24
100000000000000000000.0
 34
100000000000000000000.0
 15
-100000000000000000000.0
 25
-100000000000000000000.0
 35
-100000000000000000000.0
146
0.0
 13
0.0
 23
0.0
 33
0.0
 16
1.0
 26
0.0
 36
0.0
 17
0.0
 27
1.0
 37
0.0
 76
0
330
1B
  0
LAYOUT
  5
22
100
AcDbPlotSettings
  1

  2
none_device
  4

  6

 40
0.0
 41
0.0
 42
0.0
 43
0.0
 44
0.0
 45
0.0
 46
0.0
 47
0.0
 48
0.0
 49
0.0
140
0.0
141
0.0
142
1.0
143
1.0
 70
1712
 72
0
 73
0
 74
0
  7

 75
0
147
1.0
148
0.0
149
0.0
100
AcDbLayout
  1
Model
 70
1
 71
0
 10
0.0
 20
0.0
 11
12.0
 21
9.0
 12
0.0
 22
0.0
 32
0.0
 14
0.0
 24
0.0
 34
0.0
 15
0.0
 25
0.0
 35
0.0
146
0.0
 13
0.0
 23
0.0
 33
0.0
 16
1.0
 26
0.0
 36
0.0
 17
0.0
 27
1.0
 37
0.0
 76
0
330
1F
  0
LAYOUT
  5
26
100
AcDbPlotSettings
  1

  2
none_device
  4

  6

 40
0.0
 41
0.0
 42
0.0
 43
0.0
 44
0.0
 45
0.0
 46
0.0
 47
0.0
 48
0.0
 49
0.0
140
0.0
141
0.0
142
1.0
143
1.0
 70
688
 72
0
 73
0
 74
5
  7

 75
16
147
1.0
148
0.0
149
0.0
100
AcDbLayout
  1
Layout2
 70
1
 71
2
 10
0.0
 20
0.0
 11
12.0
 21
9.0
 12
0.0
 22
0.0
 32
0.0
 14
0.0
 24
0.0
 34
0.0
 15
0.0
 25
0.0
 35
0.0
146
0.0
 13
0.0
 23
0.0
 33
0.0
 16
1.0
 26
0.0
 36
0.0
 17
0.0
 27
1.0
 37
0.0
 76
0
330
23
  0
DICTIONARY
  5
CE
100
AcDbDictionary
281
1
  3
DIMASSOC
350
D1
  3
HIDETEXT
350
D0
  0
DICTIONARYVAR
  5
D0
100
DictionaryVariables
280
0
  1
2
  0
DICTIONARYVAR
  5
D1
100
DictionaryVariables
280
0
  1
1
  0
DICTIONARY
  5
CF
100
AcDbDictionary
281
1
  3
ColorSettings/BackgroundColor
350
D2
  3
ColorSettings/ColorMode
350
D3
  3
Grid/DisplayGrid00
350
D4
  3
Grid/DisplayGrid01
350
D5
  3
Grid/DisplayGrid02
350
D6
  3
Grid/DisplayGrid03
350
D7
  3
Grid/GridSpacingX00
350
D8
  3
Grid/GridSpacingX01
350
D9
  3
Grid/GridSpacingX02
350
DA
  3
Grid/GridSpacingX03
350
DB
  3
Grid/GridSpacingY00
350
DC
  3
Grid/GridSpacingY01
350
DD
  3
Grid/GridSpacingY02
350
DE
  3
Grid/GridSpacingY03
350
DF
  3
Grid/IsometricGrid00
350
E0
  3
Grid/IsometricGrid01
350
E1
  3
Grid/IsometricGrid02
350
E2
  3
Grid/IsometricGrid03
350
E3
  3
Grid/IsometricProjection00
350
E4
  3
Grid/IsometricProjection01
350
E5
  3
Grid/IsometricProjection02
350
E6
  3
Grid/IsometricProjection03
350
E7
  3
Grid/MetaGridSpacingX00
350
E8
  3
Grid/MetaGridSpacingX01
350
E9
  3
Grid/MetaGridSpacingX02
350
EA
  3
Grid/MetaGridSpacingX03
350
EB
  3
Grid/MetaGridSpacingY00
350
EC
  3
Grid/MetaGridSpacingY01
350
ED
  3
Grid/MetaGridSpacingY02
350
EE
  3
Grid/MetaGridSpacingY03
350
EF
  3
MultiPageSettings/Columns
350
F0
  3
MultiPageSettings/GlueMarginsBottom
350
F1
  3
MultiPageSettings/GlueMarginsLeft
350
F2
  3
MultiPageSettings/GlueMarginsRight
350
F3
  3
MultiPageSettings/GlueMarginsTop
350
F4
  3
MultiPageSettings/PrintCropMarks
350
F5
  3
MultiPageSettings/Rows
350
F6
  3
PageSettings/OffsetX
350
F7
  3
PageSettings/OffsetY
350
F8
  3
PageSettings/PageOrientation
350
F9
  3
PageSettings/PaperHeight
350
FA
  3
PageSettings/PaperWidth
350
FB
  3
PageSettings/Scale
350
FC
  3
PageSettings/ShowPaperBorders
350
FD
  3
PageTagSettings/EnablePageTags
350
FE
  3
PageTagSettings/TagAlignment
350
FF
  3
PageTagSettings/TagFont
350
100
  3
PageTagSettings/TagPosition
350
101
  3
QCADVersion
350
102
  3
UnitSettings/PaperUnit
350
103
  3
ViewportCenter
350
104
  3
ViewportHeight
350
105
  3
ViewportWidth
350
106
  0
XRECORD
  5
D2
330
CF
100
AcDbXrecord
280
1
1000
Blanca
  0
XRECORD
  5
D3
330
CF
100
AcDbXrecord
280
1
1000
FullColor
  0
XRECORD
  5
D4
330
CF
100
AcDbXrecord
280
1
290
0
  0
XRECORD
  5
D5
330
CF
100
AcDbXrecord
280
1
290
1
  0
XRECORD
  5
D6
330
CF
100
AcDbXrecord
280
1
290
1
  0
XRECORD
  5
D7
330
CF
100
AcDbXrecord
280
1
290
1
  0
XRECORD
  5
D8
330
CF
100
AcDbXrecord
280
1
1000
auto
  0
XRECORD
  5
D9
330
CF
100
AcDbXrecord
280
1
1000
auto
  0
XRECORD
  5
DA
330
CF
100
AcDbXrecord
280
1
1000
auto
  0
XRECORD
  5
DB
330
CF
100
AcDbXrecord
280
1
1000
auto
  0
XRECORD
  5
DC
330
CF
100
AcDbXrecord
280
1
1000
auto
  0
XRECORD
  5
DD
330
CF
100
AcDbXrecord
280
1
1000
auto
  0
XRECORD
  5
DE
330
CF
100
AcDbXrecord
280
1
1000
auto
  0
XRECORD
  5
DF
330
CF
100
AcDbXrecord
280
1
1000
auto
  0
XRECORD
  5
E0
330
CF
100
AcDbXrecord
280
1
290
0
  0
XRECORD
  5
E1
330
CF
100
AcDbXrecord
280
1
290
0
  0
XRECORD
  5
E2
330
CF
100
AcDbXrecord
280
1
290
0
  0
XRECORD
  5
E3
330
CF
100
AcDbXrecord
280
1
290
0
  0
XRECORD
  5
E4
330
CF
100
AcDbXrecord
280
1
 90
65537
  0
XRECORD
  5
E5
330
CF
100
AcDbXrecord
280
1
 90
65537
  0
XRECORD
  5
E6
330
CF
100
AcDbXrecord
280
1
 90
65537
  0
XRECORD
  5
E7
330
CF
100
AcDbXrecord
280
1
 90
65537
  0
XRECORD
  5
E8
330
CF
100
AcDbXrecord
280
1
1000
auto
  0
XRECORD
  5
E9
330
CF
100
AcDbXrecord
280
1
1000
auto
  0
XRECORD
  5
EA
330
CF
100
AcDbXrecord
280
1
1000
auto
  0
XRECORD
  5
EB
330
CF
100
AcDbXrecord
280
1
1000
auto
  0
XRECORD
  5
EC
330
CF
100
AcDbXrecord
280
1
1000
1
  0
XRECORD
  5
ED
330
CF
100
AcDbXrecord
280
1
1000
auto
  0
XRECORD
  5
EE
330
CF
100
AcDbXrecord
280
1
1000
auto
  0
XRECORD
  5
EF
330
CF
100
AcDbXrecord
280
1
1000
auto
  0
XRECORD
  5
F0
330
CF
100
AcDbXrecord
280
1
 90
1
  0
XRECORD
  5
F1
330
CF
100
AcDbXrecord
280
1
 40
10.0
  0
XRECORD
  5
F2
330
CF
100
AcDbXrecord
280
1
 40
10.0
  0
XRECORD
  5
F3
330
CF
100
AcDbXrecord
280
1
 40
10.0
  0
XRECORD
  5
F4
330
CF
100
AcDbXrecord
280
1
 40
10.0
  0
XRECORD
  5
F5
330
CF
100
AcDbXrecord
280
1
290
0
  0
XRECORD
  5
F6
330
CF
100
AcDbXrecord
280
1
 90
1
  0
XRECORD
  5
F7
330
CF
100
AcDbXrecord
280
1
 40
793.1665914866936191
  0
XRECORD
  5
F8
330
CF
100
AcDbXrecord
280
1
 40
306.6308471493692309
  0
XRECORD
  5
F9
330
CF
100
AcDbXrecord
280
1
1000
Portrait
  0
XRECORD
  5
FA
330
CF
100
AcDbXrecord
280
1
 40
279.3999999999999773
  0
XRECORD
  5
FB
330
CF
100
AcDbXrecord
280
1
 40
215.9000000000000057
  0
XRECORD
  5
FC
330
CF
100
AcDbXrecord
280
1
 90
1
  0
XRECORD
  5
FD
330
CF
100
AcDbXrecord
280
1
290
1
  0
XRECORD
  5
FE
330
CF
100
AcDbXrecord
280
1
290
0
  0
XRECORD
  5
FF
330
CF
100
AcDbXrecord
280
1
1000
Inside
  0
XRECORD
  5
100
330
CF
100
AcDbXrecord
280
1
1000
Arial,10,-1,5,50,0,0,0,0,0
  0
XRECORD
  5
101
330
CF
100
AcDbXrecord
280
1
1000
TopLeft
  0
XRECORD
  5
102
330
CF
100
AcDbXrecord
280
1
1000
3.28.1
  0
XRECORD
  5
103
330
CF
100
AcDbXrecord
280
1
 90
4
  0
XRECORD
  5
105
330
CF
100
AcDbXrecord
280
1
 40
133.4949340127386961
  0
XRECORD
  5
106
330
CF
100
AcDbXrecord
280
1
 40
232.9115067515920714
  0
IMAGEDEF
  5
63
100
AcDbRasterImageDef
 90
0
  1
C:/Users/iamth/Documents/CAD/QCad/Learn QCAD/1. StudyCadCam/2D CAD EXERCISES 35a.png
 10
200.0
 20
141.0
 11
1.0
 21
1.0
280
1
281
0
  0
ENDSEC
  0
EOF
