999
dxflib 3.26.4.0
  0
SECTION
  2
HEADER
  9
$ACADVER
  1
AC1015
  9
$HANDSEED
  5
FFFF
  9
$DIMADEC
 70
0
  9
$DIMASZ
 40
2.5
  9
$DIMATFIT
 70
0
  9
$DIMAUNIT
 70
0
  9
$DIMAZIN
 70
2
  9
$DIMBLK
  1
0
  9
$DIMBLK1
  1
0
  9
$DIMBLK2
  1
0
  9
$DIMDEC
 70
4
  9
$DIMDLI
 40
5.0
  9
$DIMDSEP
 70
46
  9
$DIMEXE
 40
1.25
  9
$DIMEXO
 40
0.625
  9
$DIMGAP
 40
0.625
  9
$DIMLFAC
 40
1.0
  9
$DIMLUNIT
 70
2
  9
$DIMSCALE
 40
0.5
  9
$DIMTAD
 70
1
  9
$DIMTIH
 70
0
  9
$DIMTSZ
 40
0.0
  9
$DIMTXT
 40
2.5
  9
$DIMZIN
 70
8
  9
$DWGCODEPAGE
  3
ANSI_1252
  9
$INSUNITS
 70
4
  9
$LTSCALE
 40
1.0
  9
$MAXACTVP
 70
64
  9
$MEASUREMENT
 70
1
  9
$MIRRTEXT
 70
0
  9
$PDMODE
 70
0
  9
$PDSIZE
 40
0.0
  0
ENDSEC
  0
SECTION
  2
TABLES
  0
TABLE
  2
VPORT
  5
8
100
AcDbSymbolTable
 70
1
  0
VPORT
  5
30
100
AcDbSymbolTableRecord
100
AcDbViewportTableRecord
  2
*Active
 70
0
 10
0.0
 20
0.0
 11
1.0
 21
1.0
 12
286.3055555555554861
 22
148.5
 13
0.0
 23
0.0
 14
10.0
 24
10.0
 15
10.0
 25
10.0
 16
0.0
 26
0.0
 36
1.0
 17
0.0
 27
0.0
 37
0.0
 40
297.0
 41
1.92798353909465
 42
50.0
 43
0.0
 44
0.0
 50
0.0
 51
0.0
 71
0
 72
100
 73
1
 74
3
 75
1
 76
1
 77
0
 78
0
281
0
 65
1
110
0.0
120
0.0
130
0.0
111
1.0
121
0.0
131
0.0
112
0.0
122
1.0
132
0.0
 79
0
146
0.0
  0
ENDTAB
  0
TABLE
  2
LTYPE
  5
5
100
AcDbSymbolTable
 70
41
  0
LTYPE
  5
16
100
AcDbSymbolTableRecord
100
AcDbLinetypeTableRecord
  2
Continuous
 70
0
  3
Solid line
 72
65
 73
0
 40
0.0
  0
LTYPE
  5
31
100
AcDbSymbolTableRecord
100
AcDbLinetypeTableRecord
  2
PHANTOM2
 70
0
  3
Phantom (.5x) ___ _ _ ___ _ _ ___ _ _ ___ _ _
 72
65
 73
6
 40
31.7500000000000036
 49
15.875
 74
0
 49
-3.1749999999999998
 74
0
 49
3.1749999999999998
 74
0
 49
-3.1749999999999998
 74
0
 49
3.1749999999999998
 74
0
 49
-3.1749999999999998
 74
0
  0
LTYPE
  5
32
100
AcDbSymbolTableRecord
100
AcDbLinetypeTableRecord
  2
HIDDENX2
 70
0
  3
Hidden (2x) ____ ____ ____ ____ ____ ____ ____ 
 72
65
 73
2
 40
19.0499999999999972
 49
12.6999999999999993
 74
0
 49
-6.3499999999999996
 74
0
  0
LTYPE
  5
33
100
AcDbSymbolTableRecord
100
AcDbLinetypeTableRecord
  2
DOT2
 70
0
  3
Dot (.5x) ........................................
 72
65
 73
2
 40
3.1749999999999998
 49
0.1
 74
0
 49
-3.0749999999999997
 74
0
  0
LTYPE
  5
34
100
AcDbSymbolTableRecord
100
AcDbLinetypeTableRecord
  2
ACAD_ISO14W100
 70
0
  3
ISO dash triple-dot __ . . . __ . . . __ . . . _
 72
65
 73
8
 40
24.0000000000000036
 49
12.0
 74
0
 49
-2.9500000000000002
 74
0
 49
0.1
 74
0
 49
-2.9000000000000004
 74
0
 49
0.1
 74
0
 49
-2.9000000000000004
 74
0
 49
0.1
 74
0
 49
-2.9500000000000002
 74
0
  0
LTYPE
  5
35
100
AcDbSymbolTableRecord
100
AcDbLinetypeTableRecord
  2
PHANTOMX2
 70
0
  3
Phantom (2x) ____________    ____    ____   _
 72
65
 73
6
 40
127.0000000000000142
 49
63.5
 74
0
 49
-12.6999999999999993
 74
0
 49
12.6999999999999993
 74
0
 49
-12.6999999999999993
 74
0
 49
12.6999999999999993
 74
0
 49
-12.6999999999999993
 74
0
  0
LTYPE
  5
36
100
AcDbSymbolTableRecord
100
AcDbLinetypeTableRecord
  2
ACAD_ISO04W100
 70
0
  3
ISO long-dash dot ____ . ____ . ____ . ____ . _
 72
65
 73
4
 40
30.0
 49
24.0
 74
0
 49
-2.9500000000000002
 74
0
 49
0.1
 74
0
 49
-2.9500000000000002
 74
0
  0
LTYPE
  5
37
100
AcDbSymbolTableRecord
100
AcDbLinetypeTableRecord
  2
DASHDOT2
 70
0
  3
Dash dot (.5x) _._._._._._._._._._._._._._._.
 72
65
 73
4
 40
12.6999999999999993
 49
6.3499999999999996
 74
0
 49
-3.125
 74
0
 49
0.1
 74
0
 49
-3.125
 74
0
  0
LTYPE
  5
38
100
AcDbSymbolTableRecord
100
AcDbLinetypeTableRecord
  2
ACAD_ISO08W100
 70
0
  3
ISO long-dash short-dash ____ __ ____ __ ____ _
 72
65
 73
4
 40
36.0
 49
24.0
 74
0
 49
-3.0
 74
0
 49
6.0
 74
0
 49
-3.0
 74
0
  0
LTYPE
  5
39
100
AcDbSymbolTableRecord
100
AcDbLinetypeTableRecord
  2
ACAD_ISO12W100
 70
0
  3
ISO dash double-dot __ . . __ . . __ . . __ . . 
 72
65
 73
6
 40
21.0
 49
12.0
 74
0
 49
-2.9500000000000002
 74
0
 49
0.1
 74
0
 49
-2.9000000000000004
 74
0
 49
0.1
 74
0
 49
-2.9500000000000002
 74
0
  0
LTYPE
  5
3A
100
AcDbSymbolTableRecord
100
AcDbLinetypeTableRecord
  2
BORDERX2
 70
0
  3
Border (2x) ____  ____  .  ____  ____  .  ___
 72
65
 73
6
 40
88.8999999999999773
 49
25.3999999999999986
 74
0
 49
-12.6999999999999993
 74
0
 49
25.3999999999999986
 74
0
 49
-12.6499999999999986
 74
0
 49
0.1
 74
0
 49
-12.6499999999999986
 74
0
  0
LTYPE
  5
3B
100
AcDbSymbolTableRecord
100
AcDbLinetypeTableRecord
  2
ACAD_ISO11W100
 70
0
  3
ISO double-dash dot __ __ . __ __ . __ __ . __ _
 72
65
 73
6
 40
33.0
 49
12.0
 74
0
 49
-3.0
 74
0
 49
12.0
 74
0
 49
-2.9500000000000002
 74
0
 49
0.1
 74
0
 49
-2.9500000000000002
 74
0
  0
LTYPE
  5
3C
100
AcDbSymbolTableRecord
100
AcDbLinetypeTableRecord
  2
DIVIDE
 70
0
  3
Divide ____ . . ____ . . ____ . . ____ . . ____
 72
65
 73
6
 40
31.7500000000000036
 49
12.6999999999999993
 74
0
 49
-6.2999999999999998
 74
0
 49
0.1
 74
0
 49
-6.25
 74
0
 49
0.1
 74
0
 49
-6.2999999999999998
 74
0
  0
LTYPE
  5
3D
100
AcDbSymbolTableRecord
100
AcDbLinetypeTableRecord
  2
ACAD_ISO02W100
 70
0
  3
ISO dash __ __ __ __ __ __ __ __ __ __ __ __ __
 72
65
 73
2
 40
15.0
 49
12.0
 74
0
 49
-3.0
 74
0
  0
LTYPE
  5
3E
100
AcDbSymbolTableRecord
100
AcDbLinetypeTableRecord
  2
DIVIDE2
 70
0
  3
Divide (.5x) __..__..__..__..__..__..__..__.._
 72
65
 73
6
 40
15.8749999999999982
 49
6.3499999999999996
 74
0
 49
-3.125
 74
0
 49
0.1
 74
0
 49
-3.0750000000000002
 74
0
 49
0.1
 74
0
 49
-3.125
 74
0
  0
LTYPE
  5
3F
100
AcDbSymbolTableRecord
100
AcDbLinetypeTableRecord
  2
CENTER2
 70
0
  3
Center (.5x) ___ _ ___ _ ___ _ ___ _ ___ _ ___
 72
65
 73
4
 40
28.5750000000000028
 49
19.0500000000000007
 74
0
 49
-3.1749999999999998
 74
0
 49
3.1749999999999998
 74
0
 49
-3.1749999999999998
 74
0
  0
LTYPE
  5
40
100
AcDbSymbolTableRecord
100
AcDbLinetypeTableRecord
  2
DASHED
 70
0
  3
Dashed __ __ __ __ __ __ __ __ __ __ __ __ __ _
 72
65
 73
2
 40
19.0499999999999972
 49
12.6999999999999993
 74
0
 49
-6.3499999999999996
 74
0
  0
LTYPE
  5
41
100
AcDbSymbolTableRecord
100
AcDbLinetypeTableRecord
  2
ACAD_ISO05W100
 70
0
  3
ISO long-dash double-dot ____ .. ____ .. ____ . 
 72
65
 73
6
 40
33.0000000000000071
 49
24.0
 74
0
 49
-2.9500000000000002
 74
0
 49
0.1
 74
0
 49
-2.9000000000000004
 74
0
 49
0.1
 74
0
 49
-2.9500000000000002
 74
0
  0
LTYPE
  5
42
100
AcDbSymbolTableRecord
100
AcDbLinetypeTableRecord
  2
CENTER
 70
0
  3
Center ____ _ ____ _ ____ _ ____ _ ____ _ ____
 72
65
 73
4
 40
50.8000000000000043
 49
31.75
 74
0
 49
-6.3499999999999996
 74
0
 49
6.3499999999999996
 74
0
 49
-6.3499999999999996
 74
0
  0
LTYPE
  5
43
100
AcDbSymbolTableRecord
100
AcDbLinetypeTableRecord
  2
ACAD_ISO06W100
 70
0
  3
ISO long-dash triple-dot ____ ... ____ ... ____
 72
65
 73
8
 40
36.0000000000000071
 49
24.0
 74
0
 49
-2.9500000000000002
 74
0
 49
0.1
 74
0
 49
-2.9000000000000004
 74
0
 49
0.1
 74
0
 49
-2.9000000000000004
 74
0
 49
0.1
 74
0
 49
-2.9500000000000002
 74
0
  0
LTYPE
  5
44
100
AcDbSymbolTableRecord
100
AcDbLinetypeTableRecord
  2
HIDDEN2
 70
0
  3
Hidden (.5x) _ _ _ _ _ _ _ _ _ _ _ _ _ _ _ _ _ 
 72
65
 73
2
 40
4.7624999999999993
 49
3.1749999999999998
 74
0
 49
-1.5874999999999999
 74
0
  0
LTYPE
  5
15
100
AcDbSymbolTableRecord
100
AcDbLinetypeTableRecord
  2
BYLAYER
 70
0
  3

 72
65
 73
0
 40
0.0
  0
LTYPE
  5
45
100
AcDbSymbolTableRecord
100
AcDbLinetypeTableRecord
  2
DASHEDX2
 70
0
  3
Dashed (2x) ____  ____  ____  ____  ____  ___
 72
65
 73
2
 40
38.0999999999999943
 49
25.3999999999999986
 74
0
 49
-12.6999999999999993
 74
0
  0
LTYPE
  5
46
100
AcDbSymbolTableRecord
100
AcDbLinetypeTableRecord
  2
ACAD_ISO09W100
 70
0
  3
ISO long-dash double-short-dash ____ __ __ ____
 72
65
 73
6
 40
45.0
 49
24.0
 74
0
 49
-3.0
 74
0
 49
6.0
 74
0
 49
-3.0
 74
0
 49
6.0
 74
0
 49
-3.0
 74
0
  0
LTYPE
  5
47
100
AcDbSymbolTableRecord
100
AcDbLinetypeTableRecord
  2
HIDDEN
 70
0
  3
Hidden __ __ __ __ __ __ __ __ __ __ __ __ __ __
 72
65
 73
2
 40
9.5249999999999986
 49
6.3499999999999996
 74
0
 49
-3.1749999999999998
 74
0
  0
LTYPE
  5
14
100
AcDbSymbolTableRecord
100
AcDbLinetypeTableRecord
  2
BYBLOCK
 70
0
  3

 72
65
 73
0
 40
0.0
  0
LTYPE
  5
48
100
AcDbSymbolTableRecord
100
AcDbLinetypeTableRecord
  2
DASHED2
 70
0
  3
Dashed (.5x) _ _ _ _ _ _ _ _ _ _ _ _ _ _ _ _ _ 
 72
65
 73
2
 40
9.5249999999999986
 49
6.3499999999999996
 74
0
 49
-3.1749999999999998
 74
0
  0
LTYPE
  5
49
100
AcDbSymbolTableRecord
100
AcDbLinetypeTableRecord
  2
PHANTOM
 70
0
  3
Phantom ______  __  __  ______  __  __  ______ 
 72
65
 73
6
 40
63.5000000000000071
 49
31.75
 74
0
 49
-6.3499999999999996
 74
0
 49
6.3499999999999996
 74
0
 49
-6.3499999999999996
 74
0
 49
6.3499999999999996
 74
0
 49
-6.3499999999999996
 74
0
  0
LTYPE
  5
4A
100
AcDbSymbolTableRecord
100
AcDbLinetypeTableRecord
  2
DIVIDEX2
 70
0
  3
Divide (2x) ________  .  .  ________  .  .  _
 72
65
 73
6
 40
63.5
 49
25.3999999999999986
 74
0
 49
-12.6499999999999986
 74
0
 49
0.1
 74
0
 49
-12.5999999999999979
 74
0
 49
0.1
 74
0
 49
-12.6499999999999986
 74
0
  0
LTYPE
  5
4B
100
AcDbSymbolTableRecord
100
AcDbLinetypeTableRecord
  2
ACAD_ISO13W100
 70
0
  3
ISO double-dash double-dot __ __ . . __ __ . . _
 72
65
 73
8
 40
36.0000000000000071
 49
12.0
 74
0
 49
-3.0
 74
0
 49
12.0
 74
0
 49
-2.9500000000000002
 74
0
 49
0.1
 74
0
 49
-2.9000000000000004
 74
0
 49
0.1
 74
0
 49
-2.9500000000000002
 74
0
  0
LTYPE
  5
4C
100
AcDbSymbolTableRecord
100
AcDbLinetypeTableRecord
  2
DASHDOT
 70
0
  3
Dash dot __ . __ . __ . __ . __ . __ . __ . __
 72
65
 73
4
 40
25.4000000000000021
 49
12.6999999999999993
 74
0
 49
-6.2999999999999998
 74
0
 49
0.1
 74
0
 49
-6.2999999999999998
 74
0
  0
LTYPE
  5
4D
100
AcDbSymbolTableRecord
100
AcDbLinetypeTableRecord
  2
ACAD_ISO07W100
 70
0
  3
ISO dot . . . . . . . . . . . . . . . . . . . . 
 72
65
 73
2
 40
3.0
 49
0.1
 74
0
 49
-2.8999999999999999
 74
0
  0
LTYPE
  5
4E
100
AcDbSymbolTableRecord
100
AcDbLinetypeTableRecord
  2
ACAD_ISO15W100
 70
0
  3
ISO double-dash triple-dot __ __ . . . __ __ . .
 72
65
 73
10
 40
39.0000000000000071
 49
12.0
 74
0
 49
-3.0
 74
0
 49
12.0
 74
0
 49
-2.9500000000000002
 74
0
 49
0.1
 74
0
 49
-2.9000000000000004
 74
0
 49
0.1
 74
0
 49
-2.9000000000000004
 74
0
 49
0.1
 74
0
 49
-2.9500000000000002
 74
0
  0
LTYPE
  5
4F
100
AcDbSymbolTableRecord
100
AcDbLinetypeTableRecord
  2
BORDER
 70
0
  3
Border __ __ . __ __ . __ __ . __ __ . __ __ .
 72
65
 73
6
 40
44.4499999999999957
 49
12.6999999999999993
 74
0
 49
-6.3499999999999996
 74
0
 49
12.6999999999999993
 74
0
 49
-6.2999999999999998
 74
0
 49
0.1
 74
0
 49
-6.2999999999999998
 74
0
  0
LTYPE
  5
50
100
AcDbSymbolTableRecord
100
AcDbLinetypeTableRecord
  2
ACAD_ISO03W100
 70
0
  3
ISO dash space __    __    __    __    __    __
 72
65
 73
2
 40
30.0
 49
12.0
 74
0
 49
-18.0
 74
0
  0
LTYPE
  5
51
100
AcDbSymbolTableRecord
100
AcDbLinetypeTableRecord
  2
ACAD_ISO10W100
 70
0
  3
ISO dash dot __ . __ . __ . __ . __ . __ . __ . 
 72
65
 73
4
 40
18.0
 49
12.0
 74
0
 49
-2.9500000000000002
 74
0
 49
0.1
 74
0
 49
-2.9500000000000002
 74
0
  0
LTYPE
  5
52
100
AcDbSymbolTableRecord
100
AcDbLinetypeTableRecord
  2
DOTX2
 70
0
  3
Dot (2x) .  .  .  .  .  .  .  .  .  .  .  .  .  .
 72
65
 73
2
 40
12.6999999999999993
 49
0.1
 74
0
 49
-12.5999999999999996
 74
0
  0
LTYPE
  5
53
100
AcDbSymbolTableRecord
100
AcDbLinetypeTableRecord
  2
BORDER2
 70
0
  3
Border (.5x) __.__.__.__.__.__.__.__.__.__.__.
 72
65
 73
6
 40
22.2250000000000014
 49
6.3499999999999996
 74
0
 49
-3.1749999999999998
 74
0
 49
6.3499999999999996
 74
0
 49
-3.125
 74
0
 49
0.1
 74
0
 49
-3.125
 74
0
  0
LTYPE
  5
54
100
AcDbSymbolTableRecord
100
AcDbLinetypeTableRecord
  2
DASHDOTX2
 70
0
  3
Dash dot (2x) ____  .  ____  .  ____  .  ___
 72
65
 73
4
 40
50.7999999999999972
 49
25.3999999999999986
 74
0
 49
-12.6499999999999986
 74
0
 49
0.1
 74
0
 49
-12.6499999999999986
 74
0
  0
LTYPE
  5
55
100
AcDbSymbolTableRecord
100
AcDbLinetypeTableRecord
  2
CENTERX2
 70
0
  3
Center (2x) ________  __  ________  __  _____
 72
65
 73
4
 40
101.6000000000000085
 49
63.5
 74
0
 49
-12.6999999999999993
 74
0
 49
12.6999999999999993
 74
0
 49
-12.6999999999999993
 74
0
  0
LTYPE
  5
56
100
AcDbSymbolTableRecord
100
AcDbLinetypeTableRecord
  2
DOT
 70
0
  3
Dot . . . . . . . . . . . . . . . . . . . . . . . .
 72
65
 73
2
 40
6.3499999999999996
 49
0.1
 74
0
 49
-6.25
 74
0
  0
ENDTAB
  0
TABLE
  2
LAYER
  5
2
100
AcDbSymbolTable
 70
7
  0
LAYER
  5
57
100
AcDbSymbolTableRecord
100
AcDbLayerTableRecord
  2
Contornos Visibles
 70
0
 62
7
420
16777215
  6
Continuous
370
50
390
F
  0
LAYER
  5
10
100
AcDbSymbolTableRecord
100
AcDbLayerTableRecord
  2
0
 70
0
 62
7
420
16777215
  6
Continuous
370
25
390
F
  0
LAYER
  5
58
100
AcDbSymbolTableRecord
100
AcDbLayerTableRecord
  2
Referencias
 70
1
 62
2
420
16776960
  6
Continuous
370
25
390
F
  0
LAYER
  5
59
100
AcDbSymbolTableRecord
100
AcDbLayerTableRecord
  2
Cotas
 70
0
 62
1
420
16711680
  6
Continuous
370
20
390
F
  0
LAYER
  5
5A
100
AcDbSymbolTableRecord
100
AcDbLayerTableRecord
  2
Ejes de revoluci\U+00f3n
 70
0
 62
6
420
16711935
  6
ACAD_ISO04W100
370
20
390
F
  0
LAYER
  5
5B
100
AcDbSymbolTableRecord
100
AcDbLayerTableRecord
  2
Referencias 2
 70
1
 62
3
420
65280
  6
Continuous
370
25
390
F
  0
LAYER
  5
5C
100
AcDbSymbolTableRecord
100
AcDbLayerTableRecord
  2
Contornos Ocultos
 70
0
 62
252
420
10526884
  6
ACAD_ISO02W100
370
30
390
F
  0
ENDTAB
  0
TABLE
  2
STYLE
  5
3
100
AcDbSymbolTable
 70
3
  0
STYLE
  5
5D
100
AcDbSymbolTableRecord
100
AcDbTextStyleTableRecord
  2
Standard
 70
0
 40
0.0
 41
1.0
 50
0.0
 71
0
 42
2.5
  3

  4

1001
ACAD
1000
txt
1071
0
  0
STYLE
  5
5E
100
AcDbSymbolTableRecord
100
AcDbTextStyleTableRecord
  2
textstyle0
 70
0
 40
0.0
 41
1.0
 50
0.0
 71
0
 42
1.0
  3

  4

1001
ACAD
1000
Arial
1071
0
  0
STYLE
  5
5F
100
AcDbSymbolTableRecord
100
AcDbTextStyleTableRecord
  2
textstyle1
 70
0
 40
0.0
 41
1.0
 50
0.0
 71
0
 42
1.0
  3

  4

1001
ACAD
1000
Arial
1071
0
  0
ENDTAB
  0
TABLE
  2
VIEW
  5
6
100
AcDbSymbolTable
 70
0
  0
ENDTAB
  0
TABLE
  2
UCS
  5
7
100
AcDbSymbolTable
 70
0
  0
ENDTAB
  0
TABLE
  2
APPID
  5
9
100
AcDbSymbolTable
 70
1
  0
APPID
  5
12
100
AcDbSymbolTableRecord
100
AcDbRegAppTableRecord
  2
ACAD
 70
0
  0
APPID
  5
60
100
AcDbSymbolTableRecord
100
AcDbRegAppTableRecord
  2
QCAD
 70
0
  0
ENDTAB
  0
TABLE
  2
DIMSTYLE
  5
A
100
AcDbSymbolTable
 70
1
100
AcDbDimStyleTable
 71
0
  0
DIMSTYLE
105
27
100
AcDbSymbolTableRecord
100
AcDbDimStyleTableRecord
  2
Standard
 41
2.5
 42
0.625
 43
3.75
 44
1.25
 70
0
 73
0
 74
0
 77
1
 78
8
140
2.5
141
2.5
143
0.03937007874016
147
0.625
171
3
172
1
271
2
272
2
274
3
278
44
283
0
284
8
340
5D
  0
ENDTAB
  0
TABLE
  2
BLOCK_RECORD
  5
1
100
AcDbSymbolTable
 70
1
  0
BLOCK_RECORD
  5
1F
100
AcDbSymbolTableRecord
100
AcDbBlockTableRecord
  2
*Model_Space
340
22
  0
BLOCK_RECORD
  5
1B
100
AcDbSymbolTableRecord
100
AcDbBlockTableRecord
  2
*Paper_Space
340
1E
  0
BLOCK_RECORD
  5
23
100
AcDbSymbolTableRecord
100
AcDbBlockTableRecord
  2
*Paper_Space0
340
26
  0
ENDTAB
  0
ENDSEC
  0
SECTION
  2
BLOCKS
  0
BLOCK
  5
20
100
AcDbEntity
  8
0
100
AcDbBlockBegin
  2
*Model_Space
 70
0
 10
0.0
 20
0.0
 30
0.0
  3
*Model_Space
  1

  0
ENDBLK
  5
21
100
AcDbEntity
  8
0
100
AcDbBlockEnd
  0
BLOCK
  5
1C
100
AcDbEntity
 67
1
  8
0
100
AcDbBlockBegin
  2
*Paper_Space
 70
0
 10
0.0
 20
0.0
 30
0.0
  3
*Paper_Space
  1

  0
ENDBLK
  5
1D
100
AcDbEntity
 67
1
  8
0
100
AcDbBlockEnd
  0
BLOCK
  5
24
100
AcDbEntity
  8
0
100
AcDbBlockBegin
  2
*Paper_Space0
 70
0
 10
0.0
 20
0.0
 30
0.0
  3
*Paper_Space0
  1

  0
ENDBLK
  5
25
100
AcDbEntity
  8
0
100
AcDbBlockEnd
  0
ENDSEC
  0
SECTION
  2
ENTITIES
  0
IMAGE
  5
61
100
AcDbEntity
  8
0
 62
256
370
-1
 48
1.0
  6
BYLAYER
100
AcDbRasterImage
 90
0
 10
3028.9189145294976697
 20
684.6916047222835005
 30
0.0
 11
0.09765625
 21
0.0
 31
0.0
 12
0.0
 22
0.09765625
 32
0.0
 13
200.0
 23
141.0
340
62
 70
15
280
0
281
50
282
50
283
0
  0
ARC
  5
63
100
AcDbEntity
  8
Contornos Visibles
 62
256
370
-1
 48
1.0
  6
BYLAYER
100
AcDbCircle
 10
3505.1071883259719471
 20
763.3921771698176144
 30
0.0
 40
10.0
100
AcDbArc
 50
71.8051276612329445
 51
108.1948723387670697
  0
ARC
  5
64
100
AcDbEntity
  8
Contornos Visibles
 62
256
370
-1
 48
1.0
  6
BYLAYER
100
AcDbCircle
 10
3505.1071883259719471
 20
763.3921771698176144
 30
0.0
 40
10.0
100
AcDbArc
 50
341.8051276612329161
 51
18.1948723387670483
  0
ARC
  5
65
100
AcDbEntity
  8
Contornos Visibles
 62
256
370
-1
 48
1.0
  6
BYLAYER
100
AcDbCircle
 10
3505.1071883259719471
 20
763.3921771698176144
 30
0.0
 40
10.0
100
AcDbArc
 50
251.8051276612329161
 51
288.1948723387670839
  0
ARC
  5
66
100
AcDbEntity
  8
Contornos Visibles
 62
256
370
-1
 48
1.0
  6
BYLAYER
100
AcDbCircle
 10
3505.1071883259719471
 20
763.3921771698176144
 30
0.0
 40
10.0
100
AcDbArc
 50
161.8051276612329445
 51
198.1948723387670839
  0
LINE
  5
67
100
AcDbEntity
  8
Contornos Visibles
 62
256
370
-1
 48
1.0
  6
BYLAYER
100
AcDbLine
 10
3521.6071883259719471
 20
758.3921771698176144
 30
0.0
 11
3527.6071883259719471
 21
758.3921771698176144
 31
0.0
  0
LINE
  5
68
100
AcDbEntity
  8
Contornos Visibles
 62
256
370
-1
 48
1.0
  6
BYLAYER
100
AcDbLine
 10
3510.1071883259719471
 20
779.8921771698176144
 30
0.0
 11
3510.1071883259719471
 21
785.8921771698176144
 31
0.0
  0
LINE
  5
69
100
AcDbEntity
  8
Contornos Visibles
 62
256
370
-1
 48
1.0
  6
BYLAYER
100
AcDbLine
 10
3488.6071883259719471
 20
768.3921771698176144
 30
0.0
 11
3482.6071883259719471
 21
768.3921771698176144
 31
0.0
  0
LINE
  5
6A
100
AcDbEntity
  8
Contornos Visibles
 62
256
370
-1
 48
1.0
  6
BYLAYER
100
AcDbLine
 10
3500.1071883259719471
 20
746.8921771698176144
 30
0.0
 11
3500.1071883259719471
 21
740.8921771698176144
 31
0.0
  0
LINE
  5
6B
100
AcDbEntity
  8
Contornos Visibles
 62
256
370
-1
 48
1.0
  6
BYLAYER
100
AcDbLine
 10
3521.6071883259719471
 20
758.3921771698176144
 30
0.0
 11
3521.6071883259719471
 21
753.3421771698176599
 31
0.0
  0
LINE
  5
6C
100
AcDbEntity
  8
Contornos Visibles
 62
256
370
-1
 48
1.0
  6
BYLAYER
100
AcDbLine
 10
3510.1071883259719471
 20
779.8921771698176144
 30
0.0
 11
3515.157188325972129
 21
779.8921771698176144
 31
0.0
  0
LINE
  5
6D
100
AcDbEntity
  8
Contornos Visibles
 62
256
370
-1
 48
1.0
  6
BYLAYER
100
AcDbLine
 10
3488.6071883259719471
 20
768.3921771698176144
 30
0.0
 11
3488.6071883259719471
 21
773.4421771698175689
 31
0.0
  0
LINE
  5
6E
100
AcDbEntity
  8
Contornos Visibles
 62
256
370
-1
 48
1.0
  6
BYLAYER
100
AcDbLine
 10
3500.1071883259719471
 20
746.8921771698176144
 30
0.0
 11
3495.0571883259722199
 21
746.8921771698176144
 31
0.0
  0
LINE
  5
6F
100
AcDbEntity
  8
Contornos Visibles
 62
256
370
-1
 48
1.0
  6
BYLAYER
100
AcDbLine
 10
3521.6071883259719471
 20
753.3421771698176599
 30
0.0
 11
3517.4482142970159657
 21
753.3421771698176599
 31
0.0
  0
LINE
  5
70
100
AcDbEntity
  8
Contornos Visibles
 62
256
370
-1
 48
1.0
  6
BYLAYER
100
AcDbLine
 10
3515.157188325972129
 20
779.8921771698176144
 30
0.0
 11
3515.157188325972129
 21
775.7332031408616331
 31
0.0
  0
LINE
  5
71
100
AcDbEntity
  8
Contornos Visibles
 62
256
370
-1
 48
1.0
  6
BYLAYER
100
AcDbLine
 10
3488.6071883259719471
 20
773.4421771698175689
 30
0.0
 11
3492.7661623549279284
 21
773.4421771698175689
 31
0.0
  0
LINE
  5
72
100
AcDbEntity
  8
Contornos Visibles
 62
256
370
-1
 48
1.0
  6
BYLAYER
100
AcDbLine
 10
3495.0571883259722199
 20
746.8921771698176144
 30
0.0
 11
3495.0571883259717652
 21
751.0511511987735958
 31
0.0
  0
LINE
  5
73
100
AcDbEntity
  8
Contornos Visibles
 62
256
370
-1
 48
1.0
  6
BYLAYER
100
AcDbLine
 10
3495.0571883259722199
 20
775.7332031408617468
 30
0.0
 11
3497.8982142970162386
 21
772.8921771698177281
 31
0.0
  0
LINE
  5
74
100
AcDbEntity
  8
Contornos Visibles
 62
256
370
-1
 48
1.0
  6
BYLAYER
100
AcDbLine
 10
3517.4482142970159657
 20
773.4421771698173416
 30
0.0
 11
3514.6071883259719471
 21
770.6011511987733229
 31
0.0
  0
LINE
  5
75
100
AcDbEntity
  8
Contornos Visibles
 62
256
370
-1
 48
1.0
  6
BYLAYER
100
AcDbLine
 10
3515.1571883259716742
 20
751.0511511987734821
 30
0.0
 11
3512.3161623549272008
 21
753.8921771698178418
 31
0.0
  0
LINE
  5
76
100
AcDbEntity
  8
Contornos Visibles
 62
256
370
-1
 48
1.0
  6
BYLAYER
100
AcDbLine
 10
3492.7661623549279284
 20
753.3421771698178873
 30
0.0
 11
3495.6071883259724018
 21
756.1832031408623607
 31
0.0
  0
LINE
  5
77
100
AcDbEntity
  8
Contornos Visibles
 62
256
370
-1
 48
1.0
  6
BYLAYER
100
AcDbLine
 10
3515.157188325972129
 20
775.7332031408620878
 30
0.0
 11
3512.3161623549276555
 21
772.8921771698176144
 31
0.0
  0
LINE
  5
78
100
AcDbEntity
  8
Contornos Visibles
 62
256
370
-1
 48
1.0
  6
BYLAYER
100
AcDbLine
 10
3517.4482142970164205
 20
753.3421771698174325
 30
0.0
 11
3514.6071883259719471
 21
756.1832031408619059
 31
0.0
  0
LINE
  5
79
100
AcDbEntity
  8
Contornos Visibles
 62
256
370
-1
 48
1.0
  6
BYLAYER
100
AcDbLine
 10
3495.0571883259717652
 20
751.051151198773141
 30
0.0
 11
3497.8982142970166933
 21
753.8921771698179555
 31
0.0
  0
LINE
  5
7A
100
AcDbEntity
  8
Contornos Visibles
 62
256
370
-1
 48
1.0
  6
BYLAYER
100
AcDbLine
 10
3492.7661623549274736
 20
773.4421771698177963
 30
0.0
 11
3495.6071883259719471
 21
770.6011511987733229
 31
0.0
  0
XLINE
  5
7B
100
AcDbEntity
  8
Referencias
 62
256
370
-1
 48
1.0
  6
BYLAYER
100
AcDbLine
 10
3505.1071883259719471
 20
785.8921771698176144
 30
0.0
 11
1.0
 21
0.0
 31
0.0
  0
LINE
  5
7C
100
AcDbEntity
  8
Contornos Visibles
 62
256
370
-1
 48
1.0
  6
BYLAYER
100
AcDbLine
 10
3527.6071883259719471
 20
758.3921771698176144
 30
0.0
 11
3527.6071883259719471
 21
743.8921771698176144
 31
0.0
  0
LINE
  5
7D
100
AcDbEntity
  8
Contornos Visibles
 62
256
370
-1
 48
1.0
  6
BYLAYER
100
AcDbLine
 10
3510.1071883259719471
 20
785.8921771698176144
 30
0.0
 11
3524.6071883259719471
 21
785.8921771698176144
 31
0.0
  0
LINE
  5
7E
100
AcDbEntity
  8
Contornos Visibles
 62
256
370
-1
 48
1.0
  6
BYLAYER
100
AcDbLine
 10
3482.6071883259719471
 20
768.3921771698176144
 30
0.0
 11
3482.6071883259719471
 21
782.8921771698176144
 31
0.0
  0
LINE
  5
7F
100
AcDbEntity
  8
Contornos Visibles
 62
256
370
-1
 48
1.0
  6
BYLAYER
100
AcDbLine
 10
3500.1071883259719471
 20
740.8921771698176144
 30
0.0
 11
3485.6071883259719471
 21
740.8921771698176144
 31
0.0
  0
LINE
  5
80
100
AcDbEntity
  8
Contornos Visibles
 62
256
370
-1
 48
1.0
  6
BYLAYER
100
AcDbLine
 10
3524.6071883259719471
 20
740.8921771698176144
 30
0.0
 11
3510.1071883259719471
 21
740.8921771698176144
 31
0.0
  0
LINE
  5
81
100
AcDbEntity
  8
Contornos Visibles
 62
256
370
-1
 48
1.0
  6
BYLAYER
100
AcDbLine
 10
3527.6071883259719471
 20
782.8921771698176144
 30
0.0
 11
3527.6071883259719471
 21
768.3921771698176144
 31
0.0
  0
LINE
  5
82
100
AcDbEntity
  8
Contornos Visibles
 62
256
370
-1
 48
1.0
  6
BYLAYER
100
AcDbLine
 10
3485.6071883259719471
 20
785.8921771698176144
 30
0.0
 11
3500.1071883259719471
 21
785.8921771698176144
 31
0.0
  0
LINE
  5
83
100
AcDbEntity
  8
Contornos Visibles
 62
256
370
-1
 48
1.0
  6
BYLAYER
100
AcDbLine
 10
3482.6071883259719471
 20
743.8921771698176144
 30
0.0
 11
3482.6071883259719471
 21
758.3921771698176144
 31
0.0
  0
LINE
  5
84
100
AcDbEntity
  8
Contornos Visibles
 62
256
370
-1
 48
1.0
  6
BYLAYER
100
AcDbLine
 10
3510.1071883259719471
 20
740.8921771698176144
 30
0.0
 11
3510.1071883259719471
 21
746.8921771698176144
 31
0.0
  0
LINE
  5
85
100
AcDbEntity
  8
Contornos Visibles
 62
256
370
-1
 48
1.0
  6
BYLAYER
100
AcDbLine
 10
3527.6071883259719471
 20
768.3921771698176144
 30
0.0
 11
3521.6071883259719471
 21
768.3921771698176144
 31
0.0
  0
LINE
  5
86
100
AcDbEntity
  8
Contornos Visibles
 62
256
370
-1
 48
1.0
  6
BYLAYER
100
AcDbLine
 10
3500.1071883259719471
 20
785.8921771698176144
 30
0.0
 11
3500.1071883259719471
 21
779.8921771698176144
 31
0.0
  0
LINE
  5
87
100
AcDbEntity
  8
Contornos Visibles
 62
256
370
-1
 48
1.0
  6
BYLAYER
100
AcDbLine
 10
3482.6071883259719471
 20
758.3921771698176144
 30
0.0
 11
3488.6071883259719471
 21
758.3921771698176144
 31
0.0
  0
LINE
  5
88
100
AcDbEntity
  8
Contornos Visibles
 62
256
370
-1
 48
1.0
  6
BYLAYER
100
AcDbLine
 10
3510.1071883259719471
 20
746.8921771698176144
 30
0.0
 11
3515.157188325972129
 21
746.8921771698176144
 31
0.0
  0
LINE
  5
89
100
AcDbEntity
  8
Contornos Visibles
 62
256
370
-1
 48
1.0
  6
BYLAYER
100
AcDbLine
 10
3521.6071883259719471
 20
768.3921771698176144
 30
0.0
 11
3521.6071883259719471
 21
773.4421771698177963
 31
0.0
  0
LINE
  5
8A
100
AcDbEntity
  8
Contornos Visibles
 62
256
370
-1
 48
1.0
  6
BYLAYER
100
AcDbLine
 10
3500.1071883259719471
 20
779.8921771698176144
 30
0.0
 11
3495.0571883259717652
 21
779.8921771698176144
 31
0.0
  0
LINE
  5
8B
100
AcDbEntity
  8
Contornos Visibles
 62
256
370
-1
 48
1.0
  6
BYLAYER
100
AcDbLine
 10
3488.6071883259719471
 20
758.3921771698176144
 30
0.0
 11
3488.6071883259719471
 21
753.3421771698174325
 31
0.0
  0
LINE
  5
8C
100
AcDbEntity
  8
Contornos Visibles
 62
256
370
-1
 48
1.0
  6
BYLAYER
100
AcDbLine
 10
3515.157188325972129
 20
746.8921771698176144
 30
0.0
 11
3515.1571883259716742
 21
751.0511511987723452
 31
0.0
  0
LINE
  5
8D
100
AcDbEntity
  8
Contornos Visibles
 62
256
370
-1
 48
1.0
  6
BYLAYER
100
AcDbLine
 10
3521.6071883259719471
 20
773.4421771698177963
 30
0.0
 11
3517.44821429701733
 21
773.4421771698173416
 31
0.0
  0
LINE
  5
8E
100
AcDbEntity
  8
Contornos Visibles
 62
256
370
-1
 48
1.0
  6
BYLAYER
100
AcDbLine
 10
3495.0571883259717652
 20
779.8921771698176144
 30
0.0
 11
3495.0571883259722199
 21
775.7332031408628836
 31
0.0
  0
LINE
  5
8F
100
AcDbEntity
  8
Contornos Visibles
 62
256
370
-1
 48
1.0
  6
BYLAYER
100
AcDbLine
 10
3488.6071883259719471
 20
753.3421771698174325
 30
0.0
 11
3492.7661623549265641
 21
753.3421771698178873
 31
0.0
  0
ARC
  5
90
100
AcDbEntity
  8
Contornos Visibles
 62
256
370
-1
 48
1.0
  6
BYLAYER
100
AcDbCircle
 10
3524.6071883259719471
 20
743.8921771698176144
 30
0.0
 40
3.0
100
AcDbArc
 50
270.0
 51
0.0
  0
ARC
  5
91
100
AcDbEntity
  8
Contornos Visibles
 62
256
370
-1
 48
1.0
  6
BYLAYER
100
AcDbCircle
 10
3524.6071883259719471
 20
782.8921771698176144
 30
0.0
 40
3.0
100
AcDbArc
 50
0.0
 51
90.0
  0
ARC
  5
92
100
AcDbEntity
  8
Contornos Visibles
 62
256
370
-1
 48
1.0
  6
BYLAYER
100
AcDbCircle
 10
3485.6071883259719471
 20
782.8921771698176144
 30
0.0
 40
3.0
100
AcDbArc
 50
90.0
 51
180.0
  0
ARC
  5
93
100
AcDbEntity
  8
Contornos Visibles
 62
256
370
-1
 48
1.0
  6
BYLAYER
100
AcDbCircle
 10
3485.6071883259719471
 20
743.8921771698176144
 30
0.0
 40
3.0
100
AcDbArc
 50
180.0
 51
270.0
  0
XLINE
  5
94
100
AcDbEntity
  8
Referencias
 62
256
370
-1
 48
1.0
  6
BYLAYER
100
AcDbLine
 10
3505.1071883259719471
 20
743.8921771698176144
 30
0.0
 11
1.0
 21
0.0
 31
0.0
  0
ARC
  5
95
100
AcDbEntity
  8
Contornos Visibles
 62
256
370
-1
 48
1.0
  6
BYLAYER
100
AcDbCircle
 10
3514.1071883259719471
 20
743.8921771698176144
 30
0.0
 40
1.0
100
AcDbArc
 50
90.0
 51
273.8176683816650439
  0
ARC
  5
96
100
AcDbEntity
  8
Contornos Visibles
 62
256
370
-1
 48
1.0
  6
BYLAYER
100
AcDbCircle
 10
3524.6071883259719471
 20
772.3921771698176144
 30
0.0
 40
1.0
100
AcDbArc
 50
180.0
 51
3.8176683816650421
  0
ARC
  5
97
100
AcDbEntity
  8
Contornos Visibles
 62
256
370
-1
 48
1.0
  6
BYLAYER
100
AcDbCircle
 10
3496.1071883259719471
 20
782.8921771698176144
 30
0.0
 40
1.0
100
AcDbArc
 50
270.0
 51
93.8176683816650439
  0
ARC
  5
98
100
AcDbEntity
  8
Contornos Visibles
 62
256
370
-1
 48
1.0
  6
BYLAYER
100
AcDbCircle
 10
3485.6071883259719471
 20
754.3921771698176144
 30
0.0
 40
1.0
100
AcDbArc
 50
0.0
 51
183.8176683816650439
  0
LINE
  5
99
100
AcDbEntity
  8
Contornos Visibles
 62
256
370
-1
 48
1.0
  6
BYLAYER
100
AcDbLine
 10
3517.1071883259719471
 20
744.8921771698175007
 30
0.0
 11
3517.1071883259719471
 21
751.3921771698176144
 31
0.0
  0
LINE
  5
9A
100
AcDbEntity
  8
Contornos Visibles
 62
256
370
-1
 48
1.0
  6
BYLAYER
100
AcDbLine
 10
3523.6071883259719471
 20
775.3921771698176144
 30
0.0
 11
3517.1071883259719471
 21
775.3921771698176144
 31
0.0
  0
LINE
  5
9B
100
AcDbEntity
  8
Contornos Visibles
 62
256
370
-1
 48
1.0
  6
BYLAYER
100
AcDbLine
 10
3493.1071883259719471
 20
781.8921771698177281
 30
0.0
 11
3493.1071883259719471
 21
775.3921771698176144
 31
0.0
  0
LINE
  5
9C
100
AcDbEntity
  8
Contornos Visibles
 62
256
370
-1
 48
1.0
  6
BYLAYER
100
AcDbLine
 10
3486.6071883259719471
 20
751.3921771698176144
 30
0.0
 11
3493.1071883259719471
 21
751.3921771698176144
 31
0.0
  0
LINE
  5
9D
100
AcDbEntity
  8
Contornos Visibles
 62
256
370
-1
 48
1.0
  6
BYLAYER
100
AcDbLine
 10
3514.1071883259719471
 20
744.8921771698176144
 30
0.0
 11
3517.1071883259719471
 21
744.8921771698176144
 31
0.0
  0
LINE
  5
9E
100
AcDbEntity
  8
Contornos Visibles
 62
256
370
-1
 48
1.0
  6
BYLAYER
100
AcDbLine
 10
3523.6071883259719471
 20
772.3921771698176144
 30
0.0
 11
3523.6071883259719471
 21
775.3921771698176144
 31
0.0
  0
LINE
  5
9F
100
AcDbEntity
  8
Contornos Visibles
 62
256
370
-1
 48
1.0
  6
BYLAYER
100
AcDbLine
 10
3496.1071883259719471
 20
781.8921771698176144
 30
0.0
 11
3493.1071883259719471
 21
781.8921771698176144
 31
0.0
  0
LINE
  5
A0
100
AcDbEntity
  8
Contornos Visibles
 62
256
370
-1
 48
1.0
  6
BYLAYER
100
AcDbLine
 10
3486.6071883259719471
 20
754.3921771698176144
 30
0.0
 11
3486.6071883259719471
 21
751.3921771698176144
 31
0.0
  0
LINE
  5
A1
100
AcDbEntity
  8
Contornos Visibles
 62
256
370
-1
 48
1.0
  6
BYLAYER
100
AcDbLine
 10
3514.0406067352578248
 20
742.8943961859448564
 30
0.0
 11
3517.1071883259719471
 21
742.8943961859448564
 31
0.0
  0
LINE
  5
A2
100
AcDbEntity
  8
Contornos Visibles
 62
256
370
-1
 48
1.0
  6
BYLAYER
100
AcDbLine
 10
3525.6049693098448188
 20
772.3255955791034921
 30
0.0
 11
3525.6049693098448188
 21
775.3921771698176144
 31
0.0
  0
LINE
  5
A3
100
AcDbEntity
  8
Contornos Visibles
 62
256
370
-1
 48
1.0
  6
BYLAYER
100
AcDbLine
 10
3496.1737699166860693
 20
783.8899581536903725
 30
0.0
 11
3493.1071883259719471
 21
783.8899581536903725
 31
0.0
  0
LINE
  5
A4
100
AcDbEntity
  8
Contornos Visibles
 62
256
370
-1
 48
1.0
  6
BYLAYER
100
AcDbLine
 10
3484.6094073420990753
 20
754.4587587605317367
 30
0.0
 11
3484.6094073420990753
 21
751.3921771698176144
 31
0.0
  0
XLINE
  5
A5
100
AcDbEntity
  8
Referencias
 62
256
370
-1
 48
1.0
  6
BYLAYER
100
AcDbLine
 10
3505.1071883259719471
 20
751.3921771698176144
 30
0.0
 11
1.0
 21
0.0
 31
0.0
  0
LINE
  5
A6
100
AcDbEntity
  8
Referencias 2
 62
256
370
-1
 48
1.0
  6
BYLAYER
100
AcDbLine
 10
3485.6071883259719471
 20
763.3921771698176144
 30
0.0
 11
3524.6071883259719471
 21
763.3921771698176144
 31
0.0
  0
XLINE
  5
A7
100
AcDbEntity
  8
Referencias
 62
256
370
-1
 48
1.0
  6
BYLAYER
100
AcDbLine
 10
3505.1071883259719471
 20
754.3921771698176144
 30
0.0
 11
1.0
 21
0.0
 31
0.0
  0
XLINE
  5
A8
100
AcDbEntity
  8
Referencias 2
 62
256
370
-1
 48
1.0
  6
BYLAYER
100
AcDbLine
 10
3524.6071883259719471
 20
763.3921771698176144
 30
0.0
 11
0.0
 21
1.0
 31
0.0
  0
ARC
  5
A9
100
AcDbEntity
  8
Contornos Visibles
 62
256
370
-1
 48
1.0
  6
BYLAYER
100
AcDbCircle
 10
3524.6071883259719471
 20
754.3921771698176144
 30
0.0
 40
1.0
100
AcDbArc
 50
0.0
 51
180.0
  0
ARC
  5
AA
100
AcDbEntity
  8
Contornos Visibles
 62
256
370
-1
 48
1.0
  6
BYLAYER
100
AcDbCircle
 10
3514.1071883259719471
 20
782.8921771698176144
 30
0.0
 40
1.0
100
AcDbArc
 50
90.0
 51
270.0
  0
ARC
  5
AB
100
AcDbEntity
  8
Contornos Visibles
 62
256
370
-1
 48
1.0
  6
BYLAYER
100
AcDbCircle
 10
3485.6071883259719471
 20
772.3921771698176144
 30
0.0
 40
1.0
100
AcDbArc
 50
180.0
 51
0.0
  0
ARC
  5
AC
100
AcDbEntity
  8
Contornos Visibles
 62
256
370
-1
 48
1.0
  6
BYLAYER
100
AcDbCircle
 10
3496.1071883259719471
 20
743.8921771698176144
 30
0.0
 40
1.0
100
AcDbArc
 50
270.0
 51
90.0
  0
LINE
  5
AD
100
AcDbEntity
  8
Referencias
 62
256
370
-1
 48
1.0
  6
BYLAYER
100
AcDbLine
 10
3505.1071883259719471
 20
751.3921771698176144
 30
0.0
 11
3505.1071883259719471
 21
775.3921771698176144
 31
0.0
  0
LINE
  5
AE
100
AcDbEntity
  8
Contornos Visibles
 62
256
370
-1
 48
1.0
  6
BYLAYER
100
AcDbLine
 10
3525.6071883259719471
 20
754.3921771698176144
 30
0.0
 11
3525.6071883259719471
 21
744.3943961859447427
 31
0.0
  0
LINE
  5
AF
100
AcDbEntity
  8
Contornos Visibles
 62
256
370
-1
 48
1.0
  6
BYLAYER
100
AcDbLine
 10
3514.1071883259719471
 20
783.8921771698176144
 30
0.0
 11
3524.1049693098448188
 21
783.8921771698176144
 31
0.0
  0
LINE
  5
B0
100
AcDbEntity
  8
Contornos Visibles
 62
256
370
-1
 48
1.0
  6
BYLAYER
100
AcDbLine
 10
3484.6071883259719471
 20
772.3921771698176144
 30
0.0
 11
3484.6071883259719471
 21
782.3899581536904861
 31
0.0
  0
LINE
  5
B1
100
AcDbEntity
  8
Contornos Visibles
 62
256
370
-1
 48
1.0
  6
BYLAYER
100
AcDbLine
 10
3496.1071883259719471
 20
742.8921771698176144
 30
0.0
 11
3486.1094073420990753
 21
742.8921771698176144
 31
0.0
  0
LINE
  5
B2
100
AcDbEntity
  8
Contornos Visibles
 62
256
370
-1
 48
1.0
  6
BYLAYER
100
AcDbLine
 10
3517.1071883259719471
 20
742.8943961859448564
 30
0.0
 11
3524.1071883259714923
 21
742.8943961859448564
 31
0.0
  0
LINE
  5
B3
100
AcDbEntity
  8
Contornos Visibles
 62
256
370
-1
 48
1.0
  6
BYLAYER
100
AcDbLine
 10
3525.6049693098448188
 20
775.3921771698176144
 30
0.0
 11
3525.6049693098448188
 21
782.3921771698171597
 31
0.0
  0
LINE
  5
B4
100
AcDbEntity
  8
Contornos Visibles
 62
256
370
-1
 48
1.0
  6
BYLAYER
100
AcDbLine
 10
3493.1071883259719471
 20
783.8899581536903725
 30
0.0
 11
3486.1071883259724018
 21
783.8899581536903725
 31
0.0
  0
LINE
  5
B5
100
AcDbEntity
  8
Contornos Visibles
 62
256
370
-1
 48
1.0
  6
BYLAYER
100
AcDbLine
 10
3484.6094073420990753
 20
751.3921771698176144
 30
0.0
 11
3484.6094073420990753
 21
744.3921771698180692
 31
0.0
  0
ARC
  5
B6
100
AcDbEntity
  8
Contornos Visibles
 62
256
370
-1
 48
1.0
  6
BYLAYER
100
AcDbCircle
 10
3524.1071883259714923
 20
744.3943961859447427
 30
0.0
 40
1.5
100
AcDbArc
 50
270.0
 51
0.0
  0
ARC
  5
B7
100
AcDbEntity
  8
Contornos Visibles
 62
256
370
-1
 48
1.0
  6
BYLAYER
100
AcDbCircle
 10
3524.1049693098448188
 20
782.3921771698171597
 30
0.0
 40
1.5
100
AcDbArc
 50
0.0
 51
90.0
  0
ARC
  5
B8
100
AcDbEntity
  8
Contornos Visibles
 62
256
370
-1
 48
1.0
  6
BYLAYER
100
AcDbCircle
 10
3486.1071883259724018
 20
782.3899581536904861
 30
0.0
 40
1.5
100
AcDbArc
 50
90.0
 51
180.0
  0
ARC
  5
B9
100
AcDbEntity
  8
Contornos Visibles
 62
256
370
-1
 48
1.0
  6
BYLAYER
100
AcDbCircle
 10
3486.1094073420990753
 20
744.3921771698180692
 30
0.0
 40
1.5
100
AcDbArc
 50
180.0
 51
270.0
  0
LINE
  5
BA
100
AcDbEntity
  8
Contornos Visibles
 62
256
370
-1
 48
1.0
  6
BYLAYER
100
AcDbLine
 10
3523.6071883259719471
 20
754.3921771698176144
 30
0.0
 11
3523.6071883259719471
 21
751.3921771698176144
 31
0.0
  0
LINE
  5
BB
100
AcDbEntity
  8
Contornos Visibles
 62
256
370
-1
 48
1.0
  6
BYLAYER
100
AcDbLine
 10
3514.1071883259719471
 20
781.8921771698176144
 30
0.0
 11
3517.1071883259719471
 21
781.8921771698176144
 31
0.0
  0
LINE
  5
BC
100
AcDbEntity
  8
Contornos Visibles
 62
256
370
-1
 48
1.0
  6
BYLAYER
100
AcDbLine
 10
3486.6071883259719471
 20
772.3921771698176144
 30
0.0
 11
3486.6071883259719471
 21
775.3921771698176144
 31
0.0
  0
LINE
  5
BD
100
AcDbEntity
  8
Contornos Visibles
 62
256
370
-1
 48
1.0
  6
BYLAYER
100
AcDbLine
 10
3496.1071883259719471
 20
744.8921771698176144
 30
0.0
 11
3493.1071883259719471
 21
744.8921771698176144
 31
0.0
  0
LINE
  5
BE
100
AcDbEntity
  8
Contornos Visibles
 62
256
370
-1
 48
1.0
  6
BYLAYER
100
AcDbLine
 10
3523.6071883259719471
 20
751.3921771698176144
 30
0.0
 11
3517.1071883259719471
 21
751.3921771698176144
 31
0.0
  0
LINE
  5
BF
100
AcDbEntity
  8
Contornos Visibles
 62
256
370
-1
 48
1.0
  6
BYLAYER
100
AcDbLine
 10
3517.1071883259719471
 20
781.8921771698176144
 30
0.0
 11
3517.1071883259719471
 21
775.3921771698176144
 31
0.0
  0
LINE
  5
C0
100
AcDbEntity
  8
Contornos Visibles
 62
256
370
-1
 48
1.0
  6
BYLAYER
100
AcDbLine
 10
3486.6071883259719471
 20
775.3921771698176144
 30
0.0
 11
3493.1071883259719471
 21
775.3921771698176144
 31
0.0
  0
LINE
  5
C1
100
AcDbEntity
  8
Contornos Visibles
 62
256
370
-1
 48
1.0
  6
BYLAYER
100
AcDbLine
 10
3493.1071883259719471
 20
744.8921771698176144
 30
0.0
 11
3493.1071883259719471
 21
751.3921771698176144
 31
0.0
  0
LINE
  5
C2
100
AcDbEntity
  8
Contornos Visibles
 62
256
370
-1
 48
1.0
  6
BYLAYER
100
AcDbLine
 10
3508.2296873251711986
 20
753.8921771698176144
 30
0.0
 11
3512.3161623549272008
 21
753.8921771698176144
 31
0.0
  0
LINE
  5
C3
100
AcDbEntity
  8
Contornos Visibles
 62
256
370
-1
 48
1.0
  6
BYLAYER
100
AcDbLine
 10
3497.8982142970162386
 20
753.8921771698176144
 30
0.0
 11
3501.9846893267726955
 21
753.8921771698176144
 31
0.0
  0
LINE
  5
C4
100
AcDbEntity
  8
Contornos Visibles
 62
256
370
-1
 48
1.0
  6
BYLAYER
100
AcDbLine
 10
3514.6071883259719471
 20
766.514676169016866
 30
0.0
 11
3514.6071883259719471
 21
770.6011511987733229
 31
0.0
  0
LINE
  5
C5
100
AcDbEntity
  8
Contornos Visibles
 62
256
370
-1
 48
1.0
  6
BYLAYER
100
AcDbLine
 10
3514.6071883259719471
 20
756.1832031408623607
 30
0.0
 11
3514.6071883259719471
 21
760.2696781706183629
 31
0.0
  0
LINE
  5
C6
100
AcDbEntity
  8
Contornos Visibles
 62
256
370
-1
 48
1.0
  6
BYLAYER
100
AcDbLine
 10
3501.9846893267726955
 20
772.8921771698176144
 30
0.0
 11
3497.8982142970162386
 21
772.8921771698176144
 31
0.0
  0
LINE
  5
C7
100
AcDbEntity
  8
Contornos Visibles
 62
256
370
-1
 48
1.0
  6
BYLAYER
100
AcDbLine
 10
3512.3161623549276555
 20
772.8921771698176144
 30
0.0
 11
3508.2296873251711986
 21
772.8921771698176144
 31
0.0
  0
LINE
  5
C8
100
AcDbEntity
  8
Contornos Visibles
 62
256
370
-1
 48
1.0
  6
BYLAYER
100
AcDbLine
 10
3495.6071883259719471
 20
770.6011511987722997
 30
0.0
 11
3495.6071883259719471
 21
766.514676169016866
 31
0.0
  0
LINE
  5
C9
100
AcDbEntity
  8
Contornos Visibles
 62
256
370
-1
 48
1.0
  6
BYLAYER
100
AcDbLine
 10
3495.6071883259719471
 20
760.2696781706183629
 30
0.0
 11
3495.6071883259719471
 21
756.1832031408616785
 31
0.0
  0
ARC
  5
CA
100
AcDbEntity
  8
Cotas
 62
256
370
-1
 48
1.0
  6
BYLAYER
100
AcDbCircle
 10
3505.1071883259719471
 20
763.3921771698176144
 30
0.0
 40
10.0
100
AcDbArc
 50
18.1948723387670483
 51
71.8051276612329445
  0
DIMENSION
  5
CB
100
AcDbEntity
  8
Cotas
 62
256
370
-1
 48
1.0
  6
BYLAYER
100
AcDbDimension
 10
3505.1071883259719471
 20
763.3921771698176144
 30
0.0
 11
3508.6075575769668831
 21
767.0835619176716591
 31
0.0
 70
4
 71
8
 72
2
 74
0
 41
1.0
 42
0.0
  1
R<>
  3
Standard
100
AcDbRadialDimension
 15
3513.207422259192299
 25
769.2561528030469162
 35
0.0
 40
0.0
1001
ACAD
1000
DSTYLE
1002
{
1070
144
1040
1.0
1070
40
1040
0.5
1002
}
  0
DIMENSION
  5
CC
100
AcDbEntity
  8
Cotas
 62
256
370
-1
 48
1.0
  6
BYLAYER
100
AcDbDimension
 10
3505.1071883259719471
 20
758.2264406557403618
 30
0.0
 11
3505.1071883259719471
 21
759.1639406557403618
 31
0.0
 70
0
 71
8
 72
2
 74
0
 75
0
 41
1.0
 42
0.0
  1

  3
Standard
100
AcDbAlignedDimension
 13
3495.6071883259719471
 23
758.2264406557400207
 33
0.0
 14
3514.6071883259719471
 24
758.2264406557403618
 34
0.0
 50
0.0
100
AcDbRotatedDimension
1001
ACAD
1000
DSTYLE
1002
{
1070
144
1040
1.0
1070
40
1040
0.5
1002
}
  0
DIMENSION
  5
CD
100
AcDbEntity
  8
Cotas
 62
256
370
-1
 48
1.0
  6
BYLAYER
100
AcDbDimension
 10
3499.9414518118946944
 20
763.3921771698176144
 30
0.0
 11
3499.0039518118946944
 21
763.3921771698176144
 31
0.0
 70
0
 71
8
 72
2
 74
0
 75
0
 41
1.0
 42
0.0
  1

  3
Standard
100
AcDbAlignedDimension
 13
3499.9414518118946944
 23
753.8921771698176144
 33
0.0
 14
3499.9414518118946944
 24
772.8921771698176144
 34
0.0
 50
90.0
100
AcDbRotatedDimension
1001
ACAD
1000
DSTYLE
1002
{
1070
144
1040
1.0
1070
40
1040
0.5
1002
}
  0
DIMENSION
  5
CE
100
AcDbEntity
  8
Cotas
 62
256
370
-1
 48
1.0
  6
BYLAYER
100
AcDbDimension
 10
3533.9921404397609876
 20
768.3921771698175007
 30
0.0
 11
3533.0546404397609876
 21
763.3921771698175007
 31
0.0
 70
0
 71
8
 72
2
 74
0
 75
0
 41
1.0
 42
0.0
  1

  3
Standard
100
AcDbAlignedDimension
 13
3527.6071883259719471
 23
768.3921771698175007
 33
0.0
 14
3527.6071883259719471
 24
758.3921771698175007
 34
0.0
 50
90.0
100
AcDbRotatedDimension
1001
ACAD
1000
DSTYLE
1002
{
1070
144
1040
1.0
1070
40
1040
0.5
1002
}
  0
DIMENSION
  5
CF
100
AcDbEntity
  8
Cotas
 62
256
370
-1
 48
1.0
  6
BYLAYER
100
AcDbDimension
 10
3537.9474375272466204
 20
772.3921771698176144
 30
0.0
 11
3537.0099375272466204
 21
763.3921771698176144
 31
0.0
 70
0
 71
8
 72
2
 74
0
 75
0
 41
1.0
 42
0.0
  1

  3
Standard
100
AcDbAlignedDimension
 13
3524.6071883259719471
 23
772.3921771698176144
 33
0.0
 14
3524.6071883259719471
 24
754.3921771698176144
 34
0.0
 50
90.0
100
AcDbRotatedDimension
1001
ACAD
1000
DSTYLE
1002
{
1070
144
1040
1.0
1070
40
1040
0.5
1002
}
  0
DIMENSION
  5
D0
100
AcDbEntity
  8
Cotas
 62
256
370
-1
 48
1.0
  6
BYLAYER
100
AcDbDimension
 10
3543.2435132884561426
 20
773.4421771698176826
 30
0.0
 11
3542.3060132884561426
 21
763.3921771698176144
 31
0.0
 70
0
 71
8
 72
2
 74
0
 75
0
 41
1.0
 42
0.0
  1

  3
Standard
100
AcDbAlignedDimension
 13
3521.6071883259714923
 23
773.4421771698176826
 33
0.0
 14
3521.6071883259719471
 24
753.3421771698176599
 34
0.0
 50
90.0
100
AcDbRotatedDimension
1001
ACAD
1000
DSTYLE
1002
{
1070
144
1040
1.0
1070
40
1040
0.5
1002
}
  0
DIMENSION
  5
D1
100
AcDbEntity
  8
Cotas
 62
256
370
-1
 48
1.0
  6
BYLAYER
100
AcDbDimension
 10
3548.1373554475489982
 20
775.3921771698176144
 30
0.0
 11
3547.1998554475489982
 21
763.3921771698176144
 31
0.0
 70
0
 71
8
 72
2
 74
0
 75
0
 41
1.0
 42
0.0
  1

  3
Standard
100
AcDbAlignedDimension
 13
3523.6071883259724018
 23
775.3921771698176144
 33
0.0
 14
3523.6071883259724018
 24
751.3921771698176144
 34
0.0
 50
90.0
100
AcDbRotatedDimension
1001
ACAD
1000
DSTYLE
1002
{
1070
144
1040
1.0
1070
40
1040
0.5
1002
}
  0
DIMENSION
  5
D2
100
AcDbEntity
  8
Cotas
 62
256
370
-1
 48
1.0
  6
BYLAYER
100
AcDbDimension
 10
3553.576090059643775
 20
779.8921771698177281
 30
0.0
 11
3552.638590059643775
 21
763.3921771698176144
 31
0.0
 70
0
 71
8
 72
2
 74
0
 75
0
 41
1.0
 42
0.0
  1

  3
Standard
100
AcDbAlignedDimension
 13
3515.157188325972129
 23
779.8921771698177281
 33
0.0
 14
3515.157188325972129
 24
746.8921771698176144
 34
0.0
 50
90.0
100
AcDbRotatedDimension
1001
ACAD
1000
DSTYLE
1002
{
1070
144
1040
1.0
1070
40
1040
0.5
1002
}
  0
DIMENSION
  5
D3
100
AcDbEntity
  8
Cotas
 62
256
370
-1
 48
1.0
  6
BYLAYER
100
AcDbDimension
 10
3559.5442087847463881
 20
782.8921771698176144
 30
0.0
 11
3558.6067087847463881
 21
763.3921771698176144
 31
0.0
 70
0
 71
8
 72
2
 74
0
 75
0
 41
1.0
 42
0.0
  1

  3
Standard
100
AcDbAlignedDimension
 13
3514.1071883259719471
 23
782.8921771698176144
 33
0.0
 14
3514.1071883259719471
 24
743.8921771698176144
 34
0.0
 50
90.0
100
AcDbRotatedDimension
1001
ACAD
1000
DSTYLE
1002
{
1070
144
1040
1.0
1070
40
1040
0.5
1002
}
  0
DIMENSION
  5
D4
100
AcDbEntity
  8
Cotas
 62
256
370
-1
 48
1.0
  6
BYLAYER
100
AcDbDimension
 10
3567.0740218163805366
 20
785.8921771698176144
 30
0.0
 11
3566.1365218163805366
 21
763.3921771698176144
 31
0.0
 70
0
 71
8
 72
2
 74
0
 75
0
 41
1.0
 42
0.0
  1

  3
Standard
100
AcDbAlignedDimension
 13
3524.6071883259719471
 23
785.8921771698176144
 33
0.0
 14
3524.6071883259719471
 24
740.8921771698176144
 34
0.0
 50
90.0
100
AcDbRotatedDimension
1001
ACAD
1000
DSTYLE
1002
{
1070
144
1040
1.0
1070
40
1040
0.5
1002
}
  0
LINE
  5
D5
100
AcDbEntity
  8
Ejes de revoluci\U+00f3n
 62
256
370
-1
 48
1.0
  6
BYLAYER
100
AcDbLine
 10
3484.1071883259719471
 20
772.3921771698176144
 30
0.0
 11
3487.1071883259719471
 21
772.3921771698176144
 31
0.0
  0
LINE
  5
D6
100
AcDbEntity
  8
Ejes de revoluci\U+00f3n
 62
256
370
-1
 48
1.0
  6
BYLAYER
100
AcDbLine
 10
3485.6071883259719471
 20
770.8921771698176144
 30
0.0
 11
3485.6071883259719471
 21
773.8921771698176144
 31
0.0
  0
LINE
  5
D7
100
AcDbEntity
  8
Ejes de revoluci\U+00f3n
 62
256
370
-1
 48
1.0
  6
BYLAYER
100
AcDbLine
 10
3494.6071883259719471
 20
782.8921771698176144
 30
0.0
 11
3497.6071883259719471
 21
782.8921771698176144
 31
0.0
  0
LINE
  5
D8
100
AcDbEntity
  8
Ejes de revoluci\U+00f3n
 62
256
370
-1
 48
1.0
  6
BYLAYER
100
AcDbLine
 10
3496.1071883259719471
 20
781.3921771698176144
 30
0.0
 11
3496.1071883259719471
 21
784.3921771698176144
 31
0.0
  0
LINE
  5
D9
100
AcDbEntity
  8
Ejes de revoluci\U+00f3n
 62
256
370
-1
 48
1.0
  6
BYLAYER
100
AcDbLine
 10
3512.6071883259719471
 20
782.8921771698176144
 30
0.0
 11
3515.6071883259719471
 21
782.8921771698176144
 31
0.0
  0
LINE
  5
DA
100
AcDbEntity
  8
Ejes de revoluci\U+00f3n
 62
256
370
-1
 48
1.0
  6
BYLAYER
100
AcDbLine
 10
3514.1071883259719471
 20
781.3921771698176144
 30
0.0
 11
3514.1071883259719471
 21
784.3921771698176144
 31
0.0
  0
LINE
  5
DB
100
AcDbEntity
  8
Ejes de revoluci\U+00f3n
 62
256
370
-1
 48
1.0
  6
BYLAYER
100
AcDbLine
 10
3523.1071883259719471
 20
772.3921771698176144
 30
0.0
 11
3526.1071883259719471
 21
772.3921771698176144
 31
0.0
  0
LINE
  5
DC
100
AcDbEntity
  8
Ejes de revoluci\U+00f3n
 62
256
370
-1
 48
1.0
  6
BYLAYER
100
AcDbLine
 10
3524.6071883259719471
 20
770.8921771698176144
 30
0.0
 11
3524.6071883259719471
 21
773.8921771698176144
 31
0.0
  0
LINE
  5
DD
100
AcDbEntity
  8
Ejes de revoluci\U+00f3n
 62
256
370
-1
 48
1.0
  6
BYLAYER
100
AcDbLine
 10
3523.1071883259719471
 20
754.3921771698176144
 30
0.0
 11
3526.1071883259719471
 21
754.3921771698176144
 31
0.0
  0
LINE
  5
DE
100
AcDbEntity
  8
Ejes de revoluci\U+00f3n
 62
256
370
-1
 48
1.0
  6
BYLAYER
100
AcDbLine
 10
3524.6071883259719471
 20
752.8921771698176144
 30
0.0
 11
3524.6071883259719471
 21
755.8921771698176144
 31
0.0
  0
LINE
  5
DF
100
AcDbEntity
  8
Ejes de revoluci\U+00f3n
 62
256
370
-1
 48
1.0
  6
BYLAYER
100
AcDbLine
 10
3512.6071883259719471
 20
743.8921771698176144
 30
0.0
 11
3515.6071883259719471
 21
743.8921771698176144
 31
0.0
  0
LINE
  5
E0
100
AcDbEntity
  8
Ejes de revoluci\U+00f3n
 62
256
370
-1
 48
1.0
  6
BYLAYER
100
AcDbLine
 10
3514.1071883259719471
 20
742.3921771698176144
 30
0.0
 11
3514.1071883259719471
 21
745.3921771698176144
 31
0.0
  0
LINE
  5
E1
100
AcDbEntity
  8
Ejes de revoluci\U+00f3n
 62
256
370
-1
 48
1.0
  6
BYLAYER
100
AcDbLine
 10
3494.6071883259719471
 20
743.8921771698176144
 30
0.0
 11
3497.6071883259719471
 21
743.8921771698176144
 31
0.0
  0
LINE
  5
E2
100
AcDbEntity
  8
Ejes de revoluci\U+00f3n
 62
256
370
-1
 48
1.0
  6
BYLAYER
100
AcDbLine
 10
3496.1071883259719471
 20
742.3921771698176144
 30
0.0
 11
3496.1071883259719471
 21
745.3921771698176144
 31
0.0
  0
LINE
  5
E3
100
AcDbEntity
  8
Ejes de revoluci\U+00f3n
 62
256
370
-1
 48
1.0
  6
BYLAYER
100
AcDbLine
 10
3484.1071883259719471
 20
754.3921771698176144
 30
0.0
 11
3487.1071883259719471
 21
754.3921771698176144
 31
0.0
  0
LINE
  5
E4
100
AcDbEntity
  8
Ejes de revoluci\U+00f3n
 62
256
370
-1
 48
1.0
  6
BYLAYER
100
AcDbLine
 10
3485.6071883259719471
 20
752.8921771698176144
 30
0.0
 11
3485.6071883259719471
 21
755.8921771698176144
 31
0.0
  0
LINE
  5
E5
100
AcDbEntity
  8
Ejes de revoluci\U+00f3n
 62
256
370
-1
 48
1.0
  6
BYLAYER
100
AcDbLine
 10
3476.8229170785098177
 20
791.6764484172795164
 30
0.0
 11
3505.1071883259719471
 21
763.3921771698176144
 31
0.0
  0
LINE
  5
E6
100
AcDbEntity
  8
Ejes de revoluci\U+00f3n
 62
256
370
-1
 48
1.0
  6
BYLAYER
100
AcDbLine
 10
3476.8229170785098177
 20
735.1079059223557124
 30
0.0
 11
3505.1071883259719471
 21
763.3921771698176144
 31
0.0
  0
DIMENSION
  5
E7
100
AcDbEntity
  8
Cotas
 62
256
370
-1
 48
1.0
  6
BYLAYER
100
AcDbDimension
 10
3500.1071883259719471
 20
733.5875770677030232
 30
0.0
 11
3505.1071883259719471
 21
734.5250770677030232
 31
0.0
 70
0
 71
8
 72
2
 74
0
 75
0
 41
1.0
 42
0.0
  1

  3
Standard
100
AcDbAlignedDimension
 13
3500.1071883259719471
 23
740.8921771698176144
 33
0.0
 14
3510.1071883259719471
 24
740.8921771698176144
 34
0.0
 50
0.0
100
AcDbRotatedDimension
1001
ACAD
1000
DSTYLE
1002
{
1070
144
1040
1.0
1070
40
1040
0.5
1002
}
  0
DIMENSION
  5
E8
100
AcDbEntity
  8
Cotas
 62
256
370
-1
 48
1.0
  6
BYLAYER
100
AcDbDimension
 10
3514.1071883259719471
 20
729.4867703193690431
 30
0.0
 11
3505.1071883259719471
 21
730.4242703193690431
 31
0.0
 70
0
 71
8
 72
2
 74
0
 75
0
 41
1.0
 42
0.0
  1

  3
Standard
100
AcDbAlignedDimension
 13
3514.1071883259719471
 23
742.3921771698176144
 33
0.0
 14
3496.1071883259719471
 24
742.3921771698176144
 34
0.0
 50
0.0
100
AcDbRotatedDimension
1001
ACAD
1000
DSTYLE
1002
{
1070
144
1040
1.0
1070
40
1040
0.5
1002
}
  0
DIMENSION
  5
E9
100
AcDbEntity
  8
Cotas
 62
256
370
-1
 48
1.0
  6
BYLAYER
100
AcDbDimension
 10
3515.157188325972129
 20
726.0007457676866807
 30
0.0
 11
3505.1071883259719471
 21
726.9382457676866807
 31
0.0
 70
0
 71
8
 72
2
 74
0
 75
0
 41
1.0
 42
0.0
  1

  3
Standard
100
AcDbAlignedDimension
 13
3515.157188325972129
 23
746.8921771698176144
 33
0.0
 14
3495.0571883259722199
 24
746.8921771698176144
 34
0.0
 50
0.0
100
AcDbRotatedDimension
1001
ACAD
1000
DSTYLE
1002
{
1070
144
1040
1.0
1070
40
1040
0.5
1002
}
  0
DIMENSION
  5
EA
100
AcDbEntity
  8
Cotas
 62
256
370
-1
 48
1.0
  6
BYLAYER
100
AcDbDimension
 10
3493.1071883259724018
 20
721.9113708128284088
 30
0.0
 11
3505.1071883259719471
 21
722.8488708128284088
 31
0.0
 70
0
 71
8
 72
2
 74
0
 75
0
 41
1.0
 42
0.0
  1

  3
Standard
100
AcDbAlignedDimension
 13
3493.1071883259724018
 23
744.8921771698175007
 33
0.0
 14
3517.1071883259719471
 24
744.8921771698176144
 34
0.0
 50
0.0
100
AcDbRotatedDimension
1001
ACAD
1000
DSTYLE
1002
{
1070
144
1040
1.0
1070
40
1040
0.5
1002
}
  0
DIMENSION
  5
EB
100
AcDbEntity
  8
Cotas
 62
256
370
-1
 48
1.0
  6
BYLAYER
100
AcDbDimension
 10
3521.6071883259719471
 20
717.7737278257160369
 30
0.0
 11
3505.1071883259719471
 21
718.7112278257160369
 31
0.0
 70
0
 71
8
 72
2
 74
0
 75
0
 41
1.0
 42
0.0
  1

  3
Standard
100
AcDbAlignedDimension
 13
3521.6071883259719471
 23
753.3421771698176599
 33
0.0
 14
3488.6071883259719471
 24
753.3421771698173188
 34
0.0
 50
0.0
100
AcDbRotatedDimension
1001
ACAD
1000
DSTYLE
1002
{
1070
144
1040
1.0
1070
40
1040
0.5
1002
}
  0
DIMENSION
  5
EC
100
AcDbEntity
  8
Cotas
 62
256
370
-1
 48
1.0
  6
BYLAYER
100
AcDbDimension
 10
3485.6071883259719471
 20
714.2984295034234492
 30
0.0
 11
3505.1071883259719471
 21
715.2359295034234492
 31
0.0
 70
0
 71
8
 72
2
 74
0
 75
0
 41
1.0
 42
0.0
  1

  3
Standard
100
AcDbAlignedDimension
 13
3485.6071883259719471
 23
752.8921771698176144
 33
0.0
 14
3524.6071883259719471
 24
752.8921771698176144
 34
0.0
 50
0.0
100
AcDbRotatedDimension
1001
ACAD
1000
DSTYLE
1002
{
1070
144
1040
1.0
1070
40
1040
0.5
1002
}
  0
DIMENSION
  5
ED
100
AcDbEntity
  8
Cotas
 62
256
370
-1
 48
1.0
  6
BYLAYER
100
AcDbDimension
 10
3482.6071883259719471
 20
709.5488551296233481
 30
0.0
 11
3505.1071883259719471
 21
710.4863551296233481
 31
0.0
 70
0
 71
8
 72
2
 74
0
 75
0
 41
1.0
 42
0.0
  1

  3
Standard
100
AcDbAlignedDimension
 13
3482.6071883259719471
 23
743.8921771698176144
 33
0.0
 14
3527.6071883259719471
 24
743.8921771698176144
 34
0.0
 50
0.0
100
AcDbRotatedDimension
1001
ACAD
1000
DSTYLE
1002
{
1070
144
1040
1.0
1070
40
1040
0.5
1002
}
  0
MTEXT
  5
EE
100
AcDbEntity
  8
Cotas
 62
256
370
-1
 48
1.0
  6
BYLAYER
100
AcDbMText
 10
3533.4612528338243465
 20
739.7501504963738626
 30
0.0
 40
1.0
 41
0.0
 71
1
 72
1
  1
4-R3
  7
textstyle1
 50
0.0
 73
2
 44
1.0
  0
MTEXT
  5
EF
100
AcDbEntity
  8
Cotas
 62
256
370
-1
 48
1.0
  6
BYLAYER
100
AcDbMText
 10
3533.3060701169588356
 20
736.4137220837504856
 30
0.0
 40
1.0
 41
0.0
 71
1
 72
1
  1
4-R1.5
  7
textstyle0
 50
0.0
 73
2
 44
1.0
  0
LEADER
  5
F0
100
AcDbEntity
  8
Cotas
 62
256
370
-1
 48
1.0
  6
BYLAYER
100
AcDbLeader
  3
Standard
 71
1
 72
0
 73
3
 74
0
 75
0
 40
1.0
 41
10.0
 76
3
 10
3526.7285086695314931
 20
741.7708568262579547
 10
3533.3612528338244374
 20
738.6283223926903929
 10
3536.5048259548943861
 20
738.6283223926903929
1001
ACAD
1000
DSTYLE
1002
{
1070
40
1040
0.5
1002
}
  0
LEADER
  5
F1
100
AcDbEntity
  8
Cotas
 62
256
370
-1
 48
1.0
  6
BYLAYER
100
AcDbLeader
  3
Standard
 71
1
 72
0
 73
3
 74
0
 75
0
 40
1.0
 41
10.0
 76
3
 10
3525.1678484977514927
 20
743.3337360141649697
 10
3533.2060701169589265
 20
735.2925761083071166
 10
3537.5230628033132234
 20
735.2925761083071166
1001
ACAD
1000
DSTYLE
1002
{
1070
40
1040
0.5
1002
}
  0
LINE
  5
F2
100
AcDbEntity
  8
Ejes de revoluci\U+00f3n
 62
256
370
-1
 48
1.0
  6
BYLAYER
100
AcDbLine
 10
3470.1071883259719471
 20
763.3921771698176144
 30
0.0
 11
3540.1071883259719471
 21
763.3921771698176144
 31
0.0
  0
LINE
  5
F3
100
AcDbEntity
  8
Ejes de revoluci\U+00f3n
 62
256
370
-1
 48
1.0
  6
BYLAYER
100
AcDbLine
 10
3505.1071883259719471
 20
728.3921771698176144
 30
0.0
 11
3505.1071883259719471
 21
798.3921771698176144
 31
0.0
  0
DIMENSION
  5
F4
100
AcDbEntity
  8
Cotas
 62
256
370
-1
 48
1.0
  6
BYLAYER
100
AcDbDimension
 10
3476.8229170785098177
 20
791.6764484172795164
 30
0.0
 11
3488.3398212467800477
 21
803.8721821776910019
 31
0.0
 70
2
 71
8
 72
2
 74
0
 75
0
 41
1.0
 42
0.0
  1

  3
Standard
100
AcDb2LineAngularDimension
 13
3505.1071883259719471
 23
728.3921771698176144
 33
0.0
 14
3505.1071883259719471
 24
798.3921771698176144
 34
0.0
 15
3505.1071883259719471
 25
763.3921771698176144
 35
0.0
 16
3480.611601081155186
 26
798.5840361406336569
 36
0.0
  0
DIMENSION
  5
F5
100
AcDbEntity
  8
Cotas
 62
256
370
-1
 48
1.0
  6
BYLAYER
100
AcDbDimension
 10
3476.8229170785098177
 20
735.1079059223557124
 30
0.0
 11
3461.2919466376524724
 21
763.392177169817387
 31
0.0
 70
2
 71
8
 72
2
 74
0
 75
0
 41
1.0
 42
0.0
  1

  3
Standard
100
AcDb2LineAngularDimension
 13
3476.8229170785098177
 23
791.6764484172795164
 33
0.0
 14
3505.1071883259719471
 24
763.3921771698176144
 34
0.0
 15
3505.1071883259719471
 25
763.3921771698176144
 35
0.0
 16
3474.7880464161962664
 26
793.7113190795931814
 36
0.0
  0
DIMENSION
  5
F6
100
AcDbEntity
  8
Cotas
 62
256
370
-1
 48
1.0
  6
BYLAYER
100
AcDbDimension
 10
3494.1866753404501651
 20
772.0216641842952185
 30
0.0
 11
3497.2025333401784337
 21
776.3633473987478055
 31
0.0
 70
1
 71
8
 72
2
 74
0
 75
0
 41
1.0
 42
0.0
  1

  3
Standard
100
AcDbAlignedDimension
 13
3494.1866753404497103
 23
772.0216641842955596
 33
0.0
 14
3496.4777013114944566
 24
774.3126901553397374
 34
0.0
1001
ACAD
1000
DSTYLE
1002
{
1070
144
1040
1.0
1070
40
1040
0.5
1002
}
  0
ENDSEC
  0
SECTION
  2
OBJECTS
  0
DICTIONARY
  5
C
100
AcDbDictionary
280
0
281
1
  3
ACAD_GROUP
350
D
  3
ACAD_LAYOUT
350
1A
  3
ACAD_MLINESTYLE
350
17
  3
ACAD_PLOTSETTINGS
350
19
  3
ACAD_PLOTSTYLENAME
350
E
  3
AcDbVariableDictionary
350
F7
  3
QCAD_OBJECTS
350
F8
  0
DICTIONARY
  5
D
100
AcDbDictionary
280
0
281
1
  0
ACDBDICTIONARYWDFLT
  5
E
100
AcDbDictionary
281
1
  3
Normal
350
F
100
AcDbDictionaryWithDefault
340
F
  0
ACDBPLACEHOLDER
  5
F
  0
DICTIONARY
  5
17
100
AcDbDictionary
280
0
281
1
  3
Standard
350
18
  0
MLINESTYLE
  5
18
100
AcDbMlineStyle
  2
STANDARD
 70
0
  3

 62
256
 51
90.0
 52
90.0
 71
2
 49
0.5
 62
256
  6
BYLAYER
 49
-0.5
 62
256
  6
BYLAYER
  0
DICTIONARY
  5
19
100
AcDbDictionary
280
0
281
1
  0
DICTIONARY
  5
1A
100
AcDbDictionary
281
1
  3
Layout1
350
1E
  3
Layout2
350
26
  3
Model
350
22
  0
LAYOUT
  5
1E
100
AcDbPlotSettings
  1

  2
none_device
  4

  6

 40
0.0
 41
0.0
 42
0.0
 43
0.0
 44
0.0
 45
0.0
 46
0.0
 47
0.0
 48
0.0
 49
0.0
140
0.0
141
0.0
142
1.0
143
1.0
 70
688
 72
0
 73
0
 74
5
  7

 75
16
147
1.0
148
0.0
149
0.0
100
AcDbLayout
  1
Layout1
 70
1
 71
1
 10
0.0
 20
0.0
 11
420.0
 21
297.0
 12
0.0
 22
0.0
 32
0.0
 14
100000000000000000000.0
 24
100000000000000000000.0
 34
100000000000000000000.0
 15
-100000000000000000000.0
 25
-100000000000000000000.0
 35
-100000000000000000000.0
146
0.0
 13
0.0
 23
0.0
 33
0.0
 16
1.0
 26
0.0
 36
0.0
 17
0.0
 27
1.0
 37
0.0
 76
0
330
1B
  0
LAYOUT
  5
22
100
AcDbPlotSettings
  1

  2
none_device
  4

  6

 40
0.0
 41
0.0
 42
0.0
 43
0.0
 44
0.0
 45
0.0
 46
0.0
 47
0.0
 48
0.0
 49
0.0
140
0.0
141
0.0
142
1.0
143
1.0
 70
1712
 72
0
 73
0
 74
0
  7

 75
0
147
1.0
148
0.0
149
0.0
100
AcDbLayout
  1
Model
 70
1
 71
0
 10
0.0
 20
0.0
 11
12.0
 21
9.0
 12
0.0
 22
0.0
 32
0.0
 14
0.0
 24
0.0
 34
0.0
 15
0.0
 25
0.0
 35
0.0
146
0.0
 13
0.0
 23
0.0
 33
0.0
 16
1.0
 26
0.0
 36
0.0
 17
0.0
 27
1.0
 37
0.0
 76
0
330
1F
  0
LAYOUT
  5
26
100
AcDbPlotSettings
  1

  2
none_device
  4

  6

 40
0.0
 41
0.0
 42
0.0
 43
0.0
 44
0.0
 45
0.0
 46
0.0
 47
0.0
 48
0.0
 49
0.0
140
0.0
141
0.0
142
1.0
143
1.0
 70
688
 72
0
 73
0
 74
5
  7

 75
16
147
1.0
148
0.0
149
0.0
100
AcDbLayout
  1
Layout2
 70
1
 71
2
 10
0.0
 20
0.0
 11
12.0
 21
9.0
 12
0.0
 22
0.0
 32
0.0
 14
0.0
 24
0.0
 34
0.0
 15
0.0
 25
0.0
 35
0.0
146
0.0
 13
0.0
 23
0.0
 33
0.0
 16
1.0
 26
0.0
 36
0.0
 17
0.0
 27
1.0
 37
0.0
 76
0
330
23
  0
DICTIONARY
  5
F7
100
AcDbDictionary
281
1
  3
DIMASSOC
350
FA
  3
HIDETEXT
350
F9
  0
DICTIONARYVAR
  5
F9
100
DictionaryVariables
280
0
  1
2
  0
DICTIONARYVAR
  5
FA
100
DictionaryVariables
280
0
  1
1
  0
DICTIONARY
  5
F8
100
AcDbDictionary
281
1
  3
ColorSettings/BackgroundColor
350
FB
  3
ColorSettings/ColorMode
350
FC
  3
DimensionSettings/AngularFormat
350
FD
  3
DimensionSettings/AngularPrecision
350
FE
  3
DimensionSettings/DecimalPoint
350
FF
  3
DimensionSettings/DimensionFont
350
100
  3
DimensionSettings/DimensionTextColor
350
101
  3
DimensionSettings/KeepProportions
350
102
  3
DimensionSettings/LinearFormat
350
103
  3
DimensionSettings/LinearPrecision
350
104
  3
Grid/DisplayGrid00
350
105
  3
Grid/DisplayGrid01
350
106
  3
Grid/DisplayGrid02
350
107
  3
Grid/DisplayGrid03
350
108
  3
Grid/GridSpacingX00
350
109
  3
Grid/GridSpacingX01
350
10A
  3
Grid/GridSpacingX02
350
10B
  3
Grid/GridSpacingX03
350
10C
  3
Grid/GridSpacingY00
350
10D
  3
Grid/GridSpacingY01
350
10E
  3
Grid/GridSpacingY02
350
10F
  3
Grid/GridSpacingY03
350
110
  3
Grid/IsometricGrid00
350
111
  3
Grid/IsometricGrid01
350
112
  3
Grid/IsometricGrid02
350
113
  3
Grid/IsometricGrid03
350
114
  3
Grid/IsometricProjection00
350
115
  3
Grid/IsometricProjection01
350
116
  3
Grid/IsometricProjection02
350
117
  3
Grid/IsometricProjection03
350
118
  3
Grid/MetaGridSpacingX00
350
119
  3
Grid/MetaGridSpacingX01
350
11A
  3
Grid/MetaGridSpacingX02
350
11B
  3
Grid/MetaGridSpacingX03
350
11C
  3
Grid/MetaGridSpacingY00
350
11D
  3
Grid/MetaGridSpacingY01
350
11E
  3
Grid/MetaGridSpacingY02
350
11F
  3
Grid/MetaGridSpacingY03
350
120
  3
MultiPageSettings/Columns
350
121
  3
MultiPageSettings/GlueMarginsBottom
350
122
  3
MultiPageSettings/GlueMarginsLeft
350
123
  3
MultiPageSettings/GlueMarginsRight
350
124
  3
MultiPageSettings/GlueMarginsTop
350
125
  3
MultiPageSettings/PrintCropMarks
350
126
  3
MultiPageSettings/Rows
350
127
  3
PageSettings/OffsetX
350
128
  3
PageSettings/OffsetY
350
129
  3
PageSettings/PageOrientation
350
12A
  3
PageSettings/PaperHeight
350
12B
  3
PageSettings/PaperWidth
350
12C
  3
PageSettings/Scale
350
12D
  3
PageSettings/ShowPaperBorders
350
12E
  3
PageTagSettings/EnablePageTags
350
12F
  3
PageTagSettings/TagAlignment
350
130
  3
PageTagSettings/TagFont
350
131
  3
PageTagSettings/TagPosition
350
132
  3
QCADVersion
350
133
  3
UnitSettings/PaperUnit
350
134
  3
ViewportCenter
350
135
  3
ViewportHeight
350
136
  3
ViewportWidth
350
137
  0
XRECORD
  5
FB
330
F8
100
AcDbXrecord
280
1
1000
Blanca
  0
XRECORD
  5
FC
330
F8
100
AcDbXrecord
280
1
1000
FullColor
  0
XRECORD
  5
FD
330
F8
100
AcDbXrecord
280
1
 90
0
  0
XRECORD
  5
FE
330
F8
100
AcDbXrecord
280
1
 90
0
  0
XRECORD
  5
FF
330
F8
100
AcDbXrecord
280
1
 90
46
  0
XRECORD
  5
100
330
F8
100
AcDbXrecord
280
1
1000
MS Shell Dlg 2
  0
XRECORD
  5
101
330
F8
100
AcDbXrecord
280
1
1000
Por Capa
  0
XRECORD
  5
102
330
F8
100
AcDbXrecord
280
1
290
1
  0
XRECORD
  5
103
330
F8
100
AcDbXrecord
280
1
 90
2
  0
XRECORD
  5
104
330
F8
100
AcDbXrecord
280
1
 90
4
  0
XRECORD
  5
105
330
F8
100
AcDbXrecord
280
1
290
0
  0
XRECORD
  5
106
330
F8
100
AcDbXrecord
280
1
290
1
  0
XRECORD
  5
107
330
F8
100
AcDbXrecord
280
1
290
1
  0
XRECORD
  5
108
330
F8
100
AcDbXrecord
280
1
290
1
  0
XRECORD
  5
109
330
F8
100
AcDbXrecord
280
1
1000
auto
  0
XRECORD
  5
10A
330
F8
100
AcDbXrecord
280
1
1000
auto
  0
XRECORD
  5
10B
330
F8
100
AcDbXrecord
280
1
1000
auto
  0
XRECORD
  5
10C
330
F8
100
AcDbXrecord
280
1
1000
auto
  0
XRECORD
  5
10D
330
F8
100
AcDbXrecord
280
1
1000
auto
  0
XRECORD
  5
10E
330
F8
100
AcDbXrecord
280
1
1000
auto
  0
XRECORD
  5
10F
330
F8
100
AcDbXrecord
280
1
1000
auto
  0
XRECORD
  5
110
330
F8
100
AcDbXrecord
280
1
1000
auto
  0
XRECORD
  5
111
330
F8
100
AcDbXrecord
280
1
290
0
  0
XRECORD
  5
112
330
F8
100
AcDbXrecord
280
1
290
0
  0
XRECORD
  5
113
330
F8
100
AcDbXrecord
280
1
290
0
  0
XRECORD
  5
114
330
F8
100
AcDbXrecord
280
1
290
0
  0
XRECORD
  5
115
330
F8
100
AcDbXrecord
280
1
 90
65540
  0
XRECORD
  5
116
330
F8
100
AcDbXrecord
280
1
 90
65537
  0
XRECORD
  5
117
330
F8
100
AcDbXrecord
280
1
 90
65537
  0
XRECORD
  5
118
330
F8
100
AcDbXrecord
280
1
 90
65537
  0
XRECORD
  5
119
330
F8
100
AcDbXrecord
280
1
1000
auto
  0
XRECORD
  5
11A
330
F8
100
AcDbXrecord
280
1
1000
auto
  0
XRECORD
  5
11B
330
F8
100
AcDbXrecord
280
1
1000
auto
  0
XRECORD
  5
11C
330
F8
100
AcDbXrecord
280
1
1000
auto
  0
XRECORD
  5
11D
330
F8
100
AcDbXrecord
280
1
1000
1
  0
XRECORD
  5
11E
330
F8
100
AcDbXrecord
280
1
1000
auto
  0
XRECORD
  5
11F
330
F8
100
AcDbXrecord
280
1
1000
auto
  0
XRECORD
  5
120
330
F8
100
AcDbXrecord
280
1
1000
auto
  0
XRECORD
  5
121
330
F8
100
AcDbXrecord
280
1
 90
1
  0
XRECORD
  5
122
330
F8
100
AcDbXrecord
280
1
 40
10.0
  0
XRECORD
  5
123
330
F8
100
AcDbXrecord
280
1
 40
10.0
  0
XRECORD
  5
124
330
F8
100
AcDbXrecord
280
1
 40
10.0
  0
XRECORD
  5
125
330
F8
100
AcDbXrecord
280
1
 40
10.0
  0
XRECORD
  5
126
330
F8
100
AcDbXrecord
280
1
290
0
  0
XRECORD
  5
127
330
F8
100
AcDbXrecord
280
1
 90
1
  0
XRECORD
  5
128
330
F8
100
AcDbXrecord
280
1
 40
793.1665914866936191
  0
XRECORD
  5
129
330
F8
100
AcDbXrecord
280
1
 40
306.6308471493692309
  0
XRECORD
  5
12A
330
F8
100
AcDbXrecord
280
1
1000
Portrait
  0
XRECORD
  5
12B
330
F8
100
AcDbXrecord
280
1
 40
279.3999999999999773
  0
XRECORD
  5
12C
330
F8
100
AcDbXrecord
280
1
 40
215.9000000000000057
  0
XRECORD
  5
12D
330
F8
100
AcDbXrecord
280
1
 90
1
  0
XRECORD
  5
12E
330
F8
100
AcDbXrecord
280
1
290
1
  0
XRECORD
  5
12F
330
F8
100
AcDbXrecord
280
1
290
0
  0
XRECORD
  5
130
330
F8
100
AcDbXrecord
280
1
1000
Inside
  0
XRECORD
  5
131
330
F8
100
AcDbXrecord
280
1
1000
Arial,10,-1,5,50,0,0,0,0,0
  0
XRECORD
  5
132
330
F8
100
AcDbXrecord
280
1
1000
TopLeft
  0
XRECORD
  5
133
330
F8
100
AcDbXrecord
280
1
1000
3.28.1
  0
XRECORD
  5
134
330
F8
100
AcDbXrecord
280
1
 90
4
  0
XRECORD
  5
136
330
F8
100
AcDbXrecord
280
1
 40
56.7632059307793497
  0
XRECORD
  5
137
330
F8
100
AcDbXrecord
280
1
 40
105.301539165466238
  0
IMAGEDEF
  5
62
100
AcDbRasterImageDef
 90
0
  1
C:/Users/iamth/Documents/OneDrive/Estudio Aut\U+00f3nomo/CAD/QCad/1. StudyCadCam/2D CAD EXERCISES 99.png
 10
200.0
 20
141.0
 11
1.0
 21
1.0
280
1
281
0
  0
ENDSEC
  0
EOF
