999
dxflib 3.26.4.0
  0
SECTION
  2
HEADER
  9
$ACADVER
  1
AC1015
  9
$HANDSEED
  5
FFFF
  9
$DIMADEC
 70
0
  9
$DIMASZ
 40
2.5
  9
$DIMATFIT
 70
0
  9
$DIMAUNIT
 70
0
  9
$DIMAZIN
 70
2
  9
$DIMBLK
  1
0
  9
$DIMBLK1
  1
0
  9
$DIMBLK2
  1
0
  9
$DIMDEC
 70
4
  9
$DIMDLI
 40
5.0
  9
$DIMDSEP
 70
46
  9
$DIMEXE
 40
1.25
  9
$DIMEXO
 40
0.625
  9
$DIMGAP
 40
0.625
  9
$DIMLFAC
 40
1.0
  9
$DIMLUNIT
 70
2
  9
$DIMSCALE
 40
0.6
  9
$DIMTAD
 70
1
  9
$DIMTIH
 70
0
  9
$DIMTSZ
 40
0.0
  9
$DIMTXT
 40
2.5
  9
$DIMZIN
 70
8
  9
$DWGCODEPAGE
  3
ANSI_1252
  9
$INSUNITS
 70
4
  9
$LTSCALE
 40
1.0
  9
$MAXACTVP
 70
64
  9
$MEASUREMENT
 70
1
  9
$MIRRTEXT
 70
0
  9
$PDMODE
 70
0
  9
$PDSIZE
 40
0.0
  0
ENDSEC
  0
SECTION
  2
TABLES
  0
TABLE
  2
VPORT
  5
8
100
AcDbSymbolTable
 70
1
  0
VPORT
  5
30
100
AcDbSymbolTableRecord
100
AcDbViewportTableRecord
  2
*Active
 70
0
 10
0.0
 20
0.0
 11
1.0
 21
1.0
 12
286.3055555555554861
 22
148.5
 13
0.0
 23
0.0
 14
10.0
 24
10.0
 15
10.0
 25
10.0
 16
0.0
 26
0.0
 36
1.0
 17
0.0
 27
0.0
 37
0.0
 40
297.0
 41
1.92798353909465
 42
50.0
 43
0.0
 44
0.0
 50
0.0
 51
0.0
 71
0
 72
100
 73
1
 74
3
 75
1
 76
1
 77
0
 78
0
281
0
 65
1
110
0.0
120
0.0
130
0.0
111
1.0
121
0.0
131
0.0
112
0.0
122
1.0
132
0.0
 79
0
146
0.0
  0
ENDTAB
  0
TABLE
  2
LTYPE
  5
5
100
AcDbSymbolTable
 70
41
  0
LTYPE
  5
16
100
AcDbSymbolTableRecord
100
AcDbLinetypeTableRecord
  2
Continuous
 70
0
  3
Solid line
 72
65
 73
0
 40
0.0
  0
LTYPE
  5
31
100
AcDbSymbolTableRecord
100
AcDbLinetypeTableRecord
  2
DASHDOT2
 70
0
  3
Dash dot (.5x) _._._._._._._._._._._._._._._.
 72
65
 73
4
 40
12.6999999999999993
 49
6.3499999999999996
 74
0
 49
-3.125
 74
0
 49
0.1
 74
0
 49
-3.125
 74
0
  0
LTYPE
  5
32
100
AcDbSymbolTableRecord
100
AcDbLinetypeTableRecord
  2
DASHED
 70
0
  3
Dashed __ __ __ __ __ __ __ __ __ __ __ __ __ _
 72
65
 73
2
 40
19.0499999999999972
 49
12.6999999999999993
 74
0
 49
-6.3499999999999996
 74
0
  0
LTYPE
  5
33
100
AcDbSymbolTableRecord
100
AcDbLinetypeTableRecord
  2
DOT2
 70
0
  3
Dot (.5x) ........................................
 72
65
 73
2
 40
3.1749999999999998
 49
0.1
 74
0
 49
-3.0749999999999997
 74
0
  0
LTYPE
  5
34
100
AcDbSymbolTableRecord
100
AcDbLinetypeTableRecord
  2
CENTER
 70
0
  3
Center ____ _ ____ _ ____ _ ____ _ ____ _ ____
 72
65
 73
4
 40
50.8000000000000043
 49
31.75
 74
0
 49
-6.3499999999999996
 74
0
 49
6.3499999999999996
 74
0
 49
-6.3499999999999996
 74
0
  0
LTYPE
  5
35
100
AcDbSymbolTableRecord
100
AcDbLinetypeTableRecord
  2
PHANTOM
 70
0
  3
Phantom ______  __  __  ______  __  __  ______ 
 72
65
 73
6
 40
63.5000000000000071
 49
31.75
 74
0
 49
-6.3499999999999996
 74
0
 49
6.3499999999999996
 74
0
 49
-6.3499999999999996
 74
0
 49
6.3499999999999996
 74
0
 49
-6.3499999999999996
 74
0
  0
LTYPE
  5
36
100
AcDbSymbolTableRecord
100
AcDbLinetypeTableRecord
  2
DOTX2
 70
0
  3
Dot (2x) .  .  .  .  .  .  .  .  .  .  .  .  .  .
 72
65
 73
2
 40
12.6999999999999993
 49
0.1
 74
0
 49
-12.5999999999999996
 74
0
  0
LTYPE
  5
37
100
AcDbSymbolTableRecord
100
AcDbLinetypeTableRecord
  2
ACAD_ISO06W100
 70
0
  3
ISO long-dash triple-dot ____ ... ____ ... ____
 72
65
 73
8
 40
36.0000000000000071
 49
24.0
 74
0
 49
-2.9500000000000002
 74
0
 49
0.1
 74
0
 49
-2.9000000000000004
 74
0
 49
0.1
 74
0
 49
-2.9000000000000004
 74
0
 49
0.1
 74
0
 49
-2.9500000000000002
 74
0
  0
LTYPE
  5
38
100
AcDbSymbolTableRecord
100
AcDbLinetypeTableRecord
  2
CENTERX2
 70
0
  3
Center (2x) ________  __  ________  __  _____
 72
65
 73
4
 40
101.6000000000000085
 49
63.5
 74
0
 49
-12.6999999999999993
 74
0
 49
12.6999999999999993
 74
0
 49
-12.6999999999999993
 74
0
  0
LTYPE
  5
39
100
AcDbSymbolTableRecord
100
AcDbLinetypeTableRecord
  2
ACAD_ISO11W100
 70
0
  3
ISO double-dash dot __ __ . __ __ . __ __ . __ _
 72
65
 73
6
 40
33.0
 49
12.0
 74
0
 49
-3.0
 74
0
 49
12.0
 74
0
 49
-2.9500000000000002
 74
0
 49
0.1
 74
0
 49
-2.9500000000000002
 74
0
  0
LTYPE
  5
3A
100
AcDbSymbolTableRecord
100
AcDbLinetypeTableRecord
  2
DASHED2
 70
0
  3
Dashed (.5x) _ _ _ _ _ _ _ _ _ _ _ _ _ _ _ _ _ 
 72
65
 73
2
 40
9.5249999999999986
 49
6.3499999999999996
 74
0
 49
-3.1749999999999998
 74
0
  0
LTYPE
  5
3B
100
AcDbSymbolTableRecord
100
AcDbLinetypeTableRecord
  2
ACAD_ISO04W100
 70
0
  3
ISO long-dash dot ____ . ____ . ____ . ____ . _
 72
65
 73
4
 40
30.0
 49
24.0
 74
0
 49
-2.9500000000000002
 74
0
 49
0.1
 74
0
 49
-2.9500000000000002
 74
0
  0
LTYPE
  5
3C
100
AcDbSymbolTableRecord
100
AcDbLinetypeTableRecord
  2
DIVIDE
 70
0
  3
Divide ____ . . ____ . . ____ . . ____ . . ____
 72
65
 73
6
 40
31.7500000000000036
 49
12.6999999999999993
 74
0
 49
-6.2999999999999998
 74
0
 49
0.1
 74
0
 49
-6.25
 74
0
 49
0.1
 74
0
 49
-6.2999999999999998
 74
0
  0
LTYPE
  5
3D
100
AcDbSymbolTableRecord
100
AcDbLinetypeTableRecord
  2
PHANTOMX2
 70
0
  3
Phantom (2x) ____________    ____    ____   _
 72
65
 73
6
 40
127.0000000000000142
 49
63.5
 74
0
 49
-12.6999999999999993
 74
0
 49
12.6999999999999993
 74
0
 49
-12.6999999999999993
 74
0
 49
12.6999999999999993
 74
0
 49
-12.6999999999999993
 74
0
  0
LTYPE
  5
3E
100
AcDbSymbolTableRecord
100
AcDbLinetypeTableRecord
  2
DIVIDE2
 70
0
  3
Divide (.5x) __..__..__..__..__..__..__..__.._
 72
65
 73
6
 40
15.8749999999999982
 49
6.3499999999999996
 74
0
 49
-3.125
 74
0
 49
0.1
 74
0
 49
-3.0750000000000002
 74
0
 49
0.1
 74
0
 49
-3.125
 74
0
  0
LTYPE
  5
3F
100
AcDbSymbolTableRecord
100
AcDbLinetypeTableRecord
  2
DIVIDEX2
 70
0
  3
Divide (2x) ________  .  .  ________  .  .  _
 72
65
 73
6
 40
63.5
 49
25.3999999999999986
 74
0
 49
-12.6499999999999986
 74
0
 49
0.1
 74
0
 49
-12.5999999999999979
 74
0
 49
0.1
 74
0
 49
-12.6499999999999986
 74
0
  0
LTYPE
  5
40
100
AcDbSymbolTableRecord
100
AcDbLinetypeTableRecord
  2
HIDDENX2
 70
0
  3
Hidden (2x) ____ ____ ____ ____ ____ ____ ____ 
 72
65
 73
2
 40
19.0499999999999972
 49
12.6999999999999993
 74
0
 49
-6.3499999999999996
 74
0
  0
LTYPE
  5
41
100
AcDbSymbolTableRecord
100
AcDbLinetypeTableRecord
  2
ACAD_ISO15W100
 70
0
  3
ISO double-dash triple-dot __ __ . . . __ __ . .
 72
65
 73
10
 40
39.0000000000000071
 49
12.0
 74
0
 49
-3.0
 74
0
 49
12.0
 74
0
 49
-2.9500000000000002
 74
0
 49
0.1
 74
0
 49
-2.9000000000000004
 74
0
 49
0.1
 74
0
 49
-2.9000000000000004
 74
0
 49
0.1
 74
0
 49
-2.9500000000000002
 74
0
  0
LTYPE
  5
42
100
AcDbSymbolTableRecord
100
AcDbLinetypeTableRecord
  2
ACAD_ISO07W100
 70
0
  3
ISO dot . . . . . . . . . . . . . . . . . . . . 
 72
65
 73
2
 40
3.0
 49
0.1
 74
0
 49
-2.8999999999999999
 74
0
  0
LTYPE
  5
43
100
AcDbSymbolTableRecord
100
AcDbLinetypeTableRecord
  2
BORDERX2
 70
0
  3
Border (2x) ____  ____  .  ____  ____  .  ___
 72
65
 73
6
 40
88.8999999999999773
 49
25.3999999999999986
 74
0
 49
-12.6999999999999993
 74
0
 49
25.3999999999999986
 74
0
 49
-12.6499999999999986
 74
0
 49
0.1
 74
0
 49
-12.6499999999999986
 74
0
  0
LTYPE
  5
44
100
AcDbSymbolTableRecord
100
AcDbLinetypeTableRecord
  2
ACAD_ISO14W100
 70
0
  3
ISO dash triple-dot __ . . . __ . . . __ . . . _
 72
65
 73
8
 40
24.0000000000000036
 49
12.0
 74
0
 49
-2.9500000000000002
 74
0
 49
0.1
 74
0
 49
-2.9000000000000004
 74
0
 49
0.1
 74
0
 49
-2.9000000000000004
 74
0
 49
0.1
 74
0
 49
-2.9500000000000002
 74
0
  0
LTYPE
  5
45
100
AcDbSymbolTableRecord
100
AcDbLinetypeTableRecord
  2
DOT
 70
0
  3
Dot . . . . . . . . . . . . . . . . . . . . . . . .
 72
65
 73
2
 40
6.3499999999999996
 49
0.1
 74
0
 49
-6.25
 74
0
  0
LTYPE
  5
46
100
AcDbSymbolTableRecord
100
AcDbLinetypeTableRecord
  2
HIDDEN2
 70
0
  3
Hidden (.5x) _ _ _ _ _ _ _ _ _ _ _ _ _ _ _ _ _ 
 72
65
 73
2
 40
4.7624999999999993
 49
3.1749999999999998
 74
0
 49
-1.5874999999999999
 74
0
  0
LTYPE
  5
47
100
AcDbSymbolTableRecord
100
AcDbLinetypeTableRecord
  2
DASHEDX2
 70
0
  3
Dashed (2x) ____  ____  ____  ____  ____  ___
 72
65
 73
2
 40
38.0999999999999943
 49
25.3999999999999986
 74
0
 49
-12.6999999999999993
 74
0
  0
LTYPE
  5
15
100
AcDbSymbolTableRecord
100
AcDbLinetypeTableRecord
  2
BYLAYER
 70
0
  3

 72
65
 73
0
 40
0.0
  0
LTYPE
  5
48
100
AcDbSymbolTableRecord
100
AcDbLinetypeTableRecord
  2
ACAD_ISO10W100
 70
0
  3
ISO dash dot __ . __ . __ . __ . __ . __ . __ . 
 72
65
 73
4
 40
18.0
 49
12.0
 74
0
 49
-2.9500000000000002
 74
0
 49
0.1
 74
0
 49
-2.9500000000000002
 74
0
  0
LTYPE
  5
49
100
AcDbSymbolTableRecord
100
AcDbLinetypeTableRecord
  2
ACAD_ISO09W100
 70
0
  3
ISO long-dash double-short-dash ____ __ __ ____
 72
65
 73
6
 40
45.0
 49
24.0
 74
0
 49
-3.0
 74
0
 49
6.0
 74
0
 49
-3.0
 74
0
 49
6.0
 74
0
 49
-3.0
 74
0
  0
LTYPE
  5
4A
100
AcDbSymbolTableRecord
100
AcDbLinetypeTableRecord
  2
DASHDOT
 70
0
  3
Dash dot __ . __ . __ . __ . __ . __ . __ . __
 72
65
 73
4
 40
25.4000000000000021
 49
12.6999999999999993
 74
0
 49
-6.2999999999999998
 74
0
 49
0.1
 74
0
 49
-6.2999999999999998
 74
0
  0
LTYPE
  5
4B
100
AcDbSymbolTableRecord
100
AcDbLinetypeTableRecord
  2
ACAD_ISO03W100
 70
0
  3
ISO dash space __    __    __    __    __    __
 72
65
 73
2
 40
30.0
 49
12.0
 74
0
 49
-18.0
 74
0
  0
LTYPE
  5
4C
100
AcDbSymbolTableRecord
100
AcDbLinetypeTableRecord
  2
CENTER2
 70
0
  3
Center (.5x) ___ _ ___ _ ___ _ ___ _ ___ _ ___
 72
65
 73
4
 40
28.5750000000000028
 49
19.0500000000000007
 74
0
 49
-3.1749999999999998
 74
0
 49
3.1749999999999998
 74
0
 49
-3.1749999999999998
 74
0
  0
LTYPE
  5
4D
100
AcDbSymbolTableRecord
100
AcDbLinetypeTableRecord
  2
ACAD_ISO05W100
 70
0
  3
ISO long-dash double-dot ____ .. ____ .. ____ . 
 72
65
 73
6
 40
33.0000000000000071
 49
24.0
 74
0
 49
-2.9500000000000002
 74
0
 49
0.1
 74
0
 49
-2.9000000000000004
 74
0
 49
0.1
 74
0
 49
-2.9500000000000002
 74
0
  0
LTYPE
  5
4E
100
AcDbSymbolTableRecord
100
AcDbLinetypeTableRecord
  2
BORDER
 70
0
  3
Border __ __ . __ __ . __ __ . __ __ . __ __ .
 72
65
 73
6
 40
44.4499999999999957
 49
12.6999999999999993
 74
0
 49
-6.3499999999999996
 74
0
 49
12.6999999999999993
 74
0
 49
-6.2999999999999998
 74
0
 49
0.1
 74
0
 49
-6.2999999999999998
 74
0
  0
LTYPE
  5
14
100
AcDbSymbolTableRecord
100
AcDbLinetypeTableRecord
  2
BYBLOCK
 70
0
  3

 72
65
 73
0
 40
0.0
  0
LTYPE
  5
4F
100
AcDbSymbolTableRecord
100
AcDbLinetypeTableRecord
  2
ACAD_ISO12W100
 70
0
  3
ISO dash double-dot __ . . __ . . __ . . __ . . 
 72
65
 73
6
 40
21.0
 49
12.0
 74
0
 49
-2.9500000000000002
 74
0
 49
0.1
 74
0
 49
-2.9000000000000004
 74
0
 49
0.1
 74
0
 49
-2.9500000000000002
 74
0
  0
LTYPE
  5
50
100
AcDbSymbolTableRecord
100
AcDbLinetypeTableRecord
  2
ACAD_ISO13W100
 70
0
  3
ISO double-dash double-dot __ __ . . __ __ . . _
 72
65
 73
8
 40
36.0000000000000071
 49
12.0
 74
0
 49
-3.0
 74
0
 49
12.0
 74
0
 49
-2.9500000000000002
 74
0
 49
0.1
 74
0
 49
-2.9000000000000004
 74
0
 49
0.1
 74
0
 49
-2.9500000000000002
 74
0
  0
LTYPE
  5
51
100
AcDbSymbolTableRecord
100
AcDbLinetypeTableRecord
  2
ACAD_ISO02W100
 70
0
  3
ISO dash __ __ __ __ __ __ __ __ __ __ __ __ __
 72
65
 73
2
 40
15.0
 49
12.0
 74
0
 49
-3.0
 74
0
  0
LTYPE
  5
52
100
AcDbSymbolTableRecord
100
AcDbLinetypeTableRecord
  2
HIDDEN
 70
0
  3
Hidden __ __ __ __ __ __ __ __ __ __ __ __ __ __
 72
65
 73
2
 40
9.5249999999999986
 49
6.3499999999999996
 74
0
 49
-3.1749999999999998
 74
0
  0
LTYPE
  5
53
100
AcDbSymbolTableRecord
100
AcDbLinetypeTableRecord
  2
ACAD_ISO08W100
 70
0
  3
ISO long-dash short-dash ____ __ ____ __ ____ _
 72
65
 73
4
 40
36.0
 49
24.0
 74
0
 49
-3.0
 74
0
 49
6.0
 74
0
 49
-3.0
 74
0
  0
LTYPE
  5
54
100
AcDbSymbolTableRecord
100
AcDbLinetypeTableRecord
  2
DASHDOTX2
 70
0
  3
Dash dot (2x) ____  .  ____  .  ____  .  ___
 72
65
 73
4
 40
50.7999999999999972
 49
25.3999999999999986
 74
0
 49
-12.6499999999999986
 74
0
 49
0.1
 74
0
 49
-12.6499999999999986
 74
0
  0
LTYPE
  5
55
100
AcDbSymbolTableRecord
100
AcDbLinetypeTableRecord
  2
PHANTOM2
 70
0
  3
Phantom (.5x) ___ _ _ ___ _ _ ___ _ _ ___ _ _
 72
65
 73
6
 40
31.7500000000000036
 49
15.875
 74
0
 49
-3.1749999999999998
 74
0
 49
3.1749999999999998
 74
0
 49
-3.1749999999999998
 74
0
 49
3.1749999999999998
 74
0
 49
-3.1749999999999998
 74
0
  0
LTYPE
  5
56
100
AcDbSymbolTableRecord
100
AcDbLinetypeTableRecord
  2
BORDER2
 70
0
  3
Border (.5x) __.__.__.__.__.__.__.__.__.__.__.
 72
65
 73
6
 40
22.2250000000000014
 49
6.3499999999999996
 74
0
 49
-3.1749999999999998
 74
0
 49
6.3499999999999996
 74
0
 49
-3.125
 74
0
 49
0.1
 74
0
 49
-3.125
 74
0
  0
ENDTAB
  0
TABLE
  2
LAYER
  5
2
100
AcDbSymbolTable
 70
7
  0
LAYER
  5
10
100
AcDbSymbolTableRecord
100
AcDbLayerTableRecord
  2
0
 70
0
 62
7
420
16777215
  6
Continuous
370
25
390
F
  0
LAYER
  5
57
100
AcDbSymbolTableRecord
100
AcDbLayerTableRecord
  2
Referencias 2
 70
0
 62
3
420
65280
  6
Continuous
370
25
390
F
  0
LAYER
  5
58
100
AcDbSymbolTableRecord
100
AcDbLayerTableRecord
  2
Contornos Visibles
 70
0
 62
7
420
16777215
  6
Continuous
370
50
390
F
  0
LAYER
  5
59
100
AcDbSymbolTableRecord
100
AcDbLayerTableRecord
  2
Referencias
 70
0
 62
2
420
16776960
  6
Continuous
370
25
390
F
  0
LAYER
  5
5A
100
AcDbSymbolTableRecord
100
AcDbLayerTableRecord
  2
Ejes de revoluci\U+00f3n
 70
0
 62
6
420
16711935
  6
ACAD_ISO04W100
370
20
390
F
  0
LAYER
  5
5B
100
AcDbSymbolTableRecord
100
AcDbLayerTableRecord
  2
Contornos Ocultos
 70
0
 62
252
420
10526884
  6
ACAD_ISO02W100
370
30
390
F
  0
LAYER
  5
5C
100
AcDbSymbolTableRecord
100
AcDbLayerTableRecord
  2
Cotas
 70
0
 62
1
420
16711680
  6
Continuous
370
20
390
F
  0
ENDTAB
  0
TABLE
  2
STYLE
  5
3
100
AcDbSymbolTable
 70
7
  0
STYLE
  5
5D
100
AcDbSymbolTableRecord
100
AcDbTextStyleTableRecord
  2
Standard
 70
0
 40
0.0
 41
1.0
 50
0.0
 71
0
 42
2.5
  3

  4

1001
ACAD
1000
txt
1071
0
  0
STYLE
  5
5E
100
AcDbSymbolTableRecord
100
AcDbTextStyleTableRecord
  2
textstyle0
 70
0
 40
0.0
 41
1.0
 50
0.0
 71
0
 42
1.0
  3

  4

1001
ACAD
1000
Arial
1071
0
  0
STYLE
  5
5F
100
AcDbSymbolTableRecord
100
AcDbTextStyleTableRecord
  2
textstyle1
 70
0
 40
0.0
 41
1.0
 50
0.0
 71
0
 42
1.0
  3

  4

1001
ACAD
1000
Arial
1071
0
  0
STYLE
  5
60
100
AcDbSymbolTableRecord
100
AcDbTextStyleTableRecord
  2
textstyle2
 70
0
 40
0.0
 41
1.0
 50
0.0
 71
0
 42
1.0
  3

  4

1001
ACAD
1000
Arial
1071
0
  0
STYLE
  5
61
100
AcDbSymbolTableRecord
100
AcDbTextStyleTableRecord
  2
textstyle3
 70
0
 40
0.0
 41
1.0
 50
0.0
 71
0
 42
1.0
  3

  4

1001
ACAD
1000
Arial
1071
0
  0
STYLE
  5
62
100
AcDbSymbolTableRecord
100
AcDbTextStyleTableRecord
  2
textstyle4
 70
0
 40
0.0
 41
1.0
 50
0.0
 71
0
 42
1.0
  3

  4

1001
ACAD
1000
Arial
1071
0
  0
STYLE
  5
63
100
AcDbSymbolTableRecord
100
AcDbTextStyleTableRecord
  2
textstyle5
 70
0
 40
0.0
 41
1.0
 50
0.0
 71
0
 42
1.0
  3

  4

1001
ACAD
1000
Arial
1071
0
  0
ENDTAB
  0
TABLE
  2
VIEW
  5
6
100
AcDbSymbolTable
 70
0
  0
ENDTAB
  0
TABLE
  2
UCS
  5
7
100
AcDbSymbolTable
 70
0
  0
ENDTAB
  0
TABLE
  2
APPID
  5
9
100
AcDbSymbolTable
 70
1
  0
APPID
  5
12
100
AcDbSymbolTableRecord
100
AcDbRegAppTableRecord
  2
ACAD
 70
0
  0
APPID
  5
64
100
AcDbSymbolTableRecord
100
AcDbRegAppTableRecord
  2
QCAD
 70
0
  0
ENDTAB
  0
TABLE
  2
DIMSTYLE
  5
A
100
AcDbSymbolTable
 70
1
100
AcDbDimStyleTable
 71
0
  0
DIMSTYLE
105
27
100
AcDbSymbolTableRecord
100
AcDbDimStyleTableRecord
  2
Standard
 41
2.5
 42
0.625
 43
3.75
 44
1.25
 70
0
 73
0
 74
0
 77
1
 78
8
140
2.5
141
2.5
143
0.03937007874016
147
0.625
171
3
172
1
271
2
272
2
274
3
278
44
283
0
284
8
340
5D
  0
ENDTAB
  0
TABLE
  2
BLOCK_RECORD
  5
1
100
AcDbSymbolTable
 70
1
  0
BLOCK_RECORD
  5
1F
100
AcDbSymbolTableRecord
100
AcDbBlockTableRecord
  2
*Model_Space
340
22
  0
BLOCK_RECORD
  5
1B
100
AcDbSymbolTableRecord
100
AcDbBlockTableRecord
  2
*Paper_Space
340
1E
  0
BLOCK_RECORD
  5
23
100
AcDbSymbolTableRecord
100
AcDbBlockTableRecord
  2
*Paper_Space0
340
26
  0
ENDTAB
  0
ENDSEC
  0
SECTION
  2
BLOCKS
  0
BLOCK
  5
20
100
AcDbEntity
  8
0
100
AcDbBlockBegin
  2
*Model_Space
 70
0
 10
0.0
 20
0.0
 30
0.0
  3
*Model_Space
  1

  0
ENDBLK
  5
21
100
AcDbEntity
  8
0
100
AcDbBlockEnd
  0
BLOCK
  5
1C
100
AcDbEntity
 67
1
  8
0
100
AcDbBlockBegin
  2
*Paper_Space
 70
0
 10
0.0
 20
0.0
 30
0.0
  3
*Paper_Space
  1

  0
ENDBLK
  5
1D
100
AcDbEntity
 67
1
  8
0
100
AcDbBlockEnd
  0
BLOCK
  5
24
100
AcDbEntity
  8
0
100
AcDbBlockBegin
  2
*Paper_Space0
 70
0
 10
0.0
 20
0.0
 30
0.0
  3
*Paper_Space0
  1

  0
ENDBLK
  5
25
100
AcDbEntity
  8
0
100
AcDbBlockEnd
  0
ENDSEC
  0
SECTION
  2
ENTITIES
  0
IMAGE
  5
65
100
AcDbEntity
  8
0
 62
256
370
-1
 48
1.0
  6
BYLAYER
100
AcDbRasterImage
 90
0
 10
2996.991883461170346
 20
674.7039997427807521
 30
0.0
 11
0.09765625
 21
0.0
 31
0.0
 12
0.0
 22
0.09765625
 32
0.0
 13
200.0
 23
141.0
340
66
 70
15
280
0
281
50
282
50
283
0
  0
CIRCLE
  5
67
100
AcDbEntity
  8
Contornos Visibles
 62
256
370
-1
 48
1.0
  6
BYLAYER
100
AcDbCircle
 10
3348.6307664694822961
 20
746.2351033205172826
 30
0.0
 40
3.4000000000000909
  0
LINE
  5
68
100
AcDbEntity
  8
Contornos Visibles
 62
256
370
-1
 48
1.0
  6
BYLAYER
100
AcDbLine
 10
3345.0731546249071471
 20
738.4851033205172826
 30
0.0
 11
3352.1883783140578998
 21
738.4851033205172826
 31
0.0
  0
LINE
  5
69
100
AcDbEntity
  8
Contornos Visibles
 62
256
370
-1
 48
1.0
  6
BYLAYER
100
AcDbLine
 10
3356.3807664694822961
 20
742.6774914759421335
 30
0.0
 11
3356.3807664694822961
 21
749.7927151650928863
 31
0.0
  0
LINE
  5
6A
100
AcDbEntity
  8
Contornos Visibles
 62
256
370
-1
 48
1.0
  6
BYLAYER
100
AcDbLine
 10
3352.1883783140569903
 20
753.9851033205172826
 30
0.0
 11
3345.0731546249071471
 21
753.9851033205172826
 31
0.0
  0
LINE
  5
6B
100
AcDbEntity
  8
Contornos Visibles
 62
256
370
-1
 48
1.0
  6
BYLAYER
100
AcDbLine
 10
3340.8807664694827508
 20
749.7927151650922042
 30
0.0
 11
3340.8807664694822961
 21
742.6774914759423609
 31
0.0
  0
LINE
  5
6C
100
AcDbEntity
  8
Contornos Visibles
 62
256
370
-1
 48
1.0
  6
BYLAYER
100
AcDbLine
 10
3345.0731546249076018
 20
738.4851033205177373
 30
0.0
 11
3352.1883783140574451
 21
738.4851033205177373
 31
0.0
  0
LINE
  5
6D
100
AcDbEntity
  8
Contornos Visibles
 62
256
370
-1
 48
1.0
  6
BYLAYER
100
AcDbLine
 10
3356.3807664694818413
 20
742.6774914759425883
 30
0.0
 11
3356.3807664694818413
 21
749.7927151650924316
 31
0.0
  0
LINE
  5
6E
100
AcDbEntity
  8
Contornos Visibles
 62
256
370
-1
 48
1.0
  6
BYLAYER
100
AcDbLine
 10
3340.8807664694822961
 20
749.7927151650923179
 30
0.0
 11
3340.8807664694822961
 21
742.6774914759425883
 31
0.0
  0
LINE
  5
6F
100
AcDbEntity
  8
Contornos Visibles
 62
256
370
-1
 48
1.0
  6
BYLAYER
100
AcDbLine
 10
3343.1307664694822961
 20
766.2351033205172826
 30
0.0
 11
3332.6307664694822961
 21
766.2351033205172826
 31
0.0
  0
LINE
  5
70
100
AcDbEntity
  8
Contornos Visibles
 62
256
370
-1
 48
1.0
  6
BYLAYER
100
AcDbLine
 10
3364.6307664694822961
 20
766.2351033205172826
 30
0.0
 11
3354.1307664694822961
 21
766.2351033205172826
 31
0.0
  0
LINE
  5
71
100
AcDbEntity
  8
Contornos Visibles
 62
256
370
-1
 48
1.0
  6
BYLAYER
100
AcDbLine
 10
3328.6307664694822961
 20
762.2351033205175099
 30
0.0
 11
3328.6307664694827508
 21
751.7351033205175099
 31
0.0
  0
LINE
  5
72
100
AcDbEntity
  8
Contornos Visibles
 62
256
370
-1
 48
1.0
  6
BYLAYER
100
AcDbLine
 10
3328.6307664694822961
 20
740.7351033205175099
 30
0.0
 11
3328.6307664694822961
 21
730.2351033205175099
 31
0.0
  0
LINE
  5
73
100
AcDbEntity
  8
Contornos Visibles
 62
256
370
-1
 48
1.0
  6
BYLAYER
100
AcDbLine
 10
3332.6307664694822961
 20
726.2351033205177373
 30
0.0
 11
3343.1307664694822961
 21
726.2351033205177373
 31
0.0
  0
LINE
  5
74
100
AcDbEntity
  8
Contornos Visibles
 62
256
370
-1
 48
1.0
  6
BYLAYER
100
AcDbLine
 10
3354.1307664694822961
 20
726.2351033205177373
 30
0.0
 11
3364.6307664694822961
 21
726.2351033205177373
 31
0.0
  0
LINE
  5
75
100
AcDbEntity
  8
Contornos Visibles
 62
256
370
-1
 48
1.0
  6
BYLAYER
100
AcDbLine
 10
3368.6307664694827508
 20
730.2351033205172826
 30
0.0
 11
3368.6307664694822961
 21
762.2351033205175099
 31
0.0
  0
ARC
  5
76
100
AcDbEntity
  8
Contornos Visibles
 62
256
370
-1
 48
1.0
  6
BYLAYER
100
AcDbCircle
 10
3332.6307664694822961
 20
730.2351033205172826
 30
0.0
 40
4.0
100
AcDbArc
 50
180.0
 51
270.0
  0
ARC
  5
77
100
AcDbEntity
  8
Contornos Visibles
 62
256
370
-1
 48
1.0
  6
BYLAYER
100
AcDbCircle
 10
3364.6307664694827508
 20
730.2351033205172826
 30
0.0
 40
4.0
100
AcDbArc
 50
270.0
 51
0.0
  0
ARC
  5
78
100
AcDbEntity
  8
Contornos Visibles
 62
256
370
-1
 48
1.0
  6
BYLAYER
100
AcDbCircle
 10
3364.6307664694822961
 20
762.2351033205172826
 30
0.0
 40
4.0
100
AcDbArc
 50
0.0
 51
90.0
  0
ARC
  5
79
100
AcDbEntity
  8
Contornos Visibles
 62
256
370
-1
 48
1.0
  6
BYLAYER
100
AcDbCircle
 10
3332.6307664694822961
 20
762.2351033205172826
 30
0.0
 40
4.0
100
AcDbArc
 50
90.0
 51
180.0
  0
LINE
  5
7A
100
AcDbEntity
  8
Contornos Visibles
 62
256
370
-1
 48
1.0
  6
BYLAYER
100
AcDbLine
 10
3344.6307664694822961
 20
764.7351033205172826
 30
0.0
 11
3344.6307664694822961
 21
762.7351033205172826
 31
0.0
  0
LINE
  5
7B
100
AcDbEntity
  8
Contornos Visibles
 62
256
370
-1
 48
1.0
  6
BYLAYER
100
AcDbLine
 10
3330.1307664694822961
 20
742.2351033205175099
 30
0.0
 11
3332.1307664694822961
 21
742.2351033205175099
 31
0.0
  0
LINE
  5
7C
100
AcDbEntity
  8
Contornos Visibles
 62
256
370
-1
 48
1.0
  6
BYLAYER
100
AcDbLine
 10
3352.6307664694822961
 20
727.7351033205177373
 30
0.0
 11
3352.6307664694822961
 21
729.7351033205177373
 31
0.0
  0
LINE
  5
7D
100
AcDbEntity
  8
Contornos Visibles
 62
256
370
-1
 48
1.0
  6
BYLAYER
100
AcDbLine
 10
3352.6307664694822961
 20
764.7351033205172826
 30
0.0
 11
3352.6307664694822961
 21
762.7351033205172826
 31
0.0
  0
LINE
  5
7E
100
AcDbEntity
  8
Contornos Visibles
 62
256
370
-1
 48
1.0
  6
BYLAYER
100
AcDbLine
 10
3330.1307664694822961
 20
750.2351033205175099
 30
0.0
 11
3332.1307664694822961
 21
750.2351033205175099
 31
0.0
  0
LINE
  5
7F
100
AcDbEntity
  8
Contornos Visibles
 62
256
370
-1
 48
1.0
  6
BYLAYER
100
AcDbLine
 10
3344.6307664694822961
 20
727.7351033205177373
 30
0.0
 11
3344.6307664694822961
 21
729.7351033205177373
 31
0.0
  0
ARC
  5
80
100
AcDbEntity
  8
Contornos Visibles
 62
256
370
-1
 48
1.0
  6
BYLAYER
100
AcDbCircle
 10
3343.1307664694822961
 20
764.7351033205172826
 30
0.0
 40
1.5
100
AcDbArc
 50
0.0
 51
90.0
  0
ARC
  5
81
100
AcDbEntity
  8
Contornos Visibles
 62
256
370
-1
 48
1.0
  6
BYLAYER
100
AcDbCircle
 10
3330.1307664694822961
 20
740.7351033205175099
 30
0.0
 40
1.5
100
AcDbArc
 50
90.0
 51
180.0
  0
ARC
  5
82
100
AcDbEntity
  8
Contornos Visibles
 62
256
370
-1
 48
1.0
  6
BYLAYER
100
AcDbCircle
 10
3354.1307664694822961
 20
727.7351033205177373
 30
0.0
 40
1.5
100
AcDbArc
 50
180.0
 51
270.0
  0
ARC
  5
83
100
AcDbEntity
  8
Contornos Visibles
 62
256
370
-1
 48
1.0
  6
BYLAYER
100
AcDbCircle
 10
3354.1307664694822961
 20
764.7351033205172826
 30
0.0
 40
1.5
100
AcDbArc
 50
90.0
 51
180.0
  0
ARC
  5
84
100
AcDbEntity
  8
Contornos Visibles
 62
256
370
-1
 48
1.0
  6
BYLAYER
100
AcDbCircle
 10
3330.1307664694822961
 20
751.7351033205175099
 30
0.0
 40
1.5
100
AcDbArc
 50
180.0
 51
270.0
  0
ARC
  5
85
100
AcDbEntity
  8
Contornos Visibles
 62
256
370
-1
 48
1.0
  6
BYLAYER
100
AcDbCircle
 10
3343.1307664694822961
 20
727.7351033205177373
 30
0.0
 40
1.5
100
AcDbArc
 50
270.0
 51
0.0
  0
LINE
  5
86
100
AcDbEntity
  8
Contornos Visibles
 62
256
370
-1
 48
1.0
  6
BYLAYER
100
AcDbLine
 10
3355.6307664694822961
 20
762.2351033205172826
 30
0.0
 11
3355.6307664694822961
 21
763.7851033205172371
 31
0.0
  0
LINE
  5
87
100
AcDbEntity
  8
Contornos Visibles
 62
256
370
-1
 48
1.0
  6
BYLAYER
100
AcDbLine
 10
3332.6307664694822961
 20
753.2351033205175099
 30
0.0
 11
3331.0807664694825689
 21
753.2351033205175099
 31
0.0
  0
LINE
  5
88
100
AcDbEntity
  8
Contornos Visibles
 62
256
370
-1
 48
1.0
  6
BYLAYER
100
AcDbLine
 10
3341.6307664694822961
 20
730.2351033205177373
 30
0.0
 11
3341.6307664694822961
 21
728.6851033205177828
 31
0.0
  0
LINE
  5
89
100
AcDbEntity
  8
Contornos Visibles
 62
256
370
-1
 48
1.0
  6
BYLAYER
100
AcDbLine
 10
3341.6307664694822961
 20
762.2351033205172826
 30
0.0
 11
3341.6307664694822961
 21
763.7844934737091762
 31
0.0
  0
LINE
  5
8A
100
AcDbEntity
  8
Contornos Visibles
 62
256
370
-1
 48
1.0
  6
BYLAYER
100
AcDbLine
 10
3332.6307664694822961
 20
739.2351033205175099
 30
0.0
 11
3331.0813763162905161
 21
739.2351033205175099
 31
0.0
  0
LINE
  5
8B
100
AcDbEntity
  8
Contornos Visibles
 62
256
370
-1
 48
1.0
  6
BYLAYER
100
AcDbLine
 10
3355.6307664694822961
 20
730.2351033205177373
 30
0.0
 11
3355.6307664694822961
 21
728.6857131673258436
 31
0.0
  0
LINE
  5
8C
100
AcDbEntity
  8
Contornos Visibles
 62
256
370
-1
 48
1.0
  6
BYLAYER
100
AcDbLine
 10
3364.6307664694818413
 20
753.2351033205172826
 30
0.0
 11
3366.1307664694818413
 21
753.2351033205172826
 31
0.0
  0
LINE
  5
8D
100
AcDbEntity
  8
Contornos Visibles
 62
256
370
-1
 48
1.0
  6
BYLAYER
100
AcDbLine
 10
3364.6307664694818413
 20
739.2351033205172826
 30
0.0
 11
3366.1307664694818413
 21
739.2351033205172826
 31
0.0
  0
LINE
  5
8E
100
AcDbEntity
  8
Contornos Visibles
 62
256
370
-1
 48
1.0
  6
BYLAYER
100
AcDbLine
 10
3343.6307664694818413
 20
761.7351033205172826
 30
0.0
 11
3342.1307664694827508
 21
761.7351033205172826
 31
0.0
  0
LINE
  5
8F
100
AcDbEntity
  8
Contornos Visibles
 62
256
370
-1
 48
1.0
  6
BYLAYER
100
AcDbLine
 10
3333.1307664694822961
 20
741.2351033205170552
 30
0.0
 11
3333.1307664694822961
 21
739.7351033205179647
 31
0.0
  0
LINE
  5
90
100
AcDbEntity
  8
Contornos Visibles
 62
256
370
-1
 48
1.0
  6
BYLAYER
100
AcDbLine
 10
3353.6307664694827508
 20
730.7351033205177373
 30
0.0
 11
3355.1307664694818413
 21
730.7351033205177373
 31
0.0
  0
LINE
  5
91
100
AcDbEntity
  8
Contornos Visibles
 62
256
370
-1
 48
1.0
  6
BYLAYER
100
AcDbLine
 10
3364.1307664694818413
 20
751.2351033205177373
 30
0.0
 11
3364.1307664694818413
 21
752.7351033205168278
 31
0.0
  0
LINE
  5
92
100
AcDbEntity
  8
Contornos Visibles
 62
256
370
-1
 48
1.0
  6
BYLAYER
100
AcDbLine
 10
3353.6307664694822961
 20
761.7351033205172826
 30
0.0
 11
3355.1307664694822961
 21
761.7351033205172826
 31
0.0
  0
LINE
  5
93
100
AcDbEntity
  8
Contornos Visibles
 62
256
370
-1
 48
1.0
  6
BYLAYER
100
AcDbLine
 10
3333.1307664694827508
 20
751.2351033205175099
 30
0.0
 11
3333.1307664694822961
 21
752.7351033205175099
 31
0.0
  0
LINE
  5
94
100
AcDbEntity
  8
Contornos Visibles
 62
256
370
-1
 48
1.0
  6
BYLAYER
100
AcDbLine
 10
3343.6307664694822961
 20
730.7351033205177373
 30
0.0
 11
3342.1307664694822961
 21
730.7351033205177373
 31
0.0
  0
LINE
  5
95
100
AcDbEntity
  8
Contornos Visibles
 62
256
370
-1
 48
1.0
  6
BYLAYER
100
AcDbLine
 10
3364.1307664694818413
 20
741.2351033205172826
 30
0.0
 11
3364.1307664694818413
 21
739.7351033205172826
 31
0.0
  0
ARC
  5
96
100
AcDbEntity
  8
Contornos Visibles
 62
256
370
-1
 48
1.0
  6
BYLAYER
100
AcDbCircle
 10
3343.6307664694818413
 20
762.7351033205172826
 30
0.0
 40
1.0
100
AcDbArc
 50
270.0
 51
0.0
  0
ARC
  5
97
100
AcDbEntity
  8
Contornos Visibles
 62
256
370
-1
 48
1.0
  6
BYLAYER
100
AcDbCircle
 10
3332.1307664694822961
 20
741.2351033205170552
 30
0.0
 40
1.0
100
AcDbArc
 50
0.0
 51
90.0
  0
ARC
  5
98
100
AcDbEntity
  8
Contornos Visibles
 62
256
370
-1
 48
1.0
  6
BYLAYER
100
AcDbCircle
 10
3353.6307664694827508
 20
729.7351033205177373
 30
0.0
 40
1.0
100
AcDbArc
 50
90.0
 51
180.0
  0
ARC
  5
99
100
AcDbEntity
  8
Contornos Visibles
 62
256
370
-1
 48
1.0
  6
BYLAYER
100
AcDbCircle
 10
3365.1307664694818413
 20
751.2351033205177373
 30
0.0
 40
1.0
100
AcDbArc
 50
180.0
 51
270.0
  0
ARC
  5
9A
100
AcDbEntity
  8
Contornos Visibles
 62
256
370
-1
 48
1.0
  6
BYLAYER
100
AcDbCircle
 10
3353.6307664694822961
 20
762.7351033205172826
 30
0.0
 40
1.0
100
AcDbArc
 50
180.0
 51
270.0
  0
ARC
  5
9B
100
AcDbEntity
  8
Contornos Visibles
 62
256
370
-1
 48
1.0
  6
BYLAYER
100
AcDbCircle
 10
3332.1307664694822961
 20
751.2351033205175099
 30
0.0
 40
1.0
100
AcDbArc
 50
270.0
 51
0.0
  0
ARC
  5
9C
100
AcDbEntity
  8
Contornos Visibles
 62
256
370
-1
 48
1.0
  6
BYLAYER
100
AcDbCircle
 10
3343.6307664694822961
 20
729.7351033205177373
 30
0.0
 40
1.0
100
AcDbArc
 50
0.0
 51
90.0
  0
ARC
  5
9D
100
AcDbEntity
  8
Contornos Visibles
 62
256
370
-1
 48
1.0
  6
BYLAYER
100
AcDbCircle
 10
3342.1307664694827508
 20
762.2351033205172826
 30
0.0
 40
0.5
100
AcDbArc
 50
180.0
 51
270.0
  0
ARC
  5
9E
100
AcDbEntity
  8
Contornos Visibles
 62
256
370
-1
 48
1.0
  6
BYLAYER
100
AcDbCircle
 10
3332.6307664694822961
 20
739.7351033205179647
 30
0.0
 40
0.5
100
AcDbArc
 50
270.0
 51
0.0
  0
ARC
  5
9F
100
AcDbEntity
  8
Contornos Visibles
 62
256
370
-1
 48
1.0
  6
BYLAYER
100
AcDbCircle
 10
3355.1307664694818413
 20
730.2351033205177373
 30
0.0
 40
0.5
100
AcDbArc
 50
0.0
 51
90.0
  0
ARC
  5
A0
100
AcDbEntity
  8
Contornos Visibles
 62
256
370
-1
 48
1.0
  6
BYLAYER
100
AcDbCircle
 10
3355.1307664694822961
 20
762.2351033205172826
 30
0.0
 40
0.5
100
AcDbArc
 50
270.0
 51
0.0
  0
ARC
  5
A1
100
AcDbEntity
  8
Contornos Visibles
 62
256
370
-1
 48
1.0
  6
BYLAYER
100
AcDbCircle
 10
3332.6307664694827508
 20
752.7351033205175099
 30
0.0
 40
0.5
100
AcDbArc
 50
0.0
 51
90.0
  0
ARC
  5
A2
100
AcDbEntity
  8
Contornos Visibles
 62
256
370
-1
 48
1.0
  6
BYLAYER
100
AcDbCircle
 10
3342.1307664694822961
 20
730.2351033205177373
 30
0.0
 40
0.5
100
AcDbArc
 50
90.0
 51
180.0
  0
ARC
  5
A3
100
AcDbEntity
  8
Contornos Visibles
 62
256
370
-1
 48
1.0
  6
BYLAYER
100
AcDbCircle
 10
3364.6307664694818413
 20
739.7351033205172826
 30
0.0
 40
0.5
100
AcDbArc
 50
180.0
 51
270.0
  0
ARC
  5
A4
100
AcDbEntity
  8
Contornos Visibles
 62
256
370
-1
 48
1.0
  6
BYLAYER
100
AcDbCircle
 10
3356.0807664694821142
 20
763.7851033205172371
 30
0.0
 40
0.45
100
AcDbArc
 50
90.0
 51
180.0
  0
ARC
  5
A5
100
AcDbEntity
  8
Contornos Visibles
 62
256
370
-1
 48
1.0
  6
BYLAYER
100
AcDbCircle
 10
3331.0807664694825689
 20
753.685103320517328
 30
0.0
 40
0.45
100
AcDbArc
 50
180.0
 51
270.0
  0
ARC
  5
A6
100
AcDbEntity
  8
Contornos Visibles
 62
256
370
-1
 48
1.0
  6
BYLAYER
100
AcDbCircle
 10
3341.180766469482478
 20
728.6851033205177828
 30
0.0
 40
0.45
100
AcDbArc
 50
270.0
 51
0.0
  0
ARC
  5
A7
100
AcDbEntity
  8
Contornos Visibles
 62
256
370
-1
 48
1.0
  6
BYLAYER
100
AcDbCircle
 10
3356.1307664694822961
 20
761.7351033205172826
 30
0.0
 40
2.5
100
AcDbArc
 50
0.0
 51
90.0
  0
ARC
  5
A8
100
AcDbEntity
  8
Contornos Visibles
 62
256
370
-1
 48
1.0
  6
BYLAYER
100
AcDbCircle
 10
3333.1307664694822961
 20
753.7351033205175099
 30
0.0
 40
2.5
100
AcDbArc
 50
90.0
 51
180.0
  0
ARC
  5
A9
100
AcDbEntity
  8
Contornos Visibles
 62
256
370
-1
 48
1.0
  6
BYLAYER
100
AcDbCircle
 10
3341.1307664694822961
 20
730.7351033205177373
 30
0.0
 40
2.5
100
AcDbArc
 50
180.0
 51
270.0
  0
ARC
  5
AA
100
AcDbEntity
  8
Contornos Visibles
 62
256
370
-1
 48
1.0
  6
BYLAYER
100
AcDbCircle
 10
3364.1307664694818413
 20
738.7351033205172826
 30
0.0
 40
2.5
100
AcDbArc
 50
270.0
 51
0.0
  0
LINE
  5
AB
100
AcDbEntity
  8
Contornos Visibles
 62
256
370
-1
 48
1.0
  6
BYLAYER
100
AcDbLine
 10
3338.6307664694822961
 20
761.7351033205172826
 30
0.0
 11
3338.6307664694822961
 21
761.7351033205172826
 31
0.0
  0
LINE
  5
AC
100
AcDbEntity
  8
Contornos Visibles
 62
256
370
-1
 48
1.0
  6
BYLAYER
100
AcDbLine
 10
3333.1307664694822961
 20
736.2351033205175099
 30
0.0
 11
3333.1307664694822961
 21
736.2351033205175099
 31
0.0
  0
LINE
  5
AD
100
AcDbEntity
  8
Contornos Visibles
 62
256
370
-1
 48
1.0
  6
BYLAYER
100
AcDbLine
 10
3358.6307664694822961
 20
730.7351033205177373
 30
0.0
 11
3358.6307664694822961
 21
730.7351033205177373
 31
0.0
  0
LINE
  5
AE
100
AcDbEntity
  8
Contornos Visibles
 62
256
370
-1
 48
1.0
  6
BYLAYER
100
AcDbLine
 10
3364.1307664694818413
 20
756.2351033205172826
 30
0.0
 11
3364.1307664694818413
 21
756.2351033205172826
 31
0.0
  0
ARC
  5
AF
100
AcDbEntity
  8
Contornos Visibles
 62
256
370
-1
 48
1.0
  6
BYLAYER
100
AcDbCircle
 10
3341.1307664694827508
 20
761.7351033205172826
 30
0.0
 40
2.5
100
AcDbArc
 50
88.6024033717662007
 51
180.0
  0
ARC
  5
B0
100
AcDbEntity
  8
Contornos Visibles
 62
256
370
-1
 48
1.0
  6
BYLAYER
100
AcDbCircle
 10
3333.1307664694822961
 20
738.7351033205179647
 30
0.0
 40
2.5
100
AcDbArc
 50
178.6024033717690145
 51
270.0
  0
ARC
  5
B1
100
AcDbEntity
  8
Contornos Visibles
 62
256
370
-1
 48
1.0
  6
BYLAYER
100
AcDbCircle
 10
3356.1307664694818413
 20
730.7351033205177373
 30
0.0
 40
2.5
100
AcDbArc
 50
268.6024033717661723
 51
0.0
  0
ARC
  5
B2
100
AcDbEntity
  8
Contornos Visibles
 62
256
370
-1
 48
1.0
  6
BYLAYER
100
AcDbCircle
 10
3364.1307664694818413
 20
753.7351033205168278
 30
0.0
 40
2.5
100
AcDbArc
 50
0.0
 51
90.0
  0
LINE
  5
B3
100
AcDbEntity
  8
Contornos Visibles
 62
256
370
-1
 48
1.0
  6
BYLAYER
100
AcDbLine
 10
3330.430766469482478
 20
758.5351033205172371
 30
0.0
 11
3330.430766469482478
 21
762.2351033205172826
 31
0.0
  0
LINE
  5
B4
100
AcDbEntity
  8
Contornos Visibles
 62
256
370
-1
 48
1.0
  6
BYLAYER
100
AcDbLine
 10
3330.430766469482478
 20
733.935103320517328
 30
0.0
 11
3330.430766469482478
 21
730.2351033205172826
 31
0.0
  0
LINE
  5
B5
100
AcDbEntity
  8
Contornos Visibles
 62
256
370
-1
 48
1.0
  6
BYLAYER
100
AcDbLine
 10
3366.8307664694821142
 20
758.5351033205171234
 30
0.0
 11
3366.8307664694821142
 21
762.2351033205172826
 31
0.0
  0
LINE
  5
B6
100
AcDbEntity
  8
Contornos Visibles
 62
256
370
-1
 48
1.0
  6
BYLAYER
100
AcDbLine
 10
3366.8307664694821142
 20
733.9351033205174417
 30
0.0
 11
3366.8307664694821142
 21
730.2351033205172826
 31
0.0
  0
LINE
  5
B7
100
AcDbEntity
  8
Contornos Visibles
 62
256
370
-1
 48
1.0
  6
BYLAYER
100
AcDbLine
 10
3330.9307664694820232
 20
758.0351033205171234
 30
0.0
 11
3336.3307664694821142
 21
758.0351033205172371
 31
0.0
  0
LINE
  5
B8
100
AcDbEntity
  8
Contornos Visibles
 62
256
370
-1
 48
1.0
  6
BYLAYER
100
AcDbLine
 10
3330.9307664694820232
 20
734.4351033205174417
 30
0.0
 11
3336.3307664694821142
 21
734.435103320517328
 31
0.0
  0
LINE
  5
B9
100
AcDbEntity
  8
Contornos Visibles
 62
256
370
-1
 48
1.0
  6
BYLAYER
100
AcDbLine
 10
3336.8307664694821142
 20
758.5351033205172371
 30
0.0
 11
3336.8307664694821142
 21
763.935103320517328
 31
0.0
  0
LINE
  5
BA
100
AcDbEntity
  8
Contornos Visibles
 62
256
370
-1
 48
1.0
  6
BYLAYER
100
AcDbLine
 10
3336.8307664694821142
 20
733.935103320517328
 30
0.0
 11
3336.8307664694821142
 21
728.5351033205172371
 31
0.0
  0
LINE
  5
BB
100
AcDbEntity
  8
Contornos Visibles
 62
256
370
-1
 48
1.0
  6
BYLAYER
100
AcDbLine
 10
3336.3307664694821142
 20
764.435103320517328
 30
0.0
 11
3332.6307664694822961
 21
764.435103320517328
 31
0.0
  0
LINE
  5
BC
100
AcDbEntity
  8
Contornos Visibles
 62
256
370
-1
 48
1.0
  6
BYLAYER
100
AcDbLine
 10
3336.3307664694821142
 20
728.0351033205172371
 30
0.0
 11
3332.6307664694822961
 21
728.0351033205172371
 31
0.0
  0
LINE
  5
BD
100
AcDbEntity
  8
Contornos Visibles
 62
256
370
-1
 48
1.0
  6
BYLAYER
100
AcDbLine
 10
3366.3307664694816594
 20
758.0351033205172371
 30
0.0
 11
3360.930766469482478
 21
758.0351033205172371
 31
0.0
  0
LINE
  5
BE
100
AcDbEntity
  8
Contornos Visibles
 62
256
370
-1
 48
1.0
  6
BYLAYER
100
AcDbLine
 10
3366.3307664694816594
 20
734.435103320517328
 30
0.0
 11
3360.930766469482478
 21
734.435103320517328
 31
0.0
  0
LINE
  5
BF
100
AcDbEntity
  8
Contornos Visibles
 62
256
370
-1
 48
1.0
  6
BYLAYER
100
AcDbLine
 10
3360.430766469482478
 20
758.5351033205172371
 30
0.0
 11
3360.430766469482478
 21
763.935103320517328
 31
0.0
  0
LINE
  5
C0
100
AcDbEntity
  8
Contornos Visibles
 62
256
370
-1
 48
1.0
  6
BYLAYER
100
AcDbLine
 10
3360.430766469482478
 20
733.935103320517328
 30
0.0
 11
3360.430766469482478
 21
728.5351033205172371
 31
0.0
  0
LINE
  5
C1
100
AcDbEntity
  8
Contornos Visibles
 62
256
370
-1
 48
1.0
  6
BYLAYER
100
AcDbLine
 10
3360.930766469482478
 20
764.435103320517328
 30
0.0
 11
3364.6307664694822961
 21
764.435103320517328
 31
0.0
  0
LINE
  5
C2
100
AcDbEntity
  8
Contornos Visibles
 62
256
370
-1
 48
1.0
  6
BYLAYER
100
AcDbLine
 10
3360.930766469482478
 20
728.0351033205172371
 30
0.0
 11
3364.6307664694822961
 21
728.0351033205172371
 31
0.0
  0
ARC
  5
C3
100
AcDbEntity
  8
Contornos Visibles
 62
256
370
-1
 48
1.0
  6
BYLAYER
100
AcDbCircle
 10
3332.6307664694822961
 20
762.2351033205172826
 30
0.0
 40
2.2000000000000002
100
AcDbArc
 50
90.0
 51
180.0
  0
ARC
  5
C4
100
AcDbEntity
  8
Contornos Visibles
 62
256
370
-1
 48
1.0
  6
BYLAYER
100
AcDbCircle
 10
3332.6307664694822961
 20
730.2351033205172826
 30
0.0
 40
2.2000000000000002
100
AcDbArc
 50
180.0
 51
270.0
  0
ARC
  5
C5
100
AcDbEntity
  8
Contornos Visibles
 62
256
370
-1
 48
1.0
  6
BYLAYER
100
AcDbCircle
 10
3364.6307664694822961
 20
762.2351033205172826
 30
0.0
 40
2.2000000000000002
100
AcDbArc
 50
0.0
 51
90.0
  0
ARC
  5
C6
100
AcDbEntity
  8
Contornos Visibles
 62
256
370
-1
 48
1.0
  6
BYLAYER
100
AcDbCircle
 10
3364.6307664694822961
 20
730.2351033205172826
 30
0.0
 40
2.2000000000000002
100
AcDbArc
 50
270.0
 51
0.0
  0
ARC
  5
C7
100
AcDbEntity
  8
Contornos Visibles
 62
256
370
-1
 48
1.0
  6
BYLAYER
100
AcDbCircle
 10
3360.930766469482478
 20
763.935103320517328
 30
0.0
 40
0.5
100
AcDbArc
 50
90.0
 51
180.0
  0
ARC
  5
C8
100
AcDbEntity
  8
Contornos Visibles
 62
256
370
-1
 48
1.0
  6
BYLAYER
100
AcDbCircle
 10
3360.930766469482478
 20
728.5351033205172371
 30
0.0
 40
0.5
100
AcDbArc
 50
180.0
 51
270.0
  0
ARC
  5
C9
100
AcDbEntity
  8
Contornos Visibles
 62
256
370
-1
 48
1.0
  6
BYLAYER
100
AcDbCircle
 10
3336.3307664694821142
 20
763.935103320517328
 30
0.0
 40
0.5
100
AcDbArc
 50
0.0
 51
90.0
  0
ARC
  5
CA
100
AcDbEntity
  8
Contornos Visibles
 62
256
370
-1
 48
1.0
  6
BYLAYER
100
AcDbCircle
 10
3336.3307664694821142
 20
728.5351033205172371
 30
0.0
 40
0.5
100
AcDbArc
 50
270.0
 51
0.0
  0
ARC
  5
CB
100
AcDbEntity
  8
Contornos Visibles
 62
256
370
-1
 48
1.0
  6
BYLAYER
100
AcDbCircle
 10
3330.9307664694820232
 20
758.5351033205172371
 30
0.0
 40
0.5
100
AcDbArc
 50
180.0
 51
270.0
  0
ARC
  5
CC
100
AcDbEntity
  8
Contornos Visibles
 62
256
370
-1
 48
1.0
  6
BYLAYER
100
AcDbCircle
 10
3330.9307664694820232
 20
733.935103320517328
 30
0.0
 40
0.5
100
AcDbArc
 50
90.0000000000000142
 51
180.0
  0
ARC
  5
CD
100
AcDbEntity
  8
Contornos Visibles
 62
256
370
-1
 48
1.0
  6
BYLAYER
100
AcDbCircle
 10
3336.3307664694821142
 20
758.5351033205172371
 30
0.0
 40
0.5
100
AcDbArc
 50
270.0
 51
0.0
  0
ARC
  5
CE
100
AcDbEntity
  8
Contornos Visibles
 62
256
370
-1
 48
1.0
  6
BYLAYER
100
AcDbCircle
 10
3336.3307664694821142
 20
733.935103320517328
 30
0.0
 40
0.5
100
AcDbArc
 50
0.0
 51
90.0000000000000142
  0
ARC
  5
CF
100
AcDbEntity
  8
Contornos Visibles
 62
256
370
-1
 48
1.0
  6
BYLAYER
100
AcDbCircle
 10
3360.930766469482478
 20
758.5351033205172371
 30
0.0
 40
0.5
100
AcDbArc
 50
180.0
 51
270.0
  0
ARC
  5
D0
100
AcDbEntity
  8
Contornos Visibles
 62
256
370
-1
 48
1.0
  6
BYLAYER
100
AcDbCircle
 10
3360.930766469482478
 20
733.935103320517328
 30
0.0
 40
0.5
100
AcDbArc
 50
90.0000000000000142
 51
180.0
  0
ARC
  5
D1
100
AcDbEntity
  8
Contornos Visibles
 62
256
370
-1
 48
1.0
  6
BYLAYER
100
AcDbCircle
 10
3366.3307664694816594
 20
758.5351033205171234
 30
0.0
 40
0.5
100
AcDbArc
 50
270.0
 51
0.0
  0
ARC
  5
D2
100
AcDbEntity
  8
Contornos Visibles
 62
256
370
-1
 48
1.0
  6
BYLAYER
100
AcDbCircle
 10
3366.3307664694816594
 20
733.9351033205174417
 30
0.0
 40
0.5
100
AcDbArc
 50
0.0
 51
90.0000000000000142
  0
LINE
  5
D3
100
AcDbEntity
  8
Contornos Visibles
 62
256
370
-1
 48
1.0
  6
BYLAYER
100
AcDbLine
 10
3355.7239122199898702
 20
755.4495694145847438
 30
0.0
 11
3357.1663003754151759
 21
756.8919575700102769
 31
0.0
  0
LINE
  5
D4
100
AcDbEntity
  8
Contornos Visibles
 62
256
370
-1
 48
1.0
  6
BYLAYER
100
AcDbLine
 10
3339.4163003754151759
 20
753.328249071025084
 30
0.0
 11
3337.9739122199894155
 21
754.7706372264503898
 31
0.0
  0
LINE
  5
D5
100
AcDbEntity
  8
Contornos Visibles
 62
256
370
-1
 48
1.0
  6
BYLAYER
100
AcDbLine
 10
3341.537620718974722
 20
737.0206372264502761
 30
0.0
 11
3340.0952325635494162
 21
735.578249071024743
 31
0.0
  0
LINE
  5
D6
100
AcDbEntity
  8
Contornos Visibles
 62
256
370
-1
 48
1.0
  6
BYLAYER
100
AcDbLine
 10
3357.8452325635494162
 20
739.1419575700097084
 30
0.0
 11
3359.287620718974722
 21
737.6995694145844027
 31
0.0
  0
LINE
  5
D7
100
AcDbEntity
  8
Contornos Visibles
 62
256
370
-1
 48
1.0
  6
BYLAYER
100
AcDbLine
 10
3341.537620718974722
 20
755.4495694145845164
 30
0.0
 11
3340.095232563549871
 21
756.8919575700092537
 31
0.0
  0
LINE
  5
D8
100
AcDbEntity
  8
Contornos Visibles
 62
256
370
-1
 48
1.0
  6
BYLAYER
100
AcDbLine
 10
3339.4163003754151759
 20
739.1419575700099358
 30
0.0
 11
3337.9739122199907797
 21
737.6995694145850848
 31
0.0
  0
LINE
  5
D9
100
AcDbEntity
  8
Contornos Visibles
 62
256
370
-1
 48
1.0
  6
BYLAYER
100
AcDbLine
 10
3355.7239122199898702
 20
737.0206372264505035
 30
0.0
 11
3357.1663003754147212
 21
735.5782490710257662
 31
0.0
  0
LINE
  5
DA
100
AcDbEntity
  8
Contornos Visibles
 62
256
370
-1
 48
1.0
  6
BYLAYER
100
AcDbLine
 10
3357.8452325635489615
 20
753.3282490710248567
 30
0.0
 11
3359.2876207189738125
 21
754.7706372264497077
 31
0.0
  0
ARC
  5
DB
100
AcDbEntity
  8
Contornos Visibles
 62
256
370
-1
 48
1.0
  6
BYLAYER
100
AcDbCircle
 10
3352.1883783140578998
 20
733.4851033205172826
 30
0.0
 40
5.0
100
AcDbArc
 50
44.999999999997236
 51
90.0
  0
ARC
  5
DC
100
AcDbEntity
  8
Contornos Visibles
 62
256
370
-1
 48
1.0
  6
BYLAYER
100
AcDbCircle
 10
3361.3807664694822961
 20
749.7927151650928863
 30
0.0
 40
5.0
100
AcDbArc
 50
134.9999999999972431
 51
180.0
  0
ARC
  5
DD
100
AcDbEntity
  8
Contornos Visibles
 62
256
370
-1
 48
1.0
  6
BYLAYER
100
AcDbCircle
 10
3345.0731546249071471
 20
733.4851033205171689
 30
0.0
 40
5.0
100
AcDbArc
 50
90.0
 51
134.9999999999972431
  0
ARC
  5
DE
100
AcDbEntity
  8
Contornos Visibles
 62
256
370
-1
 48
1.0
  6
BYLAYER
100
AcDbCircle
 10
3361.3807664694822961
 20
742.6774914759421335
 30
0.0
 40
5.0
100
AcDbArc
 50
180.0
 51
224.9999999999972431
  0
ARC
  5
DF
100
AcDbEntity
  8
Contornos Visibles
 62
256
370
-1
 48
1.0
  6
BYLAYER
100
AcDbCircle
 10
3335.8807664694822961
 20
742.6774914759425883
 30
0.0
 40
5.0
100
AcDbArc
 50
315.0000000000027853
 51
0.0
  0
ARC
  5
E0
100
AcDbEntity
  8
Contornos Visibles
 62
256
370
-1
 48
1.0
  6
BYLAYER
100
AcDbCircle
 10
3335.8807664694827508
 20
749.7927151650923179
 30
0.0
 40
5.0
100
AcDbArc
 50
0.0
 51
44.999999999997236
  0
ARC
  5
E1
100
AcDbEntity
  8
Contornos Visibles
 62
256
370
-1
 48
1.0
  6
BYLAYER
100
AcDbCircle
 10
3345.0731546249071471
 20
758.9851033205172826
 30
0.0
 40
5.0
100
AcDbArc
 50
225.0000000000018474
 51
270.0
  0
ARC
  5
E2
100
AcDbEntity
  8
Contornos Visibles
 62
256
370
-1
 48
1.0
  6
BYLAYER
100
AcDbCircle
 10
3335.8807664694822961
 20
742.6774914759423609
 30
0.0
 40
5.0
100
AcDbArc
 50
315.000000000001819
 51
0.0
  0
ARC
  5
E3
100
AcDbEntity
  8
Contornos Visibles
 62
256
370
-1
 48
1.0
  6
BYLAYER
100
AcDbCircle
 10
3352.1883783140574451
 20
733.4851033205177373
 30
0.0
 40
5.0
100
AcDbArc
 50
45.0000000000018261
 51
90.0
  0
ARC
  5
E4
100
AcDbEntity
  8
Contornos Visibles
 62
256
370
-1
 48
1.0
  6
BYLAYER
100
AcDbCircle
 10
3361.3807664694818413
 20
749.7927151650924316
 30
0.0
 40
5.0
100
AcDbArc
 50
135.0000000000018474
 51
180.0
  0
ARC
  5
E5
100
AcDbEntity
  8
Contornos Visibles
 62
256
370
-1
 48
1.0
  6
BYLAYER
100
AcDbCircle
 10
3352.1883783140569903
 20
758.9851033205172826
 30
0.0
 40
5.0
100
AcDbArc
 50
270.0
 51
315.0000000000027853
  0
ARC
  5
E6
100
AcDbEntity
  8
Contornos Visibles
 62
256
370
-1
 48
1.0
  6
BYLAYER
100
AcDbCircle
 10
3335.8807664694827508
 20
749.7927151650922042
 30
0.0
 40
5.0
100
AcDbArc
 50
0.0
 51
45.0000000000027498
  0
ARC
  5
E7
100
AcDbEntity
  8
Contornos Visibles
 62
256
370
-1
 48
1.0
  6
BYLAYER
100
AcDbCircle
 10
3345.0731546249076018
 20
733.4851033205177373
 30
0.0
 40
5.0
100
AcDbArc
 50
90.0
 51
135.0000000000027853
  0
ARC
  5
E8
100
AcDbEntity
  8
Contornos Visibles
 62
256
370
-1
 48
1.0
  6
BYLAYER
100
AcDbCircle
 10
3361.3807664694818413
 20
742.6774914759425883
 30
0.0
 40
5.0
100
AcDbArc
 50
180.0
 51
225.0000000000027853
  0
LINE
  5
E9
100
AcDbEntity
  8
Contornos Visibles
 62
256
370
-1
 48
1.0
  6
BYLAYER
100
AcDbLine
 10
3358.6307664694822961
 20
760.4274914759428157
 30
0.0
 11
3358.6307664694822961
 21
761.7351033205172826
 31
0.0
  0
LINE
  5
EA
100
AcDbEntity
  8
Contornos Visibles
 62
256
370
-1
 48
1.0
  6
BYLAYER
100
AcDbLine
 10
3334.4383783140569903
 20
756.2351033205175099
 30
0.0
 11
3333.1307664694822961
 21
756.2351033205175099
 31
0.0
  0
LINE
  5
EB
100
AcDbEntity
  8
Contornos Visibles
 62
256
370
-1
 48
1.0
  6
BYLAYER
100
AcDbLine
 10
3338.6307664694822961
 20
732.0427151650922042
 30
0.0
 11
3338.6307664694822961
 21
730.7351033205177373
 31
0.0
  0
LINE
  5
EC
100
AcDbEntity
  8
Contornos Visibles
 62
256
370
-1
 48
1.0
  6
BYLAYER
100
AcDbLine
 10
3362.8231546249071471
 20
736.2351033205172826
 30
0.0
 11
3364.1307664694818413
 21
736.2351033205172826
 31
0.0
  0
LINE
  5
ED
100
AcDbEntity
  8
Contornos Visibles
 62
256
370
-1
 48
1.0
  6
BYLAYER
100
AcDbLine
 10
3338.6307664694827508
 20
760.4274914759423609
 30
0.0
 11
3338.6307664694827508
 21
761.7351033205172826
 31
0.0
  0
LINE
  5
EE
100
AcDbEntity
  8
Contornos Visibles
 62
256
370
-1
 48
1.0
  6
BYLAYER
100
AcDbLine
 10
3334.4383783140574451
 20
736.2351033205179647
 30
0.0
 11
3333.1307664694822961
 21
736.2351033205179647
 31
0.0
  0
LINE
  5
EF
100
AcDbEntity
  8
Contornos Visibles
 62
256
370
-1
 48
1.0
  6
BYLAYER
100
AcDbLine
 10
3358.6307664694818413
 20
732.0427151650926589
 30
0.0
 11
3358.6307664694818413
 21
730.7351033205177373
 31
0.0
  0
LINE
  5
F0
100
AcDbEntity
  8
Contornos Visibles
 62
256
370
-1
 48
1.0
  6
BYLAYER
100
AcDbLine
 10
3362.8231546249071471
 20
756.2351033205168278
 30
0.0
 11
3364.1307664694818413
 21
756.2351033205168278
 31
0.0
  0
ARC
  5
F1
100
AcDbEntity
  8
Contornos Visibles
 62
256
370
-1
 48
1.0
  6
BYLAYER
100
AcDbCircle
 10
3343.6307664694827508
 20
760.4274914759423609
 30
0.0
 40
5.0
100
AcDbArc
 50
180.0
 51
225.0000000000018474
  0
ARC
  5
F2
100
AcDbEntity
  8
Contornos Visibles
 62
256
370
-1
 48
1.0
  6
BYLAYER
100
AcDbCircle
 10
3334.4383783140574451
 20
741.2351033205179647
 30
0.0
 40
5.0
100
AcDbArc
 50
270.0
 51
315.000000000001819
  0
ARC
  5
F3
100
AcDbEntity
  8
Contornos Visibles
 62
256
370
-1
 48
1.0
  6
BYLAYER
100
AcDbCircle
 10
3353.6307664694818413
 20
732.0427151650926589
 30
0.0
 40
5.0
100
AcDbArc
 50
0.0
 51
45.0000000000018261
  0
ARC
  5
F4
100
AcDbEntity
  8
Contornos Visibles
 62
256
370
-1
 48
1.0
  6
BYLAYER
100
AcDbCircle
 10
3362.8231546249071471
 20
751.2351033205168278
 30
0.0
 40
5.0
100
AcDbArc
 50
90.0
 51
135.0000000000018474
  0
ARC
  5
F5
100
AcDbEntity
  8
Contornos Visibles
 62
256
370
-1
 48
1.0
  6
BYLAYER
100
AcDbCircle
 10
3353.6307664694822961
 20
760.4274914759428157
 30
0.0
 40
5.0
100
AcDbArc
 50
315.0000000000027853
 51
0.0
  0
ARC
  5
F6
100
AcDbEntity
  8
Contornos Visibles
 62
256
370
-1
 48
1.0
  6
BYLAYER
100
AcDbCircle
 10
3334.4383783140569903
 20
751.2351033205175099
 30
0.0
 40
5.0
100
AcDbArc
 50
45.0000000000027498
 51
90.0
  0
ARC
  5
F7
100
AcDbEntity
  8
Contornos Visibles
 62
256
370
-1
 48
1.0
  6
BYLAYER
100
AcDbCircle
 10
3343.6307664694822961
 20
732.0427151650922042
 30
0.0
 40
5.0
100
AcDbArc
 50
135.0000000000027853
 51
180.0
  0
ARC
  5
F8
100
AcDbEntity
  8
Contornos Visibles
 62
256
370
-1
 48
1.0
  6
BYLAYER
100
AcDbCircle
 10
3362.8231546249071471
 20
741.2351033205172826
 30
0.0
 40
5.0
100
AcDbArc
 50
225.0000000000027853
 51
270.0
  0
LINE
  5
F9
100
AcDbEntity
  8
Contornos Visibles
 62
256
370
-1
 48
1.0
  6
BYLAYER
100
AcDbLine
 10
3366.6307664694818413
 20
749.7351033205173962
 30
0.0
 11
3366.6307664694818413
 21
742.7351033205173962
 31
0.0
  0
LINE
  5
FA
100
AcDbEntity
  8
Contornos Visibles
 62
256
370
-1
 48
1.0
  6
BYLAYER
100
AcDbLine
 10
3366.1307664694818413
 20
742.2351033205173962
 30
0.0
 11
3365.1307664694822961
 21
742.2351033205173962
 31
0.0
  0
LINE
  5
FB
100
AcDbEntity
  8
Contornos Visibles
 62
256
370
-1
 48
1.0
  6
BYLAYER
100
AcDbLine
 10
3366.1307664694822961
 20
750.2351033205173962
 30
0.0
 11
3365.1307664694822961
 21
750.2351033205173962
 31
0.0
  0
ARC
  5
FC
100
AcDbEntity
  8
Contornos Visibles
 62
256
370
-1
 48
1.0
  6
BYLAYER
100
AcDbCircle
 10
3366.1307664694822961
 20
749.7351033205173962
 30
0.0
 40
0.5
100
AcDbArc
 50
0.0
 51
90.0
  0
ARC
  5
FD
100
AcDbEntity
  8
Contornos Visibles
 62
256
370
-1
 48
1.0
  6
BYLAYER
100
AcDbCircle
 10
3366.1307664694818413
 20
742.7351033205173962
 30
0.0
 40
0.5
100
AcDbArc
 50
270.0
 51
0.0
  0
ARC
  5
FE
100
AcDbEntity
  8
Contornos Visibles
 62
256
370
-1
 48
1.0
  6
BYLAYER
100
AcDbCircle
 10
3365.1307664694822961
 20
741.2351033205175099
 30
0.0
 40
1.0
100
AcDbArc
 50
90.0
 51
180.0
  0
ARC
  5
FF
100
AcDbEntity
  8
Contornos Visibles
 62
256
370
-1
 48
1.0
  6
BYLAYER
100
AcDbCircle
 10
3364.6307664694818413
 20
752.7351033205173962
 30
0.0
 40
0.5
100
AcDbArc
 50
90.0
 51
180.0
  0
LINE
  5
100
100
AcDbEntity
  8
Ejes de revoluci\U+00f3n
 62
256
370
-1
 48
1.0
  6
BYLAYER
100
AcDbLine
 10
3320.2307664694822051
 20
746.2351033205172826
 30
0.0
 11
3377.030766469482387
 21
746.2351033205172826
 31
0.0
  0
LINE
  5
101
100
AcDbEntity
  8
Ejes de revoluci\U+00f3n
 62
256
370
-1
 48
1.0
  6
BYLAYER
100
AcDbLine
 10
3348.6307664694822961
 20
717.8351033205171916
 30
0.0
 11
3348.6307664694822961
 21
774.6351033205173735
 31
0.0
  0
DIMENSION
  5
102
100
AcDbEntity
  8
Cotas
 62
256
370
-1
 48
1.0
  6
BYLAYER
100
AcDbDimension
 10
3351.5434077413615341
 20
747.9891046949027213
 30
0.0
 11
3353.0073523111009308
 21
751.2591534141864713
 31
0.0
 70
131
 71
8
 72
2
 74
0
 75
0
 41
1.0
 42
0.0
  1
\U+00f8<>
  3
Standard
100
AcDbDiametricDimension
 15
3345.718125197603058
 25
744.4811019461318438
 35
0.0
 40
0.0
1001
ACAD
1000
DSTYLE
1002
{
1070
279
1070
2
1070
144
1040
1.0
1070
40
1040
0.6
1002
}
  0
DIMENSION
  5
103
100
AcDbEntity
  8
Cotas
 62
256
370
-1
 48
1.0
  6
BYLAYER
100
AcDbDimension
 10
3340.8807664694822961
 20
739.5873068274934212
 30
0.0
 11
3348.6307664694822961
 21
740.7123068274934212
 31
0.0
 70
0
 71
8
 72
2
 74
0
 75
0
 41
1.0
 42
0.0
  1

  3
Standard
100
AcDbAlignedDimension
 13
3340.8807664694822961
 23
742.6774914759420199
 33
0.0
 14
3356.3807664694818413
 24
742.6774914759421335
 34
0.0
 50
0.0
100
AcDbRotatedDimension
1001
ACAD
1000
DSTYLE
1002
{
1070
144
1040
1.0
1070
40
1040
0.6
1002
}
  0
DIMENSION
  5
104
100
AcDbEntity
  8
Cotas
 62
256
370
-1
 48
1.0
  6
BYLAYER
100
AcDbDimension
 10
3344.2593048101412023
 20
753.9851033205172826
 30
0.0
 11
3343.1343048101412023
 21
746.2351033205175099
 31
0.0
 70
0
 71
8
 72
2
 74
0
 75
0
 41
1.0
 42
0.0
  1

  3
Standard
100
AcDbAlignedDimension
 13
3345.0731546249071471
 23
753.9851033205172826
 33
0.0
 14
3345.0731546249076018
 24
738.4851033205177373
 34
0.0
 50
90.0
100
AcDbRotatedDimension
1001
ACAD
1000
DSTYLE
1002
{
1070
144
1040
1.0
1070
40
1040
0.6
1002
}
  0
DIMENSION
  5
105
100
AcDbEntity
  8
Cotas
 62
256
370
-1
 48
1.0
  6
BYLAYER
100
AcDbDimension
 10
3359.287620718974722
 20
737.6995694145844027
 30
0.0
 11
3360.6782321791029062
 21
746.2351033205171689
 31
0.0
 70
2
 71
8
 72
2
 74
0
 75
0
 41
1.0
 42
0.0
  1

  3
Standard
100
AcDb2LineAngularDimension
 13
3359.2876207189738125
 23
754.7706372264497077
 33
0.0
 14
3357.8452325635489615
 24
753.3282490710248567
 34
0.0
 15
3357.8452325635494162
 25
739.1419575700097084
 35
0.0
 16
3358.5664266412622965
 26
738.4207634922970556
 36
0.0
  0
DIMENSION
  5
106
100
AcDbEntity
  8
Cotas
 62
256
370
-1
 48
1.0
  6
BYLAYER
100
AcDbDimension
 10
3366.1307664694822961
 20
749.7351033205173962
 30
0.0
 11
3363.5514478306272395
 21
745.5570965265778796
 31
0.0
 70
4
 71
8
 72
2
 74
0
 41
1.0
 42
0.0
  1
R<>
  3
Standard
100
AcDbRadialDimension
 15
3365.9725776800341919
 25
749.2607866468774773
 35
0.0
 40
0.0
1001
ACAD
1000
DSTYLE
1002
{
1070
144
1040
1.0
1070
40
1040
0.6
1002
}
  0
ARC
  5
107
100
AcDbEntity
  8
Contornos Visibles
 62
256
370
-1
 48
1.0
  6
BYLAYER
100
AcDbCircle
 10
3366.1307664694818413
 20
738.7351033205172826
 30
0.0
 40
0.5
100
AcDbArc
 50
0.0
 51
90.0
  0
ARC
  5
108
100
AcDbEntity
  8
Contornos Visibles
 62
256
370
-1
 48
1.0
  6
BYLAYER
100
AcDbCircle
 10
3366.1307664694818413
 20
753.7351033205172826
 30
0.0
 40
0.5
100
AcDbArc
 50
270.0
 51
0.0
  0
ARC
  5
109
100
AcDbEntity
  8
Contornos Visibles
 62
256
370
-1
 48
1.0
  6
BYLAYER
100
AcDbCircle
 10
3341.180766469482478
 20
763.7844934737091762
 30
0.0
 40
0.45
100
AcDbArc
 50
0.0
 51
88.6024033717848596
  0
ARC
  5
10A
100
AcDbEntity
  8
Contornos Visibles
 62
256
370
-1
 48
1.0
  6
BYLAYER
100
AcDbCircle
 10
3331.0813763162905161
 20
738.7851033205174645
 30
0.0
 40
0.45
100
AcDbArc
 50
90.0
 51
178.6024033717706061
  0
ARC
  5
10B
100
AcDbEntity
  8
Contornos Visibles
 62
256
370
-1
 48
1.0
  6
BYLAYER
100
AcDbCircle
 10
3356.0807664694821142
 20
728.6857131673258436
 30
0.0
 40
0.45
100
AcDbArc
 50
180.0
 51
268.6024033717848738
  0
DIMENSION
  5
10C
100
AcDbEntity
  8
Cotas
 62
256
370
-1
 48
1.0
  6
BYLAYER
100
AcDbDimension
 10
3366.1307664694818413
 20
738.7351033205172826
 30
0.0
 11
3370.9663607572488218
 21
737.8832504605309168
 31
0.0
 70
4
 71
8
 72
2
 74
0
 41
1.0
 42
0.0
  1
R<>
  3
Standard
100
AcDbRadialDimension
 15
3366.590209396946193
 25
738.5378415745982466
 35
0.0
 40
0.0
1001
ACAD
1000
DSTYLE
1002
{
1070
144
1040
1.0
1070
40
1040
0.6
1002
}
  0
DIMENSION
  5
10D
100
AcDbEntity
  8
Cotas
 62
256
370
-1
 48
1.0
  6
BYLAYER
100
AcDbDimension
 10
3381.0377092742760397
 20
742.2351033205173962
 30
0.0
 11
3379.9127092742760397
 21
746.2351033205173962
 31
0.0
 70
0
 71
8
 72
2
 74
0
 75
0
 41
1.0
 42
0.0
  1

  3
Standard
100
AcDbAlignedDimension
 13
3366.1307664694818413
 23
742.2351033205173962
 33
0.0
 14
3366.1307664694822961
 24
750.2351033205173962
 34
0.0
 50
90.0
100
AcDbRotatedDimension
1001
ACAD
1000
DSTYLE
1002
{
1070
144
1040
1.0
1070
40
1040
0.6
1002
}
  0
DIMENSION
  5
10E
100
AcDbEntity
  8
Cotas
 62
256
370
-1
 48
1.0
  6
BYLAYER
100
AcDbDimension
 10
3386.4528162719029751
 20
753.2351033205172826
 30
0.0
 11
3385.3278162719029751
 21
746.2351033205172826
 31
0.0
 70
0
 71
8
 72
2
 74
0
 75
0
 41
1.0
 42
0.0
  1

  3
Standard
100
AcDbAlignedDimension
 13
3365.3807664694818413
 23
753.2351033205172826
 33
0.0
 14
3365.3807664694818413
 24
739.2351033205172826
 34
0.0
 50
90.0
100
AcDbRotatedDimension
1001
ACAD
1000
DSTYLE
1002
{
1070
144
1040
1.0
1070
40
1040
0.6
1002
}
  0
DIMENSION
  5
10F
100
AcDbEntity
  8
Cotas
 62
256
370
-1
 48
1.0
  6
BYLAYER
100
AcDbDimension
 10
3392.6489483172654218
 20
756.2351033205168278
 30
0.0
 11
3391.5239483172654218
 21
746.2351033205170552
 31
0.0
 70
0
 71
8
 72
2
 74
0
 75
0
 41
1.0
 42
0.0
  1

  3
Standard
100
AcDbAlignedDimension
 13
3363.4769605471947216
 23
756.2351033205168278
 33
0.0
 14
3363.4769605471947216
 24
736.2351033205172826
 34
0.0
 50
90.0
100
AcDbRotatedDimension
1001
ACAD
1000
DSTYLE
1002
{
1070
144
1040
1.0
1070
40
1040
0.6
1002
}
  0
DIMENSION
  5
110
100
AcDbEntity
  8
Cotas
 62
256
370
-1
 48
1.0
  6
BYLAYER
100
AcDbDimension
 10
3399.2907853232018169
 20
766.2351033205172826
 30
0.0
 11
3398.1657853232018169
 21
746.2351033205175099
 31
0.0
 70
0
 71
8
 72
2
 74
0
 75
0
 41
1.0
 42
0.0
  1

  3
Standard
100
AcDbAlignedDimension
 13
3364.6307664694822961
 23
766.2351033205172826
 33
0.0
 14
3364.6307664694827508
 24
726.2351033205177373
 34
0.0
 50
90.0
100
AcDbRotatedDimension
1001
ACAD
1000
DSTYLE
1002
{
1070
144
1040
1.0
1070
40
1040
0.6
1002
}
  0
DIMENSION
  5
111
100
AcDbEntity
  8
Cotas
 62
256
370
-1
 48
1.0
  6
BYLAYER
100
AcDbDimension
 10
3364.6307664694822961
 20
730.2351033205172826
 30
0.0
 11
3371.2024134953721841
 21
729.8189329650880381
 31
0.0
 70
4
 71
8
 72
2
 74
0
 41
1.0
 42
0.0
  1
R<>
  3
Standard
100
AcDbRadialDimension
 15
3366.7703319878478396
 25
729.7229906448084193
 35
0.0
 40
0.0
1001
ACAD
1000
DSTYLE
1002
{
1070
144
1040
1.0
1070
40
1040
0.6
1002
}
  0
DIMENSION
  5
112
100
AcDbEntity
  8
Cotas
 62
256
370
-1
 48
1.0
  6
BYLAYER
100
AcDbDimension
 10
3364.6307664694827508
 20
730.2351033205172826
 30
0.0
 11
3369.5586117624930012
 21
724.5601852483763423
 31
0.0
 70
4
 71
8
 72
2
 74
0
 41
1.0
 42
0.0
  1
R<>
  3
Standard
100
AcDbRadialDimension
 15
3366.7717755394460255
 25
726.8563342898886503
 35
0.0
 40
0.0
1001
ACAD
1000
DSTYLE
1002
{
1070
144
1040
1.0
1070
40
1040
0.6
1002
}
  0
DIMENSION
  5
113
100
AcDbEntity
  8
Cotas
 62
256
370
-1
 48
1.0
  6
BYLAYER
100
AcDbDimension
 10
3360.930766469482478
 20
728.5351033205172371
 30
0.0
 11
3359.2826004800945157
 21
722.9454828739064851
 31
0.0
 70
4
 71
8
 72
2
 74
0
 41
1.0
 42
0.0
  1
3-R<>
  3
Standard
100
AcDbRadialDimension
 15
3360.8845983235469248
 25
728.0372393809706182
 35
0.0
 40
0.0
1001
ACAD
1000
DSTYLE
1002
{
1070
144
1040
1.0
1070
40
1040
0.6
1002
}
  0
DIMENSION
  5
114
100
AcDbEntity
  8
Cotas
 62
256
370
-1
 48
1.0
  6
BYLAYER
100
AcDbDimension
 10
3364.1307664694818413
 20
713.0395502228120677
 30
0.0
 11
3348.6307664694822961
 21
714.1645502228120677
 31
0.0
 70
0
 71
8
 72
2
 74
0
 75
0
 41
1.0
 42
0.0
  1

  3
Standard
100
AcDbAlignedDimension
 13
3364.1307664694818413
 23
739.7351033205172826
 33
0.0
 14
3333.1307664694822961
 24
739.7351033205179647
 34
0.0
 50
0.0
100
AcDbRotatedDimension
1001
ACAD
1000
DSTYLE
1002
{
1070
144
1040
1.0
1070
40
1040
0.6
1002
}
  0
DIMENSION
  5
115
100
AcDbEntity
  8
Cotas
 62
256
370
-1
 48
1.0
  6
BYLAYER
100
AcDbDimension
 10
3366.6307664694818413
 20
706.78264157235742
 30
0.0
 11
3348.6311383272918647
 21
707.90764157235742
 31
0.0
 70
0
 71
8
 72
2
 74
0
 75
0
 41
1.0
 42
0.0
  1
36
  3
Standard
100
AcDbAlignedDimension
 13
3366.6307664694818413
 23
743.6824302942654867
 33
0.0
 14
3330.6315101851018881
 24
738.7960789302734383
 34
0.0
 50
0.0
100
AcDbRotatedDimension
1001
ACAD
1000
DSTYLE
1002
{
1070
144
1040
1.0
1070
40
1040
0.6
1002
}
  0
DIMENSION
  5
116
100
AcDbEntity
  8
Cotas
 62
256
370
-1
 48
1.0
  6
BYLAYER
100
AcDbDimension
 10
3328.6307664694822961
 20
700.3434961868093751
 30
0.0
 11
3348.6307664694822961
 21
701.4684961868093751
 31
0.0
 70
0
 71
8
 72
2
 74
0
 75
0
 41
1.0
 42
0.0
  1

  3
Standard
100
AcDbAlignedDimension
 13
3328.6307664694822961
 23
735.4851033205175099
 33
0.0
 14
3368.6307664694827508
 24
735.4851033205180784
 34
0.0
 50
0.0
100
AcDbRotatedDimension
1001
ACAD
1000
DSTYLE
1002
{
1070
144
1040
1.0
1070
40
1040
0.6
1002
}
  0
ARC
  5
117
100
AcDbEntity
  8
Cotas
 62
256
370
-1
 48
1.0
  6
BYLAYER
100
AcDbCircle
 10
3330.1307664694822961
 20
740.7351033205175099
 30
0.0
 40
1.5
100
AcDbArc
 50
9.1869202109216683
 51
90.0
  0
DIMENSION
  5
118
100
AcDbEntity
  8
Cotas
 62
256
370
-1
 48
1.0
  6
BYLAYER
100
AcDbDimension
 10
3330.1307664694822961
 20
740.7351033205175099
 30
0.0
 11
3334.7568312614257593
 21
744.3774954278837868
 31
0.0
 70
4
 71
8
 72
2
 74
0
 41
1.0
 42
0.0
  1
R<>
  3
Standard
100
AcDbRadialDimension
 15
3331.4648864558171226
 25
741.4207591103000823
 35
0.0
 40
0.0
1001
ACAD
1000
DSTYLE
1002
{
1070
144
1040
1.0
1070
40
1040
0.6
1002
}
  0
DIMENSION
  5
119
100
AcDbEntity
  8
Cotas
 62
256
370
-1
 48
1.0
  6
BYLAYER
100
AcDbDimension
 10
3318.4823362196411836
 20
750.2351033205175099
 30
0.0
 11
3317.3573362196411836
 21
746.2351033205175099
 31
0.0
 70
0
 71
8
 72
2
 74
0
 75
0
 41
1.0
 42
0.0
  1

  3
Standard
100
AcDbAlignedDimension
 13
3331.1307664694822961
 23
750.2351033205175099
 33
0.0
 14
3331.1307664694822961
 24
742.2351033205175099
 34
0.0
 50
90.0
100
AcDbRotatedDimension
1001
ACAD
1000
DSTYLE
1002
{
1070
144
1040
1.0
1070
40
1040
0.6
1002
}
  0
DIMENSION
  5
11A
100
AcDbEntity
  8
Cotas
 62
256
370
-1
 48
1.0
  6
BYLAYER
100
AcDbDimension
 10
3313.5806808737661413
 20
753.2351033205175099
 30
0.0
 11
3312.4556808737661413
 21
746.2351033205175099
 31
0.0
 70
0
 71
8
 72
2
 74
0
 75
0
 41
1.0
 42
0.0
  1

  3
Standard
100
AcDbAlignedDimension
 13
3331.0807664694825689
 23
753.2351033205175099
 33
0.0
 14
3331.0813763162905161
 24
739.2351033205175099
 34
0.0
 50
90.0
100
AcDbRotatedDimension
1001
ACAD
1000
DSTYLE
1002
{
1070
144
1040
1.0
1070
40
1040
0.6
1002
}
  0
DIMENSION
  5
11B
100
AcDbEntity
  8
Cotas
 62
256
370
-1
 48
1.0
  6
BYLAYER
100
AcDbDimension
 10
3308.8424622508423454
 20
756.2351033205175099
 30
0.0
 11
3307.7174622508423454
 21
746.2351033205177373
 31
0.0
 70
0
 71
8
 72
2
 74
0
 75
0
 41
1.0
 42
0.0
  1

  3
Standard
100
AcDbAlignedDimension
 13
3333.1307664694822961
 23
756.2351033205175099
 33
0.0
 14
3333.1307664694822961
 24
736.2351033205179647
 34
0.0
 50
90.0
100
AcDbRotatedDimension
1001
ACAD
1000
DSTYLE
1002
{
1070
144
1040
1.0
1070
40
1040
0.6
1002
}
  0
DIMENSION
  5
11C
100
AcDbEntity
  8
Cotas
 62
256
370
-1
 48
1.0
  6
BYLAYER
100
AcDbDimension
 10
3303.2253301075352283
 20
758.0351033205172371
 30
0.0
 11
3302.1003301075352283
 21
746.2351033205172826
 31
0.0
 70
0
 71
8
 72
2
 74
0
 75
0
 41
1.0
 42
0.0
  1

  3
Standard
100
AcDbAlignedDimension
 13
3333.6307664694822961
 23
758.0351033205172371
 33
0.0
 14
3333.6307664694822961
 24
734.435103320517328
 34
0.0
 50
90.0
100
AcDbRotatedDimension
1001
ACAD
1000
DSTYLE
1002
{
1070
144
1040
1.0
1070
40
1040
0.6
1002
}
  0
DIMENSION
  5
11D
100
AcDbEntity
  8
Cotas
 62
256
370
-1
 48
1.0
  6
BYLAYER
100
AcDbDimension
 10
3299.026539450913333
 20
764.435103320517328
 30
0.0
 11
3297.901539450913333
 21
746.2351033205172826
 31
0.0
 70
0
 71
8
 72
2
 74
0
 75
0
 41
1.0
 42
0.0
  1

  3
Standard
100
AcDbAlignedDimension
 13
3334.4807664694822051
 23
764.435103320517328
 33
0.0
 14
3334.4807664694822051
 24
728.0351033205172371
 34
0.0
 50
90.0
100
AcDbRotatedDimension
1001
ACAD
1000
DSTYLE
1002
{
1070
144
1040
1.0
1070
40
1040
0.6
1002
}
  0
DIMENSION
  5
11E
100
AcDbEntity
  8
Cotas
 62
256
370
-1
 48
1.0
  6
BYLAYER
100
AcDbDimension
 10
3344.6307664694822961
 20
778.8436096527436803
 30
0.0
 11
3348.6307664694822961
 21
779.9686096527436803
 31
0.0
 70
0
 71
8
 72
2
 74
0
 75
0
 41
1.0
 42
0.0
  1

  3
Standard
100
AcDbAlignedDimension
 13
3344.6307664694822961
 23
764.7351033205172826
 33
0.0
 14
3352.6307664694822961
 24
764.7351033205172826
 34
0.0
 50
0.0
100
AcDbRotatedDimension
1001
ACAD
1000
DSTYLE
1002
{
1070
144
1040
1.0
1070
40
1040
0.6
1002
}
  0
DIMENSION
  5
11F
100
AcDbEntity
  8
Cotas
 62
256
370
-1
 48
1.0
  6
BYLAYER
100
AcDbDimension
 10
3341.6307664694822961
 20
782.9778355720862919
 30
0.0
 11
3348.6307664694822961
 21
784.1028355720862919
 31
0.0
 70
0
 71
8
 72
2
 74
0
 75
0
 41
1.0
 42
0.0
  1

  3
Standard
100
AcDbAlignedDimension
 13
3341.6307664694822961
 23
763.7844934737091762
 33
0.0
 14
3355.6307664694822961
 24
763.7851033205172371
 34
0.0
 50
0.0
100
AcDbRotatedDimension
1001
ACAD
1000
DSTYLE
1002
{
1070
144
1040
1.0
1070
40
1040
0.6
1002
}
  0
DIMENSION
  5
120
100
AcDbEntity
  8
Cotas
 62
256
370
-1
 48
1.0
  6
BYLAYER
100
AcDbDimension
 10
3338.6307664694827508
 20
787.6060025589506495
 30
0.0
 11
3348.6307664694822961
 21
788.7310025589506495
 31
0.0
 70
0
 71
8
 72
2
 74
0
 75
0
 41
1.0
 42
0.0
  1

  3
Standard
100
AcDbAlignedDimension
 13
3338.6307664694827508
 23
761.7351033205172826
 33
0.0
 14
3358.6307664694822961
 24
761.7351033205172826
 34
0.0
 50
0.0
100
AcDbRotatedDimension
1001
ACAD
1000
DSTYLE
1002
{
1070
144
1040
1.0
1070
40
1040
0.6
1002
}
  0
DIMENSION
  5
121
100
AcDbEntity
  8
Cotas
 62
256
370
-1
 48
1.0
  6
BYLAYER
100
AcDbDimension
 10
3336.8307664694821142
 20
791.7734804750662079
 30
0.0
 11
3348.6307664694822961
 21
792.8984804750662079
 31
0.0
 70
0
 71
8
 72
2
 74
0
 75
0
 41
1.0
 42
0.0
  1

  3
Standard
100
AcDbAlignedDimension
 13
3336.8307664694821142
 23
763.935103320517328
 33
0.0
 14
3360.430766469482478
 24
763.935103320517328
 34
0.0
 50
0.0
100
AcDbRotatedDimension
1001
ACAD
1000
DSTYLE
1002
{
1070
144
1040
1.0
1070
40
1040
0.6
1002
}
  0
DIMENSION
  5
122
100
AcDbEntity
  8
Cotas
 62
256
370
-1
 48
1.0
  6
BYLAYER
100
AcDbDimension
 10
3330.430766469482478
 20
796.4079789716508913
 30
0.0
 11
3348.6307664694822961
 21
797.5329789716508913
 31
0.0
 70
0
 71
8
 72
2
 74
0
 75
0
 41
1.0
 42
0.0
  1

  3
Standard
100
AcDbAlignedDimension
 13
3330.430766469482478
 23
762.2351033205172826
 33
0.0
 14
3366.8307664694821142
 24
762.2351033205172826
 34
0.0
 50
0.0
100
AcDbRotatedDimension
1001
ACAD
1000
DSTYLE
1002
{
1070
144
1040
1.0
1070
40
1040
0.6
1002
}
  0
MTEXT
  5
123
100
AcDbEntity
  8
Cotas
 62
256
370
-1
 48
1.0
  6
BYLAYER
100
AcDbMText
 10
3353.0521735882821304
 20
756.9604820978680664
 30
0.0
 40
1.0
 41
0.0
 71
1
 72
1
  1
R5
  7
textstyle0
 50
0.0
 73
2
 44
1.0
  0
MTEXT
  5
124
100
AcDbEntity
  8
Cotas
 62
256
370
-1
 48
1.0
  6
BYLAYER
100
AcDbMText
 10
3355.7640661151390304
 20
760.7571316354672035
 30
0.0
 40
1.0
 41
0.0
 71
1
 72
1
  1
R5
  7
textstyle1
 50
0.0
 73
2
 44
1.0
  0
LEADER
  5
125
100
AcDbEntity
  8
Cotas
 62
256
370
-1
 48
1.0
  6
BYLAYER
100
AcDbLeader
  3
Standard
 71
1
 72
0
 73
3
 74
0
 75
0
 40
1.0
 41
10.0
 76
3
 10
3354.1017954758826818
 20
754.3657056579609161
 10
3354.7717204089490224
 20
755.843428891865301
 10
3352.9521735882822213
 20
755.843428891865301
1001
ACAD
1000
DSTYLE
1002
{
1070
40
1040
0.6
1002
}
  0
LEADER
  5
126
100
AcDbEntity
  8
Cotas
 62
256
370
-1
 48
1.0
  6
BYLAYER
100
AcDbLeader
  3
Standard
 71
1
 72
0
 73
3
 74
0
 75
0
 40
1.0
 41
10.0
 76
3
 10
3358.2501641320386625
 20
758.5140743141174653
 10
3357.4836129358059225
 20
759.6400784294644382
 10
3355.6640661151391214
 20
759.6400784294644382
1001
ACAD
1000
DSTYLE
1002
{
1070
40
1040
0.6
1002
}
  0
MTEXT
  5
127
100
AcDbEntity
  8
Cotas
 62
256
370
-1
 48
1.0
  6
BYLAYER
100
AcDbMText
 10
3349.5568454425560958
 20
761.5104351151496758
 30
0.0
 40
1.0
 41
0.0
 71
1
 72
1
  1
R1
  7
textstyle2
 50
0.0
 73
2
 44
1.0
  0
LEADER
  5
128
100
AcDbEntity
  8
Cotas
 62
256
370
-1
 48
1.0
  6
BYLAYER
100
AcDbLeader
  3
Standard
 71
1
 72
0
 73
3
 74
0
 75
0
 40
1.0
 41
10.0
 76
3
 10
3352.9236596882956292
 20
762.0279965393307293
 10
3351.0758465606309073
 20
760.4063423457090494
 10
3349.4568454425561868
 20
760.4063423457090494
1001
ACAD
1000
DSTYLE
1002
{
1070
40
1040
0.6
1002
}
  0
MTEXT
  5
129
100
AcDbEntity
  8
Cotas
 62
256
370
-1
 48
1.0
  6
BYLAYER
100
AcDbMText
 10
3342.5360570119169097
 20
760.7872637746546616
 30
0.0
 40
1.0
 41
0.0
 71
1
 72
1
  1
R0.5
  7
textstyle3
 50
0.0
 73
2
 44
1.0
  0
MTEXT
  5
12A
100
AcDbEntity
  8
Cotas
 62
256
370
-1
 48
1.0
  6
BYLAYER
100
AcDbMText
 10
3342.3552641767928435
 20
758.7382783099186554
 30
0.0
 40
1.0
 41
0.0
 71
1
 72
1
  1
R2.5
  7
textstyle4
 50
0.0
 73
2
 44
1.0
  0
LEADER
  5
12B
100
AcDbEntity
  8
Cotas
 62
256
370
-1
 48
1.0
  6
BYLAYER
100
AcDbLeader
  3
Standard
 71
1
 72
0
 73
3
 74
0
 75
0
 40
1.0
 41
10.0
 76
3
 10
3339.3846907300585372
 20
763.5242985340685209
 10
3342.2552641767929344
 20
757.6171323344752864
 10
3345.2407271521028633
 20
757.6171323344752864
1001
ACAD
1000
DSTYLE
1002
{
1070
40
1040
0.6
1002
}
  0
LEADER
  5
12C
100
AcDbEntity
  8
Cotas
 62
256
370
-1
 48
1.0
  6
BYLAYER
100
AcDbLeader
  3
Standard
 71
1
 72
0
 73
3
 74
0
 75
0
 40
1.0
 41
10.0
 76
3
 10
3341.7772130788894174
 20
761.8815499299240628
 10
3342.4360570119170006
 20
759.6661177992112925
 10
3345.4215199872269295
 20
759.6661177992112925
1001
ACAD
1000
DSTYLE
1002
{
1070
40
1040
0.6
1002
}
  0
DIMENSION
  5
12D
100
AcDbEntity
  8
Cotas
 62
256
370
-1
 48
1.0
  6
BYLAYER
100
AcDbDimension
 10
3341.9141574467375904
 20
755.0730326868214206
 30
0.0
 11
3340.0580021461228171
 21
754.8078676438768753
 31
0.0
 70
1
 71
8
 72
2
 74
0
 75
0
 41
1.0
 42
0.0
  1

  3
Standard
100
AcDbAlignedDimension
 13
3341.537620718974722
 23
755.4495694145845164
 33
0.0
 14
3339.4163003754147212
 24
753.3282490710254251
 34
0.0
1001
ACAD
1000
DSTYLE
1002
{
1070
144
1040
1.0
1070
40
1040
0.6
1002
}
  0
MTEXT
  5
12E
100
AcDbEntity
  8
Cotas
 62
256
370
-1
 48
1.0
  6
BYLAYER
100
AcDbMText
 10
3348.8957262206959058
 20
766.6833935462369709
 30
0.0
 40
1.0
 41
0.0
 71
1
 72
1
  1
R0.45
  7
textstyle5
 50
0.0
 73
2
 44
1.0
  0
LEADER
  5
12F
100
AcDbEntity
  8
Cotas
 62
256
370
-1
 48
1.0
  6
BYLAYER
100
AcDbLeader
  3
Standard
 71
1
 72
0
 73
3
 74
0
 75
0
 40
1.0
 41
10.0
 76
3
 10
3356.0807664694821142
 20
764.2351033205172826
 10
3352.5584666324343743
 20
765.5622475707936019
 10
3348.7957262206959967
 20
765.5622475707936019
1001
ACAD
1000
DSTYLE
1002
{
1070
40
1040
0.6
1002
}
  0
ENDSEC
  0
SECTION
  2
OBJECTS
  0
DICTIONARY
  5
C
100
AcDbDictionary
280
0
281
1
  3
ACAD_GROUP
350
D
  3
ACAD_LAYOUT
350
1A
  3
ACAD_MLINESTYLE
350
17
  3
ACAD_PLOTSETTINGS
350
19
  3
ACAD_PLOTSTYLENAME
350
E
  3
AcDbVariableDictionary
350
130
  3
QCAD_OBJECTS
350
131
  0
DICTIONARY
  5
D
100
AcDbDictionary
280
0
281
1
  0
ACDBDICTIONARYWDFLT
  5
E
100
AcDbDictionary
281
1
  3
Normal
350
F
100
AcDbDictionaryWithDefault
340
F
  0
ACDBPLACEHOLDER
  5
F
  0
DICTIONARY
  5
17
100
AcDbDictionary
280
0
281
1
  3
Standard
350
18
  0
MLINESTYLE
  5
18
100
AcDbMlineStyle
  2
STANDARD
 70
0
  3

 62
256
 51
90.0
 52
90.0
 71
2
 49
0.5
 62
256
  6
BYLAYER
 49
-0.5
 62
256
  6
BYLAYER
  0
DICTIONARY
  5
19
100
AcDbDictionary
280
0
281
1
  0
DICTIONARY
  5
1A
100
AcDbDictionary
281
1
  3
Layout1
350
1E
  3
Layout2
350
26
  3
Model
350
22
  0
LAYOUT
  5
1E
100
AcDbPlotSettings
  1

  2
none_device
  4

  6

 40
0.0
 41
0.0
 42
0.0
 43
0.0
 44
0.0
 45
0.0
 46
0.0
 47
0.0
 48
0.0
 49
0.0
140
0.0
141
0.0
142
1.0
143
1.0
 70
688
 72
0
 73
0
 74
5
  7

 75
16
147
1.0
148
0.0
149
0.0
100
AcDbLayout
  1
Layout1
 70
1
 71
1
 10
0.0
 20
0.0
 11
420.0
 21
297.0
 12
0.0
 22
0.0
 32
0.0
 14
100000000000000000000.0
 24
100000000000000000000.0
 34
100000000000000000000.0
 15
-100000000000000000000.0
 25
-100000000000000000000.0
 35
-100000000000000000000.0
146
0.0
 13
0.0
 23
0.0
 33
0.0
 16
1.0
 26
0.0
 36
0.0
 17
0.0
 27
1.0
 37
0.0
 76
0
330
1B
  0
LAYOUT
  5
22
100
AcDbPlotSettings
  1

  2
none_device
  4

  6

 40
0.0
 41
0.0
 42
0.0
 43
0.0
 44
0.0
 45
0.0
 46
0.0
 47
0.0
 48
0.0
 49
0.0
140
0.0
141
0.0
142
1.0
143
1.0
 70
1712
 72
0
 73
0
 74
0
  7

 75
0
147
1.0
148
0.0
149
0.0
100
AcDbLayout
  1
Model
 70
1
 71
0
 10
0.0
 20
0.0
 11
12.0
 21
9.0
 12
0.0
 22
0.0
 32
0.0
 14
0.0
 24
0.0
 34
0.0
 15
0.0
 25
0.0
 35
0.0
146
0.0
 13
0.0
 23
0.0
 33
0.0
 16
1.0
 26
0.0
 36
0.0
 17
0.0
 27
1.0
 37
0.0
 76
0
330
1F
  0
LAYOUT
  5
26
100
AcDbPlotSettings
  1

  2
none_device
  4

  6

 40
0.0
 41
0.0
 42
0.0
 43
0.0
 44
0.0
 45
0.0
 46
0.0
 47
0.0
 48
0.0
 49
0.0
140
0.0
141
0.0
142
1.0
143
1.0
 70
688
 72
0
 73
0
 74
5
  7

 75
16
147
1.0
148
0.0
149
0.0
100
AcDbLayout
  1
Layout2
 70
1
 71
2
 10
0.0
 20
0.0
 11
12.0
 21
9.0
 12
0.0
 22
0.0
 32
0.0
 14
0.0
 24
0.0
 34
0.0
 15
0.0
 25
0.0
 35
0.0
146
0.0
 13
0.0
 23
0.0
 33
0.0
 16
1.0
 26
0.0
 36
0.0
 17
0.0
 27
1.0
 37
0.0
 76
0
330
23
  0
DICTIONARY
  5
130
100
AcDbDictionary
281
1
  3
DIMASSOC
350
133
  3
HIDETEXT
350
132
  0
DICTIONARYVAR
  5
132
100
DictionaryVariables
280
0
  1
2
  0
DICTIONARYVAR
  5
133
100
DictionaryVariables
280
0
  1
1
  0
DICTIONARY
  5
131
100
AcDbDictionary
281
1
  3
ColorSettings/BackgroundColor
350
134
  3
ColorSettings/ColorMode
350
135
  3
DimensionSettings/AngularFormat
350
136
  3
DimensionSettings/AngularPrecision
350
137
  3
DimensionSettings/DecimalPoint
350
138
  3
DimensionSettings/DimensionFont
350
139
  3
DimensionSettings/DimensionTextColor
350
13A
  3
DimensionSettings/KeepProportions
350
13B
  3
DimensionSettings/LinearFormat
350
13C
  3
DimensionSettings/LinearPrecision
350
13D
  3
Grid/DisplayGrid00
350
13E
  3
Grid/DisplayGrid01
350
13F
  3
Grid/DisplayGrid02
350
140
  3
Grid/DisplayGrid03
350
141
  3
Grid/GridSpacingX00
350
142
  3
Grid/GridSpacingX01
350
143
  3
Grid/GridSpacingX02
350
144
  3
Grid/GridSpacingX03
350
145
  3
Grid/GridSpacingY00
350
146
  3
Grid/GridSpacingY01
350
147
  3
Grid/GridSpacingY02
350
148
  3
Grid/GridSpacingY03
350
149
  3
Grid/IsometricGrid00
350
14A
  3
Grid/IsometricGrid01
350
14B
  3
Grid/IsometricGrid02
350
14C
  3
Grid/IsometricGrid03
350
14D
  3
Grid/IsometricProjection00
350
14E
  3
Grid/IsometricProjection01
350
14F
  3
Grid/IsometricProjection02
350
150
  3
Grid/IsometricProjection03
350
151
  3
Grid/MetaGridSpacingX00
350
152
  3
Grid/MetaGridSpacingX01
350
153
  3
Grid/MetaGridSpacingX02
350
154
  3
Grid/MetaGridSpacingX03
350
155
  3
Grid/MetaGridSpacingY00
350
156
  3
Grid/MetaGridSpacingY01
350
157
  3
Grid/MetaGridSpacingY02
350
158
  3
Grid/MetaGridSpacingY03
350
159
  3
MultiPageSettings/Columns
350
15A
  3
MultiPageSettings/GlueMarginsBottom
350
15B
  3
MultiPageSettings/GlueMarginsLeft
350
15C
  3
MultiPageSettings/GlueMarginsRight
350
15D
  3
MultiPageSettings/GlueMarginsTop
350
15E
  3
MultiPageSettings/PrintCropMarks
350
15F
  3
MultiPageSettings/Rows
350
160
  3
PageSettings/OffsetX
350
161
  3
PageSettings/OffsetY
350
162
  3
PageSettings/PageOrientation
350
163
  3
PageSettings/PaperHeight
350
164
  3
PageSettings/PaperWidth
350
165
  3
PageSettings/Scale
350
166
  3
PageSettings/ShowPaperBorders
350
167
  3
PageTagSettings/EnablePageTags
350
168
  3
PageTagSettings/TagAlignment
350
169
  3
PageTagSettings/TagFont
350
16A
  3
PageTagSettings/TagPosition
350
16B
  3
QCADVersion
350
16C
  3
UnitSettings/PaperUnit
350
16D
  3
ViewportCenter
350
16E
  3
ViewportHeight
350
16F
  3
ViewportWidth
350
170
  0
XRECORD
  5
134
330
131
100
AcDbXrecord
280
1
1000
Blanca
  0
XRECORD
  5
135
330
131
100
AcDbXrecord
280
1
1000
FullColor
  0
XRECORD
  5
136
330
131
100
AcDbXrecord
280
1
 90
0
  0
XRECORD
  5
137
330
131
100
AcDbXrecord
280
1
 90
0
  0
XRECORD
  5
138
330
131
100
AcDbXrecord
280
1
 90
46
  0
XRECORD
  5
139
330
131
100
AcDbXrecord
280
1
1000
MS Shell Dlg 2
  0
XRECORD
  5
13A
330
131
100
AcDbXrecord
280
1
1000
Por Capa
  0
XRECORD
  5
13B
330
131
100
AcDbXrecord
280
1
290
1
  0
XRECORD
  5
13C
330
131
100
AcDbXrecord
280
1
 90
2
  0
XRECORD
  5
13D
330
131
100
AcDbXrecord
280
1
 90
4
  0
XRECORD
  5
13E
330
131
100
AcDbXrecord
280
1
290
0
  0
XRECORD
  5
13F
330
131
100
AcDbXrecord
280
1
290
1
  0
XRECORD
  5
140
330
131
100
AcDbXrecord
280
1
290
1
  0
XRECORD
  5
141
330
131
100
AcDbXrecord
280
1
290
1
  0
XRECORD
  5
142
330
131
100
AcDbXrecord
280
1
1000
auto
  0
XRECORD
  5
143
330
131
100
AcDbXrecord
280
1
1000
auto
  0
XRECORD
  5
144
330
131
100
AcDbXrecord
280
1
1000
auto
  0
XRECORD
  5
145
330
131
100
AcDbXrecord
280
1
1000
auto
  0
XRECORD
  5
146
330
131
100
AcDbXrecord
280
1
1000
auto
  0
XRECORD
  5
147
330
131
100
AcDbXrecord
280
1
1000
auto
  0
XRECORD
  5
148
330
131
100
AcDbXrecord
280
1
1000
auto
  0
XRECORD
  5
149
330
131
100
AcDbXrecord
280
1
1000
auto
  0
XRECORD
  5
14A
330
131
100
AcDbXrecord
280
1
290
0
  0
XRECORD
  5
14B
330
131
100
AcDbXrecord
280
1
290
0
  0
XRECORD
  5
14C
330
131
100
AcDbXrecord
280
1
290
0
  0
XRECORD
  5
14D
330
131
100
AcDbXrecord
280
1
290
0
  0
XRECORD
  5
14E
330
131
100
AcDbXrecord
280
1
 90
65537
  0
XRECORD
  5
14F
330
131
100
AcDbXrecord
280
1
 90
65537
  0
XRECORD
  5
150
330
131
100
AcDbXrecord
280
1
 90
65537
  0
XRECORD
  5
151
330
131
100
AcDbXrecord
280
1
 90
65537
  0
XRECORD
  5
152
330
131
100
AcDbXrecord
280
1
1000
auto
  0
XRECORD
  5
153
330
131
100
AcDbXrecord
280
1
1000
auto
  0
XRECORD
  5
154
330
131
100
AcDbXrecord
280
1
1000
auto
  0
XRECORD
  5
155
330
131
100
AcDbXrecord
280
1
1000
auto
  0
XRECORD
  5
156
330
131
100
AcDbXrecord
280
1
1000
1
  0
XRECORD
  5
157
330
131
100
AcDbXrecord
280
1
1000
auto
  0
XRECORD
  5
158
330
131
100
AcDbXrecord
280
1
1000
auto
  0
XRECORD
  5
159
330
131
100
AcDbXrecord
280
1
1000
auto
  0
XRECORD
  5
15A
330
131
100
AcDbXrecord
280
1
 90
1
  0
XRECORD
  5
15B
330
131
100
AcDbXrecord
280
1
 40
10.0
  0
XRECORD
  5
15C
330
131
100
AcDbXrecord
280
1
 40
10.0
  0
XRECORD
  5
15D
330
131
100
AcDbXrecord
280
1
 40
10.0
  0
XRECORD
  5
15E
330
131
100
AcDbXrecord
280
1
 40
10.0
  0
XRECORD
  5
15F
330
131
100
AcDbXrecord
280
1
290
0
  0
XRECORD
  5
160
330
131
100
AcDbXrecord
280
1
 90
1
  0
XRECORD
  5
161
330
131
100
AcDbXrecord
280
1
 40
793.1665914866936191
  0
XRECORD
  5
162
330
131
100
AcDbXrecord
280
1
 40
306.6308471493692309
  0
XRECORD
  5
163
330
131
100
AcDbXrecord
280
1
1000
Portrait
  0
XRECORD
  5
164
330
131
100
AcDbXrecord
280
1
 40
279.3999999999999773
  0
XRECORD
  5
165
330
131
100
AcDbXrecord
280
1
 40
215.9000000000000057
  0
XRECORD
  5
166
330
131
100
AcDbXrecord
280
1
 90
1
  0
XRECORD
  5
167
330
131
100
AcDbXrecord
280
1
290
1
  0
XRECORD
  5
168
330
131
100
AcDbXrecord
280
1
290
0
  0
XRECORD
  5
169
330
131
100
AcDbXrecord
280
1
1000
Inside
  0
XRECORD
  5
16A
330
131
100
AcDbXrecord
280
1
1000
Arial,10,-1,5,50,0,0,0,0,0
  0
XRECORD
  5
16B
330
131
100
AcDbXrecord
280
1
1000
TopLeft
  0
XRECORD
  5
16C
330
131
100
AcDbXrecord
280
1
1000
3.28.1
  0
XRECORD
  5
16D
330
131
100
AcDbXrecord
280
1
 90
4
  0
XRECORD
  5
16F
330
131
100
AcDbXrecord
280
1
 40
52.6888244682356799
  0
XRECORD
  5
170
330
131
100
AcDbXrecord
280
1
 40
98.1437324623489076
  0
IMAGEDEF
  5
66
100
AcDbRasterImageDef
 90
0
  1
C:/Users/iamth/Documents/OneDrive/Estudio Aut\U+00f3nomo/CAD/QCad/1. StudyCadCam/2D CAD EXERCISES 97.png
 10
200.0
 20
141.0
 11
1.0
 21
1.0
280
1
281
0
  0
ENDSEC
  0
EOF
