999
dxflib 3.26.4.0
  0
SECTION
  2
HEADER
  9
$ACADVER
  1
AC1015
  9
$HANDSEED
  5
FFFF
  9
$DIMADEC
 70
0
  9
$DIMASZ
 40
2.5
  9
$DIMATFIT
 70
0
  9
$DIMAUNIT
 70
0
  9
$DIMAZIN
 70
2
  9
$DIMBLK
  1
0
  9
$DIMBLK1
  1
0
  9
$DIMBLK2
  1
0
  9
$DIMDEC
 70
4
  9
$DIMDLI
 40
5.0
  9
$DIMDSEP
 70
46
  9
$DIMEXE
 40
1.25
  9
$DIMEXO
 40
0.625
  9
$DIMGAP
 40
0.625
  9
$DIMLFAC
 40
1.0
  9
$DIMLUNIT
 70
2
  9
$DIMSCALE
 40
1.0
  9
$DIMTAD
 70
1
  9
$DIMTIH
 70
0
  9
$DIMTSZ
 40
0.0
  9
$DIMTXT
 40
2.5
  9
$DIMZIN
 70
8
  9
$DWGCODEPAGE
  3
ANSI_1252
  9
$INSUNITS
 70
4
  9
$LTSCALE
 40
1.0
  9
$MAXACTVP
 70
64
  9
$MEASUREMENT
 70
1
  9
$MIRRTEXT
 70
0
  9
$PDMODE
 70
0
  9
$PDSIZE
 40
0.0
  0
ENDSEC
  0
SECTION
  2
TABLES
  0
TABLE
  2
VPORT
  5
8
100
AcDbSymbolTable
 70
1
  0
VPORT
  5
30
100
AcDbSymbolTableRecord
100
AcDbViewportTableRecord
  2
*Active
 70
0
 10
0.0
 20
0.0
 11
1.0
 21
1.0
 12
286.3055555555554861
 22
148.5
 13
0.0
 23
0.0
 14
10.0
 24
10.0
 15
10.0
 25
10.0
 16
0.0
 26
0.0
 36
1.0
 17
0.0
 27
0.0
 37
0.0
 40
297.0
 41
1.92798353909465
 42
50.0
 43
0.0
 44
0.0
 50
0.0
 51
0.0
 71
0
 72
100
 73
1
 74
3
 75
1
 76
1
 77
0
 78
0
281
0
 65
1
110
0.0
120
0.0
130
0.0
111
1.0
121
0.0
131
0.0
112
0.0
122
1.0
132
0.0
 79
0
146
0.0
  0
ENDTAB
  0
TABLE
  2
LTYPE
  5
5
100
AcDbSymbolTable
 70
41
  0
LTYPE
  5
16
100
AcDbSymbolTableRecord
100
AcDbLinetypeTableRecord
  2
Continuous
 70
0
  3
Solid line
 72
65
 73
0
 40
0.0
  0
LTYPE
  5
31
100
AcDbSymbolTableRecord
100
AcDbLinetypeTableRecord
  2
DIVIDEX2
 70
0
  3
Divide (2x) ________  .  .  ________  .  .  _
 72
65
 73
6
 40
63.5
 49
25.3999999999999986
 74
0
 49
-12.6499999999999986
 74
0
 49
0.1
 74
0
 49
-12.5999999999999979
 74
0
 49
0.1
 74
0
 49
-12.6499999999999986
 74
0
  0
LTYPE
  5
32
100
AcDbSymbolTableRecord
100
AcDbLinetypeTableRecord
  2
ACAD_ISO06W100
 70
0
  3
ISO long-dash triple-dot ____ ... ____ ... ____
 72
65
 73
8
 40
36.0000000000000071
 49
24.0
 74
0
 49
-2.9500000000000002
 74
0
 49
0.1
 74
0
 49
-2.9000000000000004
 74
0
 49
0.1
 74
0
 49
-2.9000000000000004
 74
0
 49
0.1
 74
0
 49
-2.9500000000000002
 74
0
  0
LTYPE
  5
33
100
AcDbSymbolTableRecord
100
AcDbLinetypeTableRecord
  2
ACAD_ISO03W100
 70
0
  3
ISO dash space __    __    __    __    __    __
 72
65
 73
2
 40
30.0
 49
12.0
 74
0
 49
-18.0
 74
0
  0
LTYPE
  5
34
100
AcDbSymbolTableRecord
100
AcDbLinetypeTableRecord
  2
ACAD_ISO02W100
 70
0
  3
ISO dash __ __ __ __ __ __ __ __ __ __ __ __ __
 72
65
 73
2
 40
15.0
 49
12.0
 74
0
 49
-3.0
 74
0
  0
LTYPE
  5
14
100
AcDbSymbolTableRecord
100
AcDbLinetypeTableRecord
  2
BYBLOCK
 70
0
  3

 72
65
 73
0
 40
0.0
  0
LTYPE
  5
35
100
AcDbSymbolTableRecord
100
AcDbLinetypeTableRecord
  2
BORDER2
 70
0
  3
Border (.5x) __.__.__.__.__.__.__.__.__.__.__.
 72
65
 73
6
 40
22.2250000000000014
 49
6.3499999999999996
 74
0
 49
-3.1749999999999998
 74
0
 49
6.3499999999999996
 74
0
 49
-3.125
 74
0
 49
0.1
 74
0
 49
-3.125
 74
0
  0
LTYPE
  5
36
100
AcDbSymbolTableRecord
100
AcDbLinetypeTableRecord
  2
PHANTOMX2
 70
0
  3
Phantom (2x) ____________    ____    ____   _
 72
65
 73
6
 40
127.0000000000000142
 49
63.5
 74
0
 49
-12.6999999999999993
 74
0
 49
12.6999999999999993
 74
0
 49
-12.6999999999999993
 74
0
 49
12.6999999999999993
 74
0
 49
-12.6999999999999993
 74
0
  0
LTYPE
  5
37
100
AcDbSymbolTableRecord
100
AcDbLinetypeTableRecord
  2
ACAD_ISO13W100
 70
0
  3
ISO double-dash double-dot __ __ . . __ __ . . _
 72
65
 73
8
 40
36.0000000000000071
 49
12.0
 74
0
 49
-3.0
 74
0
 49
12.0
 74
0
 49
-2.9500000000000002
 74
0
 49
0.1
 74
0
 49
-2.9000000000000004
 74
0
 49
0.1
 74
0
 49
-2.9500000000000002
 74
0
  0
LTYPE
  5
38
100
AcDbSymbolTableRecord
100
AcDbLinetypeTableRecord
  2
HIDDEN
 70
0
  3
Hidden __ __ __ __ __ __ __ __ __ __ __ __ __ __
 72
65
 73
2
 40
9.5249999999999986
 49
6.3499999999999996
 74
0
 49
-3.1749999999999998
 74
0
  0
LTYPE
  5
39
100
AcDbSymbolTableRecord
100
AcDbLinetypeTableRecord
  2
CENTER
 70
0
  3
Center ____ _ ____ _ ____ _ ____ _ ____ _ ____
 72
65
 73
4
 40
50.8000000000000043
 49
31.75
 74
0
 49
-6.3499999999999996
 74
0
 49
6.3499999999999996
 74
0
 49
-6.3499999999999996
 74
0
  0
LTYPE
  5
3A
100
AcDbSymbolTableRecord
100
AcDbLinetypeTableRecord
  2
ACAD_ISO04W100
 70
0
  3
ISO long-dash dot ____ . ____ . ____ . ____ . _
 72
65
 73
4
 40
30.0
 49
24.0
 74
0
 49
-2.9500000000000002
 74
0
 49
0.1
 74
0
 49
-2.9500000000000002
 74
0
  0
LTYPE
  5
3B
100
AcDbSymbolTableRecord
100
AcDbLinetypeTableRecord
  2
DASHED
 70
0
  3
Dashed __ __ __ __ __ __ __ __ __ __ __ __ __ _
 72
65
 73
2
 40
19.0499999999999972
 49
12.6999999999999993
 74
0
 49
-6.3499999999999996
 74
0
  0
LTYPE
  5
3C
100
AcDbSymbolTableRecord
100
AcDbLinetypeTableRecord
  2
ACAD_ISO10W100
 70
0
  3
ISO dash dot __ . __ . __ . __ . __ . __ . __ . 
 72
65
 73
4
 40
18.0
 49
12.0
 74
0
 49
-2.9500000000000002
 74
0
 49
0.1
 74
0
 49
-2.9500000000000002
 74
0
  0
LTYPE
  5
3D
100
AcDbSymbolTableRecord
100
AcDbLinetypeTableRecord
  2
BORDERX2
 70
0
  3
Border (2x) ____  ____  .  ____  ____  .  ___
 72
65
 73
6
 40
88.8999999999999773
 49
25.3999999999999986
 74
0
 49
-12.6999999999999993
 74
0
 49
25.3999999999999986
 74
0
 49
-12.6499999999999986
 74
0
 49
0.1
 74
0
 49
-12.6499999999999986
 74
0
  0
LTYPE
  5
3E
100
AcDbSymbolTableRecord
100
AcDbLinetypeTableRecord
  2
DASHDOT2
 70
0
  3
Dash dot (.5x) _._._._._._._._._._._._._._._.
 72
65
 73
4
 40
12.6999999999999993
 49
6.3499999999999996
 74
0
 49
-3.125
 74
0
 49
0.1
 74
0
 49
-3.125
 74
0
  0
LTYPE
  5
3F
100
AcDbSymbolTableRecord
100
AcDbLinetypeTableRecord
  2
DIVIDE2
 70
0
  3
Divide (.5x) __..__..__..__..__..__..__..__.._
 72
65
 73
6
 40
15.8749999999999982
 49
6.3499999999999996
 74
0
 49
-3.125
 74
0
 49
0.1
 74
0
 49
-3.0750000000000002
 74
0
 49
0.1
 74
0
 49
-3.125
 74
0
  0
LTYPE
  5
40
100
AcDbSymbolTableRecord
100
AcDbLinetypeTableRecord
  2
ACAD_ISO14W100
 70
0
  3
ISO dash triple-dot __ . . . __ . . . __ . . . _
 72
65
 73
8
 40
24.0000000000000036
 49
12.0
 74
0
 49
-2.9500000000000002
 74
0
 49
0.1
 74
0
 49
-2.9000000000000004
 74
0
 49
0.1
 74
0
 49
-2.9000000000000004
 74
0
 49
0.1
 74
0
 49
-2.9500000000000002
 74
0
  0
LTYPE
  5
41
100
AcDbSymbolTableRecord
100
AcDbLinetypeTableRecord
  2
DOTX2
 70
0
  3
Dot (2x) .  .  .  .  .  .  .  .  .  .  .  .  .  .
 72
65
 73
2
 40
12.6999999999999993
 49
0.1
 74
0
 49
-12.5999999999999996
 74
0
  0
LTYPE
  5
42
100
AcDbSymbolTableRecord
100
AcDbLinetypeTableRecord
  2
HIDDEN2
 70
0
  3
Hidden (.5x) _ _ _ _ _ _ _ _ _ _ _ _ _ _ _ _ _ 
 72
65
 73
2
 40
4.7624999999999993
 49
3.1749999999999998
 74
0
 49
-1.5874999999999999
 74
0
  0
LTYPE
  5
43
100
AcDbSymbolTableRecord
100
AcDbLinetypeTableRecord
  2
DOT2
 70
0
  3
Dot (.5x) ........................................
 72
65
 73
2
 40
3.1749999999999998
 49
0.1
 74
0
 49
-3.0749999999999997
 74
0
  0
LTYPE
  5
44
100
AcDbSymbolTableRecord
100
AcDbLinetypeTableRecord
  2
DOT
 70
0
  3
Dot . . . . . . . . . . . . . . . . . . . . . . . .
 72
65
 73
2
 40
6.3499999999999996
 49
0.1
 74
0
 49
-6.25
 74
0
  0
LTYPE
  5
45
100
AcDbSymbolTableRecord
100
AcDbLinetypeTableRecord
  2
ACAD_ISO08W100
 70
0
  3
ISO long-dash short-dash ____ __ ____ __ ____ _
 72
65
 73
4
 40
36.0
 49
24.0
 74
0
 49
-3.0
 74
0
 49
6.0
 74
0
 49
-3.0
 74
0
  0
LTYPE
  5
46
100
AcDbSymbolTableRecord
100
AcDbLinetypeTableRecord
  2
PHANTOM
 70
0
  3
Phantom ______  __  __  ______  __  __  ______ 
 72
65
 73
6
 40
63.5000000000000071
 49
31.75
 74
0
 49
-6.3499999999999996
 74
0
 49
6.3499999999999996
 74
0
 49
-6.3499999999999996
 74
0
 49
6.3499999999999996
 74
0
 49
-6.3499999999999996
 74
0
  0
LTYPE
  5
47
100
AcDbSymbolTableRecord
100
AcDbLinetypeTableRecord
  2
ACAD_ISO07W100
 70
0
  3
ISO dot . . . . . . . . . . . . . . . . . . . . 
 72
65
 73
2
 40
3.0
 49
0.1
 74
0
 49
-2.8999999999999999
 74
0
  0
LTYPE
  5
48
100
AcDbSymbolTableRecord
100
AcDbLinetypeTableRecord
  2
DASHEDX2
 70
0
  3
Dashed (2x) ____  ____  ____  ____  ____  ___
 72
65
 73
2
 40
38.0999999999999943
 49
25.3999999999999986
 74
0
 49
-12.6999999999999993
 74
0
  0
LTYPE
  5
49
100
AcDbSymbolTableRecord
100
AcDbLinetypeTableRecord
  2
DASHED2
 70
0
  3
Dashed (.5x) _ _ _ _ _ _ _ _ _ _ _ _ _ _ _ _ _ 
 72
65
 73
2
 40
9.5249999999999986
 49
6.3499999999999996
 74
0
 49
-3.1749999999999998
 74
0
  0
LTYPE
  5
4A
100
AcDbSymbolTableRecord
100
AcDbLinetypeTableRecord
  2
BORDER
 70
0
  3
Border __ __ . __ __ . __ __ . __ __ . __ __ .
 72
65
 73
6
 40
44.4499999999999957
 49
12.6999999999999993
 74
0
 49
-6.3499999999999996
 74
0
 49
12.6999999999999993
 74
0
 49
-6.2999999999999998
 74
0
 49
0.1
 74
0
 49
-6.2999999999999998
 74
0
  0
LTYPE
  5
4B
100
AcDbSymbolTableRecord
100
AcDbLinetypeTableRecord
  2
HIDDENX2
 70
0
  3
Hidden (2x) ____ ____ ____ ____ ____ ____ ____ 
 72
65
 73
2
 40
19.0499999999999972
 49
12.6999999999999993
 74
0
 49
-6.3499999999999996
 74
0
  0
LTYPE
  5
4C
100
AcDbSymbolTableRecord
100
AcDbLinetypeTableRecord
  2
ACAD_ISO12W100
 70
0
  3
ISO dash double-dot __ . . __ . . __ . . __ . . 
 72
65
 73
6
 40
21.0
 49
12.0
 74
0
 49
-2.9500000000000002
 74
0
 49
0.1
 74
0
 49
-2.9000000000000004
 74
0
 49
0.1
 74
0
 49
-2.9500000000000002
 74
0
  0
LTYPE
  5
4D
100
AcDbSymbolTableRecord
100
AcDbLinetypeTableRecord
  2
ACAD_ISO09W100
 70
0
  3
ISO long-dash double-short-dash ____ __ __ ____
 72
65
 73
6
 40
45.0
 49
24.0
 74
0
 49
-3.0
 74
0
 49
6.0
 74
0
 49
-3.0
 74
0
 49
6.0
 74
0
 49
-3.0
 74
0
  0
LTYPE
  5
15
100
AcDbSymbolTableRecord
100
AcDbLinetypeTableRecord
  2
BYLAYER
 70
0
  3

 72
65
 73
0
 40
0.0
  0
LTYPE
  5
4E
100
AcDbSymbolTableRecord
100
AcDbLinetypeTableRecord
  2
DASHDOTX2
 70
0
  3
Dash dot (2x) ____  .  ____  .  ____  .  ___
 72
65
 73
4
 40
50.7999999999999972
 49
25.3999999999999986
 74
0
 49
-12.6499999999999986
 74
0
 49
0.1
 74
0
 49
-12.6499999999999986
 74
0
  0
LTYPE
  5
4F
100
AcDbSymbolTableRecord
100
AcDbLinetypeTableRecord
  2
ACAD_ISO11W100
 70
0
  3
ISO double-dash dot __ __ . __ __ . __ __ . __ _
 72
65
 73
6
 40
33.0
 49
12.0
 74
0
 49
-3.0
 74
0
 49
12.0
 74
0
 49
-2.9500000000000002
 74
0
 49
0.1
 74
0
 49
-2.9500000000000002
 74
0
  0
LTYPE
  5
50
100
AcDbSymbolTableRecord
100
AcDbLinetypeTableRecord
  2
PHANTOM2
 70
0
  3
Phantom (.5x) ___ _ _ ___ _ _ ___ _ _ ___ _ _
 72
65
 73
6
 40
31.7500000000000036
 49
15.875
 74
0
 49
-3.1749999999999998
 74
0
 49
3.1749999999999998
 74
0
 49
-3.1749999999999998
 74
0
 49
3.1749999999999998
 74
0
 49
-3.1749999999999998
 74
0
  0
LTYPE
  5
51
100
AcDbSymbolTableRecord
100
AcDbLinetypeTableRecord
  2
ACAD_ISO05W100
 70
0
  3
ISO long-dash double-dot ____ .. ____ .. ____ . 
 72
65
 73
6
 40
33.0000000000000071
 49
24.0
 74
0
 49
-2.9500000000000002
 74
0
 49
0.1
 74
0
 49
-2.9000000000000004
 74
0
 49
0.1
 74
0
 49
-2.9500000000000002
 74
0
  0
LTYPE
  5
52
100
AcDbSymbolTableRecord
100
AcDbLinetypeTableRecord
  2
DASHDOT
 70
0
  3
Dash dot __ . __ . __ . __ . __ . __ . __ . __
 72
65
 73
4
 40
25.4000000000000021
 49
12.6999999999999993
 74
0
 49
-6.2999999999999998
 74
0
 49
0.1
 74
0
 49
-6.2999999999999998
 74
0
  0
LTYPE
  5
53
100
AcDbSymbolTableRecord
100
AcDbLinetypeTableRecord
  2
DIVIDE
 70
0
  3
Divide ____ . . ____ . . ____ . . ____ . . ____
 72
65
 73
6
 40
31.7500000000000036
 49
12.6999999999999993
 74
0
 49
-6.2999999999999998
 74
0
 49
0.1
 74
0
 49
-6.25
 74
0
 49
0.1
 74
0
 49
-6.2999999999999998
 74
0
  0
LTYPE
  5
54
100
AcDbSymbolTableRecord
100
AcDbLinetypeTableRecord
  2
CENTER2
 70
0
  3
Center (.5x) ___ _ ___ _ ___ _ ___ _ ___ _ ___
 72
65
 73
4
 40
28.5750000000000028
 49
19.0500000000000007
 74
0
 49
-3.1749999999999998
 74
0
 49
3.1749999999999998
 74
0
 49
-3.1749999999999998
 74
0
  0
LTYPE
  5
55
100
AcDbSymbolTableRecord
100
AcDbLinetypeTableRecord
  2
CENTERX2
 70
0
  3
Center (2x) ________  __  ________  __  _____
 72
65
 73
4
 40
101.6000000000000085
 49
63.5
 74
0
 49
-12.6999999999999993
 74
0
 49
12.6999999999999993
 74
0
 49
-12.6999999999999993
 74
0
  0
LTYPE
  5
56
100
AcDbSymbolTableRecord
100
AcDbLinetypeTableRecord
  2
ACAD_ISO15W100
 70
0
  3
ISO double-dash triple-dot __ __ . . . __ __ . .
 72
65
 73
10
 40
39.0000000000000071
 49
12.0
 74
0
 49
-3.0
 74
0
 49
12.0
 74
0
 49
-2.9500000000000002
 74
0
 49
0.1
 74
0
 49
-2.9000000000000004
 74
0
 49
0.1
 74
0
 49
-2.9000000000000004
 74
0
 49
0.1
 74
0
 49
-2.9500000000000002
 74
0
  0
ENDTAB
  0
TABLE
  2
LAYER
  5
2
100
AcDbSymbolTable
 70
7
  0
LAYER
  5
57
100
AcDbSymbolTableRecord
100
AcDbLayerTableRecord
  2
Contornos Ocultos
 70
0
 62
252
420
10526884
  6
ACAD_ISO02W100
370
30
390
F
  0
LAYER
  5
10
100
AcDbSymbolTableRecord
100
AcDbLayerTableRecord
  2
0
 70
0
 62
7
420
16777215
  6
Continuous
370
25
390
F
  0
LAYER
  5
58
100
AcDbSymbolTableRecord
100
AcDbLayerTableRecord
  2
Ejes de revoluci\U+00f3n
 70
0
 62
6
420
16711935
  6
ACAD_ISO04W100
370
20
390
F
  0
LAYER
  5
59
100
AcDbSymbolTableRecord
100
AcDbLayerTableRecord
  2
Contornos Visibles
 70
0
 62
7
420
16777215
  6
Continuous
370
50
390
F
  0
LAYER
  5
5A
100
AcDbSymbolTableRecord
100
AcDbLayerTableRecord
  2
Referencias 2
 70
1
 62
3
420
65280
  6
Continuous
370
25
390
F
  0
LAYER
  5
5B
100
AcDbSymbolTableRecord
100
AcDbLayerTableRecord
  2
Cotas
 70
0
 62
1
420
16711680
  6
Continuous
370
20
390
F
  0
LAYER
  5
5C
100
AcDbSymbolTableRecord
100
AcDbLayerTableRecord
  2
Referencias
 70
1
 62
2
420
16776960
  6
Continuous
370
25
390
F
  0
ENDTAB
  0
TABLE
  2
STYLE
  5
3
100
AcDbSymbolTable
 70
5
  0
STYLE
  5
5D
100
AcDbSymbolTableRecord
100
AcDbTextStyleTableRecord
  2
Standard
 70
0
 40
0.0
 41
1.0
 50
0.0
 71
0
 42
2.5
  3

  4

1001
ACAD
1000
txt
1071
0
  0
STYLE
  5
5E
100
AcDbSymbolTableRecord
100
AcDbTextStyleTableRecord
  2
textstyle0
 70
0
 40
0.0
 41
1.0
 50
0.0
 71
0
 42
2.5
  3

  4

1001
ACAD
1000
Arial
1071
0
  0
STYLE
  5
5F
100
AcDbSymbolTableRecord
100
AcDbTextStyleTableRecord
  2
textstyle1
 70
0
 40
0.0
 41
1.0
 50
0.0
 71
0
 42
2.5
  3

  4

1001
ACAD
1000
Arial
1071
0
  0
STYLE
  5
60
100
AcDbSymbolTableRecord
100
AcDbTextStyleTableRecord
  2
textstyle2
 70
0
 40
0.0
 41
1.0
 50
0.0
 71
0
 42
2.5
  3

  4

1001
ACAD
1000
Arial
1071
0
  0
STYLE
  5
61
100
AcDbSymbolTableRecord
100
AcDbTextStyleTableRecord
  2
textstyle3
 70
0
 40
0.0
 41
1.0
 50
0.0
 71
0
 42
2.5
  3

  4

1001
ACAD
1000
Arial
1071
0
  0
ENDTAB
  0
TABLE
  2
VIEW
  5
6
100
AcDbSymbolTable
 70
0
  0
ENDTAB
  0
TABLE
  2
UCS
  5
7
100
AcDbSymbolTable
 70
0
  0
ENDTAB
  0
TABLE
  2
APPID
  5
9
100
AcDbSymbolTable
 70
1
  0
APPID
  5
12
100
AcDbSymbolTableRecord
100
AcDbRegAppTableRecord
  2
ACAD
 70
0
  0
APPID
  5
62
100
AcDbSymbolTableRecord
100
AcDbRegAppTableRecord
  2
QCAD
 70
0
  0
ENDTAB
  0
TABLE
  2
DIMSTYLE
  5
A
100
AcDbSymbolTable
 70
1
100
AcDbDimStyleTable
 71
0
  0
DIMSTYLE
105
27
100
AcDbSymbolTableRecord
100
AcDbDimStyleTableRecord
  2
Standard
 41
2.5
 42
0.625
 43
3.75
 44
1.25
 70
0
 73
0
 74
0
 77
1
 78
8
140
2.5
141
2.5
143
0.03937007874016
147
0.625
171
3
172
1
271
2
272
2
274
3
278
44
283
0
284
8
340
5D
  0
ENDTAB
  0
TABLE
  2
BLOCK_RECORD
  5
1
100
AcDbSymbolTable
 70
1
  0
BLOCK_RECORD
  5
1F
100
AcDbSymbolTableRecord
100
AcDbBlockTableRecord
  2
*Model_Space
340
22
  0
BLOCK_RECORD
  5
1B
100
AcDbSymbolTableRecord
100
AcDbBlockTableRecord
  2
*Paper_Space
340
1E
  0
BLOCK_RECORD
  5
23
100
AcDbSymbolTableRecord
100
AcDbBlockTableRecord
  2
*Paper_Space0
340
26
  0
ENDTAB
  0
ENDSEC
  0
SECTION
  2
BLOCKS
  0
BLOCK
  5
20
100
AcDbEntity
  8
0
100
AcDbBlockBegin
  2
*Model_Space
 70
0
 10
0.0
 20
0.0
 30
0.0
  3
*Model_Space
  1

  0
ENDBLK
  5
21
100
AcDbEntity
  8
0
100
AcDbBlockEnd
  0
BLOCK
  5
1C
100
AcDbEntity
 67
1
  8
0
100
AcDbBlockBegin
  2
*Paper_Space
 70
0
 10
0.0
 20
0.0
 30
0.0
  3
*Paper_Space
  1

  0
ENDBLK
  5
1D
100
AcDbEntity
 67
1
  8
0
100
AcDbBlockEnd
  0
BLOCK
  5
24
100
AcDbEntity
  8
0
100
AcDbBlockBegin
  2
*Paper_Space0
 70
0
 10
0.0
 20
0.0
 30
0.0
  3
*Paper_Space0
  1

  0
ENDBLK
  5
25
100
AcDbEntity
  8
0
100
AcDbBlockEnd
  0
ENDSEC
  0
SECTION
  2
ENTITIES
  0
CIRCLE
  5
63
100
AcDbEntity
  8
Contornos Visibles
 62
256
370
-1
 48
1.0
  6
BYLAYER
100
AcDbCircle
 10
1699.3193889785038664
 20
349.7796910764307086
 30
0.0
 40
25.0
  0
IMAGE
  5
64
100
AcDbEntity
  8
0
 62
256
370
-1
 48
1.0
  6
BYLAYER
100
AcDbRasterImage
 90
0
 10
1332.7159521355815741
 20
289.246148957782566
 30
0.0
 11
0.125
 21
0.0
 31
0.0
 12
0.0
 22
0.125
 32
0.0
 13
200.0
 23
141.0
340
65
 70
15
280
0
281
50
282
50
283
0
  0
LWPOLYLINE
  5
66
100
AcDbEntity
  8
Contornos Visibles
 62
256
370
-1
 48
1.0
  6
BYLAYER
100
AcDbPolyline
 90
6
 70
129
 10
1699.3193889785038664
 20
367.6775494213090951
 10
1683.8193889785038664
 20
358.7286202488699018
 10
1683.8193889785038664
 20
340.8307619039915153
 10
1699.3193889785038664
 20
331.881832731552322
 10
1714.8193889785038664
 20
340.8307619039915153
 10
1714.8193889785038664
 20
358.7286202488699018
  0
ARC
  5
67
100
AcDbEntity
  8
Contornos Visibles
 62
256
370
-1
 48
1.0
  6
BYLAYER
100
AcDbCircle
 10
1699.3193889785038664
 20
349.7796910764307086
 30
0.0
 40
32.0
100
AcDbArc
 50
330.2364674709937162
 51
29.8276493630099928
  0
LINE
  5
68
100
AcDbEntity
  8
Referencias
 62
256
370
-1
 48
1.0
  6
BYLAYER
100
AcDbLine
 10
1699.3193889785038664
 20
349.7796910764307086
 30
0.0
 11
1745.3193889785038664
 21
349.7796910764307086
 31
0.0
  0
LINE
  5
69
100
AcDbEntity
  8
Ejes de revoluci\U+00f3n
 62
256
370
-1
 48
1.0
  6
BYLAYER
100
AcDbLine
 10
1745.3193889785038664
 20
300.7796910764307086
 30
0.0
 11
1745.3193889785038664
 21
398.7796910764307086
 31
0.0
  0
ELLIPSE
  5
6A
100
AcDbEntity
  8
Contornos Visibles
 62
256
370
-1
 48
1.0
  6
BYLAYER
100
AcDbEllipse
 10
1745.3193889785038664
 20
349.7796910764307086
 30
0.0
 11
78.0
 21
0.0
 31
0.0
 40
0.6282051282051282
 41
0.0
 42
6.2831853071795862
  0
LINE
  5
6B
100
AcDbEntity
  8
Referencias
 62
256
370
-1
 48
1.0
  6
BYLAYER
100
AcDbLine
 10
1745.3193889785038664
 20
349.7796910764307086
 30
0.0
 11
1805.3193889785038664
 21
349.7796910764307086
 31
0.0
  0
CIRCLE
  5
6C
100
AcDbEntity
  8
Contornos Visibles
 62
256
370
-1
 48
1.0
  6
BYLAYER
100
AcDbCircle
 10
1805.3193889785038664
 20
349.7796910764307086
 30
0.0
 40
10.0
  0
ARC
  5
6D
100
AcDbEntity
  8
Contornos Visibles
 62
256
370
-1
 48
1.0
  6
BYLAYER
100
AcDbCircle
 10
1805.3193889785038664
 20
349.7796910764307086
 30
0.0
 40
18.0
100
AcDbArc
 50
132.4613605115973769
 51
227.367304189028232
  0
XLINE
  5
6E
100
AcDbEntity
  8
Referencias 2
 62
256
370
-1
 48
1.0
  6
BYLAYER
100
AcDbLine
 10
1805.3193889785038664
 20
349.7796910764307086
 30
0.0
 11
0.0
 21
1.0
 31
0.0
  0
XLINE
  5
6F
100
AcDbEntity
  8
Referencias
 62
256
370
-1
 48
1.0
  6
BYLAYER
100
AcDbLine
 10
1699.3193889785038664
 20
349.7796910764307086
 30
0.0
 11
0.0
 21
1.0
 31
0.0
  0
LINE
  5
70
100
AcDbEntity
  8
Referencias 2
 62
256
370
-1
 48
1.0
  6
BYLAYER
100
AcDbLine
 10
1745.3193889785038664
 20
300.7796910764307086
 30
0.0
 11
1745.3193889785038664
 21
312.7796910764307086
 31
0.0
  0
LINE
  5
71
100
AcDbEntity
  8
Referencias 2
 62
256
370
-1
 48
1.0
  6
BYLAYER
100
AcDbLine
 10
1745.3193889785038664
 20
386.7796910764307086
 30
0.0
 11
1745.3193889785038664
 21
398.7796910764307086
 31
0.0
  0
ARC
  5
72
100
AcDbEntity
  8
Contornos Visibles
 62
256
370
-1
 48
1.0
  6
BYLAYER
100
AcDbCircle
 10
1739.2255631933617224
 20
372.6597535661490497
 30
0.0
 40
14.0
100
AcDbArc
 50
96.4910859368173135
 51
209.8276493630102379
  0
ARC
  5
73
100
AcDbEntity
  8
Contornos Visibles
 62
256
370
-1
 48
1.0
  6
BYLAYER
100
AcDbCircle
 10
1739.251142132026871
 20
326.94429990206919
 30
0.0
 40
14.0
100
AcDbArc
 50
150.2364674709939152
 51
264.124803400506778
  0
ARC
  5
74
100
AcDbEntity
  8
Contornos Visibles
 62
256
370
-1
 48
1.0
  6
BYLAYER
100
AcDbCircle
 10
1787.7096952424697065
 20
330.6512126601248269
 30
0.0
 40
8.0
100
AcDbArc
 50
294.9503421003592507
 51
47.367304189028232
  0
ARC
  5
75
100
AcDbEntity
  8
Contornos Visibles
 62
256
370
-1
 48
1.0
  6
BYLAYER
100
AcDbCircle
 10
1787.7669750268485132
 20
368.9607433017320091
 30
0.0
 40
8.0
100
AcDbArc
 50
312.4613605115964674
 51
65.8150635415883727
  0
LWPOLYLINE
  5
76
100
AcDbEntity
  8
Referencias 2
 62
256
370
-1
 48
1.0
  6
BYLAYER
100
AcDbPolyline
 90
63
 70
0
 10
1811.3193889785038664
 20
349.7796910764307086
 10
1811.0799024956484118
 20
352.7789190797568608
 10
1810.3444144773404787
 20
355.8294139836116301
 10
1809.0700354734990469
 20
358.9590620729294983
 10
1807.2068207926895411
 20
362.1610786678096474
 10
1804.7158277711814662
 20
365.397092883444202
 10
1801.5792941331064867
 20
368.6082743946353162
 10
1797.8027684046426202
 20
371.7271447342506576
 10
1793.412491129143973
 20
374.6862518276346918
 10
1788.4511837316624678
 20
377.4232026748225621
 10
1782.9740080627134375
 20
379.883012385532993
 10
1777.0453111726212683
 20
382.0188876099535378
 10
1770.736179190259918
 20
383.7922507464488717
 10
1764.122621055807258
 20
385.1724733243265177
 10
1757.2841825660041195
 20
386.1365529674276331
 10
1750.3028315717235728
 20
386.6688354422916518
 10
1743.2620025425860604
 20
386.7608176956870807
 10
1736.2457252670956223
 20
386.4110401938240784
 10
1729.3377848227505638
 20
385.625068465050731
 10
1722.6208688992849147
 20
384.4155635353156981
 10
1716.1756548937864864
 20
382.8024419881509175
 10
1710.0797725574832384
 20
380.8131224003433317
 10
1704.4065472944237172
 20
378.4828370390238206
 10
1699.2233853430489035
 20
375.8549408563262091
 10
1694.5896149658397007
 20
372.98104909307051
 10
1690.5535827124185744
 20
369.9206463624014987
 10
1687.1489103686567432
 20
366.7395105628408487
 10
1684.3902194843396956
 20
363.5059409637344743
 10
1682.2695418211196738
 20
360.2836617606058098
 10
1680.7560255713849529
 20
357.1210804280803472
 10
1679.8024830850401941
 20
354.039145551171714
 10
1679.3606016866219761
 20
351.0239191893301722
 10
1679.4007475962062017
 20
348.0315204833611347
 10
1679.9258452540639155
 20
345.0075039304388724
 10
1680.9699538252536968
 20
341.9120115565787614
 10
1682.5825628296047398
 20
338.7370404884626964
 10
1684.8089502070595245
 20
335.5089053890067134
 10
1687.6763490158555214
 20
332.2794552502199963
 10
1691.1887759654086949
 20
329.1138443985557274
 10
1695.3281205951384436
 20
326.0803418587486817
 10
1700.0579919663368855
 20
323.2438565726218371
 10
1705.3279574794755717
 20
320.6626171285133751
 10
1711.0771500478174403
 20
318.3868564849838094
 10
1717.2370345678871217
 20
316.4585463379032717
 10
1723.7334607733916982
 20
314.9115820454494497
 10
1730.4882060097570502
 20
313.7721002336883203
 10
1737.4201866757973676
 20
313.0587824889097419
 10
1744.4464690302186227
 20
312.7830880012940611
 10
1751.483168100645571
 20
312.9493985597696906
 10
1758.4462951626269387
 20
313.5550739916644716
 10
1765.2525998714297657
 20
314.590418769892608
 10
1771.8204515768634337
 20
316.0385592613285439
 10
1778.0708154754786392
 20
317.8752321299658661
 10
1783.9284039911747186
 20
320.068495111484367
 10
1789.3231226019745463
 20
322.5784037729407032
 10
1794.1919774113525818
 20
325.3567724562570334
 10
1798.4816471186793478
 20
328.3472852903852299
 10
1802.1518819127475126
 20
331.4864762992730789
 10
1805.1796395984990795
 20
334.7064463182571785
 10
1807.5631914961211351
 20
337.9404593928779832
 10
1809.3241952900680189
 20
341.1322477395527812
 10
1810.5044043170933037
 20
344.2480877703445685
 10
1811.153989842541705
 20
347.2871494724065542
  0
POINT
  5
77
100
AcDbEntity
  8
Referencias
 62
256
370
-1
 48
1.0
  6
BYLAYER
100
AcDbPoint
 10
1739.7538639048407276
 20
386.5859289447555511
 30
0.0
  0
POINT
  5
78
100
AcDbEntity
  8
Referencias
 62
256
370
-1
 48
1.0
  6
BYLAYER
100
AcDbPoint
 10
1743.2620025425849235
 20
386.7608176956870807
 30
0.0
  0
POINT
  5
79
100
AcDbEntity
  8
Referencias
 62
256
370
-1
 48
1.0
  6
BYLAYER
100
AcDbPoint
 10
1746.7824170571548166
 20
386.7148265689893378
 30
0.0
  0
POINT
  5
7A
100
AcDbEntity
  8
Referencias
 62
256
370
-1
 48
1.0
  6
BYLAYER
100
AcDbPoint
 10
1750.3028315717240275
 20
386.6688354422916518
 30
0.0
  0
POINT
  5
7B
100
AcDbEntity
  8
Referencias
 62
256
370
-1
 48
1.0
  6
BYLAYER
100
AcDbPoint
 10
1753.7935070688638461
 20
386.4026942048596425
 30
0.0
  0
POINT
  5
7C
100
AcDbEntity
  8
Referencias
 62
256
370
-1
 48
1.0
  6
BYLAYER
100
AcDbPoint
 10
1757.2841825660018458
 20
386.13655296742769
 30
0.0
  0
POINT
  5
7D
100
AcDbEntity
  8
Referencias
 62
256
370
-1
 48
1.0
  6
BYLAYER
100
AcDbPoint
 10
1760.7034018109056888
 20
385.6545131458771039
 30
0.0
  0
POINT
  5
7E
100
AcDbEntity
  8
Referencias
 62
256
370
-1
 48
1.0
  6
BYLAYER
100
AcDbPoint
 10
1764.1226210558074854
 20
385.1724733243264041
 30
0.0
  0
POINT
  5
7F
100
AcDbEntity
  8
Referencias
 62
256
370
-1
 48
1.0
  6
BYLAYER
100
AcDbPoint
 10
1767.4294001230337017
 20
384.4823620353877232
 30
0.0
  0
POINT
  5
80
100
AcDbEntity
  8
Referencias
 62
256
370
-1
 48
1.0
  6
BYLAYER
100
AcDbPoint
 10
1770.7361791902578716
 20
383.7922507464494402
 30
0.0
  0
POINT
  5
81
100
AcDbEntity
  8
Referencias
 62
256
370
-1
 48
1.0
  6
BYLAYER
100
AcDbPoint
 10
1773.8907451814407068
 20
382.9055691782011763
 30
0.0
  0
POINT
  5
82
100
AcDbEntity
  8
Referencias
 62
256
370
-1
 48
1.0
  6
BYLAYER
100
AcDbPoint
 10
1777.0453111726203588
 20
382.0188876099535946
 30
0.0
  0
POINT
  5
83
100
AcDbEntity
  8
Referencias
 62
256
370
-1
 48
1.0
  6
BYLAYER
100
AcDbPoint
 10
1780.0096596176672392
 20
380.950949997743237
 30
0.0
  0
POINT
  5
84
100
AcDbEntity
  8
Referencias
 62
256
370
-1
 48
1.0
  6
BYLAYER
100
AcDbPoint
 10
1782.9740080627136649
 20
379.8830123855326519
 30
0.0
  0
POINT
  5
85
100
AcDbEntity
  8
Referencias
 62
256
370
-1
 48
1.0
  6
BYLAYER
100
AcDbPoint
 10
1785.712595897187839
 20
378.6531075301777491
 30
0.0
  0
POINT
  5
86
100
AcDbEntity
  8
Referencias
 62
256
370
-1
 48
1.0
  6
BYLAYER
100
AcDbPoint
 10
1788.4511837316642868
 20
377.4232026748219369
 30
0.0
  0
POINT
  5
87
100
AcDbEntity
  8
Referencias
 62
256
370
-1
 48
1.0
  6
BYLAYER
100
AcDbPoint
 10
1789.3231226019754558
 20
322.5784037729408738
 30
0.0
  0
POINT
  5
88
100
AcDbEntity
  8
Referencias
 62
256
370
-1
 48
1.0
  6
BYLAYER
100
AcDbPoint
 10
1786.6257632965746325
 20
321.3234494422125636
 30
0.0
  0
POINT
  5
89
100
AcDbEntity
  8
Referencias
 62
256
370
-1
 48
1.0
  6
BYLAYER
100
AcDbPoint
 10
1783.9284039911747186
 20
320.0684951114845376
 30
0.0
  0
POINT
  5
8A
100
AcDbEntity
  8
Referencias
 62
256
370
-1
 48
1.0
  6
BYLAYER
100
AcDbPoint
 10
1780.9996097333266789
 20
318.9718636207251166
 30
0.0
  0
POINT
  5
8B
100
AcDbEntity
  8
Referencias
 62
256
370
-1
 48
1.0
  6
BYLAYER
100
AcDbPoint
 10
1778.0708154754788666
 20
317.8752321299659798
 30
0.0
  0
POINT
  5
8C
100
AcDbEntity
  8
Referencias
 62
256
370
-1
 48
1.0
  6
BYLAYER
100
AcDbPoint
 10
1774.9456335261711502
 20
316.9568956956471766
 30
0.0
  0
POINT
  5
8D
100
AcDbEntity
  8
Referencias
 62
256
370
-1
 48
1.0
  6
BYLAYER
100
AcDbPoint
 10
1771.820451576862979
 20
316.0385592613283734
 30
0.0
  0
POINT
  5
8E
100
AcDbEntity
  8
Referencias
 62
256
370
-1
 48
1.0
  6
BYLAYER
100
AcDbPoint
 10
1768.536525724146486
 20
315.3144890156105475
 30
0.0
  0
POINT
  5
8F
100
AcDbEntity
  8
Referencias
 62
256
370
-1
 48
1.0
  6
BYLAYER
100
AcDbPoint
 10
1765.2525998714304478
 20
314.5904187698926648
 30
0.0
  0
POINT
  5
90
100
AcDbEntity
  8
Referencias
 62
256
370
-1
 48
1.0
  6
BYLAYER
100
AcDbPoint
 10
1761.8494475170282385
 20
314.0727463807785398
 30
0.0
  0
POINT
  5
91
100
AcDbEntity
  8
Referencias
 62
256
370
-1
 48
1.0
  6
BYLAYER
100
AcDbPoint
 10
1758.4462951626269387
 20
313.5550739916644716
 30
0.0
  0
POINT
  5
92
100
AcDbEntity
  8
Referencias
 62
256
370
-1
 48
1.0
  6
BYLAYER
100
AcDbPoint
 10
1754.9647316316363685
 20
313.2522362757171095
 30
0.0
  0
POINT
  5
93
100
AcDbEntity
  8
Referencias
 62
256
370
-1
 48
1.0
  6
BYLAYER
100
AcDbPoint
 10
1751.4831681006451163
 20
312.9493985597696906
 30
0.0
  0
POINT
  5
94
100
AcDbEntity
  8
Referencias
 62
256
370
-1
 48
1.0
  6
BYLAYER
100
AcDbPoint
 10
1747.9648185654320969
 20
312.8662432805318758
 30
0.0
  0
POINT
  5
95
100
AcDbEntity
  8
Referencias
 62
256
370
-1
 48
1.0
  6
BYLAYER
100
AcDbPoint
 10
1744.4464690302188501
 20
312.7830880012941179
 30
0.0
  0
POINT
  5
96
100
AcDbEntity
  8
Referencias
 62
256
370
-1
 48
1.0
  6
BYLAYER
100
AcDbPoint
 10
1740.9333278530079951
 20
312.9209352451018731
 30
0.0
  0
LWPOLYLINE
  5
97
100
AcDbEntity
  8
Contornos Visibles
 62
256
370
-1
 48
1.0
  6
BYLAYER
100
AcDbPolyline
 90
18
 70
20480
 10
1737.6428823350672701
 20
386.5700059470653969
 10
1739.7538639048407276
 20
386.5859289447555511
 10
1743.2620025425849235
 20
386.7608176956870807
 10
1746.7824170571548166
 20
386.7148265689893378
 10
1750.3028315717240275
 20
386.6688354422916518
 10
1753.7935070688638461
 20
386.4026942048596425
 10
1757.2841825660018458
 20
386.13655296742769
 10
1760.7034018109056888
 20
385.6545131458771039
 10
1764.1226210558074854
 20
385.1724733243264041
 10
1767.4294001230337017
 20
384.4823620353877232
 10
1770.7361791902578716
 20
383.7922507464494402
 10
1773.8907451814407068
 20
382.9055691782011763
 10
1777.0453111726203588
 20
382.0188876099535946
 10
1780.0096596176672392
 20
380.950949997743237
 10
1782.9740080627136649
 20
379.8830123855326519
 10
1785.712595897187839
 20
378.6531075301777491
 10
1788.4511837316642868
 20
377.4232026748219369
 10
1791.04444075196011
 20
376.2585661565784108
  0
LWPOLYLINE
  5
98
100
AcDbEntity
  8
Contornos Visibles
 62
256
370
-1
 48
1.0
  6
BYLAYER
100
AcDbPolyline
 90
18
 70
20480
 10
1737.8180752615451183
 20
313.0178387814281109
 10
1740.9333278530079951
 20
312.9209352451018731
 10
1744.4464690302188501
 20
312.7830880012941179
 10
1747.9648185654320969
 20
312.8662432805318758
 10
1751.4831681006451163
 20
312.9493985597696906
 10
1754.9647316316363685
 20
313.2522362757171095
 10
1758.4462951626269387
 20
313.5550739916644716
 10
1761.8494475170282385
 20
314.0727463807785398
 10
1765.2525998714304478
 20
314.5904187698926648
 10
1768.536525724146486
 20
315.3144890156105475
 10
1771.820451576862979
 20
316.0385592613283734
 10
1774.9456335261711502
 20
316.9568956956471766
 10
1778.0708154754788666
 20
317.8752321299659798
 10
1780.9996097333266789
 20
318.9718636207251166
 10
1783.9284039911747186
 20
320.0684951114845376
 10
1786.6257632965746325
 20
321.3234494422125636
 10
1789.3231226019754558
 20
322.5784037729408738
 10
1791.0843561362994478
 20
323.3978228421392487
  0
LINE
  5
99
100
AcDbEntity
  8
Ejes de revoluci\U+00f3n
 62
256
370
-1
 48
1.0
  6
BYLAYER
100
AcDbLine
 10
1657.3193889785038664
 20
349.7796910764307086
 30
0.0
 11
1833.3193889785038664
 21
349.7796910764307086
 31
0.0
  0
LINE
  5
9A
100
AcDbEntity
  8
Ejes de revoluci\U+00f3n
 62
256
370
-1
 48
1.0
  6
BYLAYER
100
AcDbLine
 10
1699.3193889785038664
 20
374.7796910764307086
 30
0.0
 11
1699.3193889785038664
 21
324.7796910764307086
 31
0.0
  0
LINE
  5
9B
100
AcDbEntity
  8
Ejes de revoluci\U+00f3n
 62
256
370
-1
 48
1.0
  6
BYLAYER
100
AcDbLine
 10
1805.3193889785038664
 20
337.2796910764307086
 30
0.0
 11
1805.3193889785038664
 21
362.2796910764307086
 31
0.0
  0
LINE
  5
9C
100
AcDbEntity
  8
Ejes de revoluci\U+00f3n
 62
256
370
-1
 48
1.0
  6
BYLAYER
100
AcDbLine
 10
1739.251142132026871
 20
326.94429990206919
 30
0.0
 11
1725.251142132026871
 21
326.94429990206919
 31
0.0
  0
LINE
  5
9D
100
AcDbEntity
  8
Ejes de revoluci\U+00f3n
 62
256
370
-1
 48
1.0
  6
BYLAYER
100
AcDbLine
 10
1739.2255631933617224
 20
372.6597535661490497
 30
0.0
 11
1725.2255631933617224
 21
372.6597535661490497
 31
0.0
  0
LINE
  5
9E
100
AcDbEntity
  8
Ejes de revoluci\U+00f3n
 62
256
370
-1
 48
1.0
  6
BYLAYER
100
AcDbLine
 10
1795.7669750268485132
 20
368.9607433017320091
 30
0.0
 11
1787.7520149189406311
 21
368.9607433017320091
 31
0.0
  0
LINE
  5
9F
100
AcDbEntity
  8
Ejes de revoluci\U+00f3n
 62
256
370
-1
 48
1.0
  6
BYLAYER
100
AcDbLine
 10
1795.7096952424697065
 20
330.6512126601248269
 30
0.0
 11
1787.7246488797295569
 21
330.6512126601248269
 31
0.0
  0
DIMENSION
  5
A0
100
AcDbEntity
  8
Cotas
 62
256
370
-1
 48
1.0
  6
BYLAYER
100
AcDbDimension
 10
1750.2001578885988238
 20
398.7796910764307086
 30
0.0
 11
1748.3251578885988238
 21
392.7702543860588662
 31
0.0
 70
0
 71
8
 72
2
 74
0
 75
0
 41
1.0
 42
0.0
  1
12
  3
Standard
100
AcDbAlignedDimension
 13
1745.3193889785038664
 23
398.7796910764307086
 33
0.0
 14
1743.262002542584014
 24
386.7608176956870238
 34
0.0
 50
90.0
100
AcDbRotatedDimension
1001
ACAD
1000
DSTYLE
1002
{
1070
144
1040
1.0
1070
40
1040
1.0
1002
}
  0
MTEXT
  5
A1
100
AcDbEntity
  8
Cotas
 62
256
370
-1
 48
1.0
  6
BYLAYER
100
AcDbMText
 10
1741.9841299985093883
 20
375.7265510974228846
 30
0.0
 40
2.5
 41
0.0
 71
1
 72
1
  1
R14
  7
textstyle2
 50
0.0
 73
2
 44
1.0
  0
MTEXT
  5
A2
100
AcDbEntity
  8
Cotas
 62
256
370
-1
 48
1.0
  6
BYLAYER
100
AcDbMText
 10
1739.251142132026871
 20
326.94429990206919
 30
0.0
 40
2.5
 41
0.0
 71
1
 72
1
  1
R32
  7
textstyle3
 50
0.0
 73
2
 44
1.0
  0
MTEXT
  5
A3
100
AcDbEntity
  8
Cotas
 62
256
370
-1
 48
1.0
  6
BYLAYER
100
AcDbMText
 10
1777.7874723139689195
 20
353.8794577974754247
 30
0.0
 40
2.5
 41
0.0
 71
1
 72
1
  1
R18
  7
textstyle0
 50
0.0
 73
2
 44
1.0
  0
MTEXT
  5
A4
100
AcDbEntity
  8
Cotas
 62
256
370
-1
 48
1.0
  6
BYLAYER
100
AcDbMText
 10
1785.4455912370199258
 20
368.657518245375968
 30
0.0
 40
2.5
 41
0.0
 71
1
 72
1
  1
R8
  7
textstyle1
 50
0.0
 73
2
 44
1.0
  0
LEADER
  5
A5
100
AcDbEntity
  8
Cotas
 62
256
370
-1
 48
1.0
  6
BYLAYER
100
AcDbLeader
  3
Standard
 71
1
 72
0
 73
3
 74
0
 75
0
 40
1.0
 41
10.0
 76
3
 10
1726.7338413497243437
 20
378.9808994576146119
 10
1741.7341299985093883
 20
372.9663191738212618
 10
1748.1972001910439758
 20
372.9663191738212618
1001
ACAD
1000
DSTYLE
1002
{
1070
40
1040
1.0
1002
}
  0
LEADER
  5
A6
100
AcDbEntity
  8
Cotas
 62
256
370
-1
 48
1.0
  6
BYLAYER
100
AcDbLeader
  3
Standard
 71
1
 72
0
 73
3
 74
0
 75
0
 40
1.0
 41
10.0
 76
3
 10
1728.1672096257079829
 20
335.9303862596991053
 10
1739.001142132026871
 20
324.1397296428604591
 10
1745.4488644391590242
 20
324.1397296428604591
1001
ACAD
1000
DSTYLE
1002
{
1070
40
1040
1.0
1002
}
  0
LEADER
  5
A7
100
AcDbEntity
  8
Cotas
 62
256
370
-1
 48
1.0
  6
BYLAYER
100
AcDbLeader
  3
Standard
 71
1
 72
0
 73
3
 74
0
 75
0
 40
1.0
 41
10.0
 76
3
 10
1795.2019209898003282
 20
366.0075114232661804
 10
1789.7308157238851436
 20
365.8546533067675455
 10
1785.1955912370199258
 20
365.8546533067675455
1001
ACAD
1000
DSTYLE
1002
{
1070
40
1040
1.0
1002
}
  0
LEADER
  5
A8
100
AcDbEntity
  8
Cotas
 62
256
370
-1
 48
1.0
  6
BYLAYER
100
AcDbLeader
  3
Standard
 71
1
 72
0
 73
3
 74
0
 75
0
 40
1.0
 41
10.0
 76
3
 10
1787.3194090986378342
 20
349.8066043522937321
 10
1784.0158903919059412
 20
351.0765928588670022
 10
1777.5374723139689195
 20
351.0765928588670022
1001
ACAD
1000
DSTYLE
1002
{
1070
40
1040
1.0
1002
}
  0
DIMENSION
  5
A9
100
AcDbEntity
  8
Cotas
 62
256
370
-1
 48
1.0
  6
BYLAYER
100
AcDbDimension
 10
1813.9078292378205788
 20
354.9020629793823218
 30
0.0
 11
1804.3589442467005028
 21
351.3900236250526063
 31
0.0
 70
3
 71
8
 72
2
 74
0
 75
0
 41
1.0
 42
0.0
  1
\U+00f8<>
  3
Standard
100
AcDbDiametricDimension
 15
1796.730948719187154
 25
344.6573191734790953
 35
0.0
 40
0.0
1001
ACAD
1000
DSTYLE
1002
{
1070
144
1040
1.0
1070
40
1040
1.0
1002
}
  0
DIMENSION
  5
AA
100
AcDbEntity
  8
Cotas
 62
256
370
-1
 48
1.0
  6
BYLAYER
100
AcDbDimension
 10
1717.9630047745131378
 20
366.4354885671182842
 30
0.0
 11
1698.0702041667022968
 21
351.1779622611314267
 31
0.0
 70
3
 71
8
 72
2
 74
0
 75
0
 41
1.0
 42
0.0
  1
\U+00f8<>
  3
Standard
100
AcDbDiametricDimension
 15
1680.6757731824945949
 25
333.1238935857431329
 35
0.0
 40
0.0
1001
ACAD
1000
DSTYLE
1002
{
1070
144
1040
1.0
1070
40
1040
1.0
1002
}
  0
DIMENSION
  5
AB
100
AcDbEntity
  8
Cotas
 62
256
370
-1
 48
1.0
  6
BYLAYER
100
AcDbDimension
 10
1674.7110774170546392
 20
346.0894480358571741
 30
0.0
 11
1680.8372797849588096
 21
360.4503417945160209
 31
0.0
 70
1
 71
8
 72
2
 74
0
 75
0
 41
1.0
 42
0.0
  1

  3
Standard
100
AcDbAlignedDimension
 13
1683.8193889785038664
 23
340.8307619039915153
 33
0.0
 14
1699.3193889785038664
 24
367.6775494213092088
 34
0.0
1001
ACAD
1000
DSTYLE
1002
{
1070
144
1040
1.0
1070
40
1040
1.0
1002
}
  0
DIMENSION
  5
AC
100
AcDbEntity
  8
Cotas
 62
256
370
-1
 48
1.0
  6
BYLAYER
100
AcDbDimension
 10
1699.3193889785038664
 20
286.4618296714726284
 30
0.0
 11
1722.3193889785038664
 21
288.3368296714726284
 31
0.0
 70
0
 71
8
 72
2
 74
0
 75
0
 41
1.0
 42
0.0
  1

  3
Standard
100
AcDbAlignedDimension
 13
1699.3193889785038664
 23
324.7796910764307086
 33
0.0
 14
1745.3193889785038664
 24
300.7796910764307086
 34
0.0
 50
0.0
100
AcDbRotatedDimension
1001
ACAD
1000
DSTYLE
1002
{
1070
144
1040
1.0
1070
40
1040
1.0
1002
}
  0
DIMENSION
  5
AD
100
AcDbEntity
  8
Cotas
 62
256
370
-1
 48
1.0
  6
BYLAYER
100
AcDbDimension
 10
1745.3193889785038664
 20
286.4618296714726284
 30
0.0
 11
1775.3193889785038664
 21
288.3368296714726284
 31
0.0
 70
0
 71
8
 72
2
 74
0
 75
0
 41
1.0
 42
0.0
  1

  3
Standard
100
AcDbAlignedDimension
 13
1745.3193889785038664
 23
300.7796910764307086
 33
0.0
 14
1805.3193889785038664
 24
337.2796910764307086
 34
0.0
 50
0.0
100
AcDbRotatedDimension
1001
ACAD
1000
DSTYLE
1002
{
1070
144
1040
1.0
1070
40
1040
1.0
1002
}
  0
DIMENSION
  5
AE
100
AcDbEntity
  8
Cotas
 62
256
370
-1
 48
1.0
  6
BYLAYER
100
AcDbDimension
 10
1667.3193889785038664
 20
275.6146460307030566
 30
0.0
 11
1745.3193889785038664
 21
277.4896460307030566
 31
0.0
 70
0
 71
8
 72
2
 74
0
 75
0
 41
1.0
 42
0.0
  1

  3
Standard
100
AcDbAlignedDimension
 13
1667.3193889785038664
 23
349.7796910764307086
 33
0.0
 14
1823.3193889785038664
 24
349.7796910764307086
 34
0.0
 50
0.0
100
AcDbRotatedDimension
1001
ACAD
1000
DSTYLE
1002
{
1070
144
1040
1.0
1070
40
1040
1.0
1002
}
  0
DIMENSION
  5
AF
100
AcDbEntity
  8
Cotas
 62
256
370
-1
 48
1.0
  6
BYLAYER
100
AcDbDimension
 10
1641.7701085987396254
 20
398.7796910764307086
 30
0.0
 11
1639.8951085987396254
 21
349.7796910764307086
 31
0.0
 70
0
 71
8
 72
2
 74
0
 75
0
 41
1.0
 42
0.0
  1

  3
Standard
100
AcDbAlignedDimension
 13
1745.3193889785038664
 23
398.7796910764307086
 33
0.0
 14
1745.3193889785038664
 24
300.7796910764307086
 34
0.0
 50
90.0
100
AcDbRotatedDimension
1001
ACAD
1000
DSTYLE
1002
{
1070
144
1040
1.0
1070
40
1040
1.0
1002
}
  0
ENDSEC
  0
SECTION
  2
OBJECTS
  0
DICTIONARY
  5
C
100
AcDbDictionary
280
0
281
1
  3
ACAD_GROUP
350
D
  3
ACAD_LAYOUT
350
1A
  3
ACAD_MLINESTYLE
350
17
  3
ACAD_PLOTSETTINGS
350
19
  3
ACAD_PLOTSTYLENAME
350
E
  3
AcDbVariableDictionary
350
B0
  3
QCAD_OBJECTS
350
B1
  0
DICTIONARY
  5
D
100
AcDbDictionary
280
0
281
1
  0
ACDBDICTIONARYWDFLT
  5
E
100
AcDbDictionary
281
1
  3
Normal
350
F
100
AcDbDictionaryWithDefault
340
F
  0
ACDBPLACEHOLDER
  5
F
  0
DICTIONARY
  5
17
100
AcDbDictionary
280
0
281
1
  3
Standard
350
18
  0
MLINESTYLE
  5
18
100
AcDbMlineStyle
  2
STANDARD
 70
0
  3

 62
256
 51
90.0
 52
90.0
 71
2
 49
0.5
 62
256
  6
BYLAYER
 49
-0.5
 62
256
  6
BYLAYER
  0
DICTIONARY
  5
19
100
AcDbDictionary
280
0
281
1
  0
DICTIONARY
  5
1A
100
AcDbDictionary
281
1
  3
Layout1
350
1E
  3
Layout2
350
26
  3
Model
350
22
  0
LAYOUT
  5
1E
100
AcDbPlotSettings
  1

  2
none_device
  4

  6

 40
0.0
 41
0.0
 42
0.0
 43
0.0
 44
0.0
 45
0.0
 46
0.0
 47
0.0
 48
0.0
 49
0.0
140
0.0
141
0.0
142
1.0
143
1.0
 70
688
 72
0
 73
0
 74
5
  7

 75
16
147
1.0
148
0.0
149
0.0
100
AcDbLayout
  1
Layout1
 70
1
 71
1
 10
0.0
 20
0.0
 11
420.0
 21
297.0
 12
0.0
 22
0.0
 32
0.0
 14
100000000000000000000.0
 24
100000000000000000000.0
 34
100000000000000000000.0
 15
-100000000000000000000.0
 25
-100000000000000000000.0
 35
-100000000000000000000.0
146
0.0
 13
0.0
 23
0.0
 33
0.0
 16
1.0
 26
0.0
 36
0.0
 17
0.0
 27
1.0
 37
0.0
 76
0
330
1B
  0
LAYOUT
  5
22
100
AcDbPlotSettings
  1

  2
none_device
  4

  6

 40
0.0
 41
0.0
 42
0.0
 43
0.0
 44
0.0
 45
0.0
 46
0.0
 47
0.0
 48
0.0
 49
0.0
140
0.0
141
0.0
142
1.0
143
1.0
 70
1712
 72
0
 73
0
 74
0
  7

 75
0
147
1.0
148
0.0
149
0.0
100
AcDbLayout
  1
Model
 70
1
 71
0
 10
0.0
 20
0.0
 11
12.0
 21
9.0
 12
0.0
 22
0.0
 32
0.0
 14
0.0
 24
0.0
 34
0.0
 15
0.0
 25
0.0
 35
0.0
146
0.0
 13
0.0
 23
0.0
 33
0.0
 16
1.0
 26
0.0
 36
0.0
 17
0.0
 27
1.0
 37
0.0
 76
0
330
1F
  0
LAYOUT
  5
26
100
AcDbPlotSettings
  1

  2
none_device
  4

  6

 40
0.0
 41
0.0
 42
0.0
 43
0.0
 44
0.0
 45
0.0
 46
0.0
 47
0.0
 48
0.0
 49
0.0
140
0.0
141
0.0
142
1.0
143
1.0
 70
688
 72
0
 73
0
 74
5
  7

 75
16
147
1.0
148
0.0
149
0.0
100
AcDbLayout
  1
Layout2
 70
1
 71
2
 10
0.0
 20
0.0
 11
12.0
 21
9.0
 12
0.0
 22
0.0
 32
0.0
 14
0.0
 24
0.0
 34
0.0
 15
0.0
 25
0.0
 35
0.0
146
0.0
 13
0.0
 23
0.0
 33
0.0
 16
1.0
 26
0.0
 36
0.0
 17
0.0
 27
1.0
 37
0.0
 76
0
330
23
  0
DICTIONARY
  5
B0
100
AcDbDictionary
281
1
  3
DIMASSOC
350
B3
  3
HIDETEXT
350
B2
  0
DICTIONARYVAR
  5
B2
100
DictionaryVariables
280
0
  1
2
  0
DICTIONARYVAR
  5
B3
100
DictionaryVariables
280
0
  1
1
  0
DICTIONARY
  5
B1
100
AcDbDictionary
281
1
  3
ColorSettings/BackgroundColor
350
B4
  3
ColorSettings/ColorMode
350
B5
  3
Grid/DisplayGrid00
350
B6
  3
Grid/DisplayGrid01
350
B7
  3
Grid/DisplayGrid02
350
B8
  3
Grid/DisplayGrid03
350
B9
  3
Grid/GridSpacingX00
350
BA
  3
Grid/GridSpacingX01
350
BB
  3
Grid/GridSpacingX02
350
BC
  3
Grid/GridSpacingX03
350
BD
  3
Grid/GridSpacingY00
350
BE
  3
Grid/GridSpacingY01
350
BF
  3
Grid/GridSpacingY02
350
C0
  3
Grid/GridSpacingY03
350
C1
  3
Grid/IsometricGrid00
350
C2
  3
Grid/IsometricGrid01
350
C3
  3
Grid/IsometricGrid02
350
C4
  3
Grid/IsometricGrid03
350
C5
  3
Grid/IsometricProjection00
350
C6
  3
Grid/IsometricProjection01
350
C7
  3
Grid/IsometricProjection02
350
C8
  3
Grid/IsometricProjection03
350
C9
  3
Grid/MetaGridSpacingX00
350
CA
  3
Grid/MetaGridSpacingX01
350
CB
  3
Grid/MetaGridSpacingX02
350
CC
  3
Grid/MetaGridSpacingX03
350
CD
  3
Grid/MetaGridSpacingY00
350
CE
  3
Grid/MetaGridSpacingY01
350
CF
  3
Grid/MetaGridSpacingY02
350
D0
  3
Grid/MetaGridSpacingY03
350
D1
  3
MultiPageSettings/Columns
350
D2
  3
MultiPageSettings/GlueMarginsBottom
350
D3
  3
MultiPageSettings/GlueMarginsLeft
350
D4
  3
MultiPageSettings/GlueMarginsRight
350
D5
  3
MultiPageSettings/GlueMarginsTop
350
D6
  3
MultiPageSettings/PrintCropMarks
350
D7
  3
MultiPageSettings/Rows
350
D8
  3
PageSettings/OffsetX
350
D9
  3
PageSettings/OffsetY
350
DA
  3
PageSettings/PageOrientation
350
DB
  3
PageSettings/PaperHeight
350
DC
  3
PageSettings/PaperWidth
350
DD
  3
PageSettings/Scale
350
DE
  3
PageSettings/ShowPaperBorders
350
DF
  3
PageTagSettings/EnablePageTags
350
E0
  3
PageTagSettings/TagAlignment
350
E1
  3
PageTagSettings/TagFont
350
E2
  3
PageTagSettings/TagPosition
350
E3
  3
QCADVersion
350
E4
  3
UnitSettings/PaperUnit
350
E5
  3
ViewportCenter
350
E6
  3
ViewportHeight
350
E7
  3
ViewportWidth
350
E8
  0
XRECORD
  5
B4
330
B1
100
AcDbXrecord
280
1
1000
Blanca
  0
XRECORD
  5
B5
330
B1
100
AcDbXrecord
280
1
1000
FullColor
  0
XRECORD
  5
B6
330
B1
100
AcDbXrecord
280
1
290
0
  0
XRECORD
  5
B7
330
B1
100
AcDbXrecord
280
1
290
1
  0
XRECORD
  5
B8
330
B1
100
AcDbXrecord
280
1
290
1
  0
XRECORD
  5
B9
330
B1
100
AcDbXrecord
280
1
290
1
  0
XRECORD
  5
BA
330
B1
100
AcDbXrecord
280
1
1000
auto
  0
XRECORD
  5
BB
330
B1
100
AcDbXrecord
280
1
1000
auto
  0
XRECORD
  5
BC
330
B1
100
AcDbXrecord
280
1
1000
auto
  0
XRECORD
  5
BD
330
B1
100
AcDbXrecord
280
1
1000
auto
  0
XRECORD
  5
BE
330
B1
100
AcDbXrecord
280
1
1000
auto
  0
XRECORD
  5
BF
330
B1
100
AcDbXrecord
280
1
1000
auto
  0
XRECORD
  5
C0
330
B1
100
AcDbXrecord
280
1
1000
auto
  0
XRECORD
  5
C1
330
B1
100
AcDbXrecord
280
1
1000
auto
  0
XRECORD
  5
C2
330
B1
100
AcDbXrecord
280
1
290
0
  0
XRECORD
  5
C3
330
B1
100
AcDbXrecord
280
1
290
0
  0
XRECORD
  5
C4
330
B1
100
AcDbXrecord
280
1
290
0
  0
XRECORD
  5
C5
330
B1
100
AcDbXrecord
280
1
290
0
  0
XRECORD
  5
C6
330
B1
100
AcDbXrecord
280
1
 90
65537
  0
XRECORD
  5
C7
330
B1
100
AcDbXrecord
280
1
 90
65537
  0
XRECORD
  5
C8
330
B1
100
AcDbXrecord
280
1
 90
65537
  0
XRECORD
  5
C9
330
B1
100
AcDbXrecord
280
1
 90
65537
  0
XRECORD
  5
CA
330
B1
100
AcDbXrecord
280
1
1000
auto
  0
XRECORD
  5
CB
330
B1
100
AcDbXrecord
280
1
1000
auto
  0
XRECORD
  5
CC
330
B1
100
AcDbXrecord
280
1
1000
auto
  0
XRECORD
  5
CD
330
B1
100
AcDbXrecord
280
1
1000
auto
  0
XRECORD
  5
CE
330
B1
100
AcDbXrecord
280
1
1000
1
  0
XRECORD
  5
CF
330
B1
100
AcDbXrecord
280
1
1000
auto
  0
XRECORD
  5
D0
330
B1
100
AcDbXrecord
280
1
1000
auto
  0
XRECORD
  5
D1
330
B1
100
AcDbXrecord
280
1
1000
auto
  0
XRECORD
  5
D2
330
B1
100
AcDbXrecord
280
1
 90
1
  0
XRECORD
  5
D3
330
B1
100
AcDbXrecord
280
1
 40
10.0
  0
XRECORD
  5
D4
330
B1
100
AcDbXrecord
280
1
 40
10.0
  0
XRECORD
  5
D5
330
B1
100
AcDbXrecord
280
1
 40
10.0
  0
XRECORD
  5
D6
330
B1
100
AcDbXrecord
280
1
 40
10.0
  0
XRECORD
  5
D7
330
B1
100
AcDbXrecord
280
1
290
0
  0
XRECORD
  5
D8
330
B1
100
AcDbXrecord
280
1
 90
1
  0
XRECORD
  5
D9
330
B1
100
AcDbXrecord
280
1
 40
793.1665914866936191
  0
XRECORD
  5
DA
330
B1
100
AcDbXrecord
280
1
 40
306.6308471493692309
  0
XRECORD
  5
DB
330
B1
100
AcDbXrecord
280
1
1000
Portrait
  0
XRECORD
  5
DC
330
B1
100
AcDbXrecord
280
1
 40
279.3999999999999773
  0
XRECORD
  5
DD
330
B1
100
AcDbXrecord
280
1
 40
215.9000000000000057
  0
XRECORD
  5
DE
330
B1
100
AcDbXrecord
280
1
 90
1
  0
XRECORD
  5
DF
330
B1
100
AcDbXrecord
280
1
290
1
  0
XRECORD
  5
E0
330
B1
100
AcDbXrecord
280
1
290
0
  0
XRECORD
  5
E1
330
B1
100
AcDbXrecord
280
1
1000
Inside
  0
XRECORD
  5
E2
330
B1
100
AcDbXrecord
280
1
1000
Arial,10,-1,5,50,0,0,0,0,0
  0
XRECORD
  5
E3
330
B1
100
AcDbXrecord
280
1
1000
TopLeft
  0
XRECORD
  5
E4
330
B1
100
AcDbXrecord
280
1
1000
3.28.1
  0
XRECORD
  5
E5
330
B1
100
AcDbXrecord
280
1
 90
4
  0
XRECORD
  5
E7
330
B1
100
AcDbXrecord
280
1
 40
127.7662233999589603
  0
XRECORD
  5
E8
330
B1
100
AcDbXrecord
280
1
 40
237.9907726855792589
  0
IMAGEDEF
  5
65
100
AcDbRasterImageDef
 90
0
  1
C:/Users/iamth/Documents/CAD/QCad/Learn QCAD/1. StudyCadCam/2D CAD EXERCISES 46.png
 10
200.0
 20
141.0
 11
1.0
 21
1.0
280
1
281
0
  0
ENDSEC
  0
EOF
