999
dxflib 3.26.4.0
  0
SECTION
  2
HEADER
  9
$ACADVER
  1
AC1015
  9
$HANDSEED
  5
FFFF
  9
$DIMADEC
 70
0
  9
$DIMASZ
 40
2.5
  9
$DIMATFIT
 70
0
  9
$DIMAUNIT
 70
0
  9
$DIMAZIN
 70
2
  9
$DIMBLK
  1
0
  9
$DIMBLK1
  1
0
  9
$DIMBLK2
  1
0
  9
$DIMDEC
 70
4
  9
$DIMDLI
 40
5.0
  9
$DIMDSEP
 70
46
  9
$DIMEXE
 40
1.25
  9
$DIMEXO
 40
0.625
  9
$DIMGAP
 40
0.625
  9
$DIMLFAC
 40
1.0
  9
$DIMLUNIT
 70
2
  9
$DIMSCALE
 40
1.0
  9
$DIMTAD
 70
1
  9
$DIMTIH
 70
0
  9
$DIMTSZ
 40
0.0
  9
$DIMTXT
 40
2.5
  9
$DIMZIN
 70
8
  9
$DWGCODEPAGE
  3
ANSI_1252
  9
$INSUNITS
 70
4
  9
$LTSCALE
 40
1.0
  9
$MAXACTVP
 70
64
  9
$MEASUREMENT
 70
1
  9
$MIRRTEXT
 70
0
  9
$PDMODE
 70
0
  9
$PDSIZE
 40
0.0
  0
ENDSEC
  0
SECTION
  2
TABLES
  0
TABLE
  2
VPORT
  5
8
100
AcDbSymbolTable
 70
1
  0
VPORT
  5
30
100
AcDbSymbolTableRecord
100
AcDbViewportTableRecord
  2
*Active
 70
0
 10
0.0
 20
0.0
 11
1.0
 21
1.0
 12
286.3055555555554861
 22
148.5
 13
0.0
 23
0.0
 14
10.0
 24
10.0
 15
10.0
 25
10.0
 16
0.0
 26
0.0
 36
1.0
 17
0.0
 27
0.0
 37
0.0
 40
297.0
 41
1.92798353909465
 42
50.0
 43
0.0
 44
0.0
 50
0.0
 51
0.0
 71
0
 72
100
 73
1
 74
3
 75
1
 76
1
 77
0
 78
0
281
0
 65
1
110
0.0
120
0.0
130
0.0
111
1.0
121
0.0
131
0.0
112
0.0
122
1.0
132
0.0
 79
0
146
0.0
  0
ENDTAB
  0
TABLE
  2
LTYPE
  5
5
100
AcDbSymbolTable
 70
41
  0
LTYPE
  5
16
100
AcDbSymbolTableRecord
100
AcDbLinetypeTableRecord
  2
Continuous
 70
0
  3
Solid line
 72
65
 73
0
 40
0.0
  0
LTYPE
  5
31
100
AcDbSymbolTableRecord
100
AcDbLinetypeTableRecord
  2
DOT
 70
0
  3
Dot . . . . . . . . . . . . . . . . . . . . . . . .
 72
65
 73
2
 40
6.3499999999999996
 49
0.1
 74
0
 49
-6.25
 74
0
  0
LTYPE
  5
32
100
AcDbSymbolTableRecord
100
AcDbLinetypeTableRecord
  2
DIVIDEX2
 70
0
  3
Divide (2x) ________  .  .  ________  .  .  _
 72
65
 73
6
 40
63.5
 49
25.3999999999999986
 74
0
 49
-12.6499999999999986
 74
0
 49
0.1
 74
0
 49
-12.5999999999999979
 74
0
 49
0.1
 74
0
 49
-12.6499999999999986
 74
0
  0
LTYPE
  5
33
100
AcDbSymbolTableRecord
100
AcDbLinetypeTableRecord
  2
BORDER
 70
0
  3
Border __ __ . __ __ . __ __ . __ __ . __ __ .
 72
65
 73
6
 40
44.4499999999999957
 49
12.6999999999999993
 74
0
 49
-6.3499999999999996
 74
0
 49
12.6999999999999993
 74
0
 49
-6.2999999999999998
 74
0
 49
0.1
 74
0
 49
-6.2999999999999998
 74
0
  0
LTYPE
  5
34
100
AcDbSymbolTableRecord
100
AcDbLinetypeTableRecord
  2
ACAD_ISO03W100
 70
0
  3
ISO dash space __    __    __    __    __    __
 72
65
 73
2
 40
30.0
 49
12.0
 74
0
 49
-18.0
 74
0
  0
LTYPE
  5
35
100
AcDbSymbolTableRecord
100
AcDbLinetypeTableRecord
  2
ACAD_ISO12W100
 70
0
  3
ISO dash double-dot __ . . __ . . __ . . __ . . 
 72
65
 73
6
 40
21.0
 49
12.0
 74
0
 49
-2.9500000000000002
 74
0
 49
0.1
 74
0
 49
-2.9000000000000004
 74
0
 49
0.1
 74
0
 49
-2.9500000000000002
 74
0
  0
LTYPE
  5
36
100
AcDbSymbolTableRecord
100
AcDbLinetypeTableRecord
  2
ACAD_ISO07W100
 70
0
  3
ISO dot . . . . . . . . . . . . . . . . . . . . 
 72
65
 73
2
 40
3.0
 49
0.1
 74
0
 49
-2.8999999999999999
 74
0
  0
LTYPE
  5
37
100
AcDbSymbolTableRecord
100
AcDbLinetypeTableRecord
  2
ACAD_ISO09W100
 70
0
  3
ISO long-dash double-short-dash ____ __ __ ____
 72
65
 73
6
 40
45.0
 49
24.0
 74
0
 49
-3.0
 74
0
 49
6.0
 74
0
 49
-3.0
 74
0
 49
6.0
 74
0
 49
-3.0
 74
0
  0
LTYPE
  5
38
100
AcDbSymbolTableRecord
100
AcDbLinetypeTableRecord
  2
HIDDENX2
 70
0
  3
Hidden (2x) ____ ____ ____ ____ ____ ____ ____ 
 72
65
 73
2
 40
19.0499999999999972
 49
12.6999999999999993
 74
0
 49
-6.3499999999999996
 74
0
  0
LTYPE
  5
39
100
AcDbSymbolTableRecord
100
AcDbLinetypeTableRecord
  2
DASHED
 70
0
  3
Dashed __ __ __ __ __ __ __ __ __ __ __ __ __ _
 72
65
 73
2
 40
19.0499999999999972
 49
12.6999999999999993
 74
0
 49
-6.3499999999999996
 74
0
  0
LTYPE
  5
3A
100
AcDbSymbolTableRecord
100
AcDbLinetypeTableRecord
  2
ACAD_ISO02W100
 70
0
  3
ISO dash __ __ __ __ __ __ __ __ __ __ __ __ __
 72
65
 73
2
 40
15.0
 49
12.0
 74
0
 49
-3.0
 74
0
  0
LTYPE
  5
3B
100
AcDbSymbolTableRecord
100
AcDbLinetypeTableRecord
  2
DOTX2
 70
0
  3
Dot (2x) .  .  .  .  .  .  .  .  .  .  .  .  .  .
 72
65
 73
2
 40
12.6999999999999993
 49
0.1
 74
0
 49
-12.5999999999999996
 74
0
  0
LTYPE
  5
3C
100
AcDbSymbolTableRecord
100
AcDbLinetypeTableRecord
  2
PHANTOM2
 70
0
  3
Phantom (.5x) ___ _ _ ___ _ _ ___ _ _ ___ _ _
 72
65
 73
6
 40
31.7500000000000036
 49
15.875
 74
0
 49
-3.1749999999999998
 74
0
 49
3.1749999999999998
 74
0
 49
-3.1749999999999998
 74
0
 49
3.1749999999999998
 74
0
 49
-3.1749999999999998
 74
0
  0
LTYPE
  5
14
100
AcDbSymbolTableRecord
100
AcDbLinetypeTableRecord
  2
BYBLOCK
 70
0
  3

 72
65
 73
0
 40
0.0
  0
LTYPE
  5
3D
100
AcDbSymbolTableRecord
100
AcDbLinetypeTableRecord
  2
ACAD_ISO15W100
 70
0
  3
ISO double-dash triple-dot __ __ . . . __ __ . .
 72
65
 73
10
 40
39.0000000000000071
 49
12.0
 74
0
 49
-3.0
 74
0
 49
12.0
 74
0
 49
-2.9500000000000002
 74
0
 49
0.1
 74
0
 49
-2.9000000000000004
 74
0
 49
0.1
 74
0
 49
-2.9000000000000004
 74
0
 49
0.1
 74
0
 49
-2.9500000000000002
 74
0
  0
LTYPE
  5
3E
100
AcDbSymbolTableRecord
100
AcDbLinetypeTableRecord
  2
CENTERX2
 70
0
  3
Center (2x) ________  __  ________  __  _____
 72
65
 73
4
 40
101.6000000000000085
 49
63.5
 74
0
 49
-12.6999999999999993
 74
0
 49
12.6999999999999993
 74
0
 49
-12.6999999999999993
 74
0
  0
LTYPE
  5
3F
100
AcDbSymbolTableRecord
100
AcDbLinetypeTableRecord
  2
ACAD_ISO04W100
 70
0
  3
ISO long-dash dot ____ . ____ . ____ . ____ . _
 72
65
 73
4
 40
30.0
 49
24.0
 74
0
 49
-2.9500000000000002
 74
0
 49
0.1
 74
0
 49
-2.9500000000000002
 74
0
  0
LTYPE
  5
40
100
AcDbSymbolTableRecord
100
AcDbLinetypeTableRecord
  2
DIVIDE
 70
0
  3
Divide ____ . . ____ . . ____ . . ____ . . ____
 72
65
 73
6
 40
31.7500000000000036
 49
12.6999999999999993
 74
0
 49
-6.2999999999999998
 74
0
 49
0.1
 74
0
 49
-6.25
 74
0
 49
0.1
 74
0
 49
-6.2999999999999998
 74
0
  0
LTYPE
  5
41
100
AcDbSymbolTableRecord
100
AcDbLinetypeTableRecord
  2
DASHDOT
 70
0
  3
Dash dot __ . __ . __ . __ . __ . __ . __ . __
 72
65
 73
4
 40
25.4000000000000021
 49
12.6999999999999993
 74
0
 49
-6.2999999999999998
 74
0
 49
0.1
 74
0
 49
-6.2999999999999998
 74
0
  0
LTYPE
  5
42
100
AcDbSymbolTableRecord
100
AcDbLinetypeTableRecord
  2
PHANTOMX2
 70
0
  3
Phantom (2x) ____________    ____    ____   _
 72
65
 73
6
 40
127.0000000000000142
 49
63.5
 74
0
 49
-12.6999999999999993
 74
0
 49
12.6999999999999993
 74
0
 49
-12.6999999999999993
 74
0
 49
12.6999999999999993
 74
0
 49
-12.6999999999999993
 74
0
  0
LTYPE
  5
43
100
AcDbSymbolTableRecord
100
AcDbLinetypeTableRecord
  2
ACAD_ISO13W100
 70
0
  3
ISO double-dash double-dot __ __ . . __ __ . . _
 72
65
 73
8
 40
36.0000000000000071
 49
12.0
 74
0
 49
-3.0
 74
0
 49
12.0
 74
0
 49
-2.9500000000000002
 74
0
 49
0.1
 74
0
 49
-2.9000000000000004
 74
0
 49
0.1
 74
0
 49
-2.9500000000000002
 74
0
  0
LTYPE
  5
44
100
AcDbSymbolTableRecord
100
AcDbLinetypeTableRecord
  2
HIDDEN
 70
0
  3
Hidden __ __ __ __ __ __ __ __ __ __ __ __ __ __
 72
65
 73
2
 40
9.5249999999999986
 49
6.3499999999999996
 74
0
 49
-3.1749999999999998
 74
0
  0
LTYPE
  5
45
100
AcDbSymbolTableRecord
100
AcDbLinetypeTableRecord
  2
DOT2
 70
0
  3
Dot (.5x) ........................................
 72
65
 73
2
 40
3.1749999999999998
 49
0.1
 74
0
 49
-3.0749999999999997
 74
0
  0
LTYPE
  5
46
100
AcDbSymbolTableRecord
100
AcDbLinetypeTableRecord
  2
DIVIDE2
 70
0
  3
Divide (.5x) __..__..__..__..__..__..__..__.._
 72
65
 73
6
 40
15.8749999999999982
 49
6.3499999999999996
 74
0
 49
-3.125
 74
0
 49
0.1
 74
0
 49
-3.0750000000000002
 74
0
 49
0.1
 74
0
 49
-3.125
 74
0
  0
LTYPE
  5
47
100
AcDbSymbolTableRecord
100
AcDbLinetypeTableRecord
  2
CENTER2
 70
0
  3
Center (.5x) ___ _ ___ _ ___ _ ___ _ ___ _ ___
 72
65
 73
4
 40
28.5750000000000028
 49
19.0500000000000007
 74
0
 49
-3.1749999999999998
 74
0
 49
3.1749999999999998
 74
0
 49
-3.1749999999999998
 74
0
  0
LTYPE
  5
48
100
AcDbSymbolTableRecord
100
AcDbLinetypeTableRecord
  2
BORDERX2
 70
0
  3
Border (2x) ____  ____  .  ____  ____  .  ___
 72
65
 73
6
 40
88.8999999999999773
 49
25.3999999999999986
 74
0
 49
-12.6999999999999993
 74
0
 49
25.3999999999999986
 74
0
 49
-12.6499999999999986
 74
0
 49
0.1
 74
0
 49
-12.6499999999999986
 74
0
  0
LTYPE
  5
49
100
AcDbSymbolTableRecord
100
AcDbLinetypeTableRecord
  2
ACAD_ISO14W100
 70
0
  3
ISO dash triple-dot __ . . . __ . . . __ . . . _
 72
65
 73
8
 40
24.0000000000000036
 49
12.0
 74
0
 49
-2.9500000000000002
 74
0
 49
0.1
 74
0
 49
-2.9000000000000004
 74
0
 49
0.1
 74
0
 49
-2.9000000000000004
 74
0
 49
0.1
 74
0
 49
-2.9500000000000002
 74
0
  0
LTYPE
  5
4A
100
AcDbSymbolTableRecord
100
AcDbLinetypeTableRecord
  2
DASHEDX2
 70
0
  3
Dashed (2x) ____  ____  ____  ____  ____  ___
 72
65
 73
2
 40
38.0999999999999943
 49
25.3999999999999986
 74
0
 49
-12.6999999999999993
 74
0
  0
LTYPE
  5
4B
100
AcDbSymbolTableRecord
100
AcDbLinetypeTableRecord
  2
PHANTOM
 70
0
  3
Phantom ______  __  __  ______  __  __  ______ 
 72
65
 73
6
 40
63.5000000000000071
 49
31.75
 74
0
 49
-6.3499999999999996
 74
0
 49
6.3499999999999996
 74
0
 49
-6.3499999999999996
 74
0
 49
6.3499999999999996
 74
0
 49
-6.3499999999999996
 74
0
  0
LTYPE
  5
4C
100
AcDbSymbolTableRecord
100
AcDbLinetypeTableRecord
  2
HIDDEN2
 70
0
  3
Hidden (.5x) _ _ _ _ _ _ _ _ _ _ _ _ _ _ _ _ _ 
 72
65
 73
2
 40
4.7624999999999993
 49
3.1749999999999998
 74
0
 49
-1.5874999999999999
 74
0
  0
LTYPE
  5
4D
100
AcDbSymbolTableRecord
100
AcDbLinetypeTableRecord
  2
DASHDOTX2
 70
0
  3
Dash dot (2x) ____  .  ____  .  ____  .  ___
 72
65
 73
4
 40
50.7999999999999972
 49
25.3999999999999986
 74
0
 49
-12.6499999999999986
 74
0
 49
0.1
 74
0
 49
-12.6499999999999986
 74
0
  0
LTYPE
  5
15
100
AcDbSymbolTableRecord
100
AcDbLinetypeTableRecord
  2
BYLAYER
 70
0
  3

 72
65
 73
0
 40
0.0
  0
LTYPE
  5
4E
100
AcDbSymbolTableRecord
100
AcDbLinetypeTableRecord
  2
DASHDOT2
 70
0
  3
Dash dot (.5x) _._._._._._._._._._._._._._._.
 72
65
 73
4
 40
12.6999999999999993
 49
6.3499999999999996
 74
0
 49
-3.125
 74
0
 49
0.1
 74
0
 49
-3.125
 74
0
  0
LTYPE
  5
4F
100
AcDbSymbolTableRecord
100
AcDbLinetypeTableRecord
  2
ACAD_ISO05W100
 70
0
  3
ISO long-dash double-dot ____ .. ____ .. ____ . 
 72
65
 73
6
 40
33.0000000000000071
 49
24.0
 74
0
 49
-2.9500000000000002
 74
0
 49
0.1
 74
0
 49
-2.9000000000000004
 74
0
 49
0.1
 74
0
 49
-2.9500000000000002
 74
0
  0
LTYPE
  5
50
100
AcDbSymbolTableRecord
100
AcDbLinetypeTableRecord
  2
DASHED2
 70
0
  3
Dashed (.5x) _ _ _ _ _ _ _ _ _ _ _ _ _ _ _ _ _ 
 72
65
 73
2
 40
9.5249999999999986
 49
6.3499999999999996
 74
0
 49
-3.1749999999999998
 74
0
  0
LTYPE
  5
51
100
AcDbSymbolTableRecord
100
AcDbLinetypeTableRecord
  2
ACAD_ISO08W100
 70
0
  3
ISO long-dash short-dash ____ __ ____ __ ____ _
 72
65
 73
4
 40
36.0
 49
24.0
 74
0
 49
-3.0
 74
0
 49
6.0
 74
0
 49
-3.0
 74
0
  0
LTYPE
  5
52
100
AcDbSymbolTableRecord
100
AcDbLinetypeTableRecord
  2
ACAD_ISO06W100
 70
0
  3
ISO long-dash triple-dot ____ ... ____ ... ____
 72
65
 73
8
 40
36.0000000000000071
 49
24.0
 74
0
 49
-2.9500000000000002
 74
0
 49
0.1
 74
0
 49
-2.9000000000000004
 74
0
 49
0.1
 74
0
 49
-2.9000000000000004
 74
0
 49
0.1
 74
0
 49
-2.9500000000000002
 74
0
  0
LTYPE
  5
53
100
AcDbSymbolTableRecord
100
AcDbLinetypeTableRecord
  2
ACAD_ISO10W100
 70
0
  3
ISO dash dot __ . __ . __ . __ . __ . __ . __ . 
 72
65
 73
4
 40
18.0
 49
12.0
 74
0
 49
-2.9500000000000002
 74
0
 49
0.1
 74
0
 49
-2.9500000000000002
 74
0
  0
LTYPE
  5
54
100
AcDbSymbolTableRecord
100
AcDbLinetypeTableRecord
  2
ACAD_ISO11W100
 70
0
  3
ISO double-dash dot __ __ . __ __ . __ __ . __ _
 72
65
 73
6
 40
33.0
 49
12.0
 74
0
 49
-3.0
 74
0
 49
12.0
 74
0
 49
-2.9500000000000002
 74
0
 49
0.1
 74
0
 49
-2.9500000000000002
 74
0
  0
LTYPE
  5
55
100
AcDbSymbolTableRecord
100
AcDbLinetypeTableRecord
  2
BORDER2
 70
0
  3
Border (.5x) __.__.__.__.__.__.__.__.__.__.__.
 72
65
 73
6
 40
22.2250000000000014
 49
6.3499999999999996
 74
0
 49
-3.1749999999999998
 74
0
 49
6.3499999999999996
 74
0
 49
-3.125
 74
0
 49
0.1
 74
0
 49
-3.125
 74
0
  0
LTYPE
  5
56
100
AcDbSymbolTableRecord
100
AcDbLinetypeTableRecord
  2
CENTER
 70
0
  3
Center ____ _ ____ _ ____ _ ____ _ ____ _ ____
 72
65
 73
4
 40
50.8000000000000043
 49
31.75
 74
0
 49
-6.3499999999999996
 74
0
 49
6.3499999999999996
 74
0
 49
-6.3499999999999996
 74
0
  0
ENDTAB
  0
TABLE
  2
LAYER
  5
2
100
AcDbSymbolTable
 70
7
  0
LAYER
  5
57
100
AcDbSymbolTableRecord
100
AcDbLayerTableRecord
  2
Contornos Ocultos
 70
0
 62
252
420
10526884
  6
ACAD_ISO02W100
370
30
390
F
  0
LAYER
  5
58
100
AcDbSymbolTableRecord
100
AcDbLayerTableRecord
  2
Cotas
 70
0
 62
1
420
16711680
  6
Continuous
370
20
390
F
  0
LAYER
  5
59
100
AcDbSymbolTableRecord
100
AcDbLayerTableRecord
  2
Contornos Visibles
 70
0
 62
7
420
16777215
  6
Continuous
370
50
390
F
  0
LAYER
  5
5A
100
AcDbSymbolTableRecord
100
AcDbLayerTableRecord
  2
Ejes de revoluci\U+00f3n
 70
0
 62
6
420
16711935
  6
ACAD_ISO04W100
370
20
390
F
  0
LAYER
  5
5B
100
AcDbSymbolTableRecord
100
AcDbLayerTableRecord
  2
Referencias
 70
1
 62
2
420
16776960
  6
Continuous
370
25
390
F
  0
LAYER
  5
10
100
AcDbSymbolTableRecord
100
AcDbLayerTableRecord
  2
0
 70
0
 62
7
420
16777215
  6
Continuous
370
25
390
F
  0
LAYER
  5
5C
100
AcDbSymbolTableRecord
100
AcDbLayerTableRecord
  2
Referencias 2
 70
1
 62
3
420
65280
  6
Continuous
370
25
390
F
  0
ENDTAB
  0
TABLE
  2
STYLE
  5
3
100
AcDbSymbolTable
 70
4
  0
STYLE
  5
5D
100
AcDbSymbolTableRecord
100
AcDbTextStyleTableRecord
  2
Standard
 70
0
 40
0.0
 41
1.0
 50
0.0
 71
0
 42
2.5
  3

  4

1001
ACAD
1000
txt
1071
0
  0
STYLE
  5
5E
100
AcDbSymbolTableRecord
100
AcDbTextStyleTableRecord
  2
textstyle0
 70
0
 40
0.0
 41
1.0
 50
0.0
 71
0
 42
2.5
  3

  4

1001
ACAD
1000
Arial
1071
0
  0
STYLE
  5
5F
100
AcDbSymbolTableRecord
100
AcDbTextStyleTableRecord
  2
textstyle1
 70
0
 40
0.0
 41
1.0
 50
0.0
 71
0
 42
2.5
  3

  4

1001
ACAD
1000
Arial
1071
0
  0
STYLE
  5
60
100
AcDbSymbolTableRecord
100
AcDbTextStyleTableRecord
  2
textstyle2
 70
0
 40
0.0
 41
1.0
 50
0.0
 71
0
 42
2.5
  3

  4

1001
ACAD
1000
Arial
1071
0
  0
ENDTAB
  0
TABLE
  2
VIEW
  5
6
100
AcDbSymbolTable
 70
0
  0
ENDTAB
  0
TABLE
  2
UCS
  5
7
100
AcDbSymbolTable
 70
0
  0
ENDTAB
  0
TABLE
  2
APPID
  5
9
100
AcDbSymbolTable
 70
1
  0
APPID
  5
12
100
AcDbSymbolTableRecord
100
AcDbRegAppTableRecord
  2
ACAD
 70
0
  0
APPID
  5
61
100
AcDbSymbolTableRecord
100
AcDbRegAppTableRecord
  2
QCAD
 70
0
  0
ENDTAB
  0
TABLE
  2
DIMSTYLE
  5
A
100
AcDbSymbolTable
 70
1
100
AcDbDimStyleTable
 71
0
  0
DIMSTYLE
105
27
100
AcDbSymbolTableRecord
100
AcDbDimStyleTableRecord
  2
Standard
 41
2.5
 42
0.625
 43
3.75
 44
1.25
 70
0
 73
0
 74
0
 77
1
 78
8
140
2.5
141
2.5
143
0.03937007874016
147
0.625
171
3
172
1
271
2
272
2
274
3
278
44
283
0
284
8
340
5D
  0
ENDTAB
  0
TABLE
  2
BLOCK_RECORD
  5
1
100
AcDbSymbolTable
 70
1
  0
BLOCK_RECORD
  5
1F
100
AcDbSymbolTableRecord
100
AcDbBlockTableRecord
  2
*Model_Space
340
22
  0
BLOCK_RECORD
  5
1B
100
AcDbSymbolTableRecord
100
AcDbBlockTableRecord
  2
*Paper_Space
340
1E
  0
BLOCK_RECORD
  5
23
100
AcDbSymbolTableRecord
100
AcDbBlockTableRecord
  2
*Paper_Space0
340
26
  0
ENDTAB
  0
ENDSEC
  0
SECTION
  2
BLOCKS
  0
BLOCK
  5
20
100
AcDbEntity
  8
0
100
AcDbBlockBegin
  2
*Model_Space
 70
0
 10
0.0
 20
0.0
 30
0.0
  3
*Model_Space
  1

  0
ENDBLK
  5
21
100
AcDbEntity
  8
0
100
AcDbBlockEnd
  0
BLOCK
  5
1C
100
AcDbEntity
 67
1
  8
0
100
AcDbBlockBegin
  2
*Paper_Space
 70
0
 10
0.0
 20
0.0
 30
0.0
  3
*Paper_Space
  1

  0
ENDBLK
  5
1D
100
AcDbEntity
 67
1
  8
0
100
AcDbBlockEnd
  0
BLOCK
  5
24
100
AcDbEntity
  8
0
100
AcDbBlockBegin
  2
*Paper_Space0
 70
0
 10
0.0
 20
0.0
 30
0.0
  3
*Paper_Space0
  1

  0
ENDBLK
  5
25
100
AcDbEntity
  8
0
100
AcDbBlockEnd
  0
ENDSEC
  0
SECTION
  2
ENTITIES
  0
IMAGE
  5
62
100
AcDbEntity
  8
0
 62
256
370
-1
 48
1.0
  6
BYLAYER
100
AcDbRasterImage
 90
0
 10
209.8050017317968354
 20
-167.6826159368407616
 30
0.0
 11
0.125
 21
0.0
 31
0.0
 12
0.0
 22
0.125
 32
0.0
 13
200.0
 23
141.0
340
63
 70
15
280
0
281
50
282
50
283
0
  0
LINE
  5
64
100
AcDbEntity
  8
Contornos Visibles
 62
256
370
-1
 48
1.0
  6
BYLAYER
100
AcDbLine
 10
785.2206835774140927
 20
-113.1570338499517447
 30
0.0
 11
785.2206835774140927
 21
-95.1570338499517447
 31
0.0
  0
LINE
  5
65
100
AcDbEntity
  8
Contornos Visibles
 62
256
370
-1
 48
1.0
  6
BYLAYER
100
AcDbLine
 10
785.2206835774140927
 20
-77.1570338499517447
 30
0.0
 11
785.2206835774140927
 21
-95.1570338499517447
 31
0.0
  0
LINE
  5
66
100
AcDbEntity
  8
Contornos Visibles
 62
256
370
-1
 48
1.0
  6
BYLAYER
100
AcDbLine
 10
750.2206835774140927
 20
-107.1570338499517447
 30
0.0
 11
750.2206835774140927
 21
-95.1570338499517447
 31
0.0
  0
LINE
  5
67
100
AcDbEntity
  8
Contornos Visibles
 62
256
370
-1
 48
1.0
  6
BYLAYER
100
AcDbLine
 10
750.2206835774140927
 20
-83.157033849951759
 30
0.0
 11
750.2206835774140927
 21
-95.1570338499517447
 31
0.0
  0
LINE
  5
68
100
AcDbEntity
  8
Contornos Visibles
 62
256
370
-1
 48
1.0
  6
BYLAYER
100
AcDbLine
 10
744.2206835774140927
 20
-113.1570338499517447
 30
0.0
 11
706.2206835774140927
 21
-113.1570338499517447
 31
0.0
  0
LINE
  5
69
100
AcDbEntity
  8
Contornos Visibles
 62
256
370
-1
 48
1.0
  6
BYLAYER
100
AcDbLine
 10
744.2206835774140927
 20
-77.157033849951759
 30
0.0
 11
706.2206835774140927
 21
-77.1570338499517874
 31
0.0
  0
ARC
  5
6A
100
AcDbEntity
  8
Contornos Visibles
 62
256
370
-1
 48
1.0
  6
BYLAYER
100
AcDbCircle
 10
744.2206835774140927
 20
-107.1570338499517447
 30
0.0
 40
6.0
100
AcDbArc
 50
270.0
 51
0.0
  0
ARC
  5
6B
100
AcDbEntity
  8
Contornos Visibles
 62
256
370
-1
 48
1.0
  6
BYLAYER
100
AcDbCircle
 10
744.2206835774140927
 20
-83.1570338499517732
 30
0.0
 40
6.0
100
AcDbArc
 50
0.0
 51
90.0000000000000142
  0
ARC
  5
6C
100
AcDbEntity
  8
Contornos Visibles
 62
256
370
-1
 48
1.0
  6
BYLAYER
100
AcDbCircle
 10
696.220683577413979
 20
-113.1570338499517447
 30
0.0
 40
10.0
100
AcDbArc
 50
270.0000000000006821
 51
0.0
  0
ARC
  5
6D
100
AcDbEntity
  8
Contornos Visibles
 62
256
370
-1
 48
1.0
  6
BYLAYER
100
AcDbCircle
 10
696.220683577413979
 20
-77.157033849951759
 30
0.0
 40
10.0
100
AcDbArc
 50
0.0
 51
89.9999999999993463
  0
LINE
  5
6E
100
AcDbEntity
  8
Contornos Visibles
 62
256
370
-1
 48
1.0
  6
BYLAYER
100
AcDbLine
 10
764.8354202871628331
 20
-133.5422971402030612
 30
0.0
 11
785.220683577413979
 21
-113.1570338499517305
 31
0.0
  0
LINE
  5
6F
100
AcDbEntity
  8
Contornos Visibles
 62
256
370
-1
 48
1.0
  6
BYLAYER
100
AcDbLine
 10
764.8354202871628331
 20
-56.7717705597004354
 30
0.0
 11
785.220683577413979
 21
-77.157033849951759
 31
0.0
  0
DIMENSION
  5
70
100
AcDbEntity
  8
Cotas
 62
256
370
-1
 48
1.0
  6
BYLAYER
100
AcDbDimension
 10
750.2206835774140927
 20
-30.2806276362892461
 30
0.0
 11
767.7206835774140927
 21
-28.4056276362892461
 31
0.0
 70
0
 71
8
 72
2
 74
0
 75
0
 41
1.0
 42
0.0
  1

  3
Standard
100
AcDbAlignedDimension
 13
750.2206835774140927
 23
-83.157033849951759
 33
0.0
 14
785.220683577413979
 24
-77.15703384995183
 34
0.0
 50
0.0
100
AcDbRotatedDimension
1001
ACAD
1000
DSTYLE
1002
{
1070
144
1040
1.0
1070
40
1040
1.0
1002
}
  0
DIMENSION
  5
71
100
AcDbEntity
  8
Cotas
 62
256
370
-1
 48
1.0
  6
BYLAYER
100
AcDbDimension
 10
706.2206835774140927
 20
-1.6641574315507768
 30
0.0
 11
745.7206835774140927
 21
0.2108425684492232
 31
0.0
 70
0
 71
8
 72
2
 74
0
 75
0
 41
1.0
 42
0.0
  1

  3
Standard
100
AcDbAlignedDimension
 13
706.2206835774140927
 23
-77.1570338499517447
 33
0.0
 14
785.220683577413979
 24
-77.15703384995183
 34
0.0
 50
0.0
100
AcDbRotatedDimension
1001
ACAD
1000
DSTYLE
1002
{
1070
144
1040
1.0
1070
40
1040
1.0
1002
}
  0
LINE
  5
72
100
AcDbEntity
  8
Ejes de revoluci\U+00f3n
 62
256
370
-1
 48
1.0
  6
BYLAYER
100
AcDbLine
 10
628.2206835774140927
 20
-95.1570338499517447
 30
0.0
 11
785.2206835774140927
 21
-95.1570338499517447
 31
0.0
  0
DIMENSION
  5
73
100
AcDbEntity
  8
Cotas
 62
256
370
-1
 48
1.0
  6
BYLAYER
100
AcDbDimension
 10
614.3662003308901376
 20
-80.1570338499517447
 30
0.0
 11
612.4912003308901376
 21
-95.1570338499517447
 31
0.0
 70
0
 71
8
 72
2
 74
0
 75
0
 41
1.0
 42
0.0
  1

  3
Standard
100
AcDbAlignedDimension
 13
628.2206835774140927
 23
-80.1570338499517447
 33
0.0
 14
628.2206835774140927
 24
-110.1570338499517447
 34
0.0
 50
90.0
100
AcDbRotatedDimension
1001
ACAD
1000
DSTYLE
1002
{
1070
144
1040
1.0
1070
40
1040
1.0
1002
}
  0
DIMENSION
  5
74
100
AcDbEntity
  8
Cotas
 62
256
370
-1
 48
1.0
  6
BYLAYER
100
AcDbDimension
 10
597.3325871137839158
 20
-59.1570338499517447
 30
0.0
 11
595.4575871137839158
 21
-95.1570338499517447
 31
0.0
 70
0
 71
8
 72
2
 74
0
 75
0
 41
1.0
 42
0.0
  1

  3
Standard
100
AcDbAlignedDimension
 13
628.2206835774140927
 23
-59.1570338499517447
 33
0.0
 14
628.2206835774140927
 24
-131.1570338499517447
 34
0.0
 50
90.0
100
AcDbRotatedDimension
1001
ACAD
1000
DSTYLE
1002
{
1070
144
1040
1.0
1070
40
1040
1.0
1002
}
  0
LINE
  5
75
100
AcDbEntity
  8
Contornos Visibles
 62
256
370
-1
 48
1.0
  6
BYLAYER
100
AcDbLine
 10
628.2206835774140927
 20
-131.1570338499517447
 30
0.0
 11
628.2206835774140927
 21
-110.1570338499517447
 31
0.0
  0
LINE
  5
76
100
AcDbEntity
  8
Contornos Visibles
 62
256
370
-1
 48
1.0
  6
BYLAYER
100
AcDbLine
 10
628.2206835774140927
 20
-59.1570338499517518
 30
0.0
 11
628.2206835774140927
 21
-80.1570338499516168
 31
0.0
  0
LINE
  5
77
100
AcDbEntity
  8
Contornos Visibles
 62
256
370
-1
 48
1.0
  6
BYLAYER
100
AcDbLine
 10
641.220683577413979
 20
-144.1570338499517447
 30
0.0
 11
641.2206835774140927
 21
-144.1570338499517447
 31
0.0
  0
LINE
  5
78
100
AcDbEntity
  8
Contornos Visibles
 62
256
370
-1
 48
1.0
  6
BYLAYER
100
AcDbLine
 10
641.220683577413979
 20
-46.1570338499517874
 30
0.0
 11
641.2206835774140927
 21
-46.157033849951759
 31
0.0
  0
DIMENSION
  5
79
100
AcDbEntity
  8
Cotas
 62
256
370
-1
 48
1.0
  6
BYLAYER
100
AcDbDimension
 10
628.2206835774140927
 20
-161.0075364231190349
 30
0.0
 11
634.7206835774140927
 21
-159.1325364231190349
 31
0.0
 70
0
 71
8
 72
2
 74
0
 75
0
 41
1.0
 42
0.0
  1

  3
Standard
100
AcDbAlignedDimension
 13
628.2206835774140927
 23
-131.1570338499517447
 33
0.0
 14
641.2206835774140927
 24
-144.1570338499517447
 34
0.0
 50
0.0
100
AcDbRotatedDimension
1001
ACAD
1000
DSTYLE
1002
{
1070
144
1040
1.0
1070
40
1040
1.0
1002
}
  0
CIRCLE
  5
7A
100
AcDbEntity
  8
Contornos Visibles
 62
256
370
-1
 48
1.0
  6
BYLAYER
100
AcDbCircle
 10
641.2206835774140927
 20
-131.1570338499517447
 30
0.0
 40
6.0
  0
CIRCLE
  5
7B
100
AcDbEntity
  8
Contornos Visibles
 62
256
370
-1
 48
1.0
  6
BYLAYER
100
AcDbCircle
 10
725.2206835774140927
 20
-131.1570338499517447
 30
0.0
 40
6.0
  0
CIRCLE
  5
7C
100
AcDbEntity
  8
Contornos Visibles
 62
256
370
-1
 48
1.0
  6
BYLAYER
100
AcDbCircle
 10
725.2206835774140927
 20
-59.157033849951759
 30
0.0
 40
6.0
  0
CIRCLE
  5
7D
100
AcDbEntity
  8
Contornos Visibles
 62
256
370
-1
 48
1.0
  6
BYLAYER
100
AcDbCircle
 10
641.2206835774140927
 20
-59.1570338499517518
 30
0.0
 40
6.0
  0
ARC
  5
7E
100
AcDbEntity
  8
Contornos Visibles
 62
256
370
-1
 48
1.0
  6
BYLAYER
100
AcDbCircle
 10
641.220683577413979
 20
-131.1570338499517447
 30
0.0
 40
13.0
100
AcDbArc
 50
180.0
 51
270.0
  0
ARC
  5
7F
100
AcDbEntity
  8
Contornos Visibles
 62
256
370
-1
 48
1.0
  6
BYLAYER
100
AcDbCircle
 10
641.220683577413979
 20
-59.1570338499517234
 30
0.0
 40
13.0
100
AcDbArc
 50
90.0000000000000142
 51
180.0
  0
LINE
  5
80
100
AcDbEntity
  8
Contornos Visibles
 62
256
370
-1
 48
1.0
  6
BYLAYER
100
AcDbLine
 10
641.2206835774140927
 20
-144.1570338499517447
 30
0.0
 11
725.2206835774140927
 21
-144.1570338499517447
 31
0.0
  0
LINE
  5
81
100
AcDbEntity
  8
Contornos Visibles
 62
256
370
-1
 48
1.0
  6
BYLAYER
100
AcDbLine
 10
641.2206835774140927
 20
-46.157033849951759
 30
0.0
 11
725.2206835774140927
 21
-46.1570338499517661
 31
0.0
  0
DIMENSION
  5
82
100
AcDbEntity
  8
Cotas
 62
256
370
-1
 48
1.0
  6
BYLAYER
100
AcDbDimension
 10
641.220683577413979
 20
-161.0075364231190349
 30
0.0
 11
683.2206835774140927
 21
-159.1325364231190349
 31
0.0
 70
0
 71
8
 72
2
 74
0
 75
0
 41
1.0
 42
0.0
  1

  3
Standard
100
AcDbAlignedDimension
 13
641.220683577413979
 23
-144.1570338499517447
 33
0.0
 14
725.2206835774140927
 24
-144.1570338499517447
 34
0.0
 50
0.0
100
AcDbRotatedDimension
1001
ACAD
1000
DSTYLE
1002
{
1070
144
1040
1.0
1070
40
1040
1.0
1002
}
  0
LINE
  5
83
100
AcDbEntity
  8
Contornos Visibles
 62
256
370
-1
 48
1.0
  6
BYLAYER
100
AcDbLine
 10
725.2206835774140927
 20
-144.1570338499517447
 30
0.0
 11
764.8354202871627194
 21
-133.5422971402030612
 31
0.0
  0
LINE
  5
84
100
AcDbEntity
  8
Contornos Visibles
 62
256
370
-1
 48
1.0
  6
BYLAYER
100
AcDbLine
 10
725.2206835774140927
 20
-46.1570338499517661
 30
0.0
 11
764.8354202871627194
 21
-56.7717705597004283
 31
0.0
  0
LINE
  5
85
100
AcDbEntity
  8
Contornos Visibles
 62
256
370
-1
 48
1.0
  6
BYLAYER
100
AcDbLine
 10
628.2206835774140927
 20
-80.1570338499516168
 30
0.0
 11
664.1738428594901507
 21
-80.1570338499516168
 31
0.0
  0
XLINE
  5
86
100
AcDbEntity
  8
Referencias 2
 62
256
370
-1
 48
1.0
  6
BYLAYER
100
AcDbLine
 10
696.2206835774140927
 20
-123.1570338499517447
 30
0.0
 11
0.0
 21
1.0
 31
0.0
  0
XLINE
  5
87
100
AcDbEntity
  8
Referencias 2
 62
256
370
-1
 48
1.0
  6
BYLAYER
100
AcDbLine
 10
706.220683577413979
 20
-77.1570338499517874
 30
0.0
 11
1.0
 21
0.0
 31
0.0
  0
ARC
  5
88
100
AcDbEntity
  8
Contornos Visibles
 62
256
370
-1
 48
1.0
  6
BYLAYER
100
AcDbCircle
 10
696.2206835774140927
 20
-77.1570338499517874
 30
0.0
 40
45.9999999999999574
100
AcDbArc
 50
225.8395195700490774
 51
269.9999999999996589
  0
LINE
  5
89
100
AcDbEntity
  8
Contornos Visibles
 62
256
370
-1
 48
1.0
  6
BYLAYER
100
AcDbLine
 10
628.2206835774140927
 20
-110.1570338499517447
 30
0.0
 11
664.1738428594899233
 21
-110.1570338499517447
 31
0.0
  0
XLINE
  5
8A
100
AcDbEntity
  8
Referencias 2
 62
256
370
-1
 48
1.0
  6
BYLAYER
100
AcDbLine
 10
706.220683577413979
 20
-113.1570338499517447
 30
0.0
 11
1.0
 21
0.0
 31
0.0
  0
ARC
  5
8B
100
AcDbEntity
  8
Contornos Visibles
 62
256
370
-1
 48
1.0
  6
BYLAYER
100
AcDbCircle
 10
696.2206835774140927
 20
-113.1570338499517447
 30
0.0
 40
45.9999999999999858
100
AcDbArc
 50
90.0
 51
134.1604804299505531
  0
DIMENSION
  5
8C
100
AcDbEntity
  8
Cotas
 62
256
370
-1
 48
1.0
  6
BYLAYER
100
AcDbDimension
 10
805.9855647105739536
 20
-77.1570338499518726
 30
0.0
 11
804.1105647105739536
 21
-95.1570338499517163
 31
0.0
 70
0
 71
8
 72
2
 74
0
 75
0
 41
1.0
 42
0.0
  1

  3
Standard
100
AcDbAlignedDimension
 13
785.2206835774140927
 23
-77.1570338499518726
 33
0.0
 14
785.2206835774140927
 24
-113.1570338499515458
 34
0.0
 50
90.0
100
AcDbRotatedDimension
1001
ACAD
1000
DSTYLE
1002
{
1070
144
1040
1.0
1070
40
1040
1.0
1002
}
  0
XLINE
  5
8D
100
AcDbEntity
  8
Referencias
 62
256
370
-1
 48
1.0
  6
BYLAYER
100
AcDbLine
 10
725.2206835774140927
 20
-144.1570338499517447
 30
0.0
 11
1.0
 21
0.0
 31
0.0
  0
DIMENSION
  5
8E
100
AcDbEntity
  8
Cotas
 62
256
370
-1
 48
1.0
  6
BYLAYER
100
AcDbDimension
 10
726.2206835774140927
 20
-144.1570338499517447
 30
0.0
 11
798.2804128349181383
 21
-134.5385380201424255
 31
0.0
 70
2
 71
8
 72
2
 74
0
 75
0
 41
1.0
 42
0.0
  1

  3
Standard
100
AcDb2LineAngularDimension
 13
764.8354202871627194
 23
-133.5422971402030612
 33
0.0
 14
725.2206835774140927
 24
-144.1570338499517447
 34
0.0
 15
725.2206835774140927
 25
-144.1570338499517447
 35
0.0
 16
796.077767310757622
 26
-132.4655533797948692
 36
0.0
  0
DIMENSION
  5
8F
100
AcDbEntity
  8
Cotas
 62
256
370
-1
 48
1.0
  6
BYLAYER
100
AcDbDimension
 10
785.2206835774140927
 20
-95.1570338499517447
 30
0.0
 11
766.8876154705201316
 21
-105.5632284001665937
 31
0.0
 70
2
 71
8
 72
2
 74
0
 75
0
 41
1.0
 42
0.0
  1

  3
Standard
100
AcDb2LineAngularDimension
 13
764.8354202871628331
 23
-133.5422971402030612
 33
0.0
 14
785.220683577413979
 24
-113.1570338499517305
 34
0.0
 15
785.2206835774140927
 25
-113.1570338499517447
 35
0.0
 16
767.326973396853532
 26
-111.5185463853789116
 36
0.0
  0
DIMENSION
  5
90
100
AcDbEntity
  8
Cotas
 62
256
370
-1
 48
1.0
  6
BYLAYER
100
AcDbDimension
 10
722.9852537227342282
 20
-113.1570338499517447
 30
0.0
 11
721.1102537227342282
 21
-95.157033849951759
 31
0.0
 70
0
 71
8
 72
2
 74
0
 75
0
 41
1.0
 42
0.0
  1

  3
Standard
100
AcDbAlignedDimension
 13
725.2206835774140927
 23
-113.1570338499517447
 33
0.0
 14
725.2206835774140927
 24
-77.1570338499517732
 34
0.0
 50
90.0
100
AcDbRotatedDimension
1001
ACAD
1000
DSTYLE
1002
{
1070
144
1040
1.0
1070
40
1040
1.0
1002
}
  0
MTEXT
  5
91
100
AcDbEntity
  8
Cotas
 62
256
370
-1
 48
1.0
  6
BYLAYER
100
AcDbMText
 10
668.1083669438885408
 20
-123.1562106007236679
 30
0.0
 40
2.5
 41
0.0
 71
1
 72
1
  1
R46
  7
textstyle0
 50
0.0
 73
2
 44
1.0
  0
LEADER
  5
92
100
AcDbEntity
  8
Cotas
 62
256
370
-1
 48
1.0
  6
BYLAYER
100
AcDbLeader
  3
Standard
 71
1
 72
0
 73
3
 74
0
 75
0
 40
1.0
 41
10.0
 76
3
 10
678.9290671116233398
 20
-119.783316821845915
 10
674.3299637394244428
 20
-125.9590755393321331
 10
667.8583669438885408
 20
-125.9590755393321331
1001
ACAD
1000
DSTYLE
1002
{
1070
40
1040
1.0
1002
}
  0
DIMENSION
  5
93
100
AcDbEntity
  8
Cotas
 62
256
370
-1
 48
1.0
  6
BYLAYER
100
AcDbDimension
 10
631.5009944292742148
 20
-154.7011466718332429
 30
0.0
 11
630.8842646542284456
 21
-147.9642876570866861
 31
0.0
 70
4
 71
8
 72
2
 74
0
 41
1.0
 42
0.0
  1
R<>
  3
Standard
100
AcDbRadialDimension
 15
633.9503714997955512
 25
-141.9339797203751061
 35
0.0
 40
0.0
1001
ACAD
1000
DSTYLE
1002
{
1070
144
1040
1.0
1070
40
1040
1.0
1002
}
  0
DIMENSION
  5
94
100
AcDbEntity
  8
Cotas
 62
256
370
-1
 48
1.0
  6
BYLAYER
100
AcDbDimension
 10
628.2206835774140927
 20
-183.6064483634716566
 30
0.0
 11
706.7206835774140927
 21
-181.7314483634716566
 31
0.0
 70
0
 71
8
 72
2
 74
0
 75
0
 41
1.0
 42
0.0
  1

  3
Standard
100
AcDbAlignedDimension
 13
628.2206835774140927
 23
-162.2575364231190349
 33
0.0
 14
785.2206835774140927
 24
-113.1570338499515458
 34
0.0
 50
0.0
100
AcDbRotatedDimension
1001
ACAD
1000
DSTYLE
1002
{
1070
144
1040
1.0
1070
40
1040
1.0
1002
}
  0
MTEXT
  5
95
100
AcDbEntity
  8
Cotas
 62
256
370
-1
 48
1.0
  6
BYLAYER
100
AcDbMText
 10
754.2761659739612696
 20
-73.5106600264128787
 30
0.0
 40
2.5
 41
0.0
 71
1
 72
1
  1
R6
  7
textstyle1
 50
0.0
 73
2
 44
1.0
  0
LEADER
  5
96
100
AcDbEntity
  8
Cotas
 62
256
370
-1
 48
1.0
  6
BYLAYER
100
AcDbLeader
  3
Standard
 71
1
 72
0
 73
3
 74
0
 75
0
 40
1.0
 41
10.0
 76
3
 10
748.4633242645334121
 20
-78.9143931628324822
 10
754.0261659739612696
 20
-76.3135249650213439
 10
758.5545691784253677
 20
-76.3135249650213439
1001
ACAD
1000
DSTYLE
1002
{
1070
40
1040
1.0
1002
}
  0
MTEXT
  5
97
100
AcDbEntity
  8
Cotas
 62
256
370
-1
 48
1.0
  6
BYLAYER
100
AcDbMText
 10
709.1296011386340297
 20
-61.4193626408687905
 30
0.0
 40
2.5
 41
0.0
 71
1
 72
1
  1
R10
  7
textstyle2
 50
0.0
 73
2
 44
1.0
  0
LEADER
  5
98
100
AcDbEntity
  8
Cotas
 62
256
370
-1
 48
1.0
  6
BYLAYER
100
AcDbLeader
  3
Standard
 71
1
 72
0
 73
3
 74
0
 75
0
 40
1.0
 41
10.0
 76
3
 10
702.5626624125063699
 20
-69.4253261178113661
 10
708.8796011386340297
 20
-64.2222275794772486
 10
715.3443766517688118
 20
-64.2222275794772486
1001
ACAD
1000
DSTYLE
1002
{
1070
40
1040
1.0
1002
}
  0
DIMENSION
  5
99
100
AcDbEntity
  8
Cotas
 62
256
370
-1
 48
1.0
  6
BYLAYER
100
AcDbDimension
 10
646.986659502616817
 20
-57.4976599831022526
 30
0.0
 11
640.7021292440235811
 21
-57.3551663733259147
 31
0.0
 70
3
 71
8
 72
2
 74
0
 75
0
 41
1.0
 42
0.0
  1
4-\U+00f8<>
  3
Standard
100
AcDbDiametricDimension
 15
635.4547076522113684
 25
-60.8164077168012511
 35
0.0
 40
0.0
1001
ACAD
1000
DSTYLE
1002
{
1070
144
1040
1.0
1070
40
1040
1.0
1002
}
  0
DIMENSION
  5
9A
100
AcDbEntity
  8
Cotas
 62
256
370
-1
 48
1.0
  6
BYLAYER
100
AcDbDimension
 10
581.1141118800359209
 20
-46.157033849951759
 30
0.0
 11
579.2391118800359209
 21
-95.1570338499517447
 31
0.0
 70
0
 71
8
 72
2
 74
0
 75
0
 41
1.0
 42
0.0
  1

  3
Standard
100
AcDbAlignedDimension
 13
641.220683577413979
 23
-46.157033849951759
 33
0.0
 14
641.220683577413979
 24
-144.1570338499517447
 34
0.0
 50
90.0
100
AcDbRotatedDimension
1001
ACAD
1000
DSTYLE
1002
{
1070
144
1040
1.0
1070
40
1040
1.0
1002
}
  0
LINE
  5
9B
100
AcDbEntity
  8
Ejes de revoluci\U+00f3n
 62
256
370
-1
 48
1.0
  6
BYLAYER
100
AcDbLine
 10
696.220683577413979
 20
-77.1570338499517874
 30
0.0
 11
706.220683577413979
 21
-77.1570338499517874
 31
0.0
  0
LINE
  5
9C
100
AcDbEntity
  8
Ejes de revoluci\U+00f3n
 62
256
370
-1
 48
1.0
  6
BYLAYER
100
AcDbLine
 10
696.220683577413979
 20
-113.1570338499517447
 30
0.0
 11
706.220683577413979
 21
-113.1570338499517447
 31
0.0
  0
LINE
  5
9D
100
AcDbEntity
  8
Ejes de revoluci\U+00f3n
 62
256
370
-1
 48
1.0
  6
BYLAYER
100
AcDbLine
 10
696.220683577413979
 20
-123.1570338499517447
 30
0.0
 11
696.220683577413979
 21
-113.1570338499517447
 31
0.0
  0
LINE
  5
9E
100
AcDbEntity
  8
Ejes de revoluci\U+00f3n
 62
256
370
-1
 48
1.0
  6
BYLAYER
100
AcDbLine
 10
696.220683577413979
 20
-77.1570338499517874
 30
0.0
 11
696.220683577413979
 21
-67.1570338499517874
 31
0.0
  0
LINE
  5
9F
100
AcDbEntity
  8
Ejes de revoluci\U+00f3n
 62
256
370
-1
 48
1.0
  6
BYLAYER
100
AcDbLine
 10
630.2206835774140927
 20
-59.1570338499517518
 30
0.0
 11
736.2206835774140927
 21
-59.157033849951759
 31
0.0
  0
LINE
  5
A0
100
AcDbEntity
  8
Ejes de revoluci\U+00f3n
 62
256
370
-1
 48
1.0
  6
BYLAYER
100
AcDbLine
 10
630.2206835774140927
 20
-131.1570338499517447
 30
0.0
 11
736.2206835774140927
 21
-131.1570338499517447
 31
0.0
  0
LINE
  5
A1
100
AcDbEntity
  8
Ejes de revoluci\U+00f3n
 62
256
370
-1
 48
1.0
  6
BYLAYER
100
AcDbLine
 10
641.2206835774140927
 20
-66.1570338499517447
 30
0.0
 11
641.2206835774140927
 21
-52.1570338499517518
 31
0.0
  0
LINE
  5
A2
100
AcDbEntity
  8
Ejes de revoluci\U+00f3n
 62
256
370
-1
 48
1.0
  6
BYLAYER
100
AcDbLine
 10
641.2206835774140927
 20
-124.1570338499517447
 30
0.0
 11
641.2206835774140927
 21
-138.1570338499517163
 31
0.0
  0
LINE
  5
A3
100
AcDbEntity
  8
Ejes de revoluci\U+00f3n
 62
256
370
-1
 48
1.0
  6
BYLAYER
100
AcDbLine
 10
725.2206835774140927
 20
-66.157033849951759
 30
0.0
 11
725.2206835774140927
 21
-52.157033849951759
 31
0.0
  0
LINE
  5
A4
100
AcDbEntity
  8
Ejes de revoluci\U+00f3n
 62
256
370
-1
 48
1.0
  6
BYLAYER
100
AcDbLine
 10
725.2206835774140927
 20
-124.1570338499517305
 30
0.0
 11
725.2206835774140927
 21
-138.1570338499517447
 31
0.0
  0
ENDSEC
  0
SECTION
  2
OBJECTS
  0
DICTIONARY
  5
C
100
AcDbDictionary
280
0
281
1
  3
ACAD_GROUP
350
D
  3
ACAD_LAYOUT
350
1A
  3
ACAD_MLINESTYLE
350
17
  3
ACAD_PLOTSETTINGS
350
19
  3
ACAD_PLOTSTYLENAME
350
E
  3
AcDbVariableDictionary
350
A5
  3
QCAD_OBJECTS
350
A6
  0
DICTIONARY
  5
D
100
AcDbDictionary
280
0
281
1
  0
ACDBDICTIONARYWDFLT
  5
E
100
AcDbDictionary
281
1
  3
Normal
350
F
100
AcDbDictionaryWithDefault
340
F
  0
ACDBPLACEHOLDER
  5
F
  0
DICTIONARY
  5
17
100
AcDbDictionary
280
0
281
1
  3
Standard
350
18
  0
MLINESTYLE
  5
18
100
AcDbMlineStyle
  2
STANDARD
 70
0
  3

 62
256
 51
90.0
 52
90.0
 71
2
 49
0.5
 62
256
  6
BYLAYER
 49
-0.5
 62
256
  6
BYLAYER
  0
DICTIONARY
  5
19
100
AcDbDictionary
280
0
281
1
  0
DICTIONARY
  5
1A
100
AcDbDictionary
281
1
  3
Layout1
350
1E
  3
Layout2
350
26
  3
Model
350
22
  0
LAYOUT
  5
1E
100
AcDbPlotSettings
  1

  2
none_device
  4

  6

 40
0.0
 41
0.0
 42
0.0
 43
0.0
 44
0.0
 45
0.0
 46
0.0
 47
0.0
 48
0.0
 49
0.0
140
0.0
141
0.0
142
1.0
143
1.0
 70
688
 72
0
 73
0
 74
5
  7

 75
16
147
1.0
148
0.0
149
0.0
100
AcDbLayout
  1
Layout1
 70
1
 71
1
 10
0.0
 20
0.0
 11
420.0
 21
297.0
 12
0.0
 22
0.0
 32
0.0
 14
100000000000000000000.0
 24
100000000000000000000.0
 34
100000000000000000000.0
 15
-100000000000000000000.0
 25
-100000000000000000000.0
 35
-100000000000000000000.0
146
0.0
 13
0.0
 23
0.0
 33
0.0
 16
1.0
 26
0.0
 36
0.0
 17
0.0
 27
1.0
 37
0.0
 76
0
330
1B
  0
LAYOUT
  5
22
100
AcDbPlotSettings
  1

  2
none_device
  4

  6

 40
0.0
 41
0.0
 42
0.0
 43
0.0
 44
0.0
 45
0.0
 46
0.0
 47
0.0
 48
0.0
 49
0.0
140
0.0
141
0.0
142
1.0
143
1.0
 70
1712
 72
0
 73
0
 74
0
  7

 75
0
147
1.0
148
0.0
149
0.0
100
AcDbLayout
  1
Model
 70
1
 71
0
 10
0.0
 20
0.0
 11
12.0
 21
9.0
 12
0.0
 22
0.0
 32
0.0
 14
0.0
 24
0.0
 34
0.0
 15
0.0
 25
0.0
 35
0.0
146
0.0
 13
0.0
 23
0.0
 33
0.0
 16
1.0
 26
0.0
 36
0.0
 17
0.0
 27
1.0
 37
0.0
 76
0
330
1F
  0
LAYOUT
  5
26
100
AcDbPlotSettings
  1

  2
none_device
  4

  6

 40
0.0
 41
0.0
 42
0.0
 43
0.0
 44
0.0
 45
0.0
 46
0.0
 47
0.0
 48
0.0
 49
0.0
140
0.0
141
0.0
142
1.0
143
1.0
 70
688
 72
0
 73
0
 74
5
  7

 75
16
147
1.0
148
0.0
149
0.0
100
AcDbLayout
  1
Layout2
 70
1
 71
2
 10
0.0
 20
0.0
 11
12.0
 21
9.0
 12
0.0
 22
0.0
 32
0.0
 14
0.0
 24
0.0
 34
0.0
 15
0.0
 25
0.0
 35
0.0
146
0.0
 13
0.0
 23
0.0
 33
0.0
 16
1.0
 26
0.0
 36
0.0
 17
0.0
 27
1.0
 37
0.0
 76
0
330
23
  0
DICTIONARY
  5
A5
100
AcDbDictionary
281
1
  3
DIMASSOC
350
A8
  3
HIDETEXT
350
A7
  0
DICTIONARYVAR
  5
A7
100
DictionaryVariables
280
0
  1
2
  0
DICTIONARYVAR
  5
A8
100
DictionaryVariables
280
0
  1
1
  0
DICTIONARY
  5
A6
100
AcDbDictionary
281
1
  3
ColorSettings/BackgroundColor
350
A9
  3
ColorSettings/ColorMode
350
AA
  3
Grid/DisplayGrid00
350
AB
  3
Grid/DisplayGrid01
350
AC
  3
Grid/DisplayGrid02
350
AD
  3
Grid/DisplayGrid03
350
AE
  3
Grid/GridSpacingX00
350
AF
  3
Grid/GridSpacingX01
350
B0
  3
Grid/GridSpacingX02
350
B1
  3
Grid/GridSpacingX03
350
B2
  3
Grid/GridSpacingY00
350
B3
  3
Grid/GridSpacingY01
350
B4
  3
Grid/GridSpacingY02
350
B5
  3
Grid/GridSpacingY03
350
B6
  3
Grid/IsometricGrid00
350
B7
  3
Grid/IsometricGrid01
350
B8
  3
Grid/IsometricGrid02
350
B9
  3
Grid/IsometricGrid03
350
BA
  3
Grid/IsometricProjection00
350
BB
  3
Grid/IsometricProjection01
350
BC
  3
Grid/IsometricProjection02
350
BD
  3
Grid/IsometricProjection03
350
BE
  3
Grid/MetaGridSpacingX00
350
BF
  3
Grid/MetaGridSpacingX01
350
C0
  3
Grid/MetaGridSpacingX02
350
C1
  3
Grid/MetaGridSpacingX03
350
C2
  3
Grid/MetaGridSpacingY00
350
C3
  3
Grid/MetaGridSpacingY01
350
C4
  3
Grid/MetaGridSpacingY02
350
C5
  3
Grid/MetaGridSpacingY03
350
C6
  3
MultiPageSettings/Columns
350
C7
  3
MultiPageSettings/GlueMarginsBottom
350
C8
  3
MultiPageSettings/GlueMarginsLeft
350
C9
  3
MultiPageSettings/GlueMarginsRight
350
CA
  3
MultiPageSettings/GlueMarginsTop
350
CB
  3
MultiPageSettings/PrintCropMarks
350
CC
  3
MultiPageSettings/Rows
350
CD
  3
PageSettings/OffsetX
350
CE
  3
PageSettings/OffsetY
350
CF
  3
PageSettings/PageOrientation
350
D0
  3
PageSettings/PaperHeight
350
D1
  3
PageSettings/PaperWidth
350
D2
  3
PageSettings/Scale
350
D3
  3
PageSettings/ShowPaperBorders
350
D4
  3
PageTagSettings/EnablePageTags
350
D5
  3
PageTagSettings/TagAlignment
350
D6
  3
PageTagSettings/TagFont
350
D7
  3
PageTagSettings/TagPosition
350
D8
  3
QCADVersion
350
D9
  3
UnitSettings/PaperUnit
350
DA
  3
ViewportCenter
350
DB
  3
ViewportHeight
350
DC
  3
ViewportWidth
350
DD
  0
XRECORD
  5
A9
330
A6
100
AcDbXrecord
280
1
1000
Blanca
  0
XRECORD
  5
AA
330
A6
100
AcDbXrecord
280
1
1000
FullColor
  0
XRECORD
  5
AB
330
A6
100
AcDbXrecord
280
1
290
0
  0
XRECORD
  5
AC
330
A6
100
AcDbXrecord
280
1
290
1
  0
XRECORD
  5
AD
330
A6
100
AcDbXrecord
280
1
290
1
  0
XRECORD
  5
AE
330
A6
100
AcDbXrecord
280
1
290
1
  0
XRECORD
  5
AF
330
A6
100
AcDbXrecord
280
1
1000
auto
  0
XRECORD
  5
B0
330
A6
100
AcDbXrecord
280
1
1000
auto
  0
XRECORD
  5
B1
330
A6
100
AcDbXrecord
280
1
1000
auto
  0
XRECORD
  5
B2
330
A6
100
AcDbXrecord
280
1
1000
auto
  0
XRECORD
  5
B3
330
A6
100
AcDbXrecord
280
1
1000
auto
  0
XRECORD
  5
B4
330
A6
100
AcDbXrecord
280
1
1000
auto
  0
XRECORD
  5
B5
330
A6
100
AcDbXrecord
280
1
1000
auto
  0
XRECORD
  5
B6
330
A6
100
AcDbXrecord
280
1
1000
auto
  0
XRECORD
  5
B7
330
A6
100
AcDbXrecord
280
1
290
0
  0
XRECORD
  5
B8
330
A6
100
AcDbXrecord
280
1
290
0
  0
XRECORD
  5
B9
330
A6
100
AcDbXrecord
280
1
290
0
  0
XRECORD
  5
BA
330
A6
100
AcDbXrecord
280
1
290
0
  0
XRECORD
  5
BB
330
A6
100
AcDbXrecord
280
1
 90
65537
  0
XRECORD
  5
BC
330
A6
100
AcDbXrecord
280
1
 90
65537
  0
XRECORD
  5
BD
330
A6
100
AcDbXrecord
280
1
 90
65537
  0
XRECORD
  5
BE
330
A6
100
AcDbXrecord
280
1
 90
65537
  0
XRECORD
  5
BF
330
A6
100
AcDbXrecord
280
1
1000
auto
  0
XRECORD
  5
C0
330
A6
100
AcDbXrecord
280
1
1000
auto
  0
XRECORD
  5
C1
330
A6
100
AcDbXrecord
280
1
1000
auto
  0
XRECORD
  5
C2
330
A6
100
AcDbXrecord
280
1
1000
auto
  0
XRECORD
  5
C3
330
A6
100
AcDbXrecord
280
1
1000
1
  0
XRECORD
  5
C4
330
A6
100
AcDbXrecord
280
1
1000
auto
  0
XRECORD
  5
C5
330
A6
100
AcDbXrecord
280
1
1000
auto
  0
XRECORD
  5
C6
330
A6
100
AcDbXrecord
280
1
1000
auto
  0
XRECORD
  5
C7
330
A6
100
AcDbXrecord
280
1
 90
1
  0
XRECORD
  5
C8
330
A6
100
AcDbXrecord
280
1
 40
10.0
  0
XRECORD
  5
C9
330
A6
100
AcDbXrecord
280
1
 40
10.0
  0
XRECORD
  5
CA
330
A6
100
AcDbXrecord
280
1
 40
10.0
  0
XRECORD
  5
CB
330
A6
100
AcDbXrecord
280
1
 40
10.0
  0
XRECORD
  5
CC
330
A6
100
AcDbXrecord
280
1
290
0
  0
XRECORD
  5
CD
330
A6
100
AcDbXrecord
280
1
 90
1
  0
XRECORD
  5
CE
330
A6
100
AcDbXrecord
280
1
 40
793.1665914866936191
  0
XRECORD
  5
CF
330
A6
100
AcDbXrecord
280
1
 40
306.6308471493692309
  0
XRECORD
  5
D0
330
A6
100
AcDbXrecord
280
1
1000
Portrait
  0
XRECORD
  5
D1
330
A6
100
AcDbXrecord
280
1
 40
279.3999999999999773
  0
XRECORD
  5
D2
330
A6
100
AcDbXrecord
280
1
 40
215.9000000000000057
  0
XRECORD
  5
D3
330
A6
100
AcDbXrecord
280
1
 90
1
  0
XRECORD
  5
D4
330
A6
100
AcDbXrecord
280
1
290
1
  0
XRECORD
  5
D5
330
A6
100
AcDbXrecord
280
1
290
0
  0
XRECORD
  5
D6
330
A6
100
AcDbXrecord
280
1
1000
Inside
  0
XRECORD
  5
D7
330
A6
100
AcDbXrecord
280
1
1000
Arial,10,-1,5,50,0,0,0,0,0
  0
XRECORD
  5
D8
330
A6
100
AcDbXrecord
280
1
1000
TopLeft
  0
XRECORD
  5
D9
330
A6
100
AcDbXrecord
280
1
1000
3.28.1
  0
XRECORD
  5
DA
330
A6
100
AcDbXrecord
280
1
 90
4
  0
XRECORD
  5
DC
330
A6
100
AcDbXrecord
280
1
 40
256.5670957213409906
  0
XRECORD
  5
DD
330
A6
100
AcDbXrecord
280
1
 40
445.9263671332677177
  0
IMAGEDEF
  5
63
100
AcDbRasterImageDef
 90
0
  1
C:/Users/iamth/Documents/CAD/QCad/Learn QCAD/1. StudyCadCam/2D CAD EXERCISES 38a.png
 10
200.0
 20
141.0
 11
1.0
 21
1.0
280
1
281
0
  0
ENDSEC
  0
EOF
