999
dxflib 3.26.4.0
  0
SECTION
  2
HEADER
  9
$ACADVER
  1
AC1015
  9
$HANDSEED
  5
FFFF
  9
$DIMADEC
 70
0
  9
$DIMASZ
 40
2.5
  9
$DIMATFIT
 70
0
  9
$DIMAUNIT
 70
0
  9
$DIMAZIN
 70
2
  9
$DIMBLK
  1
0
  9
$DIMBLK1
  1
0
  9
$DIMBLK2
  1
0
  9
$DIMDEC
 70
4
  9
$DIMDLI
 40
5.0
  9
$DIMDSEP
 70
46
  9
$DIMEXE
 40
1.25
  9
$DIMEXO
 40
0.625
  9
$DIMGAP
 40
0.625
  9
$DIMLFAC
 40
1.0
  9
$DIMLUNIT
 70
2
  9
$DIMSCALE
 40
1.0
  9
$DIMTAD
 70
1
  9
$DIMTIH
 70
0
  9
$DIMTSZ
 40
0.0
  9
$DIMTXT
 40
2.5
  9
$DIMZIN
 70
8
  9
$DWGCODEPAGE
  3
ANSI_1252
  9
$INSUNITS
 70
4
  9
$LTSCALE
 40
1.0
  9
$MAXACTVP
 70
64
  9
$MEASUREMENT
 70
1
  9
$MIRRTEXT
 70
0
  9
$PDMODE
 70
0
  9
$PDSIZE
 40
0.0
  0
ENDSEC
  0
SECTION
  2
TABLES
  0
TABLE
  2
VPORT
  5
8
100
AcDbSymbolTable
 70
1
  0
VPORT
  5
30
100
AcDbSymbolTableRecord
100
AcDbViewportTableRecord
  2
*Active
 70
0
 10
0.0
 20
0.0
 11
1.0
 21
1.0
 12
286.3055555555554861
 22
148.5
 13
0.0
 23
0.0
 14
10.0
 24
10.0
 15
10.0
 25
10.0
 16
0.0
 26
0.0
 36
1.0
 17
0.0
 27
0.0
 37
0.0
 40
297.0
 41
1.92798353909465
 42
50.0
 43
0.0
 44
0.0
 50
0.0
 51
0.0
 71
0
 72
100
 73
1
 74
3
 75
1
 76
1
 77
0
 78
0
281
0
 65
1
110
0.0
120
0.0
130
0.0
111
1.0
121
0.0
131
0.0
112
0.0
122
1.0
132
0.0
 79
0
146
0.0
  0
ENDTAB
  0
TABLE
  2
LTYPE
  5
5
100
AcDbSymbolTable
 70
41
  0
LTYPE
  5
16
100
AcDbSymbolTableRecord
100
AcDbLinetypeTableRecord
  2
Continuous
 70
0
  3
Solid line
 72
65
 73
0
 40
0.0
  0
LTYPE
  5
31
100
AcDbSymbolTableRecord
100
AcDbLinetypeTableRecord
  2
CENTER2
 70
0
  3
Center (.5x) ___ _ ___ _ ___ _ ___ _ ___ _ ___
 72
65
 73
4
 40
28.5750000000000028
 49
19.0500000000000007
 74
0
 49
-3.1749999999999998
 74
0
 49
3.1749999999999998
 74
0
 49
-3.1749999999999998
 74
0
  0
LTYPE
  5
32
100
AcDbSymbolTableRecord
100
AcDbLinetypeTableRecord
  2
ACAD_ISO07W100
 70
0
  3
ISO dot . . . . . . . . . . . . . . . . . . . . 
 72
65
 73
2
 40
3.0
 49
0.1
 74
0
 49
-2.8999999999999999
 74
0
  0
LTYPE
  5
33
100
AcDbSymbolTableRecord
100
AcDbLinetypeTableRecord
  2
ACAD_ISO12W100
 70
0
  3
ISO dash double-dot __ . . __ . . __ . . __ . . 
 72
65
 73
6
 40
21.0
 49
12.0
 74
0
 49
-2.9500000000000002
 74
0
 49
0.1
 74
0
 49
-2.9000000000000004
 74
0
 49
0.1
 74
0
 49
-2.9500000000000002
 74
0
  0
LTYPE
  5
14
100
AcDbSymbolTableRecord
100
AcDbLinetypeTableRecord
  2
BYBLOCK
 70
0
  3

 72
65
 73
0
 40
0.0
  0
LTYPE
  5
34
100
AcDbSymbolTableRecord
100
AcDbLinetypeTableRecord
  2
HIDDEN
 70
0
  3
Hidden __ __ __ __ __ __ __ __ __ __ __ __ __ __
 72
65
 73
2
 40
9.5249999999999986
 49
6.3499999999999996
 74
0
 49
-3.1749999999999998
 74
0
  0
LTYPE
  5
35
100
AcDbSymbolTableRecord
100
AcDbLinetypeTableRecord
  2
HIDDEN2
 70
0
  3
Hidden (.5x) _ _ _ _ _ _ _ _ _ _ _ _ _ _ _ _ _ 
 72
65
 73
2
 40
4.7624999999999993
 49
3.1749999999999998
 74
0
 49
-1.5874999999999999
 74
0
  0
LTYPE
  5
36
100
AcDbSymbolTableRecord
100
AcDbLinetypeTableRecord
  2
DASHDOT2
 70
0
  3
Dash dot (.5x) _._._._._._._._._._._._._._._.
 72
65
 73
4
 40
12.6999999999999993
 49
6.3499999999999996
 74
0
 49
-3.125
 74
0
 49
0.1
 74
0
 49
-3.125
 74
0
  0
LTYPE
  5
37
100
AcDbSymbolTableRecord
100
AcDbLinetypeTableRecord
  2
ACAD_ISO05W100
 70
0
  3
ISO long-dash double-dot ____ .. ____ .. ____ . 
 72
65
 73
6
 40
33.0000000000000071
 49
24.0
 74
0
 49
-2.9500000000000002
 74
0
 49
0.1
 74
0
 49
-2.9000000000000004
 74
0
 49
0.1
 74
0
 49
-2.9500000000000002
 74
0
  0
LTYPE
  5
38
100
AcDbSymbolTableRecord
100
AcDbLinetypeTableRecord
  2
DIVIDE2
 70
0
  3
Divide (.5x) __..__..__..__..__..__..__..__.._
 72
65
 73
6
 40
15.8749999999999982
 49
6.3499999999999996
 74
0
 49
-3.125
 74
0
 49
0.1
 74
0
 49
-3.0750000000000002
 74
0
 49
0.1
 74
0
 49
-3.125
 74
0
  0
LTYPE
  5
39
100
AcDbSymbolTableRecord
100
AcDbLinetypeTableRecord
  2
BORDER
 70
0
  3
Border __ __ . __ __ . __ __ . __ __ . __ __ .
 72
65
 73
6
 40
44.4499999999999957
 49
12.6999999999999993
 74
0
 49
-6.3499999999999996
 74
0
 49
12.6999999999999993
 74
0
 49
-6.2999999999999998
 74
0
 49
0.1
 74
0
 49
-6.2999999999999998
 74
0
  0
LTYPE
  5
3A
100
AcDbSymbolTableRecord
100
AcDbLinetypeTableRecord
  2
PHANTOM
 70
0
  3
Phantom ______  __  __  ______  __  __  ______ 
 72
65
 73
6
 40
63.5000000000000071
 49
31.75
 74
0
 49
-6.3499999999999996
 74
0
 49
6.3499999999999996
 74
0
 49
-6.3499999999999996
 74
0
 49
6.3499999999999996
 74
0
 49
-6.3499999999999996
 74
0
  0
LTYPE
  5
3B
100
AcDbSymbolTableRecord
100
AcDbLinetypeTableRecord
  2
ACAD_ISO02W100
 70
0
  3
ISO dash __ __ __ __ __ __ __ __ __ __ __ __ __
 72
65
 73
2
 40
15.0
 49
12.0
 74
0
 49
-3.0
 74
0
  0
LTYPE
  5
3C
100
AcDbSymbolTableRecord
100
AcDbLinetypeTableRecord
  2
ACAD_ISO03W100
 70
0
  3
ISO dash space __    __    __    __    __    __
 72
65
 73
2
 40
30.0
 49
12.0
 74
0
 49
-18.0
 74
0
  0
LTYPE
  5
3D
100
AcDbSymbolTableRecord
100
AcDbLinetypeTableRecord
  2
ACAD_ISO04W100
 70
0
  3
ISO long-dash dot ____ . ____ . ____ . ____ . _
 72
65
 73
4
 40
30.0
 49
24.0
 74
0
 49
-2.9500000000000002
 74
0
 49
0.1
 74
0
 49
-2.9500000000000002
 74
0
  0
LTYPE
  5
3E
100
AcDbSymbolTableRecord
100
AcDbLinetypeTableRecord
  2
DIVIDEX2
 70
0
  3
Divide (2x) ________  .  .  ________  .  .  _
 72
65
 73
6
 40
63.5
 49
25.3999999999999986
 74
0
 49
-12.6499999999999986
 74
0
 49
0.1
 74
0
 49
-12.5999999999999979
 74
0
 49
0.1
 74
0
 49
-12.6499999999999986
 74
0
  0
LTYPE
  5
3F
100
AcDbSymbolTableRecord
100
AcDbLinetypeTableRecord
  2
DASHDOT
 70
0
  3
Dash dot __ . __ . __ . __ . __ . __ . __ . __
 72
65
 73
4
 40
25.4000000000000021
 49
12.6999999999999993
 74
0
 49
-6.2999999999999998
 74
0
 49
0.1
 74
0
 49
-6.2999999999999998
 74
0
  0
LTYPE
  5
40
100
AcDbSymbolTableRecord
100
AcDbLinetypeTableRecord
  2
DOTX2
 70
0
  3
Dot (2x) .  .  .  .  .  .  .  .  .  .  .  .  .  .
 72
65
 73
2
 40
12.6999999999999993
 49
0.1
 74
0
 49
-12.5999999999999996
 74
0
  0
LTYPE
  5
41
100
AcDbSymbolTableRecord
100
AcDbLinetypeTableRecord
  2
DOT2
 70
0
  3
Dot (.5x) ........................................
 72
65
 73
2
 40
3.1749999999999998
 49
0.1
 74
0
 49
-3.0749999999999997
 74
0
  0
LTYPE
  5
42
100
AcDbSymbolTableRecord
100
AcDbLinetypeTableRecord
  2
DASHEDX2
 70
0
  3
Dashed (2x) ____  ____  ____  ____  ____  ___
 72
65
 73
2
 40
38.0999999999999943
 49
25.3999999999999986
 74
0
 49
-12.6999999999999993
 74
0
  0
LTYPE
  5
43
100
AcDbSymbolTableRecord
100
AcDbLinetypeTableRecord
  2
ACAD_ISO11W100
 70
0
  3
ISO double-dash dot __ __ . __ __ . __ __ . __ _
 72
65
 73
6
 40
33.0
 49
12.0
 74
0
 49
-3.0
 74
0
 49
12.0
 74
0
 49
-2.9500000000000002
 74
0
 49
0.1
 74
0
 49
-2.9500000000000002
 74
0
  0
LTYPE
  5
44
100
AcDbSymbolTableRecord
100
AcDbLinetypeTableRecord
  2
ACAD_ISO06W100
 70
0
  3
ISO long-dash triple-dot ____ ... ____ ... ____
 72
65
 73
8
 40
36.0000000000000071
 49
24.0
 74
0
 49
-2.9500000000000002
 74
0
 49
0.1
 74
0
 49
-2.9000000000000004
 74
0
 49
0.1
 74
0
 49
-2.9000000000000004
 74
0
 49
0.1
 74
0
 49
-2.9500000000000002
 74
0
  0
LTYPE
  5
45
100
AcDbSymbolTableRecord
100
AcDbLinetypeTableRecord
  2
DOT
 70
0
  3
Dot . . . . . . . . . . . . . . . . . . . . . . . .
 72
65
 73
2
 40
6.3499999999999996
 49
0.1
 74
0
 49
-6.25
 74
0
  0
LTYPE
  5
46
100
AcDbSymbolTableRecord
100
AcDbLinetypeTableRecord
  2
HIDDENX2
 70
0
  3
Hidden (2x) ____ ____ ____ ____ ____ ____ ____ 
 72
65
 73
2
 40
19.0499999999999972
 49
12.6999999999999993
 74
0
 49
-6.3499999999999996
 74
0
  0
LTYPE
  5
47
100
AcDbSymbolTableRecord
100
AcDbLinetypeTableRecord
  2
CENTER
 70
0
  3
Center ____ _ ____ _ ____ _ ____ _ ____ _ ____
 72
65
 73
4
 40
50.8000000000000043
 49
31.75
 74
0
 49
-6.3499999999999996
 74
0
 49
6.3499999999999996
 74
0
 49
-6.3499999999999996
 74
0
  0
LTYPE
  5
48
100
AcDbSymbolTableRecord
100
AcDbLinetypeTableRecord
  2
ACAD_ISO10W100
 70
0
  3
ISO dash dot __ . __ . __ . __ . __ . __ . __ . 
 72
65
 73
4
 40
18.0
 49
12.0
 74
0
 49
-2.9500000000000002
 74
0
 49
0.1
 74
0
 49
-2.9500000000000002
 74
0
  0
LTYPE
  5
49
100
AcDbSymbolTableRecord
100
AcDbLinetypeTableRecord
  2
DIVIDE
 70
0
  3
Divide ____ . . ____ . . ____ . . ____ . . ____
 72
65
 73
6
 40
31.7500000000000036
 49
12.6999999999999993
 74
0
 49
-6.2999999999999998
 74
0
 49
0.1
 74
0
 49
-6.25
 74
0
 49
0.1
 74
0
 49
-6.2999999999999998
 74
0
  0
LTYPE
  5
4A
100
AcDbSymbolTableRecord
100
AcDbLinetypeTableRecord
  2
CENTERX2
 70
0
  3
Center (2x) ________  __  ________  __  _____
 72
65
 73
4
 40
101.6000000000000085
 49
63.5
 74
0
 49
-12.6999999999999993
 74
0
 49
12.6999999999999993
 74
0
 49
-12.6999999999999993
 74
0
  0
LTYPE
  5
4B
100
AcDbSymbolTableRecord
100
AcDbLinetypeTableRecord
  2
PHANTOMX2
 70
0
  3
Phantom (2x) ____________    ____    ____   _
 72
65
 73
6
 40
127.0000000000000142
 49
63.5
 74
0
 49
-12.6999999999999993
 74
0
 49
12.6999999999999993
 74
0
 49
-12.6999999999999993
 74
0
 49
12.6999999999999993
 74
0
 49
-12.6999999999999993
 74
0
  0
LTYPE
  5
15
100
AcDbSymbolTableRecord
100
AcDbLinetypeTableRecord
  2
BYLAYER
 70
0
  3

 72
65
 73
0
 40
0.0
  0
LTYPE
  5
4C
100
AcDbSymbolTableRecord
100
AcDbLinetypeTableRecord
  2
ACAD_ISO15W100
 70
0
  3
ISO double-dash triple-dot __ __ . . . __ __ . .
 72
65
 73
10
 40
39.0000000000000071
 49
12.0
 74
0
 49
-3.0
 74
0
 49
12.0
 74
0
 49
-2.9500000000000002
 74
0
 49
0.1
 74
0
 49
-2.9000000000000004
 74
0
 49
0.1
 74
0
 49
-2.9000000000000004
 74
0
 49
0.1
 74
0
 49
-2.9500000000000002
 74
0
  0
LTYPE
  5
4D
100
AcDbSymbolTableRecord
100
AcDbLinetypeTableRecord
  2
ACAD_ISO13W100
 70
0
  3
ISO double-dash double-dot __ __ . . __ __ . . _
 72
65
 73
8
 40
36.0000000000000071
 49
12.0
 74
0
 49
-3.0
 74
0
 49
12.0
 74
0
 49
-2.9500000000000002
 74
0
 49
0.1
 74
0
 49
-2.9000000000000004
 74
0
 49
0.1
 74
0
 49
-2.9500000000000002
 74
0
  0
LTYPE
  5
4E
100
AcDbSymbolTableRecord
100
AcDbLinetypeTableRecord
  2
ACAD_ISO14W100
 70
0
  3
ISO dash triple-dot __ . . . __ . . . __ . . . _
 72
65
 73
8
 40
24.0000000000000036
 49
12.0
 74
0
 49
-2.9500000000000002
 74
0
 49
0.1
 74
0
 49
-2.9000000000000004
 74
0
 49
0.1
 74
0
 49
-2.9000000000000004
 74
0
 49
0.1
 74
0
 49
-2.9500000000000002
 74
0
  0
LTYPE
  5
4F
100
AcDbSymbolTableRecord
100
AcDbLinetypeTableRecord
  2
ACAD_ISO08W100
 70
0
  3
ISO long-dash short-dash ____ __ ____ __ ____ _
 72
65
 73
4
 40
36.0
 49
24.0
 74
0
 49
-3.0
 74
0
 49
6.0
 74
0
 49
-3.0
 74
0
  0
LTYPE
  5
50
100
AcDbSymbolTableRecord
100
AcDbLinetypeTableRecord
  2
DASHDOTX2
 70
0
  3
Dash dot (2x) ____  .  ____  .  ____  .  ___
 72
65
 73
4
 40
50.7999999999999972
 49
25.3999999999999986
 74
0
 49
-12.6499999999999986
 74
0
 49
0.1
 74
0
 49
-12.6499999999999986
 74
0
  0
LTYPE
  5
51
100
AcDbSymbolTableRecord
100
AcDbLinetypeTableRecord
  2
BORDERX2
 70
0
  3
Border (2x) ____  ____  .  ____  ____  .  ___
 72
65
 73
6
 40
88.8999999999999773
 49
25.3999999999999986
 74
0
 49
-12.6999999999999993
 74
0
 49
25.3999999999999986
 74
0
 49
-12.6499999999999986
 74
0
 49
0.1
 74
0
 49
-12.6499999999999986
 74
0
  0
LTYPE
  5
52
100
AcDbSymbolTableRecord
100
AcDbLinetypeTableRecord
  2
ACAD_ISO09W100
 70
0
  3
ISO long-dash double-short-dash ____ __ __ ____
 72
65
 73
6
 40
45.0
 49
24.0
 74
0
 49
-3.0
 74
0
 49
6.0
 74
0
 49
-3.0
 74
0
 49
6.0
 74
0
 49
-3.0
 74
0
  0
LTYPE
  5
53
100
AcDbSymbolTableRecord
100
AcDbLinetypeTableRecord
  2
DASHED
 70
0
  3
Dashed __ __ __ __ __ __ __ __ __ __ __ __ __ _
 72
65
 73
2
 40
19.0499999999999972
 49
12.6999999999999993
 74
0
 49
-6.3499999999999996
 74
0
  0
LTYPE
  5
54
100
AcDbSymbolTableRecord
100
AcDbLinetypeTableRecord
  2
DASHED2
 70
0
  3
Dashed (.5x) _ _ _ _ _ _ _ _ _ _ _ _ _ _ _ _ _ 
 72
65
 73
2
 40
9.5249999999999986
 49
6.3499999999999996
 74
0
 49
-3.1749999999999998
 74
0
  0
LTYPE
  5
55
100
AcDbSymbolTableRecord
100
AcDbLinetypeTableRecord
  2
BORDER2
 70
0
  3
Border (.5x) __.__.__.__.__.__.__.__.__.__.__.
 72
65
 73
6
 40
22.2250000000000014
 49
6.3499999999999996
 74
0
 49
-3.1749999999999998
 74
0
 49
6.3499999999999996
 74
0
 49
-3.125
 74
0
 49
0.1
 74
0
 49
-3.125
 74
0
  0
LTYPE
  5
56
100
AcDbSymbolTableRecord
100
AcDbLinetypeTableRecord
  2
PHANTOM2
 70
0
  3
Phantom (.5x) ___ _ _ ___ _ _ ___ _ _ ___ _ _
 72
65
 73
6
 40
31.7500000000000036
 49
15.875
 74
0
 49
-3.1749999999999998
 74
0
 49
3.1749999999999998
 74
0
 49
-3.1749999999999998
 74
0
 49
3.1749999999999998
 74
0
 49
-3.1749999999999998
 74
0
  0
ENDTAB
  0
TABLE
  2
LAYER
  5
2
100
AcDbSymbolTable
 70
7
  0
LAYER
  5
57
100
AcDbSymbolTableRecord
100
AcDbLayerTableRecord
  2
Referencias 2
 70
1
 62
3
420
65280
  6
Continuous
370
25
390
F
  0
LAYER
  5
58
100
AcDbSymbolTableRecord
100
AcDbLayerTableRecord
  2
Contornos Ocultos
 70
0
 62
252
420
10526884
  6
ACAD_ISO02W100
370
30
390
F
  0
LAYER
  5
59
100
AcDbSymbolTableRecord
100
AcDbLayerTableRecord
  2
Referencias
 70
1
 62
2
420
16776960
  6
Continuous
370
25
390
F
  0
LAYER
  5
5A
100
AcDbSymbolTableRecord
100
AcDbLayerTableRecord
  2
Contornos Visibles
 70
0
 62
7
420
16777215
  6
Continuous
370
50
390
F
  0
LAYER
  5
5B
100
AcDbSymbolTableRecord
100
AcDbLayerTableRecord
  2
Cotas
 70
0
 62
1
420
16711680
  6
Continuous
370
20
390
F
  0
LAYER
  5
10
100
AcDbSymbolTableRecord
100
AcDbLayerTableRecord
  2
0
 70
0
 62
7
420
16777215
  6
Continuous
370
25
390
F
  0
LAYER
  5
5C
100
AcDbSymbolTableRecord
100
AcDbLayerTableRecord
  2
Ejes de revoluci\U+00f3n
 70
0
 62
6
420
16711935
  6
ACAD_ISO04W100
370
20
390
F
  0
ENDTAB
  0
TABLE
  2
STYLE
  5
3
100
AcDbSymbolTable
 70
3
  0
STYLE
  5
5D
100
AcDbSymbolTableRecord
100
AcDbTextStyleTableRecord
  2
Standard
 70
0
 40
0.0
 41
1.0
 50
0.0
 71
0
 42
2.5
  3

  4

1001
ACAD
1000
txt
1071
0
  0
STYLE
  5
5E
100
AcDbSymbolTableRecord
100
AcDbTextStyleTableRecord
  2
textstyle0
 70
0
 40
0.0
 41
1.0
 50
0.0
 71
0
 42
2.5
  3

  4

1001
ACAD
1000
Arial
1071
0
  0
STYLE
  5
5F
100
AcDbSymbolTableRecord
100
AcDbTextStyleTableRecord
  2
textstyle1
 70
0
 40
0.0
 41
1.0
 50
0.0
 71
0
 42
2.5
  3

  4

1001
ACAD
1000
Arial
1071
0
  0
ENDTAB
  0
TABLE
  2
VIEW
  5
6
100
AcDbSymbolTable
 70
0
  0
ENDTAB
  0
TABLE
  2
UCS
  5
7
100
AcDbSymbolTable
 70
0
  0
ENDTAB
  0
TABLE
  2
APPID
  5
9
100
AcDbSymbolTable
 70
1
  0
APPID
  5
12
100
AcDbSymbolTableRecord
100
AcDbRegAppTableRecord
  2
ACAD
 70
0
  0
APPID
  5
60
100
AcDbSymbolTableRecord
100
AcDbRegAppTableRecord
  2
QCAD
 70
0
  0
ENDTAB
  0
TABLE
  2
DIMSTYLE
  5
A
100
AcDbSymbolTable
 70
1
100
AcDbDimStyleTable
 71
0
  0
DIMSTYLE
105
27
100
AcDbSymbolTableRecord
100
AcDbDimStyleTableRecord
  2
Standard
 41
2.5
 42
0.625
 43
3.75
 44
1.25
 70
0
 73
0
 74
0
 77
1
 78
8
140
2.5
141
2.5
143
0.03937007874016
147
0.625
171
3
172
1
271
2
272
2
274
3
278
44
283
0
284
8
340
5D
  0
ENDTAB
  0
TABLE
  2
BLOCK_RECORD
  5
1
100
AcDbSymbolTable
 70
1
  0
BLOCK_RECORD
  5
1F
100
AcDbSymbolTableRecord
100
AcDbBlockTableRecord
  2
*Model_Space
340
22
  0
BLOCK_RECORD
  5
1B
100
AcDbSymbolTableRecord
100
AcDbBlockTableRecord
  2
*Paper_Space
340
1E
  0
BLOCK_RECORD
  5
23
100
AcDbSymbolTableRecord
100
AcDbBlockTableRecord
  2
*Paper_Space0
340
26
  0
ENDTAB
  0
ENDSEC
  0
SECTION
  2
BLOCKS
  0
BLOCK
  5
20
100
AcDbEntity
  8
0
100
AcDbBlockBegin
  2
*Model_Space
 70
0
 10
0.0
 20
0.0
 30
0.0
  3
*Model_Space
  1

  0
ENDBLK
  5
21
100
AcDbEntity
  8
0
100
AcDbBlockEnd
  0
BLOCK
  5
1C
100
AcDbEntity
 67
1
  8
0
100
AcDbBlockBegin
  2
*Paper_Space
 70
0
 10
0.0
 20
0.0
 30
0.0
  3
*Paper_Space
  1

  0
ENDBLK
  5
1D
100
AcDbEntity
 67
1
  8
0
100
AcDbBlockEnd
  0
BLOCK
  5
24
100
AcDbEntity
  8
0
100
AcDbBlockBegin
  2
*Paper_Space0
 70
0
 10
0.0
 20
0.0
 30
0.0
  3
*Paper_Space0
  1

  0
ENDBLK
  5
25
100
AcDbEntity
  8
0
100
AcDbBlockEnd
  0
ENDSEC
  0
SECTION
  2
ENTITIES
  0
DIMENSION
  5
61
100
AcDbEntity
  8
Cotas
 62
256
370
-1
 48
1.0
  6
BYLAYER
100
AcDbDimension
 10
565.5443476868546213
 20
97.5548235535286778
 30
0.0
 11
nan
 21
nan
 31
0.0
 70
2
 71
8
 72
2
 74
0
 75
0
 41
1.0
 42
0.0
  1

  3
Standard
100
AcDb2LineAngularDimension
 13
560.714718555409263
 23
96.2607283280160715
 33
0.0
 14
555.8850894239639047
 24
94.9666331025034651
 34
0.0
 15
560.714718555409263
 25
96.2607283280160715
 35
0.0
 16
562.2480563724011517
 26
84.6138712984026284
 36
0.0
  0
CIRCLE
  5
62
100
AcDbEntity
  8
Contornos Visibles
 62
256
370
-1
 48
1.0
  6
BYLAYER
100
AcDbCircle
 10
850.6647270675182426
 20
306.1074164884440165
 30
0.0
 40
26.5
  0
CIRCLE
  5
63
100
AcDbEntity
  8
Ejes de revoluci\U+00f3n
 62
256
370
-1
 48
1.0
  6
BYLAYER
100
AcDbCircle
 10
850.6647270675182426
 20
306.1074164884440165
 30
0.0
 40
43.5
  0
XLINE
  5
64
100
AcDbEntity
  8
Referencias
 62
256
370
-1
 48
1.0
  6
BYLAYER
100
AcDbLine
 10
850.6647270675182426
 20
306.1074164884440165
 30
0.0
 11
1.0
 21
0.0
 31
0.0
  0
LINE
  5
65
100
AcDbEntity
  8
Referencias 2
 62
256
370
-1
 48
1.0
  6
BYLAYER
100
AcDbLine
 10
850.6647270675182426
 20
306.1074164884440165
 30
0.0
 11
890.089115803612458
 21
324.4913108741644692
 31
0.0
  0
LINE
  5
66
100
AcDbEntity
  8
Referencias 2
 62
256
370
-1
 48
1.0
  6
BYLAYER
100
AcDbLine
 10
850.6647270675181289
 20
306.1074164884439028
 30
0.0
 11
869.0486214532385247
 21
266.6830277523496875
 31
0.0
  0
LINE
  5
67
100
AcDbEntity
  8
Referencias 2
 62
256
370
-1
 48
1.0
  6
BYLAYER
100
AcDbLine
 10
850.6647270675180152
 20
306.1074164884440165
 30
0.0
 11
811.2403383314237999
 21
287.7235221027236207
 31
0.0
  0
LINE
  5
68
100
AcDbEntity
  8
Referencias 2
 62
256
370
-1
 48
1.0
  6
BYLAYER
100
AcDbLine
 10
850.6647270675181289
 20
306.1074164884441302
 30
0.0
 11
832.2808326817977331
 21
345.5318052245383456
 31
0.0
  0
CIRCLE
  5
69
100
AcDbEntity
  8
Contornos Visibles
 62
256
370
-1
 48
1.0
  6
BYLAYER
100
AcDbCircle
 10
890.089115803612458
 20
324.4913108741644692
 30
0.0
 40
5.999999999999984
  0
CIRCLE
  5
6A
100
AcDbEntity
  8
Contornos Visibles
 62
256
370
-1
 48
1.0
  6
BYLAYER
100
AcDbCircle
 10
869.0486214532385247
 20
266.6830277523496875
 30
0.0
 40
5.999999999999984
  0
CIRCLE
  5
6B
100
AcDbEntity
  8
Contornos Visibles
 62
256
370
-1
 48
1.0
  6
BYLAYER
100
AcDbCircle
 10
811.2403383314237999
 20
287.7235221027236207
 30
0.0
 40
5.999999999999984
  0
CIRCLE
  5
6C
100
AcDbEntity
  8
Contornos Visibles
 62
256
370
-1
 48
1.0
  6
BYLAYER
100
AcDbCircle
 10
832.2808326817977331
 20
345.5318052245383456
 30
0.0
 40
5.999999999999984
  0
LINE
  5
6D
100
AcDbEntity
  8
Referencias
 62
256
370
-1
 48
1.0
  6
BYLAYER
100
AcDbLine
 10
850.6647270675183563
 20
306.1074164884440165
 30
0.0
 11
850.6647270675183563
 21
261.1074164884440165
 31
0.0
  0
LINE
  5
6E
100
AcDbEntity
  8
Referencias
 62
256
370
-1
 48
1.0
  6
BYLAYER
100
AcDbLine
 10
802.6647270675183563
 20
261.1074164884440165
 30
0.0
 11
850.6647270675183563
 21
261.1074164884440165
 31
0.0
  0
ARC
  5
6F
100
AcDbEntity
  8
Contornos Visibles
 62
256
370
-1
 48
1.0
  6
BYLAYER
100
AcDbCircle
 10
895.6647270675183563
 20
261.1074164884440165
 30
0.0
 40
15.0
100
AcDbArc
 50
270.0
 51
76.0243474687443381
  0
ARC
  5
70
100
AcDbEntity
  8
Contornos Visibles
 62
256
370
-1
 48
1.0
  6
BYLAYER
100
AcDbCircle
 10
802.6647270675183563
 20
261.1074164884440165
 30
0.0
 40
15.0
100
AcDbArc
 50
108.3016770890713616
 51
270.0
  0
LINE
  5
71
100
AcDbEntity
  8
Contornos Visibles
 62
256
370
-1
 48
1.0
  6
BYLAYER
100
AcDbLine
 10
802.6647270675183563
 20
246.1074164884440165
 30
0.0
 11
850.6647270675183563
 21
246.1074164884440165
 31
0.0
  0
LINE
  5
72
100
AcDbEntity
  8
Contornos Visibles
 62
256
370
-1
 48
1.0
  6
BYLAYER
100
AcDbLine
 10
850.6647270675183563
 20
246.1074164884440165
 30
0.0
 11
895.6647270675183563
 21
246.1074164884440165
 31
0.0
  0
LINE
  5
73
100
AcDbEntity
  8
Referencias
 62
256
370
-1
 48
1.0
  6
BYLAYER
100
AcDbLine
 10
850.6647270675183563
 20
261.1074164884440165
 30
0.0
 11
895.6647270675183563
 21
261.1074164884440165
 31
0.0
  0
LINE
  5
74
100
AcDbEntity
  8
Referencias
 62
256
370
-1
 48
1.0
  6
BYLAYER
100
AcDbLine
 10
850.66472706751847
 20
306.1074164884441302
 30
0.0
 11
850.66472706751847
 21
355.6074164884441302
 31
0.0
  0
LINE
  5
75
100
AcDbEntity
  8
Referencias
 62
256
370
-1
 48
1.0
  6
BYLAYER
100
AcDbLine
 10
802.66472706751847
 20
355.6074164884441302
 30
0.0
 11
850.66472706751847
 21
355.6074164884441302
 31
0.0
  0
ARC
  5
76
100
AcDbEntity
  8
Contornos Visibles
 62
256
370
-1
 48
1.0
  6
BYLAYER
100
AcDbCircle
 10
802.6647270675183563
 20
355.6074164884441302
 30
0.0
 40
15.0
100
AcDbArc
 50
89.9999999999995737
 51
276.0291630146373336
  0
LINE
  5
77
100
AcDbEntity
  8
Referencias
 62
256
370
-1
 48
1.0
  6
BYLAYER
100
AcDbLine
 10
850.6647270675180152
 20
306.1074164884440165
 30
0.0
 11
850.6647270675180152
 21
367.6074164884440165
 31
0.0
  0
ARC
  5
78
100
AcDbEntity
  8
Contornos Visibles
 62
256
370
-1
 48
1.0
  6
BYLAYER
100
AcDbCircle
 10
850.6647270675180152
 20
367.6074164884440165
 30
0.0
 40
13.5
100
AcDbArc
 50
358.6024033717543489
 51
90.0
  0
LINE
  5
79
100
AcDbEntity
  8
Referencias 2
 62
256
370
-1
 48
1.0
  6
BYLAYER
100
AcDbLine
 10
850.6647270675180152
 20
367.6074164884440165
 30
0.0
 11
850.6647270675180152
 21
381.1074164884440165
 31
0.0
  0
LINE
  5
7A
100
AcDbEntity
  8
Referencias 2
 62
256
370
-1
 48
1.0
  6
BYLAYER
100
AcDbLine
 10
850.6647270675180152
 20
367.6074164884440165
 30
0.0
 11
864.1647270675180152
 21
367.6074164884440165
 31
0.0
  0
LINE
  5
7B
100
AcDbEntity
  8
Referencias 2
 62
256
370
-1
 48
1.0
  6
BYLAYER
100
AcDbLine
 10
778.1601041045864804
 20
272.2979555491873498
 30
0.0
 11
850.66472706751847
 21
306.1074164884432776
 31
0.0
  0
ARC
  5
7C
100
AcDbEntity
  8
Contornos Visibles
 62
256
370
-1
 48
1.0
  6
BYLAYER
100
AcDbCircle
 10
850.6647270675180152
 20
306.107416488443107
 30
0.0
 40
48.0
100
AcDbArc
 50
0.0
 51
15.2150541940342112
  0
ARC
  5
7D
100
AcDbEntity
  8
Contornos Visibles
 62
256
370
-1
 48
1.0
  6
BYLAYER
100
AcDbCircle
 10
890.089115803612458
 20
324.4913108741644692
 30
0.0
 40
8.9999999999999787
100
AcDbArc
 50
319.9870743978350447
 51
90.0129256021665896
  0
ARC
  5
7E
100
AcDbEntity
  8
Contornos Visibles
 62
256
370
-1
 48
1.0
  6
BYLAYER
100
AcDbCircle
 10
850.66472706751847
 20
306.1074164884440165
 30
0.0
 40
47.9999999999995453
100
AcDbArc
 50
34.7849458059672685
 51
59.3037666324740229
  0
ARC
  5
7F
100
AcDbEntity
  8
Contornos Visibles
 62
256
370
-1
 48
1.0
  6
BYLAYER
100
AcDbCircle
 10
886.6540175625956408
 20
366.729367707955987
 30
0.0
 40
22.5
100
AcDbArc
 50
178.6024033717539226
 51
239.3037666324741508
  0
ARC
  5
80
100
AcDbEntity
  8
Contornos Visibles
 62
256
370
-1
 48
1.0
  6
BYLAYER
100
AcDbCircle
 10
901.0986920080623577
 20
282.941381428988791
 30
0.0
 40
7.5
100
AcDbArc
 50
155.3290722488449944
 51
256.0243474687442813
  0
ARC
  5
81
100
AcDbEntity
  8
Contornos Visibles
 62
256
370
-1
 48
1.0
  6
BYLAYER
100
AcDbCircle
 10
850.6647270675180152
 20
306.107416488443107
 30
0.0
 40
48.0
100
AcDbArc
 50
335.3290722488466713
 51
0.0
  0
ARC
  5
82
100
AcDbEntity
  8
Contornos Visibles
 62
256
370
-1
 48
1.0
  6
BYLAYER
100
AcDbCircle
 10
811.2403383314242546
 20
287.7235221027228818
 30
0.0
 40
8.9999999999999787
100
AcDbArc
 50
139.9870743978461007
 51
204.9999999999996305
  0
CIRCLE
  5
83
100
AcDbEntity
  8
Referencias
 62
256
370
-1
 48
1.0
  6
BYLAYER
100
AcDbCircle
 10
850.6647270675181289
 20
306.1074164884447555
 30
0.0
 40
48.0000000000005826
  0
ARC
  5
84
100
AcDbEntity
  8
Contornos Visibles
 62
256
370
-1
 48
1.0
  6
BYLAYER
100
AcDbCircle
 10
850.6647270675180152
 20
367.6074164884439597
 30
0.0
 40
13.4999999999986358
100
AcDbArc
 50
358.6024033717536668
 51
149.2276752320520643
  0
LINE
  5
85
100
AcDbEntity
  8
Contornos Visibles
 62
256
370
-1
 48
1.0
  6
BYLAYER
100
AcDbLine
 10
802.66472706751847
 20
370.6074164884441302
 30
0.0
 11
832.1917738656085248
 21
370.6074164884441302
 31
0.0
  0
ARC
  5
86
100
AcDbEntity
  8
Contornos Visibles
 62
256
370
-1
 48
1.0
  6
BYLAYER
100
AcDbCircle
 10
832.1917738656085248
 20
378.6074164884441302
 30
0.0
 40
8.0
100
AcDbArc
 50
270.0
 51
329.2276752320522064
  0
ARC
  5
87
100
AcDbEntity
  8
Contornos Visibles
 62
256
370
-1
 48
1.0
  6
BYLAYER
100
AcDbCircle
 10
850.6647270675181289
 20
306.1074164884447555
 30
0.0
 40
48.0000000000005684
100
AcDbArc
 50
147.9993495035990918
 51
180.0
  0
ARC
  5
88
100
AcDbEntity
  8
Contornos Visibles
 62
256
370
-1
 48
1.0
  6
BYLAYER
100
AcDbCircle
 10
804.8704547600842716
 20
334.7235766751758774
 30
0.0
 40
6.0
100
AcDbArc
 50
327.9993495035994329
 51
96.0291630146362962
  0
ARC
  5
89
100
AcDbEntity
  8
Contornos Visibles
 62
256
370
-1
 48
1.0
  6
BYLAYER
100
AcDbCircle
 10
850.66472706751847
 20
306.1074164884432207
 30
0.0
 40
48.0000000000009095
100
AcDbArc
 50
180.0
 51
195.2150541940342521
  0
ARC
  5
8A
100
AcDbEntity
  8
Contornos Visibles
 62
256
370
-1
 48
1.0
  6
BYLAYER
100
AcDbCircle
 10
795.5992715278824789
 20
282.4692829335239139
 30
0.0
 40
7.5
100
AcDbArc
 50
288.3016770890708926
 51
18.5685325967522168
  0
IMAGE
  5
8B
100
AcDbEntity
  8
Cotas
 62
256
370
-1
 48
1.0
  6
BYLAYER
100
AcDbRasterImage
 90
0
 10
508.3288875956543507
 20
245.2778491477109242
 30
0.0
 11
0.09765625
 21
0.0
 31
0.0
 12
0.0
 22
0.09765625
 32
0.0
 13
200.0
 23
141.0
340
8C
 70
15
280
0
281
50
282
50
283
0
  0
DIMENSION
  5
8D
100
AcDbEntity
  8
Cotas
 62
256
370
-1
 48
1.0
  6
BYLAYER
100
AcDbDimension
 10
850.6647270675182426
 20
306.1074164884440165
 30
0.0
 11
862.5870793025143257
 21
300.0299464404154719
 31
0.0
 70
4
 71
8
 72
2
 74
0
 41
1.0
 42
0.0
  1
\U+00f853
  3
Standard
100
AcDbRadialDimension
 15
872.3550459465079712
 25
290.8830916453600821
 35
0.0
 40
0.0
1001
ACAD
1000
DSTYLE
1002
{
1070
144
1040
1.0
1070
40
1040
1.0
1002
}
  0
LINE
  5
8E
100
AcDbEntity
  8
Ejes de revoluci\U+00f3n
 62
256
370
-1
 48
1.0
  6
BYLAYER
100
AcDbLine
 10
796.6647270675175605
 20
306.1074164884432207
 30
0.0
 11
904.6647270675193795
 21
306.1074164884432207
 31
0.0
  0
LINE
  5
8F
100
AcDbEntity
  8
Ejes de revoluci\U+00f3n
 62
256
370
-1
 48
1.0
  6
BYLAYER
100
AcDbLine
 10
850.66472706751847
 20
258.1074164884423112
 30
0.0
 11
850.66472706751847
 21
354.1074164884441302
 31
0.0
  0
LINE
  5
90
100
AcDbEntity
  8
Ejes de revoluci\U+00f3n
 62
256
370
-1
 48
1.0
  6
BYLAYER
100
AcDbLine
 10
831.1647270675193795
 20
367.6074164884439597
 30
0.0
 11
870.164727067516651
 21
367.6074164884439597
 31
0.0
  0
LINE
  5
91
100
AcDbEntity
  8
Ejes de revoluci\U+00f3n
 62
256
370
-1
 48
1.0
  6
BYLAYER
100
AcDbLine
 10
850.6647270675180152
 20
354.1074164884453239
 30
0.0
 11
850.6647270675180152
 21
381.1074164884425954
 31
0.0
  0
LINE
  5
92
100
AcDbEntity
  8
Ejes de revoluci\U+00f3n
 62
256
370
-1
 48
1.0
  6
BYLAYER
100
AcDbLine
 10
781.6647270675183563
 20
355.6074164884441302
 30
0.0
 11
823.6647270675183563
 21
355.6074164884441302
 31
0.0
  0
LINE
  5
93
100
AcDbEntity
  8
Ejes de revoluci\U+00f3n
 62
256
370
-1
 48
1.0
  6
BYLAYER
100
AcDbLine
 10
802.6647270675183563
 20
340.6074164884441302
 30
0.0
 11
802.6647270675183563
 21
370.6074164884441302
 31
0.0
  0
LINE
  5
94
100
AcDbEntity
  8
Ejes de revoluci\U+00f3n
 62
256
370
-1
 48
1.0
  6
BYLAYER
100
AcDbLine
 10
781.6647270675183563
 20
261.1074164884440165
 30
0.0
 11
823.6647270675183563
 21
261.1074164884440165
 31
0.0
  0
LINE
  5
95
100
AcDbEntity
  8
Ejes de revoluci\U+00f3n
 62
256
370
-1
 48
1.0
  6
BYLAYER
100
AcDbLine
 10
802.6647270675183563
 20
246.1074164884440165
 30
0.0
 11
802.6647270675183563
 21
276.1074164884440165
 31
0.0
  0
LINE
  5
96
100
AcDbEntity
  8
Ejes de revoluci\U+00f3n
 62
256
370
-1
 48
1.0
  6
BYLAYER
100
AcDbLine
 10
874.6647270675183563
 20
261.1074164884440165
 30
0.0
 11
916.6647270675183563
 21
261.1074164884440165
 31
0.0
  0
LINE
  5
97
100
AcDbEntity
  8
Ejes de revoluci\U+00f3n
 62
256
370
-1
 48
1.0
  6
BYLAYER
100
AcDbLine
 10
895.6647270675183563
 20
246.1074164884440165
 30
0.0
 11
895.6647270675183563
 21
276.1074164884440165
 31
0.0
  0
LINE
  5
98
100
AcDbEntity
  8
Ejes de revoluci\U+00f3n
 62
256
370
-1
 48
1.0
  6
BYLAYER
100
AcDbLine
 10
800.3646448869840242
 20
282.6521029618352259
 30
0.0
 11
822.1160317758635756
 21
292.7949412436120156
 31
0.0
  0
LINE
  5
99
100
AcDbEntity
  8
Ejes de revoluci\U+00f3n
 62
256
370
-1
 48
1.0
  6
BYLAYER
100
AcDbLine
 10
871.5843310236826937
 20
261.2451810301297996
 30
0.0
 11
866.5129118827943557
 21
272.1208744745695753
 31
0.0
  0
LINE
  5
9A
100
AcDbEntity
  8
Ejes de revoluci\U+00f3n
 62
256
370
-1
 48
1.0
  6
BYLAYER
100
AcDbLine
 10
892.624825374056627
 20
319.0534641519445813
 30
0.0
 11
887.553406233168289
 21
329.929157596384357
 31
0.0
  0
LINE
  5
9B
100
AcDbEntity
  8
Ejes de revoluci\U+00f3n
 62
256
370
-1
 48
1.0
  6
BYLAYER
100
AcDbLine
 10
834.8165422522419021
 20
340.0939585023184577
 30
0.0
 11
829.7451231113535641
 21
350.9696519467582334
 31
0.0
  0
LINE
  5
9C
100
AcDbEntity
  8
Ejes de revoluci\U+00f3n
 62
256
370
-1
 48
1.0
  6
BYLAYER
100
AcDbLine
 10
805.8024916092040257
 20
285.1878125322793949
 30
0.0
 11
895.5269625258324595
 21
327.0270204446086382
 31
0.0
  0
LINE
  5
9D
100
AcDbEntity
  8
Ejes de revoluci\U+00f3n
 62
256
370
-1
 48
1.0
  6
BYLAYER
100
AcDbLine
 10
869.0486214532386384
 20
266.6830277523497443
 30
0.0
 11
832.2808326817978468
 21
345.5318052245382887
 31
0.0
  0
DIMENSION
  5
9E
100
AcDbEntity
  8
Cotas
 62
256
370
-1
 48
1.0
  6
BYLAYER
100
AcDbDimension
 10
802.6647270675183563
 20
234.2371686365947312
 30
0.0
 11
826.6647270675183563
 21
236.1121686365947312
 31
0.0
 70
0
 71
8
 72
2
 74
0
 75
0
 41
1.0
 42
0.0
  1

  3
Standard
100
AcDbAlignedDimension
 13
802.6647270675183563
 23
246.1074164884440165
 33
0.0
 14
850.6647270675183563
 24
246.1074164884440165
 34
0.0
 50
0.0
100
AcDbRotatedDimension
1001
ACAD
1000
DSTYLE
1002
{
1070
144
1040
1.0
1070
40
1040
1.0
1002
}
  0
DIMENSION
  5
9F
100
AcDbEntity
  8
Cotas
 62
256
370
-1
 48
1.0
  6
BYLAYER
100
AcDbDimension
 10
850.6647270675183563
 20
234.2371686365947312
 30
0.0
 11
873.1647270675183563
 21
236.1121686365947312
 31
0.0
 70
0
 71
8
 72
2
 74
0
 75
0
 41
1.0
 42
0.0
  1

  3
Standard
100
AcDbAlignedDimension
 13
850.6647270675183563
 23
245.4824164884440165
 33
0.0
 14
895.6647270675183563
 24
246.1074164884440165
 34
0.0
 50
0.0
100
AcDbRotatedDimension
1001
ACAD
1000
DSTYLE
1002
{
1070
144
1040
1.0
1070
40
1040
1.0
1002
}
  0
DIMENSION
  5
A0
100
AcDbEntity
  8
Cotas
 62
256
370
-1
 48
1.0
  6
BYLAYER
100
AcDbDimension
 10
895.6647270675183563
 20
261.1074164884440165
 30
0.0
 11
900.9582606636074615
 21
266.7416091606088457
 31
0.0
 70
4
 71
8
 72
2
 74
0
 41
1.0
 42
0.0
  1
R<>
  3
Standard
100
AcDbRadialDimension
 15
908.2804103882342588
 25
269.2218810025946709
 35
0.0
 40
0.0
1001
ACAD
1000
DSTYLE
1002
{
1070
144
1040
1.0
1070
40
1040
1.0
1002
}
  0
DIMENSION
  5
A1
100
AcDbEntity
  8
Cotas
 62
256
370
-1
 48
1.0
  6
BYLAYER
100
AcDbDimension
 10
863.0764508279141864
 20
267.260243502319554
 30
0.0
 11
858.3012066057486891
 21
269.5400656538877797
 31
0.0
 70
131
 71
8
 72
2
 74
0
 75
0
 41
1.0
 42
0.0
  1
4-\U+00f8<>
  3
Standard
100
AcDbDiametricDimension
 15
875.020792078562863
 25
266.105812002379821
 35
0.0
 40
0.0
1001
ACAD
1000
DSTYLE
1002
{
1070
279
1070
2
1070
144
1040
1.0
1070
40
1040
1.0
1002
}
  0
DIMENSION
  5
A2
100
AcDbEntity
  8
Cotas
 62
256
370
-1
 48
1.0
  6
BYLAYER
100
AcDbDimension
 10
904.6647270675193795
 20
306.1074164884432207
 30
0.0
 11
914.5581045414259052
 21
320.2722372526395702
 31
0.0
 70
2
 71
8
 72
2
 74
0
 75
0
 41
1.0
 42
0.0
  1

  3
Standard
100
AcDb2LineAngularDimension
 13
895.5269625258324595
 23
327.0270204446086382
 33
0.0
 14
805.8024916092040257
 24
285.1878125322793949
 34
0.0
 15
796.6647270675175605
 25
306.1074164884432207
 35
0.0
 16
913.1014986138187624
 26
318.0553650573108939
 36
0.0
  0
DIMENSION
  5
A3
100
AcDbEntity
  8
Cotas
 62
256
370
-1
 48
1.0
  6
BYLAYER
100
AcDbDimension
 10
930.0521809904302017
 20
367.6074164884439597
 30
0.0
 11
928.1771809904302017
 21
336.8574164884436186
 31
0.0
 70
0
 71
8
 72
2
 74
0
 75
0
 41
1.0
 42
0.0
  1

  3
Standard
100
AcDbAlignedDimension
 13
864.164727067516651
 23
367.6074164884439597
 33
0.0
 14
905.2897270675193795
 24
306.1074164884432207
 34
0.0
 50
90.0
100
AcDbRotatedDimension
1001
ACAD
1000
DSTYLE
1002
{
1070
144
1040
1.0
1070
40
1040
1.0
1002
}
  0
DIMENSION
  5
A4
100
AcDbEntity
  8
Cotas
 62
256
370
-1
 48
1.0
  6
BYLAYER
100
AcDbDimension
 10
890.089115803612458
 20
324.4913108741644692
 30
0.0
 11
890.913135882625852
 21
329.296164244391548
 31
0.0
 70
4
 71
8
 72
2
 74
0
 41
1.0
 42
0.0
  1
R<>
  3
Standard
100
AcDbRadialDimension
 15
894.9050932425657265
 25
332.0943603483881361
 35
0.0
 40
0.0
1001
ACAD
1000
DSTYLE
1002
{
1070
144
1040
1.0
1070
40
1040
1.0
1002
}
  0
LEADER
  5
A5
100
AcDbEntity
  8
Cotas
 62
256
370
-1
 48
1.0
  6
BYLAYER
100
AcDbLeader
  3
Standard
 71
1
 72
0
 73
3
 74
0
 75
0
 40
1.0
 41
10.0
 76
3
 10
877.8933165277572925
 20
340.0316543723782843
 10
873.2412662731899218
 20
333.3811242610028671
 10
868.289532665582783
 20
333.3811242610028671
1001
ACAD
1000
DSTYLE
1002
{
1070
40
1040
1.0
1002
}
  0
LEADER
  5
A6
100
AcDbEntity
  8
Cotas
 62
256
370
-1
 48
1.0
  6
BYLAYER
100
AcDbLeader
  3
Standard
 71
1
 72
0
 73
3
 74
0
 75
0
 40
1.0
 41
10.0
 76
3
 10
888.218743882401327
 20
336.0021621984755598
 10
879.9391694690783652
 20
328.0947302514827015
 10
872.8924716428682586
 20
328.0947302514827015
1001
ACAD
1000
DSTYLE
1002
{
1070
40
1040
1.0
1002
}
  0
MTEXT
  5
A7
100
AcDbEntity
  8
Cotas
 62
256
370
-1
 48
1.0
  6
BYLAYER
100
AcDbMText
 10
863.7095741527399468
 20
336.9497226135269443
 30
0.0
 40
2.5
 41
0.0
 71
1
 72
1
  1
R 43,5
  7
textstyle0
 50
0.0
 73
2
 44
1.0
  0
MTEXT
  5
A8
100
AcDbEntity
  8
Cotas
 62
256
370
-1
 48
1.0
  6
BYLAYER
100
AcDbMText
 10
872.8556857443167019
 20
331.1396854455863377
 30
0.0
 40
2.5
 41
0.0
 71
1
 72
1
  1
R 48
  7
textstyle1
 50
0.0
 73
2
 44
1.0
  0
DIMENSION
  5
A9
100
AcDbEntity
  8
Cotas
 62
256
370
-1
 48
1.0
  6
BYLAYER
100
AcDbDimension
 10
886.6540175625956408
 20
366.729367707955987
 30
0.0
 11
876.1463290387807774
 21
362.2946628827742757
 31
0.0
 70
4
 71
8
 72
2
 74
0
 41
1.0
 42
0.0
  1
R<>
  3
Standard
100
AcDbRadialDimension
 15
867.6449063244202762
 25
354.6917728512299846
 35
0.0
 40
0.0
1001
ACAD
1000
DSTYLE
1002
{
1070
144
1040
1.0
1070
40
1040
1.0
1002
}
  0
DIMENSION
  5
AA
100
AcDbEntity
  8
Cotas
 62
256
370
-1
 48
1.0
  6
BYLAYER
100
AcDbDimension
 10
850.6647270675180152
 20
367.6074164884439597
 30
0.0
 11
855.0646742042034703
 21
373.0588924532046917
 31
0.0
 70
4
 71
8
 72
2
 74
0
 41
1.0
 42
0.0
  1
R<>
  3
Standard
100
AcDbRadialDimension
 15
861.645905916312131
 25
375.4600409599667614
 35
0.0
 40
0.0
1001
ACAD
1000
DSTYLE
1002
{
1070
144
1040
1.0
1070
40
1040
1.0
1002
}
  0
DIMENSION
  5
AB
100
AcDbEntity
  8
Cotas
 62
256
370
-1
 48
1.0
  6
BYLAYER
100
AcDbDimension
 10
832.1917738656085248
 20
378.6074164884441302
 30
0.0
 11
836.0154006192495899
 21
376.6674170405229347
 31
0.0
 70
132
 71
8
 72
2
 74
0
 41
1.0
 42
0.0
  1
R<>
  3
Standard
100
AcDbRadialDimension
 15
835.9682226653881116
 25
371.5548684054713249
 35
0.0
 40
0.0
1001
ACAD
1000
DSTYLE
1002
{
1070
279
1070
2
1070
144
1040
1.0
1070
40
1040
1.0
1002
}
  0
DIMENSION
  5
AC
100
AcDbEntity
  8
Cotas
 62
256
370
-1
 48
1.0
  6
BYLAYER
100
AcDbDimension
 10
802.6647270675183563
 20
355.6074164884441302
 30
0.0
 11
797.5798405619390223
 21
361.4306075573837802
 31
0.0
 70
4
 71
8
 72
2
 74
0
 41
1.0
 42
0.0
  1
R<>
  3
Standard
100
AcDbRadialDimension
 15
790.3528507892799553
 25
364.1758295567638015
 35
0.0
 40
0.0
1001
ACAD
1000
DSTYLE
1002
{
1070
144
1040
1.0
1070
40
1040
1.0
1002
}
  0
DIMENSION
  5
AD
100
AcDbEntity
  8
Cotas
 62
256
370
-1
 48
1.0
  6
BYLAYER
100
AcDbDimension
 10
804.8704547600842716
 20
334.7235766751758774
 30
0.0
 11
810.2264322528017146
 21
344.9787903675024268
 31
0.0
 70
4
 71
8
 72
2
 74
0
 41
1.0
 42
0.0
  1
R<>
  3
Standard
100
AcDbRadialDimension
 15
808.4732515160139883
 25
339.5214778345853119
 35
0.0
 40
0.0
1001
ACAD
1000
DSTYLE
1002
{
1070
144
1040
1.0
1070
40
1040
1.0
1002
}
  0
DIMENSION
  5
AE
100
AcDbEntity
  8
Cotas
 62
256
370
-1
 48
1.0
  6
BYLAYER
100
AcDbDimension
 10
811.2403383314242546
 20
287.7235221027228818
 30
0.0
 11
800.104951180234707
 21
291.4814152737733366
 31
0.0
 70
132
 71
8
 72
2
 74
0
 41
1.0
 42
0.0
  1
R<>
  3
Standard
100
AcDbRadialDimension
 15
802.2676675787014346
 25
288.424364141439753
 35
0.0
 40
0.0
1001
ACAD
1000
DSTYLE
1002
{
1070
279
1070
2
1070
144
1040
1.0
1070
40
1040
1.0
1002
}
  0
DIMENSION
  5
AF
100
AcDbEntity
  8
Cotas
 62
256
370
-1
 48
1.0
  6
BYLAYER
100
AcDbDimension
 10
795.5992715278824789
 20
282.4692829335239139
 30
0.0
 11
808.5633466527356177
 21
276.1370399730674308
 31
0.0
 70
4
 71
8
 72
2
 74
0
 41
1.0
 42
0.0
  1
R<>
  3
Standard
100
AcDbRadialDimension
 15
801.8534108283583919
 25
278.3297489488533074
 35
0.0
 40
0.0
1001
ACAD
1000
DSTYLE
1002
{
1070
144
1040
1.0
1070
40
1040
1.0
1002
}
  0
DIMENSION
  5
B0
100
AcDbEntity
  8
Cotas
 62
256
370
-1
 48
1.0
  6
BYLAYER
100
AcDbDimension
 10
802.6647270675183563
 20
261.1074164884440165
 30
0.0
 11
798.1711632806390071
 21
267.3981644164130103
 31
0.0
 70
4
 71
8
 72
2
 74
0
 41
1.0
 42
0.0
  1
R<>
  3
Standard
100
AcDbRadialDimension
 15
791.245902090818845
 25
270.8342061002071546
 35
0.0
 40
0.0
1001
ACAD
1000
DSTYLE
1002
{
1070
144
1040
1.0
1070
40
1040
1.0
1002
}
  0
DIMENSION
  5
B1
100
AcDbEntity
  8
Cotas
 62
256
370
-1
 48
1.0
  6
BYLAYER
100
AcDbDimension
 10
770.3573259270857534
 20
261.1074164884440165
 30
0.0
 11
768.4823259270857534
 21
283.6074164884436186
 31
0.0
 70
0
 71
8
 72
2
 74
0
 75
0
 41
1.0
 42
0.0
  1

  3
Standard
100
AcDbAlignedDimension
 13
787.6647270675183563
 23
261.1074164884440165
 33
0.0
 14
802.6647270675175605
 24
306.1074164884432207
 34
0.0
 50
90.0
100
AcDbRotatedDimension
1001
ACAD
1000
DSTYLE
1002
{
1070
144
1040
1.0
1070
40
1040
1.0
1002
}
  0
DIMENSION
  5
B2
100
AcDbEntity
  8
Cotas
 62
256
370
-1
 48
1.0
  6
BYLAYER
100
AcDbDimension
 10
770.3573259270857534
 20
355.6074164884441302
 30
0.0
 11
768.4823259270857534
 21
330.8574164884436755
 31
0.0
 70
0
 71
8
 72
2
 74
0
 75
0
 41
1.0
 42
0.0
  1

  3
Standard
100
AcDbAlignedDimension
 13
787.6647270675183563
 23
355.6074164884441302
 33
0.0
 14
802.6647270675175605
 24
306.1074164884432207
 34
0.0
 50
90.0
100
AcDbRotatedDimension
1001
ACAD
1000
DSTYLE
1002
{
1070
144
1040
1.0
1070
40
1040
1.0
1002
}
  0
ENDSEC
  0
SECTION
  2
OBJECTS
  0
DICTIONARY
  5
C
100
AcDbDictionary
280
0
281
1
  3
ACAD_GROUP
350
D
  3
ACAD_LAYOUT
350
1A
  3
ACAD_MLINESTYLE
350
17
  3
ACAD_PLOTSETTINGS
350
19
  3
ACAD_PLOTSTYLENAME
350
E
  3
AcDbVariableDictionary
350
B3
  3
QCAD_OBJECTS
350
B4
  0
DICTIONARY
  5
D
100
AcDbDictionary
280
0
281
1
  0
ACDBDICTIONARYWDFLT
  5
E
100
AcDbDictionary
281
1
  3
Normal
350
F
100
AcDbDictionaryWithDefault
340
F
  0
ACDBPLACEHOLDER
  5
F
  0
DICTIONARY
  5
17
100
AcDbDictionary
280
0
281
1
  3
Standard
350
18
  0
MLINESTYLE
  5
18
100
AcDbMlineStyle
  2
STANDARD
 70
0
  3

 62
256
 51
90.0
 52
90.0
 71
2
 49
0.5
 62
256
  6
BYLAYER
 49
-0.5
 62
256
  6
BYLAYER
  0
DICTIONARY
  5
19
100
AcDbDictionary
280
0
281
1
  0
DICTIONARY
  5
1A
100
AcDbDictionary
281
1
  3
Layout1
350
1E
  3
Layout2
350
26
  3
Model
350
22
  0
LAYOUT
  5
1E
100
AcDbPlotSettings
  1

  2
none_device
  4

  6

 40
0.0
 41
0.0
 42
0.0
 43
0.0
 44
0.0
 45
0.0
 46
0.0
 47
0.0
 48
0.0
 49
0.0
140
0.0
141
0.0
142
1.0
143
1.0
 70
688
 72
0
 73
0
 74
5
  7

 75
16
147
1.0
148
0.0
149
0.0
100
AcDbLayout
  1
Layout1
 70
1
 71
1
 10
0.0
 20
0.0
 11
420.0
 21
297.0
 12
0.0
 22
0.0
 32
0.0
 14
100000000000000000000.0
 24
100000000000000000000.0
 34
100000000000000000000.0
 15
-100000000000000000000.0
 25
-100000000000000000000.0
 35
-100000000000000000000.0
146
0.0
 13
0.0
 23
0.0
 33
0.0
 16
1.0
 26
0.0
 36
0.0
 17
0.0
 27
1.0
 37
0.0
 76
0
330
1B
  0
LAYOUT
  5
22
100
AcDbPlotSettings
  1

  2
none_device
  4

  6

 40
0.0
 41
0.0
 42
0.0
 43
0.0
 44
0.0
 45
0.0
 46
0.0
 47
0.0
 48
0.0
 49
0.0
140
0.0
141
0.0
142
1.0
143
1.0
 70
1712
 72
0
 73
0
 74
0
  7

 75
0
147
1.0
148
0.0
149
0.0
100
AcDbLayout
  1
Model
 70
1
 71
0
 10
0.0
 20
0.0
 11
12.0
 21
9.0
 12
0.0
 22
0.0
 32
0.0
 14
0.0
 24
0.0
 34
0.0
 15
0.0
 25
0.0
 35
0.0
146
0.0
 13
0.0
 23
0.0
 33
0.0
 16
1.0
 26
0.0
 36
0.0
 17
0.0
 27
1.0
 37
0.0
 76
0
330
1F
  0
LAYOUT
  5
26
100
AcDbPlotSettings
  1

  2
none_device
  4

  6

 40
0.0
 41
0.0
 42
0.0
 43
0.0
 44
0.0
 45
0.0
 46
0.0
 47
0.0
 48
0.0
 49
0.0
140
0.0
141
0.0
142
1.0
143
1.0
 70
688
 72
0
 73
0
 74
5
  7

 75
16
147
1.0
148
0.0
149
0.0
100
AcDbLayout
  1
Layout2
 70
1
 71
2
 10
0.0
 20
0.0
 11
12.0
 21
9.0
 12
0.0
 22
0.0
 32
0.0
 14
0.0
 24
0.0
 34
0.0
 15
0.0
 25
0.0
 35
0.0
146
0.0
 13
0.0
 23
0.0
 33
0.0
 16
1.0
 26
0.0
 36
0.0
 17
0.0
 27
1.0
 37
0.0
 76
0
330
23
  0
DICTIONARY
  5
B3
100
AcDbDictionary
281
1
  3
DIMASSOC
350
B6
  3
HIDETEXT
350
B5
  0
DICTIONARYVAR
  5
B5
100
DictionaryVariables
280
0
  1
2
  0
DICTIONARYVAR
  5
B6
100
DictionaryVariables
280
0
  1
1
  0
DICTIONARY
  5
B4
100
AcDbDictionary
281
1
  3
ColorSettings/BackgroundColor
350
B7
  3
ColorSettings/ColorMode
350
B8
  3
Grid/DisplayGrid00
350
B9
  3
Grid/DisplayGrid01
350
BA
  3
Grid/DisplayGrid02
350
BB
  3
Grid/DisplayGrid03
350
BC
  3
Grid/GridSpacingX00
350
BD
  3
Grid/GridSpacingX01
350
BE
  3
Grid/GridSpacingX02
350
BF
  3
Grid/GridSpacingX03
350
C0
  3
Grid/GridSpacingY00
350
C1
  3
Grid/GridSpacingY01
350
C2
  3
Grid/GridSpacingY02
350
C3
  3
Grid/GridSpacingY03
350
C4
  3
Grid/IsometricGrid00
350
C5
  3
Grid/IsometricGrid01
350
C6
  3
Grid/IsometricGrid02
350
C7
  3
Grid/IsometricGrid03
350
C8
  3
Grid/IsometricProjection00
350
C9
  3
Grid/IsometricProjection01
350
CA
  3
Grid/IsometricProjection02
350
CB
  3
Grid/IsometricProjection03
350
CC
  3
Grid/MetaGridSpacingX00
350
CD
  3
Grid/MetaGridSpacingX01
350
CE
  3
Grid/MetaGridSpacingX02
350
CF
  3
Grid/MetaGridSpacingX03
350
D0
  3
Grid/MetaGridSpacingY00
350
D1
  3
Grid/MetaGridSpacingY01
350
D2
  3
Grid/MetaGridSpacingY02
350
D3
  3
Grid/MetaGridSpacingY03
350
D4
  3
MultiPageSettings/Columns
350
D5
  3
MultiPageSettings/GlueMarginsBottom
350
D6
  3
MultiPageSettings/GlueMarginsLeft
350
D7
  3
MultiPageSettings/GlueMarginsRight
350
D8
  3
MultiPageSettings/GlueMarginsTop
350
D9
  3
MultiPageSettings/PrintCropMarks
350
DA
  3
MultiPageSettings/Rows
350
DB
  3
PageSettings/OffsetX
350
DC
  3
PageSettings/OffsetY
350
DD
  3
PageSettings/PageOrientation
350
DE
  3
PageSettings/PaperHeight
350
DF
  3
PageSettings/PaperWidth
350
E0
  3
PageSettings/Scale
350
E1
  3
PageSettings/ShowPaperBorders
350
E2
  3
PageTagSettings/EnablePageTags
350
E3
  3
PageTagSettings/TagAlignment
350
E4
  3
PageTagSettings/TagFont
350
E5
  3
PageTagSettings/TagPosition
350
E6
  3
QCADVersion
350
E7
  3
UnitSettings/PaperUnit
350
E8
  3
ViewportCenter
350
E9
  3
ViewportHeight
350
EA
  3
ViewportWidth
350
EB
  0
XRECORD
  5
B7
330
B4
100
AcDbXrecord
280
1
1000
Blanca
  0
XRECORD
  5
B8
330
B4
100
AcDbXrecord
280
1
1000
FullColor
  0
XRECORD
  5
B9
330
B4
100
AcDbXrecord
280
1
290
0
  0
XRECORD
  5
BA
330
B4
100
AcDbXrecord
280
1
290
1
  0
XRECORD
  5
BB
330
B4
100
AcDbXrecord
280
1
290
1
  0
XRECORD
  5
BC
330
B4
100
AcDbXrecord
280
1
290
1
  0
XRECORD
  5
BD
330
B4
100
AcDbXrecord
280
1
1000
auto
  0
XRECORD
  5
BE
330
B4
100
AcDbXrecord
280
1
1000
auto
  0
XRECORD
  5
BF
330
B4
100
AcDbXrecord
280
1
1000
auto
  0
XRECORD
  5
C0
330
B4
100
AcDbXrecord
280
1
1000
auto
  0
XRECORD
  5
C1
330
B4
100
AcDbXrecord
280
1
1000
auto
  0
XRECORD
  5
C2
330
B4
100
AcDbXrecord
280
1
1000
auto
  0
XRECORD
  5
C3
330
B4
100
AcDbXrecord
280
1
1000
auto
  0
XRECORD
  5
C4
330
B4
100
AcDbXrecord
280
1
1000
auto
  0
XRECORD
  5
C5
330
B4
100
AcDbXrecord
280
1
290
0
  0
XRECORD
  5
C6
330
B4
100
AcDbXrecord
280
1
290
0
  0
XRECORD
  5
C7
330
B4
100
AcDbXrecord
280
1
290
0
  0
XRECORD
  5
C8
330
B4
100
AcDbXrecord
280
1
290
0
  0
XRECORD
  5
C9
330
B4
100
AcDbXrecord
280
1
 90
65537
  0
XRECORD
  5
CA
330
B4
100
AcDbXrecord
280
1
 90
65537
  0
XRECORD
  5
CB
330
B4
100
AcDbXrecord
280
1
 90
65537
  0
XRECORD
  5
CC
330
B4
100
AcDbXrecord
280
1
 90
65537
  0
XRECORD
  5
CD
330
B4
100
AcDbXrecord
280
1
1000
auto
  0
XRECORD
  5
CE
330
B4
100
AcDbXrecord
280
1
1000
auto
  0
XRECORD
  5
CF
330
B4
100
AcDbXrecord
280
1
1000
auto
  0
XRECORD
  5
D0
330
B4
100
AcDbXrecord
280
1
1000
auto
  0
XRECORD
  5
D1
330
B4
100
AcDbXrecord
280
1
1000
1
  0
XRECORD
  5
D2
330
B4
100
AcDbXrecord
280
1
1000
auto
  0
XRECORD
  5
D3
330
B4
100
AcDbXrecord
280
1
1000
auto
  0
XRECORD
  5
D4
330
B4
100
AcDbXrecord
280
1
1000
auto
  0
XRECORD
  5
D5
330
B4
100
AcDbXrecord
280
1
 90
1
  0
XRECORD
  5
D6
330
B4
100
AcDbXrecord
280
1
 40
10.0
  0
XRECORD
  5
D7
330
B4
100
AcDbXrecord
280
1
 40
10.0
  0
XRECORD
  5
D8
330
B4
100
AcDbXrecord
280
1
 40
10.0
  0
XRECORD
  5
D9
330
B4
100
AcDbXrecord
280
1
 40
10.0
  0
XRECORD
  5
DA
330
B4
100
AcDbXrecord
280
1
290
0
  0
XRECORD
  5
DB
330
B4
100
AcDbXrecord
280
1
 90
1
  0
XRECORD
  5
DC
330
B4
100
AcDbXrecord
280
1
 40
0.0
  0
XRECORD
  5
DD
330
B4
100
AcDbXrecord
280
1
 40
0.0
  0
XRECORD
  5
DE
330
B4
100
AcDbXrecord
280
1
1000
Portrait
  0
XRECORD
  5
DF
330
B4
100
AcDbXrecord
280
1
 40
279.3999999999999773
  0
XRECORD
  5
E0
330
B4
100
AcDbXrecord
280
1
 40
215.9000000000000057
  0
XRECORD
  5
E1
330
B4
100
AcDbXrecord
280
1
1000
1:1
  0
XRECORD
  5
E2
330
B4
100
AcDbXrecord
280
1
290
1
  0
XRECORD
  5
E3
330
B4
100
AcDbXrecord
280
1
290
0
  0
XRECORD
  5
E4
330
B4
100
AcDbXrecord
280
1
1000
Inside
  0
XRECORD
  5
E5
330
B4
100
AcDbXrecord
280
1
1000
Arial,10,-1,5,50,0,0,0,0,0
  0
XRECORD
  5
E6
330
B4
100
AcDbXrecord
280
1
1000
TopLeft
  0
XRECORD
  5
E7
330
B4
100
AcDbXrecord
280
1
1000
3.28.1
  0
XRECORD
  5
E8
330
B4
100
AcDbXrecord
280
1
 90
4
  0
XRECORD
  5
EA
330
B4
100
AcDbXrecord
280
1
 40
170.6599474583198912
  0
XRECORD
  5
EB
330
B4
100
AcDbXrecord
280
1
 40
314.4597880230078317
  0
IMAGEDEF
  5
8C
100
AcDbRasterImageDef
 90
0
  1
C:/Users/iamth/Documents/QCad/StudyCadCam/2D CAD EXERCISES 12.png
 10
200.0
 20
141.0
 11
1.0
 21
1.0
280
1
281
0
  0
ENDSEC
  0
EOF
