999
dxflib 3.26.4.0
  0
SECTION
  2
HEADER
  9
$ACADVER
  1
AC1015
  9
$HANDSEED
  5
FFFF
  9
$DIMADEC
 70
0
  9
$DIMASZ
 40
2.5
  9
$DIMATFIT
 70
0
  9
$DIMAUNIT
 70
0
  9
$DIMAZIN
 70
2
  9
$DIMBLK
  1
0
  9
$DIMBLK1
  1
0
  9
$DIMBLK2
  1
0
  9
$DIMDEC
 70
4
  9
$DIMDLI
 40
5.0
  9
$DIMDSEP
 70
46
  9
$DIMEXE
 40
1.25
  9
$DIMEXO
 40
0.625
  9
$DIMGAP
 40
0.625
  9
$DIMLFAC
 40
1.0
  9
$DIMLUNIT
 70
2
  9
$DIMSCALE
 40
1.0
  9
$DIMTAD
 70
1
  9
$DIMTIH
 70
0
  9
$DIMTSZ
 40
0.0
  9
$DIMTXT
 40
2.5
  9
$DIMZIN
 70
8
  9
$DWGCODEPAGE
  3
ANSI_1252
  9
$INSUNITS
 70
4
  9
$LTSCALE
 40
1.0
  9
$MAXACTVP
 70
64
  9
$MEASUREMENT
 70
1
  9
$MIRRTEXT
 70
0
  9
$PDMODE
 70
0
  9
$PDSIZE
 40
0.0
  0
ENDSEC
  0
SECTION
  2
TABLES
  0
TABLE
  2
VPORT
  5
8
100
AcDbSymbolTable
 70
1
  0
VPORT
  5
30
100
AcDbSymbolTableRecord
100
AcDbViewportTableRecord
  2
*Active
 70
0
 10
0.0
 20
0.0
 11
1.0
 21
1.0
 12
286.3055555555554861
 22
148.5
 13
0.0
 23
0.0
 14
10.0
 24
10.0
 15
10.0
 25
10.0
 16
0.0
 26
0.0
 36
1.0
 17
0.0
 27
0.0
 37
0.0
 40
297.0
 41
1.92798353909465
 42
50.0
 43
0.0
 44
0.0
 50
0.0
 51
0.0
 71
0
 72
100
 73
1
 74
3
 75
1
 76
1
 77
0
 78
0
281
0
 65
1
110
0.0
120
0.0
130
0.0
111
1.0
121
0.0
131
0.0
112
0.0
122
1.0
132
0.0
 79
0
146
0.0
  0
ENDTAB
  0
TABLE
  2
LTYPE
  5
5
100
AcDbSymbolTable
 70
41
  0
LTYPE
  5
16
100
AcDbSymbolTableRecord
100
AcDbLinetypeTableRecord
  2
Continuous
 70
0
  3
Solid line
 72
65
 73
0
 40
0.0
  0
LTYPE
  5
31
100
AcDbSymbolTableRecord
100
AcDbLinetypeTableRecord
  2
BORDER
 70
0
  3
Border __ __ . __ __ . __ __ . __ __ . __ __ .
 72
65
 73
6
 40
44.4499999999999957
 49
12.6999999999999993
 74
0
 49
-6.3499999999999996
 74
0
 49
12.6999999999999993
 74
0
 49
-6.2999999999999998
 74
0
 49
0.1
 74
0
 49
-6.2999999999999998
 74
0
  0
LTYPE
  5
32
100
AcDbSymbolTableRecord
100
AcDbLinetypeTableRecord
  2
DASHED
 70
0
  3
Dashed __ __ __ __ __ __ __ __ __ __ __ __ __ _
 72
65
 73
2
 40
19.0499999999999972
 49
12.6999999999999993
 74
0
 49
-6.3499999999999996
 74
0
  0
LTYPE
  5
33
100
AcDbSymbolTableRecord
100
AcDbLinetypeTableRecord
  2
ACAD_ISO09W100
 70
0
  3
ISO long-dash double-short-dash ____ __ __ ____
 72
65
 73
6
 40
45.0
 49
24.0
 74
0
 49
-3.0
 74
0
 49
6.0
 74
0
 49
-3.0
 74
0
 49
6.0
 74
0
 49
-3.0
 74
0
  0
LTYPE
  5
34
100
AcDbSymbolTableRecord
100
AcDbLinetypeTableRecord
  2
DIVIDE2
 70
0
  3
Divide (.5x) __..__..__..__..__..__..__..__.._
 72
65
 73
6
 40
15.8749999999999982
 49
6.3499999999999996
 74
0
 49
-3.125
 74
0
 49
0.1
 74
0
 49
-3.0750000000000002
 74
0
 49
0.1
 74
0
 49
-3.125
 74
0
  0
LTYPE
  5
35
100
AcDbSymbolTableRecord
100
AcDbLinetypeTableRecord
  2
ACAD_ISO11W100
 70
0
  3
ISO double-dash dot __ __ . __ __ . __ __ . __ _
 72
65
 73
6
 40
33.0
 49
12.0
 74
0
 49
-3.0
 74
0
 49
12.0
 74
0
 49
-2.9500000000000002
 74
0
 49
0.1
 74
0
 49
-2.9500000000000002
 74
0
  0
LTYPE
  5
36
100
AcDbSymbolTableRecord
100
AcDbLinetypeTableRecord
  2
HIDDEN2
 70
0
  3
Hidden (.5x) _ _ _ _ _ _ _ _ _ _ _ _ _ _ _ _ _ 
 72
65
 73
2
 40
4.7624999999999993
 49
3.1749999999999998
 74
0
 49
-1.5874999999999999
 74
0
  0
LTYPE
  5
37
100
AcDbSymbolTableRecord
100
AcDbLinetypeTableRecord
  2
ACAD_ISO02W100
 70
0
  3
ISO dash __ __ __ __ __ __ __ __ __ __ __ __ __
 72
65
 73
2
 40
15.0
 49
12.0
 74
0
 49
-3.0
 74
0
  0
LTYPE
  5
38
100
AcDbSymbolTableRecord
100
AcDbLinetypeTableRecord
  2
ACAD_ISO07W100
 70
0
  3
ISO dot . . . . . . . . . . . . . . . . . . . . 
 72
65
 73
2
 40
3.0
 49
0.1
 74
0
 49
-2.8999999999999999
 74
0
  0
LTYPE
  5
39
100
AcDbSymbolTableRecord
100
AcDbLinetypeTableRecord
  2
HIDDENX2
 70
0
  3
Hidden (2x) ____ ____ ____ ____ ____ ____ ____ 
 72
65
 73
2
 40
19.0499999999999972
 49
12.6999999999999993
 74
0
 49
-6.3499999999999996
 74
0
  0
LTYPE
  5
3A
100
AcDbSymbolTableRecord
100
AcDbLinetypeTableRecord
  2
ACAD_ISO10W100
 70
0
  3
ISO dash dot __ . __ . __ . __ . __ . __ . __ . 
 72
65
 73
4
 40
18.0
 49
12.0
 74
0
 49
-2.9500000000000002
 74
0
 49
0.1
 74
0
 49
-2.9500000000000002
 74
0
  0
LTYPE
  5
3B
100
AcDbSymbolTableRecord
100
AcDbLinetypeTableRecord
  2
PHANTOM2
 70
0
  3
Phantom (.5x) ___ _ _ ___ _ _ ___ _ _ ___ _ _
 72
65
 73
6
 40
31.7500000000000036
 49
15.875
 74
0
 49
-3.1749999999999998
 74
0
 49
3.1749999999999998
 74
0
 49
-3.1749999999999998
 74
0
 49
3.1749999999999998
 74
0
 49
-3.1749999999999998
 74
0
  0
LTYPE
  5
3C
100
AcDbSymbolTableRecord
100
AcDbLinetypeTableRecord
  2
DASHDOTX2
 70
0
  3
Dash dot (2x) ____  .  ____  .  ____  .  ___
 72
65
 73
4
 40
50.7999999999999972
 49
25.3999999999999986
 74
0
 49
-12.6499999999999986
 74
0
 49
0.1
 74
0
 49
-12.6499999999999986
 74
0
  0
LTYPE
  5
3D
100
AcDbSymbolTableRecord
100
AcDbLinetypeTableRecord
  2
ACAD_ISO03W100
 70
0
  3
ISO dash space __    __    __    __    __    __
 72
65
 73
2
 40
30.0
 49
12.0
 74
0
 49
-18.0
 74
0
  0
LTYPE
  5
3E
100
AcDbSymbolTableRecord
100
AcDbLinetypeTableRecord
  2
DOT2
 70
0
  3
Dot (.5x) ........................................
 72
65
 73
2
 40
3.1749999999999998
 49
0.1
 74
0
 49
-3.0749999999999997
 74
0
  0
LTYPE
  5
3F
100
AcDbSymbolTableRecord
100
AcDbLinetypeTableRecord
  2
DASHEDX2
 70
0
  3
Dashed (2x) ____  ____  ____  ____  ____  ___
 72
65
 73
2
 40
38.0999999999999943
 49
25.3999999999999986
 74
0
 49
-12.6999999999999993
 74
0
  0
LTYPE
  5
40
100
AcDbSymbolTableRecord
100
AcDbLinetypeTableRecord
  2
PHANTOM
 70
0
  3
Phantom ______  __  __  ______  __  __  ______ 
 72
65
 73
6
 40
63.5000000000000071
 49
31.75
 74
0
 49
-6.3499999999999996
 74
0
 49
6.3499999999999996
 74
0
 49
-6.3499999999999996
 74
0
 49
6.3499999999999996
 74
0
 49
-6.3499999999999996
 74
0
  0
LTYPE
  5
41
100
AcDbSymbolTableRecord
100
AcDbLinetypeTableRecord
  2
DOT
 70
0
  3
Dot . . . . . . . . . . . . . . . . . . . . . . . .
 72
65
 73
2
 40
6.3499999999999996
 49
0.1
 74
0
 49
-6.25
 74
0
  0
LTYPE
  5
42
100
AcDbSymbolTableRecord
100
AcDbLinetypeTableRecord
  2
HIDDEN
 70
0
  3
Hidden __ __ __ __ __ __ __ __ __ __ __ __ __ __
 72
65
 73
2
 40
9.5249999999999986
 49
6.3499999999999996
 74
0
 49
-3.1749999999999998
 74
0
  0
LTYPE
  5
43
100
AcDbSymbolTableRecord
100
AcDbLinetypeTableRecord
  2
DIVIDE
 70
0
  3
Divide ____ . . ____ . . ____ . . ____ . . ____
 72
65
 73
6
 40
31.7500000000000036
 49
12.6999999999999993
 74
0
 49
-6.2999999999999998
 74
0
 49
0.1
 74
0
 49
-6.25
 74
0
 49
0.1
 74
0
 49
-6.2999999999999998
 74
0
  0
LTYPE
  5
44
100
AcDbSymbolTableRecord
100
AcDbLinetypeTableRecord
  2
ACAD_ISO08W100
 70
0
  3
ISO long-dash short-dash ____ __ ____ __ ____ _
 72
65
 73
4
 40
36.0
 49
24.0
 74
0
 49
-3.0
 74
0
 49
6.0
 74
0
 49
-3.0
 74
0
  0
LTYPE
  5
45
100
AcDbSymbolTableRecord
100
AcDbLinetypeTableRecord
  2
DIVIDEX2
 70
0
  3
Divide (2x) ________  .  .  ________  .  .  _
 72
65
 73
6
 40
63.5
 49
25.3999999999999986
 74
0
 49
-12.6499999999999986
 74
0
 49
0.1
 74
0
 49
-12.5999999999999979
 74
0
 49
0.1
 74
0
 49
-12.6499999999999986
 74
0
  0
LTYPE
  5
14
100
AcDbSymbolTableRecord
100
AcDbLinetypeTableRecord
  2
BYBLOCK
 70
0
  3

 72
65
 73
0
 40
0.0
  0
LTYPE
  5
46
100
AcDbSymbolTableRecord
100
AcDbLinetypeTableRecord
  2
CENTERX2
 70
0
  3
Center (2x) ________  __  ________  __  _____
 72
65
 73
4
 40
101.6000000000000085
 49
63.5
 74
0
 49
-12.6999999999999993
 74
0
 49
12.6999999999999993
 74
0
 49
-12.6999999999999993
 74
0
  0
LTYPE
  5
47
100
AcDbSymbolTableRecord
100
AcDbLinetypeTableRecord
  2
ACAD_ISO05W100
 70
0
  3
ISO long-dash double-dot ____ .. ____ .. ____ . 
 72
65
 73
6
 40
33.0000000000000071
 49
24.0
 74
0
 49
-2.9500000000000002
 74
0
 49
0.1
 74
0
 49
-2.9000000000000004
 74
0
 49
0.1
 74
0
 49
-2.9500000000000002
 74
0
  0
LTYPE
  5
48
100
AcDbSymbolTableRecord
100
AcDbLinetypeTableRecord
  2
DASHDOT
 70
0
  3
Dash dot __ . __ . __ . __ . __ . __ . __ . __
 72
65
 73
4
 40
25.4000000000000021
 49
12.6999999999999993
 74
0
 49
-6.2999999999999998
 74
0
 49
0.1
 74
0
 49
-6.2999999999999998
 74
0
  0
LTYPE
  5
49
100
AcDbSymbolTableRecord
100
AcDbLinetypeTableRecord
  2
DASHDOT2
 70
0
  3
Dash dot (.5x) _._._._._._._._._._._._._._._.
 72
65
 73
4
 40
12.6999999999999993
 49
6.3499999999999996
 74
0
 49
-3.125
 74
0
 49
0.1
 74
0
 49
-3.125
 74
0
  0
LTYPE
  5
4A
100
AcDbSymbolTableRecord
100
AcDbLinetypeTableRecord
  2
ACAD_ISO13W100
 70
0
  3
ISO double-dash double-dot __ __ . . __ __ . . _
 72
65
 73
8
 40
36.0000000000000071
 49
12.0
 74
0
 49
-3.0
 74
0
 49
12.0
 74
0
 49
-2.9500000000000002
 74
0
 49
0.1
 74
0
 49
-2.9000000000000004
 74
0
 49
0.1
 74
0
 49
-2.9500000000000002
 74
0
  0
LTYPE
  5
4B
100
AcDbSymbolTableRecord
100
AcDbLinetypeTableRecord
  2
PHANTOMX2
 70
0
  3
Phantom (2x) ____________    ____    ____   _
 72
65
 73
6
 40
127.0000000000000142
 49
63.5
 74
0
 49
-12.6999999999999993
 74
0
 49
12.6999999999999993
 74
0
 49
-12.6999999999999993
 74
0
 49
12.6999999999999993
 74
0
 49
-12.6999999999999993
 74
0
  0
LTYPE
  5
4C
100
AcDbSymbolTableRecord
100
AcDbLinetypeTableRecord
  2
ACAD_ISO12W100
 70
0
  3
ISO dash double-dot __ . . __ . . __ . . __ . . 
 72
65
 73
6
 40
21.0
 49
12.0
 74
0
 49
-2.9500000000000002
 74
0
 49
0.1
 74
0
 49
-2.9000000000000004
 74
0
 49
0.1
 74
0
 49
-2.9500000000000002
 74
0
  0
LTYPE
  5
4D
100
AcDbSymbolTableRecord
100
AcDbLinetypeTableRecord
  2
DOTX2
 70
0
  3
Dot (2x) .  .  .  .  .  .  .  .  .  .  .  .  .  .
 72
65
 73
2
 40
12.6999999999999993
 49
0.1
 74
0
 49
-12.5999999999999996
 74
0
  0
LTYPE
  5
4E
100
AcDbSymbolTableRecord
100
AcDbLinetypeTableRecord
  2
CENTER
 70
0
  3
Center ____ _ ____ _ ____ _ ____ _ ____ _ ____
 72
65
 73
4
 40
50.8000000000000043
 49
31.75
 74
0
 49
-6.3499999999999996
 74
0
 49
6.3499999999999996
 74
0
 49
-6.3499999999999996
 74
0
  0
LTYPE
  5
4F
100
AcDbSymbolTableRecord
100
AcDbLinetypeTableRecord
  2
DASHED2
 70
0
  3
Dashed (.5x) _ _ _ _ _ _ _ _ _ _ _ _ _ _ _ _ _ 
 72
65
 73
2
 40
9.5249999999999986
 49
6.3499999999999996
 74
0
 49
-3.1749999999999998
 74
0
  0
LTYPE
  5
50
100
AcDbSymbolTableRecord
100
AcDbLinetypeTableRecord
  2
CENTER2
 70
0
  3
Center (.5x) ___ _ ___ _ ___ _ ___ _ ___ _ ___
 72
65
 73
4
 40
28.5750000000000028
 49
19.0500000000000007
 74
0
 49
-3.1749999999999998
 74
0
 49
3.1749999999999998
 74
0
 49
-3.1749999999999998
 74
0
  0
LTYPE
  5
15
100
AcDbSymbolTableRecord
100
AcDbLinetypeTableRecord
  2
BYLAYER
 70
0
  3

 72
65
 73
0
 40
0.0
  0
LTYPE
  5
51
100
AcDbSymbolTableRecord
100
AcDbLinetypeTableRecord
  2
ACAD_ISO14W100
 70
0
  3
ISO dash triple-dot __ . . . __ . . . __ . . . _
 72
65
 73
8
 40
24.0000000000000036
 49
12.0
 74
0
 49
-2.9500000000000002
 74
0
 49
0.1
 74
0
 49
-2.9000000000000004
 74
0
 49
0.1
 74
0
 49
-2.9000000000000004
 74
0
 49
0.1
 74
0
 49
-2.9500000000000002
 74
0
  0
LTYPE
  5
52
100
AcDbSymbolTableRecord
100
AcDbLinetypeTableRecord
  2
BORDER2
 70
0
  3
Border (.5x) __.__.__.__.__.__.__.__.__.__.__.
 72
65
 73
6
 40
22.2250000000000014
 49
6.3499999999999996
 74
0
 49
-3.1749999999999998
 74
0
 49
6.3499999999999996
 74
0
 49
-3.125
 74
0
 49
0.1
 74
0
 49
-3.125
 74
0
  0
LTYPE
  5
53
100
AcDbSymbolTableRecord
100
AcDbLinetypeTableRecord
  2
BORDERX2
 70
0
  3
Border (2x) ____  ____  .  ____  ____  .  ___
 72
65
 73
6
 40
88.8999999999999773
 49
25.3999999999999986
 74
0
 49
-12.6999999999999993
 74
0
 49
25.3999999999999986
 74
0
 49
-12.6499999999999986
 74
0
 49
0.1
 74
0
 49
-12.6499999999999986
 74
0
  0
LTYPE
  5
54
100
AcDbSymbolTableRecord
100
AcDbLinetypeTableRecord
  2
ACAD_ISO15W100
 70
0
  3
ISO double-dash triple-dot __ __ . . . __ __ . .
 72
65
 73
10
 40
39.0000000000000071
 49
12.0
 74
0
 49
-3.0
 74
0
 49
12.0
 74
0
 49
-2.9500000000000002
 74
0
 49
0.1
 74
0
 49
-2.9000000000000004
 74
0
 49
0.1
 74
0
 49
-2.9000000000000004
 74
0
 49
0.1
 74
0
 49
-2.9500000000000002
 74
0
  0
LTYPE
  5
55
100
AcDbSymbolTableRecord
100
AcDbLinetypeTableRecord
  2
ACAD_ISO06W100
 70
0
  3
ISO long-dash triple-dot ____ ... ____ ... ____
 72
65
 73
8
 40
36.0000000000000071
 49
24.0
 74
0
 49
-2.9500000000000002
 74
0
 49
0.1
 74
0
 49
-2.9000000000000004
 74
0
 49
0.1
 74
0
 49
-2.9000000000000004
 74
0
 49
0.1
 74
0
 49
-2.9500000000000002
 74
0
  0
LTYPE
  5
56
100
AcDbSymbolTableRecord
100
AcDbLinetypeTableRecord
  2
ACAD_ISO04W100
 70
0
  3
ISO long-dash dot ____ . ____ . ____ . ____ . _
 72
65
 73
4
 40
30.0
 49
24.0
 74
0
 49
-2.9500000000000002
 74
0
 49
0.1
 74
0
 49
-2.9500000000000002
 74
0
  0
ENDTAB
  0
TABLE
  2
LAYER
  5
2
100
AcDbSymbolTable
 70
7
  0
LAYER
  5
10
100
AcDbSymbolTableRecord
100
AcDbLayerTableRecord
  2
0
 70
0
 62
7
420
16777215
  6
Continuous
370
25
390
F
  0
LAYER
  5
57
100
AcDbSymbolTableRecord
100
AcDbLayerTableRecord
  2
Cotas
 70
0
 62
1
420
16711680
  6
Continuous
370
20
390
F
  0
LAYER
  5
58
100
AcDbSymbolTableRecord
100
AcDbLayerTableRecord
  2
Contornos Visibles
 70
0
 62
7
420
16777215
  6
Continuous
370
50
390
F
  0
LAYER
  5
59
100
AcDbSymbolTableRecord
100
AcDbLayerTableRecord
  2
Contornos Ocultos
 70
0
 62
252
420
10526884
  6
ACAD_ISO02W100
370
30
390
F
  0
LAYER
  5
5A
100
AcDbSymbolTableRecord
100
AcDbLayerTableRecord
  2
Ejes de revoluci\U+00f3n
 70
0
 62
6
420
16711935
  6
ACAD_ISO04W100
370
20
390
F
  0
LAYER
  5
5B
100
AcDbSymbolTableRecord
100
AcDbLayerTableRecord
  2
Referencias
 70
1
 62
2
420
16776960
  6
Continuous
370
25
390
F
  0
LAYER
  5
5C
100
AcDbSymbolTableRecord
100
AcDbLayerTableRecord
  2
Referencias 2
 70
1
 62
3
420
65280
  6
Continuous
370
25
390
F
  0
ENDTAB
  0
TABLE
  2
STYLE
  5
3
100
AcDbSymbolTable
 70
4
  0
STYLE
  5
5D
100
AcDbSymbolTableRecord
100
AcDbTextStyleTableRecord
  2
Standard
 70
0
 40
0.0
 41
1.0
 50
0.0
 71
0
 42
2.5
  3

  4

1001
ACAD
1000
txt
1071
0
  0
STYLE
  5
5E
100
AcDbSymbolTableRecord
100
AcDbTextStyleTableRecord
  2
textstyle0
 70
0
 40
0.0
 41
1.0
 50
0.0
 71
0
 42
2.5
  3

  4

1001
ACAD
1000
Arial
1071
0
  0
STYLE
  5
5F
100
AcDbSymbolTableRecord
100
AcDbTextStyleTableRecord
  2
textstyle1
 70
0
 40
0.0
 41
1.0
 50
0.0
 71
0
 42
2.5
  3

  4

1001
ACAD
1000
Arial
1071
0
  0
STYLE
  5
60
100
AcDbSymbolTableRecord
100
AcDbTextStyleTableRecord
  2
textstyle2
 70
0
 40
0.0
 41
1.0
 50
0.0
 71
0
 42
2.5
  3

  4

1001
ACAD
1000
Arial
1071
0
  0
ENDTAB
  0
TABLE
  2
VIEW
  5
6
100
AcDbSymbolTable
 70
0
  0
ENDTAB
  0
TABLE
  2
UCS
  5
7
100
AcDbSymbolTable
 70
0
  0
ENDTAB
  0
TABLE
  2
APPID
  5
9
100
AcDbSymbolTable
 70
1
  0
APPID
  5
12
100
AcDbSymbolTableRecord
100
AcDbRegAppTableRecord
  2
ACAD
 70
0
  0
APPID
  5
61
100
AcDbSymbolTableRecord
100
AcDbRegAppTableRecord
  2
QCAD
 70
0
  0
ENDTAB
  0
TABLE
  2
DIMSTYLE
  5
A
100
AcDbSymbolTable
 70
1
100
AcDbDimStyleTable
 71
0
  0
DIMSTYLE
105
27
100
AcDbSymbolTableRecord
100
AcDbDimStyleTableRecord
  2
Standard
 41
2.5
 42
0.625
 43
3.75
 44
1.25
 70
0
 73
0
 74
0
 77
1
 78
8
140
2.5
141
2.5
143
0.03937007874016
147
0.625
171
3
172
1
271
2
272
2
274
3
278
44
283
0
284
8
340
5D
  0
ENDTAB
  0
TABLE
  2
BLOCK_RECORD
  5
1
100
AcDbSymbolTable
 70
1
  0
BLOCK_RECORD
  5
1F
100
AcDbSymbolTableRecord
100
AcDbBlockTableRecord
  2
*Model_Space
340
22
  0
BLOCK_RECORD
  5
1B
100
AcDbSymbolTableRecord
100
AcDbBlockTableRecord
  2
*Paper_Space
340
1E
  0
BLOCK_RECORD
  5
23
100
AcDbSymbolTableRecord
100
AcDbBlockTableRecord
  2
*Paper_Space0
340
26
  0
ENDTAB
  0
ENDSEC
  0
SECTION
  2
BLOCKS
  0
BLOCK
  5
20
100
AcDbEntity
  8
0
100
AcDbBlockBegin
  2
*Model_Space
 70
0
 10
0.0
 20
0.0
 30
0.0
  3
*Model_Space
  1

  0
ENDBLK
  5
21
100
AcDbEntity
  8
0
100
AcDbBlockEnd
  0
BLOCK
  5
1C
100
AcDbEntity
 67
1
  8
0
100
AcDbBlockBegin
  2
*Paper_Space
 70
0
 10
0.0
 20
0.0
 30
0.0
  3
*Paper_Space
  1

  0
ENDBLK
  5
1D
100
AcDbEntity
 67
1
  8
0
100
AcDbBlockEnd
  0
BLOCK
  5
24
100
AcDbEntity
  8
0
100
AcDbBlockBegin
  2
*Paper_Space0
 70
0
 10
0.0
 20
0.0
 30
0.0
  3
*Paper_Space0
  1

  0
ENDBLK
  5
25
100
AcDbEntity
  8
0
100
AcDbBlockEnd
  0
ENDSEC
  0
SECTION
  2
ENTITIES
  0
IMAGE
  5
62
100
AcDbEntity
  8
0
 62
256
370
-1
 48
1.0
  6
BYLAYER
100
AcDbRasterImage
 90
0
 10
3098.4911205706966939
 20
693.8049179818278844
 30
0.0
 11
0.09765625
 21
0.0
 31
0.0
 12
0.0
 22
0.09765625
 32
0.0
 13
200.0
 23
141.0
340
63
 70
15
280
0
281
50
282
50
283
0
  0
CIRCLE
  5
64
100
AcDbEntity
  8
Contornos Visibles
 62
256
370
-1
 48
1.0
  6
BYLAYER
100
AcDbCircle
 10
3485.5566923145124747
 20
771.8796828805805035
 30
0.0
 40
10.0
  0
CIRCLE
  5
65
100
AcDbEntity
  8
Contornos Visibles
 62
256
370
-1
 48
1.0
  6
BYLAYER
100
AcDbCircle
 10
3485.5566923145124747
 20
771.8796828805805035
 30
0.0
 40
14.25
  0
CIRCLE
  5
66
100
AcDbEntity
  8
Ejes de revoluci\U+00f3n
 62
256
370
-1
 48
1.0
  6
BYLAYER
100
AcDbCircle
 10
3485.5566923145124747
 20
771.8796828805805035
 30
0.0
 40
25.4000000000000909
  0
CIRCLE
  5
67
100
AcDbEntity
  8
Ejes de revoluci\U+00f3n
 62
256
370
-1
 48
1.0
  6
BYLAYER
100
AcDbCircle
 10
3485.5566923145124747
 20
771.8796828805805035
 30
0.0
 40
54.0
  0
XLINE
  5
68
100
AcDbEntity
  8
Referencias
 62
256
370
-1
 48
1.0
  6
BYLAYER
100
AcDbLine
 10
3485.5566923145124747
 20
771.8796828805805035
 30
0.0
 11
0.0
 21
1.0
 31
0.0
  0
XLINE
  5
69
100
AcDbEntity
  8
Referencias
 62
256
370
-1
 48
1.0
  6
BYLAYER
100
AcDbLine
 10
3485.5566923145124747
 20
771.8796828805805035
 30
0.0
 11
1.0
 21
0.0
 31
0.0
  0
ARC
  5
6A
100
AcDbEntity
  8
Contornos Visibles
 62
256
370
-1
 48
1.0
  6
BYLAYER
100
AcDbCircle
 10
3485.5566923145124747
 20
746.4796828805804125
 30
0.0
 40
4.75
100
AcDbArc
 50
343.8515309678808194
 51
196.1484690321205449
  0
ARC
  5
6B
100
AcDbEntity
  8
Contornos Visibles
 62
256
370
-1
 48
1.0
  6
BYLAYER
100
AcDbCircle
 10
3510.9566923145125656
 20
771.8796828805805035
 30
0.0
 40
4.75
100
AcDbArc
 50
73.8515309678808336
 51
286.1484690321205449
  0
ARC
  5
6C
100
AcDbEntity
  8
Contornos Visibles
 62
256
370
-1
 48
1.0
  6
BYLAYER
100
AcDbCircle
 10
3485.5566923145124747
 20
797.2796828805805944
 30
0.0
 40
4.75
100
AcDbArc
 50
163.8515309678808762
 51
16.1484690321205377
  0
ARC
  5
6D
100
AcDbEntity
  8
Contornos Visibles
 62
256
370
-1
 48
1.0
  6
BYLAYER
100
AcDbCircle
 10
3460.1566923145123837
 20
771.8796828805805035
 30
0.0
 40
4.75
100
AcDbArc
 50
253.851530967880791
 51
106.1484690321205306
  0
LINE
  5
6E
100
AcDbEntity
  8
Referencias
 62
256
370
-1
 48
1.0
  6
BYLAYER
100
AcDbLine
 10
3556.9065769383564657
 20
761.8796828805805035
 30
0.0
 11
3556.9065769383564657
 21
781.8796828805805035
 31
0.0
  0
XLINE
  5
6F
100
AcDbEntity
  8
Referencias
 62
256
370
-1
 48
1.0
  6
BYLAYER
100
AcDbLine
 10
3556.9065769383564657
 20
761.8796828805805035
 30
0.0
 11
1.0
 21
0.0
 31
0.0
  0
XLINE
  5
70
100
AcDbEntity
  8
Referencias
 62
256
370
-1
 48
1.0
  6
BYLAYER
100
AcDbLine
 10
3556.9065769383564657
 20
781.8796828805805035
 30
0.0
 11
1.0
 21
0.0
 31
0.0
  0
ARC
  5
71
100
AcDbEntity
  8
Referencias
 62
256
370
-1
 48
1.0
  6
BYLAYER
100
AcDbCircle
 10
3449.1220933733957281
 20
736.4796828805805262
 30
0.0
 40
25.3999999999999986
100
AcDbArc
 50
321.0697114880857157
 51
90.0
  0
LINE
  5
72
100
AcDbEntity
  8
Contornos Visibles
 62
256
370
-1
 48
1.0
  6
BYLAYER
100
AcDbLine
 10
3482.2566923145122928
 20
717.9806105323480097
 30
0.0
 11
3482.2566923145122928
 21
736.2585038879207104
 31
0.0
  0
LINE
  5
73
100
AcDbEntity
  8
Contornos Visibles
 62
256
370
-1
 48
1.0
  6
BYLAYER
100
AcDbLine
 10
3539.4557646627449685
 20
768.5796828805803216
 30
0.0
 11
3521.177871307172154
 21
768.5796828805803216
 31
0.0
  0
LINE
  5
74
100
AcDbEntity
  8
Contornos Visibles
 62
256
370
-1
 48
1.0
  6
BYLAYER
100
AcDbLine
 10
3488.8566923145126566
 20
825.7787552288129973
 30
0.0
 11
3488.8566923145126566
 21
807.5008618732402965
 31
0.0
  0
LINE
  5
75
100
AcDbEntity
  8
Contornos Visibles
 62
256
370
-1
 48
1.0
  6
BYLAYER
100
AcDbLine
 10
3431.6576199662799809
 20
775.1796828805806854
 30
0.0
 11
3449.9355133218527953
 21
775.1796828805806854
 31
0.0
  0
LINE
  5
76
100
AcDbEntity
  8
Contornos Visibles
 62
256
370
-1
 48
1.0
  6
BYLAYER
100
AcDbLine
 10
3488.8566923145126566
 20
717.9806105323480097
 30
0.0
 11
3488.8566923145126566
 21
736.2585038879207104
 31
0.0
  0
LINE
  5
77
100
AcDbEntity
  8
Contornos Visibles
 62
256
370
-1
 48
1.0
  6
BYLAYER
100
AcDbLine
 10
3539.4557646627449685
 20
775.1796828805806854
 30
0.0
 11
3521.177871307172154
 21
775.1796828805806854
 31
0.0
  0
LINE
  5
78
100
AcDbEntity
  8
Contornos Visibles
 62
256
370
-1
 48
1.0
  6
BYLAYER
100
AcDbLine
 10
3482.2566923145122928
 20
825.7787552288129973
 30
0.0
 11
3482.2566923145122928
 21
807.5008618732402965
 31
0.0
  0
LINE
  5
79
100
AcDbEntity
  8
Contornos Visibles
 62
256
370
-1
 48
1.0
  6
BYLAYER
100
AcDbLine
 10
3431.6576199662799809
 20
768.5796828805803216
 30
0.0
 11
3449.9355133218527953
 21
768.5796828805803216
 31
0.0
  0
ARC
  5
7A
100
AcDbEntity
  8
Contornos Visibles
 62
256
370
-1
 48
1.0
  6
BYLAYER
100
AcDbCircle
 10
3450.2566923145122928
 20
736.2585038879207104
 30
0.0
 40
32.0
100
AcDbArc
 50
0.0
 51
16.1484690321217244
  0
ARC
  5
7B
100
AcDbEntity
  8
Contornos Visibles
 62
256
370
-1
 48
1.0
  6
BYLAYER
100
AcDbCircle
 10
3521.177871307172154
 20
736.5796828805803216
 30
0.0
 40
32.0
100
AcDbArc
 50
90.0
 51
106.1484690321217101
  0
ARC
  5
7C
100
AcDbEntity
  8
Contornos Visibles
 62
256
370
-1
 48
1.0
  6
BYLAYER
100
AcDbCircle
 10
3520.8566923145126566
 20
807.5008618732402965
 30
0.0
 40
32.0
100
AcDbArc
 50
180.0
 51
196.1484690321217386
  0
ARC
  5
7D
100
AcDbEntity
  8
Contornos Visibles
 62
256
370
-1
 48
1.0
  6
BYLAYER
100
AcDbCircle
 10
3449.9355133218527953
 20
807.1796828805806854
 30
0.0
 40
32.0
100
AcDbArc
 50
270.0
 51
286.1484690321216817
  0
ARC
  5
7E
100
AcDbEntity
  8
Contornos Visibles
 62
256
370
-1
 48
1.0
  6
BYLAYER
100
AcDbCircle
 10
3520.8566923145126566
 20
736.2585038879207104
 30
0.0
 40
32.0
100
AcDbArc
 50
163.8515309678782899
 51
180.0
  0
ARC
  5
7F
100
AcDbEntity
  8
Contornos Visibles
 62
256
370
-1
 48
1.0
  6
BYLAYER
100
AcDbCircle
 10
3521.177871307172154
 20
807.1796828805806854
 30
0.0
 40
32.0
100
AcDbArc
 50
253.8515309678783183
 51
270.0
  0
ARC
  5
80
100
AcDbEntity
  8
Contornos Visibles
 62
256
370
-1
 48
1.0
  6
BYLAYER
100
AcDbCircle
 10
3450.2566923145122928
 20
807.5008618732402965
 30
0.0
 40
32.0
100
AcDbArc
 50
343.8515309678783183
 51
0.0
  0
ARC
  5
81
100
AcDbEntity
  8
Contornos Visibles
 62
256
370
-1
 48
1.0
  6
BYLAYER
100
AcDbCircle
 10
3449.9355133218527953
 20
736.5796828805803216
 30
0.0
 40
32.0
100
AcDbArc
 50
73.8515309678782899
 51
90.0
  0
ARC
  5
82
100
AcDbEntity
  8
Contornos Visibles
 62
256
370
-1
 48
1.0
  6
BYLAYER
100
AcDbCircle
 10
3485.5566923145124747
 20
717.8796828805805035
 30
0.0
 40
3.3015430318098997
100
AcDbArc
 50
178.2482041032346558
 51
1.7517958967653642
  0
ARC
  5
83
100
AcDbEntity
  8
Contornos Visibles
 62
256
370
-1
 48
1.0
  6
BYLAYER
100
AcDbCircle
 10
3539.5566923145124747
 20
771.8796828805805035
 30
0.0
 40
3.3015430318098997
100
AcDbArc
 50
268.2482041032346842
 51
91.7517958967653584
  0
ARC
  5
84
100
AcDbEntity
  8
Contornos Visibles
 62
256
370
-1
 48
1.0
  6
BYLAYER
100
AcDbCircle
 10
3485.5566923145124747
 20
825.8796828805805035
 30
0.0
 40
3.3015430318098997
100
AcDbArc
 50
358.2482041032346842
 51
181.7517958967653726
  0
ARC
  5
85
100
AcDbEntity
  8
Contornos Visibles
 62
256
370
-1
 48
1.0
  6
BYLAYER
100
AcDbCircle
 10
3431.5566923145124747
 20
771.8796828805805035
 30
0.0
 40
3.3015430318098997
100
AcDbArc
 50
88.24820410323467
 51
271.7517958967653726
  0
ARC
  5
86
100
AcDbEntity
  8
Contornos Visibles
 62
256
370
-1
 48
1.0
  6
BYLAYER
100
AcDbCircle
 10
3485.5566923145124747
 20
771.8796828805805035
 30
0.0
 40
76.2000000000000028
100
AcDbArc
 50
352.4591170942289864
 51
7.5408829057709958
  0
ARC
  5
87
100
AcDbEntity
  8
Contornos Visibles
 62
256
370
-1
 48
1.0
  6
BYLAYER
100
AcDbCircle
 10
3485.5566923145124747
 20
771.8796828805805035
 30
0.0
 40
76.2000000000000028
100
AcDbArc
 50
82.4591170942290006
 51
97.5408829057709852
  0
ARC
  5
88
100
AcDbEntity
  8
Contornos Visibles
 62
256
370
-1
 48
1.0
  6
BYLAYER
100
AcDbCircle
 10
3485.5566923145124747
 20
771.8796828805805035
 30
0.0
 40
76.2000000000000028
100
AcDbArc
 50
172.4591170942290148
 51
187.5408829057710136
  0
ARC
  5
89
100
AcDbEntity
  8
Contornos Visibles
 62
256
370
-1
 48
1.0
  6
BYLAYER
100
AcDbCircle
 10
3485.5566923145124747
 20
771.8796828805805035
 30
0.0
 40
76.2000000000000028
100
AcDbArc
 50
262.4591170942289864
 51
277.5408829057710136
  0
LINE
  5
8A
100
AcDbEntity
  8
Referencias 2
 62
256
370
-1
 48
1.0
  6
BYLAYER
100
AcDbLine
 10
3475.5566923145124747
 20
771.8796828805805035
 30
0.0
 11
3495.5566923145124747
 21
771.8796828805805035
 31
0.0
  0
LINE
  5
8B
100
AcDbEntity
  8
Referencias 2
 62
256
370
-1
 48
1.0
  6
BYLAYER
100
AcDbLine
 10
3495.5566923145124747
 20
771.8796828805805035
 30
0.0
 11
3545.5566923145124747
 21
771.8796828805805035
 31
0.0
  0
LINE
  5
8C
100
AcDbEntity
  8
Contornos Visibles
 62
256
370
-1
 48
1.0
  6
BYLAYER
100
AcDbLine
 10
3545.5566923145124747
 20
761.8796828805805035
 30
0.0
 11
3545.5566923145124747
 21
781.8796828805805035
 31
0.0
  0
LINE
  5
8D
100
AcDbEntity
  8
Contornos Visibles
 62
256
370
-1
 48
1.0
  6
BYLAYER
100
AcDbLine
 10
3495.5566923145124747
 20
831.8796828805805035
 30
0.0
 11
3475.5566923145124747
 21
831.8796828805805035
 31
0.0
  0
LINE
  5
8E
100
AcDbEntity
  8
Contornos Visibles
 62
256
370
-1
 48
1.0
  6
BYLAYER
100
AcDbLine
 10
3425.5566923145124747
 20
781.8796828805806172
 30
0.0
 11
3425.5566923145124747
 21
761.8796828805805035
 31
0.0
  0
LINE
  5
8F
100
AcDbEntity
  8
Contornos Visibles
 62
256
370
-1
 48
1.0
  6
BYLAYER
100
AcDbLine
 10
3475.5566923145124747
 20
711.8796828805805035
 30
0.0
 11
3495.5566923145124747
 21
711.8796828805805035
 31
0.0
  0
LINE
  5
90
100
AcDbEntity
  8
Contornos Visibles
 62
256
370
-1
 48
1.0
  6
BYLAYER
100
AcDbLine
 10
3545.5566923145124747
 20
781.8796828805805035
 30
0.0
 11
3561.0976745691800716
 21
781.8796828805805035
 31
0.0
  0
LINE
  5
91
100
AcDbEntity
  8
Contornos Visibles
 62
256
370
-1
 48
1.0
  6
BYLAYER
100
AcDbLine
 10
3475.5566923145124747
 20
831.8796828805805035
 30
0.0
 11
3475.5566923145124747
 21
847.4206651352481003
 31
0.0
  0
LINE
  5
92
100
AcDbEntity
  8
Contornos Visibles
 62
256
370
-1
 48
1.0
  6
BYLAYER
100
AcDbLine
 10
3425.5566923145124747
 20
761.8796828805805035
 30
0.0
 11
3410.0157100598448778
 21
761.8796828805805035
 31
0.0
  0
LINE
  5
93
100
AcDbEntity
  8
Contornos Visibles
 62
256
370
-1
 48
1.0
  6
BYLAYER
100
AcDbLine
 10
3495.5566923145124747
 20
711.8796828805805035
 30
0.0
 11
3495.5566923145124747
 21
696.3387006259129066
 31
0.0
  0
LINE
  5
94
100
AcDbEntity
  8
Contornos Visibles
 62
256
370
-1
 48
1.0
  6
BYLAYER
100
AcDbLine
 10
3561.0976745691800716
 20
761.8796828805805035
 30
0.0
 11
3545.5566923145124747
 21
761.8796828805805035
 31
0.0
  0
LINE
  5
95
100
AcDbEntity
  8
Contornos Visibles
 62
256
370
-1
 48
1.0
  6
BYLAYER
100
AcDbLine
 10
3495.5566923145124747
 20
847.4206651352481003
 30
0.0
 11
3495.5566923145124747
 21
831.8796828805805035
 31
0.0
  0
LINE
  5
96
100
AcDbEntity
  8
Contornos Visibles
 62
256
370
-1
 48
1.0
  6
BYLAYER
100
AcDbLine
 10
3410.0157100598448778
 20
781.8796828805805035
 30
0.0
 11
3425.5566923145124747
 21
781.8796828805806172
 31
0.0
  0
LINE
  5
97
100
AcDbEntity
  8
Contornos Visibles
 62
256
370
-1
 48
1.0
  6
BYLAYER
100
AcDbLine
 10
3475.5566923145124747
 20
696.3387006259129066
 30
0.0
 11
3475.5566923145124747
 21
711.8796828805805035
 31
0.0
  0
LINE
  5
98
100
AcDbEntity
  8
Referencias 2
 62
256
370
-1
 48
1.0
  6
BYLAYER
100
AcDbLine
 10
3485.5566923145124747
 20
771.8796828805805035
 30
0.0
 11
3553.5566923145124747
 21
771.8796828805805035
 31
0.0
  0
CIRCLE
  5
99
100
AcDbEntity
  8
Contornos Visibles
 62
256
370
-1
 48
1.0
  6
BYLAYER
100
AcDbCircle
 10
3553.5566923145124747
 20
771.8796828805805035
 30
0.0
 40
4.75
  0
CIRCLE
  5
9A
100
AcDbEntity
  8
Contornos Visibles
 62
256
370
-1
 48
1.0
  6
BYLAYER
100
AcDbCircle
 10
3485.5566923145124747
 20
839.8796828805805035
 30
0.0
 40
4.75
  0
CIRCLE
  5
9B
100
AcDbEntity
  8
Contornos Visibles
 62
256
370
-1
 48
1.0
  6
BYLAYER
100
AcDbCircle
 10
3417.5566923145124747
 20
771.8796828805805035
 30
0.0
 40
4.75
  0
CIRCLE
  5
9C
100
AcDbEntity
  8
Contornos Visibles
 62
256
370
-1
 48
1.0
  6
BYLAYER
100
AcDbCircle
 10
3485.5566923145124747
 20
703.8796828805805035
 30
0.0
 40
4.75
  0
LINE
  5
9D
100
AcDbEntity
  8
Contornos Visibles
 62
256
370
-1
 48
1.0
  6
BYLAYER
100
AcDbLine
 10
3545.5566923145124747
 20
761.8796828805805035
 30
0.0
 11
3521.9912912556292213
 21
761.8796828805805035
 31
0.0
  0
LINE
  5
9E
100
AcDbEntity
  8
Contornos Visibles
 62
256
370
-1
 48
1.0
  6
BYLAYER
100
AcDbLine
 10
3495.5566923145124747
 20
831.8796828805805035
 30
0.0
 11
3495.5566923145124747
 21
808.3142818216972501
 31
0.0
  0
LINE
  5
9F
100
AcDbEntity
  8
Contornos Visibles
 62
256
370
-1
 48
1.0
  6
BYLAYER
100
AcDbLine
 10
3425.5566923145124747
 20
781.8796828805806172
 30
0.0
 11
3449.1220933733957281
 21
781.8796828805805035
 31
0.0
  0
LINE
  5
A0
100
AcDbEntity
  8
Contornos Visibles
 62
256
370
-1
 48
1.0
  6
BYLAYER
100
AcDbLine
 10
3475.5566923145124747
 20
711.8796828805805035
 30
0.0
 11
3475.5566923145124747
 21
735.4450839394637569
 31
0.0
  0
LINE
  5
A1
100
AcDbEntity
  8
Contornos Visibles
 62
256
370
-1
 48
1.0
  6
BYLAYER
100
AcDbLine
 10
3495.5566923145124747
 20
711.8796828805805035
 30
0.0
 11
3495.5566923145124747
 21
735.4450839394637569
 31
0.0
  0
LINE
  5
A2
100
AcDbEntity
  8
Contornos Visibles
 62
256
370
-1
 48
1.0
  6
BYLAYER
100
AcDbLine
 10
3425.5566923145124747
 20
761.8796828805805035
 30
0.0
 11
3449.1220933733957281
 21
761.8796828805805035
 31
0.0
  0
LINE
  5
A3
100
AcDbEntity
  8
Contornos Visibles
 62
256
370
-1
 48
1.0
  6
BYLAYER
100
AcDbLine
 10
3475.5566923145124747
 20
831.8796828805805035
 30
0.0
 11
3475.5566923145124747
 21
808.3142818216972501
 31
0.0
  0
LINE
  5
A4
100
AcDbEntity
  8
Contornos Visibles
 62
256
370
-1
 48
1.0
  6
BYLAYER
100
AcDbLine
 10
3545.5566923145124747
 20
781.8796828805805035
 30
0.0
 11
3521.9912912556292213
 21
781.8796828805805035
 31
0.0
  0
ARC
  5
A5
100
AcDbEntity
  8
Contornos Visibles
 62
256
370
-1
 48
1.0
  6
BYLAYER
100
AcDbCircle
 10
3521.9912912556292213
 20
736.4796828805805262
 30
0.0
 40
25.3999999999999986
100
AcDbArc
 50
90.0
 51
135.8251463147396976
  0
ARC
  5
A6
100
AcDbEntity
  8
Contornos Visibles
 62
256
370
-1
 48
1.0
  6
BYLAYER
100
AcDbCircle
 10
3520.9566923145125656
 20
808.3142818216972501
 30
0.0
 40
25.3999999999999986
100
AcDbArc
 50
180.0
 51
225.8251463147396976
  0
ARC
  5
A7
100
AcDbEntity
  8
Contornos Visibles
 62
256
370
-1
 48
1.0
  6
BYLAYER
100
AcDbCircle
 10
3449.1220933733957281
 20
807.2796828805804807
 30
0.0
 40
25.3999999999999986
100
AcDbArc
 50
270.0
 51
315.8251463147396976
  0
ARC
  5
A8
100
AcDbEntity
  8
Contornos Visibles
 62
256
370
-1
 48
1.0
  6
BYLAYER
100
AcDbCircle
 10
3450.1566923145123837
 20
735.4450839394637569
 30
0.0
 40
25.3999999999999986
100
AcDbArc
 50
0.0
 51
45.8251463147396905
  0
ARC
  5
A9
100
AcDbEntity
  8
Contornos Visibles
 62
256
370
-1
 48
1.0
  6
BYLAYER
100
AcDbCircle
 10
3520.9566923145125656
 20
735.4450839394637569
 30
0.0
 40
25.3999999999999986
100
AcDbArc
 50
134.1748536852603024
 51
180.0
  0
ARC
  5
AA
100
AcDbEntity
  8
Contornos Visibles
 62
256
370
-1
 48
1.0
  6
BYLAYER
100
AcDbCircle
 10
3449.1220933733957281
 20
736.4796828805805262
 30
0.0
 40
25.3999999999999986
100
AcDbArc
 50
44.1748536852603024
 51
90.0
  0
ARC
  5
AB
100
AcDbEntity
  8
Contornos Visibles
 62
256
370
-1
 48
1.0
  6
BYLAYER
100
AcDbCircle
 10
3450.1566923145123837
 20
808.3142818216972501
 30
0.0
 40
25.3999999999999986
100
AcDbArc
 50
314.1748536852603024
 51
0.0
  0
ARC
  5
AC
100
AcDbEntity
  8
Contornos Visibles
 62
256
370
-1
 48
1.0
  6
BYLAYER
100
AcDbCircle
 10
3521.9912912556292213
 20
807.2796828805804807
 30
0.0
 40
25.3999999999999986
100
AcDbArc
 50
224.1748536852603024
 51
270.0
  0
LINE
  5
AD
100
AcDbEntity
  8
Ejes de revoluci\U+00f3n
 62
256
370
-1
 48
1.0
  6
BYLAYER
100
AcDbLine
 10
3417.5566923145124747
 20
766.1296828805805035
 30
0.0
 11
3417.5566923145124747
 21
777.6296828805805035
 31
0.0
  0
LINE
  5
AE
100
AcDbEntity
  8
Ejes de revoluci\U+00f3n
 62
256
370
-1
 48
1.0
  6
BYLAYER
100
AcDbLine
 10
3479.8066923145124747
 20
703.8796828805805035
 30
0.0
 11
3491.3066923145124747
 21
703.8796828805805035
 31
0.0
  0
LINE
  5
AF
100
AcDbEntity
  8
Ejes de revoluci\U+00f3n
 62
256
370
-1
 48
1.0
  6
BYLAYER
100
AcDbLine
 10
3553.5566923145124747
 20
766.1296828805805035
 30
0.0
 11
3553.5566923145124747
 21
777.6296828805805035
 31
0.0
  0
LINE
  5
B0
100
AcDbEntity
  8
Ejes de revoluci\U+00f3n
 62
256
370
-1
 48
1.0
  6
BYLAYER
100
AcDbLine
 10
3479.8066923145124747
 20
839.8796828805805035
 30
0.0
 11
3491.3066923145124747
 21
839.8796828805805035
 31
0.0
  0
LINE
  5
B1
100
AcDbEntity
  8
Ejes de revoluci\U+00f3n
 62
256
370
-1
 48
1.0
  6
BYLAYER
100
AcDbLine
 10
3406.5566923145124747
 20
771.8796828805805035
 30
0.0
 11
3564.5566923145124747
 21
771.8796828805805035
 31
0.0
  0
LINE
  5
B2
100
AcDbEntity
  8
Ejes de revoluci\U+00f3n
 62
256
370
-1
 48
1.0
  6
BYLAYER
100
AcDbLine
 10
3485.5566923145124747
 20
692.8796828805805035
 30
0.0
 11
3485.5566923145124747
 21
850.8796828805805035
 31
0.0
  0
DIMENSION
  5
B3
100
AcDbEntity
  8
Cotas
 62
256
370
-1
 48
1.0
  6
BYLAYER
100
AcDbDimension
 10
3475.7782478104977599
 20
773.9730111113908606
 30
0.0
 11
3480.1791408386629882
 21
775.2542768437838276
 31
0.0
 70
131
 71
8
 72
2
 74
0
 75
0
 41
1.0
 42
0.0
  1
\U+00f8<>
  3
Standard
100
AcDbDiametricDimension
 15
3495.3351368185271895
 25
769.7863546497701464
 35
0.0
 40
0.0
1001
ACAD
1000
DSTYLE
1002
{
1070
279
1070
2
1070
144
1040
1.0
1070
40
1040
1.0
1002
}
  0
DIMENSION
  5
B4
100
AcDbEntity
  8
Cotas
 62
256
370
-1
 48
1.0
  6
BYLAYER
100
AcDbDimension
 10
3497.8396812935611706
 20
779.1039947329693405
 30
0.0
 11
3500.5317455288563906
 21
783.6976620091090808
 31
0.0
 70
131
 71
8
 72
2
 74
0
 75
0
 41
1.0
 42
0.0
  1
\U+00f8<>
  3
Standard
100
AcDbDiametricDimension
 15
3473.2737033354637788
 25
764.6553710281916665
 35
0.0
 40
0.0
1001
ACAD
1000
DSTYLE
1002
{
1070
279
1070
2
1070
144
1040
1.0
1070
40
1040
1.0
1002
}
  0
DIMENSION
  5
B5
100
AcDbEntity
  8
Cotas
 62
256
370
-1
 48
1.0
  6
BYLAYER
100
AcDbDimension
 10
3470.3883684280185662
 20
792.2532429640422151
 30
0.0
 11
3475.7444401422267219
 21
789.1817304366047665
 31
0.0
 70
131
 71
8
 72
2
 74
0
 75
0
 41
1.0
 42
0.0
  1
\U+00f8<>
  3
Standard
100
AcDbDiametricDimension
 15
3500.7250162010063832
 25
751.5061227971187918
 35
0.0
 40
0.0
1001
ACAD
1000
DSTYLE
1002
{
1070
279
1070
2
1070
144
1040
1.0
1070
40
1040
1.0
1002
}
  0
DIMENSION
  5
B6
100
AcDbEntity
  8
Cotas
 62
256
370
-1
 48
1.0
  6
BYLAYER
100
AcDbDimension
 10
3450.2566923145122928
 20
736.2585038879207104
 30
0.0
 11
3465.9359265433226938
 21
739.9567790261564824
 31
0.0
 70
4
 71
8
 72
2
 74
0
 41
1.0
 42
0.0
  1
R<>
  3
Standard
100
AcDbRadialDimension
 15
3482.0453926420750577
 25
739.9298158447561491
 35
0.0
 40
0.0
1001
ACAD
1000
DSTYLE
1002
{
1070
144
1040
1.0
1070
40
1040
1.0
1002
}
  0
DIMENSION
  5
B7
100
AcDbEntity
  8
Cotas
 62
256
370
-1
 48
1.0
  6
BYLAYER
100
AcDbDimension
 10
3449.1220933733957281
 20
736.4796828805805262
 30
0.0
 11
3453.9078291344349054
 21
748.3919605060184495
 31
0.0
 70
4
 71
8
 72
2
 74
0
 41
1.0
 42
0.0
  1
R<>
  3
Standard
100
AcDbRadialDimension
 15
3461.9317584786222142
 25
758.4130474171020069
 35
0.0
 40
0.0
1001
ACAD
1000
DSTYLE
1002
{
1070
144
1040
1.0
1070
40
1040
1.0
1002
}
  0
DIMENSION
  5
B8
100
AcDbEntity
  8
Cotas
 62
256
370
-1
 48
1.0
  6
BYLAYER
100
AcDbDimension
 10
3510.9566923145125656
 20
771.8796828805805035
 30
0.0
 11
3521.8830448865833205
 21
765.2032400466121089
 31
0.0
 70
4
 71
8
 72
2
 74
0
 41
1.0
 42
0.0
  1
R<>
  3
Standard
100
AcDbRadialDimension
 15
3514.6035567377971347
 25
768.8361849130798191
 35
0.0
 40
0.0
1001
ACAD
1000
DSTYLE
1002
{
1070
144
1040
1.0
1070
40
1040
1.0
1002
}
  0
MTEXT
  5
B9
100
AcDbEntity
  8
Cotas
 62
256
370
-1
 48
1.0
  6
BYLAYER
100
AcDbMText
 10
3533.1054592161931396
 20
823.3714561817392905
 30
0.0
 40
2.5
 41
0.0
 71
1
 72
1
  1
%%c108
  7
textstyle1
 50
0.0
 73
2
 44
1.0
  0
LEADER
  5
BA
100
AcDbEntity
  8
Cotas
 62
256
370
-1
 48
1.0
  6
BYLAYER
100
AcDbLeader
  3
Standard
 71
1
 72
0
 73
3
 74
0
 75
0
 40
1.0
 41
10.0
 76
3
 10
3516.7513241897713669
 20
815.9579648589774479
 10
3532.8554592161931396
 20
820.4765039307161487
 10
3540.937750551625868
 20
820.4765039307161487
1001
ACAD
1000
DSTYLE
1002
{
1070
40
1040
1.0
1002
}
  0
DIMENSION
  5
BB
100
AcDbEntity
  8
Cotas
 62
256
370
-1
 48
1.0
  6
BYLAYER
100
AcDbDimension
 10
3442.5508665993024806
 20
775.1796828805806854
 30
0.0
 11
3440.6758665993024806
 21
771.8796828805805035
 31
0.0
 70
0
 71
8
 72
2
 74
0
 75
0
 41
1.0
 42
0.0
  1

  3
Standard
100
AcDbAlignedDimension
 13
3440.7965666440663881
 23
775.1796828805806854
 33
0.0
 14
3440.7965666440663881
 24
768.5796828805803216
 34
0.0
 50
90.0
100
AcDbRotatedDimension
1001
ACAD
1000
DSTYLE
1002
{
1070
144
1040
1.0
1070
40
1040
1.0
1002
}
  0
ARC
  5
BC
100
AcDbEntity
  8
Cotas
 62
256
370
-1
 48
1.0
  6
BYLAYER
100
AcDbCircle
 10
3485.5566923145133842
 20
771.8796828805805035
 30
0.0
 40
76.1999999999989086
100
AcDbArc
 50
7.5408829057711415
 51
26.4058540679110081
  0
MTEXT
  5
BD
100
AcDbEntity
  8
Cotas
 62
256
370
-1
 48
1.0
  6
BYLAYER
100
AcDbMText
 10
3565.376940102511071
 20
804.7294772037841994
 30
0.0
 40
2.5
 41
0.0
 71
1
 72
1
  1
%%c152,4
  7
textstyle2
 50
0.0
 73
2
 44
1.0
  0
LEADER
  5
BE
100
AcDbEntity
  8
Cotas
 62
256
370
-1
 48
1.0
  6
BYLAYER
100
AcDbLeader
  3
Standard
 71
1
 72
0
 73
3
 74
0
 75
0
 40
1.0
 41
10.0
 76
3
 10
3558.4374621667889187
 20
794.1245336496795062
 10
3565.126940102511071
 20
801.4747023061034952
 10
3576.1086739391489573
 20
801.4747023061034952
1001
ACAD
1000
DSTYLE
1002
{
1070
40
1040
1.0
1002
}
  0
DIMENSION
  5
BF
100
AcDbEntity
  8
Cotas
 62
256
370
-1
 48
1.0
  6
BYLAYER
100
AcDbDimension
 10
3575.2415951919201689
 20
761.8796828805805035
 30
0.0
 11
3573.3665951919201689
 21
771.8796828805805035
 31
0.0
 70
0
 71
8
 72
2
 74
0
 75
0
 41
1.0
 42
0.0
  1

  3
Standard
100
AcDbAlignedDimension
 13
3561.0976745691800716
 23
761.8796828805805035
 33
0.0
 14
3561.0976745691800716
 24
781.8796828805805035
 34
0.0
 50
90.0
100
AcDbRotatedDimension
1001
ACAD
1000
DSTYLE
1002
{
1070
144
1040
1.0
1070
40
1040
1.0
1002
}
  0
DIMENSION
  5
C0
100
AcDbEntity
  8
Cotas
 62
256
370
-1
 48
1.0
  6
BYLAYER
100
AcDbDimension
 10
3487.7552238341963857
 20
699.6691058231028819
 30
0.0
 11
3487.2187622056221699
 21
704.7475242699293858
 31
0.0
 70
3
 71
8
 72
2
 74
0
 75
0
 41
1.0
 42
0.0
  1
\U+00f8<>
  3
Standard
100
AcDbDiametricDimension
 15
3483.3581607948285637
 25
708.090259938058125
 35
0.0
 40
0.0
1001
ACAD
1000
DSTYLE
1002
{
1070
144
1040
1.0
1070
40
1040
1.0
1002
}
  0
DIMENSION
  5
C1
100
AcDbEntity
  8
Cotas
 62
256
370
-1
 48
1.0
  6
BYLAYER
100
AcDbDimension
 10
3475.5566923145124747
 20
678.1640642751433461
 30
0.0
 11
3485.5566923145124747
 21
680.0390642751433461
 31
0.0
 70
0
 71
8
 72
2
 74
0
 75
0
 41
1.0
 42
0.0
  1

  3
Standard
100
AcDbAlignedDimension
 13
3475.5566923145124747
 23
696.3387006259129066
 33
0.0
 14
3495.5566923145124747
 24
696.3387006259129066
 34
0.0
 50
0.0
100
AcDbRotatedDimension
1001
ACAD
1000
DSTYLE
1002
{
1070
144
1040
1.0
1070
40
1040
1.0
1002
}
  0
DIMENSION
  5
C2
100
AcDbEntity
  8
Cotas
 62
256
370
-1
 48
1.0
  6
BYLAYER
100
AcDbDimension
 10
3475.5566923145124747
 20
865.5953014860176609
 30
0.0
 11
3485.5566923145124747
 21
867.4703014860176609
 31
0.0
 70
0
 71
8
 72
2
 74
0
 75
0
 41
1.0
 42
0.0
  1

  3
Standard
100
AcDbAlignedDimension
 13
3475.5566923145124747
 23
847.4206651352481003
 33
0.0
 14
3495.5566923145124747
 24
847.4206651352481003
 34
0.0
 50
0.0
100
AcDbRotatedDimension
1001
ACAD
1000
DSTYLE
1002
{
1070
144
1040
1.0
1070
40
1040
1.0
1002
}
  0
DIMENSION
  5
C3
100
AcDbEntity
  8
Cotas
 62
256
370
-1
 48
1.0
  6
BYLAYER
100
AcDbDimension
 10
3391.8410737090757721
 20
781.8796828805801624
 30
0.0
 11
3389.9660737090757721
 21
771.8796828805802761
 31
0.0
 70
0
 71
8
 72
2
 74
0
 75
0
 41
1.0
 42
4.7123889803846897
  1

  3
Standard
100
AcDbAlignedDimension
 13
3410.0157100598453326
 23
781.8796828805802761
 33
0.0
 14
3410.0157100598453326
 24
761.8796828805801624
 34
0.0
 50
270.0
100
AcDbRotatedDimension
1001
ACAD
1000
DSTYLE
1002
{
1070
144
1040
1.0
1070
40
1040
1.0
1002
}
  0
DIMENSION
  5
C4
100
AcDbEntity
  8
Cotas
 62
256
370
-1
 48
1.0
  6
BYLAYER
100
AcDbDimension
 10
3425.5566923145129294
 20
678.1640642751433461
 30
0.0
 11
3450.5566923145124747
 21
680.0390642751433461
 31
0.0
 70
0
 71
8
 72
2
 74
0
 75
0
 41
1.0
 42
0.0
  1

  3
Standard
100
AcDbAlignedDimension
 13
3425.5566923145129294
 23
761.8796828805805035
 33
0.0
 14
3475.5566923145124747
 24
696.3387006259129066
 34
0.0
 50
0.0
100
AcDbRotatedDimension
1001
ACAD
1000
DSTYLE
1002
{
1070
144
1040
1.0
1070
40
1040
1.0
1002
}
  0
DIMENSION
  5
C5
100
AcDbEntity
  8
Cotas
 62
256
370
-1
 48
1.0
  6
BYLAYER
100
AcDbDimension
 10
3391.8410737090757721
 20
831.8796828805797077
 30
0.0
 11
3389.9660737090757721
 21
806.8796828805800487
 31
0.0
 70
0
 71
8
 72
2
 74
0
 75
0
 41
1.0
 42
4.7123889803846897
  1

  3
Standard
100
AcDbAlignedDimension
 13
3475.5566923145129294
 23
831.8796828805797077
 33
0.0
 14
3410.0157100598453326
 24
781.8796828805802761
 34
0.0
 50
270.0
100
AcDbRotatedDimension
1001
ACAD
1000
DSTYLE
1002
{
1070
144
1040
1.0
1070
40
1040
1.0
1002
}
  0
DIMENSION
  5
C6
100
AcDbEntity
  8
Cotas
 62
256
370
-1
 48
1.0
  6
BYLAYER
100
AcDbDimension
 10
3545.5566923145124747
 20
678.1640642751433461
 30
0.0
 11
3520.5566923145124747
 21
680.0390642751433461
 31
0.0
 70
0
 71
8
 72
2
 74
0
 75
0
 41
1.0
 42
0.0
  1

  3
Standard
100
AcDbAlignedDimension
 13
3545.5566923145124747
 23
761.8796828805805035
 33
0.0
 14
3495.5566923145124747
 24
696.3387006259129066
 34
0.0
 50
0.0
100
AcDbRotatedDimension
1001
ACAD
1000
DSTYLE
1002
{
1070
144
1040
1.0
1070
40
1040
1.0
1002
}
  0
DIMENSION
  5
C7
100
AcDbEntity
  8
Cotas
 62
256
370
-1
 48
1.0
  6
BYLAYER
100
AcDbDimension
 10
3391.8410737090757721
 20
711.8796828805801624
 30
0.0
 11
3389.9660737090757721
 21
736.8796828805801624
 31
0.0
 70
0
 71
8
 72
2
 74
0
 75
0
 41
1.0
 42
4.7123889803846897
  1

  3
Standard
100
AcDbAlignedDimension
 13
3475.5566923145129294
 23
711.8796828805801624
 33
0.0
 14
3410.0157100598453326
 24
761.8796828805801624
 34
0.0
 50
270.0
100
AcDbRotatedDimension
1001
ACAD
1000
DSTYLE
1002
{
1070
144
1040
1.0
1070
40
1040
1.0
1002
}
  0
DIMENSION
  5
C8
100
AcDbEntity
  8
Cotas
 62
256
370
-1
 48
1.0
  6
BYLAYER
100
AcDbDimension
 10
3417.5566923145124747
 20
661.7764544359829415
 30
0.0
 11
3451.5566923145124747
 21
663.6514544359829415
 31
0.0
 70
0
 71
8
 72
2
 74
0
 75
0
 41
1.0
 42
0.0
  1

  3
Standard
100
AcDbAlignedDimension
 13
3417.5566923145124747
 23
766.1296828805805035
 33
0.0
 14
3485.5566923145124747
 24
678.1640642751433461
 34
0.0
 50
0.0
100
AcDbRotatedDimension
1001
ACAD
1000
DSTYLE
1002
{
1070
144
1040
1.0
1070
40
1040
1.0
1002
}
  0
DIMENSION
  5
C9
100
AcDbEntity
  8
Cotas
 62
256
370
-1
 48
1.0
  6
BYLAYER
100
AcDbDimension
 10
3375.4534638699151401
 20
839.8796828805802761
 30
0.0
 11
3373.5784638699151401
 21
805.8796828805801624
 31
0.0
 70
0
 71
8
 72
2
 74
0
 75
0
 41
1.0
 42
4.7123889803846897
  1

  3
Standard
100
AcDbAlignedDimension
 13
3479.8066923145129294
 23
839.8796828805801624
 33
0.0
 14
3391.8410737090757721
 24
771.8796828805801624
 34
0.0
 50
270.0
100
AcDbRotatedDimension
1001
ACAD
1000
DSTYLE
1002
{
1070
144
1040
1.0
1070
40
1040
1.0
1002
}
  0
DIMENSION
  5
CA
100
AcDbEntity
  8
Cotas
 62
256
370
-1
 48
1.0
  6
BYLAYER
100
AcDbDimension
 10
3553.5566923145124747
 20
661.7764544359829415
 30
0.0
 11
3519.5566923145124747
 21
663.6514544359829415
 31
0.0
 70
0
 71
8
 72
2
 74
0
 75
0
 41
1.0
 42
0.0
  1

  3
Standard
100
AcDbAlignedDimension
 13
3553.5566923145124747
 23
766.1296828805805035
 33
0.0
 14
3485.5566923145124747
 24
677.5390642751433461
 34
0.0
 50
0.0
100
AcDbRotatedDimension
1001
ACAD
1000
DSTYLE
1002
{
1070
144
1040
1.0
1070
40
1040
1.0
1002
}
  0
DIMENSION
  5
CB
100
AcDbEntity
  8
Cotas
 62
256
370
-1
 48
1.0
  6
BYLAYER
100
AcDbDimension
 10
3375.4534638699151401
 20
703.8796828805800487
 30
0.0
 11
3373.5784638699151401
 21
737.8796828805801624
 31
0.0
 70
0
 71
8
 72
2
 74
0
 75
0
 41
1.0
 42
4.7123889803846897
  1

  3
Standard
100
AcDbAlignedDimension
 13
3479.8066923145129294
 23
703.8796828805801624
 33
0.0
 14
3391.2160737090757721
 24
771.8796828805801624
 34
0.0
 50
270.0
100
AcDbRotatedDimension
1001
ACAD
1000
DSTYLE
1002
{
1070
144
1040
1.0
1070
40
1040
1.0
1002
}
  0
MTEXT
  5
CC
100
AcDbEntity
  8
Cotas
 62
256
370
-1
 48
1.0
  6
BYLAYER
100
AcDbMText
 10
3404.9894182238704161
 20
752.3625628290410532
 30
0.0
 40
2.5
 41
0.0
 71
1
 72
1
  1
(R)
  7
textstyle0
 50
0.0
 73
2
 44
1.0
  0
LEADER
  5
CD
100
AcDbEntity
  8
Cotas
 62
256
370
-1
 48
1.0
  6
BYLAYER
100
AcDbLeader
  3
Standard
 71
1
 72
0
 73
3
 74
0
 75
0
 40
1.0
 41
10.0
 76
3
 10
3428.8959579036763898
 20
769.9250272111889899
 10
3409.7411055937277524
 20
748.8349366353166943
 10
3404.7394182238704161
 20
748.8349366353166943
1001
ACAD
1000
DSTYLE
1002
{
1070
40
1040
1.0
1002
}
  0
ENDSEC
  0
SECTION
  2
OBJECTS
  0
DICTIONARY
  5
C
100
AcDbDictionary
280
0
281
1
  3
ACAD_GROUP
350
D
  3
ACAD_LAYOUT
350
1A
  3
ACAD_MLINESTYLE
350
17
  3
ACAD_PLOTSETTINGS
350
19
  3
ACAD_PLOTSTYLENAME
350
E
  3
AcDbVariableDictionary
350
CE
  3
QCAD_OBJECTS
350
CF
  0
DICTIONARY
  5
D
100
AcDbDictionary
280
0
281
1
  0
ACDBDICTIONARYWDFLT
  5
E
100
AcDbDictionary
281
1
  3
Normal
350
F
100
AcDbDictionaryWithDefault
340
F
  0
ACDBPLACEHOLDER
  5
F
  0
DICTIONARY
  5
17
100
AcDbDictionary
280
0
281
1
  3
Standard
350
18
  0
MLINESTYLE
  5
18
100
AcDbMlineStyle
  2
STANDARD
 70
0
  3

 62
256
 51
90.0
 52
90.0
 71
2
 49
0.5
 62
256
  6
BYLAYER
 49
-0.5
 62
256
  6
BYLAYER
  0
DICTIONARY
  5
19
100
AcDbDictionary
280
0
281
1
  0
DICTIONARY
  5
1A
100
AcDbDictionary
281
1
  3
Layout1
350
1E
  3
Layout2
350
26
  3
Model
350
22
  0
LAYOUT
  5
1E
100
AcDbPlotSettings
  1

  2
none_device
  4

  6

 40
0.0
 41
0.0
 42
0.0
 43
0.0
 44
0.0
 45
0.0
 46
0.0
 47
0.0
 48
0.0
 49
0.0
140
0.0
141
0.0
142
1.0
143
1.0
 70
688
 72
0
 73
0
 74
5
  7

 75
16
147
1.0
148
0.0
149
0.0
100
AcDbLayout
  1
Layout1
 70
1
 71
1
 10
0.0
 20
0.0
 11
420.0
 21
297.0
 12
0.0
 22
0.0
 32
0.0
 14
100000000000000000000.0
 24
100000000000000000000.0
 34
100000000000000000000.0
 15
-100000000000000000000.0
 25
-100000000000000000000.0
 35
-100000000000000000000.0
146
0.0
 13
0.0
 23
0.0
 33
0.0
 16
1.0
 26
0.0
 36
0.0
 17
0.0
 27
1.0
 37
0.0
 76
0
330
1B
  0
LAYOUT
  5
22
100
AcDbPlotSettings
  1

  2
none_device
  4

  6

 40
0.0
 41
0.0
 42
0.0
 43
0.0
 44
0.0
 45
0.0
 46
0.0
 47
0.0
 48
0.0
 49
0.0
140
0.0
141
0.0
142
1.0
143
1.0
 70
1712
 72
0
 73
0
 74
0
  7

 75
0
147
1.0
148
0.0
149
0.0
100
AcDbLayout
  1
Model
 70
1
 71
0
 10
0.0
 20
0.0
 11
12.0
 21
9.0
 12
0.0
 22
0.0
 32
0.0
 14
0.0
 24
0.0
 34
0.0
 15
0.0
 25
0.0
 35
0.0
146
0.0
 13
0.0
 23
0.0
 33
0.0
 16
1.0
 26
0.0
 36
0.0
 17
0.0
 27
1.0
 37
0.0
 76
0
330
1F
  0
LAYOUT
  5
26
100
AcDbPlotSettings
  1

  2
none_device
  4

  6

 40
0.0
 41
0.0
 42
0.0
 43
0.0
 44
0.0
 45
0.0
 46
0.0
 47
0.0
 48
0.0
 49
0.0
140
0.0
141
0.0
142
1.0
143
1.0
 70
688
 72
0
 73
0
 74
5
  7

 75
16
147
1.0
148
0.0
149
0.0
100
AcDbLayout
  1
Layout2
 70
1
 71
2
 10
0.0
 20
0.0
 11
12.0
 21
9.0
 12
0.0
 22
0.0
 32
0.0
 14
0.0
 24
0.0
 34
0.0
 15
0.0
 25
0.0
 35
0.0
146
0.0
 13
0.0
 23
0.0
 33
0.0
 16
1.0
 26
0.0
 36
0.0
 17
0.0
 27
1.0
 37
0.0
 76
0
330
23
  0
DICTIONARY
  5
CE
100
AcDbDictionary
281
1
  3
DIMASSOC
350
D1
  3
HIDETEXT
350
D0
  0
DICTIONARYVAR
  5
D0
100
DictionaryVariables
280
0
  1
2
  0
DICTIONARYVAR
  5
D1
100
DictionaryVariables
280
0
  1
1
  0
DICTIONARY
  5
CF
100
AcDbDictionary
281
1
  3
ColorSettings/BackgroundColor
350
D2
  3
ColorSettings/ColorMode
350
D3
  3
Grid/DisplayGrid00
350
D4
  3
Grid/DisplayGrid01
350
D5
  3
Grid/DisplayGrid02
350
D6
  3
Grid/DisplayGrid03
350
D7
  3
Grid/GridSpacingX00
350
D8
  3
Grid/GridSpacingX01
350
D9
  3
Grid/GridSpacingX02
350
DA
  3
Grid/GridSpacingX03
350
DB
  3
Grid/GridSpacingY00
350
DC
  3
Grid/GridSpacingY01
350
DD
  3
Grid/GridSpacingY02
350
DE
  3
Grid/GridSpacingY03
350
DF
  3
Grid/IsometricGrid00
350
E0
  3
Grid/IsometricGrid01
350
E1
  3
Grid/IsometricGrid02
350
E2
  3
Grid/IsometricGrid03
350
E3
  3
Grid/IsometricProjection00
350
E4
  3
Grid/IsometricProjection01
350
E5
  3
Grid/IsometricProjection02
350
E6
  3
Grid/IsometricProjection03
350
E7
  3
Grid/MetaGridSpacingX00
350
E8
  3
Grid/MetaGridSpacingX01
350
E9
  3
Grid/MetaGridSpacingX02
350
EA
  3
Grid/MetaGridSpacingX03
350
EB
  3
Grid/MetaGridSpacingY00
350
EC
  3
Grid/MetaGridSpacingY01
350
ED
  3
Grid/MetaGridSpacingY02
350
EE
  3
Grid/MetaGridSpacingY03
350
EF
  3
MultiPageSettings/Columns
350
F0
  3
MultiPageSettings/GlueMarginsBottom
350
F1
  3
MultiPageSettings/GlueMarginsLeft
350
F2
  3
MultiPageSettings/GlueMarginsRight
350
F3
  3
MultiPageSettings/GlueMarginsTop
350
F4
  3
MultiPageSettings/PrintCropMarks
350
F5
  3
MultiPageSettings/Rows
350
F6
  3
PageSettings/OffsetX
350
F7
  3
PageSettings/OffsetY
350
F8
  3
PageSettings/PageOrientation
350
F9
  3
PageSettings/PaperHeight
350
FA
  3
PageSettings/PaperWidth
350
FB
  3
PageSettings/Scale
350
FC
  3
PageSettings/ShowPaperBorders
350
FD
  3
PageTagSettings/EnablePageTags
350
FE
  3
PageTagSettings/TagAlignment
350
FF
  3
PageTagSettings/TagFont
350
100
  3
PageTagSettings/TagPosition
350
101
  3
QCADVersion
350
102
  3
UnitSettings/PaperUnit
350
103
  3
ViewportCenter
350
104
  3
ViewportHeight
350
105
  3
ViewportWidth
350
106
  0
XRECORD
  5
D2
330
CF
100
AcDbXrecord
280
1
1000
Blanca
  0
XRECORD
  5
D3
330
CF
100
AcDbXrecord
280
1
1000
FullColor
  0
XRECORD
  5
D4
330
CF
100
AcDbXrecord
280
1
290
0
  0
XRECORD
  5
D5
330
CF
100
AcDbXrecord
280
1
290
1
  0
XRECORD
  5
D6
330
CF
100
AcDbXrecord
280
1
290
1
  0
XRECORD
  5
D7
330
CF
100
AcDbXrecord
280
1
290
1
  0
XRECORD
  5
D8
330
CF
100
AcDbXrecord
280
1
1000
auto
  0
XRECORD
  5
D9
330
CF
100
AcDbXrecord
280
1
1000
auto
  0
XRECORD
  5
DA
330
CF
100
AcDbXrecord
280
1
1000
auto
  0
XRECORD
  5
DB
330
CF
100
AcDbXrecord
280
1
1000
auto
  0
XRECORD
  5
DC
330
CF
100
AcDbXrecord
280
1
1000
auto
  0
XRECORD
  5
DD
330
CF
100
AcDbXrecord
280
1
1000
auto
  0
XRECORD
  5
DE
330
CF
100
AcDbXrecord
280
1
1000
auto
  0
XRECORD
  5
DF
330
CF
100
AcDbXrecord
280
1
1000
auto
  0
XRECORD
  5
E0
330
CF
100
AcDbXrecord
280
1
290
0
  0
XRECORD
  5
E1
330
CF
100
AcDbXrecord
280
1
290
0
  0
XRECORD
  5
E2
330
CF
100
AcDbXrecord
280
1
290
0
  0
XRECORD
  5
E3
330
CF
100
AcDbXrecord
280
1
290
0
  0
XRECORD
  5
E4
330
CF
100
AcDbXrecord
280
1
 90
65537
  0
XRECORD
  5
E5
330
CF
100
AcDbXrecord
280
1
 90
65537
  0
XRECORD
  5
E6
330
CF
100
AcDbXrecord
280
1
 90
65537
  0
XRECORD
  5
E7
330
CF
100
AcDbXrecord
280
1
 90
65537
  0
XRECORD
  5
E8
330
CF
100
AcDbXrecord
280
1
1000
auto
  0
XRECORD
  5
E9
330
CF
100
AcDbXrecord
280
1
1000
auto
  0
XRECORD
  5
EA
330
CF
100
AcDbXrecord
280
1
1000
auto
  0
XRECORD
  5
EB
330
CF
100
AcDbXrecord
280
1
1000
auto
  0
XRECORD
  5
EC
330
CF
100
AcDbXrecord
280
1
1000
1
  0
XRECORD
  5
ED
330
CF
100
AcDbXrecord
280
1
1000
auto
  0
XRECORD
  5
EE
330
CF
100
AcDbXrecord
280
1
1000
auto
  0
XRECORD
  5
EF
330
CF
100
AcDbXrecord
280
1
1000
auto
  0
XRECORD
  5
F0
330
CF
100
AcDbXrecord
280
1
 90
1
  0
XRECORD
  5
F1
330
CF
100
AcDbXrecord
280
1
 40
10.0
  0
XRECORD
  5
F2
330
CF
100
AcDbXrecord
280
1
 40
10.0
  0
XRECORD
  5
F3
330
CF
100
AcDbXrecord
280
1
 40
10.0
  0
XRECORD
  5
F4
330
CF
100
AcDbXrecord
280
1
 40
10.0
  0
XRECORD
  5
F5
330
CF
100
AcDbXrecord
280
1
290
0
  0
XRECORD
  5
F6
330
CF
100
AcDbXrecord
280
1
 90
1
  0
XRECORD
  5
F7
330
CF
100
AcDbXrecord
280
1
 40
793.1665914866936191
  0
XRECORD
  5
F8
330
CF
100
AcDbXrecord
280
1
 40
306.6308471493692309
  0
XRECORD
  5
F9
330
CF
100
AcDbXrecord
280
1
1000
Portrait
  0
XRECORD
  5
FA
330
CF
100
AcDbXrecord
280
1
 40
279.3999999999999773
  0
XRECORD
  5
FB
330
CF
100
AcDbXrecord
280
1
 40
215.9000000000000057
  0
XRECORD
  5
FC
330
CF
100
AcDbXrecord
280
1
 90
1
  0
XRECORD
  5
FD
330
CF
100
AcDbXrecord
280
1
290
1
  0
XRECORD
  5
FE
330
CF
100
AcDbXrecord
280
1
290
0
  0
XRECORD
  5
FF
330
CF
100
AcDbXrecord
280
1
1000
Inside
  0
XRECORD
  5
100
330
CF
100
AcDbXrecord
280
1
1000
Arial,10,-1,5,50,0,0,0,0,0
  0
XRECORD
  5
101
330
CF
100
AcDbXrecord
280
1
1000
TopLeft
  0
XRECORD
  5
102
330
CF
100
AcDbXrecord
280
1
1000
3.28.1
  0
XRECORD
  5
103
330
CF
100
AcDbXrecord
280
1
 90
4
  0
XRECORD
  5
105
330
CF
100
AcDbXrecord
280
1
 40
224.2260197186391224
  0
XRECORD
  5
106
330
CF
100
AcDbXrecord
280
1
 40
417.6669096808254835
  0
IMAGEDEF
  5
63
100
AcDbRasterImageDef
 90
0
  1
C:/Users/iamth/Documents/OneDrive/Estudio Aut\U+00f3nomo/CAD/QCad/1. StudyCadCam/2D CAD EXERCISES 86.png
 10
200.0
 20
141.0
 11
1.0
 21
1.0
280
1
281
0
  0
ENDSEC
  0
EOF
