999
dxflib 3.26.4.0
  0
SECTION
  2
HEADER
  9
$ACADVER
  1
AC1015
  9
$HANDSEED
  5
FFFF
  9
$DIMADEC
 70
0
  9
$DIMASZ
 40
2.5
  9
$DIMATFIT
 70
0
  9
$DIMAUNIT
 70
0
  9
$DIMAZIN
 70
2
  9
$DIMBLK
  1
0
  9
$DIMBLK1
  1
0
  9
$DIMBLK2
  1
0
  9
$DIMDEC
 70
4
  9
$DIMDLI
 40
5.0
  9
$DIMDSEP
 70
46
  9
$DIMEXE
 40
1.25
  9
$DIMEXO
 40
0.625
  9
$DIMGAP
 40
0.625
  9
$DIMLFAC
 40
1.0
  9
$DIMLUNIT
 70
2
  9
$DIMSCALE
 40
1.0
  9
$DIMTAD
 70
1
  9
$DIMTIH
 70
0
  9
$DIMTSZ
 40
0.0
  9
$DIMTXT
 40
2.5
  9
$DIMZIN
 70
8
  9
$DWGCODEPAGE
  3
ANSI_1252
  9
$INSUNITS
 70
4
  9
$LTSCALE
 40
1.0
  9
$MAXACTVP
 70
64
  9
$MEASUREMENT
 70
1
  9
$MIRRTEXT
 70
0
  9
$PDMODE
 70
0
  9
$PDSIZE
 40
0.0
  0
ENDSEC
  0
SECTION
  2
TABLES
  0
TABLE
  2
VPORT
  5
8
100
AcDbSymbolTable
 70
1
  0
VPORT
  5
30
100
AcDbSymbolTableRecord
100
AcDbViewportTableRecord
  2
*Active
 70
0
 10
0.0
 20
0.0
 11
1.0
 21
1.0
 12
286.3055555555554861
 22
148.5
 13
0.0
 23
0.0
 14
10.0
 24
10.0
 15
10.0
 25
10.0
 16
0.0
 26
0.0
 36
1.0
 17
0.0
 27
0.0
 37
0.0
 40
297.0
 41
1.92798353909465
 42
50.0
 43
0.0
 44
0.0
 50
0.0
 51
0.0
 71
0
 72
100
 73
1
 74
3
 75
1
 76
1
 77
0
 78
0
281
0
 65
1
110
0.0
120
0.0
130
0.0
111
1.0
121
0.0
131
0.0
112
0.0
122
1.0
132
0.0
 79
0
146
0.0
  0
ENDTAB
  0
TABLE
  2
LTYPE
  5
5
100
AcDbSymbolTable
 70
41
  0
LTYPE
  5
16
100
AcDbSymbolTableRecord
100
AcDbLinetypeTableRecord
  2
Continuous
 70
0
  3
Solid line
 72
65
 73
0
 40
0.0
  0
LTYPE
  5
31
100
AcDbSymbolTableRecord
100
AcDbLinetypeTableRecord
  2
ACAD_ISO12W100
 70
0
  3
ISO dash double-dot __ . . __ . . __ . . __ . . 
 72
65
 73
6
 40
21.0
 49
12.0
 74
0
 49
-2.9500000000000002
 74
0
 49
0.1
 74
0
 49
-2.9000000000000004
 74
0
 49
0.1
 74
0
 49
-2.9500000000000002
 74
0
  0
LTYPE
  5
32
100
AcDbSymbolTableRecord
100
AcDbLinetypeTableRecord
  2
ACAD_ISO06W100
 70
0
  3
ISO long-dash triple-dot ____ ... ____ ... ____
 72
65
 73
8
 40
36.0000000000000071
 49
24.0
 74
0
 49
-2.9500000000000002
 74
0
 49
0.1
 74
0
 49
-2.9000000000000004
 74
0
 49
0.1
 74
0
 49
-2.9000000000000004
 74
0
 49
0.1
 74
0
 49
-2.9500000000000002
 74
0
  0
LTYPE
  5
33
100
AcDbSymbolTableRecord
100
AcDbLinetypeTableRecord
  2
DOTX2
 70
0
  3
Dot (2x) .  .  .  .  .  .  .  .  .  .  .  .  .  .
 72
65
 73
2
 40
12.6999999999999993
 49
0.1
 74
0
 49
-12.5999999999999996
 74
0
  0
LTYPE
  5
34
100
AcDbSymbolTableRecord
100
AcDbLinetypeTableRecord
  2
DOT
 70
0
  3
Dot . . . . . . . . . . . . . . . . . . . . . . . .
 72
65
 73
2
 40
6.3499999999999996
 49
0.1
 74
0
 49
-6.25
 74
0
  0
LTYPE
  5
35
100
AcDbSymbolTableRecord
100
AcDbLinetypeTableRecord
  2
DOT2
 70
0
  3
Dot (.5x) ........................................
 72
65
 73
2
 40
3.1749999999999998
 49
0.1
 74
0
 49
-3.0749999999999997
 74
0
  0
LTYPE
  5
36
100
AcDbSymbolTableRecord
100
AcDbLinetypeTableRecord
  2
PHANTOM2
 70
0
  3
Phantom (.5x) ___ _ _ ___ _ _ ___ _ _ ___ _ _
 72
65
 73
6
 40
31.7500000000000036
 49
15.875
 74
0
 49
-3.1749999999999998
 74
0
 49
3.1749999999999998
 74
0
 49
-3.1749999999999998
 74
0
 49
3.1749999999999998
 74
0
 49
-3.1749999999999998
 74
0
  0
LTYPE
  5
37
100
AcDbSymbolTableRecord
100
AcDbLinetypeTableRecord
  2
HIDDEN
 70
0
  3
Hidden __ __ __ __ __ __ __ __ __ __ __ __ __ __
 72
65
 73
2
 40
9.5249999999999986
 49
6.3499999999999996
 74
0
 49
-3.1749999999999998
 74
0
  0
LTYPE
  5
38
100
AcDbSymbolTableRecord
100
AcDbLinetypeTableRecord
  2
DASHED2
 70
0
  3
Dashed (.5x) _ _ _ _ _ _ _ _ _ _ _ _ _ _ _ _ _ 
 72
65
 73
2
 40
9.5249999999999986
 49
6.3499999999999996
 74
0
 49
-3.1749999999999998
 74
0
  0
LTYPE
  5
14
100
AcDbSymbolTableRecord
100
AcDbLinetypeTableRecord
  2
BYBLOCK
 70
0
  3

 72
65
 73
0
 40
0.0
  0
LTYPE
  5
39
100
AcDbSymbolTableRecord
100
AcDbLinetypeTableRecord
  2
CENTER
 70
0
  3
Center ____ _ ____ _ ____ _ ____ _ ____ _ ____
 72
65
 73
4
 40
50.8000000000000043
 49
31.75
 74
0
 49
-6.3499999999999996
 74
0
 49
6.3499999999999996
 74
0
 49
-6.3499999999999996
 74
0
  0
LTYPE
  5
3A
100
AcDbSymbolTableRecord
100
AcDbLinetypeTableRecord
  2
HIDDENX2
 70
0
  3
Hidden (2x) ____ ____ ____ ____ ____ ____ ____ 
 72
65
 73
2
 40
19.0499999999999972
 49
12.6999999999999993
 74
0
 49
-6.3499999999999996
 74
0
  0
LTYPE
  5
3B
100
AcDbSymbolTableRecord
100
AcDbLinetypeTableRecord
  2
DASHDOTX2
 70
0
  3
Dash dot (2x) ____  .  ____  .  ____  .  ___
 72
65
 73
4
 40
50.7999999999999972
 49
25.3999999999999986
 74
0
 49
-12.6499999999999986
 74
0
 49
0.1
 74
0
 49
-12.6499999999999986
 74
0
  0
LTYPE
  5
3C
100
AcDbSymbolTableRecord
100
AcDbLinetypeTableRecord
  2
DASHED
 70
0
  3
Dashed __ __ __ __ __ __ __ __ __ __ __ __ __ _
 72
65
 73
2
 40
19.0499999999999972
 49
12.6999999999999993
 74
0
 49
-6.3499999999999996
 74
0
  0
LTYPE
  5
3D
100
AcDbSymbolTableRecord
100
AcDbLinetypeTableRecord
  2
BORDER2
 70
0
  3
Border (.5x) __.__.__.__.__.__.__.__.__.__.__.
 72
65
 73
6
 40
22.2250000000000014
 49
6.3499999999999996
 74
0
 49
-3.1749999999999998
 74
0
 49
6.3499999999999996
 74
0
 49
-3.125
 74
0
 49
0.1
 74
0
 49
-3.125
 74
0
  0
LTYPE
  5
3E
100
AcDbSymbolTableRecord
100
AcDbLinetypeTableRecord
  2
DASHDOT2
 70
0
  3
Dash dot (.5x) _._._._._._._._._._._._._._._.
 72
65
 73
4
 40
12.6999999999999993
 49
6.3499999999999996
 74
0
 49
-3.125
 74
0
 49
0.1
 74
0
 49
-3.125
 74
0
  0
LTYPE
  5
3F
100
AcDbSymbolTableRecord
100
AcDbLinetypeTableRecord
  2
ACAD_ISO11W100
 70
0
  3
ISO double-dash dot __ __ . __ __ . __ __ . __ _
 72
65
 73
6
 40
33.0
 49
12.0
 74
0
 49
-3.0
 74
0
 49
12.0
 74
0
 49
-2.9500000000000002
 74
0
 49
0.1
 74
0
 49
-2.9500000000000002
 74
0
  0
LTYPE
  5
40
100
AcDbSymbolTableRecord
100
AcDbLinetypeTableRecord
  2
ACAD_ISO13W100
 70
0
  3
ISO double-dash double-dot __ __ . . __ __ . . _
 72
65
 73
8
 40
36.0000000000000071
 49
12.0
 74
0
 49
-3.0
 74
0
 49
12.0
 74
0
 49
-2.9500000000000002
 74
0
 49
0.1
 74
0
 49
-2.9000000000000004
 74
0
 49
0.1
 74
0
 49
-2.9500000000000002
 74
0
  0
LTYPE
  5
41
100
AcDbSymbolTableRecord
100
AcDbLinetypeTableRecord
  2
DASHDOT
 70
0
  3
Dash dot __ . __ . __ . __ . __ . __ . __ . __
 72
65
 73
4
 40
25.4000000000000021
 49
12.6999999999999993
 74
0
 49
-6.2999999999999998
 74
0
 49
0.1
 74
0
 49
-6.2999999999999998
 74
0
  0
LTYPE
  5
15
100
AcDbSymbolTableRecord
100
AcDbLinetypeTableRecord
  2
BYLAYER
 70
0
  3

 72
65
 73
0
 40
0.0
  0
LTYPE
  5
42
100
AcDbSymbolTableRecord
100
AcDbLinetypeTableRecord
  2
DIVIDEX2
 70
0
  3
Divide (2x) ________  .  .  ________  .  .  _
 72
65
 73
6
 40
63.5
 49
25.3999999999999986
 74
0
 49
-12.6499999999999986
 74
0
 49
0.1
 74
0
 49
-12.5999999999999979
 74
0
 49
0.1
 74
0
 49
-12.6499999999999986
 74
0
  0
LTYPE
  5
43
100
AcDbSymbolTableRecord
100
AcDbLinetypeTableRecord
  2
ACAD_ISO07W100
 70
0
  3
ISO dot . . . . . . . . . . . . . . . . . . . . 
 72
65
 73
2
 40
3.0
 49
0.1
 74
0
 49
-2.8999999999999999
 74
0
  0
LTYPE
  5
44
100
AcDbSymbolTableRecord
100
AcDbLinetypeTableRecord
  2
ACAD_ISO05W100
 70
0
  3
ISO long-dash double-dot ____ .. ____ .. ____ . 
 72
65
 73
6
 40
33.0000000000000071
 49
24.0
 74
0
 49
-2.9500000000000002
 74
0
 49
0.1
 74
0
 49
-2.9000000000000004
 74
0
 49
0.1
 74
0
 49
-2.9500000000000002
 74
0
  0
LTYPE
  5
45
100
AcDbSymbolTableRecord
100
AcDbLinetypeTableRecord
  2
ACAD_ISO04W100
 70
0
  3
ISO long-dash dot ____ . ____ . ____ . ____ . _
 72
65
 73
4
 40
30.0
 49
24.0
 74
0
 49
-2.9500000000000002
 74
0
 49
0.1
 74
0
 49
-2.9500000000000002
 74
0
  0
LTYPE
  5
46
100
AcDbSymbolTableRecord
100
AcDbLinetypeTableRecord
  2
BORDER
 70
0
  3
Border __ __ . __ __ . __ __ . __ __ . __ __ .
 72
65
 73
6
 40
44.4499999999999957
 49
12.6999999999999993
 74
0
 49
-6.3499999999999996
 74
0
 49
12.6999999999999993
 74
0
 49
-6.2999999999999998
 74
0
 49
0.1
 74
0
 49
-6.2999999999999998
 74
0
  0
LTYPE
  5
47
100
AcDbSymbolTableRecord
100
AcDbLinetypeTableRecord
  2
ACAD_ISO15W100
 70
0
  3
ISO double-dash triple-dot __ __ . . . __ __ . .
 72
65
 73
10
 40
39.0000000000000071
 49
12.0
 74
0
 49
-3.0
 74
0
 49
12.0
 74
0
 49
-2.9500000000000002
 74
0
 49
0.1
 74
0
 49
-2.9000000000000004
 74
0
 49
0.1
 74
0
 49
-2.9000000000000004
 74
0
 49
0.1
 74
0
 49
-2.9500000000000002
 74
0
  0
LTYPE
  5
48
100
AcDbSymbolTableRecord
100
AcDbLinetypeTableRecord
  2
CENTERX2
 70
0
  3
Center (2x) ________  __  ________  __  _____
 72
65
 73
4
 40
101.6000000000000085
 49
63.5
 74
0
 49
-12.6999999999999993
 74
0
 49
12.6999999999999993
 74
0
 49
-12.6999999999999993
 74
0
  0
LTYPE
  5
49
100
AcDbSymbolTableRecord
100
AcDbLinetypeTableRecord
  2
CENTER2
 70
0
  3
Center (.5x) ___ _ ___ _ ___ _ ___ _ ___ _ ___
 72
65
 73
4
 40
28.5750000000000028
 49
19.0500000000000007
 74
0
 49
-3.1749999999999998
 74
0
 49
3.1749999999999998
 74
0
 49
-3.1749999999999998
 74
0
  0
LTYPE
  5
4A
100
AcDbSymbolTableRecord
100
AcDbLinetypeTableRecord
  2
BORDERX2
 70
0
  3
Border (2x) ____  ____  .  ____  ____  .  ___
 72
65
 73
6
 40
88.8999999999999773
 49
25.3999999999999986
 74
0
 49
-12.6999999999999993
 74
0
 49
25.3999999999999986
 74
0
 49
-12.6499999999999986
 74
0
 49
0.1
 74
0
 49
-12.6499999999999986
 74
0
  0
LTYPE
  5
4B
100
AcDbSymbolTableRecord
100
AcDbLinetypeTableRecord
  2
PHANTOMX2
 70
0
  3
Phantom (2x) ____________    ____    ____   _
 72
65
 73
6
 40
127.0000000000000142
 49
63.5
 74
0
 49
-12.6999999999999993
 74
0
 49
12.6999999999999993
 74
0
 49
-12.6999999999999993
 74
0
 49
12.6999999999999993
 74
0
 49
-12.6999999999999993
 74
0
  0
LTYPE
  5
4C
100
AcDbSymbolTableRecord
100
AcDbLinetypeTableRecord
  2
PHANTOM
 70
0
  3
Phantom ______  __  __  ______  __  __  ______ 
 72
65
 73
6
 40
63.5000000000000071
 49
31.75
 74
0
 49
-6.3499999999999996
 74
0
 49
6.3499999999999996
 74
0
 49
-6.3499999999999996
 74
0
 49
6.3499999999999996
 74
0
 49
-6.3499999999999996
 74
0
  0
LTYPE
  5
4D
100
AcDbSymbolTableRecord
100
AcDbLinetypeTableRecord
  2
ACAD_ISO02W100
 70
0
  3
ISO dash __ __ __ __ __ __ __ __ __ __ __ __ __
 72
65
 73
2
 40
15.0
 49
12.0
 74
0
 49
-3.0
 74
0
  0
LTYPE
  5
4E
100
AcDbSymbolTableRecord
100
AcDbLinetypeTableRecord
  2
ACAD_ISO10W100
 70
0
  3
ISO dash dot __ . __ . __ . __ . __ . __ . __ . 
 72
65
 73
4
 40
18.0
 49
12.0
 74
0
 49
-2.9500000000000002
 74
0
 49
0.1
 74
0
 49
-2.9500000000000002
 74
0
  0
LTYPE
  5
4F
100
AcDbSymbolTableRecord
100
AcDbLinetypeTableRecord
  2
ACAD_ISO09W100
 70
0
  3
ISO long-dash double-short-dash ____ __ __ ____
 72
65
 73
6
 40
45.0
 49
24.0
 74
0
 49
-3.0
 74
0
 49
6.0
 74
0
 49
-3.0
 74
0
 49
6.0
 74
0
 49
-3.0
 74
0
  0
LTYPE
  5
50
100
AcDbSymbolTableRecord
100
AcDbLinetypeTableRecord
  2
DIVIDE
 70
0
  3
Divide ____ . . ____ . . ____ . . ____ . . ____
 72
65
 73
6
 40
31.7500000000000036
 49
12.6999999999999993
 74
0
 49
-6.2999999999999998
 74
0
 49
0.1
 74
0
 49
-6.25
 74
0
 49
0.1
 74
0
 49
-6.2999999999999998
 74
0
  0
LTYPE
  5
51
100
AcDbSymbolTableRecord
100
AcDbLinetypeTableRecord
  2
HIDDEN2
 70
0
  3
Hidden (.5x) _ _ _ _ _ _ _ _ _ _ _ _ _ _ _ _ _ 
 72
65
 73
2
 40
4.7624999999999993
 49
3.1749999999999998
 74
0
 49
-1.5874999999999999
 74
0
  0
LTYPE
  5
52
100
AcDbSymbolTableRecord
100
AcDbLinetypeTableRecord
  2
ACAD_ISO08W100
 70
0
  3
ISO long-dash short-dash ____ __ ____ __ ____ _
 72
65
 73
4
 40
36.0
 49
24.0
 74
0
 49
-3.0
 74
0
 49
6.0
 74
0
 49
-3.0
 74
0
  0
LTYPE
  5
53
100
AcDbSymbolTableRecord
100
AcDbLinetypeTableRecord
  2
DASHEDX2
 70
0
  3
Dashed (2x) ____  ____  ____  ____  ____  ___
 72
65
 73
2
 40
38.0999999999999943
 49
25.3999999999999986
 74
0
 49
-12.6999999999999993
 74
0
  0
LTYPE
  5
54
100
AcDbSymbolTableRecord
100
AcDbLinetypeTableRecord
  2
DIVIDE2
 70
0
  3
Divide (.5x) __..__..__..__..__..__..__..__.._
 72
65
 73
6
 40
15.8749999999999982
 49
6.3499999999999996
 74
0
 49
-3.125
 74
0
 49
0.1
 74
0
 49
-3.0750000000000002
 74
0
 49
0.1
 74
0
 49
-3.125
 74
0
  0
LTYPE
  5
55
100
AcDbSymbolTableRecord
100
AcDbLinetypeTableRecord
  2
ACAD_ISO14W100
 70
0
  3
ISO dash triple-dot __ . . . __ . . . __ . . . _
 72
65
 73
8
 40
24.0000000000000036
 49
12.0
 74
0
 49
-2.9500000000000002
 74
0
 49
0.1
 74
0
 49
-2.9000000000000004
 74
0
 49
0.1
 74
0
 49
-2.9000000000000004
 74
0
 49
0.1
 74
0
 49
-2.9500000000000002
 74
0
  0
LTYPE
  5
56
100
AcDbSymbolTableRecord
100
AcDbLinetypeTableRecord
  2
ACAD_ISO03W100
 70
0
  3
ISO dash space __    __    __    __    __    __
 72
65
 73
2
 40
30.0
 49
12.0
 74
0
 49
-18.0
 74
0
  0
ENDTAB
  0
TABLE
  2
LAYER
  5
2
100
AcDbSymbolTable
 70
7
  0
LAYER
  5
57
100
AcDbSymbolTableRecord
100
AcDbLayerTableRecord
  2
Cotas
 70
0
 62
1
420
16711680
  6
Continuous
370
20
390
F
  0
LAYER
  5
58
100
AcDbSymbolTableRecord
100
AcDbLayerTableRecord
  2
Referencias 2
 70
1
 62
3
420
65280
  6
Continuous
370
25
390
F
  0
LAYER
  5
59
100
AcDbSymbolTableRecord
100
AcDbLayerTableRecord
  2
Contornos Ocultos
 70
0
 62
252
420
10526884
  6
ACAD_ISO02W100
370
30
390
F
  0
LAYER
  5
5A
100
AcDbSymbolTableRecord
100
AcDbLayerTableRecord
  2
Referencias
 70
1
 62
2
420
16776960
  6
Continuous
370
25
390
F
  0
LAYER
  5
5B
100
AcDbSymbolTableRecord
100
AcDbLayerTableRecord
  2
Contornos Visibles
 70
0
 62
7
420
16777215
  6
Continuous
370
50
390
F
  0
LAYER
  5
5C
100
AcDbSymbolTableRecord
100
AcDbLayerTableRecord
  2
Ejes de revoluci\U+00f3n
 70
0
 62
6
420
16711935
  6
ACAD_ISO04W100
370
20
390
F
  0
LAYER
  5
10
100
AcDbSymbolTableRecord
100
AcDbLayerTableRecord
  2
0
 70
0
 62
7
420
16777215
  6
Continuous
370
25
390
F
  0
ENDTAB
  0
TABLE
  2
STYLE
  5
3
100
AcDbSymbolTable
 70
2
  0
STYLE
  5
5D
100
AcDbSymbolTableRecord
100
AcDbTextStyleTableRecord
  2
Standard
 70
0
 40
0.0
 41
1.0
 50
0.0
 71
0
 42
2.5
  3

  4

1001
ACAD
1000
txt
1071
0
  0
STYLE
  5
5E
100
AcDbSymbolTableRecord
100
AcDbTextStyleTableRecord
  2
textstyle0
 70
0
 40
0.0
 41
1.0
 50
0.0
 71
0
 42
2.5
  3

  4

1001
ACAD
1000
Arial
1071
0
  0
ENDTAB
  0
TABLE
  2
VIEW
  5
6
100
AcDbSymbolTable
 70
0
  0
ENDTAB
  0
TABLE
  2
UCS
  5
7
100
AcDbSymbolTable
 70
0
  0
ENDTAB
  0
TABLE
  2
APPID
  5
9
100
AcDbSymbolTable
 70
1
  0
APPID
  5
12
100
AcDbSymbolTableRecord
100
AcDbRegAppTableRecord
  2
ACAD
 70
0
  0
APPID
  5
5F
100
AcDbSymbolTableRecord
100
AcDbRegAppTableRecord
  2
QCAD
 70
0
  0
ENDTAB
  0
TABLE
  2
DIMSTYLE
  5
A
100
AcDbSymbolTable
 70
1
100
AcDbDimStyleTable
 71
0
  0
DIMSTYLE
105
27
100
AcDbSymbolTableRecord
100
AcDbDimStyleTableRecord
  2
Standard
 41
2.5
 42
0.625
 43
3.75
 44
1.25
 70
0
 73
0
 74
0
 77
1
 78
8
140
2.5
141
2.5
143
0.03937007874016
147
0.625
171
3
172
1
271
2
272
2
274
3
278
44
283
0
284
8
340
5D
  0
ENDTAB
  0
TABLE
  2
BLOCK_RECORD
  5
1
100
AcDbSymbolTable
 70
1
  0
BLOCK_RECORD
  5
1F
100
AcDbSymbolTableRecord
100
AcDbBlockTableRecord
  2
*Model_Space
340
22
  0
BLOCK_RECORD
  5
1B
100
AcDbSymbolTableRecord
100
AcDbBlockTableRecord
  2
*Paper_Space
340
1E
  0
BLOCK_RECORD
  5
23
100
AcDbSymbolTableRecord
100
AcDbBlockTableRecord
  2
*Paper_Space0
340
26
  0
ENDTAB
  0
ENDSEC
  0
SECTION
  2
BLOCKS
  0
BLOCK
  5
20
100
AcDbEntity
  8
0
100
AcDbBlockBegin
  2
*Model_Space
 70
0
 10
0.0
 20
0.0
 30
0.0
  3
*Model_Space
  1

  0
ENDBLK
  5
21
100
AcDbEntity
  8
0
100
AcDbBlockEnd
  0
BLOCK
  5
1C
100
AcDbEntity
 67
1
  8
0
100
AcDbBlockBegin
  2
*Paper_Space
 70
0
 10
0.0
 20
0.0
 30
0.0
  3
*Paper_Space
  1

  0
ENDBLK
  5
1D
100
AcDbEntity
 67
1
  8
0
100
AcDbBlockEnd
  0
BLOCK
  5
24
100
AcDbEntity
  8
0
100
AcDbBlockBegin
  2
*Paper_Space0
 70
0
 10
0.0
 20
0.0
 30
0.0
  3
*Paper_Space0
  1

  0
ENDBLK
  5
25
100
AcDbEntity
  8
0
100
AcDbBlockEnd
  0
ENDSEC
  0
SECTION
  2
ENTITIES
  0
IMAGE
  5
60
100
AcDbEntity
  8
0
 62
256
370
-1
 48
1.0
  6
BYLAYER
100
AcDbRasterImage
 90
0
 10
1011.9081645172504977
 20
502.8127457723541056
 30
0.0
 11
0.09765625
 21
0.0
 31
0.0
 12
0.0
 22
0.09765625
 32
0.0
 13
200.0
 23
141.0
340
61
 70
15
280
0
281
50
282
50
283
0
  0
CIRCLE
  5
62
100
AcDbEntity
  8
Contornos Visibles
 62
256
370
-1
 48
1.0
  6
BYLAYER
100
AcDbCircle
 10
1379.8196193285034497
 20
564.2142336973942065
 30
0.0
 40
9.0
  0
CIRCLE
  5
63
100
AcDbEntity
  8
Contornos Visibles
 62
256
370
-1
 48
1.0
  6
BYLAYER
100
AcDbCircle
 10
1379.8196193285034497
 20
564.2142336973942065
 30
0.0
 40
12.0
  0
XLINE
  5
64
100
AcDbEntity
  8
Referencias
 62
256
370
-1
 48
1.0
  6
BYLAYER
100
AcDbLine
 10
1379.8196193285034497
 20
564.2142336973942065
 30
0.0
 11
1.0
 21
0.0
 31
0.0
  0
XLINE
  5
65
100
AcDbEntity
  8
Referencias
 62
256
370
-1
 48
1.0
  6
BYLAYER
100
AcDbLine
 10
1379.8196193285034497
 20
564.2142336973942065
 30
0.0
 11
0.0
 21
1.0
 31
0.0
  0
LINE
  5
66
100
AcDbEntity
  8
Referencias
 62
256
370
-1
 48
1.0
  6
BYLAYER
100
AcDbLine
 10
1379.8196193285034497
 20
564.2142336973942065
 30
0.0
 11
1419.8196193285034497
 21
633.4962660001492623
 31
0.0
  0
LINE
  5
67
100
AcDbEntity
  8
Referencias
 62
256
370
-1
 48
1.0
  6
BYLAYER
100
AcDbLine
 10
1379.8196193285034497
 20
564.2142336973942065
 30
0.0
 11
1419.8196193285034497
 21
494.9322013946391507
 31
0.0
  0
CIRCLE
  5
68
100
AcDbEntity
  8
Referencias 2
 62
256
370
-1
 48
1.0
  6
BYLAYER
100
AcDbCircle
 10
1379.8196193285034497
 20
564.2142336973942065
 30
0.0
 40
48.0
  0
CIRCLE
  5
69
100
AcDbEntity
  8
Contornos Visibles
 62
256
370
-1
 48
1.0
  6
BYLAYER
100
AcDbCircle
 10
1331.8196193285034497
 20
564.2142336973942065
 30
0.0
 40
3.0
  0
CIRCLE
  5
6A
100
AcDbEntity
  8
Contornos Visibles
 62
256
370
-1
 48
1.0
  6
BYLAYER
100
AcDbCircle
 10
1403.8196193285034497
 20
605.7834530790472627
 30
0.0
 40
3.0
  0
CIRCLE
  5
6B
100
AcDbEntity
  8
Contornos Visibles
 62
256
370
-1
 48
1.0
  6
BYLAYER
100
AcDbCircle
 10
1403.8196193285034497
 20
522.6450143157411503
 30
0.0
 40
3.0
  0
ARC
  5
6C
100
AcDbEntity
  8
Contornos Visibles
 62
256
370
-1
 48
1.0
  6
BYLAYER
100
AcDbCircle
 10
1331.8196193285034497
 20
564.2142336973942065
 30
0.0
 40
6.0
100
AcDbArc
 50
347.050854333186976
 51
12.9491456668130418
  0
ARC
  5
6D
100
AcDbEntity
  8
Contornos Visibles
 62
256
370
-1
 48
1.0
  6
BYLAYER
100
AcDbCircle
 10
1331.8196193285034497
 20
564.2142336973942065
 30
0.0
 40
6.0
100
AcDbArc
 50
86.4166783015280515
 51
273.5833216984719343
  0
ARC
  5
6E
100
AcDbEntity
  8
Contornos Visibles
 62
256
370
-1
 48
1.0
  6
BYLAYER
100
AcDbCircle
 10
1403.8196193285034497
 20
605.7834530790472627
 30
0.0
 40
6.0
100
AcDbArc
 50
227.0508543331869191
 51
252.949145666813024
  0
ARC
  5
6F
100
AcDbEntity
  8
Contornos Visibles
 62
256
370
-1
 48
1.0
  6
BYLAYER
100
AcDbCircle
 10
1403.8196193285034497
 20
605.7834530790472627
 30
0.0
 40
6.0
100
AcDbArc
 50
326.4166783015280089
 51
153.5833216984719911
  0
ARC
  5
70
100
AcDbEntity
  8
Contornos Visibles
 62
256
370
-1
 48
1.0
  6
BYLAYER
100
AcDbCircle
 10
1403.8196193285034497
 20
522.6450143157411503
 30
0.0
 40
6.0
100
AcDbArc
 50
107.0508543331869475
 51
132.9491456668129956
  0
ARC
  5
71
100
AcDbEntity
  8
Contornos Visibles
 62
256
370
-1
 48
1.0
  6
BYLAYER
100
AcDbCircle
 10
1403.8196193285034497
 20
522.6450143157411503
 30
0.0
 40
6.0
100
AcDbArc
 50
206.4166783015280089
 51
33.5833216984719201
  0
LINE
  5
72
100
AcDbEntity
  8
Contornos Visibles
 62
256
370
-1
 48
1.0
  6
BYLAYER
100
AcDbLine
 10
1332.1946193285034497
 20
570.2025034808959845
 30
0.0
 11
1365.8294295644702743
 21
576.133228016506223
 31
0.0
  0
LINE
  5
73
100
AcDbEntity
  8
Contornos Visibles
 62
256
370
-1
 48
1.0
  6
BYLAYER
100
AcDbLine
 10
1332.1946193285034497
 20
558.2259639138924285
 30
0.0
 11
1365.8294295644695922
 21
552.2952393782823037
 31
0.0
  0
LINE
  5
74
100
AcDbEntity
  8
Contornos Visibles
 62
256
370
-1
 48
1.0
  6
BYLAYER
100
AcDbLine
 10
1408.818113085730829
 20
602.4645586608771737
 30
0.0
 11
1397.1368660784337408
 21
570.370596277256368
 31
0.0
  0
LINE
  5
75
100
AcDbEntity
  8
Contornos Visibles
 62
256
370
-1
 48
1.0
  6
BYLAYER
100
AcDbLine
 10
1398.4461255712762977
 20
608.4528284443789516
 30
0.0
 11
1376.492562342607016
 21
582.2895905963683845
 31
0.0
  0
LINE
  5
76
100
AcDbEntity
  8
Contornos Visibles
 62
256
370
-1
 48
1.0
  6
BYLAYER
100
AcDbLine
 10
1398.4461255712760703
 20
519.9756389504093477
 30
0.0
 11
1376.4925623426065613
 21
546.1388767984203696
 31
0.0
  0
LINE
  5
77
100
AcDbEntity
  8
Contornos Visibles
 62
256
370
-1
 48
1.0
  6
BYLAYER
100
AcDbLine
 10
1408.8181130857306016
 20
525.9639087339112393
 30
0.0
 11
1397.1368660784335134
 21
558.0578711175322724
 31
0.0
  0
LINE
  5
78
100
AcDbEntity
  8
Contornos Visibles
 62
256
370
-1
 48
1.0
  6
BYLAYER
100
AcDbLine
 10
1339.5892461750358962
 20
559.9683715242348399
 30
0.0
 11
1366.6305622120339649
 21
555.2002579130474942
 31
0.0
  0
LINE
  5
79
100
AcDbEntity
  8
Contornos Visibles
 62
256
370
-1
 48
1.0
  6
BYLAYER
100
AcDbLine
 10
1396.2577814023138671
 20
601.1776899386042032
 30
0.0
 11
1378.6078158683963011
 21
580.1432801043940799
 31
0.0
  0
LINE
  5
7A
100
AcDbEntity
  8
Contornos Visibles
 62
256
370
-1
 48
1.0
  6
BYLAYER
100
AcDbLine
 10
1403.6118304081605856
 20
531.4966396293434627
 30
0.0
 11
1394.2204799050803103
 21
557.2991630747410454
 31
0.0
  0
LINE
  5
7B
100
AcDbEntity
  8
Contornos Visibles
 62
256
370
-1
 48
1.0
  6
BYLAYER
100
AcDbLine
 10
1339.5892461750358962
 20
568.4600958705535731
 30
0.0
 11
1366.6305622120339649
 21
573.2282094817409188
 31
0.0
  0
LINE
  5
7C
100
AcDbEntity
  8
Contornos Visibles
 62
256
370
-1
 48
1.0
  6
BYLAYER
100
AcDbLine
 10
1403.6118304081605856
 20
596.9318277654448366
 30
0.0
 11
1394.2204799050803103
 21
571.1293043200473676
 31
0.0
  0
LINE
  5
7D
100
AcDbEntity
  8
Contornos Visibles
 62
256
370
-1
 48
1.0
  6
BYLAYER
100
AcDbLine
 10
1396.2577814023138671
 20
527.2507774561840961
 30
0.0
 11
1378.6078158683960737
 21
548.2851872903943331
 31
0.0
  0
ARC
  5
7E
100
AcDbEntity
  8
Contornos Visibles
 62
256
370
-1
 48
1.0
  6
BYLAYER
100
AcDbCircle
 10
1340.0060018014364687
 20
566.0965572633242573
 30
0.0
 40
2.3999999999999999
100
AcDbArc
 50
99.9999999999985079
 51
192.9491456668145872
  0
ARC
  5
7F
100
AcDbEntity
  8
Contornos Visibles
 62
256
370
-1
 48
1.0
  6
BYLAYER
100
AcDbCircle
 10
1401.3565681182744811
 20
597.7526761094266021
 30
0.0
 40
2.3999999999999999
100
AcDbArc
 50
339.9999999999985221
 51
72.949145666814573
  0
ARC
  5
80
100
AcDbEntity
  8
Contornos Visibles
 62
256
370
-1
 48
1.0
  6
BYLAYER
100
AcDbCircle
 10
1398.0962880657993992
 20
528.7934677194318738
 30
0.0
 40
2.3999999999999999
100
AcDbArc
 50
219.9999999999985505
 51
312.949145666814502
  0
ARC
  5
81
100
AcDbEntity
  8
Contornos Visibles
 62
256
370
-1
 48
1.0
  6
BYLAYER
100
AcDbCircle
 10
1340.0060018014364687
 20
562.3319101314641557
 30
0.0
 40
2.3999999999999999
100
AcDbArc
 50
167.0508543331854128
 51
260.0000000000014779
  0
ARC
  5
82
100
AcDbEntity
  8
Contornos Visibles
 62
256
370
-1
 48
1.0
  6
BYLAYER
100
AcDbCircle
 10
1398.0962880657993992
 20
599.6349996753565392
 30
0.0
 40
2.3999999999999999
100
AcDbArc
 50
47.0508543331853843
 51
140.0000000000014495
  0
ARC
  5
83
100
AcDbEntity
  8
Contornos Visibles
 62
256
370
-1
 48
1.0
  6
BYLAYER
100
AcDbCircle
 10
1401.3565681182742537
 20
530.6757912853618109
 30
0.0
 40
2.3999999999999999
100
AcDbArc
 50
287.0508543331854412
 51
20.0000000000014033
  0
ARC
  5
84
100
AcDbEntity
  8
Contornos Visibles
 62
256
370
-1
 48
1.0
  6
BYLAYER
100
AcDbCircle
 10
1367.0473178384345374
 20
557.56379652027681
 30
0.0
 40
2.3999999999999999
100
AcDbArc
 50
260.0000000000010232
 51
27.5056393395544028
  0
ARC
  5
85
100
AcDbEntity
  8
Contornos Visibles
 62
256
370
-1
 48
1.0
  6
BYLAYER
100
AcDbCircle
 10
1380.4463225318818331
 20
578.6005898411464159
 30
0.0
 40
2.3999999999999999
100
AcDbArc
 50
140.0000000000010516
 51
267.5056393395543637
  0
ARC
  5
86
100
AcDbEntity
  8
Contornos Visibles
 62
256
370
-1
 48
1.0
  6
BYLAYER
100
AcDbCircle
 10
1391.9652176151939784
 20
556.4783147307593936
 30
0.0
 40
2.3999999999999999
100
AcDbArc
 50
20.0000000000009948
 51
147.5056393395544205
  0
ARC
  5
87
100
AcDbEntity
  8
Contornos Visibles
 62
256
370
-1
 48
1.0
  6
BYLAYER
100
AcDbCircle
 10
1367.0473178384345374
 20
570.864670874511603
 30
0.0
 40
2.3999999999999999
100
AcDbArc
 50
332.4943606604455795
 51
99.999999999998991
  0
ARC
  5
88
100
AcDbEntity
  8
Contornos Visibles
 62
256
370
-1
 48
1.0
  6
BYLAYER
100
AcDbCircle
 10
1391.9652176151939784
 20
571.9501526640290194
 30
0.0
 40
2.3999999999999999
100
AcDbArc
 50
212.4943606604455795
 51
339.9999999999989768
  0
ARC
  5
89
100
AcDbEntity
  8
Contornos Visibles
 62
256
370
-1
 48
1.0
  6
BYLAYER
100
AcDbCircle
 10
1380.4463225318818331
 20
549.8278775536419971
 30
0.0
 40
2.3999999999999999
100
AcDbArc
 50
92.4943606604455226
 51
219.9999999999989484
  0
ARC
  5
8A
100
AcDbEntity
  8
Contornos Visibles
 62
256
370
-1
 48
1.0
  6
BYLAYER
100
AcDbCircle
 10
1362.7037623664648436
 20
534.5686998240626053
 30
0.0
 40
18.0
100
AcDbArc
 50
39.9999999999999147
 51
79.9999999999999716
  0
ARC
  5
8B
100
AcDbEntity
  8
Contornos Visibles
 62
256
370
-1
 48
1.0
  6
BYLAYER
100
AcDbCircle
 10
1414.0513332525799797
 20
564.2142336973943202
 30
0.0
 40
18.0
100
AcDbArc
 50
159.9999999999998579
 51
199.9999999999998863
  0
ARC
  5
8C
100
AcDbEntity
  8
Contornos Visibles
 62
256
370
-1
 48
1.0
  6
BYLAYER
100
AcDbCircle
 10
1362.7037623664655257
 20
593.859767570726035
 30
0.0
 40
18.0
100
AcDbArc
 50
280.0
 51
319.9999999999998863
  0
CIRCLE
  5
8D
100
AcDbEntity
  8
Ejes de revoluci\U+00f3n
 62
256
370
-1
 48
1.0
  6
BYLAYER
100
AcDbCircle
 10
1379.8196193285034497
 20
564.2142336973942065
 30
0.0
 40
48.0
  0
LINE
  5
8E
100
AcDbEntity
  8
Ejes de revoluci\U+00f3n
 62
256
370
-1
 48
1.0
  6
BYLAYER
100
AcDbLine
 10
1325.8196193285034497
 20
564.2142336973942065
 30
0.0
 11
1337.8196193285034497
 21
564.2142336973942065
 31
0.0
  0
LINE
  5
8F
100
AcDbEntity
  8
Ejes de revoluci\U+00f3n
 62
256
370
-1
 48
1.0
  6
BYLAYER
100
AcDbLine
 10
1406.8196193285034497
 20
610.9796055017538947
 30
0.0
 11
1400.8196193285034497
 21
600.5873006563406307
 31
0.0
  0
LINE
  5
90
100
AcDbEntity
  8
Ejes de revoluci\U+00f3n
 62
256
370
-1
 48
1.0
  6
BYLAYER
100
AcDbLine
 10
1406.8196193285034497
 20
517.4488618930345183
 30
0.0
 11
1400.8196193285034497
 21
527.8411667384477823
 31
0.0
  0
LINE
  5
91
100
AcDbEntity
  8
Ejes de revoluci\U+00f3n
 62
256
370
-1
 48
1.0
  6
BYLAYER
100
AcDbLine
 10
1379.8196193285034497
 20
564.2142336973942065
 30
0.0
 11
1396.0513332525799797
 21
564.2142336973943202
 31
0.0
  0
LINE
  5
92
100
AcDbEntity
  8
Ejes de revoluci\U+00f3n
 62
256
370
-1
 48
1.0
  6
BYLAYER
100
AcDbLine
 10
1379.8196193285034497
 20
564.2142336973942065
 30
0.0
 11
1337.8196193285034497
 21
564.2142336973942065
 31
0.0
  0
LINE
  5
93
100
AcDbEntity
  8
Ejes de revoluci\U+00f3n
 62
256
370
-1
 48
1.0
  6
BYLAYER
100
AcDbLine
 10
1400.8196193285034497
 20
600.5873006563406307
 30
0.0
 11
1379.8196193285034497
 21
564.2142336973942065
 31
0.0
  0
LINE
  5
94
100
AcDbEntity
  8
Ejes de revoluci\U+00f3n
 62
256
370
-1
 48
1.0
  6
BYLAYER
100
AcDbLine
 10
1379.8196193285034497
 20
564.2142336973942065
 30
0.0
 11
1400.8196193285034497
 21
527.8411667384477823
 31
0.0
  0
DIMENSION
  5
95
100
AcDbEntity
  8
Cotas
 62
256
370
-1
 48
1.0
  6
BYLAYER
100
AcDbDimension
 10
1400.8196193285034497
 20
527.8411667384477823
 30
0.0
 11
1420.0139596457790958
 21
564.2142336973940928
 31
0.0
 70
2
 71
8
 72
2
 74
0
 75
0
 41
1.0
 42
0.0
  1

  3
Standard
100
AcDb2LineAngularDimension
 13
1400.8196193285034497
 23
600.5873006563406307
 33
0.0
 14
1379.8196193285034497
 24
564.2142336973942065
 34
0.0
 15
1379.8196193285034497
 25
564.2142336973942065
 35
0.0
 16
1421.7415538573795857
 26
560.6955975855771612
 36
0.0
  0
DIMENSION
  5
96
100
AcDbEntity
  8
Cotas
 62
256
370
-1
 48
1.0
  6
BYLAYER
100
AcDbDimension
 10
1373.9655245404146626
 20
557.3783303765396795
 30
0.0
 11
1378.3954728033254469
 21
565.4338367782460182
 31
0.0
 70
3
 71
8
 72
2
 74
0
 75
0
 41
1.0
 42
0.0
  1
\U+00f8<>
  3
Standard
100
AcDbDiametricDimension
 15
1385.6737141165922367
 25
571.0501370182487335
 35
0.0
 40
0.0
1001
ACAD
1000
DSTYLE
1002
{
1070
144
1040
1.0
1070
40
1040
1.0
1002
}
  0
DIMENSION
  5
97
100
AcDbEntity
  8
Cotas
 62
256
370
-1
 48
1.0
  6
BYLAYER
100
AcDbDimension
 10
1379.8196193285034497
 20
564.2142336973942065
 30
0.0
 11
1374.3689436131771799
 21
567.3456485926694768
 31
0.0
 70
4
 71
8
 72
2
 74
0
 41
1.0
 42
0.0
  1
R<>
  3
Standard
100
AcDbRadialDimension
 15
1368.1051269815600335
 25
566.8162846295248301
 35
0.0
 40
0.0
1001
ACAD
1000
DSTYLE
1002
{
1070
144
1040
1.0
1070
40
1040
1.0
1002
}
  0
DIMENSION
  5
98
100
AcDbEntity
  8
Cotas
 62
256
370
-1
 48
1.0
  6
BYLAYER
100
AcDbDimension
 10
1397.1368660784335134
 20
558.0578711175322724
 30
0.0
 11
1386.2360894722637568
 21
553.1005814031511818
 31
0.0
 70
2
 71
8
 72
2
 74
0
 75
0
 41
1.0
 42
0.0
  1

  3
Standard
100
AcDb2LineAngularDimension
 13
1376.4925623426065613
 23
546.1388767984203696
 33
0.0
 14
1398.4461255712760703
 24
519.9756389504093477
 34
0.0
 15
1408.8181130857306016
 25
525.9639087339112393
 35
0.0
 16
1390.8217479340660248
 26
553.4350485117181506
 36
0.0
  0
DIMENSION
  5
99
100
AcDbEntity
  8
Cotas
 62
256
370
-1
 48
1.0
  6
BYLAYER
100
AcDbDimension
 10
1367.0473178384345374
 20
557.56379652027681
 30
0.0
 11
1364.8875391046994991
 21
548.2810370815852821
 31
0.0
 70
4
 71
8
 72
2
 74
0
 41
1.0
 42
0.0
  1
R<>
  3
Standard
100
AcDbRadialDimension
 15
1366.9739510300369147
 25
555.1649181758363056
 35
0.0
 40
0.0
1001
ACAD
1000
DSTYLE
1002
{
1070
144
1040
1.0
1070
40
1040
1.0
1002
}
  0
DIMENSION
  5
9A
100
AcDbEntity
  8
Cotas
 62
256
370
-1
 48
1.0
  6
BYLAYER
100
AcDbDimension
 10
1340.0060018014364687
 20
562.3319101314641557
 30
0.0
 11
1337.7873426452676995
 21
553.0630472818985481
 31
0.0
 70
4
 71
8
 72
2
 74
0
 41
1.0
 42
0.0
  1
R<>
  3
Standard
100
AcDbRadialDimension
 15
1339.9174091723850779
 25
559.9335458250924376
 35
0.0
 40
0.0
1001
ACAD
1000
DSTYLE
1002
{
1070
144
1040
1.0
1070
40
1040
1.0
1002
}
  0
DIMENSION
  5
9B
100
AcDbEntity
  8
Cotas
 62
256
370
-1
 48
1.0
  6
BYLAYER
100
AcDbDimension
 10
1331.8196193285034497
 20
564.2142336973942065
 30
0.0
 11
1322.2913250745623372
 21
557.6516494969367841
 31
0.0
 70
4
 71
8
 72
2
 74
0
 41
1.0
 42
0.0
  1
R<>
  3
Standard
100
AcDbRadialDimension
 15
1327.4951250617036749
 25
560.0550571759640661
 35
0.0
 40
0.0
1001
ACAD
1000
DSTYLE
1002
{
1070
144
1040
1.0
1070
40
1040
1.0
1002
}
  0
DIMENSION
  5
9C
100
AcDbEntity
  8
Cotas
 62
256
370
-1
 48
1.0
  6
BYLAYER
100
AcDbDimension
 10
1331.8196193285034497
 20
564.2142336973942065
 30
0.0
 11
1324.3609256891559198
 21
568.541333415696613
 31
0.0
 70
4
 71
8
 72
2
 74
0
 41
1.0
 42
0.0
  1
R<>
  3
Standard
100
AcDbRadialDimension
 15
1328.9594301254408037
 25
565.1193954081860511
 35
0.0
 40
0.0
1001
ACAD
1000
DSTYLE
1002
{
1070
144
1040
1.0
1070
40
1040
1.0
1002
}
  0
LEADER
  5
9D
100
AcDbEntity
  8
Cotas
 62
256
370
-1
 48
1.0
  6
BYLAYER
100
AcDbLeader
  3
Standard
 71
1
 72
0
 73
3
 74
0
 75
0
 40
1.0
 41
10.0
 76
4
 10
1335.5136499211685077
 20
582.9518054823321336
 10
1351.7526424292732372
 20
581.0413357754962362
 10
1348.1227499862850436
 20
577.9845842445589597
 10
1353.2810181947418187
 20
577.9845842445589597
1001
ACAD
1000
DSTYLE
1002
{
1070
40
1040
1.0
1002
}
  0
MTEXT
  5
9E
100
AcDbEntity
  8
Cotas
 62
256
370
-1
 48
1.0
  6
BYLAYER
100
AcDbMText
 10
1343.8241931459042462
 20
584.8622751891679172
 30
0.0
 40
2.5
 41
0.0
 71
1
 72
1
  1
R 48
  7
textstyle0
 50
0.0
 73
2
 44
1.0
  0
DIMENSION
  5
9F
100
AcDbEntity
  8
Cotas
 62
256
370
-1
 48
1.0
  6
BYLAYER
100
AcDbDimension
 10
1362.7037623664655257
 20
593.859767570726035
 30
0.0
 11
1368.8275599985613553
 21
587.0030389366660302
 31
0.0
 70
4
 71
8
 72
2
 74
0
 41
1.0
 42
0.0
  1
R<>
  3
Standard
100
AcDbRadialDimension
 15
1371.7037623664655257
 25
578.271310302606139
 35
0.0
 40
0.0
1001
ACAD
1000
DSTYLE
1002
{
1070
144
1040
1.0
1070
40
1040
1.0
1002
}
  0
DIMENSION
  5
A0
100
AcDbEntity
  8
Cotas
 62
256
370
-1
 48
1.0
  6
BYLAYER
100
AcDbDimension
 10
1379.4648969219324499
 20
585.831881009671406
 30
0.0
 11
1381.8191903547731272
 21
586.3040329259896453
 31
0.0
 70
1
 71
8
 72
2
 74
0
 75
0
 41
1.0
 42
0.0
  1

  3
Standard
100
AcDbAlignedDimension
 13
1376.492562342607016
 23
582.2895905963683845
 33
0.0
 14
1378.7906956719639311
 24
580.3612277673087192
 34
0.0
1001
ACAD
1000
DSTYLE
1002
{
1070
144
1040
1.0
1070
40
1040
1.0
1002
}
  0
DIMENSION
  5
A1
100
AcDbEntity
  8
Cotas
 62
256
370
-1
 48
1.0
  6
BYLAYER
100
AcDbDimension
 10
1399.3690192493240829
 20
585.2747999115315451
 30
0.0
 11
1401.4198459492386064
 21
586.5236933605166314
 31
0.0
 70
1
 71
8
 72
2
 74
0
 75
0
 41
1.0
 42
0.0
  1

  3
Standard
100
AcDbAlignedDimension
 13
1398.9161551566203343
 23
584.0305660427461589
 33
0.0
 14
1401.7352330189783061
 24
583.0045056127690941
 34
0.0
1001
ACAD
1000
DSTYLE
1002
{
1070
144
1040
1.0
1070
40
1040
1.0
1002
}
  0
ENDSEC
  0
SECTION
  2
OBJECTS
  0
DICTIONARY
  5
C
100
AcDbDictionary
280
0
281
1
  3
ACAD_GROUP
350
D
  3
ACAD_LAYOUT
350
1A
  3
ACAD_MLINESTYLE
350
17
  3
ACAD_PLOTSETTINGS
350
19
  3
ACAD_PLOTSTYLENAME
350
E
  3
AcDbVariableDictionary
350
A2
  3
QCAD_OBJECTS
350
A3
  0
DICTIONARY
  5
D
100
AcDbDictionary
280
0
281
1
  0
ACDBDICTIONARYWDFLT
  5
E
100
AcDbDictionary
281
1
  3
Normal
350
F
100
AcDbDictionaryWithDefault
340
F
  0
ACDBPLACEHOLDER
  5
F
  0
DICTIONARY
  5
17
100
AcDbDictionary
280
0
281
1
  3
Standard
350
18
  0
MLINESTYLE
  5
18
100
AcDbMlineStyle
  2
STANDARD
 70
0
  3

 62
256
 51
90.0
 52
90.0
 71
2
 49
0.5
 62
256
  6
BYLAYER
 49
-0.5
 62
256
  6
BYLAYER
  0
DICTIONARY
  5
19
100
AcDbDictionary
280
0
281
1
  0
DICTIONARY
  5
1A
100
AcDbDictionary
281
1
  3
Layout1
350
1E
  3
Layout2
350
26
  3
Model
350
22
  0
LAYOUT
  5
1E
100
AcDbPlotSettings
  1

  2
none_device
  4

  6

 40
0.0
 41
0.0
 42
0.0
 43
0.0
 44
0.0
 45
0.0
 46
0.0
 47
0.0
 48
0.0
 49
0.0
140
0.0
141
0.0
142
1.0
143
1.0
 70
688
 72
0
 73
0
 74
5
  7

 75
16
147
1.0
148
0.0
149
0.0
100
AcDbLayout
  1
Layout1
 70
1
 71
1
 10
0.0
 20
0.0
 11
420.0
 21
297.0
 12
0.0
 22
0.0
 32
0.0
 14
100000000000000000000.0
 24
100000000000000000000.0
 34
100000000000000000000.0
 15
-100000000000000000000.0
 25
-100000000000000000000.0
 35
-100000000000000000000.0
146
0.0
 13
0.0
 23
0.0
 33
0.0
 16
1.0
 26
0.0
 36
0.0
 17
0.0
 27
1.0
 37
0.0
 76
0
330
1B
  0
LAYOUT
  5
22
100
AcDbPlotSettings
  1

  2
none_device
  4

  6

 40
0.0
 41
0.0
 42
0.0
 43
0.0
 44
0.0
 45
0.0
 46
0.0
 47
0.0
 48
0.0
 49
0.0
140
0.0
141
0.0
142
1.0
143
1.0
 70
1712
 72
0
 73
0
 74
0
  7

 75
0
147
1.0
148
0.0
149
0.0
100
AcDbLayout
  1
Model
 70
1
 71
0
 10
0.0
 20
0.0
 11
12.0
 21
9.0
 12
0.0
 22
0.0
 32
0.0
 14
0.0
 24
0.0
 34
0.0
 15
0.0
 25
0.0
 35
0.0
146
0.0
 13
0.0
 23
0.0
 33
0.0
 16
1.0
 26
0.0
 36
0.0
 17
0.0
 27
1.0
 37
0.0
 76
0
330
1F
  0
LAYOUT
  5
26
100
AcDbPlotSettings
  1

  2
none_device
  4

  6

 40
0.0
 41
0.0
 42
0.0
 43
0.0
 44
0.0
 45
0.0
 46
0.0
 47
0.0
 48
0.0
 49
0.0
140
0.0
141
0.0
142
1.0
143
1.0
 70
688
 72
0
 73
0
 74
5
  7

 75
16
147
1.0
148
0.0
149
0.0
100
AcDbLayout
  1
Layout2
 70
1
 71
2
 10
0.0
 20
0.0
 11
12.0
 21
9.0
 12
0.0
 22
0.0
 32
0.0
 14
0.0
 24
0.0
 34
0.0
 15
0.0
 25
0.0
 35
0.0
146
0.0
 13
0.0
 23
0.0
 33
0.0
 16
1.0
 26
0.0
 36
0.0
 17
0.0
 27
1.0
 37
0.0
 76
0
330
23
  0
DICTIONARY
  5
A2
100
AcDbDictionary
281
1
  3
DIMASSOC
350
A5
  3
HIDETEXT
350
A4
  0
DICTIONARYVAR
  5
A4
100
DictionaryVariables
280
0
  1
2
  0
DICTIONARYVAR
  5
A5
100
DictionaryVariables
280
0
  1
1
  0
DICTIONARY
  5
A3
100
AcDbDictionary
281
1
  3
ColorSettings/BackgroundColor
350
A6
  3
ColorSettings/ColorMode
350
A7
  3
Grid/DisplayGrid00
350
A8
  3
Grid/DisplayGrid01
350
A9
  3
Grid/DisplayGrid02
350
AA
  3
Grid/DisplayGrid03
350
AB
  3
Grid/GridSpacingX00
350
AC
  3
Grid/GridSpacingX01
350
AD
  3
Grid/GridSpacingX02
350
AE
  3
Grid/GridSpacingX03
350
AF
  3
Grid/GridSpacingY00
350
B0
  3
Grid/GridSpacingY01
350
B1
  3
Grid/GridSpacingY02
350
B2
  3
Grid/GridSpacingY03
350
B3
  3
Grid/IsometricGrid00
350
B4
  3
Grid/IsometricGrid01
350
B5
  3
Grid/IsometricGrid02
350
B6
  3
Grid/IsometricGrid03
350
B7
  3
Grid/IsometricProjection00
350
B8
  3
Grid/IsometricProjection01
350
B9
  3
Grid/IsometricProjection02
350
BA
  3
Grid/IsometricProjection03
350
BB
  3
Grid/MetaGridSpacingX00
350
BC
  3
Grid/MetaGridSpacingX01
350
BD
  3
Grid/MetaGridSpacingX02
350
BE
  3
Grid/MetaGridSpacingX03
350
BF
  3
Grid/MetaGridSpacingY00
350
C0
  3
Grid/MetaGridSpacingY01
350
C1
  3
Grid/MetaGridSpacingY02
350
C2
  3
Grid/MetaGridSpacingY03
350
C3
  3
MultiPageSettings/Columns
350
C4
  3
MultiPageSettings/GlueMarginsBottom
350
C5
  3
MultiPageSettings/GlueMarginsLeft
350
C6
  3
MultiPageSettings/GlueMarginsRight
350
C7
  3
MultiPageSettings/GlueMarginsTop
350
C8
  3
MultiPageSettings/PrintCropMarks
350
C9
  3
MultiPageSettings/Rows
350
CA
  3
PageSettings/OffsetX
350
CB
  3
PageSettings/OffsetY
350
CC
  3
PageSettings/PageOrientation
350
CD
  3
PageSettings/PaperHeight
350
CE
  3
PageSettings/PaperWidth
350
CF
  3
PageSettings/Scale
350
D0
  3
PageSettings/ShowPaperBorders
350
D1
  3
PageTagSettings/EnablePageTags
350
D2
  3
PageTagSettings/TagAlignment
350
D3
  3
PageTagSettings/TagFont
350
D4
  3
PageTagSettings/TagPosition
350
D5
  3
QCADVersion
350
D6
  3
UnitSettings/PaperUnit
350
D7
  3
ViewportCenter
350
D8
  3
ViewportHeight
350
D9
  3
ViewportWidth
350
DA
  0
XRECORD
  5
A6
330
A3
100
AcDbXrecord
280
1
1000
Blanca
  0
XRECORD
  5
A7
330
A3
100
AcDbXrecord
280
1
1000
FullColor
  0
XRECORD
  5
A8
330
A3
100
AcDbXrecord
280
1
290
0
  0
XRECORD
  5
A9
330
A3
100
AcDbXrecord
280
1
290
1
  0
XRECORD
  5
AA
330
A3
100
AcDbXrecord
280
1
290
1
  0
XRECORD
  5
AB
330
A3
100
AcDbXrecord
280
1
290
1
  0
XRECORD
  5
AC
330
A3
100
AcDbXrecord
280
1
1000
auto
  0
XRECORD
  5
AD
330
A3
100
AcDbXrecord
280
1
1000
auto
  0
XRECORD
  5
AE
330
A3
100
AcDbXrecord
280
1
1000
auto
  0
XRECORD
  5
AF
330
A3
100
AcDbXrecord
280
1
1000
auto
  0
XRECORD
  5
B0
330
A3
100
AcDbXrecord
280
1
1000
auto
  0
XRECORD
  5
B1
330
A3
100
AcDbXrecord
280
1
1000
auto
  0
XRECORD
  5
B2
330
A3
100
AcDbXrecord
280
1
1000
auto
  0
XRECORD
  5
B3
330
A3
100
AcDbXrecord
280
1
1000
auto
  0
XRECORD
  5
B4
330
A3
100
AcDbXrecord
280
1
290
0
  0
XRECORD
  5
B5
330
A3
100
AcDbXrecord
280
1
290
0
  0
XRECORD
  5
B6
330
A3
100
AcDbXrecord
280
1
290
0
  0
XRECORD
  5
B7
330
A3
100
AcDbXrecord
280
1
290
0
  0
XRECORD
  5
B8
330
A3
100
AcDbXrecord
280
1
 90
65537
  0
XRECORD
  5
B9
330
A3
100
AcDbXrecord
280
1
 90
65537
  0
XRECORD
  5
BA
330
A3
100
AcDbXrecord
280
1
 90
65537
  0
XRECORD
  5
BB
330
A3
100
AcDbXrecord
280
1
 90
65537
  0
XRECORD
  5
BC
330
A3
100
AcDbXrecord
280
1
1000
auto
  0
XRECORD
  5
BD
330
A3
100
AcDbXrecord
280
1
1000
auto
  0
XRECORD
  5
BE
330
A3
100
AcDbXrecord
280
1
1000
auto
  0
XRECORD
  5
BF
330
A3
100
AcDbXrecord
280
1
1000
auto
  0
XRECORD
  5
C0
330
A3
100
AcDbXrecord
280
1
1000
1
  0
XRECORD
  5
C1
330
A3
100
AcDbXrecord
280
1
1000
auto
  0
XRECORD
  5
C2
330
A3
100
AcDbXrecord
280
1
1000
auto
  0
XRECORD
  5
C3
330
A3
100
AcDbXrecord
280
1
1000
auto
  0
XRECORD
  5
C4
330
A3
100
AcDbXrecord
280
1
 90
1
  0
XRECORD
  5
C5
330
A3
100
AcDbXrecord
280
1
 40
10.0
  0
XRECORD
  5
C6
330
A3
100
AcDbXrecord
280
1
 40
10.0
  0
XRECORD
  5
C7
330
A3
100
AcDbXrecord
280
1
 40
10.0
  0
XRECORD
  5
C8
330
A3
100
AcDbXrecord
280
1
 40
10.0
  0
XRECORD
  5
C9
330
A3
100
AcDbXrecord
280
1
290
0
  0
XRECORD
  5
CA
330
A3
100
AcDbXrecord
280
1
 90
1
  0
XRECORD
  5
CB
330
A3
100
AcDbXrecord
280
1
 40
793.1665914866936191
  0
XRECORD
  5
CC
330
A3
100
AcDbXrecord
280
1
 40
306.6308471493692309
  0
XRECORD
  5
CD
330
A3
100
AcDbXrecord
280
1
1000
Portrait
  0
XRECORD
  5
CE
330
A3
100
AcDbXrecord
280
1
 40
279.3999999999999773
  0
XRECORD
  5
CF
330
A3
100
AcDbXrecord
280
1
 40
215.9000000000000057
  0
XRECORD
  5
D0
330
A3
100
AcDbXrecord
280
1
 90
1
  0
XRECORD
  5
D1
330
A3
100
AcDbXrecord
280
1
290
1
  0
XRECORD
  5
D2
330
A3
100
AcDbXrecord
280
1
290
0
  0
XRECORD
  5
D3
330
A3
100
AcDbXrecord
280
1
1000
Inside
  0
XRECORD
  5
D4
330
A3
100
AcDbXrecord
280
1
1000
Arial,10,-1,5,50,0,0,0,0,0
  0
XRECORD
  5
D5
330
A3
100
AcDbXrecord
280
1
1000
TopLeft
  0
XRECORD
  5
D6
330
A3
100
AcDbXrecord
280
1
1000
3.28.1
  0
XRECORD
  5
D7
330
A3
100
AcDbXrecord
280
1
 90
4
  0
XRECORD
  5
D9
330
A3
100
AcDbXrecord
280
1
 40
257.7763460754557059
  0
XRECORD
  5
DA
330
A3
100
AcDbXrecord
280
1
 40
473.1649947082933068
  0
IMAGEDEF
  5
61
100
AcDbRasterImageDef
 90
0
  1
C:/Users/iamth/Documents/QCad/StudyCadCam/2D CAD EXERCISES 15.png
 10
200.0
 20
141.0
 11
1.0
 21
1.0
280
1
281
0
  0
ENDSEC
  0
EOF
