999
dxflib 3.26.4.0
  0
SECTION
  2
HEADER
  9
$ACADVER
  1
AC1015
  9
$HANDSEED
  5
FFFF
  9
$DIMADEC
 70
0
  9
$DIMASZ
 40
2.5
  9
$DIMATFIT
 70
0
  9
$DIMAUNIT
 70
0
  9
$DIMAZIN
 70
2
  9
$DIMBLK
  1
0
  9
$DIMBLK1
  1
0
  9
$DIMBLK2
  1
0
  9
$DIMDEC
 70
4
  9
$DIMDLI
 40
5.0
  9
$DIMDSEP
 70
46
  9
$DIMEXE
 40
1.25
  9
$DIMEXO
 40
0.625
  9
$DIMGAP
 40
0.625
  9
$DIMLFAC
 40
1.0
  9
$DIMLUNIT
 70
2
  9
$DIMSCALE
 40
1.0
  9
$DIMTAD
 70
1
  9
$DIMTIH
 70
0
  9
$DIMTSZ
 40
0.0
  9
$DIMTXT
 40
2.5
  9
$DIMZIN
 70
8
  9
$DWGCODEPAGE
  3
ANSI_1252
  9
$INSUNITS
 70
4
  9
$LTSCALE
 40
1.0
  9
$MAXACTVP
 70
64
  9
$MEASUREMENT
 70
1
  9
$MIRRTEXT
 70
0
  9
$PDMODE
 70
0
  9
$PDSIZE
 40
0.0
  0
ENDSEC
  0
SECTION
  2
TABLES
  0
TABLE
  2
VPORT
  5
8
100
AcDbSymbolTable
 70
1
  0
VPORT
  5
30
100
AcDbSymbolTableRecord
100
AcDbViewportTableRecord
  2
*Active
 70
0
 10
0.0
 20
0.0
 11
1.0
 21
1.0
 12
286.3055555555554861
 22
148.5
 13
0.0
 23
0.0
 14
10.0
 24
10.0
 15
10.0
 25
10.0
 16
0.0
 26
0.0
 36
1.0
 17
0.0
 27
0.0
 37
0.0
 40
297.0
 41
1.92798353909465
 42
50.0
 43
0.0
 44
0.0
 50
0.0
 51
0.0
 71
0
 72
100
 73
1
 74
3
 75
1
 76
1
 77
0
 78
0
281
0
 65
1
110
0.0
120
0.0
130
0.0
111
1.0
121
0.0
131
0.0
112
0.0
122
1.0
132
0.0
 79
0
146
0.0
  0
ENDTAB
  0
TABLE
  2
LTYPE
  5
5
100
AcDbSymbolTable
 70
41
  0
LTYPE
  5
16
100
AcDbSymbolTableRecord
100
AcDbLinetypeTableRecord
  2
Continuous
 70
0
  3
Solid line
 72
65
 73
0
 40
0.0
  0
LTYPE
  5
31
100
AcDbSymbolTableRecord
100
AcDbLinetypeTableRecord
  2
ACAD_ISO15W100
 70
0
  3
ISO double-dash triple-dot __ __ . . . __ __ . .
 72
65
 73
10
 40
39.0000000000000071
 49
12.0
 74
0
 49
-3.0
 74
0
 49
12.0
 74
0
 49
-2.9500000000000002
 74
0
 49
0.1
 74
0
 49
-2.9000000000000004
 74
0
 49
0.1
 74
0
 49
-2.9000000000000004
 74
0
 49
0.1
 74
0
 49
-2.9500000000000002
 74
0
  0
LTYPE
  5
32
100
AcDbSymbolTableRecord
100
AcDbLinetypeTableRecord
  2
ACAD_ISO04W100
 70
0
  3
ISO long-dash dot ____ . ____ . ____ . ____ . _
 72
65
 73
4
 40
30.0
 49
24.0
 74
0
 49
-2.9500000000000002
 74
0
 49
0.1
 74
0
 49
-2.9500000000000002
 74
0
  0
LTYPE
  5
33
100
AcDbSymbolTableRecord
100
AcDbLinetypeTableRecord
  2
DIVIDE
 70
0
  3
Divide ____ . . ____ . . ____ . . ____ . . ____
 72
65
 73
6
 40
31.7500000000000036
 49
12.6999999999999993
 74
0
 49
-6.2999999999999998
 74
0
 49
0.1
 74
0
 49
-6.25
 74
0
 49
0.1
 74
0
 49
-6.2999999999999998
 74
0
  0
LTYPE
  5
34
100
AcDbSymbolTableRecord
100
AcDbLinetypeTableRecord
  2
DOT
 70
0
  3
Dot . . . . . . . . . . . . . . . . . . . . . . . .
 72
65
 73
2
 40
6.3499999999999996
 49
0.1
 74
0
 49
-6.25
 74
0
  0
LTYPE
  5
35
100
AcDbSymbolTableRecord
100
AcDbLinetypeTableRecord
  2
BORDER
 70
0
  3
Border __ __ . __ __ . __ __ . __ __ . __ __ .
 72
65
 73
6
 40
44.4499999999999957
 49
12.6999999999999993
 74
0
 49
-6.3499999999999996
 74
0
 49
12.6999999999999993
 74
0
 49
-6.2999999999999998
 74
0
 49
0.1
 74
0
 49
-6.2999999999999998
 74
0
  0
LTYPE
  5
36
100
AcDbSymbolTableRecord
100
AcDbLinetypeTableRecord
  2
ACAD_ISO10W100
 70
0
  3
ISO dash dot __ . __ . __ . __ . __ . __ . __ . 
 72
65
 73
4
 40
18.0
 49
12.0
 74
0
 49
-2.9500000000000002
 74
0
 49
0.1
 74
0
 49
-2.9500000000000002
 74
0
  0
LTYPE
  5
37
100
AcDbSymbolTableRecord
100
AcDbLinetypeTableRecord
  2
ACAD_ISO03W100
 70
0
  3
ISO dash space __    __    __    __    __    __
 72
65
 73
2
 40
30.0
 49
12.0
 74
0
 49
-18.0
 74
0
  0
LTYPE
  5
38
100
AcDbSymbolTableRecord
100
AcDbLinetypeTableRecord
  2
BORDER2
 70
0
  3
Border (.5x) __.__.__.__.__.__.__.__.__.__.__.
 72
65
 73
6
 40
22.2250000000000014
 49
6.3499999999999996
 74
0
 49
-3.1749999999999998
 74
0
 49
6.3499999999999996
 74
0
 49
-3.125
 74
0
 49
0.1
 74
0
 49
-3.125
 74
0
  0
LTYPE
  5
39
100
AcDbSymbolTableRecord
100
AcDbLinetypeTableRecord
  2
ACAD_ISO05W100
 70
0
  3
ISO long-dash double-dot ____ .. ____ .. ____ . 
 72
65
 73
6
 40
33.0000000000000071
 49
24.0
 74
0
 49
-2.9500000000000002
 74
0
 49
0.1
 74
0
 49
-2.9000000000000004
 74
0
 49
0.1
 74
0
 49
-2.9500000000000002
 74
0
  0
LTYPE
  5
3A
100
AcDbSymbolTableRecord
100
AcDbLinetypeTableRecord
  2
HIDDENX2
 70
0
  3
Hidden (2x) ____ ____ ____ ____ ____ ____ ____ 
 72
65
 73
2
 40
19.0499999999999972
 49
12.6999999999999993
 74
0
 49
-6.3499999999999996
 74
0
  0
LTYPE
  5
3B
100
AcDbSymbolTableRecord
100
AcDbLinetypeTableRecord
  2
ACAD_ISO13W100
 70
0
  3
ISO double-dash double-dot __ __ . . __ __ . . _
 72
65
 73
8
 40
36.0000000000000071
 49
12.0
 74
0
 49
-3.0
 74
0
 49
12.0
 74
0
 49
-2.9500000000000002
 74
0
 49
0.1
 74
0
 49
-2.9000000000000004
 74
0
 49
0.1
 74
0
 49
-2.9500000000000002
 74
0
  0
LTYPE
  5
15
100
AcDbSymbolTableRecord
100
AcDbLinetypeTableRecord
  2
BYLAYER
 70
0
  3

 72
65
 73
0
 40
0.0
  0
LTYPE
  5
3C
100
AcDbSymbolTableRecord
100
AcDbLinetypeTableRecord
  2
ACAD_ISO14W100
 70
0
  3
ISO dash triple-dot __ . . . __ . . . __ . . . _
 72
65
 73
8
 40
24.0000000000000036
 49
12.0
 74
0
 49
-2.9500000000000002
 74
0
 49
0.1
 74
0
 49
-2.9000000000000004
 74
0
 49
0.1
 74
0
 49
-2.9000000000000004
 74
0
 49
0.1
 74
0
 49
-2.9500000000000002
 74
0
  0
LTYPE
  5
3D
100
AcDbSymbolTableRecord
100
AcDbLinetypeTableRecord
  2
CENTER
 70
0
  3
Center ____ _ ____ _ ____ _ ____ _ ____ _ ____
 72
65
 73
4
 40
50.8000000000000043
 49
31.75
 74
0
 49
-6.3499999999999996
 74
0
 49
6.3499999999999996
 74
0
 49
-6.3499999999999996
 74
0
  0
LTYPE
  5
3E
100
AcDbSymbolTableRecord
100
AcDbLinetypeTableRecord
  2
ACAD_ISO11W100
 70
0
  3
ISO double-dash dot __ __ . __ __ . __ __ . __ _
 72
65
 73
6
 40
33.0
 49
12.0
 74
0
 49
-3.0
 74
0
 49
12.0
 74
0
 49
-2.9500000000000002
 74
0
 49
0.1
 74
0
 49
-2.9500000000000002
 74
0
  0
LTYPE
  5
3F
100
AcDbSymbolTableRecord
100
AcDbLinetypeTableRecord
  2
PHANTOM
 70
0
  3
Phantom ______  __  __  ______  __  __  ______ 
 72
65
 73
6
 40
63.5000000000000071
 49
31.75
 74
0
 49
-6.3499999999999996
 74
0
 49
6.3499999999999996
 74
0
 49
-6.3499999999999996
 74
0
 49
6.3499999999999996
 74
0
 49
-6.3499999999999996
 74
0
  0
LTYPE
  5
40
100
AcDbSymbolTableRecord
100
AcDbLinetypeTableRecord
  2
DIVIDE2
 70
0
  3
Divide (.5x) __..__..__..__..__..__..__..__.._
 72
65
 73
6
 40
15.8749999999999982
 49
6.3499999999999996
 74
0
 49
-3.125
 74
0
 49
0.1
 74
0
 49
-3.0750000000000002
 74
0
 49
0.1
 74
0
 49
-3.125
 74
0
  0
LTYPE
  5
41
100
AcDbSymbolTableRecord
100
AcDbLinetypeTableRecord
  2
ACAD_ISO09W100
 70
0
  3
ISO long-dash double-short-dash ____ __ __ ____
 72
65
 73
6
 40
45.0
 49
24.0
 74
0
 49
-3.0
 74
0
 49
6.0
 74
0
 49
-3.0
 74
0
 49
6.0
 74
0
 49
-3.0
 74
0
  0
LTYPE
  5
14
100
AcDbSymbolTableRecord
100
AcDbLinetypeTableRecord
  2
BYBLOCK
 70
0
  3

 72
65
 73
0
 40
0.0
  0
LTYPE
  5
42
100
AcDbSymbolTableRecord
100
AcDbLinetypeTableRecord
  2
DASHDOTX2
 70
0
  3
Dash dot (2x) ____  .  ____  .  ____  .  ___
 72
65
 73
4
 40
50.7999999999999972
 49
25.3999999999999986
 74
0
 49
-12.6499999999999986
 74
0
 49
0.1
 74
0
 49
-12.6499999999999986
 74
0
  0
LTYPE
  5
43
100
AcDbSymbolTableRecord
100
AcDbLinetypeTableRecord
  2
PHANTOMX2
 70
0
  3
Phantom (2x) ____________    ____    ____   _
 72
65
 73
6
 40
127.0000000000000142
 49
63.5
 74
0
 49
-12.6999999999999993
 74
0
 49
12.6999999999999993
 74
0
 49
-12.6999999999999993
 74
0
 49
12.6999999999999993
 74
0
 49
-12.6999999999999993
 74
0
  0
LTYPE
  5
44
100
AcDbSymbolTableRecord
100
AcDbLinetypeTableRecord
  2
HIDDEN
 70
0
  3
Hidden __ __ __ __ __ __ __ __ __ __ __ __ __ __
 72
65
 73
2
 40
9.5249999999999986
 49
6.3499999999999996
 74
0
 49
-3.1749999999999998
 74
0
  0
LTYPE
  5
45
100
AcDbSymbolTableRecord
100
AcDbLinetypeTableRecord
  2
DASHED2
 70
0
  3
Dashed (.5x) _ _ _ _ _ _ _ _ _ _ _ _ _ _ _ _ _ 
 72
65
 73
2
 40
9.5249999999999986
 49
6.3499999999999996
 74
0
 49
-3.1749999999999998
 74
0
  0
LTYPE
  5
46
100
AcDbSymbolTableRecord
100
AcDbLinetypeTableRecord
  2
ACAD_ISO12W100
 70
0
  3
ISO dash double-dot __ . . __ . . __ . . __ . . 
 72
65
 73
6
 40
21.0
 49
12.0
 74
0
 49
-2.9500000000000002
 74
0
 49
0.1
 74
0
 49
-2.9000000000000004
 74
0
 49
0.1
 74
0
 49
-2.9500000000000002
 74
0
  0
LTYPE
  5
47
100
AcDbSymbolTableRecord
100
AcDbLinetypeTableRecord
  2
DOT2
 70
0
  3
Dot (.5x) ........................................
 72
65
 73
2
 40
3.1749999999999998
 49
0.1
 74
0
 49
-3.0749999999999997
 74
0
  0
LTYPE
  5
48
100
AcDbSymbolTableRecord
100
AcDbLinetypeTableRecord
  2
DASHDOT2
 70
0
  3
Dash dot (.5x) _._._._._._._._._._._._._._._.
 72
65
 73
4
 40
12.6999999999999993
 49
6.3499999999999996
 74
0
 49
-3.125
 74
0
 49
0.1
 74
0
 49
-3.125
 74
0
  0
LTYPE
  5
49
100
AcDbSymbolTableRecord
100
AcDbLinetypeTableRecord
  2
ACAD_ISO02W100
 70
0
  3
ISO dash __ __ __ __ __ __ __ __ __ __ __ __ __
 72
65
 73
2
 40
15.0
 49
12.0
 74
0
 49
-3.0
 74
0
  0
LTYPE
  5
4A
100
AcDbSymbolTableRecord
100
AcDbLinetypeTableRecord
  2
ACAD_ISO07W100
 70
0
  3
ISO dot . . . . . . . . . . . . . . . . . . . . 
 72
65
 73
2
 40
3.0
 49
0.1
 74
0
 49
-2.8999999999999999
 74
0
  0
LTYPE
  5
4B
100
AcDbSymbolTableRecord
100
AcDbLinetypeTableRecord
  2
DASHEDX2
 70
0
  3
Dashed (2x) ____  ____  ____  ____  ____  ___
 72
65
 73
2
 40
38.0999999999999943
 49
25.3999999999999986
 74
0
 49
-12.6999999999999993
 74
0
  0
LTYPE
  5
4C
100
AcDbSymbolTableRecord
100
AcDbLinetypeTableRecord
  2
CENTER2
 70
0
  3
Center (.5x) ___ _ ___ _ ___ _ ___ _ ___ _ ___
 72
65
 73
4
 40
28.5750000000000028
 49
19.0500000000000007
 74
0
 49
-3.1749999999999998
 74
0
 49
3.1749999999999998
 74
0
 49
-3.1749999999999998
 74
0
  0
LTYPE
  5
4D
100
AcDbSymbolTableRecord
100
AcDbLinetypeTableRecord
  2
DASHDOT
 70
0
  3
Dash dot __ . __ . __ . __ . __ . __ . __ . __
 72
65
 73
4
 40
25.4000000000000021
 49
12.6999999999999993
 74
0
 49
-6.2999999999999998
 74
0
 49
0.1
 74
0
 49
-6.2999999999999998
 74
0
  0
LTYPE
  5
4E
100
AcDbSymbolTableRecord
100
AcDbLinetypeTableRecord
  2
CENTERX2
 70
0
  3
Center (2x) ________  __  ________  __  _____
 72
65
 73
4
 40
101.6000000000000085
 49
63.5
 74
0
 49
-12.6999999999999993
 74
0
 49
12.6999999999999993
 74
0
 49
-12.6999999999999993
 74
0
  0
LTYPE
  5
4F
100
AcDbSymbolTableRecord
100
AcDbLinetypeTableRecord
  2
ACAD_ISO08W100
 70
0
  3
ISO long-dash short-dash ____ __ ____ __ ____ _
 72
65
 73
4
 40
36.0
 49
24.0
 74
0
 49
-3.0
 74
0
 49
6.0
 74
0
 49
-3.0
 74
0
  0
LTYPE
  5
50
100
AcDbSymbolTableRecord
100
AcDbLinetypeTableRecord
  2
PHANTOM2
 70
0
  3
Phantom (.5x) ___ _ _ ___ _ _ ___ _ _ ___ _ _
 72
65
 73
6
 40
31.7500000000000036
 49
15.875
 74
0
 49
-3.1749999999999998
 74
0
 49
3.1749999999999998
 74
0
 49
-3.1749999999999998
 74
0
 49
3.1749999999999998
 74
0
 49
-3.1749999999999998
 74
0
  0
LTYPE
  5
51
100
AcDbSymbolTableRecord
100
AcDbLinetypeTableRecord
  2
BORDERX2
 70
0
  3
Border (2x) ____  ____  .  ____  ____  .  ___
 72
65
 73
6
 40
88.8999999999999773
 49
25.3999999999999986
 74
0
 49
-12.6999999999999993
 74
0
 49
25.3999999999999986
 74
0
 49
-12.6499999999999986
 74
0
 49
0.1
 74
0
 49
-12.6499999999999986
 74
0
  0
LTYPE
  5
52
100
AcDbSymbolTableRecord
100
AcDbLinetypeTableRecord
  2
DOTX2
 70
0
  3
Dot (2x) .  .  .  .  .  .  .  .  .  .  .  .  .  .
 72
65
 73
2
 40
12.6999999999999993
 49
0.1
 74
0
 49
-12.5999999999999996
 74
0
  0
LTYPE
  5
53
100
AcDbSymbolTableRecord
100
AcDbLinetypeTableRecord
  2
ACAD_ISO06W100
 70
0
  3
ISO long-dash triple-dot ____ ... ____ ... ____
 72
65
 73
8
 40
36.0000000000000071
 49
24.0
 74
0
 49
-2.9500000000000002
 74
0
 49
0.1
 74
0
 49
-2.9000000000000004
 74
0
 49
0.1
 74
0
 49
-2.9000000000000004
 74
0
 49
0.1
 74
0
 49
-2.9500000000000002
 74
0
  0
LTYPE
  5
54
100
AcDbSymbolTableRecord
100
AcDbLinetypeTableRecord
  2
HIDDEN2
 70
0
  3
Hidden (.5x) _ _ _ _ _ _ _ _ _ _ _ _ _ _ _ _ _ 
 72
65
 73
2
 40
4.7624999999999993
 49
3.1749999999999998
 74
0
 49
-1.5874999999999999
 74
0
  0
LTYPE
  5
55
100
AcDbSymbolTableRecord
100
AcDbLinetypeTableRecord
  2
DASHED
 70
0
  3
Dashed __ __ __ __ __ __ __ __ __ __ __ __ __ _
 72
65
 73
2
 40
19.0499999999999972
 49
12.6999999999999993
 74
0
 49
-6.3499999999999996
 74
0
  0
LTYPE
  5
56
100
AcDbSymbolTableRecord
100
AcDbLinetypeTableRecord
  2
DIVIDEX2
 70
0
  3
Divide (2x) ________  .  .  ________  .  .  _
 72
65
 73
6
 40
63.5
 49
25.3999999999999986
 74
0
 49
-12.6499999999999986
 74
0
 49
0.1
 74
0
 49
-12.5999999999999979
 74
0
 49
0.1
 74
0
 49
-12.6499999999999986
 74
0
  0
ENDTAB
  0
TABLE
  2
LAYER
  5
2
100
AcDbSymbolTable
 70
7
  0
LAYER
  5
57
100
AcDbSymbolTableRecord
100
AcDbLayerTableRecord
  2
Cotas
 70
0
 62
1
420
16711680
  6
Continuous
370
20
390
F
  0
LAYER
  5
58
100
AcDbSymbolTableRecord
100
AcDbLayerTableRecord
  2
Referencias 2
 70
1
 62
3
420
65280
  6
Continuous
370
25
390
F
  0
LAYER
  5
59
100
AcDbSymbolTableRecord
100
AcDbLayerTableRecord
  2
Ejes de revoluci\U+00f3n
 70
0
 62
6
420
16711935
  6
ACAD_ISO04W100
370
20
390
F
  0
LAYER
  5
5A
100
AcDbSymbolTableRecord
100
AcDbLayerTableRecord
  2
Referencias
 70
1
 62
2
420
16776960
  6
Continuous
370
25
390
F
  0
LAYER
  5
5B
100
AcDbSymbolTableRecord
100
AcDbLayerTableRecord
  2
Contornos Visibles
 70
0
 62
7
420
16777215
  6
Continuous
370
50
390
F
  0
LAYER
  5
10
100
AcDbSymbolTableRecord
100
AcDbLayerTableRecord
  2
0
 70
0
 62
7
420
16777215
  6
Continuous
370
25
390
F
  0
LAYER
  5
5C
100
AcDbSymbolTableRecord
100
AcDbLayerTableRecord
  2
Contornos Ocultos
 70
0
 62
252
420
10526884
  6
ACAD_ISO02W100
370
30
390
F
  0
ENDTAB
  0
TABLE
  2
STYLE
  5
3
100
AcDbSymbolTable
 70
2
  0
STYLE
  5
5D
100
AcDbSymbolTableRecord
100
AcDbTextStyleTableRecord
  2
Standard
 70
0
 40
0.0
 41
1.0
 50
0.0
 71
0
 42
2.5
  3

  4

1001
ACAD
1000
txt
1071
0
  0
STYLE
  5
5E
100
AcDbSymbolTableRecord
100
AcDbTextStyleTableRecord
  2
textstyle0
 70
0
 40
0.0
 41
1.0
 50
0.0
 71
0
 42
2.5
  3

  4

1001
ACAD
1000
Arial
1071
0
  0
ENDTAB
  0
TABLE
  2
VIEW
  5
6
100
AcDbSymbolTable
 70
0
  0
ENDTAB
  0
TABLE
  2
UCS
  5
7
100
AcDbSymbolTable
 70
0
  0
ENDTAB
  0
TABLE
  2
APPID
  5
9
100
AcDbSymbolTable
 70
1
  0
APPID
  5
12
100
AcDbSymbolTableRecord
100
AcDbRegAppTableRecord
  2
ACAD
 70
0
  0
APPID
  5
5F
100
AcDbSymbolTableRecord
100
AcDbRegAppTableRecord
  2
QCAD
 70
0
  0
ENDTAB
  0
TABLE
  2
DIMSTYLE
  5
A
100
AcDbSymbolTable
 70
1
100
AcDbDimStyleTable
 71
0
  0
DIMSTYLE
105
27
100
AcDbSymbolTableRecord
100
AcDbDimStyleTableRecord
  2
Standard
 41
2.5
 42
0.625
 43
3.75
 44
1.25
 70
0
 73
0
 74
0
 77
1
 78
8
140
2.5
141
2.5
143
0.03937007874016
147
0.625
171
3
172
1
271
2
272
2
274
3
278
44
283
0
284
8
340
5D
  0
ENDTAB
  0
TABLE
  2
BLOCK_RECORD
  5
1
100
AcDbSymbolTable
 70
1
  0
BLOCK_RECORD
  5
1F
100
AcDbSymbolTableRecord
100
AcDbBlockTableRecord
  2
*Model_Space
340
22
  0
BLOCK_RECORD
  5
1B
100
AcDbSymbolTableRecord
100
AcDbBlockTableRecord
  2
*Paper_Space
340
1E
  0
BLOCK_RECORD
  5
23
100
AcDbSymbolTableRecord
100
AcDbBlockTableRecord
  2
*Paper_Space0
340
26
  0
ENDTAB
  0
ENDSEC
  0
SECTION
  2
BLOCKS
  0
BLOCK
  5
20
100
AcDbEntity
  8
0
100
AcDbBlockBegin
  2
*Model_Space
 70
0
 10
0.0
 20
0.0
 30
0.0
  3
*Model_Space
  1

  0
ENDBLK
  5
21
100
AcDbEntity
  8
0
100
AcDbBlockEnd
  0
BLOCK
  5
1C
100
AcDbEntity
 67
1
  8
0
100
AcDbBlockBegin
  2
*Paper_Space
 70
0
 10
0.0
 20
0.0
 30
0.0
  3
*Paper_Space
  1

  0
ENDBLK
  5
1D
100
AcDbEntity
 67
1
  8
0
100
AcDbBlockEnd
  0
BLOCK
  5
24
100
AcDbEntity
  8
0
100
AcDbBlockBegin
  2
*Paper_Space0
 70
0
 10
0.0
 20
0.0
 30
0.0
  3
*Paper_Space0
  1

  0
ENDBLK
  5
25
100
AcDbEntity
  8
0
100
AcDbBlockEnd
  0
ENDSEC
  0
SECTION
  2
ENTITIES
  0
IMAGE
  5
60
100
AcDbEntity
  8
0
 62
256
370
-1
 48
1.0
  6
BYLAYER
100
AcDbRasterImage
 90
0
 10
3159.1888923221081313
 20
719.0539821419248483
 30
0.0
 11
0.09765625
 21
0.0
 31
0.0
 12
0.0
 22
0.09765625
 32
0.0
 13
200.0
 23
141.0
340
61
 70
15
280
0
281
50
282
50
283
0
  0
LINE
  5
62
100
AcDbEntity
  8
Contornos Visibles
 62
256
370
-1
 48
1.0
  6
BYLAYER
100
AcDbLine
 10
3548.1151534119881035
 20
834.7128620196668862
 30
0.0
 11
3582.9151534119882854
 21
834.7128620196668862
 31
0.0
  0
LINE
  5
63
100
AcDbEntity
  8
Contornos Visibles
 62
256
370
-1
 48
1.0
  6
BYLAYER
100
AcDbLine
 10
3540.1151534119881035
 20
826.7128620196669999
 30
0.0
 11
3540.1151534119881035
 21
791.912862019666818
 31
0.0
  0
ARC
  5
64
100
AcDbEntity
  8
Contornos Visibles
 62
256
370
-1
 48
1.0
  6
BYLAYER
100
AcDbCircle
 10
3548.1151534119881035
 20
826.7128620196669999
 30
0.0
 40
8.0
100
AcDbArc
 50
90.0
 51
180.0
  0
LINE
  5
65
100
AcDbEntity
  8
Contornos Visibles
 62
256
370
-1
 48
1.0
  6
BYLAYER
100
AcDbLine
 10
3582.9151534119882854
 20
833.1628620196669317
 30
0.0
 11
3582.9151534119882854
 21
834.7128620196668862
 31
0.0
  0
LINE
  5
66
100
AcDbEntity
  8
Contornos Visibles
 62
256
370
-1
 48
1.0
  6
BYLAYER
100
AcDbLine
 10
3541.6651534119882854
 20
791.912862019666818
 30
0.0
 11
3540.1151534119881035
 21
791.912862019666818
 31
0.0
  0
LINE
  5
67
100
AcDbEntity
  8
Contornos Visibles
 62
256
370
-1
 48
1.0
  6
BYLAYER
100
AcDbLine
 10
3582.9151534119882854
 20
833.1628620196669317
 30
0.0
 11
3615.6209247779283942
 21
833.1628620196670454
 31
0.0
  0
LINE
  5
68
100
AcDbEntity
  8
Contornos Visibles
 62
256
370
-1
 48
1.0
  6
BYLAYER
100
AcDbLine
 10
3541.6651534119882854
 20
791.912862019666818
 30
0.0
 11
3541.6651534119882854
 21
759.2070906537267092
 31
0.0
  0
LINE
  5
69
100
AcDbEntity
  8
Contornos Visibles
 62
256
370
-1
 48
1.0
  6
BYLAYER
100
AcDbLine
 10
3565.1651534119887401
 20
809.662862019666818
 30
0.0
 11
3640.9151534119882854
 21
809.6628620196669317
 31
0.0
  0
LINE
  5
6A
100
AcDbEntity
  8
Contornos Visibles
 62
256
370
-1
 48
1.0
  6
BYLAYER
100
AcDbLine
 10
3565.1651534119882854
 20
809.662862019666818
 30
0.0
 11
3565.1651534119878306
 21
733.912862019666818
 31
0.0
  0
LINE
  5
6B
100
AcDbEntity
  8
Referencias
 62
256
370
-1
 48
1.0
  6
BYLAYER
100
AcDbLine
 10
3540.1151534119881035
 20
809.662862019666818
 30
0.0
 11
3563.6151534119881035
 21
809.662862019666818
 31
0.0
  0
LINE
  5
6C
100
AcDbEntity
  8
Contornos Visibles
 62
256
370
-1
 48
1.0
  6
BYLAYER
100
AcDbLine
 10
3642.9151534119882854
 20
811.6628620196669317
 30
0.0
 11
3642.9151534119882854
 21
818.1628620196669317
 31
0.0
  0
LINE
  5
6D
100
AcDbEntity
  8
Contornos Visibles
 62
256
370
-1
 48
1.0
  6
BYLAYER
100
AcDbLine
 10
3563.1651534119882854
 20
731.912862019666818
 30
0.0
 11
3556.6651534119882854
 21
731.912862019666818
 31
0.0
  0
ARC
  5
6E
100
AcDbEntity
  8
Contornos Visibles
 62
256
370
-1
 48
1.0
  6
BYLAYER
100
AcDbCircle
 10
3640.9151534119882854
 20
811.6628620196669317
 30
0.0
 40
2.0
100
AcDbArc
 50
270.0
 51
0.0
  0
ARC
  5
6F
100
AcDbEntity
  8
Contornos Visibles
 62
256
370
-1
 48
1.0
  6
BYLAYER
100
AcDbCircle
 10
3563.1651534119878306
 20
733.912862019666818
 30
0.0
 40
2.0
100
AcDbArc
 50
270.0
 51
360.0
  0
LINE
  5
70
100
AcDbEntity
  8
Contornos Visibles
 62
256
370
-1
 48
1.0
  6
BYLAYER
100
AcDbLine
 10
3642.9151534119882854
 20
818.162862019666477
 30
0.0
 11
3632.4151534119878306
 21
828.6628620196669317
 31
0.0
  0
LINE
  5
71
100
AcDbEntity
  8
Contornos Visibles
 62
256
370
-1
 48
1.0
  6
BYLAYER
100
AcDbLine
 10
3556.6651534119882854
 20
731.912862019666818
 30
0.0
 11
3546.1651534119878306
 21
742.4128620196672728
 31
0.0
  0
LINE
  5
72
100
AcDbEntity
  8
Referencias
 62
256
370
-1
 48
1.0
  6
BYLAYER
100
AcDbLine
 10
3632.4151534119878306
 20
828.6628620196669317
 30
0.0
 11
3598.4740279150337301
 21
862.6039875166212596
 31
0.0
  0
XLINE
  5
73
100
AcDbEntity
  8
Referencias
 62
256
370
-1
 48
1.0
  6
BYLAYER
100
AcDbLine
 10
3632.4151534119878306
 20
828.6628620196669317
 30
0.0
 11
0.0
 21
1.0
 31
0.0
  0
DIMENSION
  5
74
100
AcDbEntity
  8
Referencias
 62
256
370
-1
 48
1.0
  6
BYLAYER
100
AcDbDimension
 10
3598.4740279150337301
 20
862.6039875166212596
 30
0.0
 11
3622.8037279913728526
 21
851.8668956238535657
 31
0.0
 70
2
 71
8
 72
2
 74
0
 75
0
 41
1.0
 42
0.0
  1

  3
Standard
100
AcDb2LineAngularDimension
 13
3632.4151534119878306
 23
829.6628620196669317
 33
0.0
 14
3632.4151534119878306
 24
828.6628620196669317
 34
0.0
 15
3632.4151534119878306
 25
828.6628620196669317
 35
0.0
 16
3621.9984694354639032
 26
849.4385810288046059
 36
0.0
  0
LINE
  5
75
100
AcDbEntity
  8
Contornos Ocultos
 62
256
370
-1
 48
1.0
  6
BYLAYER
100
AcDbLine
 10
3632.4151534119873759
 20
828.6628620196676138
 30
0.0
 11
3627.9151534119878306
 21
833.1628620196670454
 31
0.0
  0
LINE
  5
76
100
AcDbEntity
  8
Contornos Visibles
 62
256
370
-1
 48
1.0
  6
BYLAYER
100
AcDbLine
 10
3615.6209247779283942
 20
833.1628620196669317
 30
0.0
 11
3632.4151534119878306
 21
828.6628620196671591
 31
0.0
  0
LINE
  5
77
100
AcDbEntity
  8
Contornos Visibles
 62
256
370
-1
 48
1.0
  6
BYLAYER
100
AcDbLine
 10
3541.6651534119882854
 20
759.2070906537267092
 30
0.0
 11
3546.1651534119878306
 21
742.4128620196672728
 31
0.0
  0
LINE
  5
78
100
AcDbEntity
  8
Contornos Ocultos
 62
256
370
-1
 48
1.0
  6
BYLAYER
100
AcDbLine
 10
3649.2541490422349852
 20
811.8238663894204592
 30
0.0
 11
3642.9151534119882854
 21
818.1628620196670454
 31
0.0
  0
LINE
  5
79
100
AcDbEntity
  8
Contornos Ocultos
 62
256
370
-1
 48
1.0
  6
BYLAYER
100
AcDbLine
 10
3563.0041490422349852
 20
725.5738663894201181
 30
0.0
 11
3556.6651534119882854
 21
731.912862019666818
 31
0.0
  0
LINE
  5
7A
100
AcDbEntity
  8
Contornos Ocultos
 62
256
370
-1
 48
1.0
  6
BYLAYER
100
AcDbLine
 10
3546.1651534119882854
 20
742.4128620196677275
 30
0.0
 11
3541.6651534119882854
 21
746.9128620196672728
 31
0.0
  0
DIMENSION
  5
7B
100
AcDbEntity
  8
Cotas
 62
256
370
-1
 48
1.0
  6
BYLAYER
100
AcDbDimension
 10
3681.0119272430047204
 20
809.6628620196669317
 30
0.0
 11
3679.1369272430047204
 21
821.4128620196670454
 31
0.0
 70
0
 71
8
 72
2
 74
0
 75
0
 41
1.0
 42
0.0
  1

  3
Standard
100
AcDbAlignedDimension
 13
3640.9151534119882854
 23
809.6628620196669317
 33
0.0
 14
3615.6209247779288489
 24
833.1628620196670454
 34
0.0
 50
90.0
100
AcDbRotatedDimension
1001
ACAD
1000
DSTYLE
1002
{
1070
144
1040
1.0
1070
40
1040
1.0
1002
}
  0
DIMENSION
  5
7C
100
AcDbEntity
  8
Cotas
 62
256
370
-1
 48
1.0
  6
BYLAYER
100
AcDbDimension
 10
3565.1651534119887401
 20
693.8160881886494735
 30
0.0
 11
3553.4151534119882854
 21
695.6910881886494735
 31
0.0
 70
0
 71
8
 72
2
 74
0
 75
0
 41
1.0
 42
4.7123889803846897
  1

  3
Standard
100
AcDbAlignedDimension
 13
3565.1651534119887401
 23
733.9128620196654538
 33
0.0
 14
3541.6651534119882854
 24
759.2070906537262545
 34
0.0
 50
180.0
100
AcDbRotatedDimension
1001
ACAD
1000
DSTYLE
1002
{
1070
144
1040
1.0
1070
40
1040
1.0
1002
}
  0
DIMENSION
  5
7D
100
AcDbEntity
  8
Cotas
 62
256
370
-1
 48
1.0
  6
BYLAYER
100
AcDbDimension
 10
3671.7557896351454474
 20
809.6628620196669317
 30
0.0
 11
3669.8807896351454474
 21
819.1628620196670454
 31
0.0
 70
0
 71
8
 72
2
 74
0
 75
0
 41
1.0
 42
0.0
  1

  3
Standard
100
AcDbAlignedDimension
 13
3640.9151534119882854
 23
809.6628620196669317
 33
0.0
 14
3632.4151534119878306
 24
828.6628620196671591
 34
0.0
 50
90.0
100
AcDbRotatedDimension
1001
ACAD
1000
DSTYLE
1002
{
1070
144
1040
1.0
1070
40
1040
1.0
1002
}
  0
DIMENSION
  5
7E
100
AcDbEntity
  8
Cotas
 62
256
370
-1
 48
1.0
  6
BYLAYER
100
AcDbDimension
 10
3565.1651534119887401
 20
703.0722257965085191
 30
0.0
 11
3555.6651534119887401
 21
704.9472257965085191
 31
0.0
 70
0
 71
8
 72
2
 74
0
 75
0
 41
1.0
 42
4.7123889803846897
  1

  3
Standard
100
AcDbAlignedDimension
 13
3565.1651534119887401
 23
733.9128620196654538
 33
0.0
 14
3546.1651534119887401
 24
742.4128620196657948
 34
0.0
 50
180.0
100
AcDbRotatedDimension
1001
ACAD
1000
DSTYLE
1002
{
1070
144
1040
1.0
1070
40
1040
1.0
1002
}
  0
DIMENSION
  5
7F
100
AcDbEntity
  8
Cotas
 62
256
370
-1
 48
1.0
  6
BYLAYER
100
AcDbDimension
 10
3664.39548744094418
 20
809.6628620196669317
 30
0.0
 11
3662.52048744094418
 21
813.9128620196670454
 31
0.0
 70
0
 71
8
 72
2
 74
0
 75
0
 41
1.0
 42
0.0
  1

  3
Standard
100
AcDbAlignedDimension
 13
3640.9151534119882854
 23
809.6628620196669317
 33
0.0
 14
3642.9151534119882854
 24
818.1628620196670454
 34
0.0
 50
90.0
100
AcDbRotatedDimension
1001
ACAD
1000
DSTYLE
1002
{
1070
144
1040
1.0
1070
40
1040
1.0
1002
}
  0
LINE
  5
80
100
AcDbEntity
  8
Contornos Ocultos
 62
256
370
-1
 48
1.0
  6
BYLAYER
100
AcDbLine
 10
3632.4151534119878306
 20
828.6628620196669317
 30
0.0
 11
3642.9151534119882854
 21
825.8493954991403143
 31
0.0
  0
LINE
  5
81
100
AcDbEntity
  8
Contornos Ocultos
 62
256
370
-1
 48
1.0
  6
BYLAYER
100
AcDbLine
 10
3546.1651534119887401
 20
742.4128620196672728
 30
0.0
 11
3548.9786199325153575
 21
731.912862019666818
 31
0.0
  0
XLINE
  5
82
100
AcDbEntity
  8
Referencias
 62
256
370
-1
 48
1.0
  6
BYLAYER
100
AcDbLine
 10
3642.9151534119882854
 20
818.1628620196670454
 30
0.0
 11
0.0
 21
1.0
 31
0.0
  0
DIMENSION
  5
83
100
AcDbEntity
  8
Cotas
 62
256
370
-1
 48
1.0
  6
BYLAYER
100
AcDbDimension
 10
3649.2541490422349852
 20
811.8238663894204592
 30
0.0
 11
3652.9297244604404113
 21
822.3110331692847694
 31
0.0
 70
2
 71
8
 72
2
 74
0
 75
0
 41
1.0
 42
0.0
  1

  3
Standard
100
AcDb2LineAngularDimension
 13
3642.9151534119882854
 23
819.1628620196670454
 33
0.0
 14
3642.9151534119882854
 24
818.1628620196670454
 34
0.0
 15
3642.9151534119882854
 25
818.1628620196670454
 35
0.0
 16
3651.6393031002812677
 26
820.2256134387257589
 36
0.0
  0
DIMENSION
  5
84
100
AcDbEntity
  8
Cotas
 62
256
370
-1
 48
1.0
  6
BYLAYER
100
AcDbDimension
 10
3563.0041490422349852
 20
725.573866389419436
 30
0.0
 11
3553.9520451337411941
 21
725.3628392181334448
 31
0.0
 70
2
 71
8
 72
2
 74
0
 75
0
 41
1.0
 42
4.7123889803846897
  1

  3
Standard
100
AcDb2LineAngularDimension
 13
3555.6651534119882854
 23
731.9128620196663633
 33
0.0
 14
3556.6651534119882854
 24
731.9128620196651127
 34
0.0
 15
3556.6651534119882854
 25
731.9128620196651127
 35
0.0
 16
3554.6024019929300266
 26
723.1887123313756547
 36
0.0
  0
DIMENSION
  5
85
100
AcDbEntity
  8
Cotas
 62
256
370
-1
 48
1.0
  6
BYLAYER
100
AcDbDimension
 10
3627.9151534119878306
 20
833.1628620196670454
 30
0.0
 11
3637.9144357210520866
 21
838.1878983841286299
 31
0.0
 70
2
 71
8
 72
2
 74
0
 75
0
 41
1.0
 42
0.0
  1

  3
Standard
100
AcDb2LineAngularDimension
 13
3642.9151534119882854
 23
825.8493954991403143
 33
0.0
 14
3632.4151534119878306
 24
828.6628620196669317
 34
0.0
 15
3632.4151534119873759
 25
828.6628620196676138
 35
0.0
 16
3638.4982712070263915
 26
835.4625023949237175
 36
0.0
  0
DIMENSION
  5
86
100
AcDbEntity
  8
Cotas
 62
256
370
-1
 48
1.0
  6
BYLAYER
100
AcDbDimension
 10
3541.6651534119882854
 20
746.9128620196661359
 30
0.0
 11
3539.8877123117194969
 21
738.7885797106017662
 31
0.0
 70
2
 71
8
 72
2
 74
0
 75
0
 41
1.0
 42
4.7123889803846897
  1

  3
Standard
100
AcDb2LineAngularDimension
 13
3548.9786199325153575
 23
731.912862019666818
 33
0.0
 14
3546.1651534119887401
 24
742.4128620196657948
 34
0.0
 15
3546.1651534119882854
 25
742.4128620196656811
 35
0.0
 16
3539.3655130367319543
 26
736.3297442246288256
 36
0.0
  0
DIMENSION
  5
87
100
AcDbEntity
  8
Cotas
 62
256
370
-1
 48
1.0
  6
BYLAYER
100
AcDbDimension
 10
3632.4151534119882854
 20
849.1604352902608071
 30
0.0
 11
3637.6651534119882854
 21
851.0354352902608071
 31
0.0
 70
0
 71
8
 72
2
 74
0
 75
0
 41
1.0
 42
0.0
  1

  3
Standard
100
AcDbAlignedDimension
 13
3632.4151534119882854
 23
828.6628620196663633
 33
0.0
 14
3642.9151534119882854
 24
828.3775556117855103
 34
0.0
 50
0.0
100
AcDbRotatedDimension
1001
ACAD
1000
DSTYLE
1002
{
1070
144
1040
1.0
1070
40
1040
1.0
1002
}
  0
DIMENSION
  5
88
100
AcDbEntity
  8
Cotas
 62
256
370
-1
 48
1.0
  6
BYLAYER
100
AcDbDimension
 10
3525.6675801413948648
 20
742.4128620196667043
 30
0.0
 11
3523.7925801413948648
 21
737.1628620196661359
 31
0.0
 70
0
 71
8
 72
2
 74
0
 75
0
 41
1.0
 42
4.7123889803846897
  1

  3
Standard
100
AcDbAlignedDimension
 13
3546.1651534119887401
 23
742.4128620196657948
 33
0.0
 14
3546.4504598198700478
 24
731.9128620196665906
 34
0.0
 50
270.0
100
AcDbRotatedDimension
1001
ACAD
1000
DSTYLE
1002
{
1070
144
1040
1.0
1070
40
1040
1.0
1002
}
  0
DIMENSION
  5
89
100
AcDbEntity
  8
Cotas
 62
256
370
-1
 48
1.0
  6
BYLAYER
100
AcDbDimension
 10
3640.9151534119882854
 20
811.6628620196669317
 30
0.0
 11
3646.5660125306603732
 21
803.9678105282545175
 31
0.0
 70
4
 71
8
 72
2
 74
0
 41
1.0
 42
0.0
  1
2-R<>
  3
Standard
100
AcDbRadialDimension
 15
3641.7592955019072178
 25
809.8497365049748851
 35
0.0
 40
0.0
1001
ACAD
1000
DSTYLE
1002
{
1070
144
1040
1.0
1070
40
1040
1.0
1002
}
  0
DIMENSION
  5
8A
100
AcDbEntity
  8
Cotas
 62
256
370
-1
 48
1.0
  6
BYLAYER
100
AcDbDimension
 10
3591.0432362366568668
 20
833.1628620196670454
 30
0.0
 11
3589.1682362366568668
 21
837.9767509085556867
 31
0.0
 70
0
 71
8
 72
2
 74
0
 75
0
 41
1.0
 42
0.0
  1

  3
Standard
100
AcDbAlignedDimension
 13
3582.9151534119882854
 23
833.1628620196670454
 33
0.0
 14
3582.9151534119882854
 24
834.7128620196668862
 34
0.0
 50
90.0
100
AcDbRotatedDimension
1001
ACAD
1000
DSTYLE
1002
{
1070
144
1040
1.0
1070
40
1040
1.0
1002
}
  0
DIMENSION
  5
8B
100
AcDbEntity
  8
Cotas
 62
256
370
-1
 48
1.0
  6
BYLAYER
100
AcDbDimension
 10
3541.6651534119887401
 20
783.7847791949974408
 30
0.0
 11
3536.8512645230998714
 21
785.6597791949974408
 31
0.0
 70
0
 71
8
 72
2
 74
0
 75
0
 41
1.0
 42
4.7123889803846897
  1

  3
Standard
100
AcDbAlignedDimension
 13
3541.6651534119882854
 23
791.9128620196676138
 33
0.0
 14
3540.1151534119885582
 24
791.9128620196685233
 34
0.0
 50
180.0
100
AcDbRotatedDimension
1001
ACAD
1000
DSTYLE
1002
{
1070
144
1040
1.0
1070
40
1040
1.0
1002
}
  0
DIMENSION
  5
8C
100
AcDbEntity
  8
Cotas
 62
256
370
-1
 48
1.0
  6
BYLAYER
100
AcDbDimension
 10
3540.1151534119881035
 20
849.9241389242151854
 30
0.0
 11
3561.5151534119881944
 21
851.7991389242151854
 31
0.0
 70
0
 71
8
 72
2
 74
0
 75
0
 41
1.0
 42
0.0
  1

  3
Standard
100
AcDbAlignedDimension
 13
3540.1151534119881035
 23
826.7128620196669999
 33
0.0
 14
3582.9151534119882854
 24
834.7128620196668862
 34
0.0
 50
0.0
100
AcDbRotatedDimension
1001
ACAD
1000
DSTYLE
1002
{
1070
144
1040
1.0
1070
40
1040
1.0
1002
}
  0
DIMENSION
  5
8D
100
AcDbEntity
  8
Cotas
 62
256
370
-1
 48
1.0
  6
BYLAYER
100
AcDbDimension
 10
3524.9038765074406001
 20
834.7128620196672273
 30
0.0
 11
3523.0288765074406001
 21
813.3128620196682732
 31
0.0
 70
0
 71
8
 72
2
 74
0
 75
0
 41
1.0
 42
4.7123889803846897
  1

  3
Standard
100
AcDbAlignedDimension
 13
3548.1151534119885582
 23
834.7128620196679094
 33
0.0
 14
3540.1151534119885582
 24
791.9128620196685233
 34
0.0
 50
270.0
100
AcDbRotatedDimension
1001
ACAD
1000
DSTYLE
1002
{
1070
144
1040
1.0
1070
40
1040
1.0
1002
}
  0
DIMENSION
  5
8E
100
AcDbEntity
  8
Cotas
 62
256
370
-1
 48
1.0
  6
BYLAYER
100
AcDbDimension
 10
3540.1151534119881035
 20
679.1981123112315117
 30
0.0
 11
3591.5151534119881944
 21
681.0731123112315117
 31
0.0
 70
0
 71
8
 72
2
 74
0
 75
0
 41
1.0
 42
0.0
  1

  3
Standard
100
AcDbAlignedDimension
 13
3540.1151534119881035
 23
791.912862019666818
 33
0.0
 14
3642.9151534119882854
 24
811.6628620196669317
 34
0.0
 50
0.0
100
AcDbRotatedDimension
1001
ACAD
1000
DSTYLE
1002
{
1070
144
1040
1.0
1070
40
1040
1.0
1002
}
  0
DIMENSION
  5
8F
100
AcDbEntity
  8
Cotas
 62
256
370
-1
 48
1.0
  6
BYLAYER
100
AcDbDimension
 10
3507.2900837149259132
 20
834.7128620196668862
 30
0.0
 11
3505.4150837149259132
 21
783.312862019666909
 31
0.0
 70
0
 71
8
 72
2
 74
0
 75
0
 41
1.0
 42
0.0
  1

  3
Standard
100
AcDbAlignedDimension
 13
3548.1151534119881035
 23
834.7128620196668862
 33
0.0
 14
3563.1651534119878306
 24
731.912862019666818
 34
0.0
 50
90.0
100
AcDbRotatedDimension
1001
ACAD
1000
DSTYLE
1002
{
1070
144
1040
1.0
1070
40
1040
1.0
1002
}
  0
CIRCLE
  5
90
100
AcDbEntity
  8
Contornos Visibles
 62
256
370
-1
 48
1.0
  6
BYLAYER
100
AcDbCircle
 10
3590.4151534119882854
 20
825.1628620196670454
 30
0.0
 40
3.25
  0
CIRCLE
  5
91
100
AcDbEntity
  8
Contornos Visibles
 62
256
370
-1
 48
1.0
  6
BYLAYER
100
AcDbCircle
 10
3625.4151534119882854
 20
825.1628620196670454
 30
0.0
 40
3.25
  0
CIRCLE
  5
92
100
AcDbEntity
  8
Contornos Visibles
 62
256
370
-1
 48
1.0
  6
BYLAYER
100
AcDbCircle
 10
3549.6651534119882854
 20
749.412862019666818
 30
0.0
 40
3.25
  0
CIRCLE
  5
93
100
AcDbEntity
  8
Contornos Visibles
 62
256
370
-1
 48
1.0
  6
BYLAYER
100
AcDbCircle
 10
3549.6651534119882854
 20
784.412862019666818
 30
0.0
 40
3.25
  0
CIRCLE
  5
94
100
AcDbEntity
  8
Contornos Visibles
 62
256
370
-1
 48
1.0
  6
BYLAYER
100
AcDbCircle
 10
3570.1151534119881035
 20
828.0128620196668408
 30
0.0
 40
3.25
  0
CIRCLE
  5
95
100
AcDbEntity
  8
Contornos Visibles
 62
256
370
-1
 48
1.0
  6
BYLAYER
100
AcDbCircle
 10
3546.8151534119883763
 20
804.7128620196669999
 30
0.0
 40
3.25
  0
LINE
  5
96
100
AcDbEntity
  8
Referencias
 62
256
370
-1
 48
1.0
  6
BYLAYER
100
AcDbLine
 10
3540.1151534119881035
 20
818.9620953215105601
 30
0.0
 11
3553.6151534119881035
 21
818.9620953215105601
 31
0.0
  0
LINE
  5
97
100
AcDbEntity
  8
Referencias
 62
256
370
-1
 48
1.0
  6
BYLAYER
100
AcDbLine
 10
3556.9853509817639861
 20
821.2128620196668862
 30
0.0
 11
3556.9853509817639861
 21
834.7128620196668862
 31
0.0
  0
XLINE
  5
98
100
AcDbEntity
  8
Referencias 2
 62
256
370
-1
 48
1.0
  6
BYLAYER
100
AcDbLine
 10
3553.6151534119881035
 20
818.9620953215105601
 30
0.0
 11
0.0
 21
1.0
 31
0.0
  0
XLINE
  5
99
100
AcDbEntity
  8
Referencias 2
 62
256
370
-1
 48
1.0
  6
BYLAYER
100
AcDbLine
 10
3556.9853509817639861
 20
821.2128620196668862
 30
0.0
 11
1.0
 21
0.0
 31
0.0
  0
CIRCLE
  5
9A
100
AcDbEntity
  8
Contornos Visibles
 62
256
370
-1
 48
1.0
  6
BYLAYER
100
AcDbCircle
 10
3553.6151534119881035
 20
821.2128620196668862
 30
0.0
 40
5.25
  0
LINE
  5
9B
100
AcDbEntity
  8
Referencias 2
 62
256
370
-1
 48
1.0
  6
BYLAYER
100
AcDbLine
 10
3565.1651534119882854
 20
809.662862019666818
 30
0.0
 11
3582.9151534119882854
 21
809.662862019666818
 31
0.0
  0
LINE
  5
9C
100
AcDbEntity
  8
Referencias 2
 62
256
370
-1
 48
1.0
  6
BYLAYER
100
AcDbLine
 10
3565.1651534119882854
 20
791.912862019666818
 30
0.0
 11
3565.1651534119882854
 21
809.662862019666818
 31
0.0
  0
LINE
  5
9D
100
AcDbEntity
  8
Contornos Visibles
 62
256
370
-1
 48
1.0
  6
BYLAYER
100
AcDbLine
 10
3565.1651534119882854
 20
791.912862019666818
 30
0.0
 11
3567.1151534119881035
 21
791.912862019666818
 31
0.0
  0
LINE
  5
9E
100
AcDbEntity
  8
Contornos Visibles
 62
256
370
-1
 48
1.0
  6
BYLAYER
100
AcDbLine
 10
3582.9151534119882854
 20
807.7128620196667725
 30
0.0
 11
3582.9151534119882854
 21
809.662862019666818
 31
0.0
  0
LINE
  5
9F
100
AcDbEntity
  8
Contornos Visibles
 62
256
370
-1
 48
1.0
  6
BYLAYER
100
AcDbLine
 10
3570.1151534119881035
 20
807.7128620196667725
 30
0.0
 11
3582.9151534119882854
 21
807.7128620196667725
 31
0.0
  0
LINE
  5
A0
100
AcDbEntity
  8
Contornos Visibles
 62
256
370
-1
 48
1.0
  6
BYLAYER
100
AcDbLine
 10
3567.1151534119881035
 20
804.7128620196667725
 30
0.0
 11
3567.1151534119881035
 21
791.912862019666818
 31
0.0
  0
ARC
  5
A1
100
AcDbEntity
  8
Contornos Visibles
 62
256
370
-1
 48
1.0
  6
BYLAYER
100
AcDbCircle
 10
3570.1151534119881035
 20
804.7128620196667725
 30
0.0
 40
3.0
100
AcDbArc
 50
90.0
 51
180.0
  0
LINE
  5
A2
100
AcDbEntity
  8
Referencias
 62
256
370
-1
 48
1.0
  6
BYLAYER
100
AcDbLine
 10
3621.1651534119882854
 20
825.1628620196670454
 30
0.0
 11
3629.6651534119882854
 21
825.1628620196670454
 31
0.0
  0
LINE
  5
A3
100
AcDbEntity
  8
Ejes de revoluci\U+00f3n
 62
256
370
-1
 48
1.0
  6
BYLAYER
100
AcDbLine
 10
3625.4151534119882854
 20
820.9128620196670454
 30
0.0
 11
3625.4151534119882854
 21
829.4128620196670454
 31
0.0
  0
LINE
  5
A4
100
AcDbEntity
  8
Ejes de revoluci\U+00f3n
 62
256
370
-1
 48
1.0
  6
BYLAYER
100
AcDbLine
 10
3586.1651534119882854
 20
825.1628620196670454
 30
0.0
 11
3629.6651534119882854
 21
825.1628620196670454
 31
0.0
  0
LINE
  5
A5
100
AcDbEntity
  8
Ejes de revoluci\U+00f3n
 62
256
370
-1
 48
1.0
  6
BYLAYER
100
AcDbLine
 10
3590.4151534119882854
 20
820.9128620196670454
 30
0.0
 11
3590.4151534119882854
 21
829.4128620196670454
 31
0.0
  0
LINE
  5
A6
100
AcDbEntity
  8
Ejes de revoluci\U+00f3n
 62
256
370
-1
 48
1.0
  6
BYLAYER
100
AcDbLine
 10
3565.8651534119881035
 20
828.0128620196668408
 30
0.0
 11
3574.3651534119881035
 21
828.0128620196668408
 31
0.0
  0
LINE
  5
A7
100
AcDbEntity
  8
Ejes de revoluci\U+00f3n
 62
256
370
-1
 48
1.0
  6
BYLAYER
100
AcDbLine
 10
3570.1151534119881035
 20
823.7628620196668408
 30
0.0
 11
3570.1151534119881035
 21
832.2628620196668408
 31
0.0
  0
LINE
  5
A8
100
AcDbEntity
  8
Ejes de revoluci\U+00f3n
 62
256
370
-1
 48
1.0
  6
BYLAYER
100
AcDbLine
 10
3547.3651534119881035
 20
821.2128620196668862
 30
0.0
 11
3559.8651534119881035
 21
821.2128620196668862
 31
0.0
  0
LINE
  5
A9
100
AcDbEntity
  8
Ejes de revoluci\U+00f3n
 62
256
370
-1
 48
1.0
  6
BYLAYER
100
AcDbLine
 10
3553.6151534119881035
 20
814.9628620196668862
 30
0.0
 11
3553.6151534119881035
 21
827.4628620196668862
 31
0.0
  0
LINE
  5
AA
100
AcDbEntity
  8
Ejes de revoluci\U+00f3n
 62
256
370
-1
 48
1.0
  6
BYLAYER
100
AcDbLine
 10
3542.5651534119883763
 20
804.7128620196669999
 30
0.0
 11
3551.0651534119883763
 21
804.7128620196669999
 31
0.0
  0
LINE
  5
AB
100
AcDbEntity
  8
Ejes de revoluci\U+00f3n
 62
256
370
-1
 48
1.0
  6
BYLAYER
100
AcDbLine
 10
3546.8151534119883763
 20
800.4628620196669999
 30
0.0
 11
3546.8151534119883763
 21
808.9628620196669999
 31
0.0
  0
DIMENSION
  5
AC
100
AcDbEntity
  8
Cotas
 62
256
370
-1
 48
1.0
  6
BYLAYER
100
AcDbDimension
 10
3570.1151534119881035
 20
804.7128620196667725
 30
0.0
 11
3567.5174158563531819
 21
812.9352498948414905
 31
0.0
 70
4
 71
8
 72
2
 74
0
 41
1.0
 42
0.0
  1
R<>
  3
Standard
100
AcDbRadialDimension
 15
3568.6109849344443319
 25
807.3085270965138989
 35
0.0
 40
0.0
1001
ACAD
1000
DSTYLE
1002
{
1070
144
1040
1.0
1070
40
1040
1.0
1002
}
  0
DIMENSION
  5
AD
100
AcDbEntity
  8
Cotas
 62
256
370
-1
 48
1.0
  6
BYLAYER
100
AcDbDimension
 10
3565.1651534119891949
 20
788.0846891714211324
 30
0.0
 11
3574.0401534119891949
 21
789.9596891714211324
 31
0.0
 70
0
 71
8
 72
2
 74
0
 75
0
 41
1.0
 42
0.0
  1

  3
Standard
100
AcDbAlignedDimension
 13
3565.1651534119891949
 23
791.9128620196669317
 33
0.0
 14
3582.9151534119887401
 24
807.7128620196667725
 34
0.0
 50
0.0
100
AcDbRotatedDimension
1001
ACAD
1000
DSTYLE
1002
{
1070
144
1040
1.0
1070
40
1040
1.0
1002
}
  0
DIMENSION
  5
AE
100
AcDbEntity
  8
Cotas
 62
256
370
-1
 48
1.0
  6
BYLAYER
100
AcDbDimension
 10
3588.5946180461837685
 20
809.662862019666818
 30
0.0
 11
3586.7196180461837685
 21
800.787862019666818
 31
0.0
 70
0
 71
8
 72
2
 74
0
 75
0
 41
1.0
 42
0.0
  1

  3
Standard
100
AcDbAlignedDimension
 13
3582.9151534119882854
 23
809.662862019666818
 33
0.0
 14
3567.1151534119881035
 24
791.912862019666818
 34
0.0
 50
90.0
100
AcDbRotatedDimension
1001
ACAD
1000
DSTYLE
1002
{
1070
144
1040
1.0
1070
40
1040
1.0
1002
}
  0
DIMENSION
  5
AF
100
AcDbEntity
  8
Cotas
 62
256
370
-1
 48
1.0
  6
BYLAYER
100
AcDbDimension
 10
3625.4151534119882854
 20
814.9128620196669317
 30
0.0
 11
3634.1651534119882854
 21
816.7878620196669317
 31
0.0
 70
0
 71
8
 72
2
 74
0
 75
0
 41
1.0
 42
0.0
  1

  3
Standard
100
AcDbAlignedDimension
 13
3625.4151534119882854
 23
820.9128620196670454
 33
0.0
 14
3642.9151534119882854
 24
814.9128620196669317
 34
0.0
 50
0.0
100
AcDbRotatedDimension
1001
ACAD
1000
DSTYLE
1002
{
1070
144
1040
1.0
1070
40
1040
1.0
1002
}
  0
DIMENSION
  5
B0
100
AcDbEntity
  8
Cotas
 62
256
370
-1
 48
1.0
  6
BYLAYER
100
AcDbDimension
 10
3590.4151534119882854
 20
814.9128620196669317
 30
0.0
 11
3607.9151534119882854
 21
816.7878620196669317
 31
0.0
 70
0
 71
8
 72
2
 74
0
 75
0
 41
1.0
 42
0.0
  1

  3
Standard
100
AcDbAlignedDimension
 13
3590.4151534119882854
 23
820.9128620196670454
 33
0.0
 14
3625.4151534119882854
 24
820.2878620196670454
 34
0.0
 50
0.0
100
AcDbRotatedDimension
1001
ACAD
1000
DSTYLE
1002
{
1070
144
1040
1.0
1070
40
1040
1.0
1002
}
  0
DIMENSION
  5
B1
100
AcDbEntity
  8
Cotas
 62
256
370
-1
 48
1.0
  6
BYLAYER
100
AcDbDimension
 10
3599.2680390949581124
 20
829.1628620196670454
 30
0.0
 11
3597.3930390949581124
 21
829.1628620196670454
 31
0.0
 70
0
 71
8
 72
2
 74
0
 75
0
 41
1.0
 42
0.0
  1

  3
Standard
100
AcDbAlignedDimension
 13
3599.2680390949581124
 23
833.1628620196670454
 33
0.0
 14
3599.2680390949581124
 24
825.1628620196670454
 34
0.0
 50
90.0
100
AcDbRotatedDimension
1001
ACAD
1000
DSTYLE
1002
{
1070
144
1040
1.0
1070
40
1040
1.0
1002
}
  0
DIMENSION
  5
B2
100
AcDbEntity
  8
Cotas
 62
256
370
-1
 48
1.0
  6
BYLAYER
100
AcDbDimension
 10
3566.1401534119886492
 20
798.3128620196667953
 30
0.0
 11
3561.9012645231005081
 21
800.1878620196667953
 31
0.0
 70
0
 71
8
 72
2
 74
0
 75
0
 41
1.0
 42
0.0
  1

  3
Standard
100
AcDbAlignedDimension
 13
3567.1151534119881035
 23
798.3128620196667953
 33
0.0
 14
3565.1651534119891949
 24
798.3128620196667953
 34
0.0
 50
0.0
100
AcDbRotatedDimension
1001
ACAD
1000
DSTYLE
1002
{
1070
144
1040
1.0
1070
40
1040
1.0
1002
}
  0
DIMENSION
  5
B3
100
AcDbEntity
  8
Cotas
 62
256
370
-1
 48
1.0
  6
BYLAYER
100
AcDbDimension
 10
3576.5151534119881944
 20
808.6878620196667953
 30
0.0
 11
3574.6401534119881944
 21
812.9267509085557322
 31
0.0
 70
0
 71
8
 72
2
 74
0
 75
0
 41
1.0
 42
0.0
  1

  3
Standard
100
AcDbAlignedDimension
 13
3576.5151534119881944
 23
807.7128620196667725
 33
0.0
 14
3576.5151534119881944
 24
809.662862019666818
 34
0.0
 50
90.0
100
AcDbRotatedDimension
1001
ACAD
1000
DSTYLE
1002
{
1070
144
1040
1.0
1070
40
1040
1.0
1002
}
  0
DIMENSION
  5
B4
100
AcDbEntity
  8
Cotas
 62
256
370
-1
 48
1.0
  6
BYLAYER
100
AcDbDimension
 10
3565.1651534119882854
 20
821.2128620196668862
 30
0.0
 11
3563.2901534119882854
 21
827.9628620196668862
 31
0.0
 70
0
 71
8
 72
2
 74
0
 75
0
 41
1.0
 42
0.0
  1

  3
Standard
100
AcDbAlignedDimension
 13
3559.8651534119881035
 23
821.2128620196668862
 33
0.0
 14
3559.8651534119881035
 24
834.7128620196668862
 34
0.0
 50
90.0
100
AcDbRotatedDimension
1001
ACAD
1000
DSTYLE
1002
{
1070
144
1040
1.0
1070
40
1040
1.0
1002
}
  0
DIMENSION
  5
B5
100
AcDbEntity
  8
Cotas
 62
256
370
-1
 48
1.0
  6
BYLAYER
100
AcDbDimension
 10
3570.1151534119881035
 20
843.256000471940979
 30
0.0
 11
3558.4651534119884673
 21
845.131000471940979
 31
0.0
 70
0
 71
8
 72
2
 74
0
 75
0
 41
1.0
 42
0.0
  1

  3
Standard
100
AcDbAlignedDimension
 13
3570.1151534119881035
 23
832.2628620196668408
 33
0.0
 14
3546.8151534119883763
 24
808.9628620196669999
 34
0.0
 50
0.0
100
AcDbRotatedDimension
1001
ACAD
1000
DSTYLE
1002
{
1070
144
1040
1.0
1070
40
1040
1.0
1002
}
  0
DIMENSION
  5
B6
100
AcDbEntity
  8
Cotas
 62
256
370
-1
 48
1.0
  6
BYLAYER
100
AcDbDimension
 10
3540.1151534119881035
 20
843.256000471940979
 30
0.0
 11
3543.4651534119884673
 21
845.131000471940979
 31
0.0
 70
0
 71
8
 72
2
 74
0
 75
0
 41
1.0
 42
0.0
  1

  3
Standard
100
AcDbAlignedDimension
 13
3540.1151534119881035
 23
826.7128620196669999
 33
0.0
 14
3546.8151534119883763
 24
843.256000471940979
 34
0.0
 50
0.0
100
AcDbRotatedDimension
1001
ACAD
1000
DSTYLE
1002
{
1070
144
1040
1.0
1070
40
1040
1.0
1002
}
  0
LINE
  5
B7
100
AcDbEntity
  8
Ejes de revoluci\U+00f3n
 62
256
370
-1
 48
1.0
  6
BYLAYER
100
AcDbLine
 10
3545.4151534119882854
 20
749.412862019666818
 30
0.0
 11
3553.9151534119882854
 21
749.412862019666818
 31
0.0
  0
LINE
  5
B8
100
AcDbEntity
  8
Referencias
 62
256
370
-1
 48
1.0
  6
BYLAYER
100
AcDbLine
 10
3549.6651534119882854
 20
745.162862019666818
 30
0.0
 11
3549.6651534119882854
 21
753.662862019666818
 31
0.0
  0
LINE
  5
B9
100
AcDbEntity
  8
Ejes de revoluci\U+00f3n
 62
256
370
-1
 48
1.0
  6
BYLAYER
100
AcDbLine
 10
3545.4151534119882854
 20
784.412862019666818
 30
0.0
 11
3553.9151534119882854
 21
784.412862019666818
 31
0.0
  0
LINE
  5
BA
100
AcDbEntity
  8
Ejes de revoluci\U+00f3n
 62
256
370
-1
 48
1.0
  6
BYLAYER
100
AcDbLine
 10
3549.6651534119882854
 20
745.162862019666818
 30
0.0
 11
3549.6651534119882854
 21
788.662862019666818
 31
0.0
  0
DIMENSION
  5
BB
100
AcDbEntity
  8
Cotas
 62
256
370
-1
 48
1.0
  6
BYLAYER
100
AcDbDimension
 10
3559.9151534119882854
 20
749.412862019666818
 30
0.0
 11
3558.0401534119882854
 21
740.662862019666818
 31
0.0
 70
0
 71
8
 72
2
 74
0
 75
0
 41
1.0
 42
0.0
  1

  3
Standard
100
AcDbAlignedDimension
 13
3553.9151534119882854
 23
749.412862019666818
 33
0.0
 14
3559.9151534119882854
 24
731.912862019666818
 34
0.0
 50
90.0
100
AcDbRotatedDimension
1001
ACAD
1000
DSTYLE
1002
{
1070
144
1040
1.0
1070
40
1040
1.0
1002
}
  0
DIMENSION
  5
BC
100
AcDbEntity
  8
Cotas
 62
256
370
-1
 48
1.0
  6
BYLAYER
100
AcDbDimension
 10
3559.9151534119882854
 20
784.412862019666818
 30
0.0
 11
3558.0401534119882854
 21
766.912862019666818
 31
0.0
 70
0
 71
8
 72
2
 74
0
 75
0
 41
1.0
 42
0.0
  1

  3
Standard
100
AcDbAlignedDimension
 13
3553.9151534119882854
 23
784.412862019666818
 33
0.0
 14
3554.5401534119882854
 24
749.412862019666818
 34
0.0
 50
90.0
100
AcDbRotatedDimension
1001
ACAD
1000
DSTYLE
1002
{
1070
144
1040
1.0
1070
40
1040
1.0
1002
}
  0
DIMENSION
  5
BD
100
AcDbEntity
  8
Cotas
 62
256
370
-1
 48
1.0
  6
BYLAYER
100
AcDbDimension
 10
3545.6651534119882854
 20
766.912862019666818
 30
0.0
 11
3545.6651534119882854
 21
768.787862019666818
 31
0.0
 70
0
 71
8
 72
2
 74
0
 75
0
 41
1.0
 42
0.0
  1

  3
Standard
100
AcDbAlignedDimension
 13
3549.6651534119882854
 23
766.912862019666818
 33
0.0
 14
3541.6651534119882854
 24
766.912862019666818
 34
0.0
 50
0.0
100
AcDbRotatedDimension
1001
ACAD
1000
DSTYLE
1002
{
1070
144
1040
1.0
1070
40
1040
1.0
1002
}
  0
DIMENSION
  5
BE
100
AcDbEntity
  8
Cotas
 62
256
370
-1
 48
1.0
  6
BYLAYER
100
AcDbDimension
 10
3533.3146436861952679
 20
828.0128620196668408
 30
0.0
 11
3531.4396436861952679
 21
816.3628620196668635
 31
0.0
 70
0
 71
8
 72
2
 74
0
 75
0
 41
1.0
 42
0.0
  1

  3
Standard
100
AcDbAlignedDimension
 13
3565.8651534119881035
 23
828.0128620196668408
 33
0.0
 14
3542.5651534119883763
 24
804.7128620196669999
 34
0.0
 50
90.0
100
AcDbRotatedDimension
1001
ACAD
1000
DSTYLE
1002
{
1070
144
1040
1.0
1070
40
1040
1.0
1002
}
  0
DIMENSION
  5
BF
100
AcDbEntity
  8
Cotas
 62
256
370
-1
 48
1.0
  6
BYLAYER
100
AcDbDimension
 10
3533.3146436861952679
 20
834.7128620196668862
 30
0.0
 11
3531.4396436861952679
 21
831.3628620196668635
 31
0.0
 70
0
 71
8
 72
2
 74
0
 75
0
 41
1.0
 42
0.0
  1

  3
Standard
100
AcDbAlignedDimension
 13
3548.1151534119881035
 23
834.7128620196668862
 33
0.0
 14
3533.3146436861952679
 24
828.0128620196668408
 34
0.0
 50
90.0
100
AcDbRotatedDimension
1001
ACAD
1000
DSTYLE
1002
{
1070
144
1040
1.0
1070
40
1040
1.0
1002
}
  0
DIMENSION
  5
C0
100
AcDbEntity
  8
Cotas
 62
256
370
-1
 48
1.0
  6
BYLAYER
100
AcDbDimension
 10
3557.6966378909291961
 20
824.5149801956506508
 30
0.0
 11
3543.1614228281569012
 21
817.2633872521049625
 31
0.0
 70
131
 71
8
 72
2
 74
0
 75
0
 41
1.0
 42
0.0
  1
\U+00f8<>
  3
Standard
100
AcDbDiametricDimension
 15
3549.5336689330470108
 25
817.9107438436831217
 35
0.0
 40
0.0
1001
ACAD
1000
DSTYLE
1002
{
1070
279
1070
2
1070
144
1040
1.0
1070
40
1040
1.0
1002
}
  0
MTEXT
  5
C1
100
AcDbEntity
  8
Cotas
 62
256
370
-1
 48
1.0
  6
BYLAYER
100
AcDbMText
 10
3601.8228661015250509
 20
846.7386715020314796
 30
0.0
 40
2.5
 41
0.0
 71
1
 72
1
  1
6-%%c6.5
  7
textstyle0
 50
0.0
 73
2
 44
1.0
  0
LEADER
  5
C2
100
AcDbEntity
  8
Cotas
 62
256
370
-1
 48
1.0
  6
BYLAYER
100
AcDbLeader
  3
Standard
 71
1
 72
0
 73
3
 74
0
 75
0
 40
1.0
 41
10.0
 76
3
 10
3592.8852478754979529
 20
827.2750015371558447
 10
3601.5728661015250509
 20
843.8437192510083378
 10
3611.8844858740121708
 20
843.8437192510083378
1001
ACAD
1000
DSTYLE
1002
{
1070
40
1040
1.0
1002
}
  0
DIMENSION
  5
C3
100
AcDbEntity
  8
Cotas
 62
256
370
-1
 48
1.0
  6
BYLAYER
100
AcDbDimension
 10
3548.1151534119881035
 20
826.7128620196669999
 30
0.0
 11
3536.1659972829652361
 21
833.0956699635644327
 31
0.0
 70
4
 71
8
 72
2
 74
0
 41
1.0
 42
0.0
  1
R<>
  3
Standard
100
AcDbRadialDimension
 15
3540.6049878711546626
 25
829.4692026280234813
 35
0.0
 40
0.0
1001
ACAD
1000
DSTYLE
1002
{
1070
144
1040
1.0
1070
40
1040
1.0
1002
}
  0
ENDSEC
  0
SECTION
  2
OBJECTS
  0
DICTIONARY
  5
C
100
AcDbDictionary
280
0
281
1
  3
ACAD_GROUP
350
D
  3
ACAD_LAYOUT
350
1A
  3
ACAD_MLINESTYLE
350
17
  3
ACAD_PLOTSETTINGS
350
19
  3
ACAD_PLOTSTYLENAME
350
E
  3
AcDbVariableDictionary
350
C4
  3
QCAD_OBJECTS
350
C5
  0
DICTIONARY
  5
D
100
AcDbDictionary
280
0
281
1
  0
ACDBDICTIONARYWDFLT
  5
E
100
AcDbDictionary
281
1
  3
Normal
350
F
100
AcDbDictionaryWithDefault
340
F
  0
ACDBPLACEHOLDER
  5
F
  0
DICTIONARY
  5
17
100
AcDbDictionary
280
0
281
1
  3
Standard
350
18
  0
MLINESTYLE
  5
18
100
AcDbMlineStyle
  2
STANDARD
 70
0
  3

 62
256
 51
90.0
 52
90.0
 71
2
 49
0.5
 62
256
  6
BYLAYER
 49
-0.5
 62
256
  6
BYLAYER
  0
DICTIONARY
  5
19
100
AcDbDictionary
280
0
281
1
  0
DICTIONARY
  5
1A
100
AcDbDictionary
281
1
  3
Layout1
350
1E
  3
Layout2
350
26
  3
Model
350
22
  0
LAYOUT
  5
1E
100
AcDbPlotSettings
  1

  2
none_device
  4

  6

 40
0.0
 41
0.0
 42
0.0
 43
0.0
 44
0.0
 45
0.0
 46
0.0
 47
0.0
 48
0.0
 49
0.0
140
0.0
141
0.0
142
1.0
143
1.0
 70
688
 72
0
 73
0
 74
5
  7

 75
16
147
1.0
148
0.0
149
0.0
100
AcDbLayout
  1
Layout1
 70
1
 71
1
 10
0.0
 20
0.0
 11
420.0
 21
297.0
 12
0.0
 22
0.0
 32
0.0
 14
100000000000000000000.0
 24
100000000000000000000.0
 34
100000000000000000000.0
 15
-100000000000000000000.0
 25
-100000000000000000000.0
 35
-100000000000000000000.0
146
0.0
 13
0.0
 23
0.0
 33
0.0
 16
1.0
 26
0.0
 36
0.0
 17
0.0
 27
1.0
 37
0.0
 76
0
330
1B
  0
LAYOUT
  5
22
100
AcDbPlotSettings
  1

  2
none_device
  4

  6

 40
0.0
 41
0.0
 42
0.0
 43
0.0
 44
0.0
 45
0.0
 46
0.0
 47
0.0
 48
0.0
 49
0.0
140
0.0
141
0.0
142
1.0
143
1.0
 70
1712
 72
0
 73
0
 74
0
  7

 75
0
147
1.0
148
0.0
149
0.0
100
AcDbLayout
  1
Model
 70
1
 71
0
 10
0.0
 20
0.0
 11
12.0
 21
9.0
 12
0.0
 22
0.0
 32
0.0
 14
0.0
 24
0.0
 34
0.0
 15
0.0
 25
0.0
 35
0.0
146
0.0
 13
0.0
 23
0.0
 33
0.0
 16
1.0
 26
0.0
 36
0.0
 17
0.0
 27
1.0
 37
0.0
 76
0
330
1F
  0
LAYOUT
  5
26
100
AcDbPlotSettings
  1

  2
none_device
  4

  6

 40
0.0
 41
0.0
 42
0.0
 43
0.0
 44
0.0
 45
0.0
 46
0.0
 47
0.0
 48
0.0
 49
0.0
140
0.0
141
0.0
142
1.0
143
1.0
 70
688
 72
0
 73
0
 74
5
  7

 75
16
147
1.0
148
0.0
149
0.0
100
AcDbLayout
  1
Layout2
 70
1
 71
2
 10
0.0
 20
0.0
 11
12.0
 21
9.0
 12
0.0
 22
0.0
 32
0.0
 14
0.0
 24
0.0
 34
0.0
 15
0.0
 25
0.0
 35
0.0
146
0.0
 13
0.0
 23
0.0
 33
0.0
 16
1.0
 26
0.0
 36
0.0
 17
0.0
 27
1.0
 37
0.0
 76
0
330
23
  0
DICTIONARY
  5
C4
100
AcDbDictionary
281
1
  3
DIMASSOC
350
C7
  3
HIDETEXT
350
C6
  0
DICTIONARYVAR
  5
C6
100
DictionaryVariables
280
0
  1
2
  0
DICTIONARYVAR
  5
C7
100
DictionaryVariables
280
0
  1
1
  0
DICTIONARY
  5
C5
100
AcDbDictionary
281
1
  3
ColorSettings/BackgroundColor
350
C8
  3
ColorSettings/ColorMode
350
C9
  3
Grid/DisplayGrid00
350
CA
  3
Grid/DisplayGrid01
350
CB
  3
Grid/DisplayGrid02
350
CC
  3
Grid/DisplayGrid03
350
CD
  3
Grid/GridSpacingX00
350
CE
  3
Grid/GridSpacingX01
350
CF
  3
Grid/GridSpacingX02
350
D0
  3
Grid/GridSpacingX03
350
D1
  3
Grid/GridSpacingY00
350
D2
  3
Grid/GridSpacingY01
350
D3
  3
Grid/GridSpacingY02
350
D4
  3
Grid/GridSpacingY03
350
D5
  3
Grid/IsometricGrid00
350
D6
  3
Grid/IsometricGrid01
350
D7
  3
Grid/IsometricGrid02
350
D8
  3
Grid/IsometricGrid03
350
D9
  3
Grid/IsometricProjection00
350
DA
  3
Grid/IsometricProjection01
350
DB
  3
Grid/IsometricProjection02
350
DC
  3
Grid/IsometricProjection03
350
DD
  3
Grid/MetaGridSpacingX00
350
DE
  3
Grid/MetaGridSpacingX01
350
DF
  3
Grid/MetaGridSpacingX02
350
E0
  3
Grid/MetaGridSpacingX03
350
E1
  3
Grid/MetaGridSpacingY00
350
E2
  3
Grid/MetaGridSpacingY01
350
E3
  3
Grid/MetaGridSpacingY02
350
E4
  3
Grid/MetaGridSpacingY03
350
E5
  3
MultiPageSettings/Columns
350
E6
  3
MultiPageSettings/GlueMarginsBottom
350
E7
  3
MultiPageSettings/GlueMarginsLeft
350
E8
  3
MultiPageSettings/GlueMarginsRight
350
E9
  3
MultiPageSettings/GlueMarginsTop
350
EA
  3
MultiPageSettings/PrintCropMarks
350
EB
  3
MultiPageSettings/Rows
350
EC
  3
PageSettings/OffsetX
350
ED
  3
PageSettings/OffsetY
350
EE
  3
PageSettings/PageOrientation
350
EF
  3
PageSettings/PaperHeight
350
F0
  3
PageSettings/PaperWidth
350
F1
  3
PageSettings/Scale
350
F2
  3
PageSettings/ShowPaperBorders
350
F3
  3
PageTagSettings/EnablePageTags
350
F4
  3
PageTagSettings/TagAlignment
350
F5
  3
PageTagSettings/TagFont
350
F6
  3
PageTagSettings/TagPosition
350
F7
  3
QCADVersion
350
F8
  3
UnitSettings/PaperUnit
350
F9
  3
ViewportCenter
350
FA
  3
ViewportHeight
350
FB
  3
ViewportWidth
350
FC
  0
XRECORD
  5
C8
330
C5
100
AcDbXrecord
280
1
1000
Blanca
  0
XRECORD
  5
C9
330
C5
100
AcDbXrecord
280
1
1000
FullColor
  0
XRECORD
  5
CA
330
C5
100
AcDbXrecord
280
1
290
0
  0
XRECORD
  5
CB
330
C5
100
AcDbXrecord
280
1
290
1
  0
XRECORD
  5
CC
330
C5
100
AcDbXrecord
280
1
290
1
  0
XRECORD
  5
CD
330
C5
100
AcDbXrecord
280
1
290
1
  0
XRECORD
  5
CE
330
C5
100
AcDbXrecord
280
1
1000
auto
  0
XRECORD
  5
CF
330
C5
100
AcDbXrecord
280
1
1000
auto
  0
XRECORD
  5
D0
330
C5
100
AcDbXrecord
280
1
1000
auto
  0
XRECORD
  5
D1
330
C5
100
AcDbXrecord
280
1
1000
auto
  0
XRECORD
  5
D2
330
C5
100
AcDbXrecord
280
1
1000
auto
  0
XRECORD
  5
D3
330
C5
100
AcDbXrecord
280
1
1000
auto
  0
XRECORD
  5
D4
330
C5
100
AcDbXrecord
280
1
1000
auto
  0
XRECORD
  5
D5
330
C5
100
AcDbXrecord
280
1
1000
auto
  0
XRECORD
  5
D6
330
C5
100
AcDbXrecord
280
1
290
0
  0
XRECORD
  5
D7
330
C5
100
AcDbXrecord
280
1
290
0
  0
XRECORD
  5
D8
330
C5
100
AcDbXrecord
280
1
290
0
  0
XRECORD
  5
D9
330
C5
100
AcDbXrecord
280
1
290
0
  0
XRECORD
  5
DA
330
C5
100
AcDbXrecord
280
1
 90
65537
  0
XRECORD
  5
DB
330
C5
100
AcDbXrecord
280
1
 90
65537
  0
XRECORD
  5
DC
330
C5
100
AcDbXrecord
280
1
 90
65537
  0
XRECORD
  5
DD
330
C5
100
AcDbXrecord
280
1
 90
65537
  0
XRECORD
  5
DE
330
C5
100
AcDbXrecord
280
1
1000
auto
  0
XRECORD
  5
DF
330
C5
100
AcDbXrecord
280
1
1000
auto
  0
XRECORD
  5
E0
330
C5
100
AcDbXrecord
280
1
1000
auto
  0
XRECORD
  5
E1
330
C5
100
AcDbXrecord
280
1
1000
auto
  0
XRECORD
  5
E2
330
C5
100
AcDbXrecord
280
1
1000
1
  0
XRECORD
  5
E3
330
C5
100
AcDbXrecord
280
1
1000
auto
  0
XRECORD
  5
E4
330
C5
100
AcDbXrecord
280
1
1000
auto
  0
XRECORD
  5
E5
330
C5
100
AcDbXrecord
280
1
1000
auto
  0
XRECORD
  5
E6
330
C5
100
AcDbXrecord
280
1
 90
1
  0
XRECORD
  5
E7
330
C5
100
AcDbXrecord
280
1
 40
10.0
  0
XRECORD
  5
E8
330
C5
100
AcDbXrecord
280
1
 40
10.0
  0
XRECORD
  5
E9
330
C5
100
AcDbXrecord
280
1
 40
10.0
  0
XRECORD
  5
EA
330
C5
100
AcDbXrecord
280
1
 40
10.0
  0
XRECORD
  5
EB
330
C5
100
AcDbXrecord
280
1
290
0
  0
XRECORD
  5
EC
330
C5
100
AcDbXrecord
280
1
 90
1
  0
XRECORD
  5
ED
330
C5
100
AcDbXrecord
280
1
 40
793.1665914866936191
  0
XRECORD
  5
EE
330
C5
100
AcDbXrecord
280
1
 40
306.6308471493692309
  0
XRECORD
  5
EF
330
C5
100
AcDbXrecord
280
1
1000
Portrait
  0
XRECORD
  5
F0
330
C5
100
AcDbXrecord
280
1
 40
279.3999999999999773
  0
XRECORD
  5
F1
330
C5
100
AcDbXrecord
280
1
 40
215.9000000000000057
  0
XRECORD
  5
F2
330
C5
100
AcDbXrecord
280
1
 90
1
  0
XRECORD
  5
F3
330
C5
100
AcDbXrecord
280
1
290
1
  0
XRECORD
  5
F4
330
C5
100
AcDbXrecord
280
1
290
0
  0
XRECORD
  5
F5
330
C5
100
AcDbXrecord
280
1
1000
Inside
  0
XRECORD
  5
F6
330
C5
100
AcDbXrecord
280
1
1000
Arial,10,-1,5,50,0,0,0,0,0
  0
XRECORD
  5
F7
330
C5
100
AcDbXrecord
280
1
1000
TopLeft
  0
XRECORD
  5
F8
330
C5
100
AcDbXrecord
280
1
1000
3.28.1
  0
XRECORD
  5
F9
330
C5
100
AcDbXrecord
280
1
 90
4
  0
XRECORD
  5
FB
330
C5
100
AcDbXrecord
280
1
 40
113.3111831613488221
  0
XRECORD
  5
FC
330
C5
100
AcDbXrecord
280
1
 40
210.2038071299307376
  0
IMAGEDEF
  5
61
100
AcDbRasterImageDef
 90
0
  1
C:/Users/iamth/Documents/OneDrive/Estudio Aut\U+00f3nomo/CAD/QCad/1. StudyCadCam/2D CAD EXERCISES 90.png
 10
200.0
 20
141.0
 11
1.0
 21
1.0
280
1
281
0
  0
ENDSEC
  0
EOF
