999
dxflib 3.26.4.0
  0
SECTION
  2
HEADER
  9
$ACADVER
  1
AC1015
  9
$HANDSEED
  5
FFFF
  9
$DIMADEC
 70
0
  9
$DIMASZ
 40
2.5
  9
$DIMATFIT
 70
0
  9
$DIMAUNIT
 70
0
  9
$DIMAZIN
 70
2
  9
$DIMBLK
  1
0
  9
$DIMBLK1
  1
0
  9
$DIMBLK2
  1
0
  9
$DIMDEC
 70
4
  9
$DIMDLI
 40
5.0
  9
$DIMDSEP
 70
46
  9
$DIMEXE
 40
1.25
  9
$DIMEXO
 40
0.625
  9
$DIMGAP
 40
0.625
  9
$DIMLFAC
 40
1.0
  9
$DIMLUNIT
 70
2
  9
$DIMSCALE
 40
1.0
  9
$DIMTAD
 70
1
  9
$DIMTIH
 70
0
  9
$DIMTSZ
 40
0.0
  9
$DIMTXT
 40
2.5
  9
$DIMZIN
 70
8
  9
$DWGCODEPAGE
  3
ANSI_1252
  9
$INSUNITS
 70
4
  9
$LTSCALE
 40
1.0
  9
$MAXACTVP
 70
64
  9
$MEASUREMENT
 70
1
  9
$MIRRTEXT
 70
0
  9
$PDMODE
 70
0
  9
$PDSIZE
 40
0.0
  0
ENDSEC
  0
SECTION
  2
TABLES
  0
TABLE
  2
VPORT
  5
8
100
AcDbSymbolTable
 70
1
  0
VPORT
  5
30
100
AcDbSymbolTableRecord
100
AcDbViewportTableRecord
  2
*Active
 70
0
 10
0.0
 20
0.0
 11
1.0
 21
1.0
 12
286.3055555555554861
 22
148.5
 13
0.0
 23
0.0
 14
10.0
 24
10.0
 15
10.0
 25
10.0
 16
0.0
 26
0.0
 36
1.0
 17
0.0
 27
0.0
 37
0.0
 40
297.0
 41
1.92798353909465
 42
50.0
 43
0.0
 44
0.0
 50
0.0
 51
0.0
 71
0
 72
100
 73
1
 74
3
 75
1
 76
1
 77
0
 78
0
281
0
 65
1
110
0.0
120
0.0
130
0.0
111
1.0
121
0.0
131
0.0
112
0.0
122
1.0
132
0.0
 79
0
146
0.0
  0
ENDTAB
  0
TABLE
  2
LTYPE
  5
5
100
AcDbSymbolTable
 70
41
  0
LTYPE
  5
16
100
AcDbSymbolTableRecord
100
AcDbLinetypeTableRecord
  2
Continuous
 70
0
  3
Solid line
 72
65
 73
0
 40
0.0
  0
LTYPE
  5
31
100
AcDbSymbolTableRecord
100
AcDbLinetypeTableRecord
  2
DASHDOT2
 70
0
  3
Dash dot (.5x) _._._._._._._._._._._._._._._.
 72
65
 73
4
 40
12.6999999999999993
 49
6.3499999999999996
 74
0
 49
-3.125
 74
0
 49
0.1
 74
0
 49
-3.125
 74
0
  0
LTYPE
  5
32
100
AcDbSymbolTableRecord
100
AcDbLinetypeTableRecord
  2
DIVIDEX2
 70
0
  3
Divide (2x) ________  .  .  ________  .  .  _
 72
65
 73
6
 40
63.5
 49
25.3999999999999986
 74
0
 49
-12.6499999999999986
 74
0
 49
0.1
 74
0
 49
-12.5999999999999979
 74
0
 49
0.1
 74
0
 49
-12.6499999999999986
 74
0
  0
LTYPE
  5
33
100
AcDbSymbolTableRecord
100
AcDbLinetypeTableRecord
  2
ACAD_ISO11W100
 70
0
  3
ISO double-dash dot __ __ . __ __ . __ __ . __ _
 72
65
 73
6
 40
33.0
 49
12.0
 74
0
 49
-3.0
 74
0
 49
12.0
 74
0
 49
-2.9500000000000002
 74
0
 49
0.1
 74
0
 49
-2.9500000000000002
 74
0
  0
LTYPE
  5
34
100
AcDbSymbolTableRecord
100
AcDbLinetypeTableRecord
  2
DOT2
 70
0
  3
Dot (.5x) ........................................
 72
65
 73
2
 40
3.1749999999999998
 49
0.1
 74
0
 49
-3.0749999999999997
 74
0
  0
LTYPE
  5
35
100
AcDbSymbolTableRecord
100
AcDbLinetypeTableRecord
  2
PHANTOM2
 70
0
  3
Phantom (.5x) ___ _ _ ___ _ _ ___ _ _ ___ _ _
 72
65
 73
6
 40
31.7500000000000036
 49
15.875
 74
0
 49
-3.1749999999999998
 74
0
 49
3.1749999999999998
 74
0
 49
-3.1749999999999998
 74
0
 49
3.1749999999999998
 74
0
 49
-3.1749999999999998
 74
0
  0
LTYPE
  5
36
100
AcDbSymbolTableRecord
100
AcDbLinetypeTableRecord
  2
CENTER
 70
0
  3
Center ____ _ ____ _ ____ _ ____ _ ____ _ ____
 72
65
 73
4
 40
50.8000000000000043
 49
31.75
 74
0
 49
-6.3499999999999996
 74
0
 49
6.3499999999999996
 74
0
 49
-6.3499999999999996
 74
0
  0
LTYPE
  5
37
100
AcDbSymbolTableRecord
100
AcDbLinetypeTableRecord
  2
ACAD_ISO06W100
 70
0
  3
ISO long-dash triple-dot ____ ... ____ ... ____
 72
65
 73
8
 40
36.0000000000000071
 49
24.0
 74
0
 49
-2.9500000000000002
 74
0
 49
0.1
 74
0
 49
-2.9000000000000004
 74
0
 49
0.1
 74
0
 49
-2.9000000000000004
 74
0
 49
0.1
 74
0
 49
-2.9500000000000002
 74
0
  0
LTYPE
  5
38
100
AcDbSymbolTableRecord
100
AcDbLinetypeTableRecord
  2
PHANTOMX2
 70
0
  3
Phantom (2x) ____________    ____    ____   _
 72
65
 73
6
 40
127.0000000000000142
 49
63.5
 74
0
 49
-12.6999999999999993
 74
0
 49
12.6999999999999993
 74
0
 49
-12.6999999999999993
 74
0
 49
12.6999999999999993
 74
0
 49
-12.6999999999999993
 74
0
  0
LTYPE
  5
39
100
AcDbSymbolTableRecord
100
AcDbLinetypeTableRecord
  2
CENTER2
 70
0
  3
Center (.5x) ___ _ ___ _ ___ _ ___ _ ___ _ ___
 72
65
 73
4
 40
28.5750000000000028
 49
19.0500000000000007
 74
0
 49
-3.1749999999999998
 74
0
 49
3.1749999999999998
 74
0
 49
-3.1749999999999998
 74
0
  0
LTYPE
  5
3A
100
AcDbSymbolTableRecord
100
AcDbLinetypeTableRecord
  2
ACAD_ISO05W100
 70
0
  3
ISO long-dash double-dot ____ .. ____ .. ____ . 
 72
65
 73
6
 40
33.0000000000000071
 49
24.0
 74
0
 49
-2.9500000000000002
 74
0
 49
0.1
 74
0
 49
-2.9000000000000004
 74
0
 49
0.1
 74
0
 49
-2.9500000000000002
 74
0
  0
LTYPE
  5
3B
100
AcDbSymbolTableRecord
100
AcDbLinetypeTableRecord
  2
ACAD_ISO15W100
 70
0
  3
ISO double-dash triple-dot __ __ . . . __ __ . .
 72
65
 73
10
 40
39.0000000000000071
 49
12.0
 74
0
 49
-3.0
 74
0
 49
12.0
 74
0
 49
-2.9500000000000002
 74
0
 49
0.1
 74
0
 49
-2.9000000000000004
 74
0
 49
0.1
 74
0
 49
-2.9000000000000004
 74
0
 49
0.1
 74
0
 49
-2.9500000000000002
 74
0
  0
LTYPE
  5
3C
100
AcDbSymbolTableRecord
100
AcDbLinetypeTableRecord
  2
ACAD_ISO03W100
 70
0
  3
ISO dash space __    __    __    __    __    __
 72
65
 73
2
 40
30.0
 49
12.0
 74
0
 49
-18.0
 74
0
  0
LTYPE
  5
3D
100
AcDbSymbolTableRecord
100
AcDbLinetypeTableRecord
  2
ACAD_ISO12W100
 70
0
  3
ISO dash double-dot __ . . __ . . __ . . __ . . 
 72
65
 73
6
 40
21.0
 49
12.0
 74
0
 49
-2.9500000000000002
 74
0
 49
0.1
 74
0
 49
-2.9000000000000004
 74
0
 49
0.1
 74
0
 49
-2.9500000000000002
 74
0
  0
LTYPE
  5
14
100
AcDbSymbolTableRecord
100
AcDbLinetypeTableRecord
  2
BYBLOCK
 70
0
  3

 72
65
 73
0
 40
0.0
  0
LTYPE
  5
3E
100
AcDbSymbolTableRecord
100
AcDbLinetypeTableRecord
  2
HIDDEN2
 70
0
  3
Hidden (.5x) _ _ _ _ _ _ _ _ _ _ _ _ _ _ _ _ _ 
 72
65
 73
2
 40
4.7624999999999993
 49
3.1749999999999998
 74
0
 49
-1.5874999999999999
 74
0
  0
LTYPE
  5
3F
100
AcDbSymbolTableRecord
100
AcDbLinetypeTableRecord
  2
BORDERX2
 70
0
  3
Border (2x) ____  ____  .  ____  ____  .  ___
 72
65
 73
6
 40
88.8999999999999773
 49
25.3999999999999986
 74
0
 49
-12.6999999999999993
 74
0
 49
25.3999999999999986
 74
0
 49
-12.6499999999999986
 74
0
 49
0.1
 74
0
 49
-12.6499999999999986
 74
0
  0
LTYPE
  5
40
100
AcDbSymbolTableRecord
100
AcDbLinetypeTableRecord
  2
ACAD_ISO10W100
 70
0
  3
ISO dash dot __ . __ . __ . __ . __ . __ . __ . 
 72
65
 73
4
 40
18.0
 49
12.0
 74
0
 49
-2.9500000000000002
 74
0
 49
0.1
 74
0
 49
-2.9500000000000002
 74
0
  0
LTYPE
  5
41
100
AcDbSymbolTableRecord
100
AcDbLinetypeTableRecord
  2
DASHED2
 70
0
  3
Dashed (.5x) _ _ _ _ _ _ _ _ _ _ _ _ _ _ _ _ _ 
 72
65
 73
2
 40
9.5249999999999986
 49
6.3499999999999996
 74
0
 49
-3.1749999999999998
 74
0
  0
LTYPE
  5
42
100
AcDbSymbolTableRecord
100
AcDbLinetypeTableRecord
  2
BORDER
 70
0
  3
Border __ __ . __ __ . __ __ . __ __ . __ __ .
 72
65
 73
6
 40
44.4499999999999957
 49
12.6999999999999993
 74
0
 49
-6.3499999999999996
 74
0
 49
12.6999999999999993
 74
0
 49
-6.2999999999999998
 74
0
 49
0.1
 74
0
 49
-6.2999999999999998
 74
0
  0
LTYPE
  5
43
100
AcDbSymbolTableRecord
100
AcDbLinetypeTableRecord
  2
DIVIDE
 70
0
  3
Divide ____ . . ____ . . ____ . . ____ . . ____
 72
65
 73
6
 40
31.7500000000000036
 49
12.6999999999999993
 74
0
 49
-6.2999999999999998
 74
0
 49
0.1
 74
0
 49
-6.25
 74
0
 49
0.1
 74
0
 49
-6.2999999999999998
 74
0
  0
LTYPE
  5
44
100
AcDbSymbolTableRecord
100
AcDbLinetypeTableRecord
  2
ACAD_ISO09W100
 70
0
  3
ISO long-dash double-short-dash ____ __ __ ____
 72
65
 73
6
 40
45.0
 49
24.0
 74
0
 49
-3.0
 74
0
 49
6.0
 74
0
 49
-3.0
 74
0
 49
6.0
 74
0
 49
-3.0
 74
0
  0
LTYPE
  5
45
100
AcDbSymbolTableRecord
100
AcDbLinetypeTableRecord
  2
ACAD_ISO02W100
 70
0
  3
ISO dash __ __ __ __ __ __ __ __ __ __ __ __ __
 72
65
 73
2
 40
15.0
 49
12.0
 74
0
 49
-3.0
 74
0
  0
LTYPE
  5
15
100
AcDbSymbolTableRecord
100
AcDbLinetypeTableRecord
  2
BYLAYER
 70
0
  3

 72
65
 73
0
 40
0.0
  0
LTYPE
  5
46
100
AcDbSymbolTableRecord
100
AcDbLinetypeTableRecord
  2
BORDER2
 70
0
  3
Border (.5x) __.__.__.__.__.__.__.__.__.__.__.
 72
65
 73
6
 40
22.2250000000000014
 49
6.3499999999999996
 74
0
 49
-3.1749999999999998
 74
0
 49
6.3499999999999996
 74
0
 49
-3.125
 74
0
 49
0.1
 74
0
 49
-3.125
 74
0
  0
LTYPE
  5
47
100
AcDbSymbolTableRecord
100
AcDbLinetypeTableRecord
  2
ACAD_ISO14W100
 70
0
  3
ISO dash triple-dot __ . . . __ . . . __ . . . _
 72
65
 73
8
 40
24.0000000000000036
 49
12.0
 74
0
 49
-2.9500000000000002
 74
0
 49
0.1
 74
0
 49
-2.9000000000000004
 74
0
 49
0.1
 74
0
 49
-2.9000000000000004
 74
0
 49
0.1
 74
0
 49
-2.9500000000000002
 74
0
  0
LTYPE
  5
48
100
AcDbSymbolTableRecord
100
AcDbLinetypeTableRecord
  2
DIVIDE2
 70
0
  3
Divide (.5x) __..__..__..__..__..__..__..__.._
 72
65
 73
6
 40
15.8749999999999982
 49
6.3499999999999996
 74
0
 49
-3.125
 74
0
 49
0.1
 74
0
 49
-3.0750000000000002
 74
0
 49
0.1
 74
0
 49
-3.125
 74
0
  0
LTYPE
  5
49
100
AcDbSymbolTableRecord
100
AcDbLinetypeTableRecord
  2
HIDDEN
 70
0
  3
Hidden __ __ __ __ __ __ __ __ __ __ __ __ __ __
 72
65
 73
2
 40
9.5249999999999986
 49
6.3499999999999996
 74
0
 49
-3.1749999999999998
 74
0
  0
LTYPE
  5
4A
100
AcDbSymbolTableRecord
100
AcDbLinetypeTableRecord
  2
DOTX2
 70
0
  3
Dot (2x) .  .  .  .  .  .  .  .  .  .  .  .  .  .
 72
65
 73
2
 40
12.6999999999999993
 49
0.1
 74
0
 49
-12.5999999999999996
 74
0
  0
LTYPE
  5
4B
100
AcDbSymbolTableRecord
100
AcDbLinetypeTableRecord
  2
ACAD_ISO13W100
 70
0
  3
ISO double-dash double-dot __ __ . . __ __ . . _
 72
65
 73
8
 40
36.0000000000000071
 49
12.0
 74
0
 49
-3.0
 74
0
 49
12.0
 74
0
 49
-2.9500000000000002
 74
0
 49
0.1
 74
0
 49
-2.9000000000000004
 74
0
 49
0.1
 74
0
 49
-2.9500000000000002
 74
0
  0
LTYPE
  5
4C
100
AcDbSymbolTableRecord
100
AcDbLinetypeTableRecord
  2
ACAD_ISO08W100
 70
0
  3
ISO long-dash short-dash ____ __ ____ __ ____ _
 72
65
 73
4
 40
36.0
 49
24.0
 74
0
 49
-3.0
 74
0
 49
6.0
 74
0
 49
-3.0
 74
0
  0
LTYPE
  5
4D
100
AcDbSymbolTableRecord
100
AcDbLinetypeTableRecord
  2
DASHDOTX2
 70
0
  3
Dash dot (2x) ____  .  ____  .  ____  .  ___
 72
65
 73
4
 40
50.7999999999999972
 49
25.3999999999999986
 74
0
 49
-12.6499999999999986
 74
0
 49
0.1
 74
0
 49
-12.6499999999999986
 74
0
  0
LTYPE
  5
4E
100
AcDbSymbolTableRecord
100
AcDbLinetypeTableRecord
  2
HIDDENX2
 70
0
  3
Hidden (2x) ____ ____ ____ ____ ____ ____ ____ 
 72
65
 73
2
 40
19.0499999999999972
 49
12.6999999999999993
 74
0
 49
-6.3499999999999996
 74
0
  0
LTYPE
  5
4F
100
AcDbSymbolTableRecord
100
AcDbLinetypeTableRecord
  2
DOT
 70
0
  3
Dot . . . . . . . . . . . . . . . . . . . . . . . .
 72
65
 73
2
 40
6.3499999999999996
 49
0.1
 74
0
 49
-6.25
 74
0
  0
LTYPE
  5
50
100
AcDbSymbolTableRecord
100
AcDbLinetypeTableRecord
  2
CENTERX2
 70
0
  3
Center (2x) ________  __  ________  __  _____
 72
65
 73
4
 40
101.6000000000000085
 49
63.5
 74
0
 49
-12.6999999999999993
 74
0
 49
12.6999999999999993
 74
0
 49
-12.6999999999999993
 74
0
  0
LTYPE
  5
51
100
AcDbSymbolTableRecord
100
AcDbLinetypeTableRecord
  2
DASHED
 70
0
  3
Dashed __ __ __ __ __ __ __ __ __ __ __ __ __ _
 72
65
 73
2
 40
19.0499999999999972
 49
12.6999999999999993
 74
0
 49
-6.3499999999999996
 74
0
  0
LTYPE
  5
52
100
AcDbSymbolTableRecord
100
AcDbLinetypeTableRecord
  2
DASHEDX2
 70
0
  3
Dashed (2x) ____  ____  ____  ____  ____  ___
 72
65
 73
2
 40
38.0999999999999943
 49
25.3999999999999986
 74
0
 49
-12.6999999999999993
 74
0
  0
LTYPE
  5
53
100
AcDbSymbolTableRecord
100
AcDbLinetypeTableRecord
  2
PHANTOM
 70
0
  3
Phantom ______  __  __  ______  __  __  ______ 
 72
65
 73
6
 40
63.5000000000000071
 49
31.75
 74
0
 49
-6.3499999999999996
 74
0
 49
6.3499999999999996
 74
0
 49
-6.3499999999999996
 74
0
 49
6.3499999999999996
 74
0
 49
-6.3499999999999996
 74
0
  0
LTYPE
  5
54
100
AcDbSymbolTableRecord
100
AcDbLinetypeTableRecord
  2
ACAD_ISO04W100
 70
0
  3
ISO long-dash dot ____ . ____ . ____ . ____ . _
 72
65
 73
4
 40
30.0
 49
24.0
 74
0
 49
-2.9500000000000002
 74
0
 49
0.1
 74
0
 49
-2.9500000000000002
 74
0
  0
LTYPE
  5
55
100
AcDbSymbolTableRecord
100
AcDbLinetypeTableRecord
  2
DASHDOT
 70
0
  3
Dash dot __ . __ . __ . __ . __ . __ . __ . __
 72
65
 73
4
 40
25.4000000000000021
 49
12.6999999999999993
 74
0
 49
-6.2999999999999998
 74
0
 49
0.1
 74
0
 49
-6.2999999999999998
 74
0
  0
LTYPE
  5
56
100
AcDbSymbolTableRecord
100
AcDbLinetypeTableRecord
  2
ACAD_ISO07W100
 70
0
  3
ISO dot . . . . . . . . . . . . . . . . . . . . 
 72
65
 73
2
 40
3.0
 49
0.1
 74
0
 49
-2.8999999999999999
 74
0
  0
ENDTAB
  0
TABLE
  2
LAYER
  5
2
100
AcDbSymbolTable
 70
7
  0
LAYER
  5
57
100
AcDbSymbolTableRecord
100
AcDbLayerTableRecord
  2
Contornos Ocultos
 70
0
 62
252
420
10526884
  6
ACAD_ISO02W100
370
30
390
F
  0
LAYER
  5
58
100
AcDbSymbolTableRecord
100
AcDbLayerTableRecord
  2
Referencias
 70
5
 62
2
420
16776960
  6
Continuous
370
25
390
F
  0
LAYER
  5
59
100
AcDbSymbolTableRecord
100
AcDbLayerTableRecord
  2
Cotas
 70
0
 62
1
420
16711680
  6
Continuous
370
20
390
F
  0
LAYER
  5
5A
100
AcDbSymbolTableRecord
100
AcDbLayerTableRecord
  2
Ejes de revoluci\U+00f3n
 70
0
 62
6
420
16711935
  6
ACAD_ISO04W100
370
20
390
F
  0
LAYER
  5
5B
100
AcDbSymbolTableRecord
100
AcDbLayerTableRecord
  2
Referencias 2
 70
5
 62
3
420
65280
  6
Continuous
370
25
390
F
  0
LAYER
  5
5C
100
AcDbSymbolTableRecord
100
AcDbLayerTableRecord
  2
Contornos Visibles
 70
0
 62
7
420
16777215
  6
Continuous
370
50
390
F
  0
LAYER
  5
10
100
AcDbSymbolTableRecord
100
AcDbLayerTableRecord
  2
0
 70
0
 62
7
420
16777215
  6
Continuous
370
25
390
F
  0
ENDTAB
  0
TABLE
  2
STYLE
  5
3
100
AcDbSymbolTable
 70
1
  0
STYLE
  5
5D
100
AcDbSymbolTableRecord
100
AcDbTextStyleTableRecord
  2
Standard
 70
0
 40
0.0
 41
1.0
 50
0.0
 71
0
 42
2.5
  3

  4

1001
ACAD
1000
txt
1071
0
  0
ENDTAB
  0
TABLE
  2
VIEW
  5
6
100
AcDbSymbolTable
 70
0
  0
ENDTAB
  0
TABLE
  2
UCS
  5
7
100
AcDbSymbolTable
 70
0
  0
ENDTAB
  0
TABLE
  2
APPID
  5
9
100
AcDbSymbolTable
 70
1
  0
APPID
  5
12
100
AcDbSymbolTableRecord
100
AcDbRegAppTableRecord
  2
ACAD
 70
0
  0
APPID
  5
5E
100
AcDbSymbolTableRecord
100
AcDbRegAppTableRecord
  2
QCAD
 70
0
  0
ENDTAB
  0
TABLE
  2
DIMSTYLE
  5
A
100
AcDbSymbolTable
 70
1
100
AcDbDimStyleTable
 71
0
  0
DIMSTYLE
105
27
100
AcDbSymbolTableRecord
100
AcDbDimStyleTableRecord
  2
Standard
 41
2.5
 42
0.625
 43
3.75
 44
1.25
 70
0
 73
0
 74
0
 77
1
 78
8
140
2.5
141
2.5
143
0.03937007874016
147
0.625
171
3
172
1
271
2
272
2
274
3
278
44
283
0
284
8
340
5D
  0
ENDTAB
  0
TABLE
  2
BLOCK_RECORD
  5
1
100
AcDbSymbolTable
 70
1
  0
BLOCK_RECORD
  5
1F
100
AcDbSymbolTableRecord
100
AcDbBlockTableRecord
  2
*Model_Space
340
22
  0
BLOCK_RECORD
  5
1B
100
AcDbSymbolTableRecord
100
AcDbBlockTableRecord
  2
*Paper_Space
340
1E
  0
BLOCK_RECORD
  5
23
100
AcDbSymbolTableRecord
100
AcDbBlockTableRecord
  2
*Paper_Space0
340
26
  0
ENDTAB
  0
ENDSEC
  0
SECTION
  2
BLOCKS
  0
BLOCK
  5
20
100
AcDbEntity
  8
0
100
AcDbBlockBegin
  2
*Model_Space
 70
0
 10
0.0
 20
0.0
 30
0.0
  3
*Model_Space
  1

  0
ENDBLK
  5
21
100
AcDbEntity
  8
0
100
AcDbBlockEnd
  0
BLOCK
  5
1C
100
AcDbEntity
 67
1
  8
0
100
AcDbBlockBegin
  2
*Paper_Space
 70
0
 10
0.0
 20
0.0
 30
0.0
  3
*Paper_Space
  1

  0
ENDBLK
  5
1D
100
AcDbEntity
 67
1
  8
0
100
AcDbBlockEnd
  0
BLOCK
  5
24
100
AcDbEntity
  8
0
100
AcDbBlockBegin
  2
*Paper_Space0
 70
0
 10
0.0
 20
0.0
 30
0.0
  3
*Paper_Space0
  1

  0
ENDBLK
  5
25
100
AcDbEntity
  8
0
100
AcDbBlockEnd
  0
ENDSEC
  0
SECTION
  2
ENTITIES
  0
IMAGE
  5
5F
100
AcDbEntity
  8
0
 62
256
370
-1
 48
1.0
  6
BYLAYER
100
AcDbRasterImage
 90
0
 10
1402.2132737396912034
 20
251.3265033909050317
 30
0.0
 11
0.09765625
 21
0.0
 31
0.0
 12
0.0
 22
0.09765625
 32
0.0
 13
200.0
 23
141.0
340
60
 70
15
280
0
281
50
282
50
283
0
  0
LINE
  5
61
100
AcDbEntity
  8
Contornos Visibles
 62
256
370
-1
 48
1.0
  6
BYLAYER
100
AcDbLine
 10
1725.9750954160776928
 20
327.6645184189330848
 30
0.0
 11
1725.9750954160776928
 21
351.6645184189330848
 31
0.0
  0
LINE
  5
62
100
AcDbEntity
  8
Contornos Visibles
 62
256
370
-1
 48
1.0
  6
BYLAYER
100
AcDbLine
 10
1725.9750954160776928
 20
351.6645184189330848
 30
0.0
 11
1725.9750954160776928
 21
375.6645184189330848
 31
0.0
  0
LINE
  5
63
100
AcDbEntity
  8
Contornos Visibles
 62
256
370
-1
 48
1.0
  6
BYLAYER
100
AcDbLine
 10
1725.9750954160776928
 20
375.6645184189330848
 30
0.0
 11
1761.9750954160776928
 21
375.6645184189330848
 31
0.0
  0
LINE
  5
64
100
AcDbEntity
  8
Contornos Visibles
 62
256
370
-1
 48
1.0
  6
BYLAYER
100
AcDbLine
 10
1761.9750954160776928
 20
375.6645184189330848
 30
0.0
 11
1797.9750954160776928
 21
375.6645184189330848
 31
0.0
  0
LINE
  5
65
100
AcDbEntity
  8
Contornos Visibles
 62
256
370
-1
 48
1.0
  6
BYLAYER
100
AcDbLine
 10
1725.9750954160776928
 20
327.6645184189330848
 30
0.0
 11
1797.9750954160776928
 21
327.6645184189330848
 31
0.0
  0
LINE
  5
66
100
AcDbEntity
  8
Contornos Visibles
 62
256
370
-1
 48
1.0
  6
BYLAYER
100
AcDbLine
 10
1797.9750954160776928
 20
327.6645184189330848
 30
0.0
 11
1797.9750954160776928
 21
375.6645184189330848
 31
0.0
  0
LINE
  5
67
100
AcDbEntity
  8
Referencias
 62
256
370
-1
 48
1.0
  6
BYLAYER
100
AcDbLine
 10
1725.9750954160776928
 20
351.6645184189330848
 30
0.0
 11
1797.9750954160776928
 21
351.6645184189330848
 31
0.0
  0
LINE
  5
68
100
AcDbEntity
  8
Referencias
 62
256
370
-1
 48
1.0
  6
BYLAYER
100
AcDbLine
 10
1761.9750954160776928
 20
375.6645184189330848
 30
0.0
 11
1761.9750954160776928
 21
327.6645184189330848
 31
0.0
  0
LINE
  5
69
100
AcDbEntity
  8
Referencias
 62
256
370
-1
 48
1.0
  6
BYLAYER
100
AcDbLine
 10
1725.9750954160776928
 20
375.6645184189330848
 30
0.0
 11
1761.9750954160776928
 21
351.6645184189330848
 31
0.0
  0
LINE
  5
6A
100
AcDbEntity
  8
Referencias
 62
256
370
-1
 48
1.0
  6
BYLAYER
100
AcDbLine
 10
1761.9750954160776928
 20
351.6645184189330848
 30
0.0
 11
1797.9750954160776928
 21
375.6645184189330848
 31
0.0
  0
LINE
  5
6B
100
AcDbEntity
  8
Referencias
 62
256
370
-1
 48
1.0
  6
BYLAYER
100
AcDbLine
 10
1797.9750954160776928
 20
327.6645184189330848
 30
0.0
 11
1761.9750954160776928
 21
351.6645184189329711
 31
0.0
  0
LINE
  5
6C
100
AcDbEntity
  8
Referencias
 62
256
370
-1
 48
1.0
  6
BYLAYER
100
AcDbLine
 10
1761.9750954160776928
 20
351.6645184189329711
 30
0.0
 11
1725.9750954160776928
 21
327.6645184189330848
 31
0.0
  0
CIRCLE
  5
6D
100
AcDbEntity
  8
Contornos Visibles
 62
256
370
-1
 48
1.0
  6
BYLAYER
100
AcDbCircle
 10
1761.975095416077238
 20
351.664518418933028
 30
0.0
 40
12.0
  0
ARC
  5
6E
100
AcDbEntity
  8
Referencias 2
 62
256
370
-1
 48
1.0
  6
BYLAYER
100
AcDbCircle
 10
1756.9827936500500982
 20
354.9927195962845303
 30
0.0
 40
6.0000000000000409
100
AcDbArc
 50
326.3099324740127258
 51
146.3099324740197744
  0
ARC
  5
6F
100
AcDbEntity
  8
Contornos Visibles
 62
256
370
-1
 48
1.0
  6
BYLAYER
100
AcDbCircle
 10
1756.9827936500500982
 20
354.9927195962845303
 30
0.0
 40
6.0000000000000409
100
AcDbArc
 50
146.3099324740197744
 51
326.3099324740127258
  0
ARC
  5
70
100
AcDbEntity
  8
Contornos Visibles
 62
256
370
-1
 48
1.0
  6
BYLAYER
100
AcDbCircle
 10
1766.9673971821048326
 20
348.3363172415816962
 30
0.0
 40
5.9999999999996154
100
AcDbArc
 50
326.3099324740233556
 51
146.3099324740090879
  0
ARC
  5
71
100
AcDbEntity
  8
Referencias 2
 62
256
370
-1
 48
1.0
  6
BYLAYER
100
AcDbCircle
 10
1766.9673971821048326
 20
348.3363172415816962
 30
0.0
 40
5.9999999999996154
100
AcDbArc
 50
146.3099324740090879
 51
326.3099324740233556
  0
CIRCLE
  5
72
100
AcDbEntity
  8
Referencias 2
 62
256
370
-1
 48
1.0
  6
BYLAYER
100
AcDbCircle
 10
1761.9750954160776928
 20
351.6645184189338806
 30
0.0
 40
18.0
  0
LINE
  5
73
100
AcDbEntity
  8
Contornos Visibles
 62
256
370
-1
 48
1.0
  6
BYLAYER
100
AcDbLine
 10
1743.6430326971701561
 20
356.6748965156606914
 30
0.0
 11
1750.3533475388210263
 21
366.6233473863199492
 31
0.0
  0
LINE
  5
74
100
AcDbEntity
  8
Contornos Visibles
 62
256
370
-1
 48
1.0
  6
BYLAYER
100
AcDbLine
 10
1741.9849575520599956
 20
357.7932823226020673
 30
0.0
 11
1748.6952723937108658
 21
367.7417331932613251
 31
0.0
  0
LINE
  5
75
100
AcDbEntity
  8
Contornos Visibles
 62
256
370
-1
 48
1.0
  6
BYLAYER
100
AcDbLine
 10
1741.1559199795049153
 20
358.3524752260727837
 30
0.0
 11
1747.8662348211557855
 21
368.3009260967320415
 31
0.0
  0
LINE
  5
76
100
AcDbEntity
  8
Contornos Visibles
 62
256
370
-1
 48
1.0
  6
BYLAYER
100
AcDbLine
 10
1739.4978448343947548
 20
359.4708610330141596
 30
0.0
 11
1746.208159676045625
 21
369.4193119036734174
 31
0.0
  0
LINE
  5
77
100
AcDbEntity
  8
Contornos Visibles
 62
256
370
-1
 48
1.0
  6
BYLAYER
100
AcDbLine
 10
1738.6688072618399019
 20
360.0300539364850465
 30
0.0
 11
1745.3791221034907721
 21
369.9785048071443043
 31
0.0
  0
LINE
  5
78
100
AcDbEntity
  8
Contornos Visibles
 62
256
370
-1
 48
1.0
  6
BYLAYER
100
AcDbLine
 10
1737.0107321167297414
 20
361.1484397434264224
 30
0.0
 11
1743.7210469583806116
 21
371.0968906140856802
 31
0.0
  0
LINE
  5
79
100
AcDbEntity
  8
Contornos Visibles
 62
256
370
-1
 48
1.0
  6
BYLAYER
100
AcDbLine
 10
1782.7942708526495608
 20
358.3524752260688615
 30
0.0
 11
1776.0839560110005095
 21
368.3009260967293699
 31
0.0
  0
LINE
  5
7A
100
AcDbEntity
  8
Contornos Visibles
 62
256
370
-1
 48
1.0
  6
BYLAYER
100
AcDbLine
 10
1784.4523459977599487
 20
359.4708610330098963
 30
0.0
 11
1777.7420311561108974
 21
369.4193119036704047
 31
0.0
  0
LINE
  5
7B
100
AcDbEntity
  8
Contornos Visibles
 62
256
370
-1
 48
1.0
  6
BYLAYER
100
AcDbLine
 10
1778.3365291980055645
 20
363.1730573609858084
 30
0.0
 11
1775.2549184384452019
 21
367.741733193258824
 31
0.0
  0
LINE
  5
7C
100
AcDbEntity
  8
Contornos Visibles
 62
256
370
-1
 48
1.0
  6
BYLAYER
100
AcDbLine
 10
1781.9652332800942531
 20
357.7932823225983157
 30
0.0
 11
1778.8957221014763945
 21
362.3440197884307281
 31
0.0
  0
LINE
  5
7D
100
AcDbEntity
  8
Contornos Visibles
 62
256
370
-1
 48
1.0
  6
BYLAYER
100
AcDbLine
 10
1780.3071581349838652
 20
356.674896515657224
 30
0.0
 11
1777.2315971658947547
 21
361.2346031647098243
 31
0.0
  0
LINE
  5
7E
100
AcDbEntity
  8
Contornos Visibles
 62
256
370
-1
 48
1.0
  6
BYLAYER
100
AcDbLine
 10
1776.672404262424152
 20
362.0636407372649614
 30
0.0
 11
1773.5968432933350414
 21
366.6233473863177892
 31
0.0
  0
LINE
  5
7F
100
AcDbEntity
  8
Contornos Visibles
 62
256
370
-1
 48
1.0
  6
BYLAYER
100
AcDbLine
 10
1781.6647790691683895
 20
365.3918906084276728
 30
0.0
 11
1778.5710687286657503
 21
369.9785048071411779
 31
0.0
  0
LINE
  5
80
100
AcDbEntity
  8
Contornos Visibles
 62
256
370
-1
 48
1.0
  6
BYLAYER
100
AcDbLine
 10
1783.328904004749802
 20
366.5013072321487471
 30
0.0
 11
1780.2291438737761382
 21
371.0968906140822128
 31
0.0
  0
LINE
  5
81
100
AcDbEntity
  8
Contornos Visibles
 62
256
370
-1
 48
1.0
  6
BYLAYER
100
AcDbLine
 10
1786.9394587154251894
 20
361.1484397434217044
 30
0.0
 11
1783.888096908220632
 21
365.6722696595937805
 31
0.0
  0
LINE
  5
82
100
AcDbEntity
  8
Contornos Visibles
 62
256
370
-1
 48
1.0
  6
BYLAYER
100
AcDbLine
 10
1785.2813835703148015
 20
360.0300539364806127
 30
0.0
 11
1782.2239719726392195
 21
364.5628530358727062
 31
0.0
  0
LINE
  5
83
100
AcDbEntity
  8
Contornos Visibles
 62
256
370
-1
 48
1.0
  6
BYLAYER
100
AcDbLine
 10
1778.3365291980055645
 20
340.1559794768802476
 30
0.0
 11
1775.2549184384452019
 21
335.5873036446072319
 31
0.0
  0
LINE
  5
84
100
AcDbEntity
  8
Contornos Visibles
 62
256
370
-1
 48
1.0
  6
BYLAYER
100
AcDbLine
 10
1781.9652332800942531
 20
345.5357545152677403
 30
0.0
 11
1778.8957221014763945
 21
340.9850170494353279
 31
0.0
  0
LINE
  5
85
100
AcDbEntity
  8
Contornos Visibles
 62
256
370
-1
 48
1.0
  6
BYLAYER
100
AcDbLine
 10
1780.3071581349838652
 20
346.654140322208832
 30
0.0
 11
1777.2315971658947547
 21
342.0944336731562316
 31
0.0
  0
LINE
  5
86
100
AcDbEntity
  8
Contornos Visibles
 62
256
370
-1
 48
1.0
  6
BYLAYER
100
AcDbLine
 10
1776.672404262424152
 20
341.2653961006010945
 30
0.0
 11
1773.5968432933350414
 21
336.7056894515482668
 31
0.0
  0
LINE
  5
87
100
AcDbEntity
  8
Contornos Visibles
 62
256
370
-1
 48
1.0
  6
BYLAYER
100
AcDbLine
 10
1780.8236419156705779
 20
338.4784007664685532
 30
0.0
 11
1777.7420311561102153
 21
333.9097249341955376
 31
0.0
  0
LINE
  5
88
100
AcDbEntity
  8
Contornos Visibles
 62
256
370
-1
 48
1.0
  6
BYLAYER
100
AcDbLine
 10
1784.4523459977592665
 20
343.8581758048560459
 30
0.0
 11
1781.3828348191414079
 21
339.3074383390236335
 31
0.0
  0
LINE
  5
89
100
AcDbEntity
  8
Contornos Visibles
 62
256
370
-1
 48
1.0
  6
BYLAYER
100
AcDbLine
 10
1782.7942708526488786
 20
344.9765616117971376
 30
0.0
 11
1779.7187098835597681
 21
340.4168549627445373
 31
0.0
  0
LINE
  5
8A
100
AcDbEntity
  8
Contornos Visibles
 62
256
370
-1
 48
1.0
  6
BYLAYER
100
AcDbLine
 10
1779.1595169800891654
 20
339.5878173901894002
 30
0.0
 11
1776.0839560110000548
 21
335.0281107411365724
 31
0.0
  0
LINE
  5
8B
100
AcDbEntity
  8
Contornos Visibles
 62
256
370
-1
 48
1.0
  6
BYLAYER
100
AcDbLine
 10
1783.3107546333355913
 20
336.8008220560566883
 30
0.0
 11
1780.2291438737752287
 21
332.2321462237836727
 31
0.0
  0
LINE
  5
8C
100
AcDbEntity
  8
Contornos Visibles
 62
256
370
-1
 48
1.0
  6
BYLAYER
100
AcDbLine
 10
1786.9394587154242799
 20
342.180597094444181
 30
0.0
 11
1783.8699475368064213
 21
337.6298596286117686
 31
0.0
  0
LINE
  5
8D
100
AcDbEntity
  8
Contornos Visibles
 62
256
370
-1
 48
1.0
  6
BYLAYER
100
AcDbLine
 10
1785.2813835703138921
 20
343.2989829013852727
 30
0.0
 11
1782.2058226012247815
 21
338.7392762523326724
 31
0.0
  0
LINE
  5
8E
100
AcDbEntity
  8
Contornos Visibles
 62
256
370
-1
 48
1.0
  6
BYLAYER
100
AcDbLine
 10
1781.6466296977541788
 20
337.9102386797775353
 30
0.0
 11
1778.5710687286650682
 21
333.3505320307247075
 31
0.0
  0
LINE
  5
8F
100
AcDbEntity
  8
Contornos Visibles
 62
256
370
-1
 48
1.0
  6
BYLAYER
100
AcDbLine
 10
1741.9849575520599956
 20
345.535754515263875
 30
0.0
 11
1748.6952723937108658
 21
335.5873036446046171
 31
0.0
  0
LINE
  5
90
100
AcDbEntity
  8
Contornos Visibles
 62
256
370
-1
 48
1.0
  6
BYLAYER
100
AcDbLine
 10
1743.6430326971701561
 20
346.6541403222052509
 30
0.0
 11
1750.3533475388210263
 21
336.7056894515459931
 31
0.0
  0
LINE
  5
91
100
AcDbEntity
  8
Contornos Visibles
 62
256
370
-1
 48
1.0
  6
BYLAYER
100
AcDbLine
 10
1738.6688072618399019
 20
343.2989829013808958
 30
0.0
 11
1745.3791221034907721
 21
333.350532030721638
 31
0.0
  0
LINE
  5
92
100
AcDbEntity
  8
Contornos Visibles
 62
256
370
-1
 48
1.0
  6
BYLAYER
100
AcDbLine
 10
1737.0107321167297414
 20
342.1805970944395199
 30
0.0
 11
1743.7210469583806116
 21
332.2321462237802621
 31
0.0
  0
LINE
  5
93
100
AcDbEntity
  8
Contornos Visibles
 62
256
370
-1
 48
1.0
  6
BYLAYER
100
AcDbLine
 10
1739.4978448343947548
 20
343.8581758048517827
 30
0.0
 11
1742.564331117776419
 21
339.3119229306321927
 31
0.0
  0
LINE
  5
94
100
AcDbEntity
  8
Contornos Visibles
 62
256
370
-1
 48
1.0
  6
BYLAYER
100
AcDbLine
 10
1743.1235240212474764
 20
338.4828853580770556
 30
0.0
 11
1746.208159676045625
 21
333.9097249341925249
 31
0.0
  0
LINE
  5
95
100
AcDbEntity
  8
Contornos Visibles
 62
256
370
-1
 48
1.0
  6
BYLAYER
100
AcDbLine
 10
1744.7815991663576369
 20
339.6012711650184315
 30
0.0
 11
1747.8662348211557855
 21
335.0281107411339008
 31
0.0
  0
LINE
  5
96
100
AcDbEntity
  8
Contornos Visibles
 62
256
370
-1
 48
1.0
  6
BYLAYER
100
AcDbLine
 10
1741.1559199795049153
 20
344.9765616117931586
 30
0.0
 11
1744.2224062628868069
 21
340.4303087375734549
 31
0.0
  0
LINE
  5
97
100
AcDbEntity
  8
Contornos Visibles
 62
256
370
-1
 48
1.0
  6
BYLAYER
100
AcDbLine
 10
1743.6430326971701561
 20
356.6748965156606914
 30
0.0
 11
1741.9849575520599956
 21
357.793282322602181
 31
0.0
  0
LINE
  5
98
100
AcDbEntity
  8
Contornos Visibles
 62
256
370
-1
 48
1.0
  6
BYLAYER
100
AcDbLine
 10
1741.1559199795049153
 20
358.3524752260727837
 30
0.0
 11
1739.4978448343947548
 21
359.4708610330142733
 31
0.0
  0
LINE
  5
99
100
AcDbEntity
  8
Contornos Visibles
 62
256
370
-1
 48
1.0
  6
BYLAYER
100
AcDbLine
 10
1738.6688072618399019
 20
360.0300539364850465
 30
0.0
 11
1737.0107321167297414
 21
361.1484397434265361
 31
0.0
  0
LINE
  5
9A
100
AcDbEntity
  8
Contornos Visibles
 62
256
370
-1
 48
1.0
  6
BYLAYER
100
AcDbLine
 10
1785.2813835703148015
 20
360.0300539364806127
 30
0.0
 11
1786.9394587154251894
 21
361.1484397434218181
 31
0.0
  0
LINE
  5
9B
100
AcDbEntity
  8
Contornos Visibles
 62
256
370
-1
 48
1.0
  6
BYLAYER
100
AcDbLine
 10
1780.3071581349838652
 20
356.674896515657224
 30
0.0
 11
1781.9652332800942531
 21
357.7932823225984293
 31
0.0
  0
LINE
  5
9C
100
AcDbEntity
  8
Contornos Visibles
 62
256
370
-1
 48
1.0
  6
BYLAYER
100
AcDbLine
 10
1782.7942708526495608
 20
358.3524752260688615
 30
0.0
 11
1784.4523459977599487
 21
359.47086103301001
 31
0.0
  0
LINE
  5
9D
100
AcDbEntity
  8
Contornos Visibles
 62
256
370
-1
 48
1.0
  6
BYLAYER
100
AcDbLine
 10
1780.3071581349838652
 20
346.654140322208832
 30
0.0
 11
1781.9652332800942531
 21
345.5357545152676266
 31
0.0
  0
LINE
  5
9E
100
AcDbEntity
  8
Contornos Visibles
 62
256
370
-1
 48
1.0
  6
BYLAYER
100
AcDbLine
 10
1782.7942708526488786
 20
344.9765616117971376
 30
0.0
 11
1784.4523459977592665
 21
343.8581758048559323
 31
0.0
  0
LINE
  5
9F
100
AcDbEntity
  8
Contornos Visibles
 62
256
370
-1
 48
1.0
  6
BYLAYER
100
AcDbLine
 10
1785.2813835703138921
 20
343.2989829013852727
 30
0.0
 11
1786.9394587154242799
 21
342.1805970944440674
 31
0.0
  0
LINE
  5
A0
100
AcDbEntity
  8
Contornos Visibles
 62
256
370
-1
 48
1.0
  6
BYLAYER
100
AcDbLine
 10
1738.6688072618399019
 20
343.2989829013808958
 30
0.0
 11
1737.0107321167297414
 21
342.1805970944394062
 31
0.0
  0
LINE
  5
A1
100
AcDbEntity
  8
Contornos Visibles
 62
256
370
-1
 48
1.0
  6
BYLAYER
100
AcDbLine
 10
1743.6430326971701561
 20
346.6541403222052509
 30
0.0
 11
1741.9849575520599956
 21
345.5357545152637613
 31
0.0
  0
LINE
  5
A2
100
AcDbEntity
  8
Contornos Visibles
 62
256
370
-1
 48
1.0
  6
BYLAYER
100
AcDbLine
 10
1741.1559199795049153
 20
344.9765616117931586
 30
0.0
 11
1739.4978448343947548
 21
343.858175804851669
 31
0.0
  0
LINE
  5
A3
100
AcDbEntity
  8
Contornos Visibles
 62
256
370
-1
 48
1.0
  6
BYLAYER
100
AcDbLine
 10
1750.3533475388210263
 20
366.6233473863199492
 30
0.0
 11
1748.6952723937108658
 21
367.7417331932614388
 31
0.0
  0
LINE
  5
A4
100
AcDbEntity
  8
Contornos Visibles
 62
256
370
-1
 48
1.0
  6
BYLAYER
100
AcDbLine
 10
1747.8662348211557855
 20
368.3009260967320415
 30
0.0
 11
1746.208159676045625
 21
369.4193119036735311
 31
0.0
  0
LINE
  5
A5
100
AcDbEntity
  8
Contornos Visibles
 62
256
370
-1
 48
1.0
  6
BYLAYER
100
AcDbLine
 10
1745.3791221034907721
 20
369.9785048071443043
 30
0.0
 11
1743.7210469583806116
 21
371.0968906140857939
 31
0.0
  0
LINE
  5
A6
100
AcDbEntity
  8
Contornos Visibles
 62
256
370
-1
 48
1.0
  6
BYLAYER
100
AcDbLine
 10
1776.0839560110005095
 20
368.3009260967293699
 30
0.0
 11
1777.7420311561108974
 21
369.4193119036705752
 31
0.0
  0
LINE
  5
A7
100
AcDbEntity
  8
Contornos Visibles
 62
256
370
-1
 48
1.0
  6
BYLAYER
100
AcDbLine
 10
1773.596843293334814
 20
366.6233473863177323
 30
0.0
 11
1775.2549184384452019
 21
367.7417331932589377
 31
0.0
  0
LINE
  5
A8
100
AcDbEntity
  8
Contornos Visibles
 62
256
370
-1
 48
1.0
  6
BYLAYER
100
AcDbLine
 10
1778.5710687286657503
 20
369.9785048071411779
 30
0.0
 11
1780.2291438737761382
 21
371.0968906140823265
 31
0.0
  0
LINE
  5
A9
100
AcDbEntity
  8
Contornos Visibles
 62
256
370
-1
 48
1.0
  6
BYLAYER
100
AcDbLine
 10
1773.596843293334814
 20
336.7056894515483236
 30
0.0
 11
1775.2549184384452019
 21
335.5873036446071183
 31
0.0
  0
LINE
  5
AA
100
AcDbEntity
  8
Contornos Visibles
 62
256
370
-1
 48
1.0
  6
BYLAYER
100
AcDbLine
 10
1776.0839560109998274
 20
335.0281107411366293
 30
0.0
 11
1777.7420311561102153
 21
333.9097249341954239
 31
0.0
  0
LINE
  5
AB
100
AcDbEntity
  8
Contornos Visibles
 62
256
370
-1
 48
1.0
  6
BYLAYER
100
AcDbLine
 10
1778.5710687286648408
 20
333.3505320307247644
 30
0.0
 11
1780.2291438737752287
 21
332.232146223783559
 31
0.0
  0
LINE
  5
AC
100
AcDbEntity
  8
Contornos Visibles
 62
256
370
-1
 48
1.0
  6
BYLAYER
100
AcDbLine
 10
1747.8662348211557855
 20
335.0281107411339008
 30
0.0
 11
1746.208159676045625
 21
333.9097249341924112
 31
0.0
  0
LINE
  5
AD
100
AcDbEntity
  8
Contornos Visibles
 62
256
370
-1
 48
1.0
  6
BYLAYER
100
AcDbLine
 10
1750.3533475388210263
 20
336.7056894515459931
 30
0.0
 11
1748.6952723937108658
 21
335.5873036446045035
 31
0.0
  0
LINE
  5
AE
100
AcDbEntity
  8
Contornos Visibles
 62
256
370
-1
 48
1.0
  6
BYLAYER
100
AcDbLine
 10
1745.3791221034907721
 20
333.350532030721638
 30
0.0
 11
1743.7210469583806116
 21
332.2321462237801484
 31
0.0
  0
LINE
  5
AF
100
AcDbEntity
  8
Referencias
 62
256
370
-1
 48
1.0
  6
BYLAYER
100
AcDbLine
 10
1741.9849575520599956
 20
357.7932823226021242
 30
0.0
 11
1741.1559199795049153
 21
358.3524752260728974
 31
0.0
  0
LINE
  5
B0
100
AcDbEntity
  8
Referencias
 62
256
370
-1
 48
1.0
  6
BYLAYER
100
AcDbLine
 10
1748.6952723937108658
 20
367.741733193261382
 30
0.0
 11
1747.8662348211557855
 21
368.3009260967321552
 31
0.0
  0
LINE
  5
B1
100
AcDbEntity
  8
Referencias
 62
256
370
-1
 48
1.0
  6
BYLAYER
100
AcDbLine
 10
1782.7942708526488786
 20
344.9765616117969103
 30
0.0
 11
1781.9652332800937984
 21
345.5357545152676835
 31
0.0
  0
LINE
  5
B2
100
AcDbEntity
  8
Referencias
 62
256
370
-1
 48
1.0
  6
BYLAYER
100
AcDbLine
 10
1776.0839560110000548
 20
335.0281107411364587
 30
0.0
 11
1775.2549184384449745
 21
335.5873036446072319
 31
0.0
  0
LINE
  5
B3
100
AcDbEntity
  8
Referencias
 62
256
370
-1
 48
1.0
  6
BYLAYER
100
AcDbLine
 10
1778.5710687286650682
 20
333.350532030724537
 30
0.0
 11
1777.7420311561099879
 21
333.9097249341953102
 31
0.0
  0
LINE
  5
B4
100
AcDbEntity
  8
Referencias
 62
256
370
-1
 48
1.0
  6
BYLAYER
100
AcDbLine
 10
1739.4978448343949822
 20
359.470861033014387
 30
0.0
 11
1738.6688072618399019
 21
360.0300539364851602
 31
0.0
  0
LINE
  5
B5
100
AcDbEntity
  8
Referencias
 62
256
370
-1
 48
1.0
  6
BYLAYER
100
AcDbLine
 10
1746.208159676045625
 20
369.4193119036734743
 30
0.0
 11
1745.3791221034905448
 21
369.9785048071442475
 31
0.0
  0
LINE
  5
B6
100
AcDbEntity
  8
Referencias
 62
256
370
-1
 48
1.0
  6
BYLAYER
100
AcDbLine
 10
1778.8957221014763945
 20
362.3440197884308986
 30
0.0
 11
1778.3365291980055645
 21
363.1730573609859789
 31
0.0
  0
LINE
  5
B7
100
AcDbEntity
  8
Referencias
 62
256
370
-1
 48
1.0
  6
BYLAYER
100
AcDbLine
 10
1777.2315971658947547
 20
361.234603164709938
 30
0.0
 11
1776.6724042624239246
 21
362.0636407372650183
 31
0.0
  0
LINE
  5
B8
100
AcDbEntity
  8
Referencias
 62
256
370
-1
 48
1.0
  6
BYLAYER
100
AcDbLine
 10
1782.2239719726392195
 20
364.5628530358728199
 30
0.0
 11
1781.6647790691683895
 21
365.3918906084279001
 31
0.0
  0
LINE
  5
B9
100
AcDbEntity
  8
Referencias
 62
256
370
-1
 48
1.0
  6
BYLAYER
100
AcDbLine
 10
1783.888096908220632
 20
365.6722696595937805
 30
0.0
 11
1783.328904004749802
 21
366.5013072321488607
 31
0.0
  0
LINE
  5
BA
100
AcDbEntity
  8
Contornos Visibles
 62
256
370
-1
 48
1.0
  6
BYLAYER
100
AcDbLine
 10
1781.6647790691683895
 20
365.3918906084279001
 30
0.0
 11
1783.328904004749802
 21
366.5013072321488607
 31
0.0
  0
LINE
  5
BB
100
AcDbEntity
  8
Contornos Visibles
 62
256
370
-1
 48
1.0
  6
BYLAYER
100
AcDbLine
 10
1783.888096908220632
 20
365.6722696595937805
 30
0.0
 11
1782.2239719726392195
 21
364.5628530358728199
 31
0.0
  0
LINE
  5
BC
100
AcDbEntity
  8
Contornos Visibles
 62
256
370
-1
 48
1.0
  6
BYLAYER
100
AcDbLine
 10
1778.8957221014763945
 20
362.3440197884308986
 30
0.0
 11
1777.2315971658947547
 21
361.234603164709938
 31
0.0
  0
LINE
  5
BD
100
AcDbEntity
  8
Contornos Visibles
 62
256
370
-1
 48
1.0
  6
BYLAYER
100
AcDbLine
 10
1778.8957221014763945
 20
340.9850170494351573
 30
0.0
 11
1777.2315971658947547
 21
342.0944336731561179
 31
0.0
  0
LINE
  5
BE
100
AcDbEntity
  8
Contornos Visibles
 62
256
370
-1
 48
1.0
  6
BYLAYER
100
AcDbLine
 10
1781.3828348191414079
 20
339.307438339023463
 30
0.0
 11
1779.7187098835597681
 21
340.4168549627444236
 31
0.0
  0
LINE
  5
BF
100
AcDbEntity
  8
Contornos Visibles
 62
256
370
-1
 48
1.0
  6
BYLAYER
100
AcDbLine
 10
1783.8699475368064213
 20
337.6298596286115981
 30
0.0
 11
1782.2058226012247815
 21
338.7392762523325587
 31
0.0
  0
LINE
  5
C0
100
AcDbEntity
  8
Contornos Visibles
 62
256
370
-1
 48
1.0
  6
BYLAYER
100
AcDbLine
 10
1776.6724042624239246
 20
362.0636407372650183
 30
0.0
 11
1778.3365291980055645
 21
363.1730573609859789
 31
0.0
  0
LINE
  5
C1
100
AcDbEntity
  8
Contornos Visibles
 62
256
370
-1
 48
1.0
  6
BYLAYER
100
AcDbLine
 10
1776.6724042624239246
 20
341.2653961006010377
 30
0.0
 11
1778.3365291980055645
 21
340.1559794768800771
 31
0.0
  0
LINE
  5
C2
100
AcDbEntity
  8
Contornos Visibles
 62
256
370
-1
 48
1.0
  6
BYLAYER
100
AcDbLine
 10
1779.159516980088938
 20
339.5878173901893433
 30
0.0
 11
1780.8236419156705779
 21
338.4784007664683827
 31
0.0
  0
LINE
  5
C3
100
AcDbEntity
  8
Contornos Visibles
 62
256
370
-1
 48
1.0
  6
BYLAYER
100
AcDbLine
 10
1781.6466296977539514
 20
337.9102386797774784
 30
0.0
 11
1783.3107546333355913
 21
336.8008220560565178
 31
0.0
  0
LINE
  5
C4
100
AcDbEntity
  8
Referencias
 62
256
370
-1
 48
1.0
  6
BYLAYER
100
AcDbLine
 10
1744.2224062628865795
 20
340.4303087375734549
 30
0.0
 11
1744.7815991663574096
 21
339.6012711650183746
 31
0.0
  0
LINE
  5
C5
100
AcDbEntity
  8
Referencias
 62
256
370
-1
 48
1.0
  6
BYLAYER
100
AcDbLine
 10
1742.5582813273056217
 20
339.320892113852608
 30
0.0
 11
1743.1174742307764518
 21
338.4918545412975277
 31
0.0
  0
LINE
  5
C6
100
AcDbEntity
  8
Contornos Visibles
 62
256
370
-1
 48
1.0
  6
BYLAYER
100
AcDbLine
 10
1744.2224062628865795
 20
340.4303087375734549
 30
0.0
 11
1742.564331117776419
 21
339.3119229306319653
 31
0.0
  0
LINE
  5
C7
100
AcDbEntity
  8
Contornos Visibles
 62
256
370
-1
 48
1.0
  6
BYLAYER
100
AcDbLine
 10
1744.7815991663574096
 20
339.6012711650183746
 30
0.0
 11
1743.123524021247249
 21
338.482885358076885
 31
0.0
  0
ENDSEC
  0
SECTION
  2
OBJECTS
  0
DICTIONARY
  5
C
100
AcDbDictionary
280
0
281
1
  3
ACAD_GROUP
350
D
  3
ACAD_LAYOUT
350
1A
  3
ACAD_MLINESTYLE
350
17
  3
ACAD_PLOTSETTINGS
350
19
  3
ACAD_PLOTSTYLENAME
350
E
  3
AcDbVariableDictionary
350
C8
  3
QCAD_OBJECTS
350
C9
  0
DICTIONARY
  5
D
100
AcDbDictionary
280
0
281
1
  0
ACDBDICTIONARYWDFLT
  5
E
100
AcDbDictionary
281
1
  3
Normal
350
F
100
AcDbDictionaryWithDefault
340
F
  0
ACDBPLACEHOLDER
  5
F
  0
DICTIONARY
  5
17
100
AcDbDictionary
280
0
281
1
  3
Standard
350
18
  0
MLINESTYLE
  5
18
100
AcDbMlineStyle
  2
STANDARD
 70
0
  3

 62
256
 51
90.0
 52
90.0
 71
2
 49
0.5
 62
256
  6
BYLAYER
 49
-0.5
 62
256
  6
BYLAYER
  0
DICTIONARY
  5
19
100
AcDbDictionary
280
0
281
1
  0
DICTIONARY
  5
1A
100
AcDbDictionary
281
1
  3
Layout1
350
1E
  3
Layout2
350
26
  3
Model
350
22
  0
LAYOUT
  5
1E
100
AcDbPlotSettings
  1

  2
none_device
  4

  6

 40
0.0
 41
0.0
 42
0.0
 43
0.0
 44
0.0
 45
0.0
 46
0.0
 47
0.0
 48
0.0
 49
0.0
140
0.0
141
0.0
142
1.0
143
1.0
 70
688
 72
0
 73
0
 74
5
  7

 75
16
147
1.0
148
0.0
149
0.0
100
AcDbLayout
  1
Layout1
 70
1
 71
1
 10
0.0
 20
0.0
 11
420.0
 21
297.0
 12
0.0
 22
0.0
 32
0.0
 14
100000000000000000000.0
 24
100000000000000000000.0
 34
100000000000000000000.0
 15
-100000000000000000000.0
 25
-100000000000000000000.0
 35
-100000000000000000000.0
146
0.0
 13
0.0
 23
0.0
 33
0.0
 16
1.0
 26
0.0
 36
0.0
 17
0.0
 27
1.0
 37
0.0
 76
0
330
1B
  0
LAYOUT
  5
22
100
AcDbPlotSettings
  1

  2
none_device
  4

  6

 40
0.0
 41
0.0
 42
0.0
 43
0.0
 44
0.0
 45
0.0
 46
0.0
 47
0.0
 48
0.0
 49
0.0
140
0.0
141
0.0
142
1.0
143
1.0
 70
1712
 72
0
 73
0
 74
0
  7

 75
0
147
1.0
148
0.0
149
0.0
100
AcDbLayout
  1
Model
 70
1
 71
0
 10
0.0
 20
0.0
 11
12.0
 21
9.0
 12
0.0
 22
0.0
 32
0.0
 14
0.0
 24
0.0
 34
0.0
 15
0.0
 25
0.0
 35
0.0
146
0.0
 13
0.0
 23
0.0
 33
0.0
 16
1.0
 26
0.0
 36
0.0
 17
0.0
 27
1.0
 37
0.0
 76
0
330
1F
  0
LAYOUT
  5
26
100
AcDbPlotSettings
  1

  2
none_device
  4

  6

 40
0.0
 41
0.0
 42
0.0
 43
0.0
 44
0.0
 45
0.0
 46
0.0
 47
0.0
 48
0.0
 49
0.0
140
0.0
141
0.0
142
1.0
143
1.0
 70
688
 72
0
 73
0
 74
5
  7

 75
16
147
1.0
148
0.0
149
0.0
100
AcDbLayout
  1
Layout2
 70
1
 71
2
 10
0.0
 20
0.0
 11
12.0
 21
9.0
 12
0.0
 22
0.0
 32
0.0
 14
0.0
 24
0.0
 34
0.0
 15
0.0
 25
0.0
 35
0.0
146
0.0
 13
0.0
 23
0.0
 33
0.0
 16
1.0
 26
0.0
 36
0.0
 17
0.0
 27
1.0
 37
0.0
 76
0
330
23
  0
DICTIONARY
  5
C8
100
AcDbDictionary
281
1
  3
DIMASSOC
350
CB
  3
HIDETEXT
350
CA
  0
DICTIONARYVAR
  5
CA
100
DictionaryVariables
280
0
  1
2
  0
DICTIONARYVAR
  5
CB
100
DictionaryVariables
280
0
  1
1
  0
DICTIONARY
  5
C9
100
AcDbDictionary
281
1
  3
ColorSettings/BackgroundColor
350
CC
  3
ColorSettings/ColorMode
350
CD
  3
Grid/DisplayGrid00
350
CE
  3
Grid/DisplayGrid01
350
CF
  3
Grid/DisplayGrid02
350
D0
  3
Grid/DisplayGrid03
350
D1
  3
Grid/GridSpacingX00
350
D2
  3
Grid/GridSpacingX01
350
D3
  3
Grid/GridSpacingX02
350
D4
  3
Grid/GridSpacingX03
350
D5
  3
Grid/GridSpacingY00
350
D6
  3
Grid/GridSpacingY01
350
D7
  3
Grid/GridSpacingY02
350
D8
  3
Grid/GridSpacingY03
350
D9
  3
Grid/IsometricGrid00
350
DA
  3
Grid/IsometricGrid01
350
DB
  3
Grid/IsometricGrid02
350
DC
  3
Grid/IsometricGrid03
350
DD
  3
Grid/IsometricProjection00
350
DE
  3
Grid/IsometricProjection01
350
DF
  3
Grid/IsometricProjection02
350
E0
  3
Grid/IsometricProjection03
350
E1
  3
Grid/MetaGridSpacingX00
350
E2
  3
Grid/MetaGridSpacingX01
350
E3
  3
Grid/MetaGridSpacingX02
350
E4
  3
Grid/MetaGridSpacingX03
350
E5
  3
Grid/MetaGridSpacingY00
350
E6
  3
Grid/MetaGridSpacingY01
350
E7
  3
Grid/MetaGridSpacingY02
350
E8
  3
Grid/MetaGridSpacingY03
350
E9
  3
MultiPageSettings/Columns
350
EA
  3
MultiPageSettings/GlueMarginsBottom
350
EB
  3
MultiPageSettings/GlueMarginsLeft
350
EC
  3
MultiPageSettings/GlueMarginsRight
350
ED
  3
MultiPageSettings/GlueMarginsTop
350
EE
  3
MultiPageSettings/PrintCropMarks
350
EF
  3
MultiPageSettings/Rows
350
F0
  3
PageSettings/OffsetX
350
F1
  3
PageSettings/OffsetY
350
F2
  3
PageSettings/PageOrientation
350
F3
  3
PageSettings/PaperHeight
350
F4
  3
PageSettings/PaperWidth
350
F5
  3
PageSettings/Scale
350
F6
  3
PageSettings/ShowPaperBorders
350
F7
  3
PageTagSettings/EnablePageTags
350
F8
  3
PageTagSettings/TagAlignment
350
F9
  3
PageTagSettings/TagFont
350
FA
  3
PageTagSettings/TagPosition
350
FB
  3
QCADVersion
350
FC
  3
UnitSettings/PaperUnit
350
FD
  3
ViewportCenter
350
FE
  3
ViewportHeight
350
FF
  3
ViewportWidth
350
100
  0
XRECORD
  5
CC
330
C9
100
AcDbXrecord
280
1
1000
Blanca
  0
XRECORD
  5
CD
330
C9
100
AcDbXrecord
280
1
1000
FullColor
  0
XRECORD
  5
CE
330
C9
100
AcDbXrecord
280
1
290
0
  0
XRECORD
  5
CF
330
C9
100
AcDbXrecord
280
1
290
1
  0
XRECORD
  5
D0
330
C9
100
AcDbXrecord
280
1
290
1
  0
XRECORD
  5
D1
330
C9
100
AcDbXrecord
280
1
290
1
  0
XRECORD
  5
D2
330
C9
100
AcDbXrecord
280
1
1000
auto
  0
XRECORD
  5
D3
330
C9
100
AcDbXrecord
280
1
1000
auto
  0
XRECORD
  5
D4
330
C9
100
AcDbXrecord
280
1
1000
auto
  0
XRECORD
  5
D5
330
C9
100
AcDbXrecord
280
1
1000
auto
  0
XRECORD
  5
D6
330
C9
100
AcDbXrecord
280
1
1000
auto
  0
XRECORD
  5
D7
330
C9
100
AcDbXrecord
280
1
1000
auto
  0
XRECORD
  5
D8
330
C9
100
AcDbXrecord
280
1
1000
auto
  0
XRECORD
  5
D9
330
C9
100
AcDbXrecord
280
1
1000
auto
  0
XRECORD
  5
DA
330
C9
100
AcDbXrecord
280
1
290
0
  0
XRECORD
  5
DB
330
C9
100
AcDbXrecord
280
1
290
0
  0
XRECORD
  5
DC
330
C9
100
AcDbXrecord
280
1
290
0
  0
XRECORD
  5
DD
330
C9
100
AcDbXrecord
280
1
290
0
  0
XRECORD
  5
DE
330
C9
100
AcDbXrecord
280
1
 90
65537
  0
XRECORD
  5
DF
330
C9
100
AcDbXrecord
280
1
 90
65537
  0
XRECORD
  5
E0
330
C9
100
AcDbXrecord
280
1
 90
65537
  0
XRECORD
  5
E1
330
C9
100
AcDbXrecord
280
1
 90
65537
  0
XRECORD
  5
E2
330
C9
100
AcDbXrecord
280
1
1000
auto
  0
XRECORD
  5
E3
330
C9
100
AcDbXrecord
280
1
1000
auto
  0
XRECORD
  5
E4
330
C9
100
AcDbXrecord
280
1
1000
auto
  0
XRECORD
  5
E5
330
C9
100
AcDbXrecord
280
1
1000
auto
  0
XRECORD
  5
E6
330
C9
100
AcDbXrecord
280
1
1000
1
  0
XRECORD
  5
E7
330
C9
100
AcDbXrecord
280
1
1000
auto
  0
XRECORD
  5
E8
330
C9
100
AcDbXrecord
280
1
1000
auto
  0
XRECORD
  5
E9
330
C9
100
AcDbXrecord
280
1
1000
auto
  0
XRECORD
  5
EA
330
C9
100
AcDbXrecord
280
1
 90
1
  0
XRECORD
  5
EB
330
C9
100
AcDbXrecord
280
1
 40
10.0
  0
XRECORD
  5
EC
330
C9
100
AcDbXrecord
280
1
 40
10.0
  0
XRECORD
  5
ED
330
C9
100
AcDbXrecord
280
1
 40
10.0
  0
XRECORD
  5
EE
330
C9
100
AcDbXrecord
280
1
 40
10.0
  0
XRECORD
  5
EF
330
C9
100
AcDbXrecord
280
1
290
0
  0
XRECORD
  5
F0
330
C9
100
AcDbXrecord
280
1
 90
1
  0
XRECORD
  5
F1
330
C9
100
AcDbXrecord
280
1
 40
793.1665914866936191
  0
XRECORD
  5
F2
330
C9
100
AcDbXrecord
280
1
 40
306.6308471493692309
  0
XRECORD
  5
F3
330
C9
100
AcDbXrecord
280
1
1000
Portrait
  0
XRECORD
  5
F4
330
C9
100
AcDbXrecord
280
1
 40
279.3999999999999773
  0
XRECORD
  5
F5
330
C9
100
AcDbXrecord
280
1
 40
215.9000000000000057
  0
XRECORD
  5
F6
330
C9
100
AcDbXrecord
280
1
 90
1
  0
XRECORD
  5
F7
330
C9
100
AcDbXrecord
280
1
290
1
  0
XRECORD
  5
F8
330
C9
100
AcDbXrecord
280
1
290
0
  0
XRECORD
  5
F9
330
C9
100
AcDbXrecord
280
1
1000
Inside
  0
XRECORD
  5
FA
330
C9
100
AcDbXrecord
280
1
1000
Arial,10,-1,5,50,0,0,0,0,0
  0
XRECORD
  5
FB
330
C9
100
AcDbXrecord
280
1
1000
TopLeft
  0
XRECORD
  5
FC
330
C9
100
AcDbXrecord
280
1
1000
3.28.1
  0
XRECORD
  5
FD
330
C9
100
AcDbXrecord
280
1
 90
4
  0
XRECORD
  5
FF
330
C9
100
AcDbXrecord
280
1
 40
188.6641099556477457
  0
XRECORD
  5
100
330
C9
100
AcDbXrecord
280
1
 40
351.4255654706635141
  0
IMAGEDEF
  5
60
100
AcDbRasterImageDef
 90
0
  1
C:/Users/iamth/Documents/CAD/QCad/Learn QCAD/1. StudyCadCam/2D CAD EXERCISES 44b.png
 10
200.0
 20
141.0
 11
1.0
 21
1.0
280
1
281
0
  0
ENDSEC
  0
EOF
