999
dxflib 3.26.4.0
  0
SECTION
  2
HEADER
  9
$ACADVER
  1
AC1015
  9
$HANDSEED
  5
FFFF
  9
$DIMADEC
 70
0
  9
$DIMASZ
 40
2.5
  9
$DIMATFIT
 70
0
  9
$DIMAUNIT
 70
0
  9
$DIMAZIN
 70
2
  9
$DIMBLK
  1
0
  9
$DIMBLK1
  1
0
  9
$DIMBLK2
  1
0
  9
$DIMDEC
 70
4
  9
$DIMDLI
 40
5.0
  9
$DIMDSEP
 70
46
  9
$DIMEXE
 40
1.25
  9
$DIMEXO
 40
0.625
  9
$DIMGAP
 40
0.625
  9
$DIMLFAC
 40
1.0
  9
$DIMLUNIT
 70
2
  9
$DIMSCALE
 40
1.0
  9
$DIMTAD
 70
1
  9
$DIMTIH
 70
0
  9
$DIMTSZ
 40
0.0
  9
$DIMTXT
 40
2.5
  9
$DIMZIN
 70
8
  9
$DWGCODEPAGE
  3
ANSI_1252
  9
$INSUNITS
 70
4
  9
$LTSCALE
 40
1.0
  9
$MAXACTVP
 70
64
  9
$MEASUREMENT
 70
1
  9
$MIRRTEXT
 70
0
  9
$PDMODE
 70
0
  9
$PDSIZE
 40
0.0
  0
ENDSEC
  0
SECTION
  2
TABLES
  0
TABLE
  2
VPORT
  5
8
100
AcDbSymbolTable
 70
1
  0
VPORT
  5
30
100
AcDbSymbolTableRecord
100
AcDbViewportTableRecord
  2
*Active
 70
0
 10
0.0
 20
0.0
 11
1.0
 21
1.0
 12
286.3055555555554861
 22
148.5
 13
0.0
 23
0.0
 14
10.0
 24
10.0
 15
10.0
 25
10.0
 16
0.0
 26
0.0
 36
1.0
 17
0.0
 27
0.0
 37
0.0
 40
297.0
 41
1.92798353909465
 42
50.0
 43
0.0
 44
0.0
 50
0.0
 51
0.0
 71
0
 72
100
 73
1
 74
3
 75
1
 76
1
 77
0
 78
0
281
0
 65
1
110
0.0
120
0.0
130
0.0
111
1.0
121
0.0
131
0.0
112
0.0
122
1.0
132
0.0
 79
0
146
0.0
  0
ENDTAB
  0
TABLE
  2
LTYPE
  5
5
100
AcDbSymbolTable
 70
41
  0
LTYPE
  5
16
100
AcDbSymbolTableRecord
100
AcDbLinetypeTableRecord
  2
Continuous
 70
0
  3
Solid line
 72
65
 73
0
 40
0.0
  0
LTYPE
  5
15
100
AcDbSymbolTableRecord
100
AcDbLinetypeTableRecord
  2
BYLAYER
 70
0
  3

 72
65
 73
0
 40
0.0
  0
LTYPE
  5
31
100
AcDbSymbolTableRecord
100
AcDbLinetypeTableRecord
  2
ACAD_ISO09W100
 70
0
  3
ISO long-dash double-short-dash ____ __ __ ____
 72
65
 73
6
 40
45.0
 49
24.0
 74
0
 49
-3.0
 74
0
 49
6.0
 74
0
 49
-3.0
 74
0
 49
6.0
 74
0
 49
-3.0
 74
0
  0
LTYPE
  5
32
100
AcDbSymbolTableRecord
100
AcDbLinetypeTableRecord
  2
ACAD_ISO02W100
 70
0
  3
ISO dash __ __ __ __ __ __ __ __ __ __ __ __ __
 72
65
 73
2
 40
15.0
 49
12.0
 74
0
 49
-3.0
 74
0
  0
LTYPE
  5
33
100
AcDbSymbolTableRecord
100
AcDbLinetypeTableRecord
  2
ACAD_ISO11W100
 70
0
  3
ISO double-dash dot __ __ . __ __ . __ __ . __ _
 72
65
 73
6
 40
33.0
 49
12.0
 74
0
 49
-3.0
 74
0
 49
12.0
 74
0
 49
-2.9500000000000002
 74
0
 49
0.1
 74
0
 49
-2.9500000000000002
 74
0
  0
LTYPE
  5
34
100
AcDbSymbolTableRecord
100
AcDbLinetypeTableRecord
  2
DOT
 70
0
  3
Dot . . . . . . . . . . . . . . . . . . . . . . . .
 72
65
 73
2
 40
6.3499999999999996
 49
0.1
 74
0
 49
-6.25
 74
0
  0
LTYPE
  5
35
100
AcDbSymbolTableRecord
100
AcDbLinetypeTableRecord
  2
BORDER
 70
0
  3
Border __ __ . __ __ . __ __ . __ __ . __ __ .
 72
65
 73
6
 40
44.4499999999999957
 49
12.6999999999999993
 74
0
 49
-6.3499999999999996
 74
0
 49
12.6999999999999993
 74
0
 49
-6.2999999999999998
 74
0
 49
0.1
 74
0
 49
-6.2999999999999998
 74
0
  0
LTYPE
  5
36
100
AcDbSymbolTableRecord
100
AcDbLinetypeTableRecord
  2
DIVIDE2
 70
0
  3
Divide (.5x) __..__..__..__..__..__..__..__.._
 72
65
 73
6
 40
15.8749999999999982
 49
6.3499999999999996
 74
0
 49
-3.125
 74
0
 49
0.1
 74
0
 49
-3.0750000000000002
 74
0
 49
0.1
 74
0
 49
-3.125
 74
0
  0
LTYPE
  5
37
100
AcDbSymbolTableRecord
100
AcDbLinetypeTableRecord
  2
DASHEDX2
 70
0
  3
Dashed (2x) ____  ____  ____  ____  ____  ___
 72
65
 73
2
 40
38.0999999999999943
 49
25.3999999999999986
 74
0
 49
-12.6999999999999993
 74
0
  0
LTYPE
  5
38
100
AcDbSymbolTableRecord
100
AcDbLinetypeTableRecord
  2
ACAD_ISO05W100
 70
0
  3
ISO long-dash double-dot ____ .. ____ .. ____ . 
 72
65
 73
6
 40
33.0000000000000071
 49
24.0
 74
0
 49
-2.9500000000000002
 74
0
 49
0.1
 74
0
 49
-2.9000000000000004
 74
0
 49
0.1
 74
0
 49
-2.9500000000000002
 74
0
  0
LTYPE
  5
39
100
AcDbSymbolTableRecord
100
AcDbLinetypeTableRecord
  2
HIDDEN2
 70
0
  3
Hidden (.5x) _ _ _ _ _ _ _ _ _ _ _ _ _ _ _ _ _ 
 72
65
 73
2
 40
4.7624999999999993
 49
3.1749999999999998
 74
0
 49
-1.5874999999999999
 74
0
  0
LTYPE
  5
3A
100
AcDbSymbolTableRecord
100
AcDbLinetypeTableRecord
  2
DASHED2
 70
0
  3
Dashed (.5x) _ _ _ _ _ _ _ _ _ _ _ _ _ _ _ _ _ 
 72
65
 73
2
 40
9.5249999999999986
 49
6.3499999999999996
 74
0
 49
-3.1749999999999998
 74
0
  0
LTYPE
  5
3B
100
AcDbSymbolTableRecord
100
AcDbLinetypeTableRecord
  2
ACAD_ISO12W100
 70
0
  3
ISO dash double-dot __ . . __ . . __ . . __ . . 
 72
65
 73
6
 40
21.0
 49
12.0
 74
0
 49
-2.9500000000000002
 74
0
 49
0.1
 74
0
 49
-2.9000000000000004
 74
0
 49
0.1
 74
0
 49
-2.9500000000000002
 74
0
  0
LTYPE
  5
3C
100
AcDbSymbolTableRecord
100
AcDbLinetypeTableRecord
  2
PHANTOM2
 70
0
  3
Phantom (.5x) ___ _ _ ___ _ _ ___ _ _ ___ _ _
 72
65
 73
6
 40
31.7500000000000036
 49
15.875
 74
0
 49
-3.1749999999999998
 74
0
 49
3.1749999999999998
 74
0
 49
-3.1749999999999998
 74
0
 49
3.1749999999999998
 74
0
 49
-3.1749999999999998
 74
0
  0
LTYPE
  5
3D
100
AcDbSymbolTableRecord
100
AcDbLinetypeTableRecord
  2
DIVIDE
 70
0
  3
Divide ____ . . ____ . . ____ . . ____ . . ____
 72
65
 73
6
 40
31.7500000000000036
 49
12.6999999999999993
 74
0
 49
-6.2999999999999998
 74
0
 49
0.1
 74
0
 49
-6.25
 74
0
 49
0.1
 74
0
 49
-6.2999999999999998
 74
0
  0
LTYPE
  5
3E
100
AcDbSymbolTableRecord
100
AcDbLinetypeTableRecord
  2
HIDDEN
 70
0
  3
Hidden __ __ __ __ __ __ __ __ __ __ __ __ __ __
 72
65
 73
2
 40
9.5249999999999986
 49
6.3499999999999996
 74
0
 49
-3.1749999999999998
 74
0
  0
LTYPE
  5
3F
100
AcDbSymbolTableRecord
100
AcDbLinetypeTableRecord
  2
CENTER2
 70
0
  3
Center (.5x) ___ _ ___ _ ___ _ ___ _ ___ _ ___
 72
65
 73
4
 40
28.5750000000000028
 49
19.0500000000000007
 74
0
 49
-3.1749999999999998
 74
0
 49
3.1749999999999998
 74
0
 49
-3.1749999999999998
 74
0
  0
LTYPE
  5
40
100
AcDbSymbolTableRecord
100
AcDbLinetypeTableRecord
  2
ACAD_ISO14W100
 70
0
  3
ISO dash triple-dot __ . . . __ . . . __ . . . _
 72
65
 73
8
 40
24.0000000000000036
 49
12.0
 74
0
 49
-2.9500000000000002
 74
0
 49
0.1
 74
0
 49
-2.9000000000000004
 74
0
 49
0.1
 74
0
 49
-2.9000000000000004
 74
0
 49
0.1
 74
0
 49
-2.9500000000000002
 74
0
  0
LTYPE
  5
41
100
AcDbSymbolTableRecord
100
AcDbLinetypeTableRecord
  2
DASHED
 70
0
  3
Dashed __ __ __ __ __ __ __ __ __ __ __ __ __ _
 72
65
 73
2
 40
19.0499999999999972
 49
12.6999999999999993
 74
0
 49
-6.3499999999999996
 74
0
  0
LTYPE
  5
42
100
AcDbSymbolTableRecord
100
AcDbLinetypeTableRecord
  2
ACAD_ISO06W100
 70
0
  3
ISO long-dash triple-dot ____ ... ____ ... ____
 72
65
 73
8
 40
36.0000000000000071
 49
24.0
 74
0
 49
-2.9500000000000002
 74
0
 49
0.1
 74
0
 49
-2.9000000000000004
 74
0
 49
0.1
 74
0
 49
-2.9000000000000004
 74
0
 49
0.1
 74
0
 49
-2.9500000000000002
 74
0
  0
LTYPE
  5
43
100
AcDbSymbolTableRecord
100
AcDbLinetypeTableRecord
  2
ACAD_ISO15W100
 70
0
  3
ISO double-dash triple-dot __ __ . . . __ __ . .
 72
65
 73
10
 40
39.0000000000000071
 49
12.0
 74
0
 49
-3.0
 74
0
 49
12.0
 74
0
 49
-2.9500000000000002
 74
0
 49
0.1
 74
0
 49
-2.9000000000000004
 74
0
 49
0.1
 74
0
 49
-2.9000000000000004
 74
0
 49
0.1
 74
0
 49
-2.9500000000000002
 74
0
  0
LTYPE
  5
14
100
AcDbSymbolTableRecord
100
AcDbLinetypeTableRecord
  2
BYBLOCK
 70
0
  3

 72
65
 73
0
 40
0.0
  0
LTYPE
  5
44
100
AcDbSymbolTableRecord
100
AcDbLinetypeTableRecord
  2
ACAD_ISO10W100
 70
0
  3
ISO dash dot __ . __ . __ . __ . __ . __ . __ . 
 72
65
 73
4
 40
18.0
 49
12.0
 74
0
 49
-2.9500000000000002
 74
0
 49
0.1
 74
0
 49
-2.9500000000000002
 74
0
  0
LTYPE
  5
45
100
AcDbSymbolTableRecord
100
AcDbLinetypeTableRecord
  2
CENTERX2
 70
0
  3
Center (2x) ________  __  ________  __  _____
 72
65
 73
4
 40
101.6000000000000085
 49
63.5
 74
0
 49
-12.6999999999999993
 74
0
 49
12.6999999999999993
 74
0
 49
-12.6999999999999993
 74
0
  0
LTYPE
  5
46
100
AcDbSymbolTableRecord
100
AcDbLinetypeTableRecord
  2
ACAD_ISO03W100
 70
0
  3
ISO dash space __    __    __    __    __    __
 72
65
 73
2
 40
30.0
 49
12.0
 74
0
 49
-18.0
 74
0
  0
LTYPE
  5
47
100
AcDbSymbolTableRecord
100
AcDbLinetypeTableRecord
  2
DASHDOT2
 70
0
  3
Dash dot (.5x) _._._._._._._._._._._._._._._.
 72
65
 73
4
 40
12.6999999999999993
 49
6.3499999999999996
 74
0
 49
-3.125
 74
0
 49
0.1
 74
0
 49
-3.125
 74
0
  0
LTYPE
  5
48
100
AcDbSymbolTableRecord
100
AcDbLinetypeTableRecord
  2
DOTX2
 70
0
  3
Dot (2x) .  .  .  .  .  .  .  .  .  .  .  .  .  .
 72
65
 73
2
 40
12.6999999999999993
 49
0.1
 74
0
 49
-12.5999999999999996
 74
0
  0
LTYPE
  5
49
100
AcDbSymbolTableRecord
100
AcDbLinetypeTableRecord
  2
ACAD_ISO13W100
 70
0
  3
ISO double-dash double-dot __ __ . . __ __ . . _
 72
65
 73
8
 40
36.0000000000000071
 49
12.0
 74
0
 49
-3.0
 74
0
 49
12.0
 74
0
 49
-2.9500000000000002
 74
0
 49
0.1
 74
0
 49
-2.9000000000000004
 74
0
 49
0.1
 74
0
 49
-2.9500000000000002
 74
0
  0
LTYPE
  5
4A
100
AcDbSymbolTableRecord
100
AcDbLinetypeTableRecord
  2
DIVIDEX2
 70
0
  3
Divide (2x) ________  .  .  ________  .  .  _
 72
65
 73
6
 40
63.5
 49
25.3999999999999986
 74
0
 49
-12.6499999999999986
 74
0
 49
0.1
 74
0
 49
-12.5999999999999979
 74
0
 49
0.1
 74
0
 49
-12.6499999999999986
 74
0
  0
LTYPE
  5
4B
100
AcDbSymbolTableRecord
100
AcDbLinetypeTableRecord
  2
HIDDENX2
 70
0
  3
Hidden (2x) ____ ____ ____ ____ ____ ____ ____ 
 72
65
 73
2
 40
19.0499999999999972
 49
12.6999999999999993
 74
0
 49
-6.3499999999999996
 74
0
  0
LTYPE
  5
4C
100
AcDbSymbolTableRecord
100
AcDbLinetypeTableRecord
  2
BORDER2
 70
0
  3
Border (.5x) __.__.__.__.__.__.__.__.__.__.__.
 72
65
 73
6
 40
22.2250000000000014
 49
6.3499999999999996
 74
0
 49
-3.1749999999999998
 74
0
 49
6.3499999999999996
 74
0
 49
-3.125
 74
0
 49
0.1
 74
0
 49
-3.125
 74
0
  0
LTYPE
  5
4D
100
AcDbSymbolTableRecord
100
AcDbLinetypeTableRecord
  2
BORDERX2
 70
0
  3
Border (2x) ____  ____  .  ____  ____  .  ___
 72
65
 73
6
 40
88.8999999999999773
 49
25.3999999999999986
 74
0
 49
-12.6999999999999993
 74
0
 49
25.3999999999999986
 74
0
 49
-12.6499999999999986
 74
0
 49
0.1
 74
0
 49
-12.6499999999999986
 74
0
  0
LTYPE
  5
4E
100
AcDbSymbolTableRecord
100
AcDbLinetypeTableRecord
  2
DASHDOTX2
 70
0
  3
Dash dot (2x) ____  .  ____  .  ____  .  ___
 72
65
 73
4
 40
50.7999999999999972
 49
25.3999999999999986
 74
0
 49
-12.6499999999999986
 74
0
 49
0.1
 74
0
 49
-12.6499999999999986
 74
0
  0
LTYPE
  5
4F
100
AcDbSymbolTableRecord
100
AcDbLinetypeTableRecord
  2
CENTER
 70
0
  3
Center ____ _ ____ _ ____ _ ____ _ ____ _ ____
 72
65
 73
4
 40
50.8000000000000043
 49
31.75
 74
0
 49
-6.3499999999999996
 74
0
 49
6.3499999999999996
 74
0
 49
-6.3499999999999996
 74
0
  0
LTYPE
  5
50
100
AcDbSymbolTableRecord
100
AcDbLinetypeTableRecord
  2
ACAD_ISO04W100
 70
0
  3
ISO long-dash dot ____ . ____ . ____ . ____ . _
 72
65
 73
4
 40
30.0
 49
24.0
 74
0
 49
-2.9500000000000002
 74
0
 49
0.1
 74
0
 49
-2.9500000000000002
 74
0
  0
LTYPE
  5
51
100
AcDbSymbolTableRecord
100
AcDbLinetypeTableRecord
  2
PHANTOM
 70
0
  3
Phantom ______  __  __  ______  __  __  ______ 
 72
65
 73
6
 40
63.5000000000000071
 49
31.75
 74
0
 49
-6.3499999999999996
 74
0
 49
6.3499999999999996
 74
0
 49
-6.3499999999999996
 74
0
 49
6.3499999999999996
 74
0
 49
-6.3499999999999996
 74
0
  0
LTYPE
  5
52
100
AcDbSymbolTableRecord
100
AcDbLinetypeTableRecord
  2
DASHDOT
 70
0
  3
Dash dot __ . __ . __ . __ . __ . __ . __ . __
 72
65
 73
4
 40
25.4000000000000021
 49
12.6999999999999993
 74
0
 49
-6.2999999999999998
 74
0
 49
0.1
 74
0
 49
-6.2999999999999998
 74
0
  0
LTYPE
  5
53
100
AcDbSymbolTableRecord
100
AcDbLinetypeTableRecord
  2
ACAD_ISO07W100
 70
0
  3
ISO dot . . . . . . . . . . . . . . . . . . . . 
 72
65
 73
2
 40
3.0
 49
0.1
 74
0
 49
-2.8999999999999999
 74
0
  0
LTYPE
  5
54
100
AcDbSymbolTableRecord
100
AcDbLinetypeTableRecord
  2
PHANTOMX2
 70
0
  3
Phantom (2x) ____________    ____    ____   _
 72
65
 73
6
 40
127.0000000000000142
 49
63.5
 74
0
 49
-12.6999999999999993
 74
0
 49
12.6999999999999993
 74
0
 49
-12.6999999999999993
 74
0
 49
12.6999999999999993
 74
0
 49
-12.6999999999999993
 74
0
  0
LTYPE
  5
55
100
AcDbSymbolTableRecord
100
AcDbLinetypeTableRecord
  2
DOT2
 70
0
  3
Dot (.5x) ........................................
 72
65
 73
2
 40
3.1749999999999998
 49
0.1
 74
0
 49
-3.0749999999999997
 74
0
  0
LTYPE
  5
56
100
AcDbSymbolTableRecord
100
AcDbLinetypeTableRecord
  2
ACAD_ISO08W100
 70
0
  3
ISO long-dash short-dash ____ __ ____ __ ____ _
 72
65
 73
4
 40
36.0
 49
24.0
 74
0
 49
-3.0
 74
0
 49
6.0
 74
0
 49
-3.0
 74
0
  0
ENDTAB
  0
TABLE
  2
LAYER
  5
2
100
AcDbSymbolTable
 70
7
  0
LAYER
  5
57
100
AcDbSymbolTableRecord
100
AcDbLayerTableRecord
  2
Ejes de revoluci\U+00f3n
 70
0
 62
6
420
16711935
  6
ACAD_ISO04W100
370
20
390
F
  0
LAYER
  5
10
100
AcDbSymbolTableRecord
100
AcDbLayerTableRecord
  2
0
 70
0
 62
7
420
16777215
  6
Continuous
370
25
390
F
  0
LAYER
  5
58
100
AcDbSymbolTableRecord
100
AcDbLayerTableRecord
  2
Contornos Visibles
 70
0
 62
7
420
16777215
  6
Continuous
370
50
390
F
  0
LAYER
  5
59
100
AcDbSymbolTableRecord
100
AcDbLayerTableRecord
  2
Contornos Ocultos
 70
0
 62
252
420
10526884
  6
ACAD_ISO02W100
370
30
390
F
  0
LAYER
  5
5A
100
AcDbSymbolTableRecord
100
AcDbLayerTableRecord
  2
Cotas
 70
0
 62
1
420
16711680
  6
Continuous
370
20
390
F
  0
LAYER
  5
5B
100
AcDbSymbolTableRecord
100
AcDbLayerTableRecord
  2
Referencias 2
 70
1
 62
3
420
65280
  6
Continuous
370
25
390
F
  0
LAYER
  5
5C
100
AcDbSymbolTableRecord
100
AcDbLayerTableRecord
  2
Referencias
 70
1
 62
2
420
16776960
  6
Continuous
370
25
390
F
  0
ENDTAB
  0
TABLE
  2
STYLE
  5
3
100
AcDbSymbolTable
 70
4
  0
STYLE
  5
5D
100
AcDbSymbolTableRecord
100
AcDbTextStyleTableRecord
  2
Standard
 70
0
 40
0.0
 41
1.0
 50
0.0
 71
0
 42
2.5
  3

  4

1001
ACAD
1000
txt
1071
0
  0
STYLE
  5
5E
100
AcDbSymbolTableRecord
100
AcDbTextStyleTableRecord
  2
textstyle0
 70
0
 40
0.0
 41
1.0
 50
0.0
 71
0
 42
2.5
  3

  4

1001
ACAD
1000
Arial
1071
0
  0
STYLE
  5
5F
100
AcDbSymbolTableRecord
100
AcDbTextStyleTableRecord
  2
textstyle1
 70
0
 40
0.0
 41
1.0
 50
0.0
 71
0
 42
2.5
  3

  4

1001
ACAD
1000
Arial
1071
0
  0
STYLE
  5
60
100
AcDbSymbolTableRecord
100
AcDbTextStyleTableRecord
  2
textstyle2
 70
0
 40
0.0
 41
1.0
 50
0.0
 71
0
 42
2.5
  3

  4

1001
ACAD
1000
Arial
1071
0
  0
ENDTAB
  0
TABLE
  2
VIEW
  5
6
100
AcDbSymbolTable
 70
0
  0
ENDTAB
  0
TABLE
  2
UCS
  5
7
100
AcDbSymbolTable
 70
0
  0
ENDTAB
  0
TABLE
  2
APPID
  5
9
100
AcDbSymbolTable
 70
1
  0
APPID
  5
12
100
AcDbSymbolTableRecord
100
AcDbRegAppTableRecord
  2
ACAD
 70
0
  0
APPID
  5
61
100
AcDbSymbolTableRecord
100
AcDbRegAppTableRecord
  2
QCAD
 70
0
  0
ENDTAB
  0
TABLE
  2
DIMSTYLE
  5
A
100
AcDbSymbolTable
 70
1
100
AcDbDimStyleTable
 71
0
  0
DIMSTYLE
105
27
100
AcDbSymbolTableRecord
100
AcDbDimStyleTableRecord
  2
Standard
 41
2.5
 42
0.625
 43
3.75
 44
1.25
 70
0
 73
0
 74
0
 77
1
 78
8
140
2.5
141
2.5
143
0.03937007874016
147
0.625
171
3
172
1
271
2
272
2
274
3
278
44
283
0
284
8
340
5D
  0
ENDTAB
  0
TABLE
  2
BLOCK_RECORD
  5
1
100
AcDbSymbolTable
 70
1
  0
BLOCK_RECORD
  5
1F
100
AcDbSymbolTableRecord
100
AcDbBlockTableRecord
  2
*Model_Space
340
22
  0
BLOCK_RECORD
  5
1B
100
AcDbSymbolTableRecord
100
AcDbBlockTableRecord
  2
*Paper_Space
340
1E
  0
BLOCK_RECORD
  5
23
100
AcDbSymbolTableRecord
100
AcDbBlockTableRecord
  2
*Paper_Space0
340
26
  0
ENDTAB
  0
ENDSEC
  0
SECTION
  2
BLOCKS
  0
BLOCK
  5
20
100
AcDbEntity
  8
0
100
AcDbBlockBegin
  2
*Model_Space
 70
0
 10
0.0
 20
0.0
 30
0.0
  3
*Model_Space
  1

  0
ENDBLK
  5
21
100
AcDbEntity
  8
0
100
AcDbBlockEnd
  0
BLOCK
  5
1C
100
AcDbEntity
 67
1
  8
0
100
AcDbBlockBegin
  2
*Paper_Space
 70
0
 10
0.0
 20
0.0
 30
0.0
  3
*Paper_Space
  1

  0
ENDBLK
  5
1D
100
AcDbEntity
 67
1
  8
0
100
AcDbBlockEnd
  0
BLOCK
  5
24
100
AcDbEntity
  8
0
100
AcDbBlockBegin
  2
*Paper_Space0
 70
0
 10
0.0
 20
0.0
 30
0.0
  3
*Paper_Space0
  1

  0
ENDBLK
  5
25
100
AcDbEntity
  8
0
100
AcDbBlockEnd
  0
ENDSEC
  0
SECTION
  2
ENTITIES
  0
DIMENSION
  5
62
100
AcDbEntity
  8
Cotas
 62
256
370
-1
 48
1.0
  6
BYLAYER
100
AcDbDimension
 10
1125.155432584652317
 20
239.3724330469792676
 30
0.0
 11
nan
 21
nan
 31
0.0
 70
2
 71
8
 72
2
 74
0
 75
0
 41
1.0
 42
0.0
  1

  3
Standard
100
AcDb2LineAngularDimension
 13
1116.4951785468078924
 23
244.3724330469792392
 33
0.0
 14
1107.8349245089634678
 24
249.3724330469792392
 34
0.0
 15
1116.4951785468078924
 25
244.3724330469792392
 35
0.0
 16
1150.0881183264477841
 26
205.4012898766794706
 36
0.0
  0
IMAGE
  5
63
100
AcDbEntity
  8
0
 62
256
370
-1
 48
1.0
  6
BYLAYER
100
AcDbRasterImage
 90
0
 10
836.7770301820621626
 20
149.8281551595207191
 30
0.0
 11
0.125
 21
0.0
 31
0.0
 12
0.0
 22
0.125
 32
0.0
 13
200.0
 23
141.0
340
64
 70
15
280
0
281
50
282
50
283
0
  0
ARC
  5
65
100
AcDbEntity
  8
Contornos Visibles
 62
256
370
-1
 48
1.0
  6
BYLAYER
100
AcDbCircle
 10
1249.4745338336006171
 20
224.9073182632938597
 30
0.0
 40
8.0
100
AcDbArc
 50
18.2099568642825815
 51
341.7900431357174398
  0
LINE
  5
66
100
AcDbEntity
  8
Referencias
 62
256
370
-1
 48
1.0
  6
BYLAYER
100
AcDbLine
 10
1241.4745338336006171
 20
224.9073182632938597
 30
0.0
 11
1260.7745338336005716
 21
224.9073182632938597
 31
0.0
  0
LINE
  5
67
100
AcDbEntity
  8
Contornos Visibles
 62
256
370
-1
 48
1.0
  6
BYLAYER
100
AcDbLine
 10
1260.7745338336005716
 20
222.4073182632938597
 30
0.0
 11
1260.7745338336005716
 21
227.4073182632938597
 31
0.0
  0
LINE
  5
68
100
AcDbEntity
  8
Contornos Visibles
 62
256
370
-1
 48
1.0
  6
BYLAYER
100
AcDbLine
 10
1260.7745338336005716
 20
227.4073182632938597
 30
0.0
 11
1257.0738759103860502
 21
227.4073182632938597
 31
0.0
  0
LINE
  5
69
100
AcDbEntity
  8
Contornos Visibles
 62
256
370
-1
 48
1.0
  6
BYLAYER
100
AcDbLine
 10
1260.7745338336005716
 20
222.4073182632938597
 30
0.0
 11
1257.0738759103860502
 21
222.4073182632938597
 31
0.0
  0
XLINE
  5
6A
100
AcDbEntity
  8
Referencias
 62
256
370
-1
 48
1.0
  6
BYLAYER
100
AcDbLine
 10
1249.4745338336006171
 20
224.9073182632938597
 30
0.0
 11
1.0
 21
0.0
 31
0.0
  0
CIRCLE
  5
6B
100
AcDbEntity
  8
Ejes de revoluci\U+00f3n
 62
256
370
-1
 48
1.0
  6
BYLAYER
100
AcDbCircle
 10
1249.4745338336006171
 20
224.9073182632938597
 30
0.0
 40
24.0
  0
ARC
  5
6C
100
AcDbEntity
  8
Contornos Visibles
 62
256
370
-1
 48
1.0
  6
BYLAYER
100
AcDbCircle
 10
1273.4745338336006171
 20
224.9073182632938597
 30
0.0
 40
6.0
100
AcDbArc
 50
97.1807557814582879
 51
262.8192442185417121
  0
ARC
  5
6D
100
AcDbEntity
  8
Contornos Visibles
 62
256
370
-1
 48
1.0
  6
BYLAYER
100
AcDbCircle
 10
1249.4745338336006171
 20
200.9073182632938597
 30
0.0
 40
6.0
100
AcDbArc
 50
7.1807557814582852
 51
172.819244218541769
  0
ARC
  5
6E
100
AcDbEntity
  8
Contornos Visibles
 62
256
370
-1
 48
1.0
  6
BYLAYER
100
AcDbCircle
 10
1225.4745338336006171
 20
224.9073182632938597
 30
0.0
 40
6.0
100
AcDbArc
 50
277.1807557814583447
 51
82.8192442185416695
  0
ARC
  5
6F
100
AcDbEntity
  8
Contornos Visibles
 62
256
370
-1
 48
1.0
  6
BYLAYER
100
AcDbCircle
 10
1249.4745338336006171
 20
248.9073182632938597
 30
0.0
 40
6.0
100
AcDbArc
 50
187.1807557814583447
 51
352.819244218541769
  0
CIRCLE
  5
70
100
AcDbEntity
  8
Ejes de revoluci\U+00f3n
 62
256
370
-1
 48
1.0
  6
BYLAYER
100
AcDbCircle
 10
1249.4745338336006171
 20
224.9073182632938597
 30
0.0
 40
41.5
  0
ARC
  5
71
100
AcDbEntity
  8
Contornos Visibles
 62
256
370
-1
 48
1.0
  6
BYLAYER
100
AcDbCircle
 10
1290.9745338336006171
 20
224.9073182632938597
 30
0.0
 40
8.0
100
AcDbArc
 50
264.4689284751616469
 51
95.5310715248383531
  0
ARC
  5
72
100
AcDbEntity
  8
Contornos Visibles
 62
256
370
-1
 48
1.0
  6
BYLAYER
100
AcDbCircle
 10
1249.4745338336006171
 20
183.4073182632938597
 30
0.0
 40
8.0
100
AcDbArc
 50
174.4689284751616754
 51
5.531071524838338
  0
ARC
  5
73
100
AcDbEntity
  8
Contornos Visibles
 62
256
370
-1
 48
1.0
  6
BYLAYER
100
AcDbCircle
 10
1207.9745338336006171
 20
224.9073182632938881
 30
0.0
 40
8.0
100
AcDbArc
 50
84.4689284751616611
 51
275.5310715248383531
  0
ARC
  5
74
100
AcDbEntity
  8
Contornos Visibles
 62
256
370
-1
 48
1.0
  6
BYLAYER
100
AcDbCircle
 10
1249.4745338336006171
 20
266.4073182632938597
 30
0.0
 40
8.0
100
AcDbArc
 50
354.4689284751617606
 51
185.5310715248383531
  0
LINE
  5
75
100
AcDbEntity
  8
Contornos Visibles
 62
256
370
-1
 48
1.0
  6
BYLAYER
100
AcDbLine
 10
1272.7245338336006171
 20
218.954377813398537
 30
0.0
 11
1290.2034494962513236
 21
216.944565664807925
 31
0.0
  0
LINE
  5
76
100
AcDbEntity
  8
Contornos Visibles
 62
256
370
-1
 48
1.0
  6
BYLAYER
100
AcDbLine
 10
1243.5215933837052944
 20
201.6573182632938597
 30
0.0
 11
1241.5117812351145403
 21
184.1784026006431532
 31
0.0
  0
LINE
  5
77
100
AcDbEntity
  8
Contornos Visibles
 62
256
370
-1
 48
1.0
  6
BYLAYER
100
AcDbLine
 10
1226.2245338336006171
 20
230.8602587131891539
 30
0.0
 11
1208.7456181709499106
 21
232.8700708617797659
 31
0.0
  0
LINE
  5
78
100
AcDbEntity
  8
Contornos Visibles
 62
256
370
-1
 48
1.0
  6
BYLAYER
100
AcDbLine
 10
1255.4274742834959397
 20
248.1573182632938597
 30
0.0
 11
1257.4372864320866938
 21
265.6362339259445662
 31
0.0
  0
LINE
  5
79
100
AcDbEntity
  8
Contornos Visibles
 62
256
370
-1
 48
1.0
  6
BYLAYER
100
AcDbLine
 10
1290.2034494962513236
 20
232.8700708617797943
 30
0.0
 11
1272.7245338336006171
 21
230.8602587131891823
 31
0.0
  0
LINE
  5
7A
100
AcDbEntity
  8
Contornos Visibles
 62
256
370
-1
 48
1.0
  6
BYLAYER
100
AcDbLine
 10
1257.4372864320864664
 20
184.1784026006431532
 30
0.0
 11
1255.4274742834959397
 21
201.6573182632938597
 31
0.0
  0
LINE
  5
7B
100
AcDbEntity
  8
Contornos Visibles
 62
256
370
-1
 48
1.0
  6
BYLAYER
100
AcDbLine
 10
1208.7456181709499106
 20
216.9445656648079819
 30
0.0
 11
1226.2245338336006171
 21
218.954377813398537
 31
0.0
  0
LINE
  5
7C
100
AcDbEntity
  8
Contornos Visibles
 62
256
370
-1
 48
1.0
  6
BYLAYER
100
AcDbLine
 10
1241.5117812351147677
 20
265.6362339259445662
 30
0.0
 11
1243.5215933837052944
 21
248.1573182632938597
 31
0.0
  0
CIRCLE
  5
7D
100
AcDbEntity
  8
Contornos Visibles
 62
256
370
-1
 48
1.0
  6
BYLAYER
100
AcDbCircle
 10
1249.4745338336006171
 20
224.9073182632938597
 30
0.0
 40
53.5
  0
ARC
  5
7E
100
AcDbEntity
  8
Contornos Visibles
 62
256
370
-1
 48
1.0
  6
BYLAYER
100
AcDbCircle
 10
1249.4745338336006171
 20
224.9073182632938597
 30
0.0
 40
59.5
100
AcDbArc
 50
348.3647425974471616
 51
11.6352574025528046
  0
ARC
  5
7F
100
AcDbEntity
  8
Referencias 2
 62
256
370
-1
 48
1.0
  6
BYLAYER
100
AcDbCircle
 10
1249.4745338336006171
 20
224.9073182632938597
 30
0.0
 40
59.5
100
AcDbArc
 50
11.6352574025528046
 51
348.3647425974471616
  0
ARC
  5
80
100
AcDbEntity
  8
Contornos Visibles
 62
256
370
-1
 48
1.0
  6
BYLAYER
100
AcDbCircle
 10
1249.4745338336006171
 20
224.9073182632938597
 30
0.0
 40
59.5
100
AcDbArc
 50
318.3647425974472185
 51
341.6352574025527815
  0
ARC
  5
81
100
AcDbEntity
  8
Contornos Visibles
 62
256
370
-1
 48
1.0
  6
BYLAYER
100
AcDbCircle
 10
1249.4745338336006171
 20
224.9073182632938597
 30
0.0
 40
59.5
100
AcDbArc
 50
288.3647425974472753
 51
311.6352574025527815
  0
ARC
  5
82
100
AcDbEntity
  8
Contornos Visibles
 62
256
370
-1
 48
1.0
  6
BYLAYER
100
AcDbCircle
 10
1249.4745338336006171
 20
224.9073182632938597
 30
0.0
 40
59.5
100
AcDbArc
 50
258.3647425974471048
 51
281.6352574025527247
  0
ARC
  5
83
100
AcDbEntity
  8
Contornos Visibles
 62
256
370
-1
 48
1.0
  6
BYLAYER
100
AcDbCircle
 10
1249.4745338336006171
 20
224.9073182632938597
 30
0.0
 40
59.5
100
AcDbArc
 50
228.3647425974471048
 51
251.6352574025527531
  0
ARC
  5
84
100
AcDbEntity
  8
Contornos Visibles
 62
256
370
-1
 48
1.0
  6
BYLAYER
100
AcDbCircle
 10
1249.4745338336006171
 20
224.9073182632938597
 30
0.0
 40
59.5
100
AcDbArc
 50
198.3647425974471332
 51
221.6352574025527815
  0
ARC
  5
85
100
AcDbEntity
  8
Contornos Visibles
 62
256
370
-1
 48
1.0
  6
BYLAYER
100
AcDbCircle
 10
1249.4745338336006171
 20
224.9073182632938597
 30
0.0
 40
59.5
100
AcDbArc
 50
168.3647425974469911
 51
191.635257402552611
  0
ARC
  5
86
100
AcDbEntity
  8
Contornos Visibles
 62
256
370
-1
 48
1.0
  6
BYLAYER
100
AcDbCircle
 10
1249.4745338336006171
 20
224.9073182632938597
 30
0.0
 40
59.5
100
AcDbArc
 50
138.3647425974472185
 51
161.6352574025528384
  0
ARC
  5
87
100
AcDbEntity
  8
Contornos Visibles
 62
256
370
-1
 48
1.0
  6
BYLAYER
100
AcDbCircle
 10
1249.4745338336006171
 20
224.9073182632938597
 30
0.0
 40
59.5
100
AcDbArc
 50
108.3647425974470337
 51
131.6352574025526962
  0
ARC
  5
88
100
AcDbEntity
  8
Contornos Visibles
 62
256
370
-1
 48
1.0
  6
BYLAYER
100
AcDbCircle
 10
1249.4745338336006171
 20
224.9073182632938597
 30
0.0
 40
59.5
100
AcDbArc
 50
78.3647425974468774
 51
101.6352574025525115
  0
ARC
  5
89
100
AcDbEntity
  8
Contornos Visibles
 62
256
370
-1
 48
1.0
  6
BYLAYER
100
AcDbCircle
 10
1249.4745338336006171
 20
224.9073182632938597
 30
0.0
 40
59.5
100
AcDbArc
 50
48.3647425974471119
 51
71.6352574025527531
  0
ARC
  5
8A
100
AcDbEntity
  8
Contornos Visibles
 62
256
370
-1
 48
1.0
  6
BYLAYER
100
AcDbCircle
 10
1249.4745338336006171
 20
224.9073182632938597
 30
0.0
 40
59.5
100
AcDbArc
 50
18.3647425974473499
 51
41.6352574025525826
  0
LINE
  5
8B
100
AcDbEntity
  8
Referencias 2
 62
256
370
-1
 48
1.0
  6
BYLAYER
100
AcDbLine
 10
1305.3759963980783141
 20
212.9073182632938597
 30
0.0
 11
1305.3759963980783141
 21
236.9073182632938597
 31
0.0
  0
LINE
  5
8C
100
AcDbEntity
  8
Contornos Visibles
 62
256
370
-1
 48
1.0
  6
BYLAYER
100
AcDbLine
 10
1301.6113730166580353
 20
236.9073182632938597
 30
0.0
 11
1307.7518879259064306
 21
236.9073182632938597
 31
0.0
  0
LINE
  5
8D
100
AcDbEntity
  8
Contornos Visibles
 62
256
370
-1
 48
1.0
  6
BYLAYER
100
AcDbLine
 10
1300.6263610391522434
 20
209.2312035171784146
 30
0.0
 11
1305.944202942878519
 21
206.1609460625541885
 31
0.0
  0
LINE
  5
8E
100
AcDbEntity
  8
Contornos Visibles
 62
256
370
-1
 48
1.0
  6
BYLAYER
100
AcDbLine
 10
1285.9352582705425903
 20
185.7554910577422049
 30
0.0
 11
1289.0055157251667879
 21
180.4376491540159861
 31
0.0
  0
LINE
  5
8F
100
AcDbEntity
  8
Contornos Visibles
 62
256
370
-1
 48
1.0
  6
BYLAYER
100
AcDbLine
 10
1261.4745338336006171
 20
172.770479080236413
 30
0.0
 11
1261.4745338336003897
 21
166.6299641709880177
 31
0.0
  0
LINE
  5
90
100
AcDbEntity
  8
Contornos Visibles
 62
256
370
-1
 48
1.0
  6
BYLAYER
100
AcDbLine
 10
1233.798419087485172
 20
173.7554910577422334
 30
0.0
 11
1230.7281616328609744
 21
168.437649154016043
 31
0.0
  0
LINE
  5
91
100
AcDbEntity
  8
Contornos Visibles
 62
256
370
-1
 48
1.0
  6
BYLAYER
100
AcDbLine
 10
1210.3227066280489908
 20
188.4465938263519433
 30
0.0
 11
1205.0048647243227151
 21
185.3763363717277457
 31
0.0
  0
LINE
  5
92
100
AcDbEntity
  8
Contornos Visibles
 62
256
370
-1
 48
1.0
  6
BYLAYER
100
AcDbLine
 10
1197.3376946505431988
 20
212.9073182632942576
 30
0.0
 11
1191.1971797412948035
 21
212.9073182632941439
 31
0.0
  0
LINE
  5
93
100
AcDbEntity
  8
Contornos Visibles
 62
256
370
-1
 48
1.0
  6
BYLAYER
100
AcDbLine
 10
1198.3227066280489908
 20
240.5834330094095037
 30
0.0
 11
1193.0048647243227151
 21
243.6536904640335592
 31
0.0
  0
LINE
  5
94
100
AcDbEntity
  8
Contornos Visibles
 62
256
370
-1
 48
1.0
  6
BYLAYER
100
AcDbLine
 10
1213.0138093966588713
 20
264.0591454688457702
 30
0.0
 11
1209.9435519420346736
 21
269.3769873725718753
 31
0.0
  0
LINE
  5
95
100
AcDbEntity
  8
Contornos Visibles
 62
256
370
-1
 48
1.0
  6
BYLAYER
100
AcDbLine
 10
1237.4745338336010718
 20
277.0441574463513916
 30
0.0
 11
1237.4745338336010718
 21
283.1846723555997869
 31
0.0
  0
LINE
  5
96
100
AcDbEntity
  8
Contornos Visibles
 62
256
370
-1
 48
1.0
  6
BYLAYER
100
AcDbLine
 10
1265.1506485797162895
 20
276.0591454688454291
 30
0.0
 11
1268.2209060343404872
 21
281.3769873725716479
 31
0.0
  0
LINE
  5
97
100
AcDbEntity
  8
Contornos Visibles
 62
256
370
-1
 48
1.0
  6
BYLAYER
100
AcDbLine
 10
1288.6263610391526981
 20
261.3680427002354349
 30
0.0
 11
1293.9442029428787464
 21
264.4383001548597463
 31
0.0
  0
LINE
  5
98
100
AcDbEntity
  8
Contornos Visibles
 62
256
370
-1
 48
1.0
  6
BYLAYER
100
AcDbLine
 10
1301.6113730166580353
 20
212.9073182632938597
 30
0.0
 11
1307.7518879259064306
 21
212.9073182632938597
 31
0.0
  0
LINE
  5
99
100
AcDbEntity
  8
Contornos Visibles
 62
256
370
-1
 48
1.0
  6
BYLAYER
100
AcDbLine
 10
1288.6263610391522434
 20
188.4465938263518581
 30
0.0
 11
1293.944202942878519
 21
185.3763363717276889
 31
0.0
  0
LINE
  5
9A
100
AcDbEntity
  8
Contornos Visibles
 62
256
370
-1
 48
1.0
  6
BYLAYER
100
AcDbLine
 10
1265.1506485797158348
 20
173.7554910577421765
 30
0.0
 11
1268.2209060343402598
 21
168.4376491540160146
 31
0.0
  0
LINE
  5
9B
100
AcDbEntity
  8
Contornos Visibles
 62
256
370
-1
 48
1.0
  6
BYLAYER
100
AcDbLine
 10
1237.4745338336003897
 20
172.7704790802364698
 30
0.0
 11
1237.4745338336003897
 21
166.6299641709880746
 31
0.0
  0
LINE
  5
9C
100
AcDbEntity
  8
Contornos Visibles
 62
256
370
-1
 48
1.0
  6
BYLAYER
100
AcDbLine
 10
1213.0138093966584165
 20
185.7554910577423186
 30
0.0
 11
1209.9435519420344463
 21
180.4376491540161283
 31
0.0
  0
LINE
  5
9D
100
AcDbEntity
  8
Contornos Visibles
 62
256
370
-1
 48
1.0
  6
BYLAYER
100
AcDbLine
 10
1198.3227066280489908
 20
209.2312035171783577
 30
0.0
 11
1193.0048647243227151
 21
206.1609460625543306
 31
0.0
  0
LINE
  5
9E
100
AcDbEntity
  8
Contornos Visibles
 62
256
370
-1
 48
1.0
  6
BYLAYER
100
AcDbLine
 10
1197.3376946505431988
 20
236.9073182632943428
 30
0.0
 11
1191.1971797412948035
 21
236.9073182632941723
 31
0.0
  0
LINE
  5
9F
100
AcDbEntity
  8
Contornos Visibles
 62
256
370
-1
 48
1.0
  6
BYLAYER
100
AcDbLine
 10
1210.3227066280492181
 20
261.3680427002360602
 30
0.0
 11
1205.0048647243227151
 21
264.4383001548600873
 31
0.0
  0
LINE
  5
A0
100
AcDbEntity
  8
Contornos Visibles
 62
256
370
-1
 48
1.0
  6
BYLAYER
100
AcDbLine
 10
1233.798419087485172
 20
276.0591454688455428
 30
0.0
 11
1230.7281616328612017
 21
281.3769873725718185
 31
0.0
  0
LINE
  5
A1
100
AcDbEntity
  8
Contornos Visibles
 62
256
370
-1
 48
1.0
  6
BYLAYER
100
AcDbLine
 10
1261.4745338336012992
 20
277.0441574463511643
 30
0.0
 11
1261.4745338336010718
 21
283.1846723555995595
 31
0.0
  0
LINE
  5
A2
100
AcDbEntity
  8
Contornos Visibles
 62
256
370
-1
 48
1.0
  6
BYLAYER
100
AcDbLine
 10
1285.9352582705428176
 20
264.0591454688452018
 30
0.0
 11
1289.0055157251670153
 21
269.3769873725715343
 31
0.0
  0
LINE
  5
A3
100
AcDbEntity
  8
Contornos Visibles
 62
256
370
-1
 48
1.0
  6
BYLAYER
100
AcDbLine
 10
1300.6263610391522434
 20
240.5834330094091058
 30
0.0
 11
1305.944202942878519
 21
243.6536904640331045
 31
0.0
  0
LINE
  5
A4
100
AcDbEntity
  8
Ejes de revoluci\U+00f3n
 62
256
370
-1
 48
1.0
  6
BYLAYER
100
AcDbLine
 10
1179.9745338336006171
 20
224.907318263294087
 30
0.0
 11
1318.9745338336006171
 21
224.9073182632938313
 31
0.0
  0
LINE
  5
A5
100
AcDbEntity
  8
Ejes de revoluci\U+00f3n
 62
256
370
-1
 48
1.0
  6
BYLAYER
100
AcDbLine
 10
1249.4745338336003897
 20
155.4073182632938597
 30
0.0
 11
1249.4745338336008444
 21
294.4073182632938597
 31
0.0
  0
DIMENSION
  5
A6
100
AcDbEntity
  8
Cotas
 62
256
370
-1
 48
1.0
  6
BYLAYER
100
AcDbDimension
 10
1327.2116794146320444
 20
236.9073182632938597
 30
0.0
 11
1325.3366794146320444
 21
224.9073182632938597
 31
0.0
 70
0
 71
8
 72
2
 74
0
 75
0
 41
1.0
 42
0.0
  1

  3
Standard
100
AcDbAlignedDimension
 13
1307.7518879259064306
 23
236.9073182632938597
 33
0.0
 14
1307.7518879259064306
 24
212.9073182632938597
 34
0.0
 50
90.0
100
AcDbRotatedDimension
1001
ACAD
1000
DSTYLE
1002
{
1070
144
1040
1.0
1070
40
1040
1.0
1002
}
  0
MTEXT
  5
A7
100
AcDbEntity
  8
Cotas
 62
256
370
-1
 48
1.0
  6
BYLAYER
100
AcDbMText
 10
1234.2633171944316928
 20
273.780232407023675
 30
0.0
 40
2.5
 41
0.0
 71
1
 72
1
  1
R8
  7
textstyle2
 50
0.0
 73
2
 44
1.0
  0
LEADER
  5
A8
100
AcDbEntity
  8
Cotas
 62
256
370
-1
 48
1.0
  6
BYLAYER
100
AcDbLeader
  3
Standard
 71
1
 72
0
 73
3
 74
0
 75
0
 40
1.0
 41
10.0
 76
3
 10
1242.2756083568792747
 20
269.8966551602717345
 10
1238.5485416812969106
 20
270.9773674684152525
 10
1234.0133171944316928
 20
270.9773674684152525
1001
ACAD
1000
DSTYLE
1002
{
1070
40
1040
1.0
1002
}
  0
MTEXT
  5
A9
100
AcDbEntity
  8
Cotas
 62
256
370
-1
 48
1.0
  6
BYLAYER
100
AcDbMText
 10
1236.9263615405818655
 20
242.1353723408250005
 30
0.0
 40
2.5
 41
0.0
 71
1
 72
1
  1
R6
  7
textstyle1
 50
0.0
 73
2
 44
1.0
  0
LEADER
  5
AA
100
AcDbEntity
  8
Cotas
 62
256
370
-1
 48
1.0
  6
BYLAYER
100
AcDbLeader
  3
Standard
 71
1
 72
0
 73
3
 74
0
 75
0
 40
1.0
 41
10.0
 76
3
 10
1245.4945773154299786
 20
244.4173353999109963
 10
1241.2047647450458498
 20
239.3325074022165211
 10
1236.6763615405818655
 20
239.3325074022165211
1001
ACAD
1000
DSTYLE
1002
{
1070
40
1040
1.0
1002
}
  0
DIMENSION
  5
AB
100
AcDbEntity
  8
Cotas
 62
256
370
-1
 48
1.0
  6
BYLAYER
100
AcDbDimension
 10
1241.4745338336006171
 20
211.9210072408062047
 30
0.0
 11
1251.124533833600708
 21
213.7960072408062047
 31
0.0
 70
0
 71
8
 72
2
 74
0
 75
0
 41
1.0
 42
0.0
  1

  3
Standard
100
AcDbAlignedDimension
 13
1241.4745338336006171
 23
224.9073182632939734
 33
0.0
 14
1260.7745338336005716
 24
224.9073182632939734
 34
0.0
 50
0.0
100
AcDbRotatedDimension
1001
ACAD
1000
DSTYLE
1002
{
1070
144
1040
1.0
1070
40
1040
1.0
1002
}
  0
DIMENSION
  5
AC
100
AcDbEntity
  8
Cotas
 62
256
370
-1
 48
1.0
  6
BYLAYER
100
AcDbDimension
 10
1265.4594186335093582
 20
222.4073182632938881
 30
0.0
 11
1263.5844186335093582
 21
224.9073182632938597
 31
0.0
 70
0
 71
8
 72
2
 74
0
 75
0
 41
1.0
 42
0.0
  1

  3
Standard
100
AcDbAlignedDimension
 13
1260.774533833600799
 23
222.4073182632938881
 33
0.0
 14
1260.774533833600799
 24
227.4073182632938597
 34
0.0
 50
90.0
100
AcDbRotatedDimension
1001
ACAD
1000
DSTYLE
1002
{
1070
144
1040
1.0
1070
40
1040
1.0
1002
}
  0
DIMENSION
  5
AD
100
AcDbEntity
  8
Cotas
 62
256
370
-1
 48
1.0
  6
BYLAYER
100
AcDbDimension
 10
1244.1480866682832129
 20
218.9383182972122199
 30
0.0
 11
1243.5421645404558149
 21
215.7732031313181267
 31
0.0
 70
131
 71
8
 72
2
 74
0
 75
0
 41
1.0
 42
0.0
  1
\U+00f8<>
  3
Standard
100
AcDbDiametricDimension
 15
1254.8009809989180212
 25
230.8763182293754994
 35
0.0
 40
0.0
1001
ACAD
1000
DSTYLE
1002
{
1070
279
1070
2
1070
144
1040
1.0
1070
40
1040
1.0
1002
}
  0
DIMENSION
  5
AE
100
AcDbEntity
  8
Cotas
 62
256
370
-1
 48
1.0
  6
BYLAYER
100
AcDbDimension
 10
1271.3054704902262984
 20
234.8777848869978584
 30
0.0
 11
1265.6156289274349547
 21
235.5600775292195408
 31
0.0
 70
131
 71
8
 72
2
 74
0
 75
0
 41
1.0
 42
0.0
  1
\U+00f8<>
  3
Standard
100
AcDbDiametricDimension
 15
1227.6435971769749358
 25
214.936851639589861
 35
0.0
 40
0.0
1001
ACAD
1000
DSTYLE
1002
{
1070
279
1070
2
1070
144
1040
1.0
1070
40
1040
1.0
1002
}
  0
DIMENSION
  5
AF
100
AcDbEntity
  8
Cotas
 62
256
370
-1
 48
1.0
  6
BYLAYER
100
AcDbDimension
 10
1282.4605184974755048
 20
199.7244904682545155
 30
0.0
 11
1280.4516186474829738
 21
205.3773083151518222
 31
0.0
 70
131
 71
8
 72
2
 74
0
 75
0
 41
1.0
 42
0.0
  1
\U+00f8<>
  3
Standard
100
AcDbDiametricDimension
 15
1216.4885491697257294
 25
250.0901460583332039
 35
0.0
 40
0.0
1001
ACAD
1000
DSTYLE
1002
{
1070
279
1070
2
1070
144
1040
1.0
1070
40
1040
1.0
1002
}
  0
DIMENSION
  5
B0
100
AcDbEntity
  8
Cotas
 62
256
370
-1
 48
1.0
  6
BYLAYER
100
AcDbDimension
 10
1198.6992851387037717
 20
241.7632999900093864
 30
0.0
 11
1204.8996489449150431
 21
242.4592787285249642
 31
0.0
 70
131
 71
8
 72
2
 74
0
 75
0
 41
1.0
 42
0.0
  1
\U+00f8<>
  3
Standard
100
AcDbDiametricDimension
 15
1300.2497825284974624
 25
208.0513365365783045
 35
0.0
 40
0.0
1001
ACAD
1000
DSTYLE
1002
{
1070
279
1070
2
1070
144
1040
1.0
1070
40
1040
1.0
1002
}
  0
MTEXT
  5
B1
100
AcDbEntity
  8
Cotas
 62
256
370
-1
 48
1.0
  6
BYLAYER
100
AcDbMText
 10
1310.7333098363274075
 20
262.3466873536583535
 30
0.0
 40
2.5
 41
0.0
 71
1
 72
1
  1
%%c119
  7
textstyle0
 50
0.0
 73
2
 44
1.0
  0
LEADER
  5
B2
100
AcDbEntity
  8
Cotas
 62
256
370
-1
 48
1.0
  6
BYLAYER
100
AcDbLeader
  3
Standard
 71
1
 72
0
 73
3
 74
0
 75
0
 40
1.0
 41
10.0
 76
3
 10
1301.0030453587746706
 20
254.6573182632938313
 10
1310.4833098363274075
 20
259.4517351026351548
 10
1318.3030074432369929
 20
259.4517351026351548
1001
ACAD
1000
DSTYLE
1002
{
1070
40
1040
1.0
1002
}
  0
ENDSEC
  0
SECTION
  2
OBJECTS
  0
DICTIONARY
  5
C
100
AcDbDictionary
280
0
281
1
  3
ACAD_GROUP
350
D
  3
ACAD_LAYOUT
350
1A
  3
ACAD_MLINESTYLE
350
17
  3
ACAD_PLOTSETTINGS
350
19
  3
ACAD_PLOTSTYLENAME
350
E
  3
AcDbVariableDictionary
350
B3
  3
QCAD_OBJECTS
350
B4
  0
DICTIONARY
  5
D
100
AcDbDictionary
280
0
281
1
  0
ACDBDICTIONARYWDFLT
  5
E
100
AcDbDictionary
281
1
  3
Normal
350
F
100
AcDbDictionaryWithDefault
340
F
  0
ACDBPLACEHOLDER
  5
F
  0
DICTIONARY
  5
17
100
AcDbDictionary
280
0
281
1
  3
Standard
350
18
  0
MLINESTYLE
  5
18
100
AcDbMlineStyle
  2
STANDARD
 70
0
  3

 62
256
 51
90.0
 52
90.0
 71
2
 49
0.5
 62
256
  6
BYLAYER
 49
-0.5
 62
256
  6
BYLAYER
  0
DICTIONARY
  5
19
100
AcDbDictionary
280
0
281
1
  0
DICTIONARY
  5
1A
100
AcDbDictionary
281
1
  3
Layout1
350
1E
  3
Layout2
350
26
  3
Model
350
22
  0
LAYOUT
  5
1E
100
AcDbPlotSettings
  1

  2
none_device
  4

  6

 40
0.0
 41
0.0
 42
0.0
 43
0.0
 44
0.0
 45
0.0
 46
0.0
 47
0.0
 48
0.0
 49
0.0
140
0.0
141
0.0
142
1.0
143
1.0
 70
688
 72
0
 73
0
 74
5
  7

 75
16
147
1.0
148
0.0
149
0.0
100
AcDbLayout
  1
Layout1
 70
1
 71
1
 10
0.0
 20
0.0
 11
420.0
 21
297.0
 12
0.0
 22
0.0
 32
0.0
 14
100000000000000000000.0
 24
100000000000000000000.0
 34
100000000000000000000.0
 15
-100000000000000000000.0
 25
-100000000000000000000.0
 35
-100000000000000000000.0
146
0.0
 13
0.0
 23
0.0
 33
0.0
 16
1.0
 26
0.0
 36
0.0
 17
0.0
 27
1.0
 37
0.0
 76
0
330
1B
  0
LAYOUT
  5
22
100
AcDbPlotSettings
  1

  2
none_device
  4

  6

 40
0.0
 41
0.0
 42
0.0
 43
0.0
 44
0.0
 45
0.0
 46
0.0
 47
0.0
 48
0.0
 49
0.0
140
0.0
141
0.0
142
1.0
143
1.0
 70
1712
 72
0
 73
0
 74
0
  7

 75
0
147
1.0
148
0.0
149
0.0
100
AcDbLayout
  1
Model
 70
1
 71
0
 10
0.0
 20
0.0
 11
12.0
 21
9.0
 12
0.0
 22
0.0
 32
0.0
 14
0.0
 24
0.0
 34
0.0
 15
0.0
 25
0.0
 35
0.0
146
0.0
 13
0.0
 23
0.0
 33
0.0
 16
1.0
 26
0.0
 36
0.0
 17
0.0
 27
1.0
 37
0.0
 76
0
330
1F
  0
LAYOUT
  5
26
100
AcDbPlotSettings
  1

  2
none_device
  4

  6

 40
0.0
 41
0.0
 42
0.0
 43
0.0
 44
0.0
 45
0.0
 46
0.0
 47
0.0
 48
0.0
 49
0.0
140
0.0
141
0.0
142
1.0
143
1.0
 70
688
 72
0
 73
0
 74
5
  7

 75
16
147
1.0
148
0.0
149
0.0
100
AcDbLayout
  1
Layout2
 70
1
 71
2
 10
0.0
 20
0.0
 11
12.0
 21
9.0
 12
0.0
 22
0.0
 32
0.0
 14
0.0
 24
0.0
 34
0.0
 15
0.0
 25
0.0
 35
0.0
146
0.0
 13
0.0
 23
0.0
 33
0.0
 16
1.0
 26
0.0
 36
0.0
 17
0.0
 27
1.0
 37
0.0
 76
0
330
23
  0
DICTIONARY
  5
B3
100
AcDbDictionary
281
1
  3
DIMASSOC
350
B6
  3
HIDETEXT
350
B5
  0
DICTIONARYVAR
  5
B5
100
DictionaryVariables
280
0
  1
2
  0
DICTIONARYVAR
  5
B6
100
DictionaryVariables
280
0
  1
1
  0
DICTIONARY
  5
B4
100
AcDbDictionary
281
1
  3
ColorSettings/BackgroundColor
350
B7
  3
ColorSettings/ColorMode
350
B8
  3
Grid/DisplayGrid00
350
B9
  3
Grid/DisplayGrid01
350
BA
  3
Grid/DisplayGrid02
350
BB
  3
Grid/DisplayGrid03
350
BC
  3
Grid/GridSpacingX00
350
BD
  3
Grid/GridSpacingX01
350
BE
  3
Grid/GridSpacingX02
350
BF
  3
Grid/GridSpacingX03
350
C0
  3
Grid/GridSpacingY00
350
C1
  3
Grid/GridSpacingY01
350
C2
  3
Grid/GridSpacingY02
350
C3
  3
Grid/GridSpacingY03
350
C4
  3
Grid/IsometricGrid00
350
C5
  3
Grid/IsometricGrid01
350
C6
  3
Grid/IsometricGrid02
350
C7
  3
Grid/IsometricGrid03
350
C8
  3
Grid/IsometricProjection00
350
C9
  3
Grid/IsometricProjection01
350
CA
  3
Grid/IsometricProjection02
350
CB
  3
Grid/IsometricProjection03
350
CC
  3
Grid/MetaGridSpacingX00
350
CD
  3
Grid/MetaGridSpacingX01
350
CE
  3
Grid/MetaGridSpacingX02
350
CF
  3
Grid/MetaGridSpacingX03
350
D0
  3
Grid/MetaGridSpacingY00
350
D1
  3
Grid/MetaGridSpacingY01
350
D2
  3
Grid/MetaGridSpacingY02
350
D3
  3
Grid/MetaGridSpacingY03
350
D4
  3
MultiPageSettings/Columns
350
D5
  3
MultiPageSettings/GlueMarginsBottom
350
D6
  3
MultiPageSettings/GlueMarginsLeft
350
D7
  3
MultiPageSettings/GlueMarginsRight
350
D8
  3
MultiPageSettings/GlueMarginsTop
350
D9
  3
MultiPageSettings/PrintCropMarks
350
DA
  3
MultiPageSettings/Rows
350
DB
  3
PageSettings/OffsetX
350
DC
  3
PageSettings/OffsetY
350
DD
  3
PageSettings/PageOrientation
350
DE
  3
PageSettings/PaperHeight
350
DF
  3
PageSettings/PaperWidth
350
E0
  3
PageSettings/Scale
350
E1
  3
PageSettings/ShowPaperBorders
350
E2
  3
PageTagSettings/EnablePageTags
350
E3
  3
PageTagSettings/TagAlignment
350
E4
  3
PageTagSettings/TagFont
350
E5
  3
PageTagSettings/TagPosition
350
E6
  3
QCADVersion
350
E7
  3
UnitSettings/PaperUnit
350
E8
  3
ViewportCenter
350
E9
  3
ViewportHeight
350
EA
  3
ViewportWidth
350
EB
  0
XRECORD
  5
B7
330
B4
100
AcDbXrecord
280
1
1000
Blanca
  0
XRECORD
  5
B8
330
B4
100
AcDbXrecord
280
1
1000
FullColor
  0
XRECORD
  5
B9
330
B4
100
AcDbXrecord
280
1
290
0
  0
XRECORD
  5
BA
330
B4
100
AcDbXrecord
280
1
290
1
  0
XRECORD
  5
BB
330
B4
100
AcDbXrecord
280
1
290
1
  0
XRECORD
  5
BC
330
B4
100
AcDbXrecord
280
1
290
1
  0
XRECORD
  5
BD
330
B4
100
AcDbXrecord
280
1
1000
auto
  0
XRECORD
  5
BE
330
B4
100
AcDbXrecord
280
1
1000
auto
  0
XRECORD
  5
BF
330
B4
100
AcDbXrecord
280
1
1000
auto
  0
XRECORD
  5
C0
330
B4
100
AcDbXrecord
280
1
1000
auto
  0
XRECORD
  5
C1
330
B4
100
AcDbXrecord
280
1
1000
auto
  0
XRECORD
  5
C2
330
B4
100
AcDbXrecord
280
1
1000
auto
  0
XRECORD
  5
C3
330
B4
100
AcDbXrecord
280
1
1000
auto
  0
XRECORD
  5
C4
330
B4
100
AcDbXrecord
280
1
1000
auto
  0
XRECORD
  5
C5
330
B4
100
AcDbXrecord
280
1
290
0
  0
XRECORD
  5
C6
330
B4
100
AcDbXrecord
280
1
290
0
  0
XRECORD
  5
C7
330
B4
100
AcDbXrecord
280
1
290
0
  0
XRECORD
  5
C8
330
B4
100
AcDbXrecord
280
1
290
0
  0
XRECORD
  5
C9
330
B4
100
AcDbXrecord
280
1
 90
65537
  0
XRECORD
  5
CA
330
B4
100
AcDbXrecord
280
1
 90
65537
  0
XRECORD
  5
CB
330
B4
100
AcDbXrecord
280
1
 90
65537
  0
XRECORD
  5
CC
330
B4
100
AcDbXrecord
280
1
 90
65537
  0
XRECORD
  5
CD
330
B4
100
AcDbXrecord
280
1
1000
auto
  0
XRECORD
  5
CE
330
B4
100
AcDbXrecord
280
1
1000
auto
  0
XRECORD
  5
CF
330
B4
100
AcDbXrecord
280
1
1000
auto
  0
XRECORD
  5
D0
330
B4
100
AcDbXrecord
280
1
1000
auto
  0
XRECORD
  5
D1
330
B4
100
AcDbXrecord
280
1
1000
1
  0
XRECORD
  5
D2
330
B4
100
AcDbXrecord
280
1
1000
auto
  0
XRECORD
  5
D3
330
B4
100
AcDbXrecord
280
1
1000
auto
  0
XRECORD
  5
D4
330
B4
100
AcDbXrecord
280
1
1000
auto
  0
XRECORD
  5
D5
330
B4
100
AcDbXrecord
280
1
 90
1
  0
XRECORD
  5
D6
330
B4
100
AcDbXrecord
280
1
 40
10.0
  0
XRECORD
  5
D7
330
B4
100
AcDbXrecord
280
1
 40
10.0
  0
XRECORD
  5
D8
330
B4
100
AcDbXrecord
280
1
 40
10.0
  0
XRECORD
  5
D9
330
B4
100
AcDbXrecord
280
1
 40
10.0
  0
XRECORD
  5
DA
330
B4
100
AcDbXrecord
280
1
290
0
  0
XRECORD
  5
DB
330
B4
100
AcDbXrecord
280
1
 90
1
  0
XRECORD
  5
DC
330
B4
100
AcDbXrecord
280
1
 40
793.1665914866936191
  0
XRECORD
  5
DD
330
B4
100
AcDbXrecord
280
1
 40
306.6308471493692309
  0
XRECORD
  5
DE
330
B4
100
AcDbXrecord
280
1
1000
Portrait
  0
XRECORD
  5
DF
330
B4
100
AcDbXrecord
280
1
 40
279.3999999999999773
  0
XRECORD
  5
E0
330
B4
100
AcDbXrecord
280
1
 40
215.9000000000000057
  0
XRECORD
  5
E1
330
B4
100
AcDbXrecord
280
1
 90
1
  0
XRECORD
  5
E2
330
B4
100
AcDbXrecord
280
1
290
1
  0
XRECORD
  5
E3
330
B4
100
AcDbXrecord
280
1
290
0
  0
XRECORD
  5
E4
330
B4
100
AcDbXrecord
280
1
1000
Inside
  0
XRECORD
  5
E5
330
B4
100
AcDbXrecord
280
1
1000
Arial,10,-1,5,50,0,0,0,0,0
  0
XRECORD
  5
E6
330
B4
100
AcDbXrecord
280
1
1000
TopLeft
  0
XRECORD
  5
E7
330
B4
100
AcDbXrecord
280
1
1000
3.28.1
  0
XRECORD
  5
E8
330
B4
100
AcDbXrecord
280
1
 90
4
  0
XRECORD
  5
EA
330
B4
100
AcDbXrecord
280
1
 40
111.9714395989356603
  0
XRECORD
  5
EB
330
B4
100
AcDbXrecord
280
1
 40
208.5697512201486461
  0
IMAGEDEF
  5
64
100
AcDbRasterImageDef
 90
0
  1
C:/Users/iamth/Documents/CAD/QCad/Learn QCAD/1. StudyCadCam/2D CAD EXERCISES 41a.png
 10
200.0
 20
141.0
 11
1.0
 21
1.0
280
1
281
0
  0
ENDSEC
  0
EOF
