999
dxflib 3.26.4.0
  0
SECTION
  2
HEADER
  9
$ACADVER
  1
AC1015
  9
$HANDSEED
  5
FFFF
  9
$DIMADEC
 70
0
  9
$DIMASZ
 40
2.5
  9
$DIMATFIT
 70
0
  9
$DIMAUNIT
 70
0
  9
$DIMAZIN
 70
2
  9
$DIMBLK
  1
0
  9
$DIMBLK1
  1
0
  9
$DIMBLK2
  1
0
  9
$DIMDEC
 70
4
  9
$DIMDLI
 40
5.0
  9
$DIMDSEP
 70
46
  9
$DIMEXE
 40
1.25
  9
$DIMEXO
 40
0.625
  9
$DIMGAP
 40
0.625
  9
$DIMLFAC
 40
1.0
  9
$DIMLUNIT
 70
2
  9
$DIMSCALE
 40
1.0
  9
$DIMTAD
 70
1
  9
$DIMTIH
 70
0
  9
$DIMTSZ
 40
0.0
  9
$DIMTXT
 40
2.5
  9
$DIMZIN
 70
8
  9
$DWGCODEPAGE
  3
ANSI_1252
  9
$INSUNITS
 70
4
  9
$LTSCALE
 40
1.0
  9
$MAXACTVP
 70
64
  9
$MEASUREMENT
 70
1
  9
$MIRRTEXT
 70
0
  9
$PDMODE
 70
0
  9
$PDSIZE
 40
0.0
  0
ENDSEC
  0
SECTION
  2
TABLES
  0
TABLE
  2
VPORT
  5
8
100
AcDbSymbolTable
 70
1
  0
VPORT
  5
30
100
AcDbSymbolTableRecord
100
AcDbViewportTableRecord
  2
*Active
 70
0
 10
0.0
 20
0.0
 11
1.0
 21
1.0
 12
286.3055555555554861
 22
148.5
 13
0.0
 23
0.0
 14
10.0
 24
10.0
 15
10.0
 25
10.0
 16
0.0
 26
0.0
 36
1.0
 17
0.0
 27
0.0
 37
0.0
 40
297.0
 41
1.92798353909465
 42
50.0
 43
0.0
 44
0.0
 50
0.0
 51
0.0
 71
0
 72
100
 73
1
 74
3
 75
1
 76
1
 77
0
 78
0
281
0
 65
1
110
0.0
120
0.0
130
0.0
111
1.0
121
0.0
131
0.0
112
0.0
122
1.0
132
0.0
 79
0
146
0.0
  0
ENDTAB
  0
TABLE
  2
LTYPE
  5
5
100
AcDbSymbolTable
 70
41
  0
LTYPE
  5
16
100
AcDbSymbolTableRecord
100
AcDbLinetypeTableRecord
  2
Continuous
 70
0
  3
Solid line
 72
65
 73
0
 40
0.0
  0
LTYPE
  5
31
100
AcDbSymbolTableRecord
100
AcDbLinetypeTableRecord
  2
ACAD_ISO04W100
 70
0
  3
ISO long-dash dot ____ . ____ . ____ . ____ . _
 72
65
 73
4
 40
30.0
 49
24.0
 74
0
 49
-2.9500000000000002
 74
0
 49
0.1
 74
0
 49
-2.9500000000000002
 74
0
  0
LTYPE
  5
32
100
AcDbSymbolTableRecord
100
AcDbLinetypeTableRecord
  2
DASHDOTX2
 70
0
  3
Dash dot (2x) ____  .  ____  .  ____  .  ___
 72
65
 73
4
 40
50.7999999999999972
 49
25.3999999999999986
 74
0
 49
-12.6499999999999986
 74
0
 49
0.1
 74
0
 49
-12.6499999999999986
 74
0
  0
LTYPE
  5
33
100
AcDbSymbolTableRecord
100
AcDbLinetypeTableRecord
  2
DOT
 70
0
  3
Dot . . . . . . . . . . . . . . . . . . . . . . . .
 72
65
 73
2
 40
6.3499999999999996
 49
0.1
 74
0
 49
-6.25
 74
0
  0
LTYPE
  5
34
100
AcDbSymbolTableRecord
100
AcDbLinetypeTableRecord
  2
BORDER
 70
0
  3
Border __ __ . __ __ . __ __ . __ __ . __ __ .
 72
65
 73
6
 40
44.4499999999999957
 49
12.6999999999999993
 74
0
 49
-6.3499999999999996
 74
0
 49
12.6999999999999993
 74
0
 49
-6.2999999999999998
 74
0
 49
0.1
 74
0
 49
-6.2999999999999998
 74
0
  0
LTYPE
  5
35
100
AcDbSymbolTableRecord
100
AcDbLinetypeTableRecord
  2
PHANTOMX2
 70
0
  3
Phantom (2x) ____________    ____    ____   _
 72
65
 73
6
 40
127.0000000000000142
 49
63.5
 74
0
 49
-12.6999999999999993
 74
0
 49
12.6999999999999993
 74
0
 49
-12.6999999999999993
 74
0
 49
12.6999999999999993
 74
0
 49
-12.6999999999999993
 74
0
  0
LTYPE
  5
36
100
AcDbSymbolTableRecord
100
AcDbLinetypeTableRecord
  2
BORDERX2
 70
0
  3
Border (2x) ____  ____  .  ____  ____  .  ___
 72
65
 73
6
 40
88.8999999999999773
 49
25.3999999999999986
 74
0
 49
-12.6999999999999993
 74
0
 49
25.3999999999999986
 74
0
 49
-12.6499999999999986
 74
0
 49
0.1
 74
0
 49
-12.6499999999999986
 74
0
  0
LTYPE
  5
37
100
AcDbSymbolTableRecord
100
AcDbLinetypeTableRecord
  2
DASHEDX2
 70
0
  3
Dashed (2x) ____  ____  ____  ____  ____  ___
 72
65
 73
2
 40
38.0999999999999943
 49
25.3999999999999986
 74
0
 49
-12.6999999999999993
 74
0
  0
LTYPE
  5
38
100
AcDbSymbolTableRecord
100
AcDbLinetypeTableRecord
  2
DASHDOT
 70
0
  3
Dash dot __ . __ . __ . __ . __ . __ . __ . __
 72
65
 73
4
 40
25.4000000000000021
 49
12.6999999999999993
 74
0
 49
-6.2999999999999998
 74
0
 49
0.1
 74
0
 49
-6.2999999999999998
 74
0
  0
LTYPE
  5
39
100
AcDbSymbolTableRecord
100
AcDbLinetypeTableRecord
  2
HIDDENX2
 70
0
  3
Hidden (2x) ____ ____ ____ ____ ____ ____ ____ 
 72
65
 73
2
 40
19.0499999999999972
 49
12.6999999999999993
 74
0
 49
-6.3499999999999996
 74
0
  0
LTYPE
  5
3A
100
AcDbSymbolTableRecord
100
AcDbLinetypeTableRecord
  2
CENTER2
 70
0
  3
Center (.5x) ___ _ ___ _ ___ _ ___ _ ___ _ ___
 72
65
 73
4
 40
28.5750000000000028
 49
19.0500000000000007
 74
0
 49
-3.1749999999999998
 74
0
 49
3.1749999999999998
 74
0
 49
-3.1749999999999998
 74
0
  0
LTYPE
  5
3B
100
AcDbSymbolTableRecord
100
AcDbLinetypeTableRecord
  2
DASHDOT2
 70
0
  3
Dash dot (.5x) _._._._._._._._._._._._._._._.
 72
65
 73
4
 40
12.6999999999999993
 49
6.3499999999999996
 74
0
 49
-3.125
 74
0
 49
0.1
 74
0
 49
-3.125
 74
0
  0
LTYPE
  5
3C
100
AcDbSymbolTableRecord
100
AcDbLinetypeTableRecord
  2
HIDDEN
 70
0
  3
Hidden __ __ __ __ __ __ __ __ __ __ __ __ __ __
 72
65
 73
2
 40
9.5249999999999986
 49
6.3499999999999996
 74
0
 49
-3.1749999999999998
 74
0
  0
LTYPE
  5
14
100
AcDbSymbolTableRecord
100
AcDbLinetypeTableRecord
  2
BYBLOCK
 70
0
  3

 72
65
 73
0
 40
0.0
  0
LTYPE
  5
3D
100
AcDbSymbolTableRecord
100
AcDbLinetypeTableRecord
  2
DIVIDE
 70
0
  3
Divide ____ . . ____ . . ____ . . ____ . . ____
 72
65
 73
6
 40
31.7500000000000036
 49
12.6999999999999993
 74
0
 49
-6.2999999999999998
 74
0
 49
0.1
 74
0
 49
-6.25
 74
0
 49
0.1
 74
0
 49
-6.2999999999999998
 74
0
  0
LTYPE
  5
3E
100
AcDbSymbolTableRecord
100
AcDbLinetypeTableRecord
  2
DASHED2
 70
0
  3
Dashed (.5x) _ _ _ _ _ _ _ _ _ _ _ _ _ _ _ _ _ 
 72
65
 73
2
 40
9.5249999999999986
 49
6.3499999999999996
 74
0
 49
-3.1749999999999998
 74
0
  0
LTYPE
  5
3F
100
AcDbSymbolTableRecord
100
AcDbLinetypeTableRecord
  2
ACAD_ISO02W100
 70
0
  3
ISO dash __ __ __ __ __ __ __ __ __ __ __ __ __
 72
65
 73
2
 40
15.0
 49
12.0
 74
0
 49
-3.0
 74
0
  0
LTYPE
  5
40
100
AcDbSymbolTableRecord
100
AcDbLinetypeTableRecord
  2
HIDDEN2
 70
0
  3
Hidden (.5x) _ _ _ _ _ _ _ _ _ _ _ _ _ _ _ _ _ 
 72
65
 73
2
 40
4.7624999999999993
 49
3.1749999999999998
 74
0
 49
-1.5874999999999999
 74
0
  0
LTYPE
  5
41
100
AcDbSymbolTableRecord
100
AcDbLinetypeTableRecord
  2
ACAD_ISO08W100
 70
0
  3
ISO long-dash short-dash ____ __ ____ __ ____ _
 72
65
 73
4
 40
36.0
 49
24.0
 74
0
 49
-3.0
 74
0
 49
6.0
 74
0
 49
-3.0
 74
0
  0
LTYPE
  5
42
100
AcDbSymbolTableRecord
100
AcDbLinetypeTableRecord
  2
DOTX2
 70
0
  3
Dot (2x) .  .  .  .  .  .  .  .  .  .  .  .  .  .
 72
65
 73
2
 40
12.6999999999999993
 49
0.1
 74
0
 49
-12.5999999999999996
 74
0
  0
LTYPE
  5
43
100
AcDbSymbolTableRecord
100
AcDbLinetypeTableRecord
  2
DIVIDE2
 70
0
  3
Divide (.5x) __..__..__..__..__..__..__..__.._
 72
65
 73
6
 40
15.8749999999999982
 49
6.3499999999999996
 74
0
 49
-3.125
 74
0
 49
0.1
 74
0
 49
-3.0750000000000002
 74
0
 49
0.1
 74
0
 49
-3.125
 74
0
  0
LTYPE
  5
44
100
AcDbSymbolTableRecord
100
AcDbLinetypeTableRecord
  2
ACAD_ISO07W100
 70
0
  3
ISO dot . . . . . . . . . . . . . . . . . . . . 
 72
65
 73
2
 40
3.0
 49
0.1
 74
0
 49
-2.8999999999999999
 74
0
  0
LTYPE
  5
45
100
AcDbSymbolTableRecord
100
AcDbLinetypeTableRecord
  2
ACAD_ISO14W100
 70
0
  3
ISO dash triple-dot __ . . . __ . . . __ . . . _
 72
65
 73
8
 40
24.0000000000000036
 49
12.0
 74
0
 49
-2.9500000000000002
 74
0
 49
0.1
 74
0
 49
-2.9000000000000004
 74
0
 49
0.1
 74
0
 49
-2.9000000000000004
 74
0
 49
0.1
 74
0
 49
-2.9500000000000002
 74
0
  0
LTYPE
  5
46
100
AcDbSymbolTableRecord
100
AcDbLinetypeTableRecord
  2
CENTERX2
 70
0
  3
Center (2x) ________  __  ________  __  _____
 72
65
 73
4
 40
101.6000000000000085
 49
63.5
 74
0
 49
-12.6999999999999993
 74
0
 49
12.6999999999999993
 74
0
 49
-12.6999999999999993
 74
0
  0
LTYPE
  5
47
100
AcDbSymbolTableRecord
100
AcDbLinetypeTableRecord
  2
ACAD_ISO15W100
 70
0
  3
ISO double-dash triple-dot __ __ . . . __ __ . .
 72
65
 73
10
 40
39.0000000000000071
 49
12.0
 74
0
 49
-3.0
 74
0
 49
12.0
 74
0
 49
-2.9500000000000002
 74
0
 49
0.1
 74
0
 49
-2.9000000000000004
 74
0
 49
0.1
 74
0
 49
-2.9000000000000004
 74
0
 49
0.1
 74
0
 49
-2.9500000000000002
 74
0
  0
LTYPE
  5
48
100
AcDbSymbolTableRecord
100
AcDbLinetypeTableRecord
  2
ACAD_ISO03W100
 70
0
  3
ISO dash space __    __    __    __    __    __
 72
65
 73
2
 40
30.0
 49
12.0
 74
0
 49
-18.0
 74
0
  0
LTYPE
  5
49
100
AcDbSymbolTableRecord
100
AcDbLinetypeTableRecord
  2
CENTER
 70
0
  3
Center ____ _ ____ _ ____ _ ____ _ ____ _ ____
 72
65
 73
4
 40
50.8000000000000043
 49
31.75
 74
0
 49
-6.3499999999999996
 74
0
 49
6.3499999999999996
 74
0
 49
-6.3499999999999996
 74
0
  0
LTYPE
  5
4A
100
AcDbSymbolTableRecord
100
AcDbLinetypeTableRecord
  2
DIVIDEX2
 70
0
  3
Divide (2x) ________  .  .  ________  .  .  _
 72
65
 73
6
 40
63.5
 49
25.3999999999999986
 74
0
 49
-12.6499999999999986
 74
0
 49
0.1
 74
0
 49
-12.5999999999999979
 74
0
 49
0.1
 74
0
 49
-12.6499999999999986
 74
0
  0
LTYPE
  5
4B
100
AcDbSymbolTableRecord
100
AcDbLinetypeTableRecord
  2
ACAD_ISO10W100
 70
0
  3
ISO dash dot __ . __ . __ . __ . __ . __ . __ . 
 72
65
 73
4
 40
18.0
 49
12.0
 74
0
 49
-2.9500000000000002
 74
0
 49
0.1
 74
0
 49
-2.9500000000000002
 74
0
  0
LTYPE
  5
15
100
AcDbSymbolTableRecord
100
AcDbLinetypeTableRecord
  2
BYLAYER
 70
0
  3

 72
65
 73
0
 40
0.0
  0
LTYPE
  5
4C
100
AcDbSymbolTableRecord
100
AcDbLinetypeTableRecord
  2
BORDER2
 70
0
  3
Border (.5x) __.__.__.__.__.__.__.__.__.__.__.
 72
65
 73
6
 40
22.2250000000000014
 49
6.3499999999999996
 74
0
 49
-3.1749999999999998
 74
0
 49
6.3499999999999996
 74
0
 49
-3.125
 74
0
 49
0.1
 74
0
 49
-3.125
 74
0
  0
LTYPE
  5
4D
100
AcDbSymbolTableRecord
100
AcDbLinetypeTableRecord
  2
ACAD_ISO13W100
 70
0
  3
ISO double-dash double-dot __ __ . . __ __ . . _
 72
65
 73
8
 40
36.0000000000000071
 49
12.0
 74
0
 49
-3.0
 74
0
 49
12.0
 74
0
 49
-2.9500000000000002
 74
0
 49
0.1
 74
0
 49
-2.9000000000000004
 74
0
 49
0.1
 74
0
 49
-2.9500000000000002
 74
0
  0
LTYPE
  5
4E
100
AcDbSymbolTableRecord
100
AcDbLinetypeTableRecord
  2
DASHED
 70
0
  3
Dashed __ __ __ __ __ __ __ __ __ __ __ __ __ _
 72
65
 73
2
 40
19.0499999999999972
 49
12.6999999999999993
 74
0
 49
-6.3499999999999996
 74
0
  0
LTYPE
  5
4F
100
AcDbSymbolTableRecord
100
AcDbLinetypeTableRecord
  2
ACAD_ISO12W100
 70
0
  3
ISO dash double-dot __ . . __ . . __ . . __ . . 
 72
65
 73
6
 40
21.0
 49
12.0
 74
0
 49
-2.9500000000000002
 74
0
 49
0.1
 74
0
 49
-2.9000000000000004
 74
0
 49
0.1
 74
0
 49
-2.9500000000000002
 74
0
  0
LTYPE
  5
50
100
AcDbSymbolTableRecord
100
AcDbLinetypeTableRecord
  2
ACAD_ISO05W100
 70
0
  3
ISO long-dash double-dot ____ .. ____ .. ____ . 
 72
65
 73
6
 40
33.0000000000000071
 49
24.0
 74
0
 49
-2.9500000000000002
 74
0
 49
0.1
 74
0
 49
-2.9000000000000004
 74
0
 49
0.1
 74
0
 49
-2.9500000000000002
 74
0
  0
LTYPE
  5
51
100
AcDbSymbolTableRecord
100
AcDbLinetypeTableRecord
  2
DOT2
 70
0
  3
Dot (.5x) ........................................
 72
65
 73
2
 40
3.1749999999999998
 49
0.1
 74
0
 49
-3.0749999999999997
 74
0
  0
LTYPE
  5
52
100
AcDbSymbolTableRecord
100
AcDbLinetypeTableRecord
  2
ACAD_ISO09W100
 70
0
  3
ISO long-dash double-short-dash ____ __ __ ____
 72
65
 73
6
 40
45.0
 49
24.0
 74
0
 49
-3.0
 74
0
 49
6.0
 74
0
 49
-3.0
 74
0
 49
6.0
 74
0
 49
-3.0
 74
0
  0
LTYPE
  5
53
100
AcDbSymbolTableRecord
100
AcDbLinetypeTableRecord
  2
ACAD_ISO06W100
 70
0
  3
ISO long-dash triple-dot ____ ... ____ ... ____
 72
65
 73
8
 40
36.0000000000000071
 49
24.0
 74
0
 49
-2.9500000000000002
 74
0
 49
0.1
 74
0
 49
-2.9000000000000004
 74
0
 49
0.1
 74
0
 49
-2.9000000000000004
 74
0
 49
0.1
 74
0
 49
-2.9500000000000002
 74
0
  0
LTYPE
  5
54
100
AcDbSymbolTableRecord
100
AcDbLinetypeTableRecord
  2
PHANTOM2
 70
0
  3
Phantom (.5x) ___ _ _ ___ _ _ ___ _ _ ___ _ _
 72
65
 73
6
 40
31.7500000000000036
 49
15.875
 74
0
 49
-3.1749999999999998
 74
0
 49
3.1749999999999998
 74
0
 49
-3.1749999999999998
 74
0
 49
3.1749999999999998
 74
0
 49
-3.1749999999999998
 74
0
  0
LTYPE
  5
55
100
AcDbSymbolTableRecord
100
AcDbLinetypeTableRecord
  2
ACAD_ISO11W100
 70
0
  3
ISO double-dash dot __ __ . __ __ . __ __ . __ _
 72
65
 73
6
 40
33.0
 49
12.0
 74
0
 49
-3.0
 74
0
 49
12.0
 74
0
 49
-2.9500000000000002
 74
0
 49
0.1
 74
0
 49
-2.9500000000000002
 74
0
  0
LTYPE
  5
56
100
AcDbSymbolTableRecord
100
AcDbLinetypeTableRecord
  2
PHANTOM
 70
0
  3
Phantom ______  __  __  ______  __  __  ______ 
 72
65
 73
6
 40
63.5000000000000071
 49
31.75
 74
0
 49
-6.3499999999999996
 74
0
 49
6.3499999999999996
 74
0
 49
-6.3499999999999996
 74
0
 49
6.3499999999999996
 74
0
 49
-6.3499999999999996
 74
0
  0
ENDTAB
  0
TABLE
  2
LAYER
  5
2
100
AcDbSymbolTable
 70
7
  0
LAYER
  5
57
100
AcDbSymbolTableRecord
100
AcDbLayerTableRecord
  2
Referencias
 70
1
 62
2
420
16776960
  6
Continuous
370
25
390
F
  0
LAYER
  5
58
100
AcDbSymbolTableRecord
100
AcDbLayerTableRecord
  2
Contornos Ocultos
 70
0
 62
252
420
10526884
  6
ACAD_ISO02W100
370
30
390
F
  0
LAYER
  5
59
100
AcDbSymbolTableRecord
100
AcDbLayerTableRecord
  2
Cotas
 70
0
 62
1
420
16711680
  6
Continuous
370
20
390
F
  0
LAYER
  5
10
100
AcDbSymbolTableRecord
100
AcDbLayerTableRecord
  2
0
 70
0
 62
7
420
16777215
  6
Continuous
370
25
390
F
  0
LAYER
  5
5A
100
AcDbSymbolTableRecord
100
AcDbLayerTableRecord
  2
Referencias 2
 70
1
 62
3
420
65280
  6
Continuous
370
25
390
F
  0
LAYER
  5
5B
100
AcDbSymbolTableRecord
100
AcDbLayerTableRecord
  2
Contornos Visibles
 70
0
 62
7
420
16777215
  6
Continuous
370
50
390
F
  0
LAYER
  5
5C
100
AcDbSymbolTableRecord
100
AcDbLayerTableRecord
  2
Ejes de revoluci\U+00f3n
 70
0
 62
6
420
16711935
  6
ACAD_ISO04W100
370
20
390
F
  0
ENDTAB
  0
TABLE
  2
STYLE
  5
3
100
AcDbSymbolTable
 70
3
  0
STYLE
  5
5D
100
AcDbSymbolTableRecord
100
AcDbTextStyleTableRecord
  2
Standard
 70
0
 40
0.0
 41
1.0
 50
0.0
 71
0
 42
2.5
  3

  4

1001
ACAD
1000
txt
1071
0
  0
STYLE
  5
5E
100
AcDbSymbolTableRecord
100
AcDbTextStyleTableRecord
  2
textstyle0
 70
0
 40
0.0
 41
1.0
 50
0.0
 71
0
 42
2.5
  3

  4

1001
ACAD
1000
Arial
1071
0
  0
STYLE
  5
5F
100
AcDbSymbolTableRecord
100
AcDbTextStyleTableRecord
  2
textstyle1
 70
0
 40
0.0
 41
1.0
 50
0.0
 71
0
 42
2.5
  3

  4

1001
ACAD
1000
Arial
1071
0
  0
ENDTAB
  0
TABLE
  2
VIEW
  5
6
100
AcDbSymbolTable
 70
0
  0
ENDTAB
  0
TABLE
  2
UCS
  5
7
100
AcDbSymbolTable
 70
0
  0
ENDTAB
  0
TABLE
  2
APPID
  5
9
100
AcDbSymbolTable
 70
1
  0
APPID
  5
12
100
AcDbSymbolTableRecord
100
AcDbRegAppTableRecord
  2
ACAD
 70
0
  0
APPID
  5
60
100
AcDbSymbolTableRecord
100
AcDbRegAppTableRecord
  2
QCAD
 70
0
  0
ENDTAB
  0
TABLE
  2
DIMSTYLE
  5
A
100
AcDbSymbolTable
 70
1
100
AcDbDimStyleTable
 71
0
  0
DIMSTYLE
105
27
100
AcDbSymbolTableRecord
100
AcDbDimStyleTableRecord
  2
Standard
 41
2.5
 42
0.625
 43
3.75
 44
1.25
 70
0
 73
0
 74
0
 77
1
 78
8
140
2.5
141
2.5
143
0.03937007874016
147
0.625
171
3
172
1
271
2
272
2
274
3
278
44
283
0
284
8
340
5D
  0
ENDTAB
  0
TABLE
  2
BLOCK_RECORD
  5
1
100
AcDbSymbolTable
 70
1
  0
BLOCK_RECORD
  5
1F
100
AcDbSymbolTableRecord
100
AcDbBlockTableRecord
  2
*Model_Space
340
22
  0
BLOCK_RECORD
  5
1B
100
AcDbSymbolTableRecord
100
AcDbBlockTableRecord
  2
*Paper_Space
340
1E
  0
BLOCK_RECORD
  5
23
100
AcDbSymbolTableRecord
100
AcDbBlockTableRecord
  2
*Paper_Space0
340
26
  0
ENDTAB
  0
ENDSEC
  0
SECTION
  2
BLOCKS
  0
BLOCK
  5
20
100
AcDbEntity
  8
0
100
AcDbBlockBegin
  2
*Model_Space
 70
0
 10
0.0
 20
0.0
 30
0.0
  3
*Model_Space
  1

  0
ENDBLK
  5
21
100
AcDbEntity
  8
0
100
AcDbBlockEnd
  0
BLOCK
  5
1C
100
AcDbEntity
 67
1
  8
0
100
AcDbBlockBegin
  2
*Paper_Space
 70
0
 10
0.0
 20
0.0
 30
0.0
  3
*Paper_Space
  1

  0
ENDBLK
  5
1D
100
AcDbEntity
 67
1
  8
0
100
AcDbBlockEnd
  0
BLOCK
  5
24
100
AcDbEntity
  8
0
100
AcDbBlockBegin
  2
*Paper_Space0
 70
0
 10
0.0
 20
0.0
 30
0.0
  3
*Paper_Space0
  1

  0
ENDBLK
  5
25
100
AcDbEntity
  8
0
100
AcDbBlockEnd
  0
ENDSEC
  0
SECTION
  2
ENTITIES
  0
IMAGE
  5
61
100
AcDbEntity
  8
0
 62
256
370
-1
 48
1.0
  6
BYLAYER
100
AcDbRasterImage
 90
0
 10
2679.4722764643383925
 20
708.94304502122543
 30
0.0
 11
0.09765625
 21
0.0
 31
0.0
 12
0.0
 22
0.09765625
 32
0.0
 13
200.0
 23
141.0
340
62
 70
15
280
0
281
50
282
50
283
0
  0
LINE
  5
63
100
AcDbEntity
  8
Contornos Visibles
 62
256
370
-1
 48
1.0
  6
BYLAYER
100
AcDbLine
 10
3057.3471315361321103
 20
808.2508504408399403
 30
0.0
 11
3132.8471315361321103
 21
808.2508504408399403
 31
0.0
  0
LINE
  5
64
100
AcDbEntity
  8
Referencias
 62
256
370
-1
 48
1.0
  6
BYLAYER
100
AcDbLine
 10
3123.8471315361321103
 20
808.2508504408399403
 30
0.0
 11
3132.8471315361321103
 21
808.2508504408399403
 31
0.0
  0
LINE
  5
65
100
AcDbEntity
  8
Contornos Visibles
 62
256
370
-1
 48
1.0
  6
BYLAYER
100
AcDbLine
 10
3052.8471315361321103
 20
812.7508504408398267
 30
0.0
 11
3052.8471315361321103
 21
834.7508504408399403
 31
0.0
  0
LINE
  5
66
100
AcDbEntity
  8
Contornos Visibles
 62
256
370
-1
 48
1.0
  6
BYLAYER
100
AcDbLine
 10
3132.8471315361321103
 20
808.2508504408399403
 30
0.0
 11
3132.8471315361321103
 21
839.2508504408399403
 31
0.0
  0
LINE
  5
67
100
AcDbEntity
  8
Contornos Visibles
 62
256
370
-1
 48
1.0
  6
BYLAYER
100
AcDbLine
 10
3057.3471315361316556
 20
839.2508504408399403
 30
0.0
 11
3132.8471315361321103
 21
839.2508504408399403
 31
0.0
  0
LINE
  5
68
100
AcDbEntity
  8
Contornos Visibles
 62
256
370
-1
 48
1.0
  6
BYLAYER
100
AcDbLine
 10
3123.8471315361321103
 20
808.2508504408399403
 30
0.0
 11
3123.8471315361321103
 21
839.2508504408399403
 31
0.0
  0
LINE
  5
69
100
AcDbEntity
  8
Referencias
 62
256
370
-1
 48
1.0
  6
BYLAYER
100
AcDbLine
 10
3132.8471315361321103
 20
778.2508504408398267
 30
0.0
 11
3132.8471315361321103
 21
808.2508504408398267
 31
0.0
  0
LINE
  5
6A
100
AcDbEntity
  8
Referencias
 62
256
370
-1
 48
1.0
  6
BYLAYER
100
AcDbLine
 10
3052.8471315361321103
 20
778.2508504408398267
 30
0.0
 11
3052.8471315361321103
 21
808.2508504408398267
 31
0.0
  0
LINE
  5
6B
100
AcDbEntity
  8
Contornos Visibles
 62
256
370
-1
 48
1.0
  6
BYLAYER
100
AcDbLine
 10
3123.8471315361321103
 20
778.2508504408398267
 30
0.0
 11
3132.8471315361321103
 21
778.2508504408398267
 31
0.0
  0
LINE
  5
6C
100
AcDbEntity
  8
Contornos Visibles
 62
256
370
-1
 48
1.0
  6
BYLAYER
100
AcDbLine
 10
3132.8471315361321103
 20
747.250850440839713
 30
0.0
 11
3132.8471315361321103
 21
778.250850440839713
 31
0.0
  0
LINE
  5
6D
100
AcDbEntity
  8
Contornos Visibles
 62
256
370
-1
 48
1.0
  6
BYLAYER
100
AcDbLine
 10
3107.3471315361321103
 20
747.250850440839713
 30
0.0
 11
3132.8471315361321103
 21
747.250850440839713
 31
0.0
  0
LINE
  5
6E
100
AcDbEntity
  8
Contornos Visibles
 62
256
370
-1
 48
1.0
  6
BYLAYER
100
AcDbLine
 10
3052.8471315361321103
 20
747.250850440839713
 30
0.0
 11
3078.3471315361321103
 21
747.250850440839713
 31
0.0
  0
LINE
  5
6F
100
AcDbEntity
  8
Contornos Visibles
 62
256
370
-1
 48
1.0
  6
BYLAYER
100
AcDbLine
 10
3052.8471315361321103
 20
747.250850440839713
 30
0.0
 11
3052.8471315361321103
 21
755.750850440839713
 31
0.0
  0
ARC
  5
70
100
AcDbEntity
  8
Contornos Visibles
 62
256
370
-1
 48
1.0
  6
BYLAYER
100
AcDbCircle
 10
3057.3471315361321103
 20
812.7508504408398267
 30
0.0
 40
4.5
100
AcDbArc
 50
180.0
 51
270.0
  0
ARC
  5
71
100
AcDbEntity
  8
Contornos Visibles
 62
256
370
-1
 48
1.0
  6
BYLAYER
100
AcDbCircle
 10
3057.3471315361316556
 20
834.7508504408399403
 30
0.0
 40
4.5
100
AcDbArc
 50
90.0
 51
180.0
  0
LINE
  5
72
100
AcDbEntity
  8
Referencias
 62
256
370
-1
 48
1.0
  6
BYLAYER
100
AcDbLine
 10
3052.8471315361321103
 20
755.750850440839713
 30
0.0
 11
3060.3471315361321103
 21
755.750850440839713
 31
0.0
  0
XLINE
  5
73
100
AcDbEntity
  8
Referencias
 62
256
370
-1
 48
1.0
  6
BYLAYER
100
AcDbLine
 10
3060.3471315361321103
 20
755.750850440839713
 30
0.0
 11
0.0
 21
1.0
 31
0.0
  0
XLINE
  5
74
100
AcDbEntity
  8
Referencias
 62
256
370
-1
 48
1.0
  6
BYLAYER
100
AcDbLine
 10
3132.8471315361321103
 20
823.7508504408399403
 30
0.0
 11
1.0
 21
0.0
 31
0.0
  0
LINE
  5
75
100
AcDbEntity
  8
Referencias 2
 62
256
370
-1
 48
1.0
  6
BYLAYER
100
AcDbLine
 10
3060.3471315361321103
 20
815.5008504408399403
 30
0.0
 11
3060.3471315361321103
 21
832.0008504408399403
 31
0.0
  0
CIRCLE
  5
76
100
AcDbEntity
  8
Contornos Visibles
 62
256
370
-1
 48
1.0
  6
BYLAYER
100
AcDbCircle
 10
3060.3471315361321103
 20
832.0008504408399403
 30
0.0
 40
3.5
  0
CIRCLE
  5
77
100
AcDbEntity
  8
Contornos Visibles
 62
256
370
-1
 48
1.0
  6
BYLAYER
100
AcDbCircle
 10
3060.3471315361321103
 20
815.5008504408399403
 30
0.0
 40
3.5
  0
XLINE
  5
78
100
AcDbEntity
  8
Referencias
 62
256
370
-1
 48
1.0
  6
BYLAYER
100
AcDbLine
 10
3092.8471315361321103
 20
747.250850440839713
 30
0.0
 11
0.0
 21
1.0
 31
0.0
  0
ARC
  5
79
100
AcDbEntity
  8
Contornos Visibles
 62
256
370
-1
 48
1.0
  6
BYLAYER
100
AcDbCircle
 10
3092.8471315361321103
 20
747.250850440839713
 30
0.0
 40
14.5
100
AcDbArc
 50
0.0
 51
180.0
  0
ARC
  5
7A
100
AcDbEntity
  8
Contornos Visibles
 62
256
370
-1
 48
1.0
  6
BYLAYER
100
AcDbCircle
 10
3092.8471315361321103
 20
747.250850440839713
 30
0.0
 40
22.5
100
AcDbArc
 50
22.1961008568205429
 51
157.80389914317945
  0
LINE
  5
7B
100
AcDbEntity
  8
Contornos Visibles
 62
256
370
-1
 48
1.0
  6
BYLAYER
100
AcDbLine
 10
3113.6797981921317842
 20
755.750850440839713
 30
0.0
 11
3123.8471315361325651
 21
755.750850440839713
 31
0.0
  0
LINE
  5
7C
100
AcDbEntity
  8
Contornos Visibles
 62
256
370
-1
 48
1.0
  6
BYLAYER
100
AcDbLine
 10
3052.8471315361321103
 20
755.750850440839713
 30
0.0
 11
3072.0144648801324365
 21
755.750850440839713
 31
0.0
  0
LINE
  5
7D
100
AcDbEntity
  8
Contornos Visibles
 62
256
370
-1
 48
1.0
  6
BYLAYER
100
AcDbLine
 10
3123.8471315361321103
 20
778.2508504408398267
 30
0.0
 11
3123.8471315361321103
 21
755.750850440839713
 31
0.0
  0
XLINE
  5
7E
100
AcDbEntity
  8
Referencias
 62
256
370
-1
 48
1.0
  6
BYLAYER
100
AcDbLine
 10
3063.8471315361321103
 20
815.5008504408399403
 30
0.0
 11
0.0
 21
1.0
 31
0.0
  0
XLINE
  5
7F
100
AcDbEntity
  8
Referencias
 62
256
370
-1
 48
1.0
  6
BYLAYER
100
AcDbLine
 10
3056.8471315361321103
 20
815.5008504408399403
 30
0.0
 11
0.0
 21
1.0
 31
0.0
  0
LINE
  5
80
100
AcDbEntity
  8
Ejes de revoluci\U+00f3n
 62
256
370
-1
 48
1.0
  6
BYLAYER
100
AcDbLine
 10
3056.8471315361321103
 20
755.750850440839713
 30
0.0
 11
3056.8471315361321103
 21
747.250850440839713
 31
0.0
  0
LINE
  5
81
100
AcDbEntity
  8
Ejes de revoluci\U+00f3n
 62
256
370
-1
 48
1.0
  6
BYLAYER
100
AcDbLine
 10
3063.8471315361321103
 20
755.750850440839713
 30
0.0
 11
3063.8471315361321103
 21
747.250850440839713
 31
0.0
  0
LINE
  5
82
100
AcDbEntity
  8
Ejes de revoluci\U+00f3n
 62
256
370
-1
 48
1.0
  6
BYLAYER
100
AcDbLine
 10
3060.3471315361321103
 20
746.250850440839713
 30
0.0
 11
3060.3471315361321103
 21
756.750850440839713
 31
0.0
  0
LINE
  5
83
100
AcDbEntity
  8
Ejes de revoluci\U+00f3n
 62
256
370
-1
 48
1.0
  6
BYLAYER
100
AcDbLine
 10
3172.5971315361321103
 20
746.250850440839713
 30
0.0
 11
3172.5971315361321103
 21
756.750850440839713
 31
0.0
  0
LINE
  5
84
100
AcDbEntity
  8
Ejes de revoluci\U+00f3n
 62
256
370
-1
 48
1.0
  6
BYLAYER
100
AcDbLine
 10
3189.0971315361316556
 20
746.250850440839713
 30
0.0
 11
3189.0971315361316556
 21
756.750850440839713
 31
0.0
  0
LINE
  5
85
100
AcDbEntity
  8
Ejes de revoluci\U+00f3n
 62
256
370
-1
 48
1.0
  6
BYLAYER
100
AcDbLine
 10
3055.8471315361321103
 20
815.5008504408399403
 30
0.0
 11
3064.8471315361321103
 21
815.5008504408399403
 31
0.0
  0
LINE
  5
86
100
AcDbEntity
  8
Ejes de revoluci\U+00f3n
 62
256
370
-1
 48
1.0
  6
BYLAYER
100
AcDbLine
 10
3060.3471315361321103
 20
811.0008504408399403
 30
0.0
 11
3060.3471315361321103
 21
820.0008504408399403
 31
0.0
  0
LINE
  5
87
100
AcDbEntity
  8
Ejes de revoluci\U+00f3n
 62
256
370
-1
 48
1.0
  6
BYLAYER
100
AcDbLine
 10
3055.8471315361321103
 20
832.0008504408399403
 30
0.0
 11
3064.8471315361321103
 21
832.0008504408399403
 31
0.0
  0
LINE
  5
88
100
AcDbEntity
  8
Ejes de revoluci\U+00f3n
 62
256
370
-1
 48
1.0
  6
BYLAYER
100
AcDbLine
 10
3060.3471315361321103
 20
827.5008504408399403
 30
0.0
 11
3060.3471315361321103
 21
836.5008504408399403
 31
0.0
  0
LINE
  5
89
100
AcDbEntity
  8
Ejes de revoluci\U+00f3n
 62
256
370
-1
 48
1.0
  6
BYLAYER
100
AcDbLine
 10
3052.8471315361321103
 20
823.7508504408399403
 30
0.0
 11
3132.8471315361321103
 21
823.7508504408399403
 31
0.0
  0
XLINE
  5
8A
100
AcDbEntity
  8
Referencias
 62
256
370
-1
 48
1.0
  6
BYLAYER
100
AcDbLine
 10
3113.6797981921317842
 20
755.750850440839713
 30
0.0
 11
0.0
 21
1.0
 31
0.0
  0
XLINE
  5
8B
100
AcDbEntity
  8
Referencias
 62
256
370
-1
 48
1.0
  6
BYLAYER
100
AcDbLine
 10
3107.3471315361321103
 20
747.250850440839713
 30
0.0
 11
0.0
 21
1.0
 31
0.0
  0
XLINE
  5
8C
100
AcDbEntity
  8
Referencias
 62
256
370
-1
 48
1.0
  6
BYLAYER
100
AcDbLine
 10
3078.3471315361321103
 20
747.250850440839713
 30
0.0
 11
0.0
 21
1.0
 31
0.0
  0
XLINE
  5
8D
100
AcDbEntity
  8
Referencias
 62
256
370
-1
 48
1.0
  6
BYLAYER
100
AcDbLine
 10
3072.0144648801324365
 20
755.750850440839713
 30
0.0
 11
0.0
 21
1.0
 31
0.0
  0
LINE
  5
8E
100
AcDbEntity
  8
Contornos Visibles
 62
256
370
-1
 48
1.0
  6
BYLAYER
100
AcDbLine
 10
3072.0144648801324365
 20
808.2508504408399403
 30
0.0
 11
3072.0144648801324365
 21
839.2508504408399403
 31
0.0
  0
LINE
  5
8F
100
AcDbEntity
  8
Contornos Visibles
 62
256
370
-1
 48
1.0
  6
BYLAYER
100
AcDbLine
 10
3113.6797981921317842
 20
839.2508504408399403
 30
0.0
 11
3113.6797981921317842
 21
808.2508504408399403
 31
0.0
  0
LINE
  5
90
100
AcDbEntity
  8
Ejes de revoluci\U+00f3n
 62
256
370
-1
 48
1.0
  6
BYLAYER
100
AcDbLine
 10
3078.3471315361321103
 20
839.2508504408399403
 30
0.0
 11
3078.3471315361321103
 21
808.2508504408399403
 31
0.0
  0
LINE
  5
91
100
AcDbEntity
  8
Ejes de revoluci\U+00f3n
 62
256
370
-1
 48
1.0
  6
BYLAYER
100
AcDbLine
 10
3107.3471315361321103
 20
808.2508504408399403
 30
0.0
 11
3107.3471315361321103
 21
839.2508504408399403
 31
0.0
  0
CIRCLE
  5
92
100
AcDbEntity
  8
Contornos Visibles
 62
256
370
-1
 48
1.0
  6
BYLAYER
100
AcDbCircle
 10
3092.8471315361321103
 20
823.7508504408399403
 30
0.0
 40
2.5
  0
LINE
  5
93
100
AcDbEntity
  8
Ejes de revoluci\U+00f3n
 62
256
370
-1
 48
1.0
  6
BYLAYER
100
AcDbLine
 10
3092.8471315361321103
 20
820.2508504408399403
 30
0.0
 11
3092.8471315361321103
 21
827.2508504408399403
 31
0.0
  0
LINE
  5
94
100
AcDbEntity
  8
Referencias 2
 62
256
370
-1
 48
1.0
  6
BYLAYER
100
AcDbLine
 10
3132.8471315361321103
 20
818.7508504408398267
 30
0.0
 11
3132.8471315361321103
 21
828.7508504408398267
 31
0.0
  0
LINE
  5
95
100
AcDbEntity
  8
Contornos Visibles
 62
256
370
-1
 48
1.0
  6
BYLAYER
100
AcDbLine
 10
3132.8471315361321103
 20
828.7508504408398267
 30
0.0
 11
3123.8471315361321103
 21
828.7508504408398267
 31
0.0
  0
LINE
  5
96
100
AcDbEntity
  8
Contornos Visibles
 62
256
370
-1
 48
1.0
  6
BYLAYER
100
AcDbLine
 10
3132.8471315361321103
 20
818.7508504408398267
 30
0.0
 11
3123.8471315361321103
 21
818.7508504408398267
 31
0.0
  0
XLINE
  5
97
100
AcDbEntity
  8
Referencias
 62
256
370
-1
 48
1.0
  6
BYLAYER
100
AcDbLine
 10
3095.3471315361321103
 20
823.7508504408399403
 30
0.0
 11
0.0
 21
1.0
 31
0.0
  0
XLINE
  5
98
100
AcDbEntity
  8
Referencias
 62
256
370
-1
 48
1.0
  6
BYLAYER
100
AcDbLine
 10
3090.3471315361321103
 20
823.7508504408399403
 30
0.0
 11
0.0
 21
1.0
 31
0.0
  0
LINE
  5
99
100
AcDbEntity
  8
Ejes de revoluci\U+00f3n
 62
256
370
-1
 48
1.0
  6
BYLAYER
100
AcDbLine
 10
3090.3471315361321103
 20
761.5337072979255026
 30
0.0
 11
3090.3471315361321103
 21
769.6115302158376608
 31
0.0
  0
LINE
  5
9A
100
AcDbEntity
  8
Ejes de revoluci\U+00f3n
 62
256
370
-1
 48
1.0
  6
BYLAYER
100
AcDbLine
 10
3095.3471315361321103
 20
769.6115302158376608
 30
0.0
 11
3095.3471315361321103
 21
761.5337072979255026
 31
0.0
  0
LINE
  5
9B
100
AcDbEntity
  8
Ejes de revoluci\U+00f3n
 62
256
370
-1
 48
1.0
  6
BYLAYER
100
AcDbLine
 10
3078.3471315361321103
 20
747.250850440839713
 30
0.0
 11
3107.3471315361321103
 21
747.250850440839713
 31
0.0
  0
LINE
  5
9C
100
AcDbEntity
  8
Ejes de revoluci\U+00f3n
 62
256
370
-1
 48
1.0
  6
BYLAYER
100
AcDbLine
 10
3092.8471315361321103
 20
769.750850440839713
 30
0.0
 11
3092.8471315361321103
 21
747.250850440839713
 31
0.0
  0
LINE
  5
9D
100
AcDbEntity
  8
Referencias
 62
256
370
-1
 48
1.0
  6
BYLAYER
100
AcDbLine
 10
3132.8471315361321103
 20
747.250850440839713
 30
0.0
 11
3162.8471315361321103
 21
747.250850440839713
 31
0.0
  0
LINE
  5
9E
100
AcDbEntity
  8
Contornos Visibles
 62
256
370
-1
 48
1.0
  6
BYLAYER
100
AcDbLine
 10
3162.8471315361321103
 20
747.250850440839713
 30
0.0
 11
3198.8471315361321103
 21
747.250850440839713
 31
0.0
  0
LINE
  5
9F
100
AcDbEntity
  8
Contornos Visibles
 62
256
370
-1
 48
1.0
  6
BYLAYER
100
AcDbLine
 10
3198.8471315361321103
 20
747.250850440839713
 30
0.0
 11
3198.8471315361321103
 21
773.750850440839713
 31
0.0
  0
LINE
  5
A0
100
AcDbEntity
  8
Contornos Visibles
 62
256
370
-1
 48
1.0
  6
BYLAYER
100
AcDbLine
 10
3162.8471315361321103
 20
747.250850440839713
 30
0.0
 11
3162.8471315361321103
 21
773.750850440839713
 31
0.0
  0
LINE
  5
A1
100
AcDbEntity
  8
Contornos Visibles
 62
256
370
-1
 48
1.0
  6
BYLAYER
100
AcDbLine
 10
3167.3471315361321103
 20
778.250850440839713
 30
0.0
 11
3175.8471315361321103
 21
778.250850440839713
 31
0.0
  0
ARC
  5
A2
100
AcDbEntity
  8
Contornos Visibles
 62
256
370
-1
 48
1.0
  6
BYLAYER
100
AcDbCircle
 10
3167.3471315361321103
 20
773.750850440839713
 30
0.0
 40
4.5
100
AcDbArc
 50
90.0
 51
180.0
  0
ARC
  5
A3
100
AcDbEntity
  8
Contornos Visibles
 62
256
370
-1
 48
1.0
  6
BYLAYER
100
AcDbCircle
 10
3194.3471315361321103
 20
773.750850440839713
 30
0.0
 40
4.5
100
AcDbArc
 50
0.0
 51
90.0
  0
LINE
  5
A4
100
AcDbEntity
  8
Referencias 2
 62
256
370
-1
 48
1.0
  6
BYLAYER
100
AcDbLine
 10
3175.8471315361321103
 20
778.250850440839713
 30
0.0
 11
3185.8471315361321103
 21
778.250850440839713
 31
0.0
  0
LINE
  5
A5
100
AcDbEntity
  8
Contornos Visibles
 62
256
370
-1
 48
1.0
  6
BYLAYER
100
AcDbLine
 10
3185.8471315361321103
 20
778.250850440839713
 30
0.0
 11
3194.3471315361321103
 21
778.250850440839713
 31
0.0
  0
XLINE
  5
A6
100
AcDbEntity
  8
Referencias
 62
256
370
-1
 48
1.0
  6
BYLAYER
100
AcDbLine
 10
3123.8471315361321103
 20
755.7508504408395993
 30
0.0
 11
1.0
 21
0.0
 31
0.0
  0
LINE
  5
A7
100
AcDbEntity
  8
Contornos Visibles
 62
256
370
-1
 48
1.0
  6
BYLAYER
100
AcDbLine
 10
3162.8471315361321103
 20
755.7508504408395993
 30
0.0
 11
3198.8471315361321103
 21
755.7508504408395993
 31
0.0
  0
LINE
  5
A8
100
AcDbEntity
  8
Referencias
 62
256
370
-1
 48
1.0
  6
BYLAYER
100
AcDbLine
 10
3172.5971315361321103
 20
747.250850440839713
 30
0.0
 11
3189.0971315361321103
 21
747.250850440839713
 31
0.0
  0
LINE
  5
A9
100
AcDbEntity
  8
Referencias 2
 62
256
370
-1
 48
1.0
  6
BYLAYER
100
AcDbLine
 10
3169.0971315361321103
 20
747.250850440839713
 30
0.0
 11
3176.0971315361321103
 21
747.250850440839713
 31
0.0
  0
LINE
  5
AA
100
AcDbEntity
  8
Referencias 2
 62
256
370
-1
 48
1.0
  6
BYLAYER
100
AcDbLine
 10
3185.5971315361321103
 20
747.250850440839713
 30
0.0
 11
3192.5971315361321103
 21
747.250850440839713
 31
0.0
  0
LINE
  5
AB
100
AcDbEntity
  8
Ejes de revoluci\U+00f3n
 62
256
370
-1
 48
1.0
  6
BYLAYER
100
AcDbLine
 10
3169.0971315361321103
 20
747.250850440839713
 30
0.0
 11
3169.0971315361321103
 21
755.7508504408395993
 31
0.0
  0
LINE
  5
AC
100
AcDbEntity
  8
Ejes de revoluci\U+00f3n
 62
256
370
-1
 48
1.0
  6
BYLAYER
100
AcDbLine
 10
3176.0971315361321103
 20
747.250850440839713
 30
0.0
 11
3176.0971315361321103
 21
755.7508504408395993
 31
0.0
  0
LINE
  5
AD
100
AcDbEntity
  8
Ejes de revoluci\U+00f3n
 62
256
370
-1
 48
1.0
  6
BYLAYER
100
AcDbLine
 10
3185.5971315361321103
 20
747.250850440839713
 30
0.0
 11
3185.5971315361321103
 21
755.7508504408395993
 31
0.0
  0
LINE
  5
AE
100
AcDbEntity
  8
Ejes de revoluci\U+00f3n
 62
256
370
-1
 48
1.0
  6
BYLAYER
100
AcDbLine
 10
3192.5971315361321103
 20
747.250850440839713
 30
0.0
 11
3192.5971315361321103
 21
755.7508504408395993
 31
0.0
  0
XLINE
  5
AF
100
AcDbEntity
  8
Referencias
 62
256
370
-1
 48
1.0
  6
BYLAYER
100
AcDbLine
 10
3092.8471315361321103
 20
769.750850440839713
 30
0.0
 11
1.0
 21
0.0
 31
0.0
  0
XLINE
  5
B0
100
AcDbEntity
  8
Referencias
 62
256
370
-1
 48
1.0
  6
BYLAYER
100
AcDbLine
 10
3092.8471315361321103
 20
761.750850440839713
 30
0.0
 11
1.0
 21
0.0
 31
0.0
  0
LINE
  5
B1
100
AcDbEntity
  8
Ejes de revoluci\U+00f3n
 62
256
370
-1
 48
1.0
  6
BYLAYER
100
AcDbLine
 10
3123.8471315361325651
 20
769.750850440839713
 30
0.0
 11
3132.8471315361321103
 21
769.750850440839713
 31
0.0
  0
LINE
  5
B2
100
AcDbEntity
  8
Ejes de revoluci\U+00f3n
 62
256
370
-1
 48
1.0
  6
BYLAYER
100
AcDbLine
 10
3132.8471315361321103
 20
761.750850440839713
 30
0.0
 11
3123.8471315361325651
 21
761.750850440839713
 31
0.0
  0
LINE
  5
B3
100
AcDbEntity
  8
Ejes de revoluci\U+00f3n
 62
256
370
-1
 48
1.0
  6
BYLAYER
100
AcDbLine
 10
3162.8471315361321103
 20
761.750850440839713
 30
0.0
 11
3198.8471315361321103
 21
761.750850440839713
 31
0.0
  0
LINE
  5
B4
100
AcDbEntity
  8
Ejes de revoluci\U+00f3n
 62
256
370
-1
 48
1.0
  6
BYLAYER
100
AcDbLine
 10
3198.8471315361321103
 20
769.750850440839713
 30
0.0
 11
3162.8471315361321103
 21
769.750850440839713
 31
0.0
  0
LINE
  5
B5
100
AcDbEntity
  8
Referencias 2
 62
256
370
-1
 48
1.0
  6
BYLAYER
100
AcDbLine
 10
3178.3471315361321103
 20
761.750850440839713
 30
0.0
 11
3183.3471315361321103
 21
761.750850440839713
 31
0.0
  0
LINE
  5
B6
100
AcDbEntity
  8
Ejes de revoluci\U+00f3n
 62
256
370
-1
 48
1.0
  6
BYLAYER
100
AcDbLine
 10
3178.3471315361321103
 20
761.750850440839713
 30
0.0
 11
3178.3471315361321103
 21
769.750850440839713
 31
0.0
  0
LINE
  5
B7
100
AcDbEntity
  8
Ejes de revoluci\U+00f3n
 62
256
370
-1
 48
1.0
  6
BYLAYER
100
AcDbLine
 10
3183.3471315361321103
 20
761.750850440839713
 30
0.0
 11
3183.3471315361321103
 21
769.750850440839713
 31
0.0
  0
LINE
  5
B8
100
AcDbEntity
  8
Ejes de revoluci\U+00f3n
 62
256
370
-1
 48
1.0
  6
BYLAYER
100
AcDbLine
 10
3180.8471315361321103
 20
761.750850440839713
 30
0.0
 11
3180.8471315361321103
 21
778.250850440839713
 31
0.0
  0
LINE
  5
B9
100
AcDbEntity
  8
Contornos Visibles
 62
256
370
-1
 48
1.0
  6
BYLAYER
100
AcDbLine
 10
3175.8471315361321103
 20
767.250850440839713
 30
0.0
 11
3175.8471315361321103
 21
778.250850440839713
 31
0.0
  0
LINE
  5
BA
100
AcDbEntity
  8
Contornos Visibles
 62
256
370
-1
 48
1.0
  6
BYLAYER
100
AcDbLine
 10
3185.8471315361321103
 20
767.250850440839713
 30
0.0
 11
3185.8471315361321103
 21
778.250850440839713
 31
0.0
  0
ARC
  5
BB
100
AcDbEntity
  8
Contornos Visibles
 62
256
370
-1
 48
1.0
  6
BYLAYER
100
AcDbCircle
 10
3180.8471315361321103
 20
767.250850440839713
 30
0.0
 40
5.0
100
AcDbArc
 50
180.0
 51
0.0
  0
MTEXT
  5
BC
100
AcDbEntity
  8
Cotas
 62
256
370
-1
 48
1.0
  6
BYLAYER
100
AcDbMText
 10
3103.0872207733104915
 20
804.5124282269214291
 30
0.0
 40
2.5
 41
0.0
 71
1
 72
1
  1
%%c5
  7
textstyle0
 50
0.0
 73
2
 44
1.0
  0
MTEXT
  5
BD
100
AcDbEntity
  8
Cotas
 62
256
370
-1
 48
1.0
  6
BYLAYER
100
AcDbMText
 10
3070.0931899165666437
 20
849.5663462244067432
 30
0.0
 40
2.5
 41
0.0
 71
1
 72
1
  1
%%c7
  7
textstyle1
 50
0.0
 73
2
 44
1.0
  0
LEADER
  5
BE
100
AcDbEntity
  8
Cotas
 62
256
370
-1
 48
1.0
  6
BYLAYER
100
AcDbLeader
  3
Standard
 71
1
 72
0
 73
3
 74
0
 75
0
 40
1.0
 41
10.0
 76
3
 10
3093.8511430454800575
 20
821.4613175432609751
 10
3102.8372207733104915
 20
801.6618143115053954
 10
3107.0467674914016243
 20
801.6618143115053954
1001
ACAD
1000
DSTYLE
1002
{
1070
40
1040
1.0
1002
}
  0
LEADER
  5
BF
100
AcDbEntity
  8
Cotas
 62
256
370
-1
 48
1.0
  6
BYLAYER
100
AcDbLeader
  3
Standard
 71
1
 72
0
 73
3
 74
0
 75
0
 40
1.0
 41
10.0
 76
3
 10
3062.045210585014047
 20
835.0613287602777746
 10
3069.8431899165666437
 20
846.7140269883904011
 10
3074.0339781080547255
 20
846.7140269883904011
1001
ACAD
1000
DSTYLE
1002
{
1070
40
1040
1.0
1002
}
  0
DIMENSION
  5
C0
100
AcDbEntity
  8
Cotas
 62
256
370
-1
 48
1.0
  6
BYLAYER
100
AcDbDimension
 10
3046.3147331956720336
 20
832.0008504408399403
 30
0.0
 11
3044.4397331956720336
 21
823.7508504408399403
 31
0.0
 70
0
 71
8
 72
2
 74
0
 75
0
 41
1.0
 42
0.0
  1

  3
Standard
100
AcDbAlignedDimension
 13
3055.8471315361321103
 23
832.0008504408399403
 33
0.0
 14
3055.8471315361321103
 24
815.5008504408399403
 34
0.0
 50
90.0
100
AcDbRotatedDimension
1001
ACAD
1000
DSTYLE
1002
{
1070
144
1040
1.0
1070
40
1040
1.0
1002
}
  0
DIMENSION
  5
C1
100
AcDbEntity
  8
Cotas
 62
256
370
-1
 48
1.0
  6
BYLAYER
100
AcDbDimension
 10
3057.3471315361321103
 20
812.7508504408398267
 30
0.0
 11
3047.4250685457923282
 21
806.7472182354401866
 31
0.0
 70
4
 71
8
 72
2
 74
0
 41
1.0
 42
0.0
  1
R<>
  3
Standard
100
AcDbRadialDimension
 15
3053.9243684932725955
 25
809.8294307256268212
 35
0.0
 40
0.0
1001
ACAD
1000
DSTYLE
1002
{
1070
144
1040
1.0
1070
40
1040
1.0
1002
}
  0
DIMENSION
  5
C2
100
AcDbEntity
  8
Cotas
 62
256
370
-1
 48
1.0
  6
BYLAYER
100
AcDbDimension
 10
3132.8471315361321103
 20
784.6412822360914561
 30
0.0
 11
3128.3471315361321103
 21
786.5162822360914561
 31
0.0
 70
0
 71
8
 72
2
 74
0
 75
0
 41
1.0
 42
0.0
  1

  3
Standard
100
AcDbAlignedDimension
 13
3132.8471315361321103
 23
778.2508504408398267
 33
0.0
 14
3123.8471315361321103
 24
778.2508504408398267
 34
0.0
 50
0.0
100
AcDbRotatedDimension
1001
ACAD
1000
DSTYLE
1002
{
1070
144
1040
1.0
1070
40
1040
1.0
1002
}
  0
DIMENSION
  5
C3
100
AcDbEntity
  8
Cotas
 62
256
370
-1
 48
1.0
  6
BYLAYER
100
AcDbDimension
 10
3052.8471315361321103
 20
727.4273572800926786
 30
0.0
 11
3092.8471315361321103
 21
729.3023572800926786
 31
0.0
 70
0
 71
8
 72
2
 74
0
 75
0
 41
1.0
 42
0.0
  1

  3
Standard
100
AcDbAlignedDimension
 13
3052.8471315361321103
 23
747.2508504408398267
 33
0.0
 14
3132.8471315361321103
 24
747.250850440839713
 34
0.0
 50
0.0
100
AcDbRotatedDimension
1001
ACAD
1000
DSTYLE
1002
{
1070
144
1040
1.0
1070
40
1040
1.0
1002
}
  0
DIMENSION
  5
C4
100
AcDbEntity
  8
Cotas
 62
256
370
-1
 48
1.0
  6
BYLAYER
100
AcDbDimension
 10
3052.8471315361321103
 20
735.8974685808377671
 30
0.0
 11
3056.5971315361321103
 21
737.7724685808377671
 31
0.0
 70
0
 71
8
 72
2
 74
0
 75
0
 41
1.0
 42
0.0
  1

  3
Standard
100
AcDbAlignedDimension
 13
3052.8471315361321103
 23
747.2508504408398267
 33
0.0
 14
3060.3471315361321103
 24
746.250850440839713
 34
0.0
 50
0.0
100
AcDbRotatedDimension
1001
ACAD
1000
DSTYLE
1002
{
1070
144
1040
1.0
1070
40
1040
1.0
1002
}
  0
DIMENSION
  5
C5
100
AcDbEntity
  8
Cotas
 62
256
370
-1
 48
1.0
  6
BYLAYER
100
AcDbDimension
 10
3060.3471315361321103
 20
735.8974685808377671
 30
0.0
 11
3076.5971315361321103
 21
737.7724685808377671
 31
0.0
 70
0
 71
8
 72
2
 74
0
 75
0
 41
1.0
 42
0.0
  1

  3
Standard
100
AcDbAlignedDimension
 13
3060.3471315361321103
 23
746.250850440839713
 33
0.0
 14
3092.8471315361321103
 24
747.250850440839713
 34
0.0
 50
0.0
100
AcDbRotatedDimension
1001
ACAD
1000
DSTYLE
1002
{
1070
144
1040
1.0
1070
40
1040
1.0
1002
}
  0
DIMENSION
  5
C6
100
AcDbEntity
  8
Cotas
 62
256
370
-1
 48
1.0
  6
BYLAYER
100
AcDbDimension
 10
3047.2091260544780198
 20
755.750850440839713
 30
0.0
 11
3045.3341260544780198
 21
751.500850440839713
 31
0.0
 70
0
 71
8
 72
2
 74
0
 75
0
 41
1.0
 42
0.0
  1

  3
Standard
100
AcDbAlignedDimension
 13
3052.8471315361321103
 23
755.750850440839713
 33
0.0
 14
3052.8471315361321103
 24
747.2508504408398267
 34
0.0
 50
90.0
100
AcDbRotatedDimension
1001
ACAD
1000
DSTYLE
1002
{
1070
144
1040
1.0
1070
40
1040
1.0
1002
}
  0
DIMENSION
  5
C7
100
AcDbEntity
  8
Cotas
 62
256
370
-1
 48
1.0
  6
BYLAYER
100
AcDbDimension
 10
3140.6232862967676738
 20
778.2508504408398267
 30
0.0
 11
3138.7482862967676738
 21
762.750850440839713
 31
0.0
 70
0
 71
8
 72
2
 74
0
 75
0
 41
1.0
 42
0.0
  1

  3
Standard
100
AcDbAlignedDimension
 13
3132.8471315361321103
 23
778.2508504408398267
 33
0.0
 14
3132.8471315361321103
 24
747.250850440839713
 34
0.0
 50
90.0
100
AcDbRotatedDimension
1001
ACAD
1000
DSTYLE
1002
{
1070
144
1040
1.0
1070
40
1040
1.0
1002
}
  0
DIMENSION
  5
C8
100
AcDbEntity
  8
Cotas
 62
256
370
-1
 48
1.0
  6
BYLAYER
100
AcDbDimension
 10
3156.9127371057315941
 20
747.250850440839713
 30
0.0
 11
3155.0377371057315941
 21
757.250850440839713
 31
0.0
 70
0
 71
8
 72
2
 74
0
 75
0
 41
1.0
 42
0.0
  1

  3
Standard
100
AcDbAlignedDimension
 13
3162.8471315361316556
 23
747.250850440839713
 33
0.0
 14
3175.8471315361321103
 24
767.250850440839713
 34
0.0
 50
90.0
100
AcDbRotatedDimension
1001
ACAD
1000
DSTYLE
1002
{
1070
144
1040
1.0
1070
40
1040
1.0
1002
}
  0
DIMENSION
  5
C9
100
AcDbEntity
  8
Cotas
 62
256
370
-1
 48
1.0
  6
BYLAYER
100
AcDbDimension
 10
3156.9127371057315941
 20
778.250850440839713
 30
0.0
 11
3155.0377371057315941
 21
772.750850440839713
 31
0.0
 70
0
 71
8
 72
2
 74
0
 75
0
 41
1.0
 42
0.0
  1

  3
Standard
100
AcDbAlignedDimension
 13
3167.3471315361321103
 23
778.250850440839713
 33
0.0
 14
3174.3736586079835433
 24
767.250850440839713
 34
0.0
 50
90.0
100
AcDbRotatedDimension
1001
ACAD
1000
DSTYLE
1002
{
1070
144
1040
1.0
1070
40
1040
1.0
1002
}
  0
DIMENSION
  5
CA
100
AcDbEntity
  8
Cotas
 62
256
370
-1
 48
1.0
  6
BYLAYER
100
AcDbDimension
 10
3092.8471315361321103
 20
747.250850440839713
 30
0.0
 11
3080.9963717429659482
 21
761.4083305904666759
 31
0.0
 70
132
 71
8
 72
2
 74
0
 41
1.0
 42
0.0
  1
R<>
  3
Standard
100
AcDbRadialDimension
 15
3076.7831421241244243
 25
763.0051591902234804
 35
0.0
 40
0.0
1001
ACAD
1000
DSTYLE
1002
{
1070
279
1070
2
1070
144
1040
1.0
1070
40
1040
1.0
1002
}
  0
DIMENSION
  5
CB
100
AcDbEntity
  8
Cotas
 62
256
370
-1
 48
1.0
  6
BYLAYER
100
AcDbDimension
 10
3092.8471315361321103
 20
747.250850440839713
 30
0.0
 11
3098.0553441100669261
 21
752.6316168160606139
 31
0.0
 70
4
 71
8
 72
2
 74
0
 41
1.0
 42
0.0
  1
R<>
  3
Standard
100
AcDbRadialDimension
 15
3105.2192094660058501
 25
754.8127078645900383
 35
0.0
 40
0.0
1001
ACAD
1000
DSTYLE
1002
{
1070
144
1040
1.0
1070
40
1040
1.0
1002
}
  0
DIMENSION
  5
CC
100
AcDbEntity
  8
Cotas
 62
256
370
-1
 48
1.0
  6
BYLAYER
100
AcDbDimension
 10
3167.3471315361321103
 20
773.750850440839713
 30
0.0
 11
3159.5187558945631281
 21
782.3069867450636821
 31
0.0
 70
4
 71
8
 72
2
 74
0
 41
1.0
 42
0.0
  1
R<>
  3
Standard
100
AcDbRadialDimension
 15
3163.8126646933847042
 25
776.5360872597689195
 35
0.0
 40
0.0
1001
ACAD
1000
DSTYLE
1002
{
1070
144
1040
1.0
1070
40
1040
1.0
1002
}
  0
DIMENSION
  5
CD
100
AcDbEntity
  8
Cotas
 62
256
370
-1
 48
1.0
  6
BYLAYER
100
AcDbDimension
 10
3175.8471315361316556
 20
784.6789128131807729
 30
0.0
 11
3180.8471315361316556
 21
786.5539128131807729
 31
0.0
 70
0
 71
8
 72
2
 74
0
 75
0
 41
1.0
 42
0.0
  1

  3
Standard
100
AcDbAlignedDimension
 13
3175.8471315361316556
 23
778.250850440839713
 33
0.0
 14
3185.8471315361316556
 24
778.250850440839713
 34
0.0
 50
0.0
100
AcDbRotatedDimension
1001
ACAD
1000
DSTYLE
1002
{
1070
144
1040
1.0
1070
40
1040
1.0
1002
}
  0
DIMENSION
  5
CE
100
AcDbEntity
  8
Cotas
 62
256
370
-1
 48
1.0
  6
BYLAYER
100
AcDbDimension
 10
3162.8471315361321103
 20
793.6332315322846398
 30
0.0
 11
3180.8471315361321103
 21
795.5082315322846398
 31
0.0
 70
0
 71
8
 72
2
 74
0
 75
0
 41
1.0
 42
0.0
  1

  3
Standard
100
AcDbAlignedDimension
 13
3162.8471315361321103
 23
773.750850440839713
 33
0.0
 14
3198.8471315361321103
 24
773.750850440839713
 34
0.0
 50
0.0
100
AcDbRotatedDimension
1001
ACAD
1000
DSTYLE
1002
{
1070
144
1040
1.0
1070
40
1040
1.0
1002
}
  0
ENDSEC
  0
SECTION
  2
OBJECTS
  0
DICTIONARY
  5
C
100
AcDbDictionary
280
0
281
1
  3
ACAD_GROUP
350
D
  3
ACAD_LAYOUT
350
1A
  3
ACAD_MLINESTYLE
350
17
  3
ACAD_PLOTSETTINGS
350
19
  3
ACAD_PLOTSTYLENAME
350
E
  3
AcDbVariableDictionary
350
CF
  3
QCAD_OBJECTS
350
D0
  0
DICTIONARY
  5
D
100
AcDbDictionary
280
0
281
1
  0
ACDBDICTIONARYWDFLT
  5
E
100
AcDbDictionary
281
1
  3
Normal
350
F
100
AcDbDictionaryWithDefault
340
F
  0
ACDBPLACEHOLDER
  5
F
  0
DICTIONARY
  5
17
100
AcDbDictionary
280
0
281
1
  3
Standard
350
18
  0
MLINESTYLE
  5
18
100
AcDbMlineStyle
  2
STANDARD
 70
0
  3

 62
256
 51
90.0
 52
90.0
 71
2
 49
0.5
 62
256
  6
BYLAYER
 49
-0.5
 62
256
  6
BYLAYER
  0
DICTIONARY
  5
19
100
AcDbDictionary
280
0
281
1
  0
DICTIONARY
  5
1A
100
AcDbDictionary
281
1
  3
Layout1
350
1E
  3
Layout2
350
26
  3
Model
350
22
  0
LAYOUT
  5
1E
100
AcDbPlotSettings
  1

  2
none_device
  4

  6

 40
0.0
 41
0.0
 42
0.0
 43
0.0
 44
0.0
 45
0.0
 46
0.0
 47
0.0
 48
0.0
 49
0.0
140
0.0
141
0.0
142
1.0
143
1.0
 70
688
 72
0
 73
0
 74
5
  7

 75
16
147
1.0
148
0.0
149
0.0
100
AcDbLayout
  1
Layout1
 70
1
 71
1
 10
0.0
 20
0.0
 11
420.0
 21
297.0
 12
0.0
 22
0.0
 32
0.0
 14
100000000000000000000.0
 24
100000000000000000000.0
 34
100000000000000000000.0
 15
-100000000000000000000.0
 25
-100000000000000000000.0
 35
-100000000000000000000.0
146
0.0
 13
0.0
 23
0.0
 33
0.0
 16
1.0
 26
0.0
 36
0.0
 17
0.0
 27
1.0
 37
0.0
 76
0
330
1B
  0
LAYOUT
  5
22
100
AcDbPlotSettings
  1

  2
none_device
  4

  6

 40
0.0
 41
0.0
 42
0.0
 43
0.0
 44
0.0
 45
0.0
 46
0.0
 47
0.0
 48
0.0
 49
0.0
140
0.0
141
0.0
142
1.0
143
1.0
 70
1712
 72
0
 73
0
 74
0
  7

 75
0
147
1.0
148
0.0
149
0.0
100
AcDbLayout
  1
Model
 70
1
 71
0
 10
0.0
 20
0.0
 11
12.0
 21
9.0
 12
0.0
 22
0.0
 32
0.0
 14
0.0
 24
0.0
 34
0.0
 15
0.0
 25
0.0
 35
0.0
146
0.0
 13
0.0
 23
0.0
 33
0.0
 16
1.0
 26
0.0
 36
0.0
 17
0.0
 27
1.0
 37
0.0
 76
0
330
1F
  0
LAYOUT
  5
26
100
AcDbPlotSettings
  1

  2
none_device
  4

  6

 40
0.0
 41
0.0
 42
0.0
 43
0.0
 44
0.0
 45
0.0
 46
0.0
 47
0.0
 48
0.0
 49
0.0
140
0.0
141
0.0
142
1.0
143
1.0
 70
688
 72
0
 73
0
 74
5
  7

 75
16
147
1.0
148
0.0
149
0.0
100
AcDbLayout
  1
Layout2
 70
1
 71
2
 10
0.0
 20
0.0
 11
12.0
 21
9.0
 12
0.0
 22
0.0
 32
0.0
 14
0.0
 24
0.0
 34
0.0
 15
0.0
 25
0.0
 35
0.0
146
0.0
 13
0.0
 23
0.0
 33
0.0
 16
1.0
 26
0.0
 36
0.0
 17
0.0
 27
1.0
 37
0.0
 76
0
330
23
  0
DICTIONARY
  5
CF
100
AcDbDictionary
281
1
  3
DIMASSOC
350
D2
  3
HIDETEXT
350
D1
  0
DICTIONARYVAR
  5
D1
100
DictionaryVariables
280
0
  1
2
  0
DICTIONARYVAR
  5
D2
100
DictionaryVariables
280
0
  1
1
  0
DICTIONARY
  5
D0
100
AcDbDictionary
281
1
  3
ColorSettings/BackgroundColor
350
D3
  3
ColorSettings/ColorMode
350
D4
  3
Grid/DisplayGrid00
350
D5
  3
Grid/DisplayGrid01
350
D6
  3
Grid/DisplayGrid02
350
D7
  3
Grid/DisplayGrid03
350
D8
  3
Grid/GridSpacingX00
350
D9
  3
Grid/GridSpacingX01
350
DA
  3
Grid/GridSpacingX02
350
DB
  3
Grid/GridSpacingX03
350
DC
  3
Grid/GridSpacingY00
350
DD
  3
Grid/GridSpacingY01
350
DE
  3
Grid/GridSpacingY02
350
DF
  3
Grid/GridSpacingY03
350
E0
  3
Grid/IsometricGrid00
350
E1
  3
Grid/IsometricGrid01
350
E2
  3
Grid/IsometricGrid02
350
E3
  3
Grid/IsometricGrid03
350
E4
  3
Grid/IsometricProjection00
350
E5
  3
Grid/IsometricProjection01
350
E6
  3
Grid/IsometricProjection02
350
E7
  3
Grid/IsometricProjection03
350
E8
  3
Grid/MetaGridSpacingX00
350
E9
  3
Grid/MetaGridSpacingX01
350
EA
  3
Grid/MetaGridSpacingX02
350
EB
  3
Grid/MetaGridSpacingX03
350
EC
  3
Grid/MetaGridSpacingY00
350
ED
  3
Grid/MetaGridSpacingY01
350
EE
  3
Grid/MetaGridSpacingY02
350
EF
  3
Grid/MetaGridSpacingY03
350
F0
  3
MultiPageSettings/Columns
350
F1
  3
MultiPageSettings/GlueMarginsBottom
350
F2
  3
MultiPageSettings/GlueMarginsLeft
350
F3
  3
MultiPageSettings/GlueMarginsRight
350
F4
  3
MultiPageSettings/GlueMarginsTop
350
F5
  3
MultiPageSettings/PrintCropMarks
350
F6
  3
MultiPageSettings/Rows
350
F7
  3
PageSettings/OffsetX
350
F8
  3
PageSettings/OffsetY
350
F9
  3
PageSettings/PageOrientation
350
FA
  3
PageSettings/PaperHeight
350
FB
  3
PageSettings/PaperWidth
350
FC
  3
PageSettings/Scale
350
FD
  3
PageSettings/ShowPaperBorders
350
FE
  3
PageTagSettings/EnablePageTags
350
FF
  3
PageTagSettings/TagAlignment
350
100
  3
PageTagSettings/TagFont
350
101
  3
PageTagSettings/TagPosition
350
102
  3
QCADVersion
350
103
  3
UnitSettings/PaperUnit
350
104
  3
ViewportCenter
350
105
  3
ViewportHeight
350
106
  3
ViewportWidth
350
107
  0
XRECORD
  5
D3
330
D0
100
AcDbXrecord
280
1
1000
Blanca
  0
XRECORD
  5
D4
330
D0
100
AcDbXrecord
280
1
1000
FullColor
  0
XRECORD
  5
D5
330
D0
100
AcDbXrecord
280
1
290
0
  0
XRECORD
  5
D6
330
D0
100
AcDbXrecord
280
1
290
1
  0
XRECORD
  5
D7
330
D0
100
AcDbXrecord
280
1
290
1
  0
XRECORD
  5
D8
330
D0
100
AcDbXrecord
280
1
290
1
  0
XRECORD
  5
D9
330
D0
100
AcDbXrecord
280
1
1000
auto
  0
XRECORD
  5
DA
330
D0
100
AcDbXrecord
280
1
1000
auto
  0
XRECORD
  5
DB
330
D0
100
AcDbXrecord
280
1
1000
auto
  0
XRECORD
  5
DC
330
D0
100
AcDbXrecord
280
1
1000
auto
  0
XRECORD
  5
DD
330
D0
100
AcDbXrecord
280
1
1000
auto
  0
XRECORD
  5
DE
330
D0
100
AcDbXrecord
280
1
1000
auto
  0
XRECORD
  5
DF
330
D0
100
AcDbXrecord
280
1
1000
auto
  0
XRECORD
  5
E0
330
D0
100
AcDbXrecord
280
1
1000
auto
  0
XRECORD
  5
E1
330
D0
100
AcDbXrecord
280
1
290
0
  0
XRECORD
  5
E2
330
D0
100
AcDbXrecord
280
1
290
0
  0
XRECORD
  5
E3
330
D0
100
AcDbXrecord
280
1
290
0
  0
XRECORD
  5
E4
330
D0
100
AcDbXrecord
280
1
290
0
  0
XRECORD
  5
E5
330
D0
100
AcDbXrecord
280
1
 90
65537
  0
XRECORD
  5
E6
330
D0
100
AcDbXrecord
280
1
 90
65537
  0
XRECORD
  5
E7
330
D0
100
AcDbXrecord
280
1
 90
65537
  0
XRECORD
  5
E8
330
D0
100
AcDbXrecord
280
1
 90
65537
  0
XRECORD
  5
E9
330
D0
100
AcDbXrecord
280
1
1000
auto
  0
XRECORD
  5
EA
330
D0
100
AcDbXrecord
280
1
1000
auto
  0
XRECORD
  5
EB
330
D0
100
AcDbXrecord
280
1
1000
auto
  0
XRECORD
  5
EC
330
D0
100
AcDbXrecord
280
1
1000
auto
  0
XRECORD
  5
ED
330
D0
100
AcDbXrecord
280
1
1000
1
  0
XRECORD
  5
EE
330
D0
100
AcDbXrecord
280
1
1000
auto
  0
XRECORD
  5
EF
330
D0
100
AcDbXrecord
280
1
1000
auto
  0
XRECORD
  5
F0
330
D0
100
AcDbXrecord
280
1
1000
auto
  0
XRECORD
  5
F1
330
D0
100
AcDbXrecord
280
1
 90
1
  0
XRECORD
  5
F2
330
D0
100
AcDbXrecord
280
1
 40
10.0
  0
XRECORD
  5
F3
330
D0
100
AcDbXrecord
280
1
 40
10.0
  0
XRECORD
  5
F4
330
D0
100
AcDbXrecord
280
1
 40
10.0
  0
XRECORD
  5
F5
330
D0
100
AcDbXrecord
280
1
 40
10.0
  0
XRECORD
  5
F6
330
D0
100
AcDbXrecord
280
1
290
0
  0
XRECORD
  5
F7
330
D0
100
AcDbXrecord
280
1
 90
1
  0
XRECORD
  5
F8
330
D0
100
AcDbXrecord
280
1
 40
793.1665914866936191
  0
XRECORD
  5
F9
330
D0
100
AcDbXrecord
280
1
 40
306.6308471493692309
  0
XRECORD
  5
FA
330
D0
100
AcDbXrecord
280
1
1000
Portrait
  0
XRECORD
  5
FB
330
D0
100
AcDbXrecord
280
1
 40
279.3999999999999773
  0
XRECORD
  5
FC
330
D0
100
AcDbXrecord
280
1
 40
215.9000000000000057
  0
XRECORD
  5
FD
330
D0
100
AcDbXrecord
280
1
 90
1
  0
XRECORD
  5
FE
330
D0
100
AcDbXrecord
280
1
290
1
  0
XRECORD
  5
FF
330
D0
100
AcDbXrecord
280
1
290
0
  0
XRECORD
  5
100
330
D0
100
AcDbXrecord
280
1
1000
Inside
  0
XRECORD
  5
101
330
D0
100
AcDbXrecord
280
1
1000
Arial,10,-1,5,50,0,0,0,0,0
  0
XRECORD
  5
102
330
D0
100
AcDbXrecord
280
1
1000
TopLeft
  0
XRECORD
  5
103
330
D0
100
AcDbXrecord
280
1
1000
3.28.1
  0
XRECORD
  5
104
330
D0
100
AcDbXrecord
280
1
 90
4
  0
XRECORD
  5
106
330
D0
100
AcDbXrecord
280
1
 40
165.7847873726460648
  0
XRECORD
  5
107
330
D0
100
AcDbXrecord
280
1
 40
308.8081387740476202
  0
IMAGEDEF
  5
62
100
AcDbRasterImageDef
 90
0
  1
C:/Users/iamth/Documents/OneDrive/Estudio Aut\U+00f3nomo/CAD/QCad/1. StudyCadCam/2D CAD EXERCISES 80.png
 10
200.0
 20
141.0
 11
1.0
 21
1.0
280
1
281
0
  0
ENDSEC
  0
EOF
