999
dxflib 3.26.4.0
  0
SECTION
  2
HEADER
  9
$ACADVER
  1
AC1015
  9
$HANDSEED
  5
FFFF
  9
$DIMADEC
 70
0
  9
$DIMASZ
 40
2.5
  9
$DIMATFIT
 70
0
  9
$DIMAUNIT
 70
0
  9
$DIMAZIN
 70
2
  9
$DIMBLK
  1
0
  9
$DIMBLK1
  1
0
  9
$DIMBLK2
  1
0
  9
$DIMDEC
 70
4
  9
$DIMDLI
 40
5.0
  9
$DIMDSEP
 70
46
  9
$DIMEXE
 40
1.25
  9
$DIMEXO
 40
0.625
  9
$DIMGAP
 40
0.625
  9
$DIMLFAC
 40
1.0
  9
$DIMLUNIT
 70
2
  9
$DIMSCALE
 40
1.0
  9
$DIMTAD
 70
1
  9
$DIMTIH
 70
0
  9
$DIMTSZ
 40
0.0
  9
$DIMTXT
 40
2.5
  9
$DIMZIN
 70
8
  9
$DWGCODEPAGE
  3
ANSI_1252
  9
$INSUNITS
 70
4
  9
$LTSCALE
 40
1.0
  9
$MAXACTVP
 70
64
  9
$MEASUREMENT
 70
1
  9
$MIRRTEXT
 70
0
  9
$PDMODE
 70
0
  9
$PDSIZE
 40
0.0
  0
ENDSEC
  0
SECTION
  2
TABLES
  0
TABLE
  2
VPORT
  5
8
100
AcDbSymbolTable
 70
1
  0
VPORT
  5
30
100
AcDbSymbolTableRecord
100
AcDbViewportTableRecord
  2
*Active
 70
0
 10
0.0
 20
0.0
 11
1.0
 21
1.0
 12
286.3055555555554861
 22
148.5
 13
0.0
 23
0.0
 14
10.0
 24
10.0
 15
10.0
 25
10.0
 16
0.0
 26
0.0
 36
1.0
 17
0.0
 27
0.0
 37
0.0
 40
297.0
 41
1.92798353909465
 42
50.0
 43
0.0
 44
0.0
 50
0.0
 51
0.0
 71
0
 72
100
 73
1
 74
3
 75
1
 76
1
 77
0
 78
0
281
0
 65
1
110
0.0
120
0.0
130
0.0
111
1.0
121
0.0
131
0.0
112
0.0
122
1.0
132
0.0
 79
0
146
0.0
  0
ENDTAB
  0
TABLE
  2
LTYPE
  5
5
100
AcDbSymbolTable
 70
41
  0
LTYPE
  5
16
100
AcDbSymbolTableRecord
100
AcDbLinetypeTableRecord
  2
Continuous
 70
0
  3
Solid line
 72
65
 73
0
 40
0.0
  0
LTYPE
  5
31
100
AcDbSymbolTableRecord
100
AcDbLinetypeTableRecord
  2
DIVIDE
 70
0
  3
Divide ____ . . ____ . . ____ . . ____ . . ____
 72
65
 73
6
 40
31.7500000000000036
 49
12.6999999999999993
 74
0
 49
-6.2999999999999998
 74
0
 49
0.1
 74
0
 49
-6.25
 74
0
 49
0.1
 74
0
 49
-6.2999999999999998
 74
0
  0
LTYPE
  5
32
100
AcDbSymbolTableRecord
100
AcDbLinetypeTableRecord
  2
ACAD_ISO04W100
 70
0
  3
ISO long-dash dot ____ . ____ . ____ . ____ . _
 72
65
 73
4
 40
30.0
 49
24.0
 74
0
 49
-2.9500000000000002
 74
0
 49
0.1
 74
0
 49
-2.9500000000000002
 74
0
  0
LTYPE
  5
33
100
AcDbSymbolTableRecord
100
AcDbLinetypeTableRecord
  2
DASHDOT2
 70
0
  3
Dash dot (.5x) _._._._._._._._._._._._._._._.
 72
65
 73
4
 40
12.6999999999999993
 49
6.3499999999999996
 74
0
 49
-3.125
 74
0
 49
0.1
 74
0
 49
-3.125
 74
0
  0
LTYPE
  5
34
100
AcDbSymbolTableRecord
100
AcDbLinetypeTableRecord
  2
ACAD_ISO10W100
 70
0
  3
ISO dash dot __ . __ . __ . __ . __ . __ . __ . 
 72
65
 73
4
 40
18.0
 49
12.0
 74
0
 49
-2.9500000000000002
 74
0
 49
0.1
 74
0
 49
-2.9500000000000002
 74
0
  0
LTYPE
  5
14
100
AcDbSymbolTableRecord
100
AcDbLinetypeTableRecord
  2
BYBLOCK
 70
0
  3

 72
65
 73
0
 40
0.0
  0
LTYPE
  5
35
100
AcDbSymbolTableRecord
100
AcDbLinetypeTableRecord
  2
DIVIDE2
 70
0
  3
Divide (.5x) __..__..__..__..__..__..__..__.._
 72
65
 73
6
 40
15.8749999999999982
 49
6.3499999999999996
 74
0
 49
-3.125
 74
0
 49
0.1
 74
0
 49
-3.0750000000000002
 74
0
 49
0.1
 74
0
 49
-3.125
 74
0
  0
LTYPE
  5
36
100
AcDbSymbolTableRecord
100
AcDbLinetypeTableRecord
  2
CENTER2
 70
0
  3
Center (.5x) ___ _ ___ _ ___ _ ___ _ ___ _ ___
 72
65
 73
4
 40
28.5750000000000028
 49
19.0500000000000007
 74
0
 49
-3.1749999999999998
 74
0
 49
3.1749999999999998
 74
0
 49
-3.1749999999999998
 74
0
  0
LTYPE
  5
37
100
AcDbSymbolTableRecord
100
AcDbLinetypeTableRecord
  2
DASHDOTX2
 70
0
  3
Dash dot (2x) ____  .  ____  .  ____  .  ___
 72
65
 73
4
 40
50.7999999999999972
 49
25.3999999999999986
 74
0
 49
-12.6499999999999986
 74
0
 49
0.1
 74
0
 49
-12.6499999999999986
 74
0
  0
LTYPE
  5
38
100
AcDbSymbolTableRecord
100
AcDbLinetypeTableRecord
  2
DOT2
 70
0
  3
Dot (.5x) ........................................
 72
65
 73
2
 40
3.1749999999999998
 49
0.1
 74
0
 49
-3.0749999999999997
 74
0
  0
LTYPE
  5
39
100
AcDbSymbolTableRecord
100
AcDbLinetypeTableRecord
  2
ACAD_ISO06W100
 70
0
  3
ISO long-dash triple-dot ____ ... ____ ... ____
 72
65
 73
8
 40
36.0000000000000071
 49
24.0
 74
0
 49
-2.9500000000000002
 74
0
 49
0.1
 74
0
 49
-2.9000000000000004
 74
0
 49
0.1
 74
0
 49
-2.9000000000000004
 74
0
 49
0.1
 74
0
 49
-2.9500000000000002
 74
0
  0
LTYPE
  5
3A
100
AcDbSymbolTableRecord
100
AcDbLinetypeTableRecord
  2
DIVIDEX2
 70
0
  3
Divide (2x) ________  .  .  ________  .  .  _
 72
65
 73
6
 40
63.5
 49
25.3999999999999986
 74
0
 49
-12.6499999999999986
 74
0
 49
0.1
 74
0
 49
-12.5999999999999979
 74
0
 49
0.1
 74
0
 49
-12.6499999999999986
 74
0
  0
LTYPE
  5
3B
100
AcDbSymbolTableRecord
100
AcDbLinetypeTableRecord
  2
DASHEDX2
 70
0
  3
Dashed (2x) ____  ____  ____  ____  ____  ___
 72
65
 73
2
 40
38.0999999999999943
 49
25.3999999999999986
 74
0
 49
-12.6999999999999993
 74
0
  0
LTYPE
  5
3C
100
AcDbSymbolTableRecord
100
AcDbLinetypeTableRecord
  2
DASHED
 70
0
  3
Dashed __ __ __ __ __ __ __ __ __ __ __ __ __ _
 72
65
 73
2
 40
19.0499999999999972
 49
12.6999999999999993
 74
0
 49
-6.3499999999999996
 74
0
  0
LTYPE
  5
3D
100
AcDbSymbolTableRecord
100
AcDbLinetypeTableRecord
  2
HIDDEN
 70
0
  3
Hidden __ __ __ __ __ __ __ __ __ __ __ __ __ __
 72
65
 73
2
 40
9.5249999999999986
 49
6.3499999999999996
 74
0
 49
-3.1749999999999998
 74
0
  0
LTYPE
  5
3E
100
AcDbSymbolTableRecord
100
AcDbLinetypeTableRecord
  2
ACAD_ISO08W100
 70
0
  3
ISO long-dash short-dash ____ __ ____ __ ____ _
 72
65
 73
4
 40
36.0
 49
24.0
 74
0
 49
-3.0
 74
0
 49
6.0
 74
0
 49
-3.0
 74
0
  0
LTYPE
  5
3F
100
AcDbSymbolTableRecord
100
AcDbLinetypeTableRecord
  2
ACAD_ISO13W100
 70
0
  3
ISO double-dash double-dot __ __ . . __ __ . . _
 72
65
 73
8
 40
36.0000000000000071
 49
12.0
 74
0
 49
-3.0
 74
0
 49
12.0
 74
0
 49
-2.9500000000000002
 74
0
 49
0.1
 74
0
 49
-2.9000000000000004
 74
0
 49
0.1
 74
0
 49
-2.9500000000000002
 74
0
  0
LTYPE
  5
40
100
AcDbSymbolTableRecord
100
AcDbLinetypeTableRecord
  2
DOT
 70
0
  3
Dot . . . . . . . . . . . . . . . . . . . . . . . .
 72
65
 73
2
 40
6.3499999999999996
 49
0.1
 74
0
 49
-6.25
 74
0
  0
LTYPE
  5
41
100
AcDbSymbolTableRecord
100
AcDbLinetypeTableRecord
  2
BORDERX2
 70
0
  3
Border (2x) ____  ____  .  ____  ____  .  ___
 72
65
 73
6
 40
88.8999999999999773
 49
25.3999999999999986
 74
0
 49
-12.6999999999999993
 74
0
 49
25.3999999999999986
 74
0
 49
-12.6499999999999986
 74
0
 49
0.1
 74
0
 49
-12.6499999999999986
 74
0
  0
LTYPE
  5
42
100
AcDbSymbolTableRecord
100
AcDbLinetypeTableRecord
  2
ACAD_ISO09W100
 70
0
  3
ISO long-dash double-short-dash ____ __ __ ____
 72
65
 73
6
 40
45.0
 49
24.0
 74
0
 49
-3.0
 74
0
 49
6.0
 74
0
 49
-3.0
 74
0
 49
6.0
 74
0
 49
-3.0
 74
0
  0
LTYPE
  5
43
100
AcDbSymbolTableRecord
100
AcDbLinetypeTableRecord
  2
BORDER2
 70
0
  3
Border (.5x) __.__.__.__.__.__.__.__.__.__.__.
 72
65
 73
6
 40
22.2250000000000014
 49
6.3499999999999996
 74
0
 49
-3.1749999999999998
 74
0
 49
6.3499999999999996
 74
0
 49
-3.125
 74
0
 49
0.1
 74
0
 49
-3.125
 74
0
  0
LTYPE
  5
44
100
AcDbSymbolTableRecord
100
AcDbLinetypeTableRecord
  2
CENTERX2
 70
0
  3
Center (2x) ________  __  ________  __  _____
 72
65
 73
4
 40
101.6000000000000085
 49
63.5
 74
0
 49
-12.6999999999999993
 74
0
 49
12.6999999999999993
 74
0
 49
-12.6999999999999993
 74
0
  0
LTYPE
  5
45
100
AcDbSymbolTableRecord
100
AcDbLinetypeTableRecord
  2
ACAD_ISO12W100
 70
0
  3
ISO dash double-dot __ . . __ . . __ . . __ . . 
 72
65
 73
6
 40
21.0
 49
12.0
 74
0
 49
-2.9500000000000002
 74
0
 49
0.1
 74
0
 49
-2.9000000000000004
 74
0
 49
0.1
 74
0
 49
-2.9500000000000002
 74
0
  0
LTYPE
  5
46
100
AcDbSymbolTableRecord
100
AcDbLinetypeTableRecord
  2
ACAD_ISO14W100
 70
0
  3
ISO dash triple-dot __ . . . __ . . . __ . . . _
 72
65
 73
8
 40
24.0000000000000036
 49
12.0
 74
0
 49
-2.9500000000000002
 74
0
 49
0.1
 74
0
 49
-2.9000000000000004
 74
0
 49
0.1
 74
0
 49
-2.9000000000000004
 74
0
 49
0.1
 74
0
 49
-2.9500000000000002
 74
0
  0
LTYPE
  5
47
100
AcDbSymbolTableRecord
100
AcDbLinetypeTableRecord
  2
ACAD_ISO11W100
 70
0
  3
ISO double-dash dot __ __ . __ __ . __ __ . __ _
 72
65
 73
6
 40
33.0
 49
12.0
 74
0
 49
-3.0
 74
0
 49
12.0
 74
0
 49
-2.9500000000000002
 74
0
 49
0.1
 74
0
 49
-2.9500000000000002
 74
0
  0
LTYPE
  5
48
100
AcDbSymbolTableRecord
100
AcDbLinetypeTableRecord
  2
PHANTOM
 70
0
  3
Phantom ______  __  __  ______  __  __  ______ 
 72
65
 73
6
 40
63.5000000000000071
 49
31.75
 74
0
 49
-6.3499999999999996
 74
0
 49
6.3499999999999996
 74
0
 49
-6.3499999999999996
 74
0
 49
6.3499999999999996
 74
0
 49
-6.3499999999999996
 74
0
  0
LTYPE
  5
49
100
AcDbSymbolTableRecord
100
AcDbLinetypeTableRecord
  2
ACAD_ISO03W100
 70
0
  3
ISO dash space __    __    __    __    __    __
 72
65
 73
2
 40
30.0
 49
12.0
 74
0
 49
-18.0
 74
0
  0
LTYPE
  5
4A
100
AcDbSymbolTableRecord
100
AcDbLinetypeTableRecord
  2
DASHDOT
 70
0
  3
Dash dot __ . __ . __ . __ . __ . __ . __ . __
 72
65
 73
4
 40
25.4000000000000021
 49
12.6999999999999993
 74
0
 49
-6.2999999999999998
 74
0
 49
0.1
 74
0
 49
-6.2999999999999998
 74
0
  0
LTYPE
  5
4B
100
AcDbSymbolTableRecord
100
AcDbLinetypeTableRecord
  2
DOTX2
 70
0
  3
Dot (2x) .  .  .  .  .  .  .  .  .  .  .  .  .  .
 72
65
 73
2
 40
12.6999999999999993
 49
0.1
 74
0
 49
-12.5999999999999996
 74
0
  0
LTYPE
  5
4C
100
AcDbSymbolTableRecord
100
AcDbLinetypeTableRecord
  2
PHANTOMX2
 70
0
  3
Phantom (2x) ____________    ____    ____   _
 72
65
 73
6
 40
127.0000000000000142
 49
63.5
 74
0
 49
-12.6999999999999993
 74
0
 49
12.6999999999999993
 74
0
 49
-12.6999999999999993
 74
0
 49
12.6999999999999993
 74
0
 49
-12.6999999999999993
 74
0
  0
LTYPE
  5
4D
100
AcDbSymbolTableRecord
100
AcDbLinetypeTableRecord
  2
PHANTOM2
 70
0
  3
Phantom (.5x) ___ _ _ ___ _ _ ___ _ _ ___ _ _
 72
65
 73
6
 40
31.7500000000000036
 49
15.875
 74
0
 49
-3.1749999999999998
 74
0
 49
3.1749999999999998
 74
0
 49
-3.1749999999999998
 74
0
 49
3.1749999999999998
 74
0
 49
-3.1749999999999998
 74
0
  0
LTYPE
  5
4E
100
AcDbSymbolTableRecord
100
AcDbLinetypeTableRecord
  2
ACAD_ISO07W100
 70
0
  3
ISO dot . . . . . . . . . . . . . . . . . . . . 
 72
65
 73
2
 40
3.0
 49
0.1
 74
0
 49
-2.8999999999999999
 74
0
  0
LTYPE
  5
4F
100
AcDbSymbolTableRecord
100
AcDbLinetypeTableRecord
  2
ACAD_ISO15W100
 70
0
  3
ISO double-dash triple-dot __ __ . . . __ __ . .
 72
65
 73
10
 40
39.0000000000000071
 49
12.0
 74
0
 49
-3.0
 74
0
 49
12.0
 74
0
 49
-2.9500000000000002
 74
0
 49
0.1
 74
0
 49
-2.9000000000000004
 74
0
 49
0.1
 74
0
 49
-2.9000000000000004
 74
0
 49
0.1
 74
0
 49
-2.9500000000000002
 74
0
  0
LTYPE
  5
50
100
AcDbSymbolTableRecord
100
AcDbLinetypeTableRecord
  2
HIDDEN2
 70
0
  3
Hidden (.5x) _ _ _ _ _ _ _ _ _ _ _ _ _ _ _ _ _ 
 72
65
 73
2
 40
4.7624999999999993
 49
3.1749999999999998
 74
0
 49
-1.5874999999999999
 74
0
  0
LTYPE
  5
51
100
AcDbSymbolTableRecord
100
AcDbLinetypeTableRecord
  2
BORDER
 70
0
  3
Border __ __ . __ __ . __ __ . __ __ . __ __ .
 72
65
 73
6
 40
44.4499999999999957
 49
12.6999999999999993
 74
0
 49
-6.3499999999999996
 74
0
 49
12.6999999999999993
 74
0
 49
-6.2999999999999998
 74
0
 49
0.1
 74
0
 49
-6.2999999999999998
 74
0
  0
LTYPE
  5
52
100
AcDbSymbolTableRecord
100
AcDbLinetypeTableRecord
  2
DASHED2
 70
0
  3
Dashed (.5x) _ _ _ _ _ _ _ _ _ _ _ _ _ _ _ _ _ 
 72
65
 73
2
 40
9.5249999999999986
 49
6.3499999999999996
 74
0
 49
-3.1749999999999998
 74
0
  0
LTYPE
  5
15
100
AcDbSymbolTableRecord
100
AcDbLinetypeTableRecord
  2
BYLAYER
 70
0
  3

 72
65
 73
0
 40
0.0
  0
LTYPE
  5
53
100
AcDbSymbolTableRecord
100
AcDbLinetypeTableRecord
  2
CENTER
 70
0
  3
Center ____ _ ____ _ ____ _ ____ _ ____ _ ____
 72
65
 73
4
 40
50.8000000000000043
 49
31.75
 74
0
 49
-6.3499999999999996
 74
0
 49
6.3499999999999996
 74
0
 49
-6.3499999999999996
 74
0
  0
LTYPE
  5
54
100
AcDbSymbolTableRecord
100
AcDbLinetypeTableRecord
  2
ACAD_ISO02W100
 70
0
  3
ISO dash __ __ __ __ __ __ __ __ __ __ __ __ __
 72
65
 73
2
 40
15.0
 49
12.0
 74
0
 49
-3.0
 74
0
  0
LTYPE
  5
55
100
AcDbSymbolTableRecord
100
AcDbLinetypeTableRecord
  2
ACAD_ISO05W100
 70
0
  3
ISO long-dash double-dot ____ .. ____ .. ____ . 
 72
65
 73
6
 40
33.0000000000000071
 49
24.0
 74
0
 49
-2.9500000000000002
 74
0
 49
0.1
 74
0
 49
-2.9000000000000004
 74
0
 49
0.1
 74
0
 49
-2.9500000000000002
 74
0
  0
LTYPE
  5
56
100
AcDbSymbolTableRecord
100
AcDbLinetypeTableRecord
  2
HIDDENX2
 70
0
  3
Hidden (2x) ____ ____ ____ ____ ____ ____ ____ 
 72
65
 73
2
 40
19.0499999999999972
 49
12.6999999999999993
 74
0
 49
-6.3499999999999996
 74
0
  0
ENDTAB
  0
TABLE
  2
LAYER
  5
2
100
AcDbSymbolTable
 70
7
  0
LAYER
  5
57
100
AcDbSymbolTableRecord
100
AcDbLayerTableRecord
  2
Contornos Visibles
 70
0
 62
7
420
16777215
  6
Continuous
370
50
390
F
  0
LAYER
  5
10
100
AcDbSymbolTableRecord
100
AcDbLayerTableRecord
  2
0
 70
0
 62
7
420
16777215
  6
Continuous
370
25
390
F
  0
LAYER
  5
58
100
AcDbSymbolTableRecord
100
AcDbLayerTableRecord
  2
Referencias 2
 70
1
 62
3
420
65280
  6
Continuous
370
25
390
F
  0
LAYER
  5
59
100
AcDbSymbolTableRecord
100
AcDbLayerTableRecord
  2
Ejes de revoluci\U+00f3n
 70
0
 62
6
420
16711935
  6
ACAD_ISO04W100
370
20
390
F
  0
LAYER
  5
5A
100
AcDbSymbolTableRecord
100
AcDbLayerTableRecord
  2
Contornos Ocultos
 70
0
 62
252
420
10526884
  6
ACAD_ISO02W100
370
30
390
F
  0
LAYER
  5
5B
100
AcDbSymbolTableRecord
100
AcDbLayerTableRecord
  2
Cotas
 70
0
 62
1
420
16711680
  6
Continuous
370
20
390
F
  0
LAYER
  5
5C
100
AcDbSymbolTableRecord
100
AcDbLayerTableRecord
  2
Referencias
 70
1
 62
2
420
16776960
  6
Continuous
370
25
390
F
  0
ENDTAB
  0
TABLE
  2
STYLE
  5
3
100
AcDbSymbolTable
 70
1
  0
STYLE
  5
5D
100
AcDbSymbolTableRecord
100
AcDbTextStyleTableRecord
  2
Standard
 70
0
 40
0.0
 41
1.0
 50
0.0
 71
0
 42
2.5
  3

  4

1001
ACAD
1000
txt
1071
0
  0
ENDTAB
  0
TABLE
  2
VIEW
  5
6
100
AcDbSymbolTable
 70
0
  0
ENDTAB
  0
TABLE
  2
UCS
  5
7
100
AcDbSymbolTable
 70
0
  0
ENDTAB
  0
TABLE
  2
APPID
  5
9
100
AcDbSymbolTable
 70
1
  0
APPID
  5
12
100
AcDbSymbolTableRecord
100
AcDbRegAppTableRecord
  2
ACAD
 70
0
  0
APPID
  5
5E
100
AcDbSymbolTableRecord
100
AcDbRegAppTableRecord
  2
QCAD
 70
0
  0
ENDTAB
  0
TABLE
  2
DIMSTYLE
  5
A
100
AcDbSymbolTable
 70
1
100
AcDbDimStyleTable
 71
0
  0
DIMSTYLE
105
27
100
AcDbSymbolTableRecord
100
AcDbDimStyleTableRecord
  2
Standard
 41
2.5
 42
0.625
 43
3.75
 44
1.25
 70
0
 73
0
 74
0
 77
1
 78
8
140
2.5
141
2.5
143
0.03937007874016
147
0.625
171
3
172
1
271
2
272
2
274
3
278
44
283
0
284
8
340
5D
  0
ENDTAB
  0
TABLE
  2
BLOCK_RECORD
  5
1
100
AcDbSymbolTable
 70
1
  0
BLOCK_RECORD
  5
1F
100
AcDbSymbolTableRecord
100
AcDbBlockTableRecord
  2
*Model_Space
340
22
  0
BLOCK_RECORD
  5
1B
100
AcDbSymbolTableRecord
100
AcDbBlockTableRecord
  2
*Paper_Space
340
1E
  0
BLOCK_RECORD
  5
23
100
AcDbSymbolTableRecord
100
AcDbBlockTableRecord
  2
*Paper_Space0
340
26
  0
ENDTAB
  0
ENDSEC
  0
SECTION
  2
BLOCKS
  0
BLOCK
  5
20
100
AcDbEntity
  8
0
100
AcDbBlockBegin
  2
*Model_Space
 70
0
 10
0.0
 20
0.0
 30
0.0
  3
*Model_Space
  1

  0
ENDBLK
  5
21
100
AcDbEntity
  8
0
100
AcDbBlockEnd
  0
BLOCK
  5
1C
100
AcDbEntity
 67
1
  8
0
100
AcDbBlockBegin
  2
*Paper_Space
 70
0
 10
0.0
 20
0.0
 30
0.0
  3
*Paper_Space
  1

  0
ENDBLK
  5
1D
100
AcDbEntity
 67
1
  8
0
100
AcDbBlockEnd
  0
BLOCK
  5
24
100
AcDbEntity
  8
0
100
AcDbBlockBegin
  2
*Paper_Space0
 70
0
 10
0.0
 20
0.0
 30
0.0
  3
*Paper_Space0
  1

  0
ENDBLK
  5
25
100
AcDbEntity
  8
0
100
AcDbBlockEnd
  0
ENDSEC
  0
SECTION
  2
ENTITIES
  0
IMAGE
  5
5F
100
AcDbEntity
  8
0
 62
256
370
-1
 48
1.0
  6
BYLAYER
100
AcDbRasterImage
 90
0
 10
1702.6236923760573063
 20
547.6712678071626215
 30
0.0
 11
0.09765625
 21
0.0
 31
0.0
 12
0.0
 22
0.09765625
 32
0.0
 13
200.0
 23
141.0
340
60
 70
15
280
0
281
50
282
50
283
0
  0
ARC
  5
61
100
AcDbEntity
  8
Contornos Visibles
 62
256
370
-1
 48
1.0
  6
BYLAYER
100
AcDbCircle
 10
2256.7108935423825642
 20
605.7666732538916676
 30
0.0
 40
3.5
100
AcDbArc
 50
124.8499045790464379
 51
175.15009542095342
  0
ARC
  5
62
100
AcDbEntity
  8
Contornos Visibles
 62
256
370
-1
 48
1.0
  6
BYLAYER
100
AcDbCircle
 10
2256.7108935423825642
 20
605.7666732538916676
 30
0.0
 40
3.5
100
AcDbArc
 50
244.8499045790456421
 51
295.1500954209543579
  0
ARC
  5
63
100
AcDbEntity
  8
Contornos Visibles
 62
256
370
-1
 48
1.0
  6
BYLAYER
100
AcDbCircle
 10
2256.7108935423825642
 20
605.7666732538916676
 30
0.0
 40
3.5
100
AcDbArc
 50
4.8499045790465871
 51
55.1500954209535763
  0
ARC
  5
64
100
AcDbEntity
  8
Ejes de revoluci\U+00f3n
 62
256
370
-1
 48
1.0
  6
BYLAYER
100
AcDbCircle
 10
2256.7108935423825642
 20
605.7666732538916676
 30
0.0
 40
6.0
100
AcDbArc
 50
109.4712206344905354
 51
190.528779365508484
  0
ARC
  5
65
100
AcDbEntity
  8
Ejes de revoluci\U+00f3n
 62
256
370
-1
 48
1.0
  6
BYLAYER
100
AcDbCircle
 10
2256.7108935423825642
 20
605.7666732538916676
 30
0.0
 40
6.0
100
AcDbArc
 50
349.4712206344915444
 51
70.5287793655094504
  0
ARC
  5
66
100
AcDbEntity
  8
Ejes de revoluci\U+00f3n
 62
256
370
-1
 48
1.0
  6
BYLAYER
100
AcDbCircle
 10
2256.7108935423825642
 20
605.7666732538916676
 30
0.0
 40
6.0
100
AcDbArc
 50
229.4712206344885601
 51
310.5287793655114683
  0
ARC
  5
67
100
AcDbEntity
  8
Contornos Visibles
 62
256
370
-1
 48
1.0
  6
BYLAYER
100
AcDbCircle
 10
2256.7108935423825642
 20
605.7666732538916676
 30
0.0
 40
6.0000000000000435
100
AcDbArc
 50
70.5287793655094504
 51
109.4712206344905354
  0
ARC
  5
68
100
AcDbEntity
  8
Contornos Visibles
 62
256
370
-1
 48
1.0
  6
BYLAYER
100
AcDbCircle
 10
2256.7108935423825642
 20
605.7666732538916676
 30
0.0
 40
6.0000000000000435
100
AcDbArc
 50
310.528779365509422
 51
349.4712206344905212
  0
ARC
  5
69
100
AcDbEntity
  8
Contornos Visibles
 62
256
370
-1
 48
1.0
  6
BYLAYER
100
AcDbCircle
 10
2256.7108935423825642
 20
605.7666732538916676
 30
0.0
 40
6.0000000000000435
100
AcDbArc
 50
190.528779365509422
 51
229.4712206344905212
  0
LINE
  5
6A
100
AcDbEntity
  8
Contornos Visibles
 62
256
370
-1
 48
1.0
  6
BYLAYER
100
AcDbLine
 10
2254.7108935423825642
 20
611.4235275033840935
 30
0.0
 11
2254.7108935423825642
 21
608.638954577160689
 31
0.0
  0
LINE
  5
6B
100
AcDbEntity
  8
Contornos Visibles
 62
256
370
-1
 48
1.0
  6
BYLAYER
100
AcDbLine
 10
2262.6098730279491065
 20
604.6702969367142941
 30
0.0
 11
2260.198362135149182
 21
606.0625833998260532
 31
0.0
  0
LINE
  5
6C
100
AcDbEntity
  8
Contornos Visibles
 62
256
370
-1
 48
1.0
  6
BYLAYER
100
AcDbLine
 10
2252.8119140568160219
 20
601.2061953215766152
 30
0.0
 11
2255.2234249496159464
 21
602.5984817846882606
 31
0.0
  0
LINE
  5
6D
100
AcDbEntity
  8
Contornos Visibles
 62
256
370
-1
 48
1.0
  6
BYLAYER
100
AcDbLine
 10
2258.7108935423825642
 20
608.638954577160689
 30
0.0
 11
2258.7108935423825642
 21
611.4235275033840935
 31
0.0
  0
LINE
  5
6E
100
AcDbEntity
  8
Contornos Visibles
 62
256
370
-1
 48
1.0
  6
BYLAYER
100
AcDbLine
 10
2258.198362135149182
 20
602.5984817846882606
 30
0.0
 11
2260.6098730279491065
 21
601.2061953215766152
 31
0.0
  0
LINE
  5
6F
100
AcDbEntity
  8
Contornos Visibles
 62
256
370
-1
 48
1.0
  6
BYLAYER
100
AcDbLine
 10
2253.2234249496159464
 20
606.0625833998260532
 30
0.0
 11
2250.8119140568160219
 21
604.6702969367142941
 31
0.0
  0
XLINE
  5
70
100
AcDbEntity
  8
Referencias
 62
256
370
-1
 48
1.0
  6
BYLAYER
100
AcDbLine
 10
2262.7108935423825642
 20
605.7666732538916676
 30
0.0
 11
1.0
 21
0.0
 31
0.0
  0
CIRCLE
  5
71
100
AcDbEntity
  8
Ejes de revoluci\U+00f3n
 62
256
370
-1
 48
1.0
  6
BYLAYER
100
AcDbCircle
 10
2256.7108935423825642
 20
605.7666732538916676
 30
0.0
 40
12.5
  0
CIRCLE
  5
72
100
AcDbEntity
  8
Contornos Visibles
 62
256
370
-1
 48
1.0
  6
BYLAYER
100
AcDbCircle
 10
2256.7108935423825642
 20
618.2666732538916676
 30
0.0
 40
3.0
  0
CIRCLE
  5
73
100
AcDbEntity
  8
Contornos Visibles
 62
256
370
-1
 48
1.0
  6
BYLAYER
100
AcDbCircle
 10
2267.5362110896880949
 20
612.0166732538916676
 30
0.0
 40
3.0
  0
CIRCLE
  5
74
100
AcDbEntity
  8
Contornos Visibles
 62
256
370
-1
 48
1.0
  6
BYLAYER
100
AcDbCircle
 10
2267.5362110896880949
 20
599.5166732538916676
 30
0.0
 40
3.0
  0
CIRCLE
  5
75
100
AcDbEntity
  8
Contornos Visibles
 62
256
370
-1
 48
1.0
  6
BYLAYER
100
AcDbCircle
 10
2256.7108935423825642
 20
593.2666732538916676
 30
0.0
 40
3.0
  0
CIRCLE
  5
76
100
AcDbEntity
  8
Contornos Visibles
 62
256
370
-1
 48
1.0
  6
BYLAYER
100
AcDbCircle
 10
2245.8855759950770334
 20
599.5166732538916676
 30
0.0
 40
3.0
  0
CIRCLE
  5
77
100
AcDbEntity
  8
Contornos Visibles
 62
256
370
-1
 48
1.0
  6
BYLAYER
100
AcDbCircle
 10
2245.8855759950770334
 20
612.0166732538916676
 30
0.0
 40
3.0
  0
LINE
  5
78
100
AcDbEntity
  8
Ejes de revoluci\U+00f3n
 62
256
370
-1
 48
1.0
  6
BYLAYER
100
AcDbLine
 10
2264.0721094745504161
 20
610.0166732538916676
 30
0.0
 11
2271.0003127048257738
 21
614.0166732538916676
 31
0.0
  0
LINE
  5
79
100
AcDbEntity
  8
Ejes de revoluci\U+00f3n
 62
256
370
-1
 48
1.0
  6
BYLAYER
100
AcDbLine
 10
2242.4214743799393545
 20
614.0166732538916676
 30
0.0
 11
2249.3496776102147123
 21
610.0166732538916676
 31
0.0
  0
LINE
  5
7A
100
AcDbEntity
  8
Ejes de revoluci\U+00f3n
 62
256
370
-1
 48
1.0
  6
BYLAYER
100
AcDbLine
 10
2249.3496776102147123
 20
601.5166732538916676
 30
0.0
 11
2242.4214743799393545
 21
597.5166732538916676
 31
0.0
  0
LINE
  5
7B
100
AcDbEntity
  8
Ejes de revoluci\U+00f3n
 62
256
370
-1
 48
1.0
  6
BYLAYER
100
AcDbLine
 10
2271.0003127048257738
 20
597.5166732538916676
 30
0.0
 11
2264.0721094745504161
 21
601.5166732538916676
 31
0.0
  0
LINE
  5
7C
100
AcDbEntity
  8
Ejes de revoluci\U+00f3n
 62
256
370
-1
 48
1.0
  6
BYLAYER
100
AcDbLine
 10
2256.7108935423825642
 20
589.2666732538916676
 30
0.0
 11
2256.7108935423825642
 21
597.2666732538916676
 31
0.0
  0
LINE
  5
7D
100
AcDbEntity
  8
Ejes de revoluci\U+00f3n
 62
256
370
-1
 48
1.0
  6
BYLAYER
100
AcDbLine
 10
2256.7108935423825642
 20
614.2666732538916676
 30
0.0
 11
2256.7108935423825642
 21
622.2666732538916676
 31
0.0
  0
ARC
  5
7E
100
AcDbEntity
  8
Contornos Visibles
 62
256
370
-1
 48
1.0
  6
BYLAYER
100
AcDbCircle
 10
2256.7108935423825642
 20
605.7666732538916676
 30
0.0
 40
19.0
100
AcDbArc
 50
94.7023488290350883
 51
205.2976511709655654
  0
ARC
  5
7F
100
AcDbEntity
  8
Contornos Visibles
 62
256
370
-1
 48
1.0
  6
BYLAYER
100
AcDbCircle
 10
2256.7108935423825642
 20
605.7666732538916676
 30
0.0
 40
19.0
100
AcDbArc
 50
214.7023488290338946
 51
325.2976511709661054
  0
ARC
  5
80
100
AcDbEntity
  8
Contornos Visibles
 62
256
370
-1
 48
1.0
  6
BYLAYER
100
AcDbCircle
 10
2256.7108935423825642
 20
605.7666732538916676
 30
0.0
 40
19.0
100
AcDbArc
 50
334.7023488290344062
 51
85.2976511709649259
  0
CIRCLE
  5
81
100
AcDbEntity
  8
Contornos Visibles
 62
256
370
-1
 48
1.0
  6
BYLAYER
100
AcDbCircle
 10
2256.7108935423825642
 20
605.7666732538916676
 30
0.0
 40
64.0
  0
ARC
  5
82
100
AcDbEntity
  8
Contornos Visibles
 62
256
370
-1
 48
1.0
  6
BYLAYER
100
AcDbCircle
 10
2256.7108935423825642
 20
627.2666732538916676
 30
0.0
 40
3.0
100
AcDbArc
 50
201.5520888872129319
 51
338.4479111127870397
  0
ARC
  5
83
100
AcDbEntity
  8
Contornos Visibles
 62
256
370
-1
 48
1.0
  6
BYLAYER
100
AcDbCircle
 10
2275.3304397237479861
 20
595.0166732538916676
 30
0.0
 40
3.0
100
AcDbArc
 50
81.5520888872129177
 51
218.4479111127870397
  0
ARC
  5
84
100
AcDbEntity
  8
Contornos Visibles
 62
256
370
-1
 48
1.0
  6
BYLAYER
100
AcDbCircle
 10
2238.0913473610171422
 20
595.0166732538916676
 30
0.0
 40
3.0
100
AcDbArc
 50
321.5520888872129603
 51
98.447911112786997
  0
CIRCLE
  5
85
100
AcDbEntity
  8
Ejes de revoluci\U+00f3n
 62
256
370
-1
 48
1.0
  6
BYLAYER
100
AcDbCircle
 10
2256.7108935423825642
 20
605.7666732538916676
 30
0.0
 40
46.0
  0
ARC
  5
86
100
AcDbEntity
  8
Contornos Visibles
 62
256
370
-1
 48
1.0
  6
BYLAYER
100
AcDbCircle
 10
2256.7108935423825642
 20
651.7666732538916676
 30
0.0
 40
12.0
100
AcDbArc
 50
338.4479111127865281
 51
201.5520888872129319
  0
ARC
  5
87
100
AcDbEntity
  8
Contornos Visibles
 62
256
370
-1
 48
1.0
  6
BYLAYER
100
AcDbCircle
 10
2296.5480621164665536
 20
582.7666732538916676
 30
0.0
 40
12.0
100
AcDbArc
 50
218.4479111127864428
 51
81.5520888872129177
  0
ARC
  5
88
100
AcDbEntity
  8
Contornos Visibles
 62
256
370
-1
 48
1.0
  6
BYLAYER
100
AcDbCircle
 10
2216.8737249682985748
 20
582.7666732538916676
 30
0.0
 40
12.0
100
AcDbArc
 50
98.4479111127864854
 51
321.5520888872129603
  0
LINE
  5
89
100
AcDbEntity
  8
Contornos Visibles
 62
256
370
-1
 48
1.0
  6
BYLAYER
100
AcDbLine
 10
2245.5498856745239209
 20
647.3585099885855243
 30
0.0
 11
2253.9206415754179034
 21
626.1646324375651602
 31
0.0
  0
LINE
  5
8A
100
AcDbEntity
  8
Contornos Visibles
 62
256
370
-1
 48
1.0
  6
BYLAYER
100
AcDbLine
 10
2298.3109846786114758
 20
594.6364712319483488
 30
0.0
 11
2275.7711703642844441
 21
597.9841227484057526
 31
0.0
  0
LINE
  5
8B
100
AcDbEntity
  8
Contornos Visibles
 62
256
370
-1
 48
1.0
  6
BYLAYER
100
AcDbLine
 10
2226.2718102740122958
 20
575.3050385411411298
 30
0.0
 11
2240.4408686874453451
 21
593.15126457570409
 31
0.0
  0
LINE
  5
8C
100
AcDbEntity
  8
Contornos Visibles
 62
256
370
-1
 48
1.0
  6
BYLAYER
100
AcDbLine
 10
2267.8719014102412075
 20
647.3585099885855243
 30
0.0
 11
2259.501145509347225
 21
626.1646324375651602
 31
0.0
  0
LINE
  5
8D
100
AcDbEntity
  8
Contornos Visibles
 62
256
370
-1
 48
1.0
  6
BYLAYER
100
AcDbLine
 10
2287.1499768107528325
 20
575.3050385411411298
 30
0.0
 11
2272.9809183973197833
 21
593.1512645757039763
 31
0.0
  0
LINE
  5
8E
100
AcDbEntity
  8
Contornos Visibles
 62
256
370
-1
 48
1.0
  6
BYLAYER
100
AcDbLine
 10
2215.1108024061536526
 20
594.6364712319483488
 30
0.0
 11
2237.6506167204806843
 21
597.9841227484058663
 31
0.0
  0
LINE
  5
8F
100
AcDbEntity
  8
Contornos Visibles
 62
256
370
-1
 48
1.0
  6
BYLAYER
100
AcDbLine
 10
2211.0527376230015761
 20
600.1691025270959017
 30
0.0
 11
2233.5925519373286079
 21
603.5167540435534193
 31
0.0
  0
LINE
  5
90
100
AcDbEntity
  8
Contornos Visibles
 62
256
370
-1
 48
1.0
  6
BYLAYER
100
AcDbLine
 10
2238.7294540315765516
 20
648.1065815334246736
 30
0.0
 11
2247.1002099324709889
 21
626.9127039824047642
 31
0.0
  0
LINE
  5
91
100
AcDbEntity
  8
Contornos Visibles
 62
256
370
-1
 48
1.0
  6
BYLAYER
100
AcDbLine
 10
2302.369049461764007
 20
600.1691025270963564
 30
0.0
 11
2279.8292351474369752
 21
603.5167540435533056
 31
0.0
  0
LINE
  5
92
100
AcDbEntity
  8
Contornos Visibles
 62
256
370
-1
 48
1.0
  6
BYLAYER
100
AcDbLine
 10
2274.6923330531876672
 20
648.1065815334243325
 30
0.0
 11
2266.3215771522941395
 21
626.9127039824041958
 31
0.0
  0
LINE
  5
93
100
AcDbEntity
  8
Contornos Visibles
 62
256
370
-1
 48
1.0
  6
BYLAYER
100
AcDbLine
 10
2229.0341771338066792
 20
569.0243357011539729
 30
0.0
 11
2243.2032355472397285
 21
586.8705617357169331
 31
0.0
  0
LINE
  5
94
100
AcDbEntity
  8
Contornos Visibles
 62
256
370
-1
 48
1.0
  6
BYLAYER
100
AcDbLine
 10
2284.3876099509584492
 20
569.0243357011547687
 30
0.0
 11
2270.2185515375249452
 21
586.8705617357172741
 31
0.0
  0
CIRCLE
  5
95
100
AcDbEntity
  8
Ejes de revoluci\U+00f3n
 62
256
370
-1
 48
1.0
  6
BYLAYER
100
AcDbCircle
 10
2256.7108935423825642
 20
605.7666732538920087
 30
0.0
 40
57.0
  0
CIRCLE
  5
96
100
AcDbEntity
  8
Contornos Visibles
 62
256
370
-1
 48
1.0
  6
BYLAYER
100
AcDbCircle
 10
2241.9582079715387408
 20
660.8244453523689117
 30
0.0
 40
3.0
  0
CIRCLE
  5
97
100
AcDbEntity
  8
Contornos Visibles
 62
256
370
-1
 48
1.0
  6
BYLAYER
100
AcDbCircle
 10
2311.7686656408591261
 20
591.0139876830475032
 30
0.0
 40
3.0
  0
CIRCLE
  5
98
100
AcDbEntity
  8
Contornos Visibles
 62
256
370
-1
 48
1.0
  6
BYLAYER
100
AcDbCircle
 10
2216.4058070147484614
 20
565.461586726258588
 30
0.0
 40
3.0
  0
CIRCLE
  5
99
100
AcDbEntity
  8
Contornos Visibles
 62
256
370
-1
 48
1.0
  6
BYLAYER
100
AcDbCircle
 10
2271.4635791132263876
 20
660.8244453523689117
 30
0.0
 40
3.0
  0
CIRCLE
  5
9A
100
AcDbEntity
  8
Contornos Visibles
 62
256
370
-1
 48
1.0
  6
BYLAYER
100
AcDbCircle
 10
2297.0159800700153028
 20
565.4615867262577922
 30
0.0
 40
3.0
  0
CIRCLE
  5
9B
100
AcDbEntity
  8
Contornos Visibles
 62
256
370
-1
 48
1.0
  6
BYLAYER
100
AcDbCircle
 10
2201.653121443904638
 20
591.0139876830484127
 30
0.0
 40
3.0
  0
ARC
  5
9C
100
AcDbEntity
  8
Contornos Visibles
 62
256
370
-1
 48
1.0
  6
BYLAYER
100
AcDbCircle
 10
2256.7108935423825642
 20
605.7666732538916676
 30
0.0
 40
58.0
100
AcDbArc
 50
128.0000000000002842
 51
172.0
  0
ARC
  5
9D
100
AcDbEntity
  8
Referencias
 62
256
370
-1
 48
1.0
  6
BYLAYER
100
AcDbCircle
 10
2256.7108935423825642
 20
605.7666732538916676
 30
0.0
 40
58.0
100
AcDbArc
 50
172.0
 51
128.0000000000002274
  0
ARC
  5
9E
100
AcDbEntity
  8
Contornos Visibles
 62
256
370
-1
 48
1.0
  6
BYLAYER
100
AcDbCircle
 10
2256.7108935423825642
 20
605.7666732538916676
 30
0.0
 40
58.0
100
AcDbArc
 50
8.0000000000002665
 51
51.9999999999999716
  0
ARC
  5
9F
100
AcDbEntity
  8
Contornos Visibles
 62
256
370
-1
 48
1.0
  6
BYLAYER
100
AcDbCircle
 10
2256.7108935423825642
 20
605.7666732538916676
 30
0.0
 40
58.0
100
AcDbArc
 50
248.0000000000002274
 51
291.9999999999999432
  0
LINE
  5
A0
100
AcDbEntity
  8
Referencias
 62
256
370
-1
 48
1.0
  6
BYLAYER
100
AcDbLine
 10
2256.7108935423825642
 20
605.7666732538916676
 30
0.0
 11
2157.6840866682255182
 21
619.6839833498981989
 31
0.0
  0
LINE
  5
A1
100
AcDbEntity
  8
Referencias
 62
256
370
-1
 48
1.0
  6
BYLAYER
100
AcDbLine
 10
2256.7108935423825642
 20
605.7666732538916676
 30
0.0
 11
2195.144746009816572
 21
684.567748614563925
 31
0.0
  0
ARC
  5
A2
100
AcDbEntity
  8
Contornos Visibles
 62
256
370
-1
 48
1.0
  6
BYLAYER
100
AcDbCircle
 10
2211.1585623802702685
 20
612.1686358980546174
 30
0.0
 40
12.0000000000000639
100
AcDbArc
 50
171.9999999999997158
 51
269.4947174539299226
  0
ARC
  5
A3
100
AcDbEntity
  8
Contornos Visibles
 62
256
370
-1
 48
1.0
  6
BYLAYER
100
AcDbCircle
 10
2228.3904656774016075
 20
642.0151679198010015
 30
0.0
 40
12.0000000000000639
100
AcDbArc
 50
30.5052825460717081
 51
128.0000000000019895
  0
ARC
  5
A4
100
AcDbEntity
  8
Contornos Visibles
 62
256
370
-1
 48
1.0
  6
BYLAYER
100
AcDbCircle
 10
2302.2632247044953147
 20
612.1686358980551859
 30
0.0
 40
12.0000000000000639
100
AcDbArc
 50
270.5052825460717258
 51
8.0000000000019966
  0
ARC
  5
A5
100
AcDbEntity
  8
Contornos Visibles
 62
256
370
-1
 48
1.0
  6
BYLAYER
100
AcDbCircle
 10
2285.0313214073630661
 20
642.0151679198008878
 30
0.0
 40
12.0000000000000639
100
AcDbArc
 50
51.9999999999997158
 51
149.4947174539298942
  0
ARC
  5
A6
100
AcDbEntity
  8
Contornos Visibles
 62
256
370
-1
 48
1.0
  6
BYLAYER
100
AcDbCircle
 10
2239.4789902452507704
 20
563.1162159438188155
 30
0.0
 40
12.0000000000000639
100
AcDbArc
 50
150.5052825460716974
 51
248.0000000000019895
  0
ARC
  5
A7
100
AcDbEntity
  8
Contornos Visibles
 62
256
370
-1
 48
1.0
  6
BYLAYER
100
AcDbCircle
 10
2273.942796839514358
 20
563.1162159438193839
 30
0.0
 40
12.0000000000000639
100
AcDbArc
 50
291.9999999999996589
 51
29.4947174539299333
  0
ARC
  5
A8
100
AcDbEntity
  8
Contornos Visibles
 62
256
370
-1
 48
1.0
  6
BYLAYER
100
AcDbCircle
 10
2232.8628620162148763
 20
608.4632251868063122
 30
0.0
 40
5.0
100
AcDbArc
 50
278.4479111127876649
 51
353.5488343993436047
  0
ARC
  5
A9
100
AcDbEntity
  8
Contornos Visibles
 62
256
370
-1
 48
1.0
  6
BYLAYER
100
AcDbCircle
 10
2242.451595302770329
 20
625.0713984193481565
 30
0.0
 40
5.0
100
AcDbArc
 50
306.4511656006581006
 51
21.5520888872140226
  0
ARC
  5
AA
100
AcDbEntity
  8
Contornos Visibles
 62
256
370
-1
 48
1.0
  6
BYLAYER
100
AcDbCircle
 10
2270.9701917819943446
 20
625.0713984193477017
 30
0.0
 40
5.0
100
AcDbArc
 50
158.4479111127876365
 51
233.5488343993436331
  0
ARC
  5
AB
100
AcDbEntity
  8
Contornos Visibles
 62
256
370
-1
 48
1.0
  6
BYLAYER
100
AcDbCircle
 10
2280.5589250685507068
 20
608.4632251868063122
 30
0.0
 40
5.0
100
AcDbArc
 50
186.4511656006581291
 51
261.5520888872140404
  0
ARC
  5
AC
100
AcDbEntity
  8
Contornos Visibles
 62
256
370
-1
 48
1.0
  6
BYLAYER
100
AcDbCircle
 10
2266.2996268289384716
 20
583.7653961555209889
 30
0.0
 40
5.0
100
AcDbArc
 50
38.447911112787672
 51
113.5488343993435478
  0
ARC
  5
AD
100
AcDbEntity
  8
Contornos Visibles
 62
256
370
-1
 48
1.0
  6
BYLAYER
100
AcDbCircle
 10
2247.1221602558266568
 20
583.7653961555205342
 30
0.0
 40
5.0
100
AcDbArc
 50
66.4511656006580722
 51
141.5520888872139551
  0
LINE
  5
AE
100
AcDbEntity
  8
Referencias
 62
256
370
-1
 48
1.0
  6
BYLAYER
100
AcDbLine
 10
2256.7108935423821094
 20
605.7666732538916676
 30
0.0
 11
2170.1083531639387729
 21
655.7666732538922361
 31
0.0
  0
LINE
  5
AF
100
AcDbEntity
  8
Ejes de revoluci\U+00f3n
 62
256
370
-1
 48
1.0
  6
BYLAYER
100
AcDbLine
 10
2272.4988552936365522
 20
664.6881486575251756
 30
0.0
 11
2270.4283029328162229
 21
656.9607420472126478
 31
0.0
  0
LINE
  5
B0
100
AcDbEntity
  8
Ejes de revoluci\U+00f3n
 62
256
370
-1
 48
1.0
  6
BYLAYER
100
AcDbLine
 10
2299.8444071947619705
 20
562.6331596015119203
 30
0.0
 11
2294.1875529452699993
 21
568.2900138510044599
 31
0.0
  0
LINE
  5
B1
100
AcDbEntity
  8
Ejes de revoluci\U+00f3n
 62
256
370
-1
 48
1.0
  6
BYLAYER
100
AcDbLine
 10
2197.7894181387491699
 20
589.978711502637907
 30
0.0
 11
2205.5168247490614704
 21
592.0492638634580089
 31
0.0
  0
LINE
  5
B2
100
AcDbEntity
  8
Ejes de revoluci\U+00f3n
 62
256
370
-1
 48
1.0
  6
BYLAYER
100
AcDbLine
 10
2242.9934841519489055
 20
656.9607420472126478
 30
0.0
 11
2240.9229317911285762
 21
664.6881486575251756
 31
0.0
  0
LINE
  5
B3
100
AcDbEntity
  8
Ejes de revoluci\U+00f3n
 62
256
370
-1
 48
1.0
  6
BYLAYER
100
AcDbLine
 10
2307.904962335703658
 20
592.0492638634578952
 30
0.0
 11
2315.6323689460159585
 21
589.978711502637907
 31
0.0
  0
LINE
  5
B4
100
AcDbEntity
  8
Ejes de revoluci\U+00f3n
 62
256
370
-1
 48
1.0
  6
BYLAYER
100
AcDbLine
 10
2219.2342341394951291
 20
568.2900138510044599
 30
0.0
 11
2213.5773798900027032
 21
562.6331596015119203
 31
0.0
  0
DIMENSION
  5
B5
100
AcDbEntity
  8
Cotas
 62
256
370
-1
 48
1.0
  6
BYLAYER
100
AcDbDimension
 10
2254.7108935423825642
 20
613.1574596884206585
 30
0.0
 11
2256.7108935423825642
 21
615.0324596884206585
 31
0.0
 70
0
 71
8
 72
2
 74
0
 75
0
 41
1.0
 42
0.0
  1

  3
Standard
100
AcDbAlignedDimension
 13
2254.7108935423825642
 23
611.4235275033840935
 33
0.0
 14
2258.7108935423825642
 24
611.4235275033840935
 34
0.0
 50
0.0
100
AcDbRotatedDimension
1001
ACAD
1000
DSTYLE
1002
{
1070
144
1040
1.0
1070
40
1040
1.0
1002
}
  0
LINE
  5
B6
100
AcDbEntity
  8
Referencias 2
 62
256
370
-1
 48
1.0
  6
BYLAYER
100
AcDbLine
 10
2256.7108935423825642
 20
605.7666732538916676
 30
0.0
 11
2256.7108935423825642
 21
627.2666732538916676
 31
0.0
  0
DIMENSION
  5
B7
100
AcDbEntity
  8
Cotas
 62
256
370
-1
 48
1.0
  6
BYLAYER
100
AcDbDimension
 10
2230.1459738224170906
 20
627.2666732538916676
 30
0.0
 11
2228.2709738224170906
 21
616.5166732538916676
 31
0.0
 70
0
 71
8
 72
2
 74
0
 75
0
 41
1.0
 42
0.0
  1

  3
Standard
100
AcDbAlignedDimension
 13
2256.7108935423825642
 23
627.2666732538916676
 33
0.0
 14
2256.7108935423816547
 24
605.7666732538916676
 34
0.0
 50
90.0
100
AcDbRotatedDimension
1001
ACAD
1000
DSTYLE
1002
{
1070
144
1040
1.0
1070
40
1040
1.0
1002
}
  0
DIMENSION
  5
B8
100
AcDbEntity
  8
Cotas
 62
256
370
-1
 48
1.0
  6
BYLAYER
100
AcDbDimension
 10
2256.7108935423825642
 20
627.2666732538916676
 30
0.0
 11
2257.9849214104146995
 21
635.7950233738888528
 31
0.0
 70
4
 71
8
 72
2
 74
0
 41
1.0
 42
0.0
  1
R<>
  3
Standard
100
AcDbRadialDimension
 15
2257.7886986674484433
 25
630.0663761153363112
 35
0.0
 40
0.0
1001
ACAD
1000
DSTYLE
1002
{
1070
144
1040
1.0
1070
40
1040
1.0
1002
}
  0
DIMENSION
  5
B9
100
AcDbEntity
  8
Cotas
 62
256
370
-1
 48
1.0
  6
BYLAYER
100
AcDbDimension
 10
2262.3626400849493621
 20
607.7810617513231364
 30
0.0
 11
2256.0813971369352657
 21
607.5328440484438488
 31
0.0
 70
3
 71
8
 72
2
 74
0
 75
0
 41
1.0
 42
0.0
  1
\U+00f8<>
  3
Standard
100
AcDbDiametricDimension
 15
2251.0591469998157663
 25
603.7522847564601989
 35
0.0
 40
0.0
1001
ACAD
1000
DSTYLE
1002
{
1070
144
1040
1.0
1070
40
1040
1.0
1002
}
  0
DIMENSION
  5
BA
100
AcDbEntity
  8
Cotas
 62
256
370
-1
 48
1.0
  6
BYLAYER
100
AcDbDimension
 10
2248.8270780181301234
 20
600.1062204092361299
 30
0.0
 11
2240.5833296819705538
 21
600.5913545045145838
 31
0.0
 70
131
 71
8
 72
2
 74
0
 75
0
 41
1.0
 42
0.0
  1
\U+00f8<>
  3
Standard
100
AcDbDiametricDimension
 15
2242.9440739720239435
 25
598.9271260985472054
 35
0.0
 40
0.0
1001
ACAD
1000
DSTYLE
1002
{
1070
279
1070
2
1070
144
1040
1.0
1070
40
1040
1.0
1002
}
  0
DIMENSION
  5
BB
100
AcDbEntity
  8
Cotas
 62
256
370
-1
 48
1.0
  6
BYLAYER
100
AcDbDimension
 10
2265.735281106806724
 20
597.1173710226671574
 30
0.0
 11
2261.8951134432331855
 21
598.1918620211840789
 31
0.0
 70
131
 71
8
 72
2
 74
0
 75
0
 41
1.0
 42
0.0
  1
\U+00f8<>
  3
Standard
100
AcDbDiametricDimension
 15
2247.6865059779584044
 25
614.4159754851161779
 35
0.0
 40
0.0
1001
ACAD
1000
DSTYLE
1002
{
1070
279
1070
2
1070
144
1040
1.0
1070
40
1040
1.0
1002
}
  0
DIMENSION
  5
BC
100
AcDbEntity
  8
Cotas
 62
256
370
-1
 48
1.0
  6
BYLAYER
100
AcDbDimension
 10
2263.5460160826364699
 20
588.0386981901763193
 30
0.0
 11
2264.6237074912319258
 21
592.4190195212239587
 31
0.0
 70
131
 71
8
 72
2
 74
0
 75
0
 41
1.0
 42
0.0
  1
\U+00f8<>
  3
Standard
100
AcDbDiametricDimension
 15
2249.8757710021286584
 25
623.494648317607016
 35
0.0
 40
0.0
1001
ACAD
1000
DSTYLE
1002
{
1070
279
1070
2
1070
144
1040
1.0
1070
40
1040
1.0
1002
}
  0
DIMENSION
  5
BD
100
AcDbEntity
  8
Cotas
 62
256
370
-1
 48
1.0
  6
BYLAYER
100
AcDbDimension
 10
2256.7108935423825642
 20
605.7666732538916676
 30
0.0
 11
2251.9091176877318503
 21
596.4573741959425206
 31
0.0
 70
4
 71
8
 72
2
 74
0
 41
1.0
 42
0.0
  1
R<>
  3
Standard
100
AcDbRadialDimension
 15
2255.6891563033454986
 25
602.4191289279169723
 35
0.0
 40
0.0
1001
ACAD
1000
DSTYLE
1002
{
1070
144
1040
1.0
1070
40
1040
1.0
1002
}
  0
DIMENSION
  5
BE
100
AcDbEntity
  8
Cotas
 62
256
370
-1
 48
1.0
  6
BYLAYER
100
AcDbDimension
 10
2248.7517952154007617
 20
617.3193870284940203
 30
0.0
 11
2244.3706320609485374
 21
625.3109318870234574
 31
0.0
 70
132
 71
8
 72
2
 74
0
 41
1.0
 42
0.0
  1
R<>
  3
Standard
100
AcDbRadialDimension
 15
2245.4222824360226696
 25
621.0495806765447924
 35
0.0
 40
0.0
1001
ACAD
1000
DSTYLE
1002
{
1070
279
1070
2
1070
144
1040
1.0
1070
40
1040
1.0
1002
}
  0
DIMENSION
  5
BF
100
AcDbEntity
  8
Cotas
 62
256
370
-1
 48
1.0
  6
BYLAYER
100
AcDbDimension
 10
2228.3904656774016075
 20
642.0151679198010015
 30
0.0
 11
2228.3111639222265694
 21
648.3008131716129583
 31
0.0
 70
4
 71
8
 72
2
 74
0
 41
1.0
 42
0.0
  1
R<>
  3
Standard
100
AcDbRadialDimension
 15
2231.8249878896444898
 25
653.513170232099128
 35
0.0
 40
0.0
1001
ACAD
1000
DSTYLE
1002
{
1070
144
1040
1.0
1070
40
1040
1.0
1002
}
  0
DIMENSION
  5
C0
100
AcDbEntity
  8
Cotas
 62
256
370
-1
 48
1.0
  6
BYLAYER
100
AcDbDimension
 10
2256.7108935423825642
 20
651.7666732538916676
 30
0.0
 11
2259.8644241009869802
 21
657.2045836996369417
 31
0.0
 70
4
 71
8
 72
2
 74
0
 41
1.0
 42
0.0
  1
R<>
  3
Standard
100
AcDbRadialDimension
 15
2265.5531473406917939
 25
659.8792898334106667
 35
0.0
 40
0.0
1001
ACAD
1000
DSTYLE
1002
{
1070
144
1040
1.0
1070
40
1040
1.0
1002
}
  0
DIMENSION
  5
C1
100
AcDbEntity
  8
Cotas
 62
256
370
-1
 48
1.0
  6
BYLAYER
100
AcDbDimension
 10
2274.3892243122145373
 20
661.4882225511613569
 30
0.0
 11
2276.014536334044351
 21
663.5062966515462222
 31
0.0
 70
131
 71
8
 72
2
 74
0
 75
0
 41
1.0
 42
0.0
  1
\U+00f8<>
  3
Standard
100
AcDbDiametricDimension
 15
2268.5379339142382378
 25
660.1606681535764665
 35
0.0
 40
0.0
1001
ACAD
1000
DSTYLE
1002
{
1070
279
1070
2
1070
144
1040
1.0
1070
40
1040
1.0
1002
}
  0
DIMENSION
  5
C2
100
AcDbEntity
  8
Cotas
 62
256
370
-1
 48
1.0
  6
BYLAYER
100
AcDbDimension
 10
2301.936938948302668
 20
640.459681439139672
 30
0.0
 11
2295.4478904975817386
 21
638.860867606358056
 31
0.0
 70
131
 71
8
 72
2
 74
0
 75
0
 41
1.0
 42
0.0
  1
\U+00f8<>
  3
Standard
100
AcDbDiametricDimension
 15
2211.4848481364624604
 25
571.0736650686443454
 35
0.0
 40
0.0
1001
ACAD
1000
DSTYLE
1002
{
1070
279
1070
2
1070
144
1040
1.0
1070
40
1040
1.0
1002
}
  0
DIMENSION
  5
C3
100
AcDbEntity
  8
Cotas
 62
256
370
-1
 48
1.0
  6
BYLAYER
100
AcDbDimension
 10
2362.1255886728195037
 20
653.7756041964501037
 30
0.0
 11
2335.5503121453452877
 21
642.0167648622184515
 31
0.0
 70
4
 71
8
 72
2
 74
0
 41
1.0
 42
0.0
  1
R<>
  3
Standard
100
AcDbRadialDimension
 15
2310.7105052140450425
 25
626.9336744422902257
 35
0.0
 40
0.0
1001
ACAD
1000
DSTYLE
1002
{
1070
144
1040
1.0
1070
40
1040
1.0
1002
}
  0
DIMENSION
  5
C4
100
AcDbEntity
  8
Cotas
 62
256
370
-1
 48
1.0
  6
BYLAYER
100
AcDbDimension
 10
2346.5990213718491759
 20
624.4298403197677771
 30
0.0
 11
2323.9313456840259278
 21
620.1064037339394872
 31
0.0
 70
4
 71
8
 72
2
 74
0
 41
1.0
 42
0.0
  1
R<>
  3
Standard
100
AcDbRadialDimension
 15
2302.2632247044948599
 25
612.1686358980550722
 35
0.0
 40
0.0
1001
ACAD
1000
DSTYLE
1002
{
1070
144
1040
1.0
1070
40
1040
1.0
1002
}
  0
DIMENSION
  5
C5
100
AcDbEntity
  8
Cotas
 62
256
370
-1
 48
1.0
  6
BYLAYER
100
AcDbDimension
 10
2307.2798686850974264
 20
566.5394027266744388
 30
0.0
 11
2305.6403966803418371
 21
570.5155912151085431
 31
0.0
 70
131
 71
8
 72
2
 74
0
 75
0
 41
1.0
 42
0.0
  1
\U+00f8<>
  3
Standard
100
AcDbDiametricDimension
 15
2206.141918399667702
 25
644.9939437811088965
 35
0.0
 40
0.0
1001
ACAD
1000
DSTYLE
1002
{
1070
279
1070
2
1070
144
1040
1.0
1070
40
1040
1.0
1002
}
  0
XLINE
  5
C6
100
AcDbEntity
  8
Referencias
 62
256
370
-1
 48
1.0
  6
BYLAYER
100
AcDbLine
 10
2256.7108935423848379
 20
605.7666732538907581
 30
0.0
 11
0.0
 21
1.0
 31
0.0
  0
DIMENSION
  5
C7
100
AcDbEntity
  8
Cotas
 62
256
370
-1
 48
1.0
  6
BYLAYER
100
AcDbDimension
 10
2272.4988552936365522
 20
664.6881486575251756
 30
0.0
 11
2266.4447087687572093
 21
679.7023402921221304
 31
0.0
 70
2
 71
8
 72
2
 74
0
 75
0
 41
1.0
 42
0.0
  1

  3
Standard
100
AcDb2LineAngularDimension
 13
2256.7108935423848379
 23
669.7666732538916676
 33
0.0
 14
2256.7108935423848379
 24
605.7666732538907581
 34
0.0
 15
2270.4283029328162229
 25
656.9607420472126478
 35
0.0
 16
2269.1219366237546637
 26
677.3980940666325523
 36
0.0
  0
DIMENSION
  5
C8
100
AcDbEntity
  8
Cotas
 62
256
370
-1
 48
1.0
  6
BYLAYER
100
AcDbDimension
 10
2256.7108935423848379
 20
606.7666732538907581
 30
0.0
 11
2232.4320863146767806
 21
676.2774493015928101
 31
0.0
 70
2
 71
8
 72
2
 74
0
 75
0
 41
1.0
 42
0.0
  1

  3
Standard
100
AcDb2LineAngularDimension
 13
2217.3085591215403838
 23
656.1993614847218623
 33
0.0
 14
2256.7108935423825642
 24
605.7666732538916676
 34
0.0
 15
2256.7108935423848379
 25
669.7666732538916676
 35
0.0
 16
2256.7108935423848379
 26
678.4653282484622423
 36
0.0
  0
DIMENSION
  5
C9
100
AcDbEntity
  8
Cotas
 62
256
370
-1
 48
1.0
  6
BYLAYER
100
AcDbDimension
 10
2193.3337371429220184
 20
614.6737517153358112
 30
0.0
 11
2192.1282138640290214
 21
643.0535007511765571
 31
0.0
 70
2
 71
8
 72
2
 74
0
 75
0
 41
1.0
 42
0.0
  1

  3
Standard
100
AcDb2LineAngularDimension
 13
2216.9237706994617838
 23
656.6918682057261094
 33
0.0
 14
2256.7108935423825642
 24
605.7666732538916676
 34
0.0
 15
2256.7108935423825642
 25
605.7666732538916676
 35
0.0
 16
2211.9531323542346399
 26
663.0539951623576371
 36
0.0
  0
ENDSEC
  0
SECTION
  2
OBJECTS
  0
DICTIONARY
  5
C
100
AcDbDictionary
280
0
281
1
  3
ACAD_GROUP
350
D
  3
ACAD_LAYOUT
350
1A
  3
ACAD_MLINESTYLE
350
17
  3
ACAD_PLOTSETTINGS
350
19
  3
ACAD_PLOTSTYLENAME
350
E
  3
AcDbVariableDictionary
350
CA
  3
QCAD_OBJECTS
350
CB
  0
DICTIONARY
  5
D
100
AcDbDictionary
280
0
281
1
  0
ACDBDICTIONARYWDFLT
  5
E
100
AcDbDictionary
281
1
  3
Normal
350
F
100
AcDbDictionaryWithDefault
340
F
  0
ACDBPLACEHOLDER
  5
F
  0
DICTIONARY
  5
17
100
AcDbDictionary
280
0
281
1
  3
Standard
350
18
  0
MLINESTYLE
  5
18
100
AcDbMlineStyle
  2
STANDARD
 70
0
  3

 62
256
 51
90.0
 52
90.0
 71
2
 49
0.5
 62
256
  6
BYLAYER
 49
-0.5
 62
256
  6
BYLAYER
  0
DICTIONARY
  5
19
100
AcDbDictionary
280
0
281
1
  0
DICTIONARY
  5
1A
100
AcDbDictionary
281
1
  3
Layout1
350
1E
  3
Layout2
350
26
  3
Model
350
22
  0
LAYOUT
  5
1E
100
AcDbPlotSettings
  1

  2
none_device
  4

  6

 40
0.0
 41
0.0
 42
0.0
 43
0.0
 44
0.0
 45
0.0
 46
0.0
 47
0.0
 48
0.0
 49
0.0
140
0.0
141
0.0
142
1.0
143
1.0
 70
688
 72
0
 73
0
 74
5
  7

 75
16
147
1.0
148
0.0
149
0.0
100
AcDbLayout
  1
Layout1
 70
1
 71
1
 10
0.0
 20
0.0
 11
420.0
 21
297.0
 12
0.0
 22
0.0
 32
0.0
 14
100000000000000000000.0
 24
100000000000000000000.0
 34
100000000000000000000.0
 15
-100000000000000000000.0
 25
-100000000000000000000.0
 35
-100000000000000000000.0
146
0.0
 13
0.0
 23
0.0
 33
0.0
 16
1.0
 26
0.0
 36
0.0
 17
0.0
 27
1.0
 37
0.0
 76
0
330
1B
  0
LAYOUT
  5
22
100
AcDbPlotSettings
  1

  2
none_device
  4

  6

 40
0.0
 41
0.0
 42
0.0
 43
0.0
 44
0.0
 45
0.0
 46
0.0
 47
0.0
 48
0.0
 49
0.0
140
0.0
141
0.0
142
1.0
143
1.0
 70
1712
 72
0
 73
0
 74
0
  7

 75
0
147
1.0
148
0.0
149
0.0
100
AcDbLayout
  1
Model
 70
1
 71
0
 10
0.0
 20
0.0
 11
12.0
 21
9.0
 12
0.0
 22
0.0
 32
0.0
 14
0.0
 24
0.0
 34
0.0
 15
0.0
 25
0.0
 35
0.0
146
0.0
 13
0.0
 23
0.0
 33
0.0
 16
1.0
 26
0.0
 36
0.0
 17
0.0
 27
1.0
 37
0.0
 76
0
330
1F
  0
LAYOUT
  5
26
100
AcDbPlotSettings
  1

  2
none_device
  4

  6

 40
0.0
 41
0.0
 42
0.0
 43
0.0
 44
0.0
 45
0.0
 46
0.0
 47
0.0
 48
0.0
 49
0.0
140
0.0
141
0.0
142
1.0
143
1.0
 70
688
 72
0
 73
0
 74
5
  7

 75
16
147
1.0
148
0.0
149
0.0
100
AcDbLayout
  1
Layout2
 70
1
 71
2
 10
0.0
 20
0.0
 11
12.0
 21
9.0
 12
0.0
 22
0.0
 32
0.0
 14
0.0
 24
0.0
 34
0.0
 15
0.0
 25
0.0
 35
0.0
146
0.0
 13
0.0
 23
0.0
 33
0.0
 16
1.0
 26
0.0
 36
0.0
 17
0.0
 27
1.0
 37
0.0
 76
0
330
23
  0
DICTIONARY
  5
CA
100
AcDbDictionary
281
1
  3
DIMASSOC
350
CD
  3
HIDETEXT
350
CC
  0
DICTIONARYVAR
  5
CC
100
DictionaryVariables
280
0
  1
2
  0
DICTIONARYVAR
  5
CD
100
DictionaryVariables
280
0
  1
1
  0
DICTIONARY
  5
CB
100
AcDbDictionary
281
1
  3
ColorSettings/BackgroundColor
350
CE
  3
ColorSettings/ColorMode
350
CF
  3
Grid/DisplayGrid00
350
D0
  3
Grid/DisplayGrid01
350
D1
  3
Grid/DisplayGrid02
350
D2
  3
Grid/DisplayGrid03
350
D3
  3
Grid/GridSpacingX00
350
D4
  3
Grid/GridSpacingX01
350
D5
  3
Grid/GridSpacingX02
350
D6
  3
Grid/GridSpacingX03
350
D7
  3
Grid/GridSpacingY00
350
D8
  3
Grid/GridSpacingY01
350
D9
  3
Grid/GridSpacingY02
350
DA
  3
Grid/GridSpacingY03
350
DB
  3
Grid/IsometricGrid00
350
DC
  3
Grid/IsometricGrid01
350
DD
  3
Grid/IsometricGrid02
350
DE
  3
Grid/IsometricGrid03
350
DF
  3
Grid/IsometricProjection00
350
E0
  3
Grid/IsometricProjection01
350
E1
  3
Grid/IsometricProjection02
350
E2
  3
Grid/IsometricProjection03
350
E3
  3
Grid/MetaGridSpacingX00
350
E4
  3
Grid/MetaGridSpacingX01
350
E5
  3
Grid/MetaGridSpacingX02
350
E6
  3
Grid/MetaGridSpacingX03
350
E7
  3
Grid/MetaGridSpacingY00
350
E8
  3
Grid/MetaGridSpacingY01
350
E9
  3
Grid/MetaGridSpacingY02
350
EA
  3
Grid/MetaGridSpacingY03
350
EB
  3
MultiPageSettings/Columns
350
EC
  3
MultiPageSettings/GlueMarginsBottom
350
ED
  3
MultiPageSettings/GlueMarginsLeft
350
EE
  3
MultiPageSettings/GlueMarginsRight
350
EF
  3
MultiPageSettings/GlueMarginsTop
350
F0
  3
MultiPageSettings/PrintCropMarks
350
F1
  3
MultiPageSettings/Rows
350
F2
  3
PageSettings/OffsetX
350
F3
  3
PageSettings/OffsetY
350
F4
  3
PageSettings/PageOrientation
350
F5
  3
PageSettings/PaperHeight
350
F6
  3
PageSettings/PaperWidth
350
F7
  3
PageSettings/Scale
350
F8
  3
PageSettings/ShowPaperBorders
350
F9
  3
PageTagSettings/EnablePageTags
350
FA
  3
PageTagSettings/TagAlignment
350
FB
  3
PageTagSettings/TagFont
350
FC
  3
PageTagSettings/TagPosition
350
FD
  3
QCADVersion
350
FE
  3
UnitSettings/PaperUnit
350
FF
  3
ViewportCenter
350
100
  3
ViewportHeight
350
101
  3
ViewportWidth
350
102
  0
XRECORD
  5
CE
330
CB
100
AcDbXrecord
280
1
1000
Blanca
  0
XRECORD
  5
CF
330
CB
100
AcDbXrecord
280
1
1000
FullColor
  0
XRECORD
  5
D0
330
CB
100
AcDbXrecord
280
1
290
0
  0
XRECORD
  5
D1
330
CB
100
AcDbXrecord
280
1
290
1
  0
XRECORD
  5
D2
330
CB
100
AcDbXrecord
280
1
290
1
  0
XRECORD
  5
D3
330
CB
100
AcDbXrecord
280
1
290
1
  0
XRECORD
  5
D4
330
CB
100
AcDbXrecord
280
1
1000
auto
  0
XRECORD
  5
D5
330
CB
100
AcDbXrecord
280
1
1000
auto
  0
XRECORD
  5
D6
330
CB
100
AcDbXrecord
280
1
1000
auto
  0
XRECORD
  5
D7
330
CB
100
AcDbXrecord
280
1
1000
auto
  0
XRECORD
  5
D8
330
CB
100
AcDbXrecord
280
1
1000
auto
  0
XRECORD
  5
D9
330
CB
100
AcDbXrecord
280
1
1000
auto
  0
XRECORD
  5
DA
330
CB
100
AcDbXrecord
280
1
1000
auto
  0
XRECORD
  5
DB
330
CB
100
AcDbXrecord
280
1
1000
auto
  0
XRECORD
  5
DC
330
CB
100
AcDbXrecord
280
1
290
0
  0
XRECORD
  5
DD
330
CB
100
AcDbXrecord
280
1
290
0
  0
XRECORD
  5
DE
330
CB
100
AcDbXrecord
280
1
290
0
  0
XRECORD
  5
DF
330
CB
100
AcDbXrecord
280
1
290
0
  0
XRECORD
  5
E0
330
CB
100
AcDbXrecord
280
1
 90
65537
  0
XRECORD
  5
E1
330
CB
100
AcDbXrecord
280
1
 90
65537
  0
XRECORD
  5
E2
330
CB
100
AcDbXrecord
280
1
 90
65537
  0
XRECORD
  5
E3
330
CB
100
AcDbXrecord
280
1
 90
65537
  0
XRECORD
  5
E4
330
CB
100
AcDbXrecord
280
1
1000
auto
  0
XRECORD
  5
E5
330
CB
100
AcDbXrecord
280
1
1000
auto
  0
XRECORD
  5
E6
330
CB
100
AcDbXrecord
280
1
1000
auto
  0
XRECORD
  5
E7
330
CB
100
AcDbXrecord
280
1
1000
auto
  0
XRECORD
  5
E8
330
CB
100
AcDbXrecord
280
1
1000
1
  0
XRECORD
  5
E9
330
CB
100
AcDbXrecord
280
1
1000
auto
  0
XRECORD
  5
EA
330
CB
100
AcDbXrecord
280
1
1000
auto
  0
XRECORD
  5
EB
330
CB
100
AcDbXrecord
280
1
1000
auto
  0
XRECORD
  5
EC
330
CB
100
AcDbXrecord
280
1
 90
1
  0
XRECORD
  5
ED
330
CB
100
AcDbXrecord
280
1
 40
10.0
  0
XRECORD
  5
EE
330
CB
100
AcDbXrecord
280
1
 40
10.0
  0
XRECORD
  5
EF
330
CB
100
AcDbXrecord
280
1
 40
10.0
  0
XRECORD
  5
F0
330
CB
100
AcDbXrecord
280
1
 40
10.0
  0
XRECORD
  5
F1
330
CB
100
AcDbXrecord
280
1
290
0
  0
XRECORD
  5
F2
330
CB
100
AcDbXrecord
280
1
 90
1
  0
XRECORD
  5
F3
330
CB
100
AcDbXrecord
280
1
 40
793.1665914866936191
  0
XRECORD
  5
F4
330
CB
100
AcDbXrecord
280
1
 40
306.6308471493692309
  0
XRECORD
  5
F5
330
CB
100
AcDbXrecord
280
1
1000
Portrait
  0
XRECORD
  5
F6
330
CB
100
AcDbXrecord
280
1
 40
279.3999999999999773
  0
XRECORD
  5
F7
330
CB
100
AcDbXrecord
280
1
 40
215.9000000000000057
  0
XRECORD
  5
F8
330
CB
100
AcDbXrecord
280
1
 90
1
  0
XRECORD
  5
F9
330
CB
100
AcDbXrecord
280
1
290
1
  0
XRECORD
  5
FA
330
CB
100
AcDbXrecord
280
1
290
0
  0
XRECORD
  5
FB
330
CB
100
AcDbXrecord
280
1
1000
Inside
  0
XRECORD
  5
FC
330
CB
100
AcDbXrecord
280
1
1000
Arial,10,-1,5,50,0,0,0,0,0
  0
XRECORD
  5
FD
330
CB
100
AcDbXrecord
280
1
1000
TopLeft
  0
XRECORD
  5
FE
330
CB
100
AcDbXrecord
280
1
1000
3.28.1
  0
XRECORD
  5
FF
330
CB
100
AcDbXrecord
280
1
 90
4
  0
XRECORD
  5
101
330
CB
100
AcDbXrecord
280
1
 40
214.7264453479309623
  0
XRECORD
  5
102
330
CB
100
AcDbXrecord
280
1
 40
398.33946698218233
  0
IMAGEDEF
  5
60
100
AcDbRasterImageDef
 90
0
  1
C:/Users/iamth/Documents/Estudio aut\U+00f3nomo/CAD/QCad/1. StudyCadCam/2D CAD EXERCISES 50b.png
 10
200.0
 20
141.0
 11
1.0
 21
1.0
280
1
281
0
  0
ENDSEC
  0
EOF
