999
dxflib 3.26.4.0
  0
SECTION
  2
HEADER
  9
$ACADVER
  1
AC1015
  9
$HANDSEED
  5
FFFF
  9
$DIMADEC
 70
0
  9
$DIMASZ
 40
2.5
  9
$DIMATFIT
 70
0
  9
$DIMAUNIT
 70
0
  9
$DIMAZIN
 70
2
  9
$DIMBLK
  1
0
  9
$DIMBLK1
  1
0
  9
$DIMBLK2
  1
0
  9
$DIMDEC
 70
4
  9
$DIMDLI
 40
5.0
  9
$DIMDSEP
 70
46
  9
$DIMEXE
 40
1.25
  9
$DIMEXO
 40
0.625
  9
$DIMGAP
 40
0.625
  9
$DIMLFAC
 40
1.0
  9
$DIMLUNIT
 70
2
  9
$DIMSCALE
 40
1.0
  9
$DIMTAD
 70
1
  9
$DIMTIH
 70
0
  9
$DIMTSZ
 40
0.0
  9
$DIMTXT
 40
2.5
  9
$DIMZIN
 70
8
  9
$DWGCODEPAGE
  3
ANSI_1252
  9
$INSUNITS
 70
4
  9
$LTSCALE
 40
1.0
  9
$MAXACTVP
 70
64
  9
$MEASUREMENT
 70
1
  9
$MIRRTEXT
 70
0
  9
$PDMODE
 70
0
  9
$PDSIZE
 40
0.0
  0
ENDSEC
  0
SECTION
  2
TABLES
  0
TABLE
  2
VPORT
  5
8
100
AcDbSymbolTable
 70
1
  0
VPORT
  5
30
100
AcDbSymbolTableRecord
100
AcDbViewportTableRecord
  2
*Active
 70
0
 10
0.0
 20
0.0
 11
1.0
 21
1.0
 12
286.3055555555554861
 22
148.5
 13
0.0
 23
0.0
 14
10.0
 24
10.0
 15
10.0
 25
10.0
 16
0.0
 26
0.0
 36
1.0
 17
0.0
 27
0.0
 37
0.0
 40
297.0
 41
1.92798353909465
 42
50.0
 43
0.0
 44
0.0
 50
0.0
 51
0.0
 71
0
 72
100
 73
1
 74
3
 75
1
 76
1
 77
0
 78
0
281
0
 65
1
110
0.0
120
0.0
130
0.0
111
1.0
121
0.0
131
0.0
112
0.0
122
1.0
132
0.0
 79
0
146
0.0
  0
ENDTAB
  0
TABLE
  2
LTYPE
  5
5
100
AcDbSymbolTable
 70
41
  0
LTYPE
  5
16
100
AcDbSymbolTableRecord
100
AcDbLinetypeTableRecord
  2
Continuous
 70
0
  3
Solid line
 72
65
 73
0
 40
0.0
  0
LTYPE
  5
31
100
AcDbSymbolTableRecord
100
AcDbLinetypeTableRecord
  2
DASHED2
 70
0
  3
Dashed (.5x) _ _ _ _ _ _ _ _ _ _ _ _ _ _ _ _ _ 
 72
65
 73
2
 40
9.5249999999999986
 49
6.3499999999999996
 74
0
 49
-3.1749999999999998
 74
0
  0
LTYPE
  5
32
100
AcDbSymbolTableRecord
100
AcDbLinetypeTableRecord
  2
HIDDEN
 70
0
  3
Hidden __ __ __ __ __ __ __ __ __ __ __ __ __ __
 72
65
 73
2
 40
9.5249999999999986
 49
6.3499999999999996
 74
0
 49
-3.1749999999999998
 74
0
  0
LTYPE
  5
33
100
AcDbSymbolTableRecord
100
AcDbLinetypeTableRecord
  2
DOTX2
 70
0
  3
Dot (2x) .  .  .  .  .  .  .  .  .  .  .  .  .  .
 72
65
 73
2
 40
12.6999999999999993
 49
0.1
 74
0
 49
-12.5999999999999996
 74
0
  0
LTYPE
  5
34
100
AcDbSymbolTableRecord
100
AcDbLinetypeTableRecord
  2
PHANTOMX2
 70
0
  3
Phantom (2x) ____________    ____    ____   _
 72
65
 73
6
 40
127.0000000000000142
 49
63.5
 74
0
 49
-12.6999999999999993
 74
0
 49
12.6999999999999993
 74
0
 49
-12.6999999999999993
 74
0
 49
12.6999999999999993
 74
0
 49
-12.6999999999999993
 74
0
  0
LTYPE
  5
35
100
AcDbSymbolTableRecord
100
AcDbLinetypeTableRecord
  2
CENTER
 70
0
  3
Center ____ _ ____ _ ____ _ ____ _ ____ _ ____
 72
65
 73
4
 40
50.8000000000000043
 49
31.75
 74
0
 49
-6.3499999999999996
 74
0
 49
6.3499999999999996
 74
0
 49
-6.3499999999999996
 74
0
  0
LTYPE
  5
36
100
AcDbSymbolTableRecord
100
AcDbLinetypeTableRecord
  2
HIDDEN2
 70
0
  3
Hidden (.5x) _ _ _ _ _ _ _ _ _ _ _ _ _ _ _ _ _ 
 72
65
 73
2
 40
4.7624999999999993
 49
3.1749999999999998
 74
0
 49
-1.5874999999999999
 74
0
  0
LTYPE
  5
37
100
AcDbSymbolTableRecord
100
AcDbLinetypeTableRecord
  2
DIVIDEX2
 70
0
  3
Divide (2x) ________  .  .  ________  .  .  _
 72
65
 73
6
 40
63.5
 49
25.3999999999999986
 74
0
 49
-12.6499999999999986
 74
0
 49
0.1
 74
0
 49
-12.5999999999999979
 74
0
 49
0.1
 74
0
 49
-12.6499999999999986
 74
0
  0
LTYPE
  5
38
100
AcDbSymbolTableRecord
100
AcDbLinetypeTableRecord
  2
ACAD_ISO05W100
 70
0
  3
ISO long-dash double-dot ____ .. ____ .. ____ . 
 72
65
 73
6
 40
33.0000000000000071
 49
24.0
 74
0
 49
-2.9500000000000002
 74
0
 49
0.1
 74
0
 49
-2.9000000000000004
 74
0
 49
0.1
 74
0
 49
-2.9500000000000002
 74
0
  0
LTYPE
  5
39
100
AcDbSymbolTableRecord
100
AcDbLinetypeTableRecord
  2
DIVIDE
 70
0
  3
Divide ____ . . ____ . . ____ . . ____ . . ____
 72
65
 73
6
 40
31.7500000000000036
 49
12.6999999999999993
 74
0
 49
-6.2999999999999998
 74
0
 49
0.1
 74
0
 49
-6.25
 74
0
 49
0.1
 74
0
 49
-6.2999999999999998
 74
0
  0
LTYPE
  5
3A
100
AcDbSymbolTableRecord
100
AcDbLinetypeTableRecord
  2
DASHED
 70
0
  3
Dashed __ __ __ __ __ __ __ __ __ __ __ __ __ _
 72
65
 73
2
 40
19.0499999999999972
 49
12.6999999999999993
 74
0
 49
-6.3499999999999996
 74
0
  0
LTYPE
  5
3B
100
AcDbSymbolTableRecord
100
AcDbLinetypeTableRecord
  2
ACAD_ISO06W100
 70
0
  3
ISO long-dash triple-dot ____ ... ____ ... ____
 72
65
 73
8
 40
36.0000000000000071
 49
24.0
 74
0
 49
-2.9500000000000002
 74
0
 49
0.1
 74
0
 49
-2.9000000000000004
 74
0
 49
0.1
 74
0
 49
-2.9000000000000004
 74
0
 49
0.1
 74
0
 49
-2.9500000000000002
 74
0
  0
LTYPE
  5
3C
100
AcDbSymbolTableRecord
100
AcDbLinetypeTableRecord
  2
ACAD_ISO08W100
 70
0
  3
ISO long-dash short-dash ____ __ ____ __ ____ _
 72
65
 73
4
 40
36.0
 49
24.0
 74
0
 49
-3.0
 74
0
 49
6.0
 74
0
 49
-3.0
 74
0
  0
LTYPE
  5
14
100
AcDbSymbolTableRecord
100
AcDbLinetypeTableRecord
  2
BYBLOCK
 70
0
  3

 72
65
 73
0
 40
0.0
  0
LTYPE
  5
3D
100
AcDbSymbolTableRecord
100
AcDbLinetypeTableRecord
  2
BORDER2
 70
0
  3
Border (.5x) __.__.__.__.__.__.__.__.__.__.__.
 72
65
 73
6
 40
22.2250000000000014
 49
6.3499999999999996
 74
0
 49
-3.1749999999999998
 74
0
 49
6.3499999999999996
 74
0
 49
-3.125
 74
0
 49
0.1
 74
0
 49
-3.125
 74
0
  0
LTYPE
  5
3E
100
AcDbSymbolTableRecord
100
AcDbLinetypeTableRecord
  2
BORDERX2
 70
0
  3
Border (2x) ____  ____  .  ____  ____  .  ___
 72
65
 73
6
 40
88.8999999999999773
 49
25.3999999999999986
 74
0
 49
-12.6999999999999993
 74
0
 49
25.3999999999999986
 74
0
 49
-12.6499999999999986
 74
0
 49
0.1
 74
0
 49
-12.6499999999999986
 74
0
  0
LTYPE
  5
3F
100
AcDbSymbolTableRecord
100
AcDbLinetypeTableRecord
  2
DASHEDX2
 70
0
  3
Dashed (2x) ____  ____  ____  ____  ____  ___
 72
65
 73
2
 40
38.0999999999999943
 49
25.3999999999999986
 74
0
 49
-12.6999999999999993
 74
0
  0
LTYPE
  5
40
100
AcDbSymbolTableRecord
100
AcDbLinetypeTableRecord
  2
ACAD_ISO13W100
 70
0
  3
ISO double-dash double-dot __ __ . . __ __ . . _
 72
65
 73
8
 40
36.0000000000000071
 49
12.0
 74
0
 49
-3.0
 74
0
 49
12.0
 74
0
 49
-2.9500000000000002
 74
0
 49
0.1
 74
0
 49
-2.9000000000000004
 74
0
 49
0.1
 74
0
 49
-2.9500000000000002
 74
0
  0
LTYPE
  5
41
100
AcDbSymbolTableRecord
100
AcDbLinetypeTableRecord
  2
ACAD_ISO15W100
 70
0
  3
ISO double-dash triple-dot __ __ . . . __ __ . .
 72
65
 73
10
 40
39.0000000000000071
 49
12.0
 74
0
 49
-3.0
 74
0
 49
12.0
 74
0
 49
-2.9500000000000002
 74
0
 49
0.1
 74
0
 49
-2.9000000000000004
 74
0
 49
0.1
 74
0
 49
-2.9000000000000004
 74
0
 49
0.1
 74
0
 49
-2.9500000000000002
 74
0
  0
LTYPE
  5
42
100
AcDbSymbolTableRecord
100
AcDbLinetypeTableRecord
  2
DASHDOTX2
 70
0
  3
Dash dot (2x) ____  .  ____  .  ____  .  ___
 72
65
 73
4
 40
50.7999999999999972
 49
25.3999999999999986
 74
0
 49
-12.6499999999999986
 74
0
 49
0.1
 74
0
 49
-12.6499999999999986
 74
0
  0
LTYPE
  5
43
100
AcDbSymbolTableRecord
100
AcDbLinetypeTableRecord
  2
PHANTOM
 70
0
  3
Phantom ______  __  __  ______  __  __  ______ 
 72
65
 73
6
 40
63.5000000000000071
 49
31.75
 74
0
 49
-6.3499999999999996
 74
0
 49
6.3499999999999996
 74
0
 49
-6.3499999999999996
 74
0
 49
6.3499999999999996
 74
0
 49
-6.3499999999999996
 74
0
  0
LTYPE
  5
44
100
AcDbSymbolTableRecord
100
AcDbLinetypeTableRecord
  2
DOT2
 70
0
  3
Dot (.5x) ........................................
 72
65
 73
2
 40
3.1749999999999998
 49
0.1
 74
0
 49
-3.0749999999999997
 74
0
  0
LTYPE
  5
45
100
AcDbSymbolTableRecord
100
AcDbLinetypeTableRecord
  2
ACAD_ISO04W100
 70
0
  3
ISO long-dash dot ____ . ____ . ____ . ____ . _
 72
65
 73
4
 40
30.0
 49
24.0
 74
0
 49
-2.9500000000000002
 74
0
 49
0.1
 74
0
 49
-2.9500000000000002
 74
0
  0
LTYPE
  5
46
100
AcDbSymbolTableRecord
100
AcDbLinetypeTableRecord
  2
BORDER
 70
0
  3
Border __ __ . __ __ . __ __ . __ __ . __ __ .
 72
65
 73
6
 40
44.4499999999999957
 49
12.6999999999999993
 74
0
 49
-6.3499999999999996
 74
0
 49
12.6999999999999993
 74
0
 49
-6.2999999999999998
 74
0
 49
0.1
 74
0
 49
-6.2999999999999998
 74
0
  0
LTYPE
  5
47
100
AcDbSymbolTableRecord
100
AcDbLinetypeTableRecord
  2
CENTER2
 70
0
  3
Center (.5x) ___ _ ___ _ ___ _ ___ _ ___ _ ___
 72
65
 73
4
 40
28.5750000000000028
 49
19.0500000000000007
 74
0
 49
-3.1749999999999998
 74
0
 49
3.1749999999999998
 74
0
 49
-3.1749999999999998
 74
0
  0
LTYPE
  5
48
100
AcDbSymbolTableRecord
100
AcDbLinetypeTableRecord
  2
ACAD_ISO14W100
 70
0
  3
ISO dash triple-dot __ . . . __ . . . __ . . . _
 72
65
 73
8
 40
24.0000000000000036
 49
12.0
 74
0
 49
-2.9500000000000002
 74
0
 49
0.1
 74
0
 49
-2.9000000000000004
 74
0
 49
0.1
 74
0
 49
-2.9000000000000004
 74
0
 49
0.1
 74
0
 49
-2.9500000000000002
 74
0
  0
LTYPE
  5
49
100
AcDbSymbolTableRecord
100
AcDbLinetypeTableRecord
  2
PHANTOM2
 70
0
  3
Phantom (.5x) ___ _ _ ___ _ _ ___ _ _ ___ _ _
 72
65
 73
6
 40
31.7500000000000036
 49
15.875
 74
0
 49
-3.1749999999999998
 74
0
 49
3.1749999999999998
 74
0
 49
-3.1749999999999998
 74
0
 49
3.1749999999999998
 74
0
 49
-3.1749999999999998
 74
0
  0
LTYPE
  5
4A
100
AcDbSymbolTableRecord
100
AcDbLinetypeTableRecord
  2
ACAD_ISO07W100
 70
0
  3
ISO dot . . . . . . . . . . . . . . . . . . . . 
 72
65
 73
2
 40
3.0
 49
0.1
 74
0
 49
-2.8999999999999999
 74
0
  0
LTYPE
  5
4B
100
AcDbSymbolTableRecord
100
AcDbLinetypeTableRecord
  2
ACAD_ISO03W100
 70
0
  3
ISO dash space __    __    __    __    __    __
 72
65
 73
2
 40
30.0
 49
12.0
 74
0
 49
-18.0
 74
0
  0
LTYPE
  5
4C
100
AcDbSymbolTableRecord
100
AcDbLinetypeTableRecord
  2
ACAD_ISO02W100
 70
0
  3
ISO dash __ __ __ __ __ __ __ __ __ __ __ __ __
 72
65
 73
2
 40
15.0
 49
12.0
 74
0
 49
-3.0
 74
0
  0
LTYPE
  5
4D
100
AcDbSymbolTableRecord
100
AcDbLinetypeTableRecord
  2
HIDDENX2
 70
0
  3
Hidden (2x) ____ ____ ____ ____ ____ ____ ____ 
 72
65
 73
2
 40
19.0499999999999972
 49
12.6999999999999993
 74
0
 49
-6.3499999999999996
 74
0
  0
LTYPE
  5
4E
100
AcDbSymbolTableRecord
100
AcDbLinetypeTableRecord
  2
DASHDOT2
 70
0
  3
Dash dot (.5x) _._._._._._._._._._._._._._._.
 72
65
 73
4
 40
12.6999999999999993
 49
6.3499999999999996
 74
0
 49
-3.125
 74
0
 49
0.1
 74
0
 49
-3.125
 74
0
  0
LTYPE
  5
15
100
AcDbSymbolTableRecord
100
AcDbLinetypeTableRecord
  2
BYLAYER
 70
0
  3

 72
65
 73
0
 40
0.0
  0
LTYPE
  5
4F
100
AcDbSymbolTableRecord
100
AcDbLinetypeTableRecord
  2
ACAD_ISO12W100
 70
0
  3
ISO dash double-dot __ . . __ . . __ . . __ . . 
 72
65
 73
6
 40
21.0
 49
12.0
 74
0
 49
-2.9500000000000002
 74
0
 49
0.1
 74
0
 49
-2.9000000000000004
 74
0
 49
0.1
 74
0
 49
-2.9500000000000002
 74
0
  0
LTYPE
  5
50
100
AcDbSymbolTableRecord
100
AcDbLinetypeTableRecord
  2
DIVIDE2
 70
0
  3
Divide (.5x) __..__..__..__..__..__..__..__.._
 72
65
 73
6
 40
15.8749999999999982
 49
6.3499999999999996
 74
0
 49
-3.125
 74
0
 49
0.1
 74
0
 49
-3.0750000000000002
 74
0
 49
0.1
 74
0
 49
-3.125
 74
0
  0
LTYPE
  5
51
100
AcDbSymbolTableRecord
100
AcDbLinetypeTableRecord
  2
ACAD_ISO09W100
 70
0
  3
ISO long-dash double-short-dash ____ __ __ ____
 72
65
 73
6
 40
45.0
 49
24.0
 74
0
 49
-3.0
 74
0
 49
6.0
 74
0
 49
-3.0
 74
0
 49
6.0
 74
0
 49
-3.0
 74
0
  0
LTYPE
  5
52
100
AcDbSymbolTableRecord
100
AcDbLinetypeTableRecord
  2
DASHDOT
 70
0
  3
Dash dot __ . __ . __ . __ . __ . __ . __ . __
 72
65
 73
4
 40
25.4000000000000021
 49
12.6999999999999993
 74
0
 49
-6.2999999999999998
 74
0
 49
0.1
 74
0
 49
-6.2999999999999998
 74
0
  0
LTYPE
  5
53
100
AcDbSymbolTableRecord
100
AcDbLinetypeTableRecord
  2
DOT
 70
0
  3
Dot . . . . . . . . . . . . . . . . . . . . . . . .
 72
65
 73
2
 40
6.3499999999999996
 49
0.1
 74
0
 49
-6.25
 74
0
  0
LTYPE
  5
54
100
AcDbSymbolTableRecord
100
AcDbLinetypeTableRecord
  2
CENTERX2
 70
0
  3
Center (2x) ________  __  ________  __  _____
 72
65
 73
4
 40
101.6000000000000085
 49
63.5
 74
0
 49
-12.6999999999999993
 74
0
 49
12.6999999999999993
 74
0
 49
-12.6999999999999993
 74
0
  0
LTYPE
  5
55
100
AcDbSymbolTableRecord
100
AcDbLinetypeTableRecord
  2
ACAD_ISO10W100
 70
0
  3
ISO dash dot __ . __ . __ . __ . __ . __ . __ . 
 72
65
 73
4
 40
18.0
 49
12.0
 74
0
 49
-2.9500000000000002
 74
0
 49
0.1
 74
0
 49
-2.9500000000000002
 74
0
  0
LTYPE
  5
56
100
AcDbSymbolTableRecord
100
AcDbLinetypeTableRecord
  2
ACAD_ISO11W100
 70
0
  3
ISO double-dash dot __ __ . __ __ . __ __ . __ _
 72
65
 73
6
 40
33.0
 49
12.0
 74
0
 49
-3.0
 74
0
 49
12.0
 74
0
 49
-2.9500000000000002
 74
0
 49
0.1
 74
0
 49
-2.9500000000000002
 74
0
  0
ENDTAB
  0
TABLE
  2
LAYER
  5
2
100
AcDbSymbolTable
 70
7
  0
LAYER
  5
57
100
AcDbSymbolTableRecord
100
AcDbLayerTableRecord
  2
Referencias
 70
0
 62
2
420
16776960
  6
Continuous
370
25
390
F
  0
LAYER
  5
58
100
AcDbSymbolTableRecord
100
AcDbLayerTableRecord
  2
Contornos Ocultos
 70
0
 62
252
420
10526884
  6
ACAD_ISO02W100
370
30
390
F
  0
LAYER
  5
10
100
AcDbSymbolTableRecord
100
AcDbLayerTableRecord
  2
0
 70
0
 62
7
420
16777215
  6
Continuous
370
25
390
F
  0
LAYER
  5
59
100
AcDbSymbolTableRecord
100
AcDbLayerTableRecord
  2
Contornos Visibles
 70
0
 62
7
420
16777215
  6
Continuous
370
50
390
F
  0
LAYER
  5
5A
100
AcDbSymbolTableRecord
100
AcDbLayerTableRecord
  2
Referencias 2
 70
0
 62
3
420
65280
  6
Continuous
370
25
390
F
  0
LAYER
  5
5B
100
AcDbSymbolTableRecord
100
AcDbLayerTableRecord
  2
Ejes de revoluci\U+00f3n
 70
0
 62
6
420
16711935
  6
ACAD_ISO04W100
370
20
390
F
  0
LAYER
  5
5C
100
AcDbSymbolTableRecord
100
AcDbLayerTableRecord
  2
Cotas
 70
0
 62
1
420
16711680
  6
Continuous
370
20
390
F
  0
ENDTAB
  0
TABLE
  2
STYLE
  5
3
100
AcDbSymbolTable
 70
1
  0
STYLE
  5
5D
100
AcDbSymbolTableRecord
100
AcDbTextStyleTableRecord
  2
Standard
 70
0
 40
0.0
 41
1.0
 50
0.0
 71
0
 42
2.5
  3

  4

1001
ACAD
1000
txt
1071
0
  0
ENDTAB
  0
TABLE
  2
VIEW
  5
6
100
AcDbSymbolTable
 70
0
  0
ENDTAB
  0
TABLE
  2
UCS
  5
7
100
AcDbSymbolTable
 70
0
  0
ENDTAB
  0
TABLE
  2
APPID
  5
9
100
AcDbSymbolTable
 70
1
  0
APPID
  5
12
100
AcDbSymbolTableRecord
100
AcDbRegAppTableRecord
  2
ACAD
 70
0
  0
APPID
  5
5E
100
AcDbSymbolTableRecord
100
AcDbRegAppTableRecord
  2
QCAD
 70
0
  0
ENDTAB
  0
TABLE
  2
DIMSTYLE
  5
A
100
AcDbSymbolTable
 70
1
100
AcDbDimStyleTable
 71
0
  0
DIMSTYLE
105
27
100
AcDbSymbolTableRecord
100
AcDbDimStyleTableRecord
  2
Standard
 41
2.5
 42
0.625
 43
3.75
 44
1.25
 70
0
 73
0
 74
0
 77
1
 78
8
140
2.5
141
2.5
143
0.03937007874016
147
0.625
171
3
172
1
271
2
272
2
274
3
278
44
283
0
284
8
340
5D
  0
ENDTAB
  0
TABLE
  2
BLOCK_RECORD
  5
1
100
AcDbSymbolTable
 70
1
  0
BLOCK_RECORD
  5
1F
100
AcDbSymbolTableRecord
100
AcDbBlockTableRecord
  2
*Model_Space
340
22
  0
BLOCK_RECORD
  5
1B
100
AcDbSymbolTableRecord
100
AcDbBlockTableRecord
  2
*Paper_Space
340
1E
  0
BLOCK_RECORD
  5
23
100
AcDbSymbolTableRecord
100
AcDbBlockTableRecord
  2
*Paper_Space0
340
26
  0
ENDTAB
  0
ENDSEC
  0
SECTION
  2
BLOCKS
  0
BLOCK
  5
20
100
AcDbEntity
  8
0
100
AcDbBlockBegin
  2
*Model_Space
 70
0
 10
0.0
 20
0.0
 30
0.0
  3
*Model_Space
  1

  0
ENDBLK
  5
21
100
AcDbEntity
  8
0
100
AcDbBlockEnd
  0
BLOCK
  5
1C
100
AcDbEntity
 67
1
  8
0
100
AcDbBlockBegin
  2
*Paper_Space
 70
0
 10
0.0
 20
0.0
 30
0.0
  3
*Paper_Space
  1

  0
ENDBLK
  5
1D
100
AcDbEntity
 67
1
  8
0
100
AcDbBlockEnd
  0
BLOCK
  5
24
100
AcDbEntity
  8
0
100
AcDbBlockBegin
  2
*Paper_Space0
 70
0
 10
0.0
 20
0.0
 30
0.0
  3
*Paper_Space0
  1

  0
ENDBLK
  5
25
100
AcDbEntity
  8
0
100
AcDbBlockEnd
  0
ENDSEC
  0
SECTION
  2
ENTITIES
  0
IMAGE
  5
5F
100
AcDbEntity
  8
Referencias
 62
256
370
-1
 48
1.0
  6
BYLAYER
100
AcDbRasterImage
 90
0
 10
910.3922032803641287
 20
389.7358871101985187
 30
0.0
 11
0.09765625
 21
0.0
 31
0.0
 12
0.0
 22
0.09765625
 32
0.0
 13
200.0
 23
141.0
340
60
 70
15
280
0
281
50
282
50
283
0
  0
CIRCLE
  5
61
100
AcDbEntity
  8
Contornos Visibles
 62
256
370
-1
 48
1.0
  6
BYLAYER
100
AcDbCircle
 10
1287.7025097289456426
 20
462.6471221138609167
 30
0.0
 40
10.5
  0
CIRCLE
  5
62
100
AcDbEntity
  8
Ejes de revoluci\U+00f3n
 62
256
370
-1
 48
1.0
  6
BYLAYER
100
AcDbCircle
 10
1287.7025097289456426
 20
462.6471221138609167
 30
0.0
 40
15.0
  0
XLINE
  5
63
100
AcDbEntity
  8
Referencias
 62
256
370
-1
 48
1.0
  6
BYLAYER
100
AcDbLine
 10
1287.7025097289456426
 20
462.6471221138609167
 30
0.0
 11
1.0
 21
0.0
 31
0.0
  0
ARC
  5
64
100
AcDbEntity
  8
Contornos Visibles
 62
256
370
-1
 48
1.0
  6
BYLAYER
100
AcDbCircle
 10
1302.7025097289456426
 20
462.6471221138609167
 30
0.0
 40
3.0
100
AcDbArc
 50
97.3976577541585584
 51
262.8005852265901581
  0
ARC
  5
65
100
AcDbEntity
  8
Contornos Visibles
 62
256
370
-1
 48
1.0
  6
BYLAYER
100
AcDbCircle
 10
1298.3091114467438274
 20
473.2537238316590447
 30
0.0
 40
3.0
100
AcDbArc
 50
142.39765775415853
 51
307.8005852265901581
  0
ARC
  5
66
100
AcDbEntity
  8
Contornos Visibles
 62
256
370
-1
 48
1.0
  6
BYLAYER
100
AcDbCircle
 10
1287.7025097289458699
 20
477.6471221138606893
 30
0.0
 40
3.0
100
AcDbArc
 50
187.3976577541585584
 51
352.8005852265901581
  0
ARC
  5
67
100
AcDbEntity
  8
Contornos Visibles
 62
256
370
-1
 48
1.0
  6
BYLAYER
100
AcDbCircle
 10
1298.3091114467438274
 20
473.2537238316590447
 30
0.0
 40
3.0
100
AcDbArc
 50
142.39765775415853
 51
307.8005852265901581
  0
ARC
  5
68
100
AcDbEntity
  8
Contornos Visibles
 62
256
370
-1
 48
1.0
  6
BYLAYER
100
AcDbCircle
 10
1277.0959080111476851
 20
473.2537238316591583
 30
0.0
 40
3.0
100
AcDbArc
 50
232.3976577541585584
 51
37.8005852265901297
  0
ARC
  5
69
100
AcDbEntity
  8
Contornos Visibles
 62
256
370
-1
 48
1.0
  6
BYLAYER
100
AcDbCircle
 10
1287.7025097289456426
 20
477.6471221138608598
 30
0.0
 40
3.0
100
AcDbArc
 50
187.3976577541585584
 51
352.8005852265901581
  0
ARC
  5
6A
100
AcDbEntity
  8
Contornos Visibles
 62
256
370
-1
 48
1.0
  6
BYLAYER
100
AcDbCircle
 10
1277.0959080111474577
 20
473.253723831659272
 30
0.0
 40
3.0
100
AcDbArc
 50
232.3976577541585584
 51
37.8005852265901297
  0
ARC
  5
6B
100
AcDbEntity
  8
Contornos Visibles
 62
256
370
-1
 48
1.0
  6
BYLAYER
100
AcDbCircle
 10
1272.7025097289456426
 20
462.6471221138612577
 30
0.0
 40
3.0
100
AcDbArc
 50
277.3976577541585584
 51
82.8005852265901297
  0
ARC
  5
6C
100
AcDbEntity
  8
Contornos Visibles
 62
256
370
-1
 48
1.0
  6
BYLAYER
100
AcDbCircle
 10
1272.7025097289456426
 20
462.6471221138609167
 30
0.0
 40
3.0
100
AcDbArc
 50
277.3976577541585584
 51
82.8005852265901297
  0
ARC
  5
6D
100
AcDbEntity
  8
Contornos Visibles
 62
256
370
-1
 48
1.0
  6
BYLAYER
100
AcDbCircle
 10
1277.0959080111474577
 20
452.0405203960626181
 30
0.0
 40
3.0
100
AcDbArc
 50
322.3976577541585584
 51
127.8005852265901439
  0
ARC
  5
6E
100
AcDbEntity
  8
Contornos Visibles
 62
256
370
-1
 48
1.0
  6
BYLAYER
100
AcDbCircle
 10
1287.7025097289458699
 20
447.6471221138607461
 30
0.0
 40
3.0
100
AcDbArc
 50
7.3976577541585415
 51
172.8005852265901297
  0
ARC
  5
6F
100
AcDbEntity
  8
Contornos Visibles
 62
256
370
-1
 48
1.0
  6
BYLAYER
100
AcDbCircle
 10
1277.0959080111474577
 20
452.0405203960626181
 30
0.0
 40
3.0
100
AcDbArc
 50
322.3976577541585584
 51
127.8005852265901439
  0
ARC
  5
70
100
AcDbEntity
  8
Contornos Visibles
 62
256
370
-1
 48
1.0
  6
BYLAYER
100
AcDbCircle
 10
1298.3091114467440548
 20
452.0405203960629024
 30
0.0
 40
3.0
100
AcDbArc
 50
52.3976577541585371
 51
217.8005852265901297
  0
ARC
  5
71
100
AcDbEntity
  8
Contornos Visibles
 62
256
370
-1
 48
1.0
  6
BYLAYER
100
AcDbCircle
 10
1287.7025097289456426
 20
447.6471221138610304
 30
0.0
 40
3.0
100
AcDbArc
 50
7.3976577541585415
 51
172.8005852265901297
  0
ARC
  5
72
100
AcDbEntity
  8
Contornos Visibles
 62
256
370
-1
 48
1.0
  6
BYLAYER
100
AcDbCircle
 10
1298.3091114467436
 20
452.0405203960629592
 30
0.0
 40
3.0
100
AcDbArc
 50
52.3976577541585371
 51
217.8005852265901297
  0
ARC
  5
73
100
AcDbEntity
  8
Contornos Visibles
 62
256
370
-1
 48
1.0
  6
BYLAYER
100
AcDbCircle
 10
1302.7025097289456426
 20
462.6471221138613714
 30
0.0
 40
3.0
100
AcDbArc
 50
97.3976577541585442
 51
262.8005852265901581
  0
LINE
  5
74
100
AcDbEntity
  8
Contornos Visibles
 62
256
370
-1
 48
1.0
  6
BYLAYER
100
AcDbLine
 10
1302.3162445577950166
 20
465.6221513939783563
 30
0.0
 11
1327.5879714305549442
 21
465.6221513939783563
 31
0.0
  0
LINE
  5
75
100
AcDbEntity
  8
Contornos Visibles
 62
256
370
-1
 48
1.0
  6
BYLAYER
100
AcDbLine
 10
1295.9323173466875687
 20
475.0842564880017562
 30
0.0
 11
1313.8021267907104175
 21
492.954065932024605
 31
0.0
  0
LINE
  5
76
100
AcDbEntity
  8
Contornos Visibles
 62
256
370
-1
 48
1.0
  6
BYLAYER
100
AcDbLine
 10
1284.7274804488283735
 20
477.2608569427102339
 30
0.0
 11
1284.7274804488283735
 21
502.5325838154701614
 31
0.0
  0
LINE
  5
77
100
AcDbEntity
  8
Contornos Visibles
 62
256
370
-1
 48
1.0
  6
BYLAYER
100
AcDbLine
 10
1275.2653753548047462
 20
470.8769297316030134
 30
0.0
 11
1257.3955659107818974
 21
488.7467391756258621
 31
0.0
  0
LINE
  5
78
100
AcDbEntity
  8
Contornos Visibles
 62
256
370
-1
 48
1.0
  6
BYLAYER
100
AcDbLine
 10
1273.0887749000962685
 20
459.6720928337435907
 30
0.0
 11
1247.817048027336341
 21
459.6720928337435907
 31
0.0
  0
LINE
  5
79
100
AcDbEntity
  8
Contornos Visibles
 62
256
370
-1
 48
1.0
  6
BYLAYER
100
AcDbLine
 10
1279.4727021112037164
 20
450.2099877397198497
 30
0.0
 11
1261.602892667181095
 21
432.340178295697001
 31
0.0
  0
LINE
  5
7A
100
AcDbEntity
  8
Contornos Visibles
 62
256
370
-1
 48
1.0
  6
BYLAYER
100
AcDbLine
 10
1290.6775390090629116
 20
448.0333872850115995
 30
0.0
 11
1290.677539009063139
 21
422.7616604122518424
 31
0.0
  0
LINE
  5
7B
100
AcDbEntity
  8
Contornos Visibles
 62
256
370
-1
 48
1.0
  6
BYLAYER
100
AcDbLine
 10
1300.1396441030863116
 20
454.417314496119161
 30
0.0
 11
1318.0094535471093877
 21
436.5475050520965965
 31
0.0
  0
LINE
  5
7C
100
AcDbEntity
  8
Contornos Visibles
 62
256
370
-1
 48
1.0
  6
BYLAYER
100
AcDbLine
 10
1302.3265404290405058
 20
459.6707741695626055
 30
0.0
 11
1327.5970588575660258
 21
459.6707741695626055
 31
0.0
  0
LINE
  5
7D
100
AcDbEntity
  8
Contornos Visibles
 62
256
370
-1
 48
1.0
  6
BYLAYER
100
AcDbLine
 10
1300.1478568198469929
 20
470.8832775755942635
 30
0.0
 11
1318.0168117647569943
 21
488.7522325205042648
 31
0.0
  0
LINE
  5
7E
100
AcDbEntity
  8
Contornos Visibles
 62
256
370
-1
 48
1.0
  6
BYLAYER
100
AcDbLine
 10
1290.6788576732440106
 20
477.2711528139556663
 30
0.0
 11
1290.6788576732440106
 21
502.5416712424811863
 31
0.0
  0
LINE
  5
7F
100
AcDbEntity
  8
Contornos Visibles
 62
256
370
-1
 48
1.0
  6
BYLAYER
100
AcDbLine
 10
1279.4663542672124095
 20
475.0924692047622102
 30
0.0
 11
1261.5973993223024081
 21
492.9614241496722116
 31
0.0
  0
LINE
  5
80
100
AcDbEntity
  8
Contornos Visibles
 62
256
370
-1
 48
1.0
  6
BYLAYER
100
AcDbLine
 10
1273.0784790288507793
 20
465.6234700581594552
 30
0.0
 11
1247.8079606003252593
 21
465.6234700581594552
 31
0.0
  0
LINE
  5
81
100
AcDbEntity
  8
Contornos Visibles
 62
256
370
-1
 48
1.0
  6
BYLAYER
100
AcDbLine
 10
1275.2571626380442922
 20
454.4109666521275699
 30
0.0
 11
1257.3882076931342908
 21
436.5420117072175117
 31
0.0
  0
LINE
  5
82
100
AcDbEntity
  8
Contornos Visibles
 62
256
370
-1
 48
1.0
  6
BYLAYER
100
AcDbLine
 10
1284.7261617846475019
 20
448.0230914137658829
 30
0.0
 11
1284.7261617846475019
 21
422.7525729852403629
 31
0.0
  0
LINE
  5
83
100
AcDbEntity
  8
Contornos Visibles
 62
256
370
-1
 48
1.0
  6
BYLAYER
100
AcDbLine
 10
1295.938665190679103
 20
450.2017750229597937
 30
0.0
 11
1313.8076201355891044
 21
432.3328200780497355
 31
0.0
  0
LINE
  5
84
100
AcDbEntity
  8
Contornos Visibles
 62
256
370
-1
 48
1.0
  6
BYLAYER
100
AcDbLine
 10
1302.3265404290402785
 20
459.6707741695629466
 30
0.0
 11
1327.5970588575660258
 21
459.6707741695629466
 31
0.0
  0
XLINE
  5
85
100
AcDbEntity
  8
Referencias
 62
256
370
-1
 48
1.0
  6
BYLAYER
100
AcDbLine
 10
1287.7025097289456426
 20
462.6471221138609167
 30
0.0
 11
0.0
 21
1.0
 31
0.0
  0
LINE
  5
86
100
AcDbEntity
  8
Referencias
 62
256
370
-1
 48
1.0
  6
BYLAYER
100
AcDbLine
 10
1287.7025097289456426
 20
462.6471221138609167
 30
0.0
 11
1358.4131878476005113
 21
533.3578002325157286
 31
0.0
  0
LINE
  5
87
100
AcDbEntity
  8
Referencias
 62
256
370
-1
 48
1.0
  6
BYLAYER
100
AcDbLine
 10
1287.7025097289456426
 20
462.6471221138609167
 30
0.0
 11
1216.9918316102910012
 21
533.3578002325157286
 31
0.0
  0
LINE
  5
88
100
AcDbEntity
  8
Referencias
 62
256
370
-1
 48
1.0
  6
BYLAYER
100
AcDbLine
 10
1287.7025097289456426
 20
462.6471221138609167
 30
0.0
 11
1216.9918316102907738
 21
391.9364439952061616
 31
0.0
  0
LINE
  5
89
100
AcDbEntity
  8
Referencias
 62
256
370
-1
 48
1.0
  6
BYLAYER
100
AcDbLine
 10
1287.7025097289456426
 20
462.6471221138609167
 30
0.0
 11
1358.4131878476002839
 21
391.9364439952061616
 31
0.0
  0
ARC
  5
8A
100
AcDbEntity
  8
Contornos Visibles
 62
256
370
-1
 48
1.0
  6
BYLAYER
100
AcDbCircle
 10
1287.7025097289458699
 20
462.6471221138609735
 30
0.0
 40
40.0
100
AcDbArc
 50
352.8192442185416553
 51
355.7327517027288195
  0
ARC
  5
8B
100
AcDbEntity
  8
Contornos Visibles
 62
256
370
-1
 48
1.0
  6
BYLAYER
100
AcDbCircle
 10
1287.7025097289458699
 20
462.6471221138609735
 30
0.0
 40
40.0
100
AcDbArc
 50
4.2672482972711592
 51
7.1807557814583607
  0
ARC
  5
8C
100
AcDbEntity
  8
Contornos Visibles
 62
256
370
-1
 48
1.0
  6
BYLAYER
100
AcDbCircle
 10
1287.7025097289458699
 20
462.6471221138610304
 30
0.0
 40
40.0
100
AcDbArc
 50
37.8192442185416624
 51
40.7327517027287627
  0
ARC
  5
8D
100
AcDbEntity
  8
Contornos Visibles
 62
256
370
-1
 48
1.0
  6
BYLAYER
100
AcDbCircle
 10
1287.7025097289458699
 20
462.6471221138609735
 30
0.0
 40
40.0
100
AcDbArc
 50
49.2672482972711592
 51
52.1807557814583589
  0
ARC
  5
8E
100
AcDbEntity
  8
Contornos Visibles
 62
256
370
-1
 48
1.0
  6
BYLAYER
100
AcDbCircle
 10
1287.7025097289458699
 20
462.6471221138610304
 30
0.0
 40
40.0
100
AcDbArc
 50
82.8192442185416695
 51
85.7327517027287627
  0
ARC
  5
8F
100
AcDbEntity
  8
Contornos Visibles
 62
256
370
-1
 48
1.0
  6
BYLAYER
100
AcDbCircle
 10
1287.7025097289458699
 20
462.647122113861144
 30
0.0
 40
40.0
100
AcDbArc
 50
94.2672482972711663
 51
97.1807557814583589
  0
ARC
  5
90
100
AcDbEntity
  8
Contornos Visibles
 62
256
370
-1
 48
1.0
  6
BYLAYER
100
AcDbCircle
 10
1287.7025097289458699
 20
462.647122113861144
 30
0.0
 40
40.0
100
AcDbArc
 50
127.8192442185416695
 51
130.7327517027287911
  0
ARC
  5
91
100
AcDbEntity
  8
Contornos Visibles
 62
256
370
-1
 48
1.0
  6
BYLAYER
100
AcDbCircle
 10
1287.7025097289458699
 20
462.6471221138612577
 30
0.0
 40
40.0
100
AcDbArc
 50
139.2672482972711521
 51
142.1807557814583447
  0
ARC
  5
92
100
AcDbEntity
  8
Contornos Visibles
 62
256
370
-1
 48
1.0
  6
BYLAYER
100
AcDbCircle
 10
1287.7025097289458699
 20
462.6471221138612577
 30
0.0
 40
40.0
100
AcDbArc
 50
172.8192442185416553
 51
175.7327517027287911
  0
ARC
  5
93
100
AcDbEntity
  8
Contornos Visibles
 62
256
370
-1
 48
1.0
  6
BYLAYER
100
AcDbCircle
 10
1287.7025097289460973
 20
462.6471221138612009
 30
0.0
 40
40.0
100
AcDbArc
 50
217.8192442185416553
 51
220.7327517027287627
  0
ARC
  5
94
100
AcDbEntity
  8
Contornos Visibles
 62
256
370
-1
 48
1.0
  6
BYLAYER
100
AcDbCircle
 10
1287.7025097289460973
 20
462.6471221138612009
 30
0.0
 40
40.0
100
AcDbArc
 50
184.2672482972711521
 51
187.1807557814583731
  0
ARC
  5
95
100
AcDbEntity
  8
Contornos Visibles
 62
256
370
-1
 48
1.0
  6
BYLAYER
100
AcDbCircle
 10
1287.7025097289460973
 20
462.6471221138612009
 30
0.0
 40
40.0
100
AcDbArc
 50
229.2672482972711521
 51
232.1807557814583731
  0
ARC
  5
96
100
AcDbEntity
  8
Contornos Visibles
 62
256
370
-1
 48
1.0
  6
BYLAYER
100
AcDbCircle
 10
1287.7025097289460973
 20
462.6471221138612009
 30
0.0
 40
40.0
100
AcDbArc
 50
262.8192442185416553
 51
265.7327517027287627
  0
ARC
  5
97
100
AcDbEntity
  8
Contornos Visibles
 62
256
370
-1
 48
1.0
  6
BYLAYER
100
AcDbCircle
 10
1287.7025097289458699
 20
462.6471221138614283
 30
0.0
 40
40.0
100
AcDbArc
 50
274.2672482972711805
 51
277.1807557814583447
  0
ARC
  5
98
100
AcDbEntity
  8
Contornos Visibles
 62
256
370
-1
 48
1.0
  6
BYLAYER
100
AcDbCircle
 10
1287.7025097289458699
 20
462.6471221138614283
 30
0.0
 40
40.0
100
AcDbArc
 50
307.8192442185416553
 51
310.7327517027287627
  0
ARC
  5
99
100
AcDbEntity
  8
Contornos Visibles
 62
256
370
-1
 48
1.0
  6
BYLAYER
100
AcDbCircle
 10
1287.7025097289458699
 20
462.6471221138614283
 30
0.0
 40
40.0
100
AcDbArc
 50
352.8192442185416553
 51
355.7327517027287627
  0
ARC
  5
9A
100
AcDbEntity
  8
Contornos Visibles
 62
256
370
-1
 48
1.0
  6
BYLAYER
100
AcDbCircle
 10
1287.7025097289458699
 20
462.6471221138614283
 30
0.0
 40
40.0
100
AcDbArc
 50
319.2672482972711805
 51
322.1807557814583447
  0
ARC
  5
9B
100
AcDbEntity
  8
Contornos Visibles
 62
256
370
-1
 48
1.0
  6
BYLAYER
100
AcDbCircle
 10
1335.6471471156517055
 20
482.5064411624946388
 30
0.0
 40
17.0
100
AcDbArc
 50
164.0640038892406665
 51
240.9359961107592198
  0
ARC
  5
9C
100
AcDbEntity
  8
Contornos Visibles
 62
256
370
-1
 48
1.0
  6
BYLAYER
100
AcDbCircle
 10
1335.6471471156517055
 20
442.7878030652273083
 30
0.0
 40
17.0
100
AcDbArc
 50
119.0640038892407659
 51
195.9359961107593051
  0
ARC
  5
9D
100
AcDbEntity
  8
Contornos Visibles
 62
256
370
-1
 48
1.0
  6
BYLAYER
100
AcDbCircle
 10
1307.5618287775796489
 20
510.5917595005667522
 30
0.0
 40
17.0
100
AcDbArc
 50
209.0640038892406949
 51
285.9359961107592198
  0
ARC
  5
9E
100
AcDbEntity
  8
Contornos Visibles
 62
256
370
-1
 48
1.0
  6
BYLAYER
100
AcDbCircle
 10
1267.843190680312091
 20
510.5917595005669796
 30
0.0
 40
17.0
100
AcDbArc
 50
254.0640038892406949
 51
330.9359961107592198
  0
ARC
  5
9F
100
AcDbEntity
  8
Contornos Visibles
 62
256
370
-1
 48
1.0
  6
BYLAYER
100
AcDbCircle
 10
1239.757872342239807
 20
482.5064411624950367
 30
0.0
 40
17.0
100
AcDbArc
 50
299.0640038892406665
 51
15.9359961107592483
  0
ARC
  5
A0
100
AcDbEntity
  8
Contornos Visibles
 62
256
370
-1
 48
1.0
  6
BYLAYER
100
AcDbCircle
 10
1239.7578723422395797
 20
442.7878030652273651
 30
0.0
 40
17.0
100
AcDbArc
 50
344.0640038892406665
 51
60.9359961107592554
  0
ARC
  5
A1
100
AcDbEntity
  8
Contornos Visibles
 62
256
370
-1
 48
1.0
  6
BYLAYER
100
AcDbCircle
 10
1267.8431906803116362
 20
414.7024847271549106
 30
0.0
 40
17.0
100
AcDbArc
 50
29.064003889240702
 51
105.9359961107592483
  0
ARC
  5
A2
100
AcDbEntity
  8
Contornos Visibles
 62
256
370
-1
 48
1.0
  6
BYLAYER
100
AcDbCircle
 10
1307.5618287775791941
 20
414.7024847271549106
 30
0.0
 40
17.0
100
AcDbArc
 50
74.0640038892406949
 51
150.9359961107592483
  0
ARC
  5
A3
100
AcDbEntity
  8
Contornos Visibles
 62
256
370
-1
 48
1.0
  6
BYLAYER
100
AcDbCircle
 10
1335.6471471156514781
 20
442.7878030652271377
 30
0.0
 40
17.0
100
AcDbArc
 50
119.0640038892407091
 51
195.9359961107592198
  0
DIMENSION
  5
A4
100
AcDbEntity
  8
Cotas
 62
256
370
-1
 48
1.0
  6
BYLAYER
100
AcDbDimension
 10
1297.1719742092325305
 20
467.1835571080592331
 30
0.0
 11
1286.8924320514101964
 21
464.3380979139121223
 31
0.0
 70
3
 71
8
 72
2
 74
0
 75
0
 41
1.0
 42
0.0
  1
\U+00f8<>
  3
Standard
100
AcDbDiametricDimension
 15
1278.2330452486587546
 25
458.1106871196626003
 35
0.0
 40
0.0
1001
ACAD
1000
DSTYLE
1002
{
1070
144
1040
1.0
1070
40
1040
1.0
1002
}
  0
DIMENSION
  5
A5
100
AcDbEntity
  8
Cotas
 62
256
370
-1
 48
1.0
  6
BYLAYER
100
AcDbDimension
 10
1301.2303161293552876
 20
469.1277435341441446
 30
0.0
 11
1303.7188701132758979
 21
471.4040402733109545
 31
0.0
 70
131
 71
8
 72
2
 74
0
 75
0
 41
1.0
 42
0.0
  1
\U+00f8<>
  3
Standard
100
AcDbDiametricDimension
 15
1274.1747033285359976
 25
456.1665006935776887
 35
0.0
 40
0.0
1001
ACAD
1000
DSTYLE
1002
{
1070
279
1070
2
1070
144
1040
1.0
1070
40
1040
1.0
1002
}
  0
DIMENSION
  5
A6
100
AcDbEntity
  8
Cotas
 62
256
370
-1
 48
1.0
  6
BYLAYER
100
AcDbDimension
 10
1287.7025097289458699
 20
462.6471221138610304
 30
0.0
 11
1302.3517936091172942
 21
476.3917249381752868
 31
0.0
 70
4
 71
8
 72
2
 74
0
 41
1.0
 42
0.0
  1
R<>
  3
Standard
100
AcDbRadialDimension
 15
1319.3004740356832372
 25
487.1740186087328084
 35
0.0
 40
0.0
1001
ACAD
1000
DSTYLE
1002
{
1070
144
1040
1.0
1070
40
1040
1.0
1002
}
  0
DIMENSION
  5
A7
100
AcDbEntity
  8
Cotas
 62
256
370
-1
 48
1.0
  6
BYLAYER
100
AcDbDimension
 10
1335.6471471156517055
 20
482.5064411624946388
 30
0.0
 11
1327.1968798025447995
 21
480.4187133696448768
 31
0.0
 70
4
 71
8
 72
2
 74
0
 41
1.0
 42
0.0
  1
R<>
  3
Standard
100
AcDbRadialDimension
 15
1320.4091377499682949
 25
474.9696599814237175
 35
0.0
 40
0.0
1001
ACAD
1000
DSTYLE
1002
{
1070
144
1040
1.0
1070
40
1040
1.0
1002
}
  0
LINE
  5
A8
100
AcDbEntity
  8
Referencias 2
 62
256
370
-1
 48
1.0
  6
BYLAYER
100
AcDbLine
 10
1327.5916229418824059
 20
459.6471221138609167
 30
0.0
 11
1327.5916229418824059
 21
465.6471221138609167
 31
0.0
  0
LINE
  5
A9
100
AcDbEntity
  8
Referencias
 62
256
370
-1
 48
1.0
  6
BYLAYER
100
AcDbLine
 10
1327.5916229418824059
 20
457.6471221138609167
 30
0.0
 11
1327.5916229418824059
 21
467.6471221138609167
 31
0.0
  0
DIMENSION
  5
AA
100
AcDbEntity
  8
Cotas
 62
256
370
-1
 48
1.0
  6
BYLAYER
100
AcDbDimension
 10
1333.5894621079939952
 20
465.6471221138609167
 30
0.0
 11
1331.7144621079939952
 21
462.6471221138609167
 31
0.0
 70
0
 71
8
 72
2
 74
0
 75
0
 41
1.0
 42
0.0
  1

  3
Standard
100
AcDbAlignedDimension
 13
1327.5916229418824059
 23
465.6471221138609167
 33
0.0
 14
1327.5916229418824059
 24
459.6471221138609167
 34
0.0
 50
90.0
100
AcDbRotatedDimension
1001
ACAD
1000
DSTYLE
1002
{
1070
144
1040
1.0
1070
40
1040
1.0
1002
}
  0
DIMENSION
  5
AB
100
AcDbEntity
  8
Cotas
 62
256
370
-1
 48
1.0
  6
BYLAYER
100
AcDbDimension
 10
1339.5540128900538548
 20
467.6471221138609167
 30
0.0
 11
1337.6790128900538548
 21
462.6471221138609167
 31
0.0
 70
0
 71
8
 72
2
 74
0
 75
0
 41
1.0
 42
0.0
  1

  3
Standard
100
AcDbAlignedDimension
 13
1327.5916229418824059
 23
467.6471221138609167
 33
0.0
 14
1327.5916229418824059
 24
457.6471221138609167
 34
0.0
 50
90.0
100
AcDbRotatedDimension
1001
ACAD
1000
DSTYLE
1002
{
1070
144
1040
1.0
1070
40
1040
1.0
1002
}
  0
ENDSEC
  0
SECTION
  2
OBJECTS
  0
DICTIONARY
  5
C
100
AcDbDictionary
280
0
281
1
  3
ACAD_GROUP
350
D
  3
ACAD_LAYOUT
350
1A
  3
ACAD_MLINESTYLE
350
17
  3
ACAD_PLOTSETTINGS
350
19
  3
ACAD_PLOTSTYLENAME
350
E
  3
AcDbVariableDictionary
350
AC
  3
QCAD_OBJECTS
350
AD
  0
DICTIONARY
  5
D
100
AcDbDictionary
280
0
281
1
  0
ACDBDICTIONARYWDFLT
  5
E
100
AcDbDictionary
281
1
  3
Normal
350
F
100
AcDbDictionaryWithDefault
340
F
  0
ACDBPLACEHOLDER
  5
F
  0
DICTIONARY
  5
17
100
AcDbDictionary
280
0
281
1
  3
Standard
350
18
  0
MLINESTYLE
  5
18
100
AcDbMlineStyle
  2
STANDARD
 70
0
  3

 62
256
 51
90.0
 52
90.0
 71
2
 49
0.5
 62
256
  6
BYLAYER
 49
-0.5
 62
256
  6
BYLAYER
  0
DICTIONARY
  5
19
100
AcDbDictionary
280
0
281
1
  0
DICTIONARY
  5
1A
100
AcDbDictionary
281
1
  3
Layout1
350
1E
  3
Layout2
350
26
  3
Model
350
22
  0
LAYOUT
  5
1E
100
AcDbPlotSettings
  1

  2
none_device
  4

  6

 40
0.0
 41
0.0
 42
0.0
 43
0.0
 44
0.0
 45
0.0
 46
0.0
 47
0.0
 48
0.0
 49
0.0
140
0.0
141
0.0
142
1.0
143
1.0
 70
688
 72
0
 73
0
 74
5
  7

 75
16
147
1.0
148
0.0
149
0.0
100
AcDbLayout
  1
Layout1
 70
1
 71
1
 10
0.0
 20
0.0
 11
420.0
 21
297.0
 12
0.0
 22
0.0
 32
0.0
 14
100000000000000000000.0
 24
100000000000000000000.0
 34
100000000000000000000.0
 15
-100000000000000000000.0
 25
-100000000000000000000.0
 35
-100000000000000000000.0
146
0.0
 13
0.0
 23
0.0
 33
0.0
 16
1.0
 26
0.0
 36
0.0
 17
0.0
 27
1.0
 37
0.0
 76
0
330
1B
  0
LAYOUT
  5
22
100
AcDbPlotSettings
  1

  2
none_device
  4

  6

 40
0.0
 41
0.0
 42
0.0
 43
0.0
 44
0.0
 45
0.0
 46
0.0
 47
0.0
 48
0.0
 49
0.0
140
0.0
141
0.0
142
1.0
143
1.0
 70
1712
 72
0
 73
0
 74
0
  7

 75
0
147
1.0
148
0.0
149
0.0
100
AcDbLayout
  1
Model
 70
1
 71
0
 10
0.0
 20
0.0
 11
12.0
 21
9.0
 12
0.0
 22
0.0
 32
0.0
 14
0.0
 24
0.0
 34
0.0
 15
0.0
 25
0.0
 35
0.0
146
0.0
 13
0.0
 23
0.0
 33
0.0
 16
1.0
 26
0.0
 36
0.0
 17
0.0
 27
1.0
 37
0.0
 76
0
330
1F
  0
LAYOUT
  5
26
100
AcDbPlotSettings
  1

  2
none_device
  4

  6

 40
0.0
 41
0.0
 42
0.0
 43
0.0
 44
0.0
 45
0.0
 46
0.0
 47
0.0
 48
0.0
 49
0.0
140
0.0
141
0.0
142
1.0
143
1.0
 70
688
 72
0
 73
0
 74
5
  7

 75
16
147
1.0
148
0.0
149
0.0
100
AcDbLayout
  1
Layout2
 70
1
 71
2
 10
0.0
 20
0.0
 11
12.0
 21
9.0
 12
0.0
 22
0.0
 32
0.0
 14
0.0
 24
0.0
 34
0.0
 15
0.0
 25
0.0
 35
0.0
146
0.0
 13
0.0
 23
0.0
 33
0.0
 16
1.0
 26
0.0
 36
0.0
 17
0.0
 27
1.0
 37
0.0
 76
0
330
23
  0
DICTIONARY
  5
AC
100
AcDbDictionary
281
1
  3
DIMASSOC
350
AF
  3
HIDETEXT
350
AE
  0
DICTIONARYVAR
  5
AE
100
DictionaryVariables
280
0
  1
2
  0
DICTIONARYVAR
  5
AF
100
DictionaryVariables
280
0
  1
1
  0
DICTIONARY
  5
AD
100
AcDbDictionary
281
1
  3
ColorSettings/BackgroundColor
350
B0
  3
ColorSettings/ColorMode
350
B1
  3
Grid/DisplayGrid00
350
B2
  3
Grid/DisplayGrid01
350
B3
  3
Grid/DisplayGrid02
350
B4
  3
Grid/DisplayGrid03
350
B5
  3
Grid/GridSpacingX00
350
B6
  3
Grid/GridSpacingX01
350
B7
  3
Grid/GridSpacingX02
350
B8
  3
Grid/GridSpacingX03
350
B9
  3
Grid/GridSpacingY00
350
BA
  3
Grid/GridSpacingY01
350
BB
  3
Grid/GridSpacingY02
350
BC
  3
Grid/GridSpacingY03
350
BD
  3
Grid/IsometricGrid00
350
BE
  3
Grid/IsometricGrid01
350
BF
  3
Grid/IsometricGrid02
350
C0
  3
Grid/IsometricGrid03
350
C1
  3
Grid/IsometricProjection00
350
C2
  3
Grid/IsometricProjection01
350
C3
  3
Grid/IsometricProjection02
350
C4
  3
Grid/IsometricProjection03
350
C5
  3
Grid/MetaGridSpacingX00
350
C6
  3
Grid/MetaGridSpacingX01
350
C7
  3
Grid/MetaGridSpacingX02
350
C8
  3
Grid/MetaGridSpacingX03
350
C9
  3
Grid/MetaGridSpacingY00
350
CA
  3
Grid/MetaGridSpacingY01
350
CB
  3
Grid/MetaGridSpacingY02
350
CC
  3
Grid/MetaGridSpacingY03
350
CD
  3
MultiPageSettings/Columns
350
CE
  3
MultiPageSettings/GlueMarginsBottom
350
CF
  3
MultiPageSettings/GlueMarginsLeft
350
D0
  3
MultiPageSettings/GlueMarginsRight
350
D1
  3
MultiPageSettings/GlueMarginsTop
350
D2
  3
MultiPageSettings/PrintCropMarks
350
D3
  3
MultiPageSettings/Rows
350
D4
  3
PageSettings/OffsetX
350
D5
  3
PageSettings/OffsetY
350
D6
  3
PageSettings/PageOrientation
350
D7
  3
PageSettings/PaperHeight
350
D8
  3
PageSettings/PaperWidth
350
D9
  3
PageSettings/Scale
350
DA
  3
PageSettings/ShowPaperBorders
350
DB
  3
PageTagSettings/EnablePageTags
350
DC
  3
PageTagSettings/TagAlignment
350
DD
  3
PageTagSettings/TagFont
350
DE
  3
PageTagSettings/TagPosition
350
DF
  3
QCADVersion
350
E0
  3
UnitSettings/PaperUnit
350
E1
  3
ViewportCenter
350
E2
  3
ViewportHeight
350
E3
  3
ViewportWidth
350
E4
  0
XRECORD
  5
B0
330
AD
100
AcDbXrecord
280
1
1000
Blanca
  0
XRECORD
  5
B1
330
AD
100
AcDbXrecord
280
1
1000
FullColor
  0
XRECORD
  5
B2
330
AD
100
AcDbXrecord
280
1
290
0
  0
XRECORD
  5
B3
330
AD
100
AcDbXrecord
280
1
290
1
  0
XRECORD
  5
B4
330
AD
100
AcDbXrecord
280
1
290
1
  0
XRECORD
  5
B5
330
AD
100
AcDbXrecord
280
1
290
1
  0
XRECORD
  5
B6
330
AD
100
AcDbXrecord
280
1
1000
auto
  0
XRECORD
  5
B7
330
AD
100
AcDbXrecord
280
1
1000
auto
  0
XRECORD
  5
B8
330
AD
100
AcDbXrecord
280
1
1000
auto
  0
XRECORD
  5
B9
330
AD
100
AcDbXrecord
280
1
1000
auto
  0
XRECORD
  5
BA
330
AD
100
AcDbXrecord
280
1
1000
auto
  0
XRECORD
  5
BB
330
AD
100
AcDbXrecord
280
1
1000
auto
  0
XRECORD
  5
BC
330
AD
100
AcDbXrecord
280
1
1000
auto
  0
XRECORD
  5
BD
330
AD
100
AcDbXrecord
280
1
1000
auto
  0
XRECORD
  5
BE
330
AD
100
AcDbXrecord
280
1
290
0
  0
XRECORD
  5
BF
330
AD
100
AcDbXrecord
280
1
290
0
  0
XRECORD
  5
C0
330
AD
100
AcDbXrecord
280
1
290
0
  0
XRECORD
  5
C1
330
AD
100
AcDbXrecord
280
1
290
0
  0
XRECORD
  5
C2
330
AD
100
AcDbXrecord
280
1
 90
65537
  0
XRECORD
  5
C3
330
AD
100
AcDbXrecord
280
1
 90
65537
  0
XRECORD
  5
C4
330
AD
100
AcDbXrecord
280
1
 90
65537
  0
XRECORD
  5
C5
330
AD
100
AcDbXrecord
280
1
 90
65537
  0
XRECORD
  5
C6
330
AD
100
AcDbXrecord
280
1
1000
auto
  0
XRECORD
  5
C7
330
AD
100
AcDbXrecord
280
1
1000
auto
  0
XRECORD
  5
C8
330
AD
100
AcDbXrecord
280
1
1000
auto
  0
XRECORD
  5
C9
330
AD
100
AcDbXrecord
280
1
1000
auto
  0
XRECORD
  5
CA
330
AD
100
AcDbXrecord
280
1
1000
1
  0
XRECORD
  5
CB
330
AD
100
AcDbXrecord
280
1
1000
auto
  0
XRECORD
  5
CC
330
AD
100
AcDbXrecord
280
1
1000
auto
  0
XRECORD
  5
CD
330
AD
100
AcDbXrecord
280
1
1000
auto
  0
XRECORD
  5
CE
330
AD
100
AcDbXrecord
280
1
 90
1
  0
XRECORD
  5
CF
330
AD
100
AcDbXrecord
280
1
 40
10.0
  0
XRECORD
  5
D0
330
AD
100
AcDbXrecord
280
1
 40
10.0
  0
XRECORD
  5
D1
330
AD
100
AcDbXrecord
280
1
 40
10.0
  0
XRECORD
  5
D2
330
AD
100
AcDbXrecord
280
1
 40
10.0
  0
XRECORD
  5
D3
330
AD
100
AcDbXrecord
280
1
290
0
  0
XRECORD
  5
D4
330
AD
100
AcDbXrecord
280
1
 90
1
  0
XRECORD
  5
D5
330
AD
100
AcDbXrecord
280
1
 40
793.1665914866936191
  0
XRECORD
  5
D6
330
AD
100
AcDbXrecord
280
1
 40
306.6308471493692309
  0
XRECORD
  5
D7
330
AD
100
AcDbXrecord
280
1
1000
Portrait
  0
XRECORD
  5
D8
330
AD
100
AcDbXrecord
280
1
 40
279.3999999999999773
  0
XRECORD
  5
D9
330
AD
100
AcDbXrecord
280
1
 40
215.9000000000000057
  0
XRECORD
  5
DA
330
AD
100
AcDbXrecord
280
1
 90
1
  0
XRECORD
  5
DB
330
AD
100
AcDbXrecord
280
1
290
1
  0
XRECORD
  5
DC
330
AD
100
AcDbXrecord
280
1
290
0
  0
XRECORD
  5
DD
330
AD
100
AcDbXrecord
280
1
1000
Inside
  0
XRECORD
  5
DE
330
AD
100
AcDbXrecord
280
1
1000
Arial,10,-1,5,50,0,0,0,0,0
  0
XRECORD
  5
DF
330
AD
100
AcDbXrecord
280
1
1000
TopLeft
  0
XRECORD
  5
E0
330
AD
100
AcDbXrecord
280
1
1000
3.28.1
  0
XRECORD
  5
E1
330
AD
100
AcDbXrecord
280
1
 90
4
  0
XRECORD
  5
E3
330
AD
100
AcDbXrecord
280
1
 40
112.9167406866077386
  0
XRECORD
  5
E4
330
AD
100
AcDbXrecord
280
1
 40
208.0615567354000177
  0
IMAGEDEF
  5
60
100
AcDbRasterImageDef
 90
0
  1
C:/Users/iamth/Documents/QCad/StudyCadCam/2D CAD EXERCISES 14.png
 10
200.0
 20
141.0
 11
1.0
 21
1.0
280
1
281
0
  0
ENDSEC
  0
EOF
