999
dxflib 3.26.4.0
  0
SECTION
  2
HEADER
  9
$ACADVER
  1
AC1015
  9
$HANDSEED
  5
FFFF
  9
$DIMADEC
 70
0
  9
$DIMASZ
 40
2.5
  9
$DIMATFIT
 70
0
  9
$DIMAUNIT
 70
0
  9
$DIMAZIN
 70
2
  9
$DIMBLK
  1
0
  9
$DIMBLK1
  1
0
  9
$DIMBLK2
  1
0
  9
$DIMDEC
 70
4
  9
$DIMDLI
 40
5.0
  9
$DIMDSEP
 70
46
  9
$DIMEXE
 40
1.25
  9
$DIMEXO
 40
0.625
  9
$DIMGAP
 40
0.625
  9
$DIMLFAC
 40
1.0
  9
$DIMLUNIT
 70
2
  9
$DIMSCALE
 40
1.0
  9
$DIMTAD
 70
1
  9
$DIMTIH
 70
0
  9
$DIMTSZ
 40
0.0
  9
$DIMTXT
 40
2.5
  9
$DIMZIN
 70
8
  9
$DWGCODEPAGE
  3
ANSI_1252
  9
$INSUNITS
 70
4
  9
$LTSCALE
 40
1.0
  9
$MAXACTVP
 70
64
  9
$MEASUREMENT
 70
1
  9
$MIRRTEXT
 70
0
  9
$PDMODE
 70
0
  9
$PDSIZE
 40
0.0
  0
ENDSEC
  0
SECTION
  2
TABLES
  0
TABLE
  2
VPORT
  5
8
100
AcDbSymbolTable
 70
1
  0
VPORT
  5
30
100
AcDbSymbolTableRecord
100
AcDbViewportTableRecord
  2
*Active
 70
0
 10
0.0
 20
0.0
 11
1.0
 21
1.0
 12
286.3055555555554861
 22
148.5
 13
0.0
 23
0.0
 14
10.0
 24
10.0
 15
10.0
 25
10.0
 16
0.0
 26
0.0
 36
1.0
 17
0.0
 27
0.0
 37
0.0
 40
297.0
 41
1.92798353909465
 42
50.0
 43
0.0
 44
0.0
 50
0.0
 51
0.0
 71
0
 72
100
 73
1
 74
3
 75
1
 76
1
 77
0
 78
0
281
0
 65
1
110
0.0
120
0.0
130
0.0
111
1.0
121
0.0
131
0.0
112
0.0
122
1.0
132
0.0
 79
0
146
0.0
  0
ENDTAB
  0
TABLE
  2
LTYPE
  5
5
100
AcDbSymbolTable
 70
41
  0
LTYPE
  5
16
100
AcDbSymbolTableRecord
100
AcDbLinetypeTableRecord
  2
Continuous
 70
0
  3
Solid line
 72
65
 73
0
 40
0.0
  0
LTYPE
  5
31
100
AcDbSymbolTableRecord
100
AcDbLinetypeTableRecord
  2
DASHDOT
 70
0
  3
Dash dot __ . __ . __ . __ . __ . __ . __ . __
 72
65
 73
4
 40
25.4000000000000021
 49
12.6999999999999993
 74
0
 49
-6.2999999999999998
 74
0
 49
0.1
 74
0
 49
-6.2999999999999998
 74
0
  0
LTYPE
  5
32
100
AcDbSymbolTableRecord
100
AcDbLinetypeTableRecord
  2
DIVIDE2
 70
0
  3
Divide (.5x) __..__..__..__..__..__..__..__.._
 72
65
 73
6
 40
15.8749999999999982
 49
6.3499999999999996
 74
0
 49
-3.125
 74
0
 49
0.1
 74
0
 49
-3.0750000000000002
 74
0
 49
0.1
 74
0
 49
-3.125
 74
0
  0
LTYPE
  5
33
100
AcDbSymbolTableRecord
100
AcDbLinetypeTableRecord
  2
BORDER
 70
0
  3
Border __ __ . __ __ . __ __ . __ __ . __ __ .
 72
65
 73
6
 40
44.4499999999999957
 49
12.6999999999999993
 74
0
 49
-6.3499999999999996
 74
0
 49
12.6999999999999993
 74
0
 49
-6.2999999999999998
 74
0
 49
0.1
 74
0
 49
-6.2999999999999998
 74
0
  0
LTYPE
  5
34
100
AcDbSymbolTableRecord
100
AcDbLinetypeTableRecord
  2
DOT2
 70
0
  3
Dot (.5x) ........................................
 72
65
 73
2
 40
3.1749999999999998
 49
0.1
 74
0
 49
-3.0749999999999997
 74
0
  0
LTYPE
  5
35
100
AcDbSymbolTableRecord
100
AcDbLinetypeTableRecord
  2
ACAD_ISO02W100
 70
0
  3
ISO dash __ __ __ __ __ __ __ __ __ __ __ __ __
 72
65
 73
2
 40
15.0
 49
12.0
 74
0
 49
-3.0
 74
0
  0
LTYPE
  5
14
100
AcDbSymbolTableRecord
100
AcDbLinetypeTableRecord
  2
BYBLOCK
 70
0
  3

 72
65
 73
0
 40
0.0
  0
LTYPE
  5
36
100
AcDbSymbolTableRecord
100
AcDbLinetypeTableRecord
  2
DOTX2
 70
0
  3
Dot (2x) .  .  .  .  .  .  .  .  .  .  .  .  .  .
 72
65
 73
2
 40
12.6999999999999993
 49
0.1
 74
0
 49
-12.5999999999999996
 74
0
  0
LTYPE
  5
37
100
AcDbSymbolTableRecord
100
AcDbLinetypeTableRecord
  2
ACAD_ISO06W100
 70
0
  3
ISO long-dash triple-dot ____ ... ____ ... ____
 72
65
 73
8
 40
36.0000000000000071
 49
24.0
 74
0
 49
-2.9500000000000002
 74
0
 49
0.1
 74
0
 49
-2.9000000000000004
 74
0
 49
0.1
 74
0
 49
-2.9000000000000004
 74
0
 49
0.1
 74
0
 49
-2.9500000000000002
 74
0
  0
LTYPE
  5
38
100
AcDbSymbolTableRecord
100
AcDbLinetypeTableRecord
  2
DASHED2
 70
0
  3
Dashed (.5x) _ _ _ _ _ _ _ _ _ _ _ _ _ _ _ _ _ 
 72
65
 73
2
 40
9.5249999999999986
 49
6.3499999999999996
 74
0
 49
-3.1749999999999998
 74
0
  0
LTYPE
  5
39
100
AcDbSymbolTableRecord
100
AcDbLinetypeTableRecord
  2
DASHDOT2
 70
0
  3
Dash dot (.5x) _._._._._._._._._._._._._._._.
 72
65
 73
4
 40
12.6999999999999993
 49
6.3499999999999996
 74
0
 49
-3.125
 74
0
 49
0.1
 74
0
 49
-3.125
 74
0
  0
LTYPE
  5
3A
100
AcDbSymbolTableRecord
100
AcDbLinetypeTableRecord
  2
DOT
 70
0
  3
Dot . . . . . . . . . . . . . . . . . . . . . . . .
 72
65
 73
2
 40
6.3499999999999996
 49
0.1
 74
0
 49
-6.25
 74
0
  0
LTYPE
  5
3B
100
AcDbSymbolTableRecord
100
AcDbLinetypeTableRecord
  2
ACAD_ISO15W100
 70
0
  3
ISO double-dash triple-dot __ __ . . . __ __ . .
 72
65
 73
10
 40
39.0000000000000071
 49
12.0
 74
0
 49
-3.0
 74
0
 49
12.0
 74
0
 49
-2.9500000000000002
 74
0
 49
0.1
 74
0
 49
-2.9000000000000004
 74
0
 49
0.1
 74
0
 49
-2.9000000000000004
 74
0
 49
0.1
 74
0
 49
-2.9500000000000002
 74
0
  0
LTYPE
  5
3C
100
AcDbSymbolTableRecord
100
AcDbLinetypeTableRecord
  2
DASHDOTX2
 70
0
  3
Dash dot (2x) ____  .  ____  .  ____  .  ___
 72
65
 73
4
 40
50.7999999999999972
 49
25.3999999999999986
 74
0
 49
-12.6499999999999986
 74
0
 49
0.1
 74
0
 49
-12.6499999999999986
 74
0
  0
LTYPE
  5
3D
100
AcDbSymbolTableRecord
100
AcDbLinetypeTableRecord
  2
ACAD_ISO09W100
 70
0
  3
ISO long-dash double-short-dash ____ __ __ ____
 72
65
 73
6
 40
45.0
 49
24.0
 74
0
 49
-3.0
 74
0
 49
6.0
 74
0
 49
-3.0
 74
0
 49
6.0
 74
0
 49
-3.0
 74
0
  0
LTYPE
  5
3E
100
AcDbSymbolTableRecord
100
AcDbLinetypeTableRecord
  2
PHANTOM2
 70
0
  3
Phantom (.5x) ___ _ _ ___ _ _ ___ _ _ ___ _ _
 72
65
 73
6
 40
31.7500000000000036
 49
15.875
 74
0
 49
-3.1749999999999998
 74
0
 49
3.1749999999999998
 74
0
 49
-3.1749999999999998
 74
0
 49
3.1749999999999998
 74
0
 49
-3.1749999999999998
 74
0
  0
LTYPE
  5
3F
100
AcDbSymbolTableRecord
100
AcDbLinetypeTableRecord
  2
ACAD_ISO07W100
 70
0
  3
ISO dot . . . . . . . . . . . . . . . . . . . . 
 72
65
 73
2
 40
3.0
 49
0.1
 74
0
 49
-2.8999999999999999
 74
0
  0
LTYPE
  5
40
100
AcDbSymbolTableRecord
100
AcDbLinetypeTableRecord
  2
BORDER2
 70
0
  3
Border (.5x) __.__.__.__.__.__.__.__.__.__.__.
 72
65
 73
6
 40
22.2250000000000014
 49
6.3499999999999996
 74
0
 49
-3.1749999999999998
 74
0
 49
6.3499999999999996
 74
0
 49
-3.125
 74
0
 49
0.1
 74
0
 49
-3.125
 74
0
  0
LTYPE
  5
15
100
AcDbSymbolTableRecord
100
AcDbLinetypeTableRecord
  2
BYLAYER
 70
0
  3

 72
65
 73
0
 40
0.0
  0
LTYPE
  5
41
100
AcDbSymbolTableRecord
100
AcDbLinetypeTableRecord
  2
CENTER
 70
0
  3
Center ____ _ ____ _ ____ _ ____ _ ____ _ ____
 72
65
 73
4
 40
50.8000000000000043
 49
31.75
 74
0
 49
-6.3499999999999996
 74
0
 49
6.3499999999999996
 74
0
 49
-6.3499999999999996
 74
0
  0
LTYPE
  5
42
100
AcDbSymbolTableRecord
100
AcDbLinetypeTableRecord
  2
HIDDEN
 70
0
  3
Hidden __ __ __ __ __ __ __ __ __ __ __ __ __ __
 72
65
 73
2
 40
9.5249999999999986
 49
6.3499999999999996
 74
0
 49
-3.1749999999999998
 74
0
  0
LTYPE
  5
43
100
AcDbSymbolTableRecord
100
AcDbLinetypeTableRecord
  2
ACAD_ISO05W100
 70
0
  3
ISO long-dash double-dot ____ .. ____ .. ____ . 
 72
65
 73
6
 40
33.0000000000000071
 49
24.0
 74
0
 49
-2.9500000000000002
 74
0
 49
0.1
 74
0
 49
-2.9000000000000004
 74
0
 49
0.1
 74
0
 49
-2.9500000000000002
 74
0
  0
LTYPE
  5
44
100
AcDbSymbolTableRecord
100
AcDbLinetypeTableRecord
  2
DASHED
 70
0
  3
Dashed __ __ __ __ __ __ __ __ __ __ __ __ __ _
 72
65
 73
2
 40
19.0499999999999972
 49
12.6999999999999993
 74
0
 49
-6.3499999999999996
 74
0
  0
LTYPE
  5
45
100
AcDbSymbolTableRecord
100
AcDbLinetypeTableRecord
  2
ACAD_ISO03W100
 70
0
  3
ISO dash space __    __    __    __    __    __
 72
65
 73
2
 40
30.0
 49
12.0
 74
0
 49
-18.0
 74
0
  0
LTYPE
  5
46
100
AcDbSymbolTableRecord
100
AcDbLinetypeTableRecord
  2
ACAD_ISO08W100
 70
0
  3
ISO long-dash short-dash ____ __ ____ __ ____ _
 72
65
 73
4
 40
36.0
 49
24.0
 74
0
 49
-3.0
 74
0
 49
6.0
 74
0
 49
-3.0
 74
0
  0
LTYPE
  5
47
100
AcDbSymbolTableRecord
100
AcDbLinetypeTableRecord
  2
CENTERX2
 70
0
  3
Center (2x) ________  __  ________  __  _____
 72
65
 73
4
 40
101.6000000000000085
 49
63.5
 74
0
 49
-12.6999999999999993
 74
0
 49
12.6999999999999993
 74
0
 49
-12.6999999999999993
 74
0
  0
LTYPE
  5
48
100
AcDbSymbolTableRecord
100
AcDbLinetypeTableRecord
  2
ACAD_ISO04W100
 70
0
  3
ISO long-dash dot ____ . ____ . ____ . ____ . _
 72
65
 73
4
 40
30.0
 49
24.0
 74
0
 49
-2.9500000000000002
 74
0
 49
0.1
 74
0
 49
-2.9500000000000002
 74
0
  0
LTYPE
  5
49
100
AcDbSymbolTableRecord
100
AcDbLinetypeTableRecord
  2
DASHEDX2
 70
0
  3
Dashed (2x) ____  ____  ____  ____  ____  ___
 72
65
 73
2
 40
38.0999999999999943
 49
25.3999999999999986
 74
0
 49
-12.6999999999999993
 74
0
  0
LTYPE
  5
4A
100
AcDbSymbolTableRecord
100
AcDbLinetypeTableRecord
  2
HIDDENX2
 70
0
  3
Hidden (2x) ____ ____ ____ ____ ____ ____ ____ 
 72
65
 73
2
 40
19.0499999999999972
 49
12.6999999999999993
 74
0
 49
-6.3499999999999996
 74
0
  0
LTYPE
  5
4B
100
AcDbSymbolTableRecord
100
AcDbLinetypeTableRecord
  2
ACAD_ISO14W100
 70
0
  3
ISO dash triple-dot __ . . . __ . . . __ . . . _
 72
65
 73
8
 40
24.0000000000000036
 49
12.0
 74
0
 49
-2.9500000000000002
 74
0
 49
0.1
 74
0
 49
-2.9000000000000004
 74
0
 49
0.1
 74
0
 49
-2.9000000000000004
 74
0
 49
0.1
 74
0
 49
-2.9500000000000002
 74
0
  0
LTYPE
  5
4C
100
AcDbSymbolTableRecord
100
AcDbLinetypeTableRecord
  2
DIVIDE
 70
0
  3
Divide ____ . . ____ . . ____ . . ____ . . ____
 72
65
 73
6
 40
31.7500000000000036
 49
12.6999999999999993
 74
0
 49
-6.2999999999999998
 74
0
 49
0.1
 74
0
 49
-6.25
 74
0
 49
0.1
 74
0
 49
-6.2999999999999998
 74
0
  0
LTYPE
  5
4D
100
AcDbSymbolTableRecord
100
AcDbLinetypeTableRecord
  2
ACAD_ISO11W100
 70
0
  3
ISO double-dash dot __ __ . __ __ . __ __ . __ _
 72
65
 73
6
 40
33.0
 49
12.0
 74
0
 49
-3.0
 74
0
 49
12.0
 74
0
 49
-2.9500000000000002
 74
0
 49
0.1
 74
0
 49
-2.9500000000000002
 74
0
  0
LTYPE
  5
4E
100
AcDbSymbolTableRecord
100
AcDbLinetypeTableRecord
  2
HIDDEN2
 70
0
  3
Hidden (.5x) _ _ _ _ _ _ _ _ _ _ _ _ _ _ _ _ _ 
 72
65
 73
2
 40
4.7624999999999993
 49
3.1749999999999998
 74
0
 49
-1.5874999999999999
 74
0
  0
LTYPE
  5
4F
100
AcDbSymbolTableRecord
100
AcDbLinetypeTableRecord
  2
CENTER2
 70
0
  3
Center (.5x) ___ _ ___ _ ___ _ ___ _ ___ _ ___
 72
65
 73
4
 40
28.5750000000000028
 49
19.0500000000000007
 74
0
 49
-3.1749999999999998
 74
0
 49
3.1749999999999998
 74
0
 49
-3.1749999999999998
 74
0
  0
LTYPE
  5
50
100
AcDbSymbolTableRecord
100
AcDbLinetypeTableRecord
  2
PHANTOMX2
 70
0
  3
Phantom (2x) ____________    ____    ____   _
 72
65
 73
6
 40
127.0000000000000142
 49
63.5
 74
0
 49
-12.6999999999999993
 74
0
 49
12.6999999999999993
 74
0
 49
-12.6999999999999993
 74
0
 49
12.6999999999999993
 74
0
 49
-12.6999999999999993
 74
0
  0
LTYPE
  5
51
100
AcDbSymbolTableRecord
100
AcDbLinetypeTableRecord
  2
ACAD_ISO13W100
 70
0
  3
ISO double-dash double-dot __ __ . . __ __ . . _
 72
65
 73
8
 40
36.0000000000000071
 49
12.0
 74
0
 49
-3.0
 74
0
 49
12.0
 74
0
 49
-2.9500000000000002
 74
0
 49
0.1
 74
0
 49
-2.9000000000000004
 74
0
 49
0.1
 74
0
 49
-2.9500000000000002
 74
0
  0
LTYPE
  5
52
100
AcDbSymbolTableRecord
100
AcDbLinetypeTableRecord
  2
ACAD_ISO12W100
 70
0
  3
ISO dash double-dot __ . . __ . . __ . . __ . . 
 72
65
 73
6
 40
21.0
 49
12.0
 74
0
 49
-2.9500000000000002
 74
0
 49
0.1
 74
0
 49
-2.9000000000000004
 74
0
 49
0.1
 74
0
 49
-2.9500000000000002
 74
0
  0
LTYPE
  5
53
100
AcDbSymbolTableRecord
100
AcDbLinetypeTableRecord
  2
ACAD_ISO10W100
 70
0
  3
ISO dash dot __ . __ . __ . __ . __ . __ . __ . 
 72
65
 73
4
 40
18.0
 49
12.0
 74
0
 49
-2.9500000000000002
 74
0
 49
0.1
 74
0
 49
-2.9500000000000002
 74
0
  0
LTYPE
  5
54
100
AcDbSymbolTableRecord
100
AcDbLinetypeTableRecord
  2
DIVIDEX2
 70
0
  3
Divide (2x) ________  .  .  ________  .  .  _
 72
65
 73
6
 40
63.5
 49
25.3999999999999986
 74
0
 49
-12.6499999999999986
 74
0
 49
0.1
 74
0
 49
-12.5999999999999979
 74
0
 49
0.1
 74
0
 49
-12.6499999999999986
 74
0
  0
LTYPE
  5
55
100
AcDbSymbolTableRecord
100
AcDbLinetypeTableRecord
  2
PHANTOM
 70
0
  3
Phantom ______  __  __  ______  __  __  ______ 
 72
65
 73
6
 40
63.5000000000000071
 49
31.75
 74
0
 49
-6.3499999999999996
 74
0
 49
6.3499999999999996
 74
0
 49
-6.3499999999999996
 74
0
 49
6.3499999999999996
 74
0
 49
-6.3499999999999996
 74
0
  0
LTYPE
  5
56
100
AcDbSymbolTableRecord
100
AcDbLinetypeTableRecord
  2
BORDERX2
 70
0
  3
Border (2x) ____  ____  .  ____  ____  .  ___
 72
65
 73
6
 40
88.8999999999999773
 49
25.3999999999999986
 74
0
 49
-12.6999999999999993
 74
0
 49
25.3999999999999986
 74
0
 49
-12.6499999999999986
 74
0
 49
0.1
 74
0
 49
-12.6499999999999986
 74
0
  0
ENDTAB
  0
TABLE
  2
LAYER
  5
2
100
AcDbSymbolTable
 70
7
  0
LAYER
  5
57
100
AcDbSymbolTableRecord
100
AcDbLayerTableRecord
  2
Ejes de revoluci\U+00f3n
 70
0
 62
6
420
16711935
  6
ACAD_ISO04W100
370
20
390
F
  0
LAYER
  5
58
100
AcDbSymbolTableRecord
100
AcDbLayerTableRecord
  2
Contornos Ocultos
 70
0
 62
252
420
10526884
  6
ACAD_ISO02W100
370
30
390
F
  0
LAYER
  5
59
100
AcDbSymbolTableRecord
100
AcDbLayerTableRecord
  2
Referencias 2
 70
0
 62
3
420
65280
  6
Continuous
370
25
390
F
  0
LAYER
  5
5A
100
AcDbSymbolTableRecord
100
AcDbLayerTableRecord
  2
Referencias
 70
1
 62
2
420
16776960
  6
Continuous
370
25
390
F
  0
LAYER
  5
5B
100
AcDbSymbolTableRecord
100
AcDbLayerTableRecord
  2
Contornos Visibles
 70
0
 62
7
420
16777215
  6
Continuous
370
50
390
F
  0
LAYER
  5
5C
100
AcDbSymbolTableRecord
100
AcDbLayerTableRecord
  2
Cotas
 70
0
 62
1
420
16711680
  6
Continuous
370
20
390
F
  0
LAYER
  5
10
100
AcDbSymbolTableRecord
100
AcDbLayerTableRecord
  2
0
 70
0
 62
7
420
16777215
  6
Continuous
370
25
390
F
  0
ENDTAB
  0
TABLE
  2
STYLE
  5
3
100
AcDbSymbolTable
 70
1
  0
STYLE
  5
5D
100
AcDbSymbolTableRecord
100
AcDbTextStyleTableRecord
  2
Standard
 70
0
 40
0.0
 41
1.0
 50
0.0
 71
0
 42
2.5
  3

  4

1001
ACAD
1000
txt
1071
0
  0
ENDTAB
  0
TABLE
  2
VIEW
  5
6
100
AcDbSymbolTable
 70
0
  0
ENDTAB
  0
TABLE
  2
UCS
  5
7
100
AcDbSymbolTable
 70
0
  0
ENDTAB
  0
TABLE
  2
APPID
  5
9
100
AcDbSymbolTable
 70
1
  0
APPID
  5
12
100
AcDbSymbolTableRecord
100
AcDbRegAppTableRecord
  2
ACAD
 70
0
  0
APPID
  5
5E
100
AcDbSymbolTableRecord
100
AcDbRegAppTableRecord
  2
QCAD
 70
0
  0
ENDTAB
  0
TABLE
  2
DIMSTYLE
  5
A
100
AcDbSymbolTable
 70
1
100
AcDbDimStyleTable
 71
0
  0
DIMSTYLE
105
27
100
AcDbSymbolTableRecord
100
AcDbDimStyleTableRecord
  2
Standard
 41
2.5
 42
0.625
 43
3.75
 44
1.25
 70
0
 73
0
 74
0
 77
1
 78
8
140
2.5
141
2.5
143
0.03937007874016
147
0.625
171
3
172
1
271
2
272
2
274
3
278
44
283
0
284
8
340
5D
  0
ENDTAB
  0
TABLE
  2
BLOCK_RECORD
  5
1
100
AcDbSymbolTable
 70
1
  0
BLOCK_RECORD
  5
1F
100
AcDbSymbolTableRecord
100
AcDbBlockTableRecord
  2
*Model_Space
340
22
  0
BLOCK_RECORD
  5
1B
100
AcDbSymbolTableRecord
100
AcDbBlockTableRecord
  2
*Paper_Space
340
1E
  0
BLOCK_RECORD
  5
23
100
AcDbSymbolTableRecord
100
AcDbBlockTableRecord
  2
*Paper_Space0
340
26
  0
ENDTAB
  0
ENDSEC
  0
SECTION
  2
BLOCKS
  0
BLOCK
  5
20
100
AcDbEntity
  8
0
100
AcDbBlockBegin
  2
*Model_Space
 70
0
 10
0.0
 20
0.0
 30
0.0
  3
*Model_Space
  1

  0
ENDBLK
  5
21
100
AcDbEntity
  8
0
100
AcDbBlockEnd
  0
BLOCK
  5
1C
100
AcDbEntity
 67
1
  8
0
100
AcDbBlockBegin
  2
*Paper_Space
 70
0
 10
0.0
 20
0.0
 30
0.0
  3
*Paper_Space
  1

  0
ENDBLK
  5
1D
100
AcDbEntity
 67
1
  8
0
100
AcDbBlockEnd
  0
BLOCK
  5
24
100
AcDbEntity
  8
0
100
AcDbBlockBegin
  2
*Paper_Space0
 70
0
 10
0.0
 20
0.0
 30
0.0
  3
*Paper_Space0
  1

  0
ENDBLK
  5
25
100
AcDbEntity
  8
0
100
AcDbBlockEnd
  0
ENDSEC
  0
SECTION
  2
ENTITIES
  0
IMAGE
  5
5F
100
AcDbEntity
  8
0
 62
256
370
-1
 48
1.0
  6
BYLAYER
100
AcDbRasterImage
 90
0
 10
2281.7805952139310648
 20
667.626945242499005
 30
0.0
 11
0.09765625
 21
0.0
 31
0.0
 12
0.0
 22
0.09765625
 32
0.0
 13
200.0
 23
141.0
340
60
 70
15
280
0
281
50
282
50
283
0
  0
ARC
  5
61
100
AcDbEntity
  8
Contornos Visibles
 62
256
370
-1
 48
1.0
  6
BYLAYER
100
AcDbCircle
 10
2759.8504527275126748
 20
741.4229635164074352
 30
0.0
 40
9.5
100
AcDbArc
 50
108.4084801705858041
 51
71.5915198294141817
  0
CIRCLE
  5
62
100
AcDbEntity
  8
Contornos Visibles
 62
256
370
-1
 48
1.0
  6
BYLAYER
100
AcDbCircle
 10
2759.8504527275126748
 20
741.4229635164074352
 30
0.0
 40
19.0
  0
LINE
  5
63
100
AcDbEntity
  8
Contornos Visibles
 62
256
370
-1
 48
1.0
  6
BYLAYER
100
AcDbLine
 10
2756.8504527275126748
 20
754.7229635164073898
 30
0.0
 11
2762.8504527275126748
 21
754.7229635164073898
 31
0.0
  0
LINE
  5
64
100
AcDbEntity
  8
Contornos Visibles
 62
256
370
-1
 48
1.0
  6
BYLAYER
100
AcDbLine
 10
2762.8504527275126748
 20
754.7229635164073898
 30
0.0
 11
2762.8504527275126748
 21
750.4368417050674225
 31
0.0
  0
LINE
  5
65
100
AcDbEntity
  8
Contornos Visibles
 62
256
370
-1
 48
1.0
  6
BYLAYER
100
AcDbLine
 10
2756.8504527275126748
 20
754.7229635164073898
 30
0.0
 11
2756.8504527275126748
 21
750.4368417050674225
 31
0.0
  0
CIRCLE
  5
66
100
AcDbEntity
  8
Ejes de revoluci\U+00f3n
 62
256
370
-1
 48
1.0
  6
BYLAYER
100
AcDbCircle
 10
2759.8504527275126748
 20
741.4229635164074352
 30
0.0
 40
41.0
  0
XLINE
  5
67
100
AcDbEntity
  8
Referencias
 62
256
370
-1
 48
1.0
  6
BYLAYER
100
AcDbLine
 10
2759.8504527275126748
 20
741.4229635164074352
 30
0.0
 11
1.0
 21
0.0
 31
0.0
  0
XLINE
  5
68
100
AcDbEntity
  8
Referencias
 62
256
370
-1
 48
1.0
  6
BYLAYER
100
AcDbLine
 10
2759.8504527275126748
 20
741.4229635164074352
 30
0.0
 11
0.0
 21
1.0
 31
0.0
  0
CIRCLE
  5
69
100
AcDbEntity
  8
Contornos Visibles
 62
256
370
-1
 48
1.0
  6
BYLAYER
100
AcDbCircle
 10
2800.8504527275126748
 20
741.4229635164074352
 30
0.0
 40
9.5
  0
CIRCLE
  5
6A
100
AcDbEntity
  8
Contornos Visibles
 62
256
370
-1
 48
1.0
  6
BYLAYER
100
AcDbCircle
 10
2780.3504527275126748
 20
776.9300050715694397
 30
0.0
 40
9.5
  0
CIRCLE
  5
6B
100
AcDbEntity
  8
Contornos Visibles
 62
256
370
-1
 48
1.0
  6
BYLAYER
100
AcDbCircle
 10
2739.3504527275126748
 20
776.9300050715694397
 30
0.0
 40
9.5
  0
CIRCLE
  5
6C
100
AcDbEntity
  8
Contornos Visibles
 62
256
370
-1
 48
1.0
  6
BYLAYER
100
AcDbCircle
 10
2718.8504527275126748
 20
741.4229635164074352
 30
0.0
 40
9.5
  0
CIRCLE
  5
6D
100
AcDbEntity
  8
Contornos Visibles
 62
256
370
-1
 48
1.0
  6
BYLAYER
100
AcDbCircle
 10
2739.3504527275126748
 20
705.9159219612454308
 30
0.0
 40
9.5
  0
CIRCLE
  5
6E
100
AcDbEntity
  8
Contornos Visibles
 62
256
370
-1
 48
1.0
  6
BYLAYER
100
AcDbCircle
 10
2780.3504527275126748
 20
705.9159219612454308
 30
0.0
 40
9.5
  0
CIRCLE
  5
6F
100
AcDbEntity
  8
Ejes de revoluci\U+00f3n
 62
256
370
-1
 48
1.0
  6
BYLAYER
100
AcDbCircle
 10
2759.8504527275126748
 20
741.4229635164074352
 30
0.0
 40
76.0
  0
LINE
  5
70
100
AcDbEntity
  8
Referencias
 62
256
370
-1
 48
1.0
  6
BYLAYER
100
AcDbLine
 10
2835.8504527275126748
 20
741.4229635164074352
 30
0.0
 11
2835.8504527275126748
 21
760.4229635164074352
 31
0.0
  0
XLINE
  5
71
100
AcDbEntity
  8
Referencias
 62
256
370
-1
 48
1.0
  6
BYLAYER
100
AcDbLine
 10
2835.8504527275126748
 20
760.4229635164074352
 30
0.0
 11
1.0
 21
0.0
 31
0.0
  0
LINE
  5
72
100
AcDbEntity
  8
Contornos Visibles
 62
256
370
-1
 48
1.0
  6
BYLAYER
100
AcDbLine
 10
2835.8504527275126748
 20
741.4229635164074352
 30
0.0
 11
2830.7594180713213063
 21
760.4229635164073215
 31
0.0
  0
LINE
  5
73
100
AcDbEntity
  8
Contornos Visibles
 62
256
370
-1
 48
1.0
  6
BYLAYER
100
AcDbLine
 10
2833.2608155254820304
 20
761.0932109441989724
 30
0.0
 11
2823.4256918115861481
 21
778.1281449153918857
 31
0.0
  0
LINE
  5
74
100
AcDbEntity
  8
Contornos Visibles
 62
256
370
-1
 48
1.0
  6
BYLAYER
100
AcDbLine
 10
2825.6683834151299379
 20
779.4229635164074352
 30
0.0
 11
2811.7594180713213063
 21
793.3319288602159531
 31
0.0
  0
LINE
  5
75
100
AcDbEntity
  8
Contornos Visibles
 62
256
370
-1
 48
1.0
  6
BYLAYER
100
AcDbLine
 10
2813.5905680976902659
 20
795.1630788865850263
 30
0.0
 11
2796.5556341264973526
 21
804.9982026004806812
 31
0.0
  0
LINE
  5
76
100
AcDbEntity
  8
Contornos Visibles
 62
256
370
-1
 48
1.0
  6
BYLAYER
100
AcDbLine
 10
2797.8504527275126748
 20
807.2408942040248121
 30
0.0
 11
2778.8504527275126748
 21
812.3319288602159531
 31
0.0
  0
LINE
  5
77
100
AcDbEntity
  8
Contornos Visibles
 62
256
370
-1
 48
1.0
  6
BYLAYER
100
AcDbLine
 10
2779.5207001553044392
 20
814.8333263143765635
 30
0.0
 11
2759.8504527275126748
 21
814.8333263143765635
 31
0.0
  0
LINE
  5
78
100
AcDbEntity
  8
Contornos Visibles
 62
256
370
-1
 48
1.0
  6
BYLAYER
100
AcDbLine
 10
2694.0325220398954116
 20
779.4229635164074352
 30
0.0
 11
2688.9414873837040432
 21
760.4229635164074352
 31
0.0
  0
LINE
  5
79
100
AcDbEntity
  8
Contornos Visibles
 62
256
370
-1
 48
1.0
  6
BYLAYER
100
AcDbLine
 10
2706.1103373573350837
 20
795.1630788865850263
 30
0.0
 11
2696.2752136434392014
 21
778.128144915392113
 31
0.0
  0
LINE
  5
7A
100
AcDbEntity
  8
Contornos Visibles
 62
256
370
-1
 48
1.0
  6
BYLAYER
100
AcDbLine
 10
2759.8504527275126748
 20
817.4229635164074352
 30
0.0
 11
2740.8504527275126748
 21
812.3319288602160668
 31
0.0
  0
LINE
  5
7B
100
AcDbEntity
  8
Contornos Visibles
 62
256
370
-1
 48
1.0
  6
BYLAYER
100
AcDbLine
 10
2686.4400899295433192
 20
761.0932109441991997
 30
0.0
 11
2686.4400899295433192
 21
741.4229635164074352
 31
0.0
  0
LINE
  5
7C
100
AcDbEntity
  8
Contornos Visibles
 62
256
370
-1
 48
1.0
  6
BYLAYER
100
AcDbLine
 10
2721.8504527275126748
 20
807.2408942040246984
 30
0.0
 11
2707.9414873837040432
 21
793.3319288602160668
 31
0.0
  0
LINE
  5
7D
100
AcDbEntity
  8
Contornos Visibles
 62
256
370
-1
 48
1.0
  6
BYLAYER
100
AcDbLine
 10
2740.1802052997209103
 20
814.8333263143767908
 30
0.0
 11
2723.1452713285284517
 21
804.9982026004809086
 31
0.0
  0
LINE
  5
7E
100
AcDbEntity
  8
Contornos Visibles
 62
256
370
-1
 48
1.0
  6
BYLAYER
100
AcDbLine
 10
2686.4400899295433192
 20
721.7527160886158981
 30
0.0
 11
2696.2752136434392014
 21
704.7177821174229848
 31
0.0
  0
LINE
  5
7F
100
AcDbEntity
  8
Contornos Visibles
 62
256
370
-1
 48
1.0
  6
BYLAYER
100
AcDbLine
 10
2721.8504527275126748
 20
675.6050328287900584
 30
0.0
 11
2740.8504527275126748
 21
670.5139981725989173
 31
0.0
  0
LINE
  5
80
100
AcDbEntity
  8
Contornos Visibles
 62
256
370
-1
 48
1.0
  6
BYLAYER
100
AcDbLine
 10
2706.1103373573350837
 20
687.6828481462298441
 30
0.0
 11
2723.145271328527997
 21
677.8477244323341893
 31
0.0
  0
LINE
  5
81
100
AcDbEntity
  8
Contornos Visibles
 62
256
370
-1
 48
1.0
  6
BYLAYER
100
AcDbLine
 10
2759.8504527275126748
 20
665.4229635164074352
 30
0.0
 11
2778.8504527275126748
 21
670.5139981725988036
 31
0.0
  0
LINE
  5
82
100
AcDbEntity
  8
Contornos Visibles
 62
256
370
-1
 48
1.0
  6
BYLAYER
100
AcDbLine
 10
2813.5905680976902659
 20
687.6828481462298441
 30
0.0
 11
2823.4256918115861481
 21
704.7177821174227574
 31
0.0
  0
LINE
  5
83
100
AcDbEntity
  8
Contornos Visibles
 62
256
370
-1
 48
1.0
  6
BYLAYER
100
AcDbLine
 10
2825.6683834151299379
 20
703.4229635164074352
 30
0.0
 11
2830.7594180713213063
 21
722.4229635164074352
 31
0.0
  0
LINE
  5
84
100
AcDbEntity
  8
Contornos Visibles
 62
256
370
-1
 48
1.0
  6
BYLAYER
100
AcDbLine
 10
2779.5207001553044392
 20
668.0126007184380796
 30
0.0
 11
2796.5556341264968978
 21
677.8477244323339619
 31
0.0
  0
LINE
  5
85
100
AcDbEntity
  8
Contornos Visibles
 62
256
370
-1
 48
1.0
  6
BYLAYER
100
AcDbLine
 10
2833.2608155254820304
 20
721.7527160886156707
 30
0.0
 11
2833.2608155254820304
 21
741.4229635164074352
 31
0.0
  0
LINE
  5
86
100
AcDbEntity
  8
Contornos Visibles
 62
256
370
-1
 48
1.0
  6
BYLAYER
100
AcDbLine
 10
2797.8504527275126748
 20
675.6050328287901721
 30
0.0
 11
2811.7594180713213063
 21
689.5139981725988036
 31
0.0
  0
LINE
  5
87
100
AcDbEntity
  8
Contornos Visibles
 62
256
370
-1
 48
1.0
  6
BYLAYER
100
AcDbLine
 10
2683.8504527275126748
 20
741.4229635164074352
 30
0.0
 11
2688.9414873837040432
 21
722.4229635164075489
 31
0.0
  0
LINE
  5
88
100
AcDbEntity
  8
Contornos Visibles
 62
256
370
-1
 48
1.0
  6
BYLAYER
100
AcDbLine
 10
2740.1802052997209103
 20
668.012600718438307
 30
0.0
 11
2759.8504527275126748
 21
668.012600718438307
 31
0.0
  0
LINE
  5
89
100
AcDbEntity
  8
Contornos Visibles
 62
256
370
-1
 48
1.0
  6
BYLAYER
100
AcDbLine
 10
2694.0325220398954116
 20
703.4229635164074352
 30
0.0
 11
2707.9414873837040432
 21
689.5139981725989173
 31
0.0
  0
LINE
  5
8A
100
AcDbEntity
  8
Contornos Visibles
 62
256
370
-1
 48
1.0
  6
BYLAYER
100
AcDbLine
 10
2830.7594180713213063
 20
760.4229635164073215
 30
0.0
 11
2833.2608155254815756
 21
761.0932109441995408
 31
0.0
  0
LINE
  5
8B
100
AcDbEntity
  8
Contornos Visibles
 62
256
370
-1
 48
1.0
  6
BYLAYER
100
AcDbLine
 10
2740.8504527275126748
 20
812.3319288602160668
 30
0.0
 11
2740.1802052997204555
 21
814.8333263143763361
 31
0.0
  0
LINE
  5
8C
100
AcDbEntity
  8
Contornos Visibles
 62
256
370
-1
 48
1.0
  6
BYLAYER
100
AcDbLine
 10
2778.8504527275126748
 20
670.5139981725988036
 30
0.0
 11
2779.520700155304894
 21
668.0126007184385344
 31
0.0
  0
LINE
  5
8D
100
AcDbEntity
  8
Contornos Visibles
 62
256
370
-1
 48
1.0
  6
BYLAYER
100
AcDbLine
 10
2688.9414873837040432
 20
722.4229635164075489
 30
0.0
 11
2686.4400899295437739
 21
721.7527160886153297
 31
0.0
  0
LINE
  5
8E
100
AcDbEntity
  8
Contornos Visibles
 62
256
370
-1
 48
1.0
  6
BYLAYER
100
AcDbLine
 10
2823.4256918115861481
 20
778.1281449153918857
 30
0.0
 11
2825.6683834151299379
 21
779.4229635164072079
 31
0.0
  0
LINE
  5
8F
100
AcDbEntity
  8
Contornos Visibles
 62
256
370
-1
 48
1.0
  6
BYLAYER
100
AcDbLine
 10
2723.1452713285284517
 20
804.9982026004809086
 30
0.0
 11
2721.8504527275131295
 21
807.2408942040246984
 31
0.0
  0
LINE
  5
90
100
AcDbEntity
  8
Contornos Visibles
 62
256
370
-1
 48
1.0
  6
BYLAYER
100
AcDbLine
 10
2796.5556341264968978
 20
677.8477244323339619
 30
0.0
 11
2797.85045272751222
 21
675.6050328287901721
 31
0.0
  0
LINE
  5
91
100
AcDbEntity
  8
Contornos Visibles
 62
256
370
-1
 48
1.0
  6
BYLAYER
100
AcDbLine
 10
2811.7594180713213063
 20
793.3319288602159531
 30
0.0
 11
2813.5905680976902659
 21
795.1630788865849127
 31
0.0
  0
LINE
  5
92
100
AcDbEntity
  8
Contornos Visibles
 62
256
370
-1
 48
1.0
  6
BYLAYER
100
AcDbLine
 10
2707.9414873837040432
 20
793.3319288602160668
 30
0.0
 11
2706.1103373573350837
 21
795.1630788865850263
 31
0.0
  0
LINE
  5
93
100
AcDbEntity
  8
Contornos Visibles
 62
256
370
-1
 48
1.0
  6
BYLAYER
100
AcDbLine
 10
2811.7594180713213063
 20
689.5139981725988036
 30
0.0
 11
2813.5905680976902659
 21
687.6828481462298441
 31
0.0
  0
LINE
  5
94
100
AcDbEntity
  8
Contornos Visibles
 62
256
370
-1
 48
1.0
  6
BYLAYER
100
AcDbLine
 10
2707.9414873837040432
 20
689.5139981725989173
 30
0.0
 11
2706.1103373573350837
 21
687.6828481462299578
 31
0.0
  0
LINE
  5
95
100
AcDbEntity
  8
Contornos Visibles
 62
256
370
-1
 48
1.0
  6
BYLAYER
100
AcDbLine
 10
2796.5556341264973526
 20
804.9982026004806812
 30
0.0
 11
2797.8504527275126748
 21
807.2408942040248121
 31
0.0
  0
LINE
  5
96
100
AcDbEntity
  8
Contornos Visibles
 62
256
370
-1
 48
1.0
  6
BYLAYER
100
AcDbLine
 10
2696.2752136434392014
 20
778.128144915392113
 30
0.0
 11
2694.0325220398954116
 21
779.4229635164074352
 31
0.0
  0
LINE
  5
97
100
AcDbEntity
  8
Contornos Visibles
 62
256
370
-1
 48
1.0
  6
BYLAYER
100
AcDbLine
 10
2823.4256918115861481
 20
704.7177821174227574
 30
0.0
 11
2825.6683834151299379
 21
703.4229635164074352
 31
0.0
  0
LINE
  5
98
100
AcDbEntity
  8
Contornos Visibles
 62
256
370
-1
 48
1.0
  6
BYLAYER
100
AcDbLine
 10
2723.145271328527997
 20
677.8477244323341893
 30
0.0
 11
2721.8504527275126748
 21
675.6050328287900584
 31
0.0
  0
LINE
  5
99
100
AcDbEntity
  8
Contornos Visibles
 62
256
370
-1
 48
1.0
  6
BYLAYER
100
AcDbLine
 10
2778.8504527275126748
 20
812.3319288602159531
 30
0.0
 11
2779.5207001553044392
 21
814.8333263143765635
 31
0.0
  0
LINE
  5
9A
100
AcDbEntity
  8
Contornos Visibles
 62
256
370
-1
 48
1.0
  6
BYLAYER
100
AcDbLine
 10
2688.9414873837040432
 20
760.4229635164074352
 30
0.0
 11
2686.4400899295433192
 21
761.0932109441991997
 31
0.0
  0
LINE
  5
9B
100
AcDbEntity
  8
Contornos Visibles
 62
256
370
-1
 48
1.0
  6
BYLAYER
100
AcDbLine
 10
2830.7594180713213063
 20
722.4229635164074352
 30
0.0
 11
2833.2608155254820304
 21
721.7527160886156707
 31
0.0
  0
LINE
  5
9C
100
AcDbEntity
  8
Contornos Visibles
 62
256
370
-1
 48
1.0
  6
BYLAYER
100
AcDbLine
 10
2740.8504527275126748
 20
670.5139981725989173
 30
0.0
 11
2740.1802052997209103
 21
668.012600718438307
 31
0.0
  0
LINE
  5
9D
100
AcDbEntity
  8
Contornos Visibles
 62
256
370
-1
 48
1.0
  6
BYLAYER
100
AcDbLine
 10
2759.8504527275126748
 20
817.4229635164074352
 30
0.0
 11
2759.8504527275126748
 21
814.8333263143765635
 31
0.0
  0
LINE
  5
9E
100
AcDbEntity
  8
Contornos Visibles
 62
256
370
-1
 48
1.0
  6
BYLAYER
100
AcDbLine
 10
2686.4400899295433192
 20
741.4229635164074352
 30
0.0
 11
2683.8504527275126748
 21
741.4229635164074352
 31
0.0
  0
LINE
  5
9F
100
AcDbEntity
  8
Contornos Visibles
 62
256
370
-1
 48
1.0
  6
BYLAYER
100
AcDbLine
 10
2696.2752136434392014
 20
704.7177821174229848
 30
0.0
 11
2694.0325220398954116
 21
703.4229635164074352
 31
0.0
  0
LINE
  5
A0
100
AcDbEntity
  8
Contornos Visibles
 62
256
370
-1
 48
1.0
  6
BYLAYER
100
AcDbLine
 10
2759.8504527275126748
 20
668.012600718438307
 30
0.0
 11
2759.8504527275126748
 21
665.4229635164074352
 31
0.0
  0
LINE
  5
A1
100
AcDbEntity
  8
Contornos Visibles
 62
256
370
-1
 48
1.0
  6
BYLAYER
100
AcDbLine
 10
2833.2608155254820304
 20
741.4229635164074352
 30
0.0
 11
2835.8504527275126748
 21
741.4229635164074352
 31
0.0
  0
DIMENSION
  5
A2
100
AcDbEntity
  8
Cotas
 62
256
370
-1
 48
1.0
  6
BYLAYER
100
AcDbDimension
 10
2822.8425483771738982
 20
783.9434983867961364
 30
0.0
 11
2814.3473119761742964
 21
782.2356122240337299
 31
0.0
 70
131
 71
8
 72
2
 74
0
 75
0
 41
1.0
 42
0.0
  1
\U+00f8<>
  3
Standard
100
AcDbDiametricDimension
 15
2696.8583570778514513
 25
698.9024286460187341
 35
0.0
 40
0.0
1001
ACAD
1000
DSTYLE
1002
{
1070
279
1070
2
1070
144
1040
1.0
1070
40
1040
1.0
1002
}
  0
DIMENSION
  5
A3
100
AcDbEntity
  8
Cotas
 62
256
370
-1
 48
1.0
  6
BYLAYER
100
AcDbDimension
 10
2840.2637444103220332
 20
741.4229635164074352
 30
0.0
 11
2838.3887444103220332
 21
750.9229635164074352
 31
0.0
 70
0
 71
8
 72
2
 74
0
 75
0
 41
1.0
 42
0.0
  1

  3
Standard
100
AcDbAlignedDimension
 13
2835.8504527275126748
 23
741.4229635164074352
 33
0.0
 14
2835.8504527275126748
 24
760.4229635164074352
 34
0.0
 50
90.0
100
AcDbRotatedDimension
1001
ACAD
1000
DSTYLE
1002
{
1070
144
1040
1.0
1070
40
1040
1.0
1002
}
  0
DIMENSION
  5
A4
100
AcDbEntity
  8
Cotas
 62
256
370
-1
 48
1.0
  6
BYLAYER
100
AcDbDimension
 10
2736.8926177306170757
 20
754.7229635164072761
 30
0.0
 11
2735.0176177306170757
 21
743.3229635164072988
 31
0.0
 70
0
 71
8
 72
2
 74
0
 75
0
 41
1.0
 42
0.0
  1

  3
Standard
100
AcDbAlignedDimension
 13
2759.8504527275126748
 23
754.7229635164072761
 33
0.0
 14
2759.8504527275126748
 24
731.9229635164074352
 34
0.0
 50
90.0
100
AcDbRotatedDimension
1001
ACAD
1000
DSTYLE
1002
{
1070
144
1040
1.0
1070
40
1040
1.0
1002
}
  0
DIMENSION
  5
A5
100
AcDbEntity
  8
Cotas
 62
256
370
-1
 48
1.0
  6
BYLAYER
100
AcDbDimension
 10
2828.649253370790575
 20
741.4229635164074352
 30
0.0
 11
2826.478758924369231
 21
748.6141170946347074
 31
0.0
 70
2
 71
8
 72
2
 74
0
 75
0
 41
1.0
 42
0.0
  1

  3
Standard
100
AcDb2LineAngularDimension
 13
2833.2783707826720274
 23
751.0221040157829293
 33
0.0
 14
2835.8504527275126748
 24
741.4229635164074352
 34
0.0
 15
2835.8504527275126748
 25
741.4229635164074352
 35
0.0
 16
2826.3154699637484555
 26
744.2235362350584182
 36
0.0
  0
LINE
  5
A6
100
AcDbEntity
  8
Ejes de revoluci\U+00f3n
 62
256
370
-1
 48
1.0
  6
BYLAYER
100
AcDbLine
 10
2759.8504527275126748
 20
665.4229635164073215
 30
0.0
 11
2759.8504527275126748
 21
817.4229635164073215
 31
0.0
  0
LINE
  5
A7
100
AcDbEntity
  8
Ejes de revoluci\U+00f3n
 62
256
370
-1
 48
1.0
  6
BYLAYER
100
AcDbLine
 10
2683.85045272751222
 20
741.4229635164073215
 30
0.0
 11
2835.8504527275126748
 21
741.4229635164074352
 31
0.0
  0
DIMENSION
  5
A8
100
AcDbEntity
  8
Cotas
 62
256
370
-1
 48
1.0
  6
BYLAYER
100
AcDbDimension
 10
2788.747125075240092
 20
781.3736402371639542
 30
0.0
 11
2784.9366747890171609
 21
781.131339465489873
 31
0.0
 70
131
 71
8
 72
2
 74
0
 75
0
 41
1.0
 42
0.0
  1
\U+00f8<>
  3
Standard
100
AcDbDiametricDimension
 15
2771.9537803797852575
 25
772.4863699059749251
 35
0.0
 40
0.0
1001
ACAD
1000
DSTYLE
1002
{
1070
279
1070
2
1070
144
1040
1.0
1070
40
1040
1.0
1002
}
  0
DIMENSION
  5
A9
100
AcDbEntity
  8
Cotas
 62
256
370
-1
 48
1.0
  6
BYLAYER
100
AcDbDimension
 10
2722.7906117731067752
 20
758.9605856024866171
 30
0.0
 11
2729.74658257703868
 21
758.0325085802768399
 31
0.0
 70
131
 71
8
 72
2
 74
0
 75
0
 41
1.0
 42
0.0
  1
\U+00f8<>
  3
Standard
100
AcDbDiametricDimension
 15
2796.9102936819185743
 25
723.8853414303282534
 35
0.0
 40
0.0
1001
ACAD
1000
DSTYLE
1002
{
1070
279
1070
2
1070
144
1040
1.0
1070
40
1040
1.0
1002
}
  0
DIMENSION
  5
AA
100
AcDbEntity
  8
Cotas
 62
256
370
-1
 48
1.0
  6
BYLAYER
100
AcDbDimension
 10
2773.9316177978175801
 20
728.6667575654664688
 30
0.0
 11
2771.5324400640893145
 21
733.1879262292228532
 31
0.0
 70
131
 71
8
 72
2
 74
0
 75
0
 41
1.0
 42
0.0
  1
\U+00f8<>
  3
Standard
100
AcDbDiametricDimension
 15
2745.7692876572077694
 25
754.1791694673484017
 35
0.0
 40
0.0
1001
ACAD
1000
DSTYLE
1002
{
1070
279
1070
2
1070
144
1040
1.0
1070
40
1040
1.0
1002
}
  0
DIMENSION
  5
AB
100
AcDbEntity
  8
Cotas
 62
256
370
-1
 48
1.0
  6
BYLAYER
100
AcDbDimension
 10
2767.7244646837202708
 20
746.7380303752059945
 30
0.0
 11
2763.092503272335307
 21
745.9490643804276715
 31
0.0
 70
131
 71
8
 72
2
 74
0
 75
0
 41
1.0
 42
0.0
  1
\U+00f8<>
  3
Standard
100
AcDbDiametricDimension
 15
2751.9764407713050787
 25
736.107896657608876
 35
0.0
 40
0.0
1001
ACAD
1000
DSTYLE
1002
{
1070
279
1070
2
1070
144
1040
1.0
1070
40
1040
1.0
1002
}
  0
LINE
  5
AC
100
AcDbEntity
  8
Ejes de revoluci\U+00f3n
 62
256
370
-1
 48
1.0
  6
BYLAYER
100
AcDbLine
 10
2775.1004527275126748
 20
767.8367383318328621
 30
0.0
 11
2785.6004527275126748
 21
786.0232718113060173
 31
0.0
  0
LINE
  5
AD
100
AcDbEntity
  8
Ejes de revoluci\U+00f3n
 62
256
370
-1
 48
1.0
  6
BYLAYER
100
AcDbLine
 10
2744.6004527275126748
 20
767.8367383318328621
 30
0.0
 11
2734.1004527275126748
 21
786.0232718113060173
 31
0.0
  0
LINE
  5
AE
100
AcDbEntity
  8
Ejes de revoluci\U+00f3n
 62
256
370
-1
 48
1.0
  6
BYLAYER
100
AcDbLine
 10
2744.6004527275126748
 20
715.0091887009820084
 30
0.0
 11
2734.1004527275126748
 21
696.8226552215088532
 31
0.0
  0
LINE
  5
AF
100
AcDbEntity
  8
Ejes de revoluci\U+00f3n
 62
256
370
-1
 48
1.0
  6
BYLAYER
100
AcDbLine
 10
2775.1004527275126748
 20
715.0091887009820084
 30
0.0
 11
2785.6004527275126748
 21
696.8226552215088532
 31
0.0
  0
ENDSEC
  0
SECTION
  2
OBJECTS
  0
DICTIONARY
  5
C
100
AcDbDictionary
280
0
281
1
  3
ACAD_GROUP
350
D
  3
ACAD_LAYOUT
350
1A
  3
ACAD_MLINESTYLE
350
17
  3
ACAD_PLOTSETTINGS
350
19
  3
ACAD_PLOTSTYLENAME
350
E
  3
AcDbVariableDictionary
350
B0
  3
QCAD_OBJECTS
350
B1
  0
DICTIONARY
  5
D
100
AcDbDictionary
280
0
281
1
  0
ACDBDICTIONARYWDFLT
  5
E
100
AcDbDictionary
281
1
  3
Normal
350
F
100
AcDbDictionaryWithDefault
340
F
  0
ACDBPLACEHOLDER
  5
F
  0
DICTIONARY
  5
17
100
AcDbDictionary
280
0
281
1
  3
Standard
350
18
  0
MLINESTYLE
  5
18
100
AcDbMlineStyle
  2
STANDARD
 70
0
  3

 62
256
 51
90.0
 52
90.0
 71
2
 49
0.5
 62
256
  6
BYLAYER
 49
-0.5
 62
256
  6
BYLAYER
  0
DICTIONARY
  5
19
100
AcDbDictionary
280
0
281
1
  0
DICTIONARY
  5
1A
100
AcDbDictionary
281
1
  3
Layout1
350
1E
  3
Layout2
350
26
  3
Model
350
22
  0
LAYOUT
  5
1E
100
AcDbPlotSettings
  1

  2
none_device
  4

  6

 40
0.0
 41
0.0
 42
0.0
 43
0.0
 44
0.0
 45
0.0
 46
0.0
 47
0.0
 48
0.0
 49
0.0
140
0.0
141
0.0
142
1.0
143
1.0
 70
688
 72
0
 73
0
 74
5
  7

 75
16
147
1.0
148
0.0
149
0.0
100
AcDbLayout
  1
Layout1
 70
1
 71
1
 10
0.0
 20
0.0
 11
420.0
 21
297.0
 12
0.0
 22
0.0
 32
0.0
 14
100000000000000000000.0
 24
100000000000000000000.0
 34
100000000000000000000.0
 15
-100000000000000000000.0
 25
-100000000000000000000.0
 35
-100000000000000000000.0
146
0.0
 13
0.0
 23
0.0
 33
0.0
 16
1.0
 26
0.0
 36
0.0
 17
0.0
 27
1.0
 37
0.0
 76
0
330
1B
  0
LAYOUT
  5
22
100
AcDbPlotSettings
  1

  2
none_device
  4

  6

 40
0.0
 41
0.0
 42
0.0
 43
0.0
 44
0.0
 45
0.0
 46
0.0
 47
0.0
 48
0.0
 49
0.0
140
0.0
141
0.0
142
1.0
143
1.0
 70
1712
 72
0
 73
0
 74
0
  7

 75
0
147
1.0
148
0.0
149
0.0
100
AcDbLayout
  1
Model
 70
1
 71
0
 10
0.0
 20
0.0
 11
12.0
 21
9.0
 12
0.0
 22
0.0
 32
0.0
 14
0.0
 24
0.0
 34
0.0
 15
0.0
 25
0.0
 35
0.0
146
0.0
 13
0.0
 23
0.0
 33
0.0
 16
1.0
 26
0.0
 36
0.0
 17
0.0
 27
1.0
 37
0.0
 76
0
330
1F
  0
LAYOUT
  5
26
100
AcDbPlotSettings
  1

  2
none_device
  4

  6

 40
0.0
 41
0.0
 42
0.0
 43
0.0
 44
0.0
 45
0.0
 46
0.0
 47
0.0
 48
0.0
 49
0.0
140
0.0
141
0.0
142
1.0
143
1.0
 70
688
 72
0
 73
0
 74
5
  7

 75
16
147
1.0
148
0.0
149
0.0
100
AcDbLayout
  1
Layout2
 70
1
 71
2
 10
0.0
 20
0.0
 11
12.0
 21
9.0
 12
0.0
 22
0.0
 32
0.0
 14
0.0
 24
0.0
 34
0.0
 15
0.0
 25
0.0
 35
0.0
146
0.0
 13
0.0
 23
0.0
 33
0.0
 16
1.0
 26
0.0
 36
0.0
 17
0.0
 27
1.0
 37
0.0
 76
0
330
23
  0
DICTIONARY
  5
B0
100
AcDbDictionary
281
1
  3
DIMASSOC
350
B3
  3
HIDETEXT
350
B2
  0
DICTIONARYVAR
  5
B2
100
DictionaryVariables
280
0
  1
2
  0
DICTIONARYVAR
  5
B3
100
DictionaryVariables
280
0
  1
1
  0
DICTIONARY
  5
B1
100
AcDbDictionary
281
1
  3
ColorSettings/BackgroundColor
350
B4
  3
ColorSettings/ColorMode
350
B5
  3
Grid/DisplayGrid00
350
B6
  3
Grid/DisplayGrid01
350
B7
  3
Grid/DisplayGrid02
350
B8
  3
Grid/DisplayGrid03
350
B9
  3
Grid/GridSpacingX00
350
BA
  3
Grid/GridSpacingX01
350
BB
  3
Grid/GridSpacingX02
350
BC
  3
Grid/GridSpacingX03
350
BD
  3
Grid/GridSpacingY00
350
BE
  3
Grid/GridSpacingY01
350
BF
  3
Grid/GridSpacingY02
350
C0
  3
Grid/GridSpacingY03
350
C1
  3
Grid/IsometricGrid00
350
C2
  3
Grid/IsometricGrid01
350
C3
  3
Grid/IsometricGrid02
350
C4
  3
Grid/IsometricGrid03
350
C5
  3
Grid/IsometricProjection00
350
C6
  3
Grid/IsometricProjection01
350
C7
  3
Grid/IsometricProjection02
350
C8
  3
Grid/IsometricProjection03
350
C9
  3
Grid/MetaGridSpacingX00
350
CA
  3
Grid/MetaGridSpacingX01
350
CB
  3
Grid/MetaGridSpacingX02
350
CC
  3
Grid/MetaGridSpacingX03
350
CD
  3
Grid/MetaGridSpacingY00
350
CE
  3
Grid/MetaGridSpacingY01
350
CF
  3
Grid/MetaGridSpacingY02
350
D0
  3
Grid/MetaGridSpacingY03
350
D1
  3
MultiPageSettings/Columns
350
D2
  3
MultiPageSettings/GlueMarginsBottom
350
D3
  3
MultiPageSettings/GlueMarginsLeft
350
D4
  3
MultiPageSettings/GlueMarginsRight
350
D5
  3
MultiPageSettings/GlueMarginsTop
350
D6
  3
MultiPageSettings/PrintCropMarks
350
D7
  3
MultiPageSettings/Rows
350
D8
  3
PageSettings/OffsetX
350
D9
  3
PageSettings/OffsetY
350
DA
  3
PageSettings/PageOrientation
350
DB
  3
PageSettings/PaperHeight
350
DC
  3
PageSettings/PaperWidth
350
DD
  3
PageSettings/Scale
350
DE
  3
PageSettings/ShowPaperBorders
350
DF
  3
PageTagSettings/EnablePageTags
350
E0
  3
PageTagSettings/TagAlignment
350
E1
  3
PageTagSettings/TagFont
350
E2
  3
PageTagSettings/TagPosition
350
E3
  3
QCADVersion
350
E4
  3
UnitSettings/PaperUnit
350
E5
  3
ViewportCenter
350
E6
  3
ViewportHeight
350
E7
  3
ViewportWidth
350
E8
  0
XRECORD
  5
B4
330
B1
100
AcDbXrecord
280
1
1000
Blanca
  0
XRECORD
  5
B5
330
B1
100
AcDbXrecord
280
1
1000
FullColor
  0
XRECORD
  5
B6
330
B1
100
AcDbXrecord
280
1
290
0
  0
XRECORD
  5
B7
330
B1
100
AcDbXrecord
280
1
290
1
  0
XRECORD
  5
B8
330
B1
100
AcDbXrecord
280
1
290
1
  0
XRECORD
  5
B9
330
B1
100
AcDbXrecord
280
1
290
1
  0
XRECORD
  5
BA
330
B1
100
AcDbXrecord
280
1
1000
auto
  0
XRECORD
  5
BB
330
B1
100
AcDbXrecord
280
1
1000
auto
  0
XRECORD
  5
BC
330
B1
100
AcDbXrecord
280
1
1000
auto
  0
XRECORD
  5
BD
330
B1
100
AcDbXrecord
280
1
1000
auto
  0
XRECORD
  5
BE
330
B1
100
AcDbXrecord
280
1
1000
auto
  0
XRECORD
  5
BF
330
B1
100
AcDbXrecord
280
1
1000
auto
  0
XRECORD
  5
C0
330
B1
100
AcDbXrecord
280
1
1000
auto
  0
XRECORD
  5
C1
330
B1
100
AcDbXrecord
280
1
1000
auto
  0
XRECORD
  5
C2
330
B1
100
AcDbXrecord
280
1
290
0
  0
XRECORD
  5
C3
330
B1
100
AcDbXrecord
280
1
290
0
  0
XRECORD
  5
C4
330
B1
100
AcDbXrecord
280
1
290
0
  0
XRECORD
  5
C5
330
B1
100
AcDbXrecord
280
1
290
0
  0
XRECORD
  5
C6
330
B1
100
AcDbXrecord
280
1
 90
65537
  0
XRECORD
  5
C7
330
B1
100
AcDbXrecord
280
1
 90
65537
  0
XRECORD
  5
C8
330
B1
100
AcDbXrecord
280
1
 90
65537
  0
XRECORD
  5
C9
330
B1
100
AcDbXrecord
280
1
 90
65537
  0
XRECORD
  5
CA
330
B1
100
AcDbXrecord
280
1
1000
auto
  0
XRECORD
  5
CB
330
B1
100
AcDbXrecord
280
1
1000
auto
  0
XRECORD
  5
CC
330
B1
100
AcDbXrecord
280
1
1000
auto
  0
XRECORD
  5
CD
330
B1
100
AcDbXrecord
280
1
1000
auto
  0
XRECORD
  5
CE
330
B1
100
AcDbXrecord
280
1
1000
1
  0
XRECORD
  5
CF
330
B1
100
AcDbXrecord
280
1
1000
auto
  0
XRECORD
  5
D0
330
B1
100
AcDbXrecord
280
1
1000
auto
  0
XRECORD
  5
D1
330
B1
100
AcDbXrecord
280
1
1000
auto
  0
XRECORD
  5
D2
330
B1
100
AcDbXrecord
280
1
 90
1
  0
XRECORD
  5
D3
330
B1
100
AcDbXrecord
280
1
 40
10.0
  0
XRECORD
  5
D4
330
B1
100
AcDbXrecord
280
1
 40
10.0
  0
XRECORD
  5
D5
330
B1
100
AcDbXrecord
280
1
 40
10.0
  0
XRECORD
  5
D6
330
B1
100
AcDbXrecord
280
1
 40
10.0
  0
XRECORD
  5
D7
330
B1
100
AcDbXrecord
280
1
290
0
  0
XRECORD
  5
D8
330
B1
100
AcDbXrecord
280
1
 90
1
  0
XRECORD
  5
D9
330
B1
100
AcDbXrecord
280
1
 40
793.1665914866936191
  0
XRECORD
  5
DA
330
B1
100
AcDbXrecord
280
1
 40
306.6308471493692309
  0
XRECORD
  5
DB
330
B1
100
AcDbXrecord
280
1
1000
Portrait
  0
XRECORD
  5
DC
330
B1
100
AcDbXrecord
280
1
 40
279.3999999999999773
  0
XRECORD
  5
DD
330
B1
100
AcDbXrecord
280
1
 40
215.9000000000000057
  0
XRECORD
  5
DE
330
B1
100
AcDbXrecord
280
1
 90
1
  0
XRECORD
  5
DF
330
B1
100
AcDbXrecord
280
1
290
1
  0
XRECORD
  5
E0
330
B1
100
AcDbXrecord
280
1
290
0
  0
XRECORD
  5
E1
330
B1
100
AcDbXrecord
280
1
1000
Inside
  0
XRECORD
  5
E2
330
B1
100
AcDbXrecord
280
1
1000
Arial,10,-1,5,50,0,0,0,0,0
  0
XRECORD
  5
E3
330
B1
100
AcDbXrecord
280
1
1000
TopLeft
  0
XRECORD
  5
E4
330
B1
100
AcDbXrecord
280
1
1000
3.28.1
  0
XRECORD
  5
E5
330
B1
100
AcDbXrecord
280
1
 90
4
  0
XRECORD
  5
E7
330
B1
100
AcDbXrecord
280
1
 40
251.6973695377314471
  0
XRECORD
  5
E8
330
B1
100
AcDbXrecord
280
1
 40
468.8379280938484044
  0
IMAGEDEF
  5
60
100
AcDbRasterImageDef
 90
0
  1
C:/Users/iamth/Documents/Estudio aut\U+00f3nomo/CAD/QCad/1. StudyCadCam/2D CAD EXERCISES 56b.png
 10
200.0
 20
141.0
 11
1.0
 21
1.0
280
1
281
0
  0
ENDSEC
  0
EOF
