999
dxflib 3.26.4.0
  0
SECTION
  2
HEADER
  9
$ACADVER
  1
AC1015
  9
$HANDSEED
  5
FFFF
  9
$DIMADEC
 70
0
  9
$DIMASZ
 40
2.5
  9
$DIMATFIT
 70
0
  9
$DIMAUNIT
 70
0
  9
$DIMAZIN
 70
2
  9
$DIMBLK
  1
0
  9
$DIMBLK1
  1
0
  9
$DIMBLK2
  1
0
  9
$DIMDEC
 70
4
  9
$DIMDLI
 40
5.0
  9
$DIMDSEP
 70
46
  9
$DIMEXE
 40
1.25
  9
$DIMEXO
 40
0.625
  9
$DIMGAP
 40
0.625
  9
$DIMLFAC
 40
1.0
  9
$DIMLUNIT
 70
2
  9
$DIMSCALE
 40
1.0
  9
$DIMTAD
 70
1
  9
$DIMTIH
 70
0
  9
$DIMTSZ
 40
0.0
  9
$DIMTXT
 40
2.5
  9
$DIMZIN
 70
8
  9
$DWGCODEPAGE
  3
ANSI_1252
  9
$INSUNITS
 70
4
  9
$LTSCALE
 40
1.0
  9
$MAXACTVP
 70
64
  9
$MEASUREMENT
 70
1
  9
$MIRRTEXT
 70
0
  9
$PDMODE
 70
0
  9
$PDSIZE
 40
0.0
  0
ENDSEC
  0
SECTION
  2
TABLES
  0
TABLE
  2
VPORT
  5
8
100
AcDbSymbolTable
 70
1
  0
VPORT
  5
30
100
AcDbSymbolTableRecord
100
AcDbViewportTableRecord
  2
*Active
 70
0
 10
0.0
 20
0.0
 11
1.0
 21
1.0
 12
286.3055555555554861
 22
148.5
 13
0.0
 23
0.0
 14
10.0
 24
10.0
 15
10.0
 25
10.0
 16
0.0
 26
0.0
 36
1.0
 17
0.0
 27
0.0
 37
0.0
 40
297.0
 41
1.92798353909465
 42
50.0
 43
0.0
 44
0.0
 50
0.0
 51
0.0
 71
0
 72
100
 73
1
 74
3
 75
1
 76
1
 77
0
 78
0
281
0
 65
1
110
0.0
120
0.0
130
0.0
111
1.0
121
0.0
131
0.0
112
0.0
122
1.0
132
0.0
 79
0
146
0.0
  0
ENDTAB
  0
TABLE
  2
LTYPE
  5
5
100
AcDbSymbolTable
 70
41
  0
LTYPE
  5
16
100
AcDbSymbolTableRecord
100
AcDbLinetypeTableRecord
  2
Continuous
 70
0
  3
Solid line
 72
65
 73
0
 40
0.0
  0
LTYPE
  5
31
100
AcDbSymbolTableRecord
100
AcDbLinetypeTableRecord
  2
DASHDOTX2
 70
0
  3
Dash dot (2x) ____  .  ____  .  ____  .  ___
 72
65
 73
4
 40
50.7999999999999972
 49
25.3999999999999986
 74
0
 49
-12.6499999999999986
 74
0
 49
0.1
 74
0
 49
-12.6499999999999986
 74
0
  0
LTYPE
  5
32
100
AcDbSymbolTableRecord
100
AcDbLinetypeTableRecord
  2
ACAD_ISO06W100
 70
0
  3
ISO long-dash triple-dot ____ ... ____ ... ____
 72
65
 73
8
 40
36.0000000000000071
 49
24.0
 74
0
 49
-2.9500000000000002
 74
0
 49
0.1
 74
0
 49
-2.9000000000000004
 74
0
 49
0.1
 74
0
 49
-2.9000000000000004
 74
0
 49
0.1
 74
0
 49
-2.9500000000000002
 74
0
  0
LTYPE
  5
33
100
AcDbSymbolTableRecord
100
AcDbLinetypeTableRecord
  2
BORDER2
 70
0
  3
Border (.5x) __.__.__.__.__.__.__.__.__.__.__.
 72
65
 73
6
 40
22.2250000000000014
 49
6.3499999999999996
 74
0
 49
-3.1749999999999998
 74
0
 49
6.3499999999999996
 74
0
 49
-3.125
 74
0
 49
0.1
 74
0
 49
-3.125
 74
0
  0
LTYPE
  5
34
100
AcDbSymbolTableRecord
100
AcDbLinetypeTableRecord
  2
ACAD_ISO07W100
 70
0
  3
ISO dot . . . . . . . . . . . . . . . . . . . . 
 72
65
 73
2
 40
3.0
 49
0.1
 74
0
 49
-2.8999999999999999
 74
0
  0
LTYPE
  5
35
100
AcDbSymbolTableRecord
100
AcDbLinetypeTableRecord
  2
ACAD_ISO15W100
 70
0
  3
ISO double-dash triple-dot __ __ . . . __ __ . .
 72
65
 73
10
 40
39.0000000000000071
 49
12.0
 74
0
 49
-3.0
 74
0
 49
12.0
 74
0
 49
-2.9500000000000002
 74
0
 49
0.1
 74
0
 49
-2.9000000000000004
 74
0
 49
0.1
 74
0
 49
-2.9000000000000004
 74
0
 49
0.1
 74
0
 49
-2.9500000000000002
 74
0
  0
LTYPE
  5
36
100
AcDbSymbolTableRecord
100
AcDbLinetypeTableRecord
  2
ACAD_ISO13W100
 70
0
  3
ISO double-dash double-dot __ __ . . __ __ . . _
 72
65
 73
8
 40
36.0000000000000071
 49
12.0
 74
0
 49
-3.0
 74
0
 49
12.0
 74
0
 49
-2.9500000000000002
 74
0
 49
0.1
 74
0
 49
-2.9000000000000004
 74
0
 49
0.1
 74
0
 49
-2.9500000000000002
 74
0
  0
LTYPE
  5
37
100
AcDbSymbolTableRecord
100
AcDbLinetypeTableRecord
  2
DASHDOT2
 70
0
  3
Dash dot (.5x) _._._._._._._._._._._._._._._.
 72
65
 73
4
 40
12.6999999999999993
 49
6.3499999999999996
 74
0
 49
-3.125
 74
0
 49
0.1
 74
0
 49
-3.125
 74
0
  0
LTYPE
  5
38
100
AcDbSymbolTableRecord
100
AcDbLinetypeTableRecord
  2
ACAD_ISO09W100
 70
0
  3
ISO long-dash double-short-dash ____ __ __ ____
 72
65
 73
6
 40
45.0
 49
24.0
 74
0
 49
-3.0
 74
0
 49
6.0
 74
0
 49
-3.0
 74
0
 49
6.0
 74
0
 49
-3.0
 74
0
  0
LTYPE
  5
39
100
AcDbSymbolTableRecord
100
AcDbLinetypeTableRecord
  2
HIDDEN
 70
0
  3
Hidden __ __ __ __ __ __ __ __ __ __ __ __ __ __
 72
65
 73
2
 40
9.5249999999999986
 49
6.3499999999999996
 74
0
 49
-3.1749999999999998
 74
0
  0
LTYPE
  5
3A
100
AcDbSymbolTableRecord
100
AcDbLinetypeTableRecord
  2
BORDERX2
 70
0
  3
Border (2x) ____  ____  .  ____  ____  .  ___
 72
65
 73
6
 40
88.8999999999999773
 49
25.3999999999999986
 74
0
 49
-12.6999999999999993
 74
0
 49
25.3999999999999986
 74
0
 49
-12.6499999999999986
 74
0
 49
0.1
 74
0
 49
-12.6499999999999986
 74
0
  0
LTYPE
  5
3B
100
AcDbSymbolTableRecord
100
AcDbLinetypeTableRecord
  2
ACAD_ISO11W100
 70
0
  3
ISO double-dash dot __ __ . __ __ . __ __ . __ _
 72
65
 73
6
 40
33.0
 49
12.0
 74
0
 49
-3.0
 74
0
 49
12.0
 74
0
 49
-2.9500000000000002
 74
0
 49
0.1
 74
0
 49
-2.9500000000000002
 74
0
  0
LTYPE
  5
3C
100
AcDbSymbolTableRecord
100
AcDbLinetypeTableRecord
  2
HIDDENX2
 70
0
  3
Hidden (2x) ____ ____ ____ ____ ____ ____ ____ 
 72
65
 73
2
 40
19.0499999999999972
 49
12.6999999999999993
 74
0
 49
-6.3499999999999996
 74
0
  0
LTYPE
  5
3D
100
AcDbSymbolTableRecord
100
AcDbLinetypeTableRecord
  2
DIVIDEX2
 70
0
  3
Divide (2x) ________  .  .  ________  .  .  _
 72
65
 73
6
 40
63.5
 49
25.3999999999999986
 74
0
 49
-12.6499999999999986
 74
0
 49
0.1
 74
0
 49
-12.5999999999999979
 74
0
 49
0.1
 74
0
 49
-12.6499999999999986
 74
0
  0
LTYPE
  5
15
100
AcDbSymbolTableRecord
100
AcDbLinetypeTableRecord
  2
BYLAYER
 70
0
  3

 72
65
 73
0
 40
0.0
  0
LTYPE
  5
3E
100
AcDbSymbolTableRecord
100
AcDbLinetypeTableRecord
  2
CENTERX2
 70
0
  3
Center (2x) ________  __  ________  __  _____
 72
65
 73
4
 40
101.6000000000000085
 49
63.5
 74
0
 49
-12.6999999999999993
 74
0
 49
12.6999999999999993
 74
0
 49
-12.6999999999999993
 74
0
  0
LTYPE
  5
3F
100
AcDbSymbolTableRecord
100
AcDbLinetypeTableRecord
  2
DIVIDE
 70
0
  3
Divide ____ . . ____ . . ____ . . ____ . . ____
 72
65
 73
6
 40
31.7500000000000036
 49
12.6999999999999993
 74
0
 49
-6.2999999999999998
 74
0
 49
0.1
 74
0
 49
-6.25
 74
0
 49
0.1
 74
0
 49
-6.2999999999999998
 74
0
  0
LTYPE
  5
40
100
AcDbSymbolTableRecord
100
AcDbLinetypeTableRecord
  2
DOT2
 70
0
  3
Dot (.5x) ........................................
 72
65
 73
2
 40
3.1749999999999998
 49
0.1
 74
0
 49
-3.0749999999999997
 74
0
  0
LTYPE
  5
41
100
AcDbSymbolTableRecord
100
AcDbLinetypeTableRecord
  2
DASHEDX2
 70
0
  3
Dashed (2x) ____  ____  ____  ____  ____  ___
 72
65
 73
2
 40
38.0999999999999943
 49
25.3999999999999986
 74
0
 49
-12.6999999999999993
 74
0
  0
LTYPE
  5
42
100
AcDbSymbolTableRecord
100
AcDbLinetypeTableRecord
  2
ACAD_ISO04W100
 70
0
  3
ISO long-dash dot ____ . ____ . ____ . ____ . _
 72
65
 73
4
 40
30.0
 49
24.0
 74
0
 49
-2.9500000000000002
 74
0
 49
0.1
 74
0
 49
-2.9500000000000002
 74
0
  0
LTYPE
  5
43
100
AcDbSymbolTableRecord
100
AcDbLinetypeTableRecord
  2
PHANTOMX2
 70
0
  3
Phantom (2x) ____________    ____    ____   _
 72
65
 73
6
 40
127.0000000000000142
 49
63.5
 74
0
 49
-12.6999999999999993
 74
0
 49
12.6999999999999993
 74
0
 49
-12.6999999999999993
 74
0
 49
12.6999999999999993
 74
0
 49
-12.6999999999999993
 74
0
  0
LTYPE
  5
44
100
AcDbSymbolTableRecord
100
AcDbLinetypeTableRecord
  2
CENTER
 70
0
  3
Center ____ _ ____ _ ____ _ ____ _ ____ _ ____
 72
65
 73
4
 40
50.8000000000000043
 49
31.75
 74
0
 49
-6.3499999999999996
 74
0
 49
6.3499999999999996
 74
0
 49
-6.3499999999999996
 74
0
  0
LTYPE
  5
45
100
AcDbSymbolTableRecord
100
AcDbLinetypeTableRecord
  2
DASHED2
 70
0
  3
Dashed (.5x) _ _ _ _ _ _ _ _ _ _ _ _ _ _ _ _ _ 
 72
65
 73
2
 40
9.5249999999999986
 49
6.3499999999999996
 74
0
 49
-3.1749999999999998
 74
0
  0
LTYPE
  5
46
100
AcDbSymbolTableRecord
100
AcDbLinetypeTableRecord
  2
HIDDEN2
 70
0
  3
Hidden (.5x) _ _ _ _ _ _ _ _ _ _ _ _ _ _ _ _ _ 
 72
65
 73
2
 40
4.7624999999999993
 49
3.1749999999999998
 74
0
 49
-1.5874999999999999
 74
0
  0
LTYPE
  5
47
100
AcDbSymbolTableRecord
100
AcDbLinetypeTableRecord
  2
CENTER2
 70
0
  3
Center (.5x) ___ _ ___ _ ___ _ ___ _ ___ _ ___
 72
65
 73
4
 40
28.5750000000000028
 49
19.0500000000000007
 74
0
 49
-3.1749999999999998
 74
0
 49
3.1749999999999998
 74
0
 49
-3.1749999999999998
 74
0
  0
LTYPE
  5
48
100
AcDbSymbolTableRecord
100
AcDbLinetypeTableRecord
  2
ACAD_ISO08W100
 70
0
  3
ISO long-dash short-dash ____ __ ____ __ ____ _
 72
65
 73
4
 40
36.0
 49
24.0
 74
0
 49
-3.0
 74
0
 49
6.0
 74
0
 49
-3.0
 74
0
  0
LTYPE
  5
49
100
AcDbSymbolTableRecord
100
AcDbLinetypeTableRecord
  2
PHANTOM2
 70
0
  3
Phantom (.5x) ___ _ _ ___ _ _ ___ _ _ ___ _ _
 72
65
 73
6
 40
31.7500000000000036
 49
15.875
 74
0
 49
-3.1749999999999998
 74
0
 49
3.1749999999999998
 74
0
 49
-3.1749999999999998
 74
0
 49
3.1749999999999998
 74
0
 49
-3.1749999999999998
 74
0
  0
LTYPE
  5
14
100
AcDbSymbolTableRecord
100
AcDbLinetypeTableRecord
  2
BYBLOCK
 70
0
  3

 72
65
 73
0
 40
0.0
  0
LTYPE
  5
4A
100
AcDbSymbolTableRecord
100
AcDbLinetypeTableRecord
  2
DASHED
 70
0
  3
Dashed __ __ __ __ __ __ __ __ __ __ __ __ __ _
 72
65
 73
2
 40
19.0499999999999972
 49
12.6999999999999993
 74
0
 49
-6.3499999999999996
 74
0
  0
LTYPE
  5
4B
100
AcDbSymbolTableRecord
100
AcDbLinetypeTableRecord
  2
ACAD_ISO03W100
 70
0
  3
ISO dash space __    __    __    __    __    __
 72
65
 73
2
 40
30.0
 49
12.0
 74
0
 49
-18.0
 74
0
  0
LTYPE
  5
4C
100
AcDbSymbolTableRecord
100
AcDbLinetypeTableRecord
  2
ACAD_ISO02W100
 70
0
  3
ISO dash __ __ __ __ __ __ __ __ __ __ __ __ __
 72
65
 73
2
 40
15.0
 49
12.0
 74
0
 49
-3.0
 74
0
  0
LTYPE
  5
4D
100
AcDbSymbolTableRecord
100
AcDbLinetypeTableRecord
  2
PHANTOM
 70
0
  3
Phantom ______  __  __  ______  __  __  ______ 
 72
65
 73
6
 40
63.5000000000000071
 49
31.75
 74
0
 49
-6.3499999999999996
 74
0
 49
6.3499999999999996
 74
0
 49
-6.3499999999999996
 74
0
 49
6.3499999999999996
 74
0
 49
-6.3499999999999996
 74
0
  0
LTYPE
  5
4E
100
AcDbSymbolTableRecord
100
AcDbLinetypeTableRecord
  2
DIVIDE2
 70
0
  3
Divide (.5x) __..__..__..__..__..__..__..__.._
 72
65
 73
6
 40
15.8749999999999982
 49
6.3499999999999996
 74
0
 49
-3.125
 74
0
 49
0.1
 74
0
 49
-3.0750000000000002
 74
0
 49
0.1
 74
0
 49
-3.125
 74
0
  0
LTYPE
  5
4F
100
AcDbSymbolTableRecord
100
AcDbLinetypeTableRecord
  2
ACAD_ISO05W100
 70
0
  3
ISO long-dash double-dot ____ .. ____ .. ____ . 
 72
65
 73
6
 40
33.0000000000000071
 49
24.0
 74
0
 49
-2.9500000000000002
 74
0
 49
0.1
 74
0
 49
-2.9000000000000004
 74
0
 49
0.1
 74
0
 49
-2.9500000000000002
 74
0
  0
LTYPE
  5
50
100
AcDbSymbolTableRecord
100
AcDbLinetypeTableRecord
  2
ACAD_ISO14W100
 70
0
  3
ISO dash triple-dot __ . . . __ . . . __ . . . _
 72
65
 73
8
 40
24.0000000000000036
 49
12.0
 74
0
 49
-2.9500000000000002
 74
0
 49
0.1
 74
0
 49
-2.9000000000000004
 74
0
 49
0.1
 74
0
 49
-2.9000000000000004
 74
0
 49
0.1
 74
0
 49
-2.9500000000000002
 74
0
  0
LTYPE
  5
51
100
AcDbSymbolTableRecord
100
AcDbLinetypeTableRecord
  2
DOT
 70
0
  3
Dot . . . . . . . . . . . . . . . . . . . . . . . .
 72
65
 73
2
 40
6.3499999999999996
 49
0.1
 74
0
 49
-6.25
 74
0
  0
LTYPE
  5
52
100
AcDbSymbolTableRecord
100
AcDbLinetypeTableRecord
  2
ACAD_ISO10W100
 70
0
  3
ISO dash dot __ . __ . __ . __ . __ . __ . __ . 
 72
65
 73
4
 40
18.0
 49
12.0
 74
0
 49
-2.9500000000000002
 74
0
 49
0.1
 74
0
 49
-2.9500000000000002
 74
0
  0
LTYPE
  5
53
100
AcDbSymbolTableRecord
100
AcDbLinetypeTableRecord
  2
DOTX2
 70
0
  3
Dot (2x) .  .  .  .  .  .  .  .  .  .  .  .  .  .
 72
65
 73
2
 40
12.6999999999999993
 49
0.1
 74
0
 49
-12.5999999999999996
 74
0
  0
LTYPE
  5
54
100
AcDbSymbolTableRecord
100
AcDbLinetypeTableRecord
  2
DASHDOT
 70
0
  3
Dash dot __ . __ . __ . __ . __ . __ . __ . __
 72
65
 73
4
 40
25.4000000000000021
 49
12.6999999999999993
 74
0
 49
-6.2999999999999998
 74
0
 49
0.1
 74
0
 49
-6.2999999999999998
 74
0
  0
LTYPE
  5
55
100
AcDbSymbolTableRecord
100
AcDbLinetypeTableRecord
  2
ACAD_ISO12W100
 70
0
  3
ISO dash double-dot __ . . __ . . __ . . __ . . 
 72
65
 73
6
 40
21.0
 49
12.0
 74
0
 49
-2.9500000000000002
 74
0
 49
0.1
 74
0
 49
-2.9000000000000004
 74
0
 49
0.1
 74
0
 49
-2.9500000000000002
 74
0
  0
LTYPE
  5
56
100
AcDbSymbolTableRecord
100
AcDbLinetypeTableRecord
  2
BORDER
 70
0
  3
Border __ __ . __ __ . __ __ . __ __ . __ __ .
 72
65
 73
6
 40
44.4499999999999957
 49
12.6999999999999993
 74
0
 49
-6.3499999999999996
 74
0
 49
12.6999999999999993
 74
0
 49
-6.2999999999999998
 74
0
 49
0.1
 74
0
 49
-6.2999999999999998
 74
0
  0
ENDTAB
  0
TABLE
  2
LAYER
  5
2
100
AcDbSymbolTable
 70
7
  0
LAYER
  5
57
100
AcDbSymbolTableRecord
100
AcDbLayerTableRecord
  2
Referencias 2
 70
1
 62
3
420
65280
  6
Continuous
370
25
390
F
  0
LAYER
  5
58
100
AcDbSymbolTableRecord
100
AcDbLayerTableRecord
  2
Cotas
 70
0
 62
1
420
16711680
  6
Continuous
370
20
390
F
  0
LAYER
  5
59
100
AcDbSymbolTableRecord
100
AcDbLayerTableRecord
  2
Ejes de revoluci\U+00f3n
 70
0
 62
6
420
16711935
  6
ACAD_ISO04W100
370
20
390
F
  0
LAYER
  5
5A
100
AcDbSymbolTableRecord
100
AcDbLayerTableRecord
  2
Contornos Ocultos
 70
0
 62
252
420
10526884
  6
ACAD_ISO02W100
370
30
390
F
  0
LAYER
  5
10
100
AcDbSymbolTableRecord
100
AcDbLayerTableRecord
  2
0
 70
0
 62
7
420
16777215
  6
Continuous
370
25
390
F
  0
LAYER
  5
5B
100
AcDbSymbolTableRecord
100
AcDbLayerTableRecord
  2
Contornos Visibles
 70
0
 62
7
420
16777215
  6
Continuous
370
50
390
F
  0
LAYER
  5
5C
100
AcDbSymbolTableRecord
100
AcDbLayerTableRecord
  2
Referencias
 70
1
 62
2
420
16776960
  6
Continuous
370
25
390
F
  0
ENDTAB
  0
TABLE
  2
STYLE
  5
3
100
AcDbSymbolTable
 70
8
  0
STYLE
  5
5D
100
AcDbSymbolTableRecord
100
AcDbTextStyleTableRecord
  2
Standard
 70
0
 40
0.0
 41
1.0
 50
0.0
 71
0
 42
2.5
  3

  4

1001
ACAD
1000
txt
1071
0
  0
STYLE
  5
5E
100
AcDbSymbolTableRecord
100
AcDbTextStyleTableRecord
  2
textstyle0
 70
0
 40
0.0
 41
1.0
 50
0.0
 71
0
 42
2.5
  3

  4

1001
ACAD
1000
Arial
1071
0
  0
STYLE
  5
5F
100
AcDbSymbolTableRecord
100
AcDbTextStyleTableRecord
  2
textstyle1
 70
0
 40
0.0
 41
1.0
 50
0.0
 71
0
 42
2.5
  3

  4

1001
ACAD
1000
Arial
1071
0
  0
STYLE
  5
60
100
AcDbSymbolTableRecord
100
AcDbTextStyleTableRecord
  2
textstyle2
 70
0
 40
0.0
 41
1.0
 50
0.0
 71
0
 42
2.5
  3

  4

1001
ACAD
1000
Arial
1071
0
  0
STYLE
  5
61
100
AcDbSymbolTableRecord
100
AcDbTextStyleTableRecord
  2
textstyle3
 70
0
 40
0.0
 41
1.0
 50
0.0
 71
0
 42
2.5
  3

  4

1001
ACAD
1000
Arial
1071
0
  0
STYLE
  5
62
100
AcDbSymbolTableRecord
100
AcDbTextStyleTableRecord
  2
textstyle4
 70
0
 40
0.0
 41
1.0
 50
0.0
 71
0
 42
2.5
  3

  4

1001
ACAD
1000
Arial
1071
0
  0
STYLE
  5
63
100
AcDbSymbolTableRecord
100
AcDbTextStyleTableRecord
  2
textstyle5
 70
0
 40
0.0
 41
1.0
 50
0.0
 71
0
 42
2.5
  3

  4

1001
ACAD
1000
Arial
1071
0
  0
STYLE
  5
64
100
AcDbSymbolTableRecord
100
AcDbTextStyleTableRecord
  2
textstyle6
 70
0
 40
0.0
 41
1.0
 50
0.0
 71
0
 42
2.5
  3

  4

1001
ACAD
1000
Arial
1071
0
  0
ENDTAB
  0
TABLE
  2
VIEW
  5
6
100
AcDbSymbolTable
 70
0
  0
ENDTAB
  0
TABLE
  2
UCS
  5
7
100
AcDbSymbolTable
 70
0
  0
ENDTAB
  0
TABLE
  2
APPID
  5
9
100
AcDbSymbolTable
 70
1
  0
APPID
  5
12
100
AcDbSymbolTableRecord
100
AcDbRegAppTableRecord
  2
ACAD
 70
0
  0
APPID
  5
65
100
AcDbSymbolTableRecord
100
AcDbRegAppTableRecord
  2
QCAD
 70
0
  0
ENDTAB
  0
TABLE
  2
DIMSTYLE
  5
A
100
AcDbSymbolTable
 70
1
100
AcDbDimStyleTable
 71
0
  0
DIMSTYLE
105
27
100
AcDbSymbolTableRecord
100
AcDbDimStyleTableRecord
  2
Standard
 41
2.5
 42
0.625
 43
3.75
 44
1.25
 70
0
 73
0
 74
0
 77
1
 78
8
140
2.5
141
2.5
143
0.03937007874016
147
0.625
171
3
172
1
271
2
272
2
274
3
278
44
283
0
284
8
340
5D
  0
ENDTAB
  0
TABLE
  2
BLOCK_RECORD
  5
1
100
AcDbSymbolTable
 70
1
  0
BLOCK_RECORD
  5
1F
100
AcDbSymbolTableRecord
100
AcDbBlockTableRecord
  2
*Model_Space
340
22
  0
BLOCK_RECORD
  5
1B
100
AcDbSymbolTableRecord
100
AcDbBlockTableRecord
  2
*Paper_Space
340
1E
  0
BLOCK_RECORD
  5
23
100
AcDbSymbolTableRecord
100
AcDbBlockTableRecord
  2
*Paper_Space0
340
26
  0
ENDTAB
  0
ENDSEC
  0
SECTION
  2
BLOCKS
  0
BLOCK
  5
20
100
AcDbEntity
  8
0
100
AcDbBlockBegin
  2
*Model_Space
 70
0
 10
0.0
 20
0.0
 30
0.0
  3
*Model_Space
  1

  0
ENDBLK
  5
21
100
AcDbEntity
  8
0
100
AcDbBlockEnd
  0
BLOCK
  5
1C
100
AcDbEntity
 67
1
  8
0
100
AcDbBlockBegin
  2
*Paper_Space
 70
0
 10
0.0
 20
0.0
 30
0.0
  3
*Paper_Space
  1

  0
ENDBLK
  5
1D
100
AcDbEntity
 67
1
  8
0
100
AcDbBlockEnd
  0
BLOCK
  5
24
100
AcDbEntity
  8
0
100
AcDbBlockBegin
  2
*Paper_Space0
 70
0
 10
0.0
 20
0.0
 30
0.0
  3
*Paper_Space0
  1

  0
ENDBLK
  5
25
100
AcDbEntity
  8
0
100
AcDbBlockEnd
  0
ENDSEC
  0
SECTION
  2
ENTITIES
  0
IMAGE
  5
66
100
AcDbEntity
  8
0
 62
256
370
-1
 48
1.0
  6
BYLAYER
100
AcDbRasterImage
 90
0
 10
2871.2299740781031687
 20
676.849702991332606
 30
0.0
 11
0.09765625
 21
0.0
 31
0.0
 12
0.0
 22
0.09765625
 32
0.0
 13
200.0
 23
141.0
340
67
 70
15
280
0
281
50
282
50
283
0
  0
CIRCLE
  5
68
100
AcDbEntity
  8
Contornos Visibles
 62
256
370
-1
 48
1.0
  6
BYLAYER
100
AcDbCircle
 10
3423.3087734078467292
 20
755.9551822540113335
 30
0.0
 40
35.0
  0
CIRCLE
  5
69
100
AcDbEntity
  8
Ejes de revoluci\U+00f3n
 62
256
370
-1
 48
1.0
  6
BYLAYER
100
AcDbCircle
 10
3423.3087734078467292
 20
755.9551822540113335
 30
0.0
 40
45.0
  0
CIRCLE
  5
6A
100
AcDbEntity
  8
Contornos Visibles
 62
256
370
-1
 48
1.0
  6
BYLAYER
100
AcDbCircle
 10
3423.3087734078467292
 20
800.9551822540113335
 30
0.0
 40
3.25
  0
CIRCLE
  5
6B
100
AcDbEntity
  8
Contornos Visibles
 62
256
370
-1
 48
1.0
  6
BYLAYER
100
AcDbCircle
 10
3380.5112301745648438
 20
769.8609470008839253
 30
0.0
 40
3.25
  0
CIRCLE
  5
6C
100
AcDbEntity
  8
Contornos Visibles
 62
256
370
-1
 48
1.0
  6
BYLAYER
100
AcDbCircle
 10
3396.8584370546855098
 20
719.5494175071387417
 30
0.0
 40
3.25
  0
CIRCLE
  5
6D
100
AcDbEntity
  8
Contornos Visibles
 62
256
370
-1
 48
1.0
  6
BYLAYER
100
AcDbCircle
 10
3449.7591097610079487
 20
719.5494175071387417
 30
0.0
 40
3.25
  0
CIRCLE
  5
6E
100
AcDbEntity
  8
Contornos Visibles
 62
256
370
-1
 48
1.0
  6
BYLAYER
100
AcDbCircle
 10
3466.1063166411286147
 20
769.8609470008839253
 30
0.0
 40
3.25
  0
LINE
  5
6F
100
AcDbEntity
  8
Ejes de revoluci\U+00f3n
 62
256
370
-1
 48
1.0
  6
BYLAYER
100
AcDbLine
 10
3423.3087734078467292
 20
796.7051822540113335
 30
0.0
 11
3423.3087734078467292
 21
805.2051822540113335
 31
0.0
  0
LINE
  5
70
100
AcDbEntity
  8
Ejes de revoluci\U+00f3n
 62
256
370
-1
 48
1.0
  6
BYLAYER
100
AcDbLine
 10
3384.5532203688194386
 20
768.5476247747903926
 30
0.0
 11
3376.4692399803102489
 21
771.1742692269774579
 31
0.0
  0
LINE
  5
71
100
AcDbEntity
  8
Ejes de revoluci\U+00f3n
 62
256
370
-1
 48
1.0
  6
BYLAYER
100
AcDbLine
 10
3399.3565243769285189
 20
722.9877397332322744
 30
0.0
 11
3394.3603497324425007
 21
716.111095281045209
 31
0.0
  0
LINE
  5
72
100
AcDbEntity
  8
Ejes de revoluci\U+00f3n
 62
256
370
-1
 48
1.0
  6
BYLAYER
100
AcDbLine
 10
3447.2610224387649396
 20
722.9877397332322744
 30
0.0
 11
3452.2571970832509578
 21
716.111095281045209
 31
0.0
  0
LINE
  5
73
100
AcDbEntity
  8
Ejes de revoluci\U+00f3n
 62
256
370
-1
 48
1.0
  6
BYLAYER
100
AcDbLine
 10
3462.0643264468740199
 20
768.5476247747903926
 30
0.0
 11
3470.1483068353832095
 21
771.1742692269774579
 31
0.0
  0
CIRCLE
  5
74
100
AcDbEntity
  8
Contornos Visibles
 62
256
370
-1
 48
1.0
  6
BYLAYER
100
AcDbCircle
 10
3423.3087734078467292
 20
755.9551822540113335
 30
0.0
 40
150.0
  0
ARC
  5
75
100
AcDbEntity
  8
Contornos Visibles
 62
256
370
-1
 48
1.0
  6
BYLAYER
100
AcDbCircle
 10
3423.3087734078467292
 20
755.9551822540114472
 30
0.0
 40
55.0
100
AcDbArc
 50
251.9131255259026148
 51
288.0868744740973852
  0
ARC
  5
76
100
AcDbEntity
  8
Contornos Visibles
 62
256
370
-1
 48
1.0
  6
BYLAYER
100
AcDbCircle
 10
3423.3087734078467292
 20
755.9551822540114472
 30
0.0
 40
55.0
100
AcDbArc
 50
323.9131255259026148
 51
0.0868744740973994
  0
ARC
  5
77
100
AcDbEntity
  8
Contornos Visibles
 62
256
370
-1
 48
1.0
  6
BYLAYER
100
AcDbCircle
 10
3423.3087734078467292
 20
755.9551822540114472
 30
0.0
 40
55.0
100
AcDbArc
 50
35.9131255259026005
 51
72.0868744740973995
  0
ARC
  5
78
100
AcDbEntity
  8
Contornos Visibles
 62
256
370
-1
 48
1.0
  6
BYLAYER
100
AcDbCircle
 10
3423.3087734078467292
 20
755.9551822540112198
 30
0.0
 40
55.0
100
AcDbArc
 50
107.9131255259026005
 51
144.0868744740974137
  0
ARC
  5
79
100
AcDbEntity
  8
Contornos Visibles
 62
256
370
-1
 48
1.0
  6
BYLAYER
100
AcDbCircle
 10
3423.3087734078467292
 20
755.9551822540112198
 30
0.0
 40
55.0
100
AcDbArc
 50
179.9131255259026148
 51
216.0868744740974137
  0
ARC
  5
7A
100
AcDbEntity
  8
Contornos Visibles
 62
256
370
-1
 48
1.0
  6
BYLAYER
100
AcDbCircle
 10
3423.3087734078467292
 20
755.9551822540114472
 30
0.0
 40
81.0
100
AcDbArc
 50
277.5443673701137186
 51
289.6453309268297858
  0
ARC
  5
7B
100
AcDbEntity
  8
Contornos Visibles
 62
256
370
-1
 48
1.0
  6
BYLAYER
100
AcDbCircle
 10
3423.3087734078467292
 20
755.9551822540114472
 30
0.0
 40
81.0
100
AcDbArc
 50
250.3546690731702142
 51
262.455632629885713
  0
ARC
  5
7C
100
AcDbEntity
  8
Contornos Visibles
 62
256
370
-1
 48
1.0
  6
BYLAYER
100
AcDbCircle
 10
3423.3087734078467292
 20
755.9551822540114472
 30
0.0
 40
81.0
100
AcDbArc
 50
322.3546690731702711
 51
334.4556326298856561
  0
ARC
  5
7D
100
AcDbEntity
  8
Contornos Visibles
 62
256
370
-1
 48
1.0
  6
BYLAYER
100
AcDbCircle
 10
3423.3087734078467292
 20
755.9551822540114472
 30
0.0
 40
81.0
100
AcDbArc
 50
349.5443673701137186
 51
1.6453309268297727
  0
ARC
  5
7E
100
AcDbEntity
  8
Contornos Visibles
 62
256
370
-1
 48
1.0
  6
BYLAYER
100
AcDbCircle
 10
3423.3087734078467292
 20
755.9551822540114472
 30
0.0
 40
81.0
100
AcDbArc
 50
34.3546690731702284
 51
46.4556326298856845
  0
ARC
  5
7F
100
AcDbEntity
  8
Contornos Visibles
 62
256
370
-1
 48
1.0
  6
BYLAYER
100
AcDbCircle
 10
3423.3087734078467292
 20
755.9551822540114472
 30
0.0
 40
81.0
100
AcDbArc
 50
61.5443673701136973
 51
73.6453309268297716
  0
ARC
  5
80
100
AcDbEntity
  8
Contornos Visibles
 62
256
370
-1
 48
1.0
  6
BYLAYER
100
AcDbCircle
 10
3423.3087734078467292
 20
755.9551822540112198
 30
0.0
 40
81.0
100
AcDbArc
 50
106.3546690731702284
 51
118.4556326298856987
  0
ARC
  5
81
100
AcDbEntity
  8
Contornos Visibles
 62
256
370
-1
 48
1.0
  6
BYLAYER
100
AcDbCircle
 10
3423.3087734078467292
 20
755.9551822540112198
 30
0.0
 40
81.0
100
AcDbArc
 50
133.5443673701136902
 51
145.6453309268297858
  0
ARC
  5
82
100
AcDbEntity
  8
Contornos Visibles
 62
256
370
-1
 48
1.0
  6
BYLAYER
100
AcDbCircle
 10
3423.3087734078467292
 20
755.9551822540112198
 30
0.0
 40
81.0
100
AcDbArc
 50
178.3546690731702427
 51
190.455632629885713
  0
ARC
  5
83
100
AcDbEntity
  8
Contornos Visibles
 62
256
370
-1
 48
1.0
  6
BYLAYER
100
AcDbCircle
 10
3423.3087734078467292
 20
755.9551822540112198
 30
0.0
 40
81.0
100
AcDbArc
 50
205.5443673701136902
 51
217.6453309268297573
  0
LINE
  5
84
100
AcDbEntity
  8
Referencias 2
 62
256
370
-1
 48
1.0
  6
BYLAYER
100
AcDbLine
 10
3423.3087734078467292
 20
738.9551822540114472
 30
0.0
 11
3423.3087734078467292
 21
755.9551822540114472
 31
0.0
  0
LINE
  5
85
100
AcDbEntity
  8
Referencias
 62
256
370
-1
 48
1.0
  6
BYLAYER
100
AcDbLine
 10
3423.3087734078467292
 20
738.9551822540114472
 30
0.0
 11
3335.1409855639753914
 21
617.6026330977695125
 31
0.0
  0
LINE
  5
86
100
AcDbEntity
  8
Referencias
 62
256
370
-1
 48
1.0
  6
BYLAYER
100
AcDbLine
 10
3423.3087734078467292
 20
738.9551822540120156
 30
0.0
 11
3511.4765612517176123
 21
617.6026330977699672
 31
0.0
  0
LINE
  5
87
100
AcDbEntity
  8
Referencias
 62
256
370
-1
 48
1.0
  6
BYLAYER
100
AcDbLine
 10
3423.3087734078462745
 20
655.4551822540113335
 30
0.0
 11
3423.3087734078462745
 21
755.9551822540113335
 31
0.0
  0
LINE
  5
88
100
AcDbEntity
  8
Contornos Visibles
 62
256
370
-1
 48
1.0
  6
BYLAYER
100
AcDbLine
 10
3411.8087734078462745
 20
655.4551822540113335
 30
0.0
 11
3434.8087734078462745
 21
655.4551822540113335
 31
0.0
  0
LINE
  5
89
100
AcDbEntity
  8
Contornos Visibles
 62
256
370
-1
 48
1.0
  6
BYLAYER
100
AcDbLine
 10
3515.3362578601977475
 20
713.9618243819343206
 30
0.0
 11
3522.4436487308212236
 21
735.8361242567229965
 31
0.0
  0
LINE
  5
8A
100
AcDbEntity
  8
Contornos Visibles
 62
256
370
-1
 48
1.0
  6
BYLAYER
100
AcDbLine
 10
3491.6848866985524182
 20
830.5018597873297495
 30
0.0
 11
3473.0774958279289422
 21
844.0209205900566758
 31
0.0
  0
LINE
  5
8B
100
AcDbEntity
  8
Contornos Visibles
 62
256
370
-1
 48
1.0
  6
BYLAYER
100
AcDbLine
 10
3373.5400509877654258
 20
844.0209205900572442
 30
0.0
 11
3354.932660117141495
 21
830.5018597873304316
 31
0.0
  0
LINE
  5
8C
100
AcDbEntity
  8
Contornos Visibles
 62
256
370
-1
 48
1.0
  6
BYLAYER
100
AcDbLine
 10
3324.1738980848717802
 20
735.836124256723906
 30
0.0
 11
3331.281288955495711
 21
713.9618243819353438
 31
0.0
  0
ARC
  5
8D
100
AcDbEntity
  8
Contornos Visibles
 62
256
370
-1
 48
1.0
  6
BYLAYER
100
AcDbCircle
 10
3423.3087734078462745
 20
755.9551822540113335
 30
0.0
 40
120.0
100
AcDbArc
 50
244.4716291437871973
 51
295.5283708562130869
  0
ARC
  5
8E
100
AcDbEntity
  8
Contornos Visibles
 62
256
370
-1
 48
1.0
  6
BYLAYER
100
AcDbCircle
 10
3423.3087734078467292
 20
755.9551822540117882
 30
0.0
 40
120.0
100
AcDbArc
 50
316.4716291437871973
 51
7.5283708562130629
  0
ARC
  5
8F
100
AcDbEntity
  8
Contornos Visibles
 62
256
370
-1
 48
1.0
  6
BYLAYER
100
AcDbCircle
 10
3423.3087734078462745
 20
755.9551822540115609
 30
0.0
 40
120.0
100
AcDbArc
 50
28.4716291437871902
 51
79.5283708562130585
  0
ARC
  5
90
100
AcDbEntity
  8
Contornos Visibles
 62
256
370
-1
 48
1.0
  6
BYLAYER
100
AcDbCircle
 10
3423.3087734078462745
 20
755.9551822540111061
 30
0.0
 40
120.0
100
AcDbArc
 50
100.4716291437871405
 51
151.5283708562130585
  0
ARC
  5
91
100
AcDbEntity
  8
Contornos Visibles
 62
256
370
-1
 48
1.0
  6
BYLAYER
100
AcDbCircle
 10
3423.3087734078467292
 20
755.9551822540108788
 30
0.0
 40
120.0
100
AcDbArc
 50
172.4716291437871405
 51
223.5283708562130585
  0
ARC
  5
92
100
AcDbEntity
  8
Contornos Visibles
 62
256
370
-1
 48
1.0
  6
BYLAYER
100
AcDbCircle
 10
3375.9033964305231166
 20
656.6942622822626845
 30
0.0
 40
10.0
100
AcDbArc
 50
144.0000000000006253
 51
244.4716291437866573
  0
ARC
  5
93
100
AcDbEntity
  8
Contornos Visibles
 62
256
370
-1
 48
1.0
  6
BYLAYER
100
AcDbCircle
 10
3503.062451049685933
 20
680.1966784237374668
 30
0.0
 40
10.0
100
AcDbArc
 50
216.0000000000006253
 51
316.4716291437866289
  0
ARC
  5
94
100
AcDbEntity
  8
Contornos Visibles
 62
256
370
-1
 48
1.0
  6
BYLAYER
100
AcDbCircle
 10
3520.0046338956294676
 20
808.394771921811639
 30
0.0
 40
10.0
100
AcDbArc
 50
288.0000000000006253
 51
28.4716291437866325
  0
ARC
  5
95
100
AcDbEntity
  8
Contornos Visibles
 62
256
370
-1
 48
1.0
  6
BYLAYER
100
AcDbCircle
 10
3403.3164241188751475
 20
864.1231348550835492
 30
0.0
 40
10.0
100
AcDbArc
 50
0.0000000000006107
 51
100.4716291437866431
  0
ARC
  5
96
100
AcDbEntity
  8
Contornos Visibles
 62
256
370
-1
 48
1.0
  6
BYLAYER
100
AcDbCircle
 10
3314.2569615445195268
 20
770.367063787161328
 30
0.0
 40
10.0
100
AcDbArc
 50
72.0000000000006111
 51
172.4716291437866289
  0
ARC
  5
97
100
AcDbEntity
  8
Contornos Visibles
 62
256
370
-1
 48
1.0
  6
BYLAYER
100
AcDbCircle
 10
3470.7141503851698872
 20
656.6942622822630256
 30
0.0
 40
10.0
100
AcDbArc
 50
295.5283708562130869
 51
35.9999999999999147
  0
ARC
  5
98
100
AcDbEntity
  8
Contornos Visibles
 62
256
370
-1
 48
1.0
  6
BYLAYER
100
AcDbCircle
 10
3532.3605852711734769
 20
770.367063787160987
 30
0.0
 40
10.0
100
AcDbArc
 50
7.5283708562131135
 51
107.9999999999999147
  0
ARC
  5
99
100
AcDbEntity
  8
Contornos Visibles
 62
256
370
-1
 48
1.0
  6
BYLAYER
100
AcDbCircle
 10
3443.3011226968183109
 20
864.1231348550829807
 30
0.0
 40
10.0
100
AcDbArc
 50
79.5283708562131153
 51
179.9999999999998863
  0
ARC
  5
9A
100
AcDbEntity
  8
Contornos Visibles
 62
256
370
-1
 48
1.0
  6
BYLAYER
100
AcDbCircle
 10
3326.6129129200644456
 20
808.394771921811639
 30
0.0
 40
10.0
100
AcDbArc
 50
151.5283708562130585
 51
251.9999999999999147
  0
ARC
  5
9B
100
AcDbEntity
  8
Contornos Visibles
 62
256
370
-1
 48
1.0
  6
BYLAYER
100
AcDbCircle
 10
3343.5550957660075255
 20
680.1966784237380352
 30
0.0
 40
10.0
100
AcDbArc
 50
223.5283708562130585
 51
323.9999999999998863
  0
ARC
  5
9C
100
AcDbEntity
  8
Contornos Visibles
 62
256
370
-1
 48
1.0
  6
BYLAYER
100
AcDbCircle
 10
3423.3087734078467292
 20
755.9551822540114472
 30
0.0
 40
90.5
100
AcDbArc
 50
245.4743280115263815
 51
256.9894249145491472
  0
ARC
  5
9D
100
AcDbEntity
  8
Contornos Visibles
 62
256
370
-1
 48
1.0
  6
BYLAYER
100
AcDbCircle
 10
3423.3087734078467292
 20
755.9551822540114472
 30
0.0
 40
90.5
100
AcDbArc
 50
283.0105750854502844
 51
294.5256719884736185
  0
ARC
  5
9E
100
AcDbEntity
  8
Contornos Visibles
 62
256
370
-1
 48
1.0
  6
BYLAYER
100
AcDbCircle
 10
3423.3087734078467292
 20
755.9551822540114472
 30
0.0
 40
90.5
100
AcDbArc
 50
317.4743280115263815
 51
328.989424914549204
  0
ARC
  5
9F
100
AcDbEntity
  8
Contornos Visibles
 62
256
370
-1
 48
1.0
  6
BYLAYER
100
AcDbCircle
 10
3423.3087734078467292
 20
755.9551822540114472
 30
0.0
 40
90.5
100
AcDbArc
 50
355.0105750854502844
 51
6.5256719884736061
  0
ARC
  5
A0
100
AcDbEntity
  8
Contornos Visibles
 62
256
370
-1
 48
1.0
  6
BYLAYER
100
AcDbCircle
 10
3423.3087734078467292
 20
755.9551822540114472
 30
0.0
 40
90.5
100
AcDbArc
 50
29.4743280115263957
 51
40.9894249145491685
  0
ARC
  5
A1
100
AcDbEntity
  8
Contornos Visibles
 62
256
370
-1
 48
1.0
  6
BYLAYER
100
AcDbCircle
 10
3423.3087734078467292
 20
755.9551822540114472
 30
0.0
 40
90.5
100
AcDbArc
 50
67.0105750854502702
 51
78.5256719884736043
  0
ARC
  5
A2
100
AcDbEntity
  8
Contornos Visibles
 62
256
370
-1
 48
1.0
  6
BYLAYER
100
AcDbCircle
 10
3423.3087734078467292
 20
755.9551822540112198
 30
0.0
 40
90.5
100
AcDbArc
 50
101.4743280115263957
 51
112.9894249145492182
  0
ARC
  5
A3
100
AcDbEntity
  8
Contornos Visibles
 62
256
370
-1
 48
1.0
  6
BYLAYER
100
AcDbCircle
 10
3423.3087734078467292
 20
755.9551822540112198
 30
0.0
 40
90.5
100
AcDbArc
 50
139.0105750854502844
 51
150.5256719884736185
  0
ARC
  5
A4
100
AcDbEntity
  8
Contornos Visibles
 62
256
370
-1
 48
1.0
  6
BYLAYER
100
AcDbCircle
 10
3423.3087734078467292
 20
755.9551822540112198
 30
0.0
 40
90.5
100
AcDbArc
 50
173.4743280115263815
 51
184.989424914549204
  0
ARC
  5
A5
100
AcDbEntity
  8
Contornos Visibles
 62
256
370
-1
 48
1.0
  6
BYLAYER
100
AcDbCircle
 10
3423.3087734078467292
 20
755.9551822540112198
 30
0.0
 40
90.5
100
AcDbArc
 50
211.010575085450256
 51
222.5256719884735901
  0
ARC
  5
A6
100
AcDbEntity
  8
Contornos Visibles
 62
256
370
-1
 48
1.0
  6
BYLAYER
100
AcDbCircle
 10
3381.591131056163249
 20
664.5227573894316038
 30
0.0
 40
10.0
100
AcDbArc
 50
65.474328011525941
 51
144.0000000000006253
  0
ARC
  5
A7
100
AcDbEntity
  8
Contornos Visibles
 62
256
370
-1
 48
1.0
  6
BYLAYER
100
AcDbCircle
 10
3497.3747164240458005
 20
688.0251735309063861
 30
0.0
 40
10.0
100
AcDbArc
 50
137.4743280115259552
 51
216.0000000000006253
  0
ARC
  5
A8
100
AcDbEntity
  8
Contornos Visibles
 62
256
370
-1
 48
1.0
  6
BYLAYER
100
AcDbCircle
 10
3510.8016859523540916
 20
805.4045528716353601
 30
0.0
 40
10.0
100
AcDbArc
 50
209.4743280115259552
 51
288.0000000000006253
  0
ARC
  5
A9
100
AcDbEntity
  8
Contornos Visibles
 62
256
370
-1
 48
1.0
  6
BYLAYER
100
AcDbCircle
 10
3403.3164241188751475
 20
854.4465827410982683
 30
0.0
 40
10.0
100
AcDbArc
 50
281.4743280115259267
 51
0.0000000000006107
  0
ARC
  5
AA
100
AcDbEntity
  8
Contornos Visibles
 62
256
370
-1
 48
1.0
  6
BYLAYER
100
AcDbCircle
 10
3323.4599094877949028
 20
767.3768447369850492
 30
0.0
 40
10.0
100
AcDbArc
 50
353.4743280115259267
 51
72.0000000000006111
  0
ARC
  5
AB
100
AcDbEntity
  8
Contornos Visibles
 62
256
370
-1
 48
1.0
  6
BYLAYER
100
AcDbCircle
 10
3465.0264157595302095
 20
664.5227573894316038
 30
0.0
 40
10.0
100
AcDbArc
 50
35.9999999999999147
 51
114.5256719884740448
  0
ARC
  5
AC
100
AcDbEntity
  8
Contornos Visibles
 62
256
370
-1
 48
1.0
  6
BYLAYER
100
AcDbCircle
 10
3523.1576373278985557
 20
767.3768447369849355
 30
0.0
 40
10.0
100
AcDbArc
 50
107.9999999999999147
 51
186.5256719884740448
  0
ARC
  5
AD
100
AcDbEntity
  8
Contornos Visibles
 62
256
370
-1
 48
1.0
  6
BYLAYER
100
AcDbCircle
 10
3443.3011226968183109
 20
854.4465827410982683
 30
0.0
 40
10.0
100
AcDbArc
 50
179.9999999999998863
 51
258.5256719884740733
  0
ARC
  5
AE
100
AcDbEntity
  8
Contornos Visibles
 62
256
370
-1
 48
1.0
  6
BYLAYER
100
AcDbCircle
 10
3335.8158608633393669
 20
805.4045528716353601
 30
0.0
 40
10.0
100
AcDbArc
 50
251.9999999999999147
 51
330.5256719884740733
  0
ARC
  5
AF
100
AcDbEntity
  8
Contornos Visibles
 62
256
370
-1
 48
1.0
  6
BYLAYER
100
AcDbCircle
 10
3349.2428303916472032
 20
688.0251735309064998
 30
0.0
 40
10.0
100
AcDbArc
 50
323.9999999999998863
 51
42.5256719884740662
  0
LINE
  5
B0
100
AcDbEntity
  8
Contornos Visibles
 62
256
370
-1
 48
1.0
  6
BYLAYER
100
AcDbLine
 10
3373.5009611124137336
 20
670.4006099123562308
 30
0.0
 11
3367.8132264867736012
 21
662.5721148051873115
 31
0.0
  0
LINE
  5
B1
100
AcDbEntity
  8
Contornos Visibles
 62
256
370
-1
 48
1.0
  6
BYLAYER
100
AcDbLine
 10
3489.2845464802967399
 20
682.1473210079816454
 30
0.0
 11
3494.9722811059368723
 21
674.3188259008127261
 31
0.0
  0
LINE
  5
B2
100
AcDbEntity
  8
Contornos Visibles
 62
256
370
-1
 48
1.0
  6
BYLAYER
100
AcDbLine
 10
3513.8918558961040617
 20
795.8939877086838806
 30
0.0
 11
3523.0948038393794377
 21
798.8842067588601594
 31
0.0
  0
LINE
  5
B3
100
AcDbEntity
  8
Contornos Visibles
 62
256
370
-1
 48
1.0
  6
BYLAYER
100
AcDbLine
 10
3413.3164241188751475
 20
854.446582741098382
 30
0.0
 11
3413.3164241188751475
 21
864.1231348550836628
 31
0.0
  0
LINE
  5
B4
100
AcDbEntity
  8
Contornos Visibles
 62
256
370
-1
 48
1.0
  6
BYLAYER
100
AcDbLine
 10
3326.5500794315444182
 20
776.8874098999365287
 30
0.0
 11
3317.3471314882690422
 21
779.8776289501128076
 31
0.0
  0
LINE
  5
B5
100
AcDbEntity
  8
Contornos Visibles
 62
256
370
-1
 48
1.0
  6
BYLAYER
100
AcDbLine
 10
3473.1165857032797248
 20
670.4006099123563445
 30
0.0
 11
3478.8043203289194025
 21
662.5721148051877663
 31
0.0
  0
LINE
  5
B6
100
AcDbEntity
  8
Contornos Visibles
 62
256
370
-1
 48
1.0
  6
BYLAYER
100
AcDbLine
 10
3520.0674673841490403
 20
776.8874098999365287
 30
0.0
 11
3529.2704153274239616
 21
779.8776289501124666
 31
0.0
  0
LINE
  5
B7
100
AcDbEntity
  8
Contornos Visibles
 62
256
370
-1
 48
1.0
  6
BYLAYER
100
AcDbLine
 10
3433.3011226968183109
 20
854.4465827410982683
 30
0.0
 11
3433.3011226968183109
 21
864.1231348550830944
 31
0.0
  0
LINE
  5
B8
100
AcDbEntity
  8
Contornos Visibles
 62
256
370
-1
 48
1.0
  6
BYLAYER
100
AcDbLine
 10
3332.7256909195898515
 20
795.8939877086838806
 30
0.0
 11
3323.5227429763149303
 21
798.8842067588601594
 31
0.0
  0
LINE
  5
B9
100
AcDbEntity
  8
Contornos Visibles
 62
256
370
-1
 48
1.0
  6
BYLAYER
100
AcDbLine
 10
3357.3330003353967186
 20
682.1473210079817591
 30
0.0
 11
3351.6452657097570409
 21
674.3188259008132945
 31
0.0
  0
XLINE
  5
BA
100
AcDbEntity
  8
Referencias 2
 62
256
370
-1
 48
1.0
  6
BYLAYER
100
AcDbLine
 10
3406.8087734078462745
 20
655.4551822540113335
 30
0.0
 11
0.0
 21
1.0
 31
0.0
  0
XLINE
  5
BB
100
AcDbEntity
  8
Referencias 2
 62
256
370
-1
 48
1.0
  6
BYLAYER
100
AcDbLine
 10
3439.8087734078462745
 20
655.4551822540113335
 30
0.0
 11
0.0
 21
1.0
 31
0.0
  0
ARC
  5
BC
100
AcDbEntity
  8
Contornos Visibles
 62
256
370
-1
 48
1.0
  6
BYLAYER
100
AcDbCircle
 10
3411.8087734078462745
 20
660.4551822540113335
 30
0.0
 40
5.0
100
AcDbArc
 50
180.0
 51
270.0
  0
ARC
  5
BD
100
AcDbEntity
  8
Contornos Visibles
 62
256
370
-1
 48
1.0
  6
BYLAYER
100
AcDbCircle
 10
3510.5809752787217803
 20
715.5069093538090783
 30
0.0
 40
5.0
100
AcDbArc
 50
251.9999999999999716
 51
342.0
  0
ARC
  5
BE
100
AcDbEntity
  8
Contornos Visibles
 62
256
370
-1
 48
1.0
  6
BYLAYER
100
AcDbCircle
 10
3488.7459604370901616
 20
826.4567748154551055
 30
0.0
 40
5.0
100
AcDbArc
 50
324.0
 51
54.0
  0
ARC
  5
BF
100
AcDbEntity
  8
Contornos Visibles
 62
256
370
-1
 48
1.0
  6
BYLAYER
100
AcDbCircle
 10
3376.4789772492281372
 20
839.9758356181826002
 30
0.0
 40
5.0
100
AcDbArc
 50
36.0
 51
125.9999999999999858
  0
ARC
  5
C0
100
AcDbEntity
  8
Contornos Visibles
 62
256
370
-1
 48
1.0
  6
BYLAYER
100
AcDbCircle
 10
3328.9291806663472926
 20
737.3812092285986637
 30
0.0
 40
5.0
100
AcDbArc
 50
108.0
 51
198.0000000000000284
  0
ARC
  5
C1
100
AcDbEntity
  8
Contornos Visibles
 62
256
370
-1
 48
1.0
  6
BYLAYER
100
AcDbCircle
 10
3434.8087734078462745
 20
660.4551822540113335
 30
0.0
 40
5.0
100
AcDbArc
 50
270.0
 51
0.0
  0
ARC
  5
C2
100
AcDbEntity
  8
Contornos Visibles
 62
256
370
-1
 48
1.0
  6
BYLAYER
100
AcDbCircle
 10
3517.6883661493457112
 20
737.3812092285976405
 30
0.0
 40
5.0
100
AcDbArc
 50
342.0
 51
72.0
  0
ARC
  5
C3
100
AcDbEntity
  8
Contornos Visibles
 62
256
370
-1
 48
1.0
  6
BYLAYER
100
AcDbCircle
 10
3470.1385695664662308
 20
839.9758356181819181
 30
0.0
 40
5.0
100
AcDbArc
 50
54.0
 51
144.0
  0
ARC
  5
C4
100
AcDbEntity
  8
Contornos Visibles
 62
256
370
-1
 48
1.0
  6
BYLAYER
100
AcDbCircle
 10
3357.8715863786042064
 20
826.4567748154556739
 30
0.0
 40
5.0
100
AcDbArc
 50
125.9999999999999858
 51
216.0
  0
ARC
  5
C5
100
AcDbEntity
  8
Contornos Visibles
 62
256
370
-1
 48
1.0
  6
BYLAYER
100
AcDbCircle
 10
3336.0365715369712234
 20
715.5069093538101015
 30
0.0
 40
5.0
100
AcDbArc
 50
198.0000000000000284
 51
288.0
  0
LINE
  5
C6
100
AcDbEntity
  8
Contornos Visibles
 62
256
370
-1
 48
1.0
  6
BYLAYER
100
AcDbLine
 10
3406.8087734078462745
 20
660.4551822540113335
 30
0.0
 11
3406.8087734078462745
 21
662.9068077383866466
 31
0.0
  0
LINE
  5
C7
100
AcDbEntity
  8
Contornos Visibles
 62
256
370
-1
 48
1.0
  6
BYLAYER
100
AcDbLine
 10
3509.03589030684725
 20
710.7516267723333385
 30
0.0
 11
3506.7042559144165352
 21
711.5092207108480125
 31
0.0
  0
LINE
  5
C8
100
AcDbEntity
  8
Contornos Visibles
 62
256
370
-1
 48
1.0
  6
BYLAYER
100
AcDbLine
 10
3492.7910454089651466
 20
823.5178485539927351
 30
0.0
 11
3491.3500161051047144
 21
821.5344418732903478
 31
0.0
  0
LINE
  5
C9
100
AcDbEntity
  8
Contornos Visibles
 62
256
370
-1
 48
1.0
  6
BYLAYER
100
AcDbLine
 10
3380.5240622211026675
 20
842.9147618796449706
 30
0.0
 11
3381.9650915249626451
 21
840.9313551989425832
 31
0.0
  0
LINE
  5
CA
100
AcDbEntity
  8
Contornos Visibles
 62
256
370
-1
 48
1.0
  6
BYLAYER
100
AcDbLine
 10
3327.3840956944727623
 20
742.1364918100745172
 30
0.0
 11
3329.7157300869030223
 21
742.8940857485890774
 31
0.0
  0
LINE
  5
CB
100
AcDbEntity
  8
Contornos Visibles
 62
256
370
-1
 48
1.0
  6
BYLAYER
100
AcDbLine
 10
3439.8087734078462745
 20
660.4551822540113335
 30
0.0
 11
3439.8087734078462745
 21
662.9068077383864193
 31
0.0
  0
LINE
  5
CC
100
AcDbEntity
  8
Contornos Visibles
 62
256
370
-1
 48
1.0
  6
BYLAYER
100
AcDbLine
 10
3519.2334511212202415
 20
742.1364918100733803
 30
0.0
 11
3516.9018167287899814
 21
742.8940857485880542
 31
0.0
  0
LINE
  5
CD
100
AcDbEntity
  8
Contornos Visibles
 62
256
370
-1
 48
1.0
  6
BYLAYER
100
AcDbLine
 10
3466.0934845945917004
 20
842.9147618796442885
 30
0.0
 11
3464.6524552907317229
 21
840.9313551989421285
 31
0.0
  0
LINE
  5
CE
100
AcDbEntity
  8
Contornos Visibles
 62
256
370
-1
 48
1.0
  6
BYLAYER
100
AcDbLine
 10
3353.8265014067292213
 20
823.5178485539933035
 30
0.0
 11
3355.2675307105891989
 21
821.5344418732911436
 31
0.0
  0
LINE
  5
CF
100
AcDbEntity
  8
Contornos Visibles
 62
256
370
-1
 48
1.0
  6
BYLAYER
100
AcDbLine
 10
3337.5816565088462085
 20
710.751626772334248
 30
0.0
 11
3339.9132909012760138
 21
711.509220710848922
 31
0.0
  0
ARC
  5
D0
100
AcDbEntity
  8
Contornos Visibles
 62
256
370
-1
 48
1.0
  6
BYLAYER
100
AcDbCircle
 10
3401.8087734078462745
 20
662.9068077383866466
 30
0.0
 40
5.0
100
AcDbArc
 50
0.0
 51
76.9894249145508951
  0
ARC
  5
D1
100
AcDbEntity
  8
Contornos Visibles
 62
256
370
-1
 48
1.0
  6
BYLAYER
100
AcDbCircle
 10
3505.1591709425420049
 20
706.7539381293722727
 30
0.0
 40
5.0
100
AcDbArc
 50
72.0
 51
148.9894249145509093
  0
ARC
  5
D2
100
AcDbEntity
  8
Contornos Visibles
 62
256
370
-1
 48
1.0
  6
BYLAYER
100
AcDbCircle
 10
3495.3951010769796994
 20
818.5955156118279774
 30
0.0
 40
5.0
100
AcDbArc
 50
144.0
 51
220.9894249145508809
  0
ARC
  5
D3
100
AcDbEntity
  8
Contornos Visibles
 62
256
370
-1
 48
1.0
  6
BYLAYER
100
AcDbCircle
 10
3386.0101764968376301
 20
843.8702814604049536
 30
0.0
 40
5.0
100
AcDbArc
 50
216.0
 51
292.9894249145509093
  0
ARC
  5
D4
100
AcDbEntity
  8
Contornos Visibles
 62
256
370
-1
 48
1.0
  6
BYLAYER
100
AcDbCircle
 10
3328.170645115028492
 20
747.6493683300648172
 30
0.0
 40
5.0
100
AcDbArc
 50
288.0
 51
4.9894249145508986
  0
ARC
  5
D5
100
AcDbEntity
  8
Contornos Visibles
 62
256
370
-1
 48
1.0
  6
BYLAYER
100
AcDbCircle
 10
3444.8087734078462745
 20
662.9068077383864193
 30
0.0
 40
5.0
100
AcDbArc
 50
103.0105750854491191
 51
180.0
  0
ARC
  5
D6
100
AcDbEntity
  8
Contornos Visibles
 62
256
370
-1
 48
1.0
  6
BYLAYER
100
AcDbCircle
 10
3518.4469017006649665
 20
747.649368330063794
 30
0.0
 40
5.0
100
AcDbArc
 50
175.0105750854491191
 51
251.9999999999999716
  0
ARC
  5
D7
100
AcDbEntity
  8
Contornos Visibles
 62
256
370
-1
 48
1.0
  6
BYLAYER
100
AcDbCircle
 10
3460.6073703188567379
 20
843.8702814604046125
 30
0.0
 40
5.0
100
AcDbArc
 50
247.010575085449176
 51
324.0
  0
ARC
  5
D8
100
AcDbEntity
  8
Contornos Visibles
 62
256
370
-1
 48
1.0
  6
BYLAYER
100
AcDbCircle
 10
3351.2224457387146686
 20
818.5955156118287732
 30
0.0
 40
5.0
100
AcDbArc
 50
319.0105750854491475
 51
36.0
  0
ARC
  5
D9
100
AcDbEntity
  8
Contornos Visibles
 62
256
370
-1
 48
1.0
  6
BYLAYER
100
AcDbCircle
 10
3341.4583758731509988
 20
706.7539381293731822
 30
0.0
 40
5.0
100
AcDbArc
 50
31.0105750854491511
 51
108.0
  0
ARC
  5
DA
100
AcDbEntity
  8
Contornos Visibles
 62
256
370
-1
 48
1.0
  6
BYLAYER
100
AcDbCircle
 10
3403.1289596060360054
 20
694.1670352116841514
 30
0.0
 40
10.0
100
AcDbArc
 50
71.91312552590216
 51
144.0000000000006253
  0
ARC
  5
DB
100
AcDbEntity
  8
Contornos Visibles
 62
256
370
-1
 48
1.0
  6
BYLAYER
100
AcDbCircle
 10
3475.8368878741734989
 20
717.6694513531590474
 30
0.0
 40
10.0
100
AcDbArc
 50
143.91312552590216
 51
216.0000000000006253
  0
ARC
  5
DC
100
AcDbEntity
  8
Contornos Visibles
 62
256
370
-1
 48
1.0
  6
BYLAYER
100
AcDbCircle
 10
3475.9527473147923047
 20
794.0814463154797522
 30
0.0
 40
10.0
100
AcDbArc
 50
215.91312552590216
 51
288.0000000000006253
  0
ARC
  5
DD
100
AcDbEntity
  8
Contornos Visibles
 62
256
370
-1
 48
1.0
  6
BYLAYER
100
AcDbCircle
 10
3403.3164241188751475
 20
817.8042402089046163
 30
0.0
 40
10.0
100
AcDbArc
 50
287.9131255259022169
 51
0.0000000000006107
  0
ARC
  5
DE
100
AcDbEntity
  8
Contornos Visibles
 62
256
370
-1
 48
1.0
  6
BYLAYER
100
AcDbCircle
 10
3358.3088481253566897
 20
756.0537381808291002
 30
0.0
 40
10.0
100
AcDbArc
 50
359.91312552590216
 51
72.0000000000006111
  0
ARC
  5
DF
100
AcDbEntity
  8
Contornos Visibles
 62
256
370
-1
 48
1.0
  6
BYLAYER
100
AcDbCircle
 10
3443.4885872096574531
 20
694.1670352116842651
 30
0.0
 40
10.0
100
AcDbArc
 50
35.9999999999999147
 51
108.08687447409784
  0
ARC
  5
E0
100
AcDbEntity
  8
Contornos Visibles
 62
256
370
-1
 48
1.0
  6
BYLAYER
100
AcDbCircle
 10
3488.3086986903367688
 20
756.0537381808291002
 30
0.0
 40
10.0
100
AcDbArc
 50
107.9999999999999147
 51
180.0868744740978116
  0
ARC
  5
E1
100
AcDbEntity
  8
Contornos Visibles
 62
256
370
-1
 48
1.0
  6
BYLAYER
100
AcDbCircle
 10
3443.3011226968183109
 20
817.8042402089045027
 30
0.0
 40
10.0
100
AcDbArc
 50
179.9999999999998863
 51
252.0868744740978116
  0
ARC
  5
E2
100
AcDbEntity
  8
Contornos Visibles
 62
256
370
-1
 48
1.0
  6
BYLAYER
100
AcDbCircle
 10
3370.6647995009011538
 20
794.0814463154796385
 30
0.0
 40
10.0
100
AcDbArc
 50
251.9999999999999147
 51
324.08687447409784
  0
ARC
  5
E3
100
AcDbEntity
  8
Contornos Visibles
 62
256
370
-1
 48
1.0
  6
BYLAYER
100
AcDbCircle
 10
3370.7806589415199596
 20
717.669451353159161
 30
0.0
 40
10.0
100
AcDbArc
 50
323.9999999999998863
 51
36.0868744740978045
  0
ARC
  5
E4
100
AcDbEntity
  8
Contornos Visibles
 62
256
370
-1
 48
1.0
  6
BYLAYER
100
AcDbCircle
 10
3399.4388008934724894
 20
689.087967476042536
 30
0.0
 40
10.0
100
AcDbArc
 50
144.0000000000006253
 51
250.3546690731706121
  0
ARC
  5
E5
100
AcDbEntity
  8
Contornos Visibles
 62
256
370
-1
 48
1.0
  6
BYLAYER
100
AcDbCircle
 10
3479.5270465867370149
 20
712.5903836175175456
 30
0.0
 40
10.0
100
AcDbArc
 50
216.0000000000006253
 51
322.354669073170669
  0
ARC
  5
E6
100
AcDbEntity
  8
Contornos Visibles
 62
256
370
-1
 48
1.0
  6
BYLAYER
100
AcDbCircle
 10
3481.9235495356019783
 20
796.0214775593318564
 30
0.0
 40
10.0
100
AcDbArc
 50
288.0000000000006253
 51
34.3546690731706335
  0
ARC
  5
E7
100
AcDbEntity
  8
Contornos Visibles
 62
256
370
-1
 48
1.0
  6
BYLAYER
100
AcDbCircle
 10
3403.3164241188751475
 20
824.0823131924836389
 30
0.0
 40
10.0
100
AcDbArc
 50
0.0000000000006107
 51
106.3546690731706263
  0
ARC
  5
E8
100
AcDbEntity
  8
Contornos Visibles
 62
256
370
-1
 48
1.0
  6
BYLAYER
100
AcDbCircle
 10
3352.3380459045474709
 20
757.993769424681318
 30
0.0
 40
10.0
100
AcDbArc
 50
72.0000000000006111
 51
178.3546690731706406
  0
ARC
  5
E9
100
AcDbEntity
  8
Contornos Visibles
 62
256
370
-1
 48
1.0
  6
BYLAYER
100
AcDbCircle
 10
3447.1787459222209691
 20
689.087967476042536
 30
0.0
 40
10.0
100
AcDbArc
 50
289.6453309268293879
 51
35.9999999999999147
  0
ARC
  5
EA
100
AcDbEntity
  8
Contornos Visibles
 62
256
370
-1
 48
1.0
  6
BYLAYER
100
AcDbCircle
 10
3494.2795009111459876
 20
757.9937694246812043
 30
0.0
 40
10.0
100
AcDbArc
 50
1.6453309268293654
 51
107.9999999999999147
  0
ARC
  5
EB
100
AcDbEntity
  8
Contornos Visibles
 62
256
370
-1
 48
1.0
  6
BYLAYER
100
AcDbCircle
 10
3443.3011226968183109
 20
824.0823131924835252
 30
0.0
 40
10.0
100
AcDbArc
 50
73.6453309268293737
 51
179.9999999999998863
  0
ARC
  5
EC
100
AcDbEntity
  8
Contornos Visibles
 62
256
370
-1
 48
1.0
  6
BYLAYER
100
AcDbCircle
 10
3364.6939972800914802
 20
796.0214775593318564
 30
0.0
 40
10.0
100
AcDbArc
 50
145.6453309268293594
 51
251.9999999999999147
  0
ARC
  5
ED
100
AcDbEntity
  8
Contornos Visibles
 62
256
370
-1
 48
1.0
  6
BYLAYER
100
AcDbCircle
 10
3367.0905002289564436
 20
712.5903836175175456
 30
0.0
 40
10.0
100
AcDbArc
 50
217.6453309268293594
 51
323.9999999999998863
  0
LINE
  5
EE
100
AcDbEntity
  8
Contornos Visibles
 62
256
370
-1
 48
1.0
  6
BYLAYER
100
AcDbLine
 10
3391.348630949722974
 20
694.965819998967163
 30
0.0
 11
3395.0387896622864901
 21
700.0448877346087784
 31
0.0
  0
LINE
  5
EF
100
AcDbEntity
  8
Contornos Visibles
 62
256
370
-1
 48
1.0
  6
BYLAYER
100
AcDbLine
 10
3471.4368766429874995
 20
706.7125310945926913
 30
0.0
 11
3467.7467179304239835
 21
711.7915988302343067
 31
0.0
  0
LINE
  5
F0
100
AcDbEntity
  8
Contornos Visibles
 62
256
370
-1
 48
1.0
  6
BYLAYER
100
AcDbLine
 10
3485.0137194793514936
 20
786.5109123963803768
 30
0.0
 11
3479.04291725854182
 21
784.5708811525282727
 31
0.0
  0
LINE
  5
F1
100
AcDbEntity
  8
Contornos Visibles
 62
256
370
-1
 48
1.0
  6
BYLAYER
100
AcDbLine
 10
3413.3164241188751475
 20
824.0823131924837526
 30
0.0
 11
3413.3164241188751475
 21
817.80424020890473
 31
0.0
  0
LINE
  5
F2
100
AcDbEntity
  8
Contornos Visibles
 62
256
370
-1
 48
1.0
  6
BYLAYER
100
AcDbLine
 10
3355.4282158482965315
 20
767.5043345876326839
 30
0.0
 11
3361.3990180691062051
 21
765.5643033437805798
 31
0.0
  0
LINE
  5
F3
100
AcDbEntity
  8
Contornos Visibles
 62
256
370
-1
 48
1.0
  6
BYLAYER
100
AcDbLine
 10
3451.5787571534069684
 20
700.0448877346090057
 30
0.0
 11
3455.2689158659704844
 21
694.9658199989672767
 31
0.0
  0
LINE
  5
F4
100
AcDbEntity
  8
Contornos Visibles
 62
256
370
-1
 48
1.0
  6
BYLAYER
100
AcDbLine
 10
3485.2185287465872534
 20
765.5643033437806935
 30
0.0
 11
3491.1893309673964723
 21
767.5043345876326839
 31
0.0
  0
LINE
  5
F5
100
AcDbEntity
  8
Contornos Visibles
 62
256
370
-1
 48
1.0
  6
BYLAYER
100
AcDbLine
 10
3433.3011226968183109
 20
817.8042402089045027
 30
0.0
 11
3433.3011226968183109
 21
824.0823131924836389
 31
0.0
  0
LINE
  5
F6
100
AcDbEntity
  8
Contornos Visibles
 62
256
370
-1
 48
1.0
  6
BYLAYER
100
AcDbLine
 10
3367.5746295571516384
 20
784.5708811525280453
 30
0.0
 11
3361.6038273363419648
 21
786.5109123963802631
 31
0.0
  0
LINE
  5
F7
100
AcDbEntity
  8
Contornos Visibles
 62
256
370
-1
 48
1.0
  6
BYLAYER
100
AcDbLine
 10
3378.870828885269475
 20
711.7915988302344203
 30
0.0
 11
3375.180670172705959
 21
706.7125310945926913
 31
0.0
  0
CIRCLE
  5
F8
100
AcDbEntity
  8
Ejes de revoluci\U+00f3n
 62
256
370
-1
 48
1.0
  6
BYLAYER
100
AcDbCircle
 10
3423.3087734078467292
 20
755.9551822540113335
 30
0.0
 40
76.0
  0
ARC
  5
F9
100
AcDbEntity
  8
Contornos Visibles
 62
256
370
-1
 48
1.0
  6
BYLAYER
100
AcDbCircle
 10
3423.3087734078462745
 20
679.9551822540113335
 30
0.0
 40
5.0
100
AcDbArc
 50
1.8850696544423036
 51
178.1149303455576955
  0
ARC
  5
FA
100
AcDbEntity
  8
Contornos Visibles
 62
256
370
-1
 48
1.0
  6
BYLAYER
100
AcDbCircle
 10
3495.589068646278065
 20
732.4698906815148121
 30
0.0
 40
5.0
100
AcDbArc
 50
73.8850696544423045
 51
250.114930345557724
  0
ARC
  5
FB
100
AcDbEntity
  8
Contornos Visibles
 62
256
370
-1
 48
1.0
  6
BYLAYER
100
AcDbCircle
 10
3467.9804525820750314
 20
817.4404738265070591
 30
0.0
 40
5.0
100
AcDbArc
 50
145.8850696544423045
 51
322.1149303455576955
  0
ARC
  5
FC
100
AcDbEntity
  8
Contornos Visibles
 62
256
370
-1
 48
1.0
  6
BYLAYER
100
AcDbCircle
 10
3378.6370942336193366
 20
817.4404738265076276
 30
0.0
 40
5.0
100
AcDbArc
 50
217.8850696544423329
 51
34.1149303455577169
  0
ARC
  5
FD
100
AcDbEntity
  8
Contornos Visibles
 62
256
370
-1
 48
1.0
  6
BYLAYER
100
AcDbCircle
 10
3351.0284781694149387
 20
732.4698906815157216
 30
0.0
 40
5.0
100
AcDbArc
 50
289.8850696544422476
 51
106.114930345557724
  0
ARC
  5
FE
100
AcDbEntity
  8
Contornos Visibles
 62
256
370
-1
 48
1.0
  6
BYLAYER
100
AcDbCircle
 10
3413.3304381501375246
 20
680.6130769908536422
 30
0.0
 40
5.0
100
AcDbArc
 50
262.455632629887873
 51
356.2278163149416628
  0
ARC
  5
FF
100
AcDbEntity
  8
Contornos Visibles
 62
256
370
-1
 48
1.0
  6
BYLAYER
100
AcDbCircle
 10
3491.8798983995652634
 20
723.1832305670873211
 30
0.0
 40
5.0
100
AcDbArc
 50
334.4556326298878162
 51
68.227816314941677
  0
ARC
  5
100
100
AcDbEntity
  8
Contornos Visibles
 62
256
370
-1
 48
1.0
  6
BYLAYER
100
AcDbCircle
 10
3475.6663945572554439
 20
811.0431074969804968
 30
0.0
 40
5.0
100
AcDbArc
 50
46.4556326298878233
 51
140.2278163149416628
  0
ARC
  5
101
100
AcDbEntity
  8
Contornos Visibles
 62
256
370
-1
 48
1.0
  6
BYLAYER
100
AcDbCircle
 10
3387.0964378565531661
 20
822.7733441108035777
 30
0.0
 40
5.0
100
AcDbArc
 50
118.4556326298878162
 51
212.2278163149416628
  0
ARC
  5
102
100
AcDbEntity
  8
Contornos Visibles
 62
256
370
-1
 48
1.0
  6
BYLAYER
100
AcDbCircle
 10
3348.5706980757222482
 20
742.1631521043315161
 30
0.0
 40
5.0
100
AcDbArc
 50
190.4556326298878162
 51
284.2278163149416628
  0
ARC
  5
103
100
AcDbEntity
  8
Contornos Visibles
 62
256
370
-1
 48
1.0
  6
BYLAYER
100
AcDbCircle
 10
3433.2871086655550243
 20
680.6130769908534148
 30
0.0
 40
5.0
100
AcDbArc
 50
183.7721836850570298
 51
277.5443673701124112
  0
ARC
  5
104
100
AcDbEntity
  8
Contornos Visibles
 62
256
370
-1
 48
1.0
  6
BYLAYER
100
AcDbCircle
 10
3498.0468487399712103
 20
742.1631521043304929
 30
0.0
 40
5.0
100
AcDbArc
 50
255.7721836850570014
 51
349.5443673701123544
  0
ARC
  5
105
100
AcDbEntity
  8
Contornos Visibles
 62
256
370
-1
 48
1.0
  6
BYLAYER
100
AcDbCircle
 10
3459.5211089591412019
 20
822.7733441108032366
 30
0.0
 40
5.0
100
AcDbArc
 50
327.772183685056973
 51
61.5443673701123686
  0
ARC
  5
106
100
AcDbEntity
  8
Contornos Visibles
 62
256
370
-1
 48
1.0
  6
BYLAYER
100
AcDbCircle
 10
3370.9511522584384693
 20
811.0431074969812926
 30
0.0
 40
5.0
100
AcDbArc
 50
39.7721836850570014
 51
133.5443673701123828
  0
ARC
  5
107
100
AcDbEntity
  8
Contornos Visibles
 62
256
370
-1
 48
1.0
  6
BYLAYER
100
AcDbCircle
 10
3354.7376484161277403
 20
723.1832305670882306
 30
0.0
 40
5.0
100
AcDbArc
 50
111.7721836850569872
 51
205.5443673701123544
  0
CIRCLE
  5
108
100
AcDbEntity
  8
Ejes de revoluci\U+00f3n
 62
256
370
-1
 48
1.0
  6
BYLAYER
100
AcDbCircle
 10
3423.3087734078467292
 20
755.9551822540113335
 30
0.0
 40
126.0
  0
CIRCLE
  5
109
100
AcDbEntity
  8
Ejes de revoluci\U+00f3n
 62
256
370
-1
 48
1.0
  6
BYLAYER
100
AcDbCircle
 10
3423.3087734078467292
 20
755.9551822540113335
 30
0.0
 40
134.0
  0
CIRCLE
  5
10A
100
AcDbEntity
  8
Ejes de revoluci\U+00f3n
 62
256
370
-1
 48
1.0
  6
BYLAYER
100
AcDbCircle
 10
3423.3087734078467292
 20
755.9551822540113335
 30
0.0
 40
142.0
  0
LINE
  5
10B
100
AcDbEntity
  8
Referencias
 62
256
370
-1
 48
1.0
  6
BYLAYER
100
AcDbLine
 10
3423.3087734078467292
 20
905.9551822540113335
 30
0.0
 11
3359.0300124391928875
 21
829.3507379421134829
 31
0.0
  0
CIRCLE
  5
10C
100
AcDbEntity
  8
Contornos Visibles
 62
256
370
-1
 48
1.0
  6
BYLAYER
100
AcDbCircle
 10
3416.4571955618562242
 20
897.7897897411135091
 30
0.0
 40
2.5
  0
CIRCLE
  5
10D
100
AcDbEntity
  8
Contornos Visibles
 62
256
370
-1
 48
1.0
  6
BYLAYER
100
AcDbCircle
 10
3303.9021891112170124
 20
679.1042380398257592
 30
0.0
 40
2.5
  0
CIRCLE
  5
10E
100
AcDbEntity
  8
Contornos Visibles
 62
256
370
-1
 48
1.0
  6
BYLAYER
100
AcDbCircle
 10
3549.5669355504669511
 20
690.9715189810947322
 30
0.0
 40
2.5
  0
CIRCLE
  5
10F
100
AcDbEntity
  8
Contornos Visibles
 62
256
370
-1
 48
1.0
  6
BYLAYER
100
AcDbCircle
 10
3409.2638600768214019
 20
889.2171063340874753
 30
0.0
 40
2.5
  0
CIRCLE
  5
110
100
AcDbEntity
  8
Contornos Visibles
 62
256
370
-1
 48
1.0
  6
BYLAYER
100
AcDbCircle
 10
3314.923018462820437
 20
677.1609684753545935
 30
0.0
 40
2.5
  0
CIRCLE
  5
111
100
AcDbEntity
  8
Contornos Visibles
 62
256
370
-1
 48
1.0
  6
BYLAYER
100
AcDbCircle
 10
3545.7394416838983489
 20
701.4874719525919318
 30
0.0
 40
2.5
  0
CIRCLE
  5
112
100
AcDbEntity
  8
Contornos Visibles
 62
256
370
-1
 48
1.0
  6
BYLAYER
100
AcDbCircle
 10
3401.5875078115363976
 20
880.0687859439152589
 30
0.0
 40
2.5
  0
CIRCLE
  5
113
100
AcDbEntity
  8
Contornos Visibles
 62
256
370
-1
 48
1.0
  6
BYLAYER
100
AcDbCircle
 10
3326.6838724553108477
 20
675.0872126003057474
 30
0.0
 40
2.5
  0
CIRCLE
  5
114
100
AcDbEntity
  8
Contornos Visibles
 62
256
370
-1
 48
1.0
  6
BYLAYER
100
AcDbCircle
 10
3541.6549399566929424
 20
712.7095482178129942
 30
0.0
 40
2.5
  0
LINE
  5
115
100
AcDbEntity
  8
Ejes de revoluci\U+00f3n
 62
256
370
-1
 48
1.0
  6
BYLAYER
100
AcDbLine
 10
3401.5875078115363976
 20
876.5687859439152589
 30
0.0
 11
3401.5875078115363976
 21
883.5687859439152589
 31
0.0
  0
LINE
  5
116
100
AcDbEntity
  8
Ejes de revoluci\U+00f3n
 62
256
370
-1
 48
1.0
  6
BYLAYER
100
AcDbLine
 10
3329.7149613685564873
 20
676.8372126003057474
 30
0.0
 11
3323.6527835420656629
 21
673.3372126003057474
 31
0.0
  0
LINE
  5
117
100
AcDbEntity
  8
Ejes de revoluci\U+00f3n
 62
256
370
-1
 48
1.0
  6
BYLAYER
100
AcDbLine
 10
3538.6238510434473028
 20
714.4595482178129942
 30
0.0
 11
3544.6860288699381272
 21
710.9595482178129942
 31
0.0
  0
LINE
  5
118
100
AcDbEntity
  8
Ejes de revoluci\U+00f3n
 62
256
370
-1
 48
1.0
  6
BYLAYER
100
AcDbLine
 10
3409.2638600768214019
 20
885.7171063340874753
 30
0.0
 11
3409.2638600768214019
 21
892.7171063340874753
 31
0.0
  0
LINE
  5
119
100
AcDbEntity
  8
Ejes de revoluci\U+00f3n
 62
256
370
-1
 48
1.0
  6
BYLAYER
100
AcDbLine
 10
3317.9541073760656218
 20
678.9109684753545935
 30
0.0
 11
3311.8919295495747974
 21
675.4109684753545935
 31
0.0
  0
LINE
  5
11A
100
AcDbEntity
  8
Ejes de revoluci\U+00f3n
 62
256
370
-1
 48
1.0
  6
BYLAYER
100
AcDbLine
 10
3542.708352770653164
 20
703.2374719525919318
 30
0.0
 11
3548.7705305971439884
 21
699.7374719525919318
 31
0.0
  0
LINE
  5
11B
100
AcDbEntity
  8
Ejes de revoluci\U+00f3n
 62
256
370
-1
 48
1.0
  6
BYLAYER
100
AcDbLine
 10
3416.4571955618562242
 20
894.2897897411135091
 30
0.0
 11
3416.4571955618562242
 21
901.2897897411135091
 31
0.0
  0
LINE
  5
11C
100
AcDbEntity
  8
Ejes de revoluci\U+00f3n
 62
256
370
-1
 48
1.0
  6
BYLAYER
100
AcDbLine
 10
3306.933278024462652
 20
680.8542380398258729
 30
0.0
 11
3300.8711001979713728
 21
677.3542380398257592
 31
0.0
  0
LINE
  5
11D
100
AcDbEntity
  8
Ejes de revoluci\U+00f3n
 62
256
370
-1
 48
1.0
  6
BYLAYER
100
AcDbLine
 10
3546.5358466372213115
 20
692.7215189810947322
 30
0.0
 11
3552.5980244637125907
 21
689.2215189810946185
 31
0.0
  0
LINE
  5
11E
100
AcDbEntity
  8
Ejes de revoluci\U+00f3n
 62
256
370
-1
 48
1.0
  6
BYLAYER
100
AcDbLine
 10
3268.3087734078467292
 20
755.9551822540113335
 30
0.0
 11
3578.3087734078467292
 21
755.9551822540113335
 31
0.0
  0
LINE
  5
11F
100
AcDbEntity
  8
Ejes de revoluci\U+00f3n
 62
256
370
-1
 48
1.0
  6
BYLAYER
100
AcDbLine
 10
3423.3087734078467292
 20
600.9551822540113335
 30
0.0
 11
3423.3087734078467292
 21
910.9551822540113335
 31
0.0
  0
DIMENSION
  5
120
100
AcDbEntity
  8
Cotas
 62
256
370
-1
 48
1.0
  6
BYLAYER
100
AcDbDimension
 10
3456.3081323405217518
 20
767.6188999303133187
 30
0.0
 11
3450.3654582302110612
 21
767.6764822681792566
 31
0.0
 70
131
 71
8
 72
2
 74
0
 75
0
 41
1.0
 42
0.0
  1
\U+00f8<>
  3
Standard
100
AcDbDiametricDimension
 15
3390.3094144751717067
 25
744.2914645777093483
 35
0.0
 40
0.0
1001
ACAD
1000
DSTYLE
1002
{
1070
279
1070
2
1070
144
1040
1.0
1070
40
1040
1.0
1002
}
  0
DIMENSION
  5
121
100
AcDbEntity
  8
Cotas
 62
256
370
-1
 48
1.0
  6
BYLAYER
100
AcDbDimension
 10
3378.5283298889821708
 20
760.394988359438571
 30
0.0
 11
3383.5571271490839536
 21
761.9436722831347879
 31
0.0
 70
131
 71
8
 72
2
 74
0
 75
0
 41
1.0
 42
0.0
  1
\U+00f8<>
  3
Standard
100
AcDbDiametricDimension
 15
3468.0892169267112877
 25
751.515376148584096
 35
0.0
 40
0.0
1001
ACAD
1000
DSTYLE
1002
{
1070
279
1070
2
1070
144
1040
1.0
1070
40
1040
1.0
1002
}
  0
DIMENSION
  5
122
100
AcDbEntity
  8
Cotas
 62
256
370
-1
 48
1.0
  6
BYLAYER
100
AcDbDimension
 10
3399.9264608862404202
 20
720.621672033364348
 30
0.0
 11
3389.6122451420856123
 21
719.5808577817768992
 31
0.0
 70
131
 71
8
 72
2
 74
0
 75
0
 41
1.0
 42
0.0
  1
\U+00f8<>
  3
Standard
100
AcDbDiametricDimension
 15
3393.7904132231305994
 25
718.4771629809131355
 35
0.0
 40
0.0
1001
ACAD
1000
DSTYLE
1002
{
1070
279
1070
2
1070
144
1040
1.0
1070
40
1040
1.0
1002
}
  0
DIMENSION
  5
123
100
AcDbEntity
  8
Cotas
 62
256
370
-1
 48
1.0
  6
BYLAYER
100
AcDbDimension
 10
3367.0905002289564436
 20
712.5903836175175456
 30
0.0
 11
3369.9632995485362699
 21
708.0889783847684384
 31
0.0
 70
4
 71
8
 72
2
 74
0
 41
1.0
 42
0.0
  1
R<>
  3
Standard
100
AcDbRadialDimension
 15
3369.167909293809771
 25
702.808544752699504
 35
0.0
 40
0.0
1001
ACAD
1000
DSTYLE
1002
{
1070
144
1040
1.0
1070
40
1040
1.0
1002
}
  0
DIMENSION
  5
124
100
AcDbEntity
  8
Cotas
 62
256
370
-1
 48
1.0
  6
BYLAYER
100
AcDbDimension
 10
3352.3380459045474709
 20
757.993769424681318
 30
0.0
 11
3351.0112751505430424
 21
763.1663224081042927
 31
0.0
 70
4
 71
8
 72
2
 74
0
 41
1.0
 42
0.0
  1
R<>
  3
Standard
100
AcDbRadialDimension
 15
3346.6105226207541818
 25
766.1910541601047271
 35
0.0
 40
0.0
1001
ACAD
1000
DSTYLE
1002
{
1070
144
1040
1.0
1070
40
1040
1.0
1002
}
  0
DIMENSION
  5
125
100
AcDbEntity
  8
Cotas
 62
256
370
-1
 48
1.0
  6
BYLAYER
100
AcDbDimension
 10
3378.6370942336193366
 20
817.4404738265076276
 30
0.0
 11
3389.2198346935083464
 21
817.6083243644164895
 31
0.0
 70
4
 71
8
 72
2
 74
0
 41
1.0
 42
0.0
  1
R<>
  3
Standard
100
AcDbRadialDimension
 15
3383.5714391650626567
 25
816.6328599970440791
 35
0.0
 40
0.0
1001
ACAD
1000
DSTYLE
1002
{
1070
144
1040
1.0
1070
40
1040
1.0
1002
}
  0
DIMENSION
  5
126
100
AcDbEntity
  8
Cotas
 62
256
370
-1
 48
1.0
  6
BYLAYER
100
AcDbDimension
 10
3459.5211089591412019
 20
822.7733441108032366
 30
0.0
 11
3469.1303799619527126
 21
827.2100636465611387
 31
0.0
 70
4
 71
8
 72
2
 74
0
 41
1.0
 42
0.0
  1
R<>
  3
Standard
100
AcDbRadialDimension
 15
3464.3601080382181863
 25
824.0319496537332498
 35
0.0
 40
0.0
1001
ACAD
1000
DSTYLE
1002
{
1070
144
1040
1.0
1070
40
1040
1.0
1002
}
  0
DIMENSION
  5
127
100
AcDbEntity
  8
Cotas
 62
256
370
-1
 48
1.0
  6
BYLAYER
100
AcDbDimension
 10
3475.6663945572554439
 20
811.0431074969804968
 30
0.0
 11
3476.3082683065063065
 21
821.607697765157809
 31
0.0
 70
4
 71
8
 72
2
 74
0
 41
1.0
 42
0.0
  1
R<>
  3
Standard
100
AcDbRadialDimension
 15
3476.8489594534303251
 25
815.9012491443941144
 35
0.0
 40
0.0
1001
ACAD
1000
DSTYLE
1002
{
1070
144
1040
1.0
1070
40
1040
1.0
1002
}
  0
DIMENSION
  5
128
100
AcDbEntity
  8
Cotas
 62
256
370
-1
 48
1.0
  6
BYLAYER
100
AcDbDimension
 10
3488.3086986903367688
 20
756.0537381808291002
 30
0.0
 11
3485.4439442929287907
 21
760.560267581879657
 31
0.0
 70
4
 71
8
 72
2
 74
0
 41
1.0
 42
0.0
  1
R<>
  3
Standard
100
AcDbRadialDimension
 15
3480.3223702777527251
 25
762.0719238282110837
 35
0.0
 40
0.0
1001
ACAD
1000
DSTYLE
1002
{
1070
144
1040
1.0
1070
40
1040
1.0
1002
}
  0
DIMENSION
  5
129
100
AcDbEntity
  8
Cotas
 62
256
370
-1
 48
1.0
  6
BYLAYER
100
AcDbDimension
 10
3475.8368878741734989
 20
717.6694513531590474
 30
0.0
 11
3470.9464596883872218
 21
719.8140578810961188
 31
0.0
 70
4
 71
8
 72
2
 74
0
 41
1.0
 42
0.0
  1
R<>
  3
Standard
100
AcDbRadialDimension
 15
3465.8517382697682478
 25
718.2142333073811642
 35
0.0
 40
0.0
1001
ACAD
1000
DSTYLE
1002
{
1070
144
1040
1.0
1070
40
1040
1.0
1002
}
  0
LINE
  5
12A
100
AcDbEntity
  8
Ejes de revoluci\U+00f3n
 62
256
370
-1
 48
1.0
  6
BYLAYER
100
AcDbLine
 10
3501.2954077440490437
 20
730.615788715265694
 30
0.0
 11
3489.8827295485070863
 21
734.323992647765067
 31
0.0
  0
LINE
  5
12B
100
AcDbEntity
  8
Ejes de revoluci\U+00f3n
 62
256
370
-1
 48
1.0
  6
BYLAYER
100
AcDbLine
 10
3471.5071640958290118
 20
822.2945757927572004
 30
0.0
 11
3464.4537410683196867
 21
812.5863718602578274
 31
0.0
  0
LINE
  5
12C
100
AcDbEntity
  8
Ejes de revoluci\U+00f3n
 62
256
370
-1
 48
1.0
  6
BYLAYER
100
AcDbLine
 10
3375.1103827198635372
 20
822.2945757927572004
 30
0.0
 11
3382.163805747373317
 21
812.5863718602578274
 31
0.0
  0
LINE
  5
12D
100
AcDbEntity
  8
Ejes de revoluci\U+00f3n
 62
256
370
-1
 48
1.0
  6
BYLAYER
100
AcDbLine
 10
3345.3221390716435053
 20
730.6157887152658077
 30
0.0
 11
3356.7348172671854627
 21
734.323992647765067
 31
0.0
  0
DIMENSION
  5
12E
100
AcDbEntity
  8
Cotas
 62
256
370
-1
 48
1.0
  6
BYLAYER
100
AcDbDimension
 10
3343.5550957660075255
 20
680.1966784237380352
 30
0.0
 11
3346.1997777730712187
 21
675.557574837751531
 31
0.0
 70
4
 71
8
 72
2
 74
0
 41
1.0
 42
0.0
  1
R<>
  3
Standard
100
AcDbRadialDimension
 15
3345.1419769273338716
 25
670.3233908162676471
 35
0.0
 40
0.0
1001
ACAD
1000
DSTYLE
1002
{
1070
144
1040
1.0
1070
40
1040
1.0
1002
}
  0
DIMENSION
  5
12F
100
AcDbEntity
  8
Cotas
 62
256
370
-1
 48
1.0
  6
BYLAYER
100
AcDbDimension
 10
3314.2569615445195268
 20
770.367063787161328
 30
0.0
 11
3313.2144098829112409
 21
775.6043064808768577
 31
0.0
 70
4
 71
8
 72
2
 74
0
 41
1.0
 42
0.0
  1
R<>
  3
Standard
100
AcDbRadialDimension
 15
3308.9852593255573083
 25
778.8646608424814985
 35
0.0
 40
0.0
1001
ACAD
1000
DSTYLE
1002
{
1070
144
1040
1.0
1070
40
1040
1.0
1002
}
  0
DIMENSION
  5
130
100
AcDbEntity
  8
Cotas
 62
256
370
-1
 48
1.0
  6
BYLAYER
100
AcDbDimension
 10
3381.591131056163249
 20
664.5227573894316038
 30
0.0
 11
3381.0485690381110544
 21
669.8351251719337824
 31
0.0
 70
4
 71
8
 72
2
 74
0
 41
1.0
 42
0.0
  1
R<>
  3
Standard
100
AcDbRadialDimension
 15
3377.1467256880705463
 25
673.4808409414010839
 35
0.0
 40
0.0
1001
ACAD
1000
DSTYLE
1002
{
1070
144
1040
1.0
1070
40
1040
1.0
1002
}
  0
DIMENSION
  5
131
100
AcDbEntity
  8
Cotas
 62
256
370
-1
 48
1.0
  6
BYLAYER
100
AcDbDimension
 10
3470.7141503851698872
 20
656.6942622822630256
 30
0.0
 11
3475.9121462289913325
 21
657.9175628208140552
 31
0.0
 70
4
 71
8
 72
2
 74
0
 41
1.0
 42
0.0
  1
R<>
  3
Standard
100
AcDbRadialDimension
 15
3480.6328064654376249
 25
655.4213673292646263
 35
0.0
 40
0.0
1001
ACAD
1000
DSTYLE
1002
{
1070
144
1040
1.0
1070
40
1040
1.0
1002
}
  0
DIMENSION
  5
132
100
AcDbEntity
  8
Cotas
 62
256
370
-1
 48
1.0
  6
BYLAYER
100
AcDbDimension
 10
3505.1591709425420049
 20
706.7539381293722727
 30
0.0
 11
3503.8311297238838051
 21
717.2543607859128088
 31
0.0
 70
4
 71
8
 72
2
 74
0
 41
1.0
 42
0.0
  1
R<>
  3
Standard
100
AcDbRadialDimension
 15
3503.6629521296003986
 25
711.5248216181822727
 35
0.0
 40
0.0
1001
ACAD
1000
DSTYLE
1002
{
1070
144
1040
1.0
1070
40
1040
1.0
1002
}
  0
DIMENSION
  5
133
100
AcDbEntity
  8
Cotas
 62
256
370
-1
 48
1.0
  6
BYLAYER
100
AcDbDimension
 10
3518.4469017006649665
 20
747.649368330063794
 30
0.0
 11
3509.2232237059993167
 21
742.4583825185663954
 31
0.0
 70
4
 71
8
 72
2
 74
0
 41
1.0
 42
0.0
  1
R<>
  3
Standard
100
AcDbRadialDimension
 15
3514.5929068698569608
 25
744.4639760709995926
 35
0.0
 40
0.0
1001
ACAD
1000
DSTYLE
1002
{
1070
144
1040
1.0
1070
40
1040
1.0
1002
}
  0
DIMENSION
  5
134
100
AcDbEntity
  8
Cotas
 62
256
370
-1
 48
1.0
  6
BYLAYER
100
AcDbDimension
 10
3510.7668567544565121
 20
822.457510114136312
 30
0.0
 11
3469.6106003463733032
 21
798.2156528409437897
 31
0.0
 70
132
 71
8
 72
2
 74
0
 41
1.0
 42
0.0
  1
R<>
  3
Standard
100
AcDbRadialDimension
 15
3465.4214768950796497
 25
791.3320137259850071
 35
0.0
 40
0.0
1001
ACAD
1000
DSTYLE
1002
{
1070
279
1070
2
1070
144
1040
1.0
1070
40
1040
1.0
1002
}
  0
DIMENSION
  5
135
100
AcDbEntity
  8
Cotas
 62
256
370
-1
 48
1.0
  6
BYLAYER
100
AcDbDimension
 10
3557.5631374952881743
 20
846.5982818496316895
 30
0.0
 11
3492.8735272709118362
 21
806.4443108934100337
 31
0.0
 70
132
 71
8
 72
2
 74
0
 41
1.0
 42
0.0
  1
R<>
  3
Standard
100
AcDbRadialDimension
 15
3489.9055331721961011
 25
802.0623572801346199
 35
0.0
 40
0.0
1001
ACAD
1000
DSTYLE
1002
{
1070
279
1070
2
1070
144
1040
1.0
1070
40
1040
1.0
1002
}
  0
MTEXT
  5
136
100
AcDbEntity
  8
Cotas
 62
256
370
-1
 48
1.0
  6
BYLAYER
100
AcDbMText
 10
3567.2271186799248426
 20
887.8474755891851373
 30
0.0
 40
2.5
 41
0.0
 71
1
 72
1
  1
%%c300
  7
textstyle1
 50
0.0
 73
2
 44
1.0
  0
LEADER
  5
137
100
AcDbEntity
  8
Cotas
 62
256
370
-1
 48
1.0
  6
BYLAYER
100
AcDbLeader
  3
Standard
 71
1
 72
0
 73
3
 74
0
 75
0
 40
1.0
 41
10.0
 76
3
 10
3527.1454082383183959
 20
864.2046777128044823
 10
3566.9771186799248426
 20
884.9525233381619955
 10
3575.0457674505555588
 20
884.9525233381619955
1001
ACAD
1000
DSTYLE
1002
{
1070
40
1040
1.0
1002
}
  0
DIMENSION
  5
138
100
AcDbEntity
  8
Cotas
 62
256
370
-1
 48
1.0
  6
BYLAYER
100
AcDbDimension
 10
3609.1775275970076109
 20
755.9551822540113335
 30
0.0
 11
3607.3025275970076109
 21
747.4551822540115609
 31
0.0
 70
0
 71
8
 72
2
 74
0
 75
0
 41
1.0
 42
0.0
  1

  3
Standard
100
AcDbAlignedDimension
 13
3578.3087734078467292
 23
755.9551822540113335
 33
0.0
 14
3423.308773407847184
 24
738.9551822540119019
 34
0.0
 50
90.0
100
AcDbRotatedDimension
1001
ACAD
1000
DSTYLE
1002
{
1070
144
1040
1.0
1070
40
1040
1.0
1002
}
  0
DIMENSION
  5
139
100
AcDbEntity
  8
Cotas
 62
256
370
-1
 48
1.0
  6
BYLAYER
100
AcDbDimension
 10
3624.8431634300250153
 20
755.9551822540113335
 30
0.0
 11
3622.9681634300250153
 21
705.7051822540113335
 31
0.0
 70
0
 71
8
 72
2
 74
0
 75
0
 41
1.0
 42
0.0
  1

  3
Standard
100
AcDbAlignedDimension
 13
3578.9337734078467292
 23
755.9551822540113335
 33
0.0
 14
3423.3087734078467292
 24
655.4551822540113335
 34
0.0
 50
90.0
100
AcDbRotatedDimension
1001
ACAD
1000
DSTYLE
1002
{
1070
144
1040
1.0
1070
40
1040
1.0
1002
}
  0
DIMENSION
  5
13A
100
AcDbEntity
  8
Cotas
 62
256
370
-1
 48
1.0
  6
BYLAYER
100
AcDbDimension
 10
3406.8087734078462745
 20
588.3124658013982753
 30
0.0
 11
3423.3087734078462745
 21
590.1874658013982753
 31
0.0
 70
0
 71
8
 72
2
 74
0
 75
0
 41
1.0
 42
0.0
  1

  3
Standard
100
AcDbAlignedDimension
 13
3406.8087734078462745
 23
660.4551822540113335
 33
0.0
 14
3439.8087734078462745
 24
660.4551822540113335
 34
0.0
 50
0.0
100
AcDbRotatedDimension
1001
ACAD
1000
DSTYLE
1002
{
1070
144
1040
1.0
1070
40
1040
1.0
1002
}
  0
MTEXT
  5
13B
100
AcDbEntity
  8
Cotas
 62
256
370
-1
 48
1.0
  6
BYLAYER
100
AcDbMText
 10
3359.0053266013756001
 20
604.6153980779541826
 30
0.0
 40
2.5
 41
0.0
 71
1
 72
1
  1
%%c181
  7
textstyle2
 50
0.0
 73
2
 44
1.0
  0
MTEXT
  5
13C
100
AcDbEntity
  8
Cotas
 62
256
370
-1
 48
1.0
  6
BYLAYER
100
AcDbMText
 10
3379.7545131351739656
 20
594.981847187262133
 30
0.0
 40
2.5
 41
0.0
 71
1
 72
1
  1
%%c240
  7
textstyle3
 50
0.0
 73
2
 44
1.0
  0
LEADER
  5
13D
100
AcDbEntity
  8
Cotas
 62
256
370
-1
 48
1.0
  6
BYLAYER
100
AcDbLeader
  3
Standard
 71
1
 72
0
 73
3
 74
0
 75
0
 40
1.0
 41
10.0
 76
3
 10
3394.1913959176267781
 20
670.2672115224552272
 10
3366.3498962451303669
 20
601.7204458269310408
 10
3358.7553266013756001
 20
601.7204458269310408
1001
ACAD
1000
DSTYLE
1002
{
1070
40
1040
1.0
1002
}
  0
LEADER
  5
13E
100
AcDbEntity
  8
Cotas
 62
256
370
-1
 48
1.0
  6
BYLAYER
100
AcDbLeader
  3
Standard
 71
1
 72
0
 73
3
 74
0
 75
0
 40
1.0
 41
10.0
 76
3
 10
3400.7653275586835662
 20
638.0917313913886346
 10
3387.5731619058046817
 20
592.0868949362389912
 10
3379.5045131351739656
 20
592.0868949362389912
1001
ACAD
1000
DSTYLE
1002
{
1070
40
1040
1.0
1002
}
  0
DIMENSION
  5
13F
100
AcDbEntity
  8
Cotas
 62
256
370
-1
 48
1.0
  6
BYLAYER
100
AcDbDimension
 10
3434.9410499043133314
 20
722.9447271903537739
 30
0.0
 11
3423.308773407847184
 21
557.678745313335412
 31
0.0
 70
2
 71
8
 72
2
 74
0
 75
0
 41
1.0
 42
0.0
  1

  3
Standard
100
AcDb2LineAngularDimension
 13
3411.6764969113805819
 23
722.9447271903536603
 33
0.0
 14
3423.3087734078467292
 24
738.9551822540114472
 34
0.0
 15
3423.3087734078467292
 25
738.9551822540120156
 35
0.0
 16
3459.6393259157230204
 26
559.4432333260728001
 36
0.0
  0
DIMENSION
  5
140
100
AcDbEntity
  8
Cotas
 62
256
370
-1
 48
1.0
  6
BYLAYER
100
AcDbDimension
 10
3423.3087734078467292
 20
905.9551822540113335
 30
0.0
 11
3413.9228248589479335
 21
880.4152984580518932
 31
0.0
 70
2
 71
8
 72
2
 74
0
 75
0
 41
1.0
 42
0.0
  1

  3
Standard
100
AcDb2LineAngularDimension
 13
3422.4078270976124259
 23
904.894959960954111
 33
0.0
 14
3423.3087734078467292
 24
905.9551822540113335
 34
0.0
 15
3423.3087734078467292
 25
910.9551822540113335
 35
0.0
 16
3418.3843537167713293
 26
877.2901383081438098
 36
0.0
  0
MTEXT
  5
141
100
AcDbEntity
  8
Cotas
 62
256
370
-1
 48
1.0
  6
BYLAYER
100
AcDbMText
 10
3303.0721773197001312
 20
891.7044342540651769
 30
0.0
 40
2.5
 41
0.0
 71
1
 72
1
  1
%%c252
  7
textstyle6
 50
0.0
 73
2
 44
1.0
  0
MTEXT
  5
142
100
AcDbEntity
  8
Cotas
 62
256
370
-1
 48
1.0
  6
BYLAYER
100
AcDbMText
 10
3323.3026341901536398
 20
908.3778877187245371
 30
0.0
 40
2.5
 41
0.0
 71
1
 72
1
  1
%%c268
  7
textstyle5
 50
0.0
 73
2
 44
1.0
  0
MTEXT
  5
143
100
AcDbEntity
  8
Cotas
 62
256
370
-1
 48
1.0
  6
BYLAYER
100
AcDbMText
 10
3345.7562181892280933
 20
921.0497123518657645
 30
0.0
 40
2.5
 41
0.0
 71
1
 72
1
  1
%%c284
  7
textstyle4
 50
0.0
 73
2
 44
1.0
  0
MTEXT
  5
144
100
AcDbEntity
  8
Cotas
 62
256
370
-1
 48
1.0
  6
BYLAYER
100
AcDbMText
 10
3408.4484032163472875
 20
919.2712106489686903
 30
0.0
 40
2.5
 41
0.0
 71
1
 72
1
  1
%%c5
  7
textstyle0
 50
0.0
 73
2
 44
1.0
  0
LEADER
  5
145
100
AcDbEntity
  8
Cotas
 62
256
370
-1
 48
1.0
  6
BYLAYER
100
AcDbLeader
  3
Standard
 71
1
 72
0
 73
3
 74
0
 75
0
 40
1.0
 41
10.0
 76
3
 10
3349.4872669921846864
 20
858.0648546191813466
 10
3310.8737728843279911
 20
888.8094820030420351
 10
3302.8221773197001312
 20
888.8094820030420351
1001
ACAD
1000
DSTYLE
1002
{
1070
40
1040
1.0
1002
}
  0
LEADER
  5
146
100
AcDbEntity
  8
Cotas
 62
256
370
-1
 48
1.0
  6
BYLAYER
100
AcDbLeader
  3
Standard
 71
1
 72
0
 73
3
 74
0
 75
0
 40
1.0
 41
10.0
 76
3
 10
3359.4286465939480877
 20
873.7487703572703595
 10
3331.1349255255863682
 20
905.4829354677013953
 10
3323.0526341901536398
 20
905.4829354677013953
1001
ACAD
1000
DSTYLE
1002
{
1070
40
1040
1.0
1002
}
  0
LEADER
  5
147
100
AcDbEntity
  8
Cotas
 62
256
370
-1
 48
1.0
  6
BYLAYER
100
AcDbLeader
  3
Standard
 71
1
 72
0
 73
3
 74
0
 75
0
 40
1.0
 41
10.0
 76
3
 10
3372.4099840717053667
 20
888.5195562166830996
 10
3353.57316163925816
 20
918.1547601008426227
 10
3345.5062181892280933
 20
918.1547601008426227
1001
ACAD
1000
DSTYLE
1002
{
1070
40
1040
1.0
1002
}
  0
LEADER
  5
148
100
AcDbEntity
  8
Cotas
 62
256
370
-1
 48
1.0
  6
BYLAYER
100
AcDbLeader
  3
Standard
 71
1
 72
0
 73
3
 74
0
 75
0
 40
1.0
 41
10.0
 76
3
 10
3415.5838571006497659
 20
900.13228412364208
 10
3412.4079499344384203
 20
916.4205967335526566
 10
3408.1984032163472875
 20
916.4205967335526566
1001
ACAD
1000
DSTYLE
1002
{
1070
40
1040
1.0
1002
}
  0
DIMENSION
  5
149
100
AcDbEntity
  8
Cotas
 62
256
370
-1
 48
1.0
  6
BYLAYER
100
AcDbDimension
 10
3413.2770630865356907
 20
930.9239304772378318
 30
0.0
 11
3423.2890928916767734
 21
932.7989304772378318
 31
0.0
 70
0
 71
8
 72
2
 74
0
 75
0
 41
1.0
 42
0.0
  1
20
  3
Standard
100
AcDbAlignedDimension
 13
3413.2770630865356907
 23
865.0095158995136444
 33
0.0
 14
3433.3011226968183109
 24
864.1231348550829807
 34
0.0
 50
0.0
100
AcDbRotatedDimension
1001
ACAD
1000
DSTYLE
1002
{
1070
144
1040
1.0
1070
40
1040
1.0
1002
}
  0
ENDSEC
  0
SECTION
  2
OBJECTS
  0
DICTIONARY
  5
C
100
AcDbDictionary
280
0
281
1
  3
ACAD_GROUP
350
D
  3
ACAD_LAYOUT
350
1A
  3
ACAD_MLINESTYLE
350
17
  3
ACAD_PLOTSETTINGS
350
19
  3
ACAD_PLOTSTYLENAME
350
E
  3
AcDbVariableDictionary
350
14A
  3
QCAD_OBJECTS
350
14B
  0
DICTIONARY
  5
D
100
AcDbDictionary
280
0
281
1
  0
ACDBDICTIONARYWDFLT
  5
E
100
AcDbDictionary
281
1
  3
Normal
350
F
100
AcDbDictionaryWithDefault
340
F
  0
ACDBPLACEHOLDER
  5
F
  0
DICTIONARY
  5
17
100
AcDbDictionary
280
0
281
1
  3
Standard
350
18
  0
MLINESTYLE
  5
18
100
AcDbMlineStyle
  2
STANDARD
 70
0
  3

 62
256
 51
90.0
 52
90.0
 71
2
 49
0.5
 62
256
  6
BYLAYER
 49
-0.5
 62
256
  6
BYLAYER
  0
DICTIONARY
  5
19
100
AcDbDictionary
280
0
281
1
  0
DICTIONARY
  5
1A
100
AcDbDictionary
281
1
  3
Layout1
350
1E
  3
Layout2
350
26
  3
Model
350
22
  0
LAYOUT
  5
1E
100
AcDbPlotSettings
  1

  2
none_device
  4

  6

 40
0.0
 41
0.0
 42
0.0
 43
0.0
 44
0.0
 45
0.0
 46
0.0
 47
0.0
 48
0.0
 49
0.0
140
0.0
141
0.0
142
1.0
143
1.0
 70
688
 72
0
 73
0
 74
5
  7

 75
16
147
1.0
148
0.0
149
0.0
100
AcDbLayout
  1
Layout1
 70
1
 71
1
 10
0.0
 20
0.0
 11
420.0
 21
297.0
 12
0.0
 22
0.0
 32
0.0
 14
100000000000000000000.0
 24
100000000000000000000.0
 34
100000000000000000000.0
 15
-100000000000000000000.0
 25
-100000000000000000000.0
 35
-100000000000000000000.0
146
0.0
 13
0.0
 23
0.0
 33
0.0
 16
1.0
 26
0.0
 36
0.0
 17
0.0
 27
1.0
 37
0.0
 76
0
330
1B
  0
LAYOUT
  5
22
100
AcDbPlotSettings
  1

  2
none_device
  4

  6

 40
0.0
 41
0.0
 42
0.0
 43
0.0
 44
0.0
 45
0.0
 46
0.0
 47
0.0
 48
0.0
 49
0.0
140
0.0
141
0.0
142
1.0
143
1.0
 70
1712
 72
0
 73
0
 74
0
  7

 75
0
147
1.0
148
0.0
149
0.0
100
AcDbLayout
  1
Model
 70
1
 71
0
 10
0.0
 20
0.0
 11
12.0
 21
9.0
 12
0.0
 22
0.0
 32
0.0
 14
0.0
 24
0.0
 34
0.0
 15
0.0
 25
0.0
 35
0.0
146
0.0
 13
0.0
 23
0.0
 33
0.0
 16
1.0
 26
0.0
 36
0.0
 17
0.0
 27
1.0
 37
0.0
 76
0
330
1F
  0
LAYOUT
  5
26
100
AcDbPlotSettings
  1

  2
none_device
  4

  6

 40
0.0
 41
0.0
 42
0.0
 43
0.0
 44
0.0
 45
0.0
 46
0.0
 47
0.0
 48
0.0
 49
0.0
140
0.0
141
0.0
142
1.0
143
1.0
 70
688
 72
0
 73
0
 74
5
  7

 75
16
147
1.0
148
0.0
149
0.0
100
AcDbLayout
  1
Layout2
 70
1
 71
2
 10
0.0
 20
0.0
 11
12.0
 21
9.0
 12
0.0
 22
0.0
 32
0.0
 14
0.0
 24
0.0
 34
0.0
 15
0.0
 25
0.0
 35
0.0
146
0.0
 13
0.0
 23
0.0
 33
0.0
 16
1.0
 26
0.0
 36
0.0
 17
0.0
 27
1.0
 37
0.0
 76
0
330
23
  0
DICTIONARY
  5
14A
100
AcDbDictionary
281
1
  3
DIMASSOC
350
14D
  3
HIDETEXT
350
14C
  0
DICTIONARYVAR
  5
14C
100
DictionaryVariables
280
0
  1
2
  0
DICTIONARYVAR
  5
14D
100
DictionaryVariables
280
0
  1
1
  0
DICTIONARY
  5
14B
100
AcDbDictionary
281
1
  3
ColorSettings/BackgroundColor
350
14E
  3
ColorSettings/ColorMode
350
14F
  3
Grid/DisplayGrid00
350
150
  3
Grid/DisplayGrid01
350
151
  3
Grid/DisplayGrid02
350
152
  3
Grid/DisplayGrid03
350
153
  3
Grid/GridSpacingX00
350
154
  3
Grid/GridSpacingX01
350
155
  3
Grid/GridSpacingX02
350
156
  3
Grid/GridSpacingX03
350
157
  3
Grid/GridSpacingY00
350
158
  3
Grid/GridSpacingY01
350
159
  3
Grid/GridSpacingY02
350
15A
  3
Grid/GridSpacingY03
350
15B
  3
Grid/IsometricGrid00
350
15C
  3
Grid/IsometricGrid01
350
15D
  3
Grid/IsometricGrid02
350
15E
  3
Grid/IsometricGrid03
350
15F
  3
Grid/IsometricProjection00
350
160
  3
Grid/IsometricProjection01
350
161
  3
Grid/IsometricProjection02
350
162
  3
Grid/IsometricProjection03
350
163
  3
Grid/MetaGridSpacingX00
350
164
  3
Grid/MetaGridSpacingX01
350
165
  3
Grid/MetaGridSpacingX02
350
166
  3
Grid/MetaGridSpacingX03
350
167
  3
Grid/MetaGridSpacingY00
350
168
  3
Grid/MetaGridSpacingY01
350
169
  3
Grid/MetaGridSpacingY02
350
16A
  3
Grid/MetaGridSpacingY03
350
16B
  3
MultiPageSettings/Columns
350
16C
  3
MultiPageSettings/GlueMarginsBottom
350
16D
  3
MultiPageSettings/GlueMarginsLeft
350
16E
  3
MultiPageSettings/GlueMarginsRight
350
16F
  3
MultiPageSettings/GlueMarginsTop
350
170
  3
MultiPageSettings/PrintCropMarks
350
171
  3
MultiPageSettings/Rows
350
172
  3
PageSettings/OffsetX
350
173
  3
PageSettings/OffsetY
350
174
  3
PageSettings/PageOrientation
350
175
  3
PageSettings/PaperHeight
350
176
  3
PageSettings/PaperWidth
350
177
  3
PageSettings/Scale
350
178
  3
PageSettings/ShowPaperBorders
350
179
  3
PageTagSettings/EnablePageTags
350
17A
  3
PageTagSettings/TagAlignment
350
17B
  3
PageTagSettings/TagFont
350
17C
  3
PageTagSettings/TagPosition
350
17D
  3
QCADVersion
350
17E
  3
UnitSettings/PaperUnit
350
17F
  3
ViewportCenter
350
180
  3
ViewportHeight
350
181
  3
ViewportWidth
350
182
  0
XRECORD
  5
14E
330
14B
100
AcDbXrecord
280
1
1000
Blanca
  0
XRECORD
  5
14F
330
14B
100
AcDbXrecord
280
1
1000
FullColor
  0
XRECORD
  5
150
330
14B
100
AcDbXrecord
280
1
290
0
  0
XRECORD
  5
151
330
14B
100
AcDbXrecord
280
1
290
1
  0
XRECORD
  5
152
330
14B
100
AcDbXrecord
280
1
290
1
  0
XRECORD
  5
153
330
14B
100
AcDbXrecord
280
1
290
1
  0
XRECORD
  5
154
330
14B
100
AcDbXrecord
280
1
1000
auto
  0
XRECORD
  5
155
330
14B
100
AcDbXrecord
280
1
1000
auto
  0
XRECORD
  5
156
330
14B
100
AcDbXrecord
280
1
1000
auto
  0
XRECORD
  5
157
330
14B
100
AcDbXrecord
280
1
1000
auto
  0
XRECORD
  5
158
330
14B
100
AcDbXrecord
280
1
1000
auto
  0
XRECORD
  5
159
330
14B
100
AcDbXrecord
280
1
1000
auto
  0
XRECORD
  5
15A
330
14B
100
AcDbXrecord
280
1
1000
auto
  0
XRECORD
  5
15B
330
14B
100
AcDbXrecord
280
1
1000
auto
  0
XRECORD
  5
15C
330
14B
100
AcDbXrecord
280
1
290
0
  0
XRECORD
  5
15D
330
14B
100
AcDbXrecord
280
1
290
0
  0
XRECORD
  5
15E
330
14B
100
AcDbXrecord
280
1
290
0
  0
XRECORD
  5
15F
330
14B
100
AcDbXrecord
280
1
290
0
  0
XRECORD
  5
160
330
14B
100
AcDbXrecord
280
1
 90
65537
  0
XRECORD
  5
161
330
14B
100
AcDbXrecord
280
1
 90
65537
  0
XRECORD
  5
162
330
14B
100
AcDbXrecord
280
1
 90
65537
  0
XRECORD
  5
163
330
14B
100
AcDbXrecord
280
1
 90
65537
  0
XRECORD
  5
164
330
14B
100
AcDbXrecord
280
1
1000
auto
  0
XRECORD
  5
165
330
14B
100
AcDbXrecord
280
1
1000
auto
  0
XRECORD
  5
166
330
14B
100
AcDbXrecord
280
1
1000
auto
  0
XRECORD
  5
167
330
14B
100
AcDbXrecord
280
1
1000
auto
  0
XRECORD
  5
168
330
14B
100
AcDbXrecord
280
1
1000
1
  0
XRECORD
  5
169
330
14B
100
AcDbXrecord
280
1
1000
auto
  0
XRECORD
  5
16A
330
14B
100
AcDbXrecord
280
1
1000
auto
  0
XRECORD
  5
16B
330
14B
100
AcDbXrecord
280
1
1000
auto
  0
XRECORD
  5
16C
330
14B
100
AcDbXrecord
280
1
 90
1
  0
XRECORD
  5
16D
330
14B
100
AcDbXrecord
280
1
 40
10.0
  0
XRECORD
  5
16E
330
14B
100
AcDbXrecord
280
1
 40
10.0
  0
XRECORD
  5
16F
330
14B
100
AcDbXrecord
280
1
 40
10.0
  0
XRECORD
  5
170
330
14B
100
AcDbXrecord
280
1
 40
10.0
  0
XRECORD
  5
171
330
14B
100
AcDbXrecord
280
1
290
0
  0
XRECORD
  5
172
330
14B
100
AcDbXrecord
280
1
 90
1
  0
XRECORD
  5
173
330
14B
100
AcDbXrecord
280
1
 40
793.1665914866936191
  0
XRECORD
  5
174
330
14B
100
AcDbXrecord
280
1
 40
306.6308471493692309
  0
XRECORD
  5
175
330
14B
100
AcDbXrecord
280
1
1000
Portrait
  0
XRECORD
  5
176
330
14B
100
AcDbXrecord
280
1
 40
279.3999999999999773
  0
XRECORD
  5
177
330
14B
100
AcDbXrecord
280
1
 40
215.9000000000000057
  0
XRECORD
  5
178
330
14B
100
AcDbXrecord
280
1
 90
1
  0
XRECORD
  5
179
330
14B
100
AcDbXrecord
280
1
290
1
  0
XRECORD
  5
17A
330
14B
100
AcDbXrecord
280
1
290
0
  0
XRECORD
  5
17B
330
14B
100
AcDbXrecord
280
1
1000
Inside
  0
XRECORD
  5
17C
330
14B
100
AcDbXrecord
280
1
1000
Arial,10,-1,5,50,0,0,0,0,0
  0
XRECORD
  5
17D
330
14B
100
AcDbXrecord
280
1
1000
TopLeft
  0
XRECORD
  5
17E
330
14B
100
AcDbXrecord
280
1
1000
3.28.1
  0
XRECORD
  5
17F
330
14B
100
AcDbXrecord
280
1
 90
4
  0
XRECORD
  5
181
330
14B
100
AcDbXrecord
280
1
 40
269.9543627985124203
  0
XRECORD
  5
182
330
14B
100
AcDbXrecord
280
1
 40
502.8453192291963205
  0
IMAGEDEF
  5
67
100
AcDbRasterImageDef
 90
0
  1
C:/Users/iamth/Documents/OneDrive/Estudio Aut\U+00f3nomo/CAD/QCad/1. StudyCadCam/2D CAD EXERCISES 84.png
 10
200.0
 20
141.0
 11
1.0
 21
1.0
280
1
281
0
  0
ENDSEC
  0
EOF
