999
dxflib 3.26.4.0
  0
SECTION
  2
HEADER
  9
$ACADVER
  1
AC1015
  9
$HANDSEED
  5
FFFF
  9
$DIMADEC
 70
0
  9
$DIMASZ
 40
2.5
  9
$DIMATFIT
 70
0
  9
$DIMAUNIT
 70
0
  9
$DIMAZIN
 70
2
  9
$DIMBLK
  1
0
  9
$DIMBLK1
  1
0
  9
$DIMBLK2
  1
0
  9
$DIMDEC
 70
4
  9
$DIMDLI
 40
5.0
  9
$DIMDSEP
 70
46
  9
$DIMEXE
 40
1.25
  9
$DIMEXO
 40
0.625
  9
$DIMGAP
 40
0.625
  9
$DIMLFAC
 40
1.0
  9
$DIMLUNIT
 70
2
  9
$DIMSCALE
 40
1.0
  9
$DIMTAD
 70
1
  9
$DIMTIH
 70
0
  9
$DIMTSZ
 40
0.0
  9
$DIMTXT
 40
2.5
  9
$DIMZIN
 70
8
  9
$DWGCODEPAGE
  3
ANSI_1252
  9
$INSUNITS
 70
4
  9
$LTSCALE
 40
1.0
  9
$MAXACTVP
 70
64
  9
$MEASUREMENT
 70
1
  9
$MIRRTEXT
 70
0
  9
$PDMODE
 70
0
  9
$PDSIZE
 40
0.0
  0
ENDSEC
  0
SECTION
  2
TABLES
  0
TABLE
  2
VPORT
  5
8
100
AcDbSymbolTable
 70
1
  0
VPORT
  5
30
100
AcDbSymbolTableRecord
100
AcDbViewportTableRecord
  2
*Active
 70
0
 10
0.0
 20
0.0
 11
1.0
 21
1.0
 12
286.3055555555554861
 22
148.5
 13
0.0
 23
0.0
 14
10.0
 24
10.0
 15
10.0
 25
10.0
 16
0.0
 26
0.0
 36
1.0
 17
0.0
 27
0.0
 37
0.0
 40
297.0
 41
1.92798353909465
 42
50.0
 43
0.0
 44
0.0
 50
0.0
 51
0.0
 71
0
 72
100
 73
1
 74
3
 75
1
 76
1
 77
0
 78
0
281
0
 65
1
110
0.0
120
0.0
130
0.0
111
1.0
121
0.0
131
0.0
112
0.0
122
1.0
132
0.0
 79
0
146
0.0
  0
ENDTAB
  0
TABLE
  2
LTYPE
  5
5
100
AcDbSymbolTable
 70
41
  0
LTYPE
  5
16
100
AcDbSymbolTableRecord
100
AcDbLinetypeTableRecord
  2
Continuous
 70
0
  3
Solid line
 72
65
 73
0
 40
0.0
  0
LTYPE
  5
31
100
AcDbSymbolTableRecord
100
AcDbLinetypeTableRecord
  2
ACAD_ISO11W100
 70
0
  3
ISO double-dash dot __ __ . __ __ . __ __ . __ _
 72
65
 73
6
 40
33.0
 49
12.0
 74
0
 49
-3.0
 74
0
 49
12.0
 74
0
 49
-2.9500000000000002
 74
0
 49
0.1
 74
0
 49
-2.9500000000000002
 74
0
  0
LTYPE
  5
32
100
AcDbSymbolTableRecord
100
AcDbLinetypeTableRecord
  2
DASHED
 70
0
  3
Dashed __ __ __ __ __ __ __ __ __ __ __ __ __ _
 72
65
 73
2
 40
19.0499999999999972
 49
12.6999999999999993
 74
0
 49
-6.3499999999999996
 74
0
  0
LTYPE
  5
33
100
AcDbSymbolTableRecord
100
AcDbLinetypeTableRecord
  2
PHANTOMX2
 70
0
  3
Phantom (2x) ____________    ____    ____   _
 72
65
 73
6
 40
127.0000000000000142
 49
63.5
 74
0
 49
-12.6999999999999993
 74
0
 49
12.6999999999999993
 74
0
 49
-12.6999999999999993
 74
0
 49
12.6999999999999993
 74
0
 49
-12.6999999999999993
 74
0
  0
LTYPE
  5
34
100
AcDbSymbolTableRecord
100
AcDbLinetypeTableRecord
  2
ACAD_ISO03W100
 70
0
  3
ISO dash space __    __    __    __    __    __
 72
65
 73
2
 40
30.0
 49
12.0
 74
0
 49
-18.0
 74
0
  0
LTYPE
  5
14
100
AcDbSymbolTableRecord
100
AcDbLinetypeTableRecord
  2
BYBLOCK
 70
0
  3

 72
65
 73
0
 40
0.0
  0
LTYPE
  5
35
100
AcDbSymbolTableRecord
100
AcDbLinetypeTableRecord
  2
ACAD_ISO14W100
 70
0
  3
ISO dash triple-dot __ . . . __ . . . __ . . . _
 72
65
 73
8
 40
24.0000000000000036
 49
12.0
 74
0
 49
-2.9500000000000002
 74
0
 49
0.1
 74
0
 49
-2.9000000000000004
 74
0
 49
0.1
 74
0
 49
-2.9000000000000004
 74
0
 49
0.1
 74
0
 49
-2.9500000000000002
 74
0
  0
LTYPE
  5
36
100
AcDbSymbolTableRecord
100
AcDbLinetypeTableRecord
  2
BORDERX2
 70
0
  3
Border (2x) ____  ____  .  ____  ____  .  ___
 72
65
 73
6
 40
88.8999999999999773
 49
25.3999999999999986
 74
0
 49
-12.6999999999999993
 74
0
 49
25.3999999999999986
 74
0
 49
-12.6499999999999986
 74
0
 49
0.1
 74
0
 49
-12.6499999999999986
 74
0
  0
LTYPE
  5
37
100
AcDbSymbolTableRecord
100
AcDbLinetypeTableRecord
  2
DASHEDX2
 70
0
  3
Dashed (2x) ____  ____  ____  ____  ____  ___
 72
65
 73
2
 40
38.0999999999999943
 49
25.3999999999999986
 74
0
 49
-12.6999999999999993
 74
0
  0
LTYPE
  5
38
100
AcDbSymbolTableRecord
100
AcDbLinetypeTableRecord
  2
DOT
 70
0
  3
Dot . . . . . . . . . . . . . . . . . . . . . . . .
 72
65
 73
2
 40
6.3499999999999996
 49
0.1
 74
0
 49
-6.25
 74
0
  0
LTYPE
  5
39
100
AcDbSymbolTableRecord
100
AcDbLinetypeTableRecord
  2
ACAD_ISO04W100
 70
0
  3
ISO long-dash dot ____ . ____ . ____ . ____ . _
 72
65
 73
4
 40
30.0
 49
24.0
 74
0
 49
-2.9500000000000002
 74
0
 49
0.1
 74
0
 49
-2.9500000000000002
 74
0
  0
LTYPE
  5
3A
100
AcDbSymbolTableRecord
100
AcDbLinetypeTableRecord
  2
CENTER
 70
0
  3
Center ____ _ ____ _ ____ _ ____ _ ____ _ ____
 72
65
 73
4
 40
50.8000000000000043
 49
31.75
 74
0
 49
-6.3499999999999996
 74
0
 49
6.3499999999999996
 74
0
 49
-6.3499999999999996
 74
0
  0
LTYPE
  5
3B
100
AcDbSymbolTableRecord
100
AcDbLinetypeTableRecord
  2
DIVIDE
 70
0
  3
Divide ____ . . ____ . . ____ . . ____ . . ____
 72
65
 73
6
 40
31.7500000000000036
 49
12.6999999999999993
 74
0
 49
-6.2999999999999998
 74
0
 49
0.1
 74
0
 49
-6.25
 74
0
 49
0.1
 74
0
 49
-6.2999999999999998
 74
0
  0
LTYPE
  5
3C
100
AcDbSymbolTableRecord
100
AcDbLinetypeTableRecord
  2
HIDDEN2
 70
0
  3
Hidden (.5x) _ _ _ _ _ _ _ _ _ _ _ _ _ _ _ _ _ 
 72
65
 73
2
 40
4.7624999999999993
 49
3.1749999999999998
 74
0
 49
-1.5874999999999999
 74
0
  0
LTYPE
  5
3D
100
AcDbSymbolTableRecord
100
AcDbLinetypeTableRecord
  2
ACAD_ISO13W100
 70
0
  3
ISO double-dash double-dot __ __ . . __ __ . . _
 72
65
 73
8
 40
36.0000000000000071
 49
12.0
 74
0
 49
-3.0
 74
0
 49
12.0
 74
0
 49
-2.9500000000000002
 74
0
 49
0.1
 74
0
 49
-2.9000000000000004
 74
0
 49
0.1
 74
0
 49
-2.9500000000000002
 74
0
  0
LTYPE
  5
3E
100
AcDbSymbolTableRecord
100
AcDbLinetypeTableRecord
  2
DASHDOTX2
 70
0
  3
Dash dot (2x) ____  .  ____  .  ____  .  ___
 72
65
 73
4
 40
50.7999999999999972
 49
25.3999999999999986
 74
0
 49
-12.6499999999999986
 74
0
 49
0.1
 74
0
 49
-12.6499999999999986
 74
0
  0
LTYPE
  5
3F
100
AcDbSymbolTableRecord
100
AcDbLinetypeTableRecord
  2
ACAD_ISO02W100
 70
0
  3
ISO dash __ __ __ __ __ __ __ __ __ __ __ __ __
 72
65
 73
2
 40
15.0
 49
12.0
 74
0
 49
-3.0
 74
0
  0
LTYPE
  5
40
100
AcDbSymbolTableRecord
100
AcDbLinetypeTableRecord
  2
DASHED2
 70
0
  3
Dashed (.5x) _ _ _ _ _ _ _ _ _ _ _ _ _ _ _ _ _ 
 72
65
 73
2
 40
9.5249999999999986
 49
6.3499999999999996
 74
0
 49
-3.1749999999999998
 74
0
  0
LTYPE
  5
41
100
AcDbSymbolTableRecord
100
AcDbLinetypeTableRecord
  2
DOT2
 70
0
  3
Dot (.5x) ........................................
 72
65
 73
2
 40
3.1749999999999998
 49
0.1
 74
0
 49
-3.0749999999999997
 74
0
  0
LTYPE
  5
42
100
AcDbSymbolTableRecord
100
AcDbLinetypeTableRecord
  2
ACAD_ISO10W100
 70
0
  3
ISO dash dot __ . __ . __ . __ . __ . __ . __ . 
 72
65
 73
4
 40
18.0
 49
12.0
 74
0
 49
-2.9500000000000002
 74
0
 49
0.1
 74
0
 49
-2.9500000000000002
 74
0
  0
LTYPE
  5
43
100
AcDbSymbolTableRecord
100
AcDbLinetypeTableRecord
  2
BORDER
 70
0
  3
Border __ __ . __ __ . __ __ . __ __ . __ __ .
 72
65
 73
6
 40
44.4499999999999957
 49
12.6999999999999993
 74
0
 49
-6.3499999999999996
 74
0
 49
12.6999999999999993
 74
0
 49
-6.2999999999999998
 74
0
 49
0.1
 74
0
 49
-6.2999999999999998
 74
0
  0
LTYPE
  5
44
100
AcDbSymbolTableRecord
100
AcDbLinetypeTableRecord
  2
DASHDOT
 70
0
  3
Dash dot __ . __ . __ . __ . __ . __ . __ . __
 72
65
 73
4
 40
25.4000000000000021
 49
12.6999999999999993
 74
0
 49
-6.2999999999999998
 74
0
 49
0.1
 74
0
 49
-6.2999999999999998
 74
0
  0
LTYPE
  5
45
100
AcDbSymbolTableRecord
100
AcDbLinetypeTableRecord
  2
BORDER2
 70
0
  3
Border (.5x) __.__.__.__.__.__.__.__.__.__.__.
 72
65
 73
6
 40
22.2250000000000014
 49
6.3499999999999996
 74
0
 49
-3.1749999999999998
 74
0
 49
6.3499999999999996
 74
0
 49
-3.125
 74
0
 49
0.1
 74
0
 49
-3.125
 74
0
  0
LTYPE
  5
46
100
AcDbSymbolTableRecord
100
AcDbLinetypeTableRecord
  2
ACAD_ISO05W100
 70
0
  3
ISO long-dash double-dot ____ .. ____ .. ____ . 
 72
65
 73
6
 40
33.0000000000000071
 49
24.0
 74
0
 49
-2.9500000000000002
 74
0
 49
0.1
 74
0
 49
-2.9000000000000004
 74
0
 49
0.1
 74
0
 49
-2.9500000000000002
 74
0
  0
LTYPE
  5
47
100
AcDbSymbolTableRecord
100
AcDbLinetypeTableRecord
  2
PHANTOM
 70
0
  3
Phantom ______  __  __  ______  __  __  ______ 
 72
65
 73
6
 40
63.5000000000000071
 49
31.75
 74
0
 49
-6.3499999999999996
 74
0
 49
6.3499999999999996
 74
0
 49
-6.3499999999999996
 74
0
 49
6.3499999999999996
 74
0
 49
-6.3499999999999996
 74
0
  0
LTYPE
  5
48
100
AcDbSymbolTableRecord
100
AcDbLinetypeTableRecord
  2
DASHDOT2
 70
0
  3
Dash dot (.5x) _._._._._._._._._._._._._._._.
 72
65
 73
4
 40
12.6999999999999993
 49
6.3499999999999996
 74
0
 49
-3.125
 74
0
 49
0.1
 74
0
 49
-3.125
 74
0
  0
LTYPE
  5
49
100
AcDbSymbolTableRecord
100
AcDbLinetypeTableRecord
  2
HIDDEN
 70
0
  3
Hidden __ __ __ __ __ __ __ __ __ __ __ __ __ __
 72
65
 73
2
 40
9.5249999999999986
 49
6.3499999999999996
 74
0
 49
-3.1749999999999998
 74
0
  0
LTYPE
  5
15
100
AcDbSymbolTableRecord
100
AcDbLinetypeTableRecord
  2
BYLAYER
 70
0
  3

 72
65
 73
0
 40
0.0
  0
LTYPE
  5
4A
100
AcDbSymbolTableRecord
100
AcDbLinetypeTableRecord
  2
ACAD_ISO09W100
 70
0
  3
ISO long-dash double-short-dash ____ __ __ ____
 72
65
 73
6
 40
45.0
 49
24.0
 74
0
 49
-3.0
 74
0
 49
6.0
 74
0
 49
-3.0
 74
0
 49
6.0
 74
0
 49
-3.0
 74
0
  0
LTYPE
  5
4B
100
AcDbSymbolTableRecord
100
AcDbLinetypeTableRecord
  2
ACAD_ISO06W100
 70
0
  3
ISO long-dash triple-dot ____ ... ____ ... ____
 72
65
 73
8
 40
36.0000000000000071
 49
24.0
 74
0
 49
-2.9500000000000002
 74
0
 49
0.1
 74
0
 49
-2.9000000000000004
 74
0
 49
0.1
 74
0
 49
-2.9000000000000004
 74
0
 49
0.1
 74
0
 49
-2.9500000000000002
 74
0
  0
LTYPE
  5
4C
100
AcDbSymbolTableRecord
100
AcDbLinetypeTableRecord
  2
DOTX2
 70
0
  3
Dot (2x) .  .  .  .  .  .  .  .  .  .  .  .  .  .
 72
65
 73
2
 40
12.6999999999999993
 49
0.1
 74
0
 49
-12.5999999999999996
 74
0
  0
LTYPE
  5
4D
100
AcDbSymbolTableRecord
100
AcDbLinetypeTableRecord
  2
CENTER2
 70
0
  3
Center (.5x) ___ _ ___ _ ___ _ ___ _ ___ _ ___
 72
65
 73
4
 40
28.5750000000000028
 49
19.0500000000000007
 74
0
 49
-3.1749999999999998
 74
0
 49
3.1749999999999998
 74
0
 49
-3.1749999999999998
 74
0
  0
LTYPE
  5
4E
100
AcDbSymbolTableRecord
100
AcDbLinetypeTableRecord
  2
PHANTOM2
 70
0
  3
Phantom (.5x) ___ _ _ ___ _ _ ___ _ _ ___ _ _
 72
65
 73
6
 40
31.7500000000000036
 49
15.875
 74
0
 49
-3.1749999999999998
 74
0
 49
3.1749999999999998
 74
0
 49
-3.1749999999999998
 74
0
 49
3.1749999999999998
 74
0
 49
-3.1749999999999998
 74
0
  0
LTYPE
  5
4F
100
AcDbSymbolTableRecord
100
AcDbLinetypeTableRecord
  2
ACAD_ISO12W100
 70
0
  3
ISO dash double-dot __ . . __ . . __ . . __ . . 
 72
65
 73
6
 40
21.0
 49
12.0
 74
0
 49
-2.9500000000000002
 74
0
 49
0.1
 74
0
 49
-2.9000000000000004
 74
0
 49
0.1
 74
0
 49
-2.9500000000000002
 74
0
  0
LTYPE
  5
50
100
AcDbSymbolTableRecord
100
AcDbLinetypeTableRecord
  2
DIVIDE2
 70
0
  3
Divide (.5x) __..__..__..__..__..__..__..__.._
 72
65
 73
6
 40
15.8749999999999982
 49
6.3499999999999996
 74
0
 49
-3.125
 74
0
 49
0.1
 74
0
 49
-3.0750000000000002
 74
0
 49
0.1
 74
0
 49
-3.125
 74
0
  0
LTYPE
  5
51
100
AcDbSymbolTableRecord
100
AcDbLinetypeTableRecord
  2
HIDDENX2
 70
0
  3
Hidden (2x) ____ ____ ____ ____ ____ ____ ____ 
 72
65
 73
2
 40
19.0499999999999972
 49
12.6999999999999993
 74
0
 49
-6.3499999999999996
 74
0
  0
LTYPE
  5
52
100
AcDbSymbolTableRecord
100
AcDbLinetypeTableRecord
  2
ACAD_ISO07W100
 70
0
  3
ISO dot . . . . . . . . . . . . . . . . . . . . 
 72
65
 73
2
 40
3.0
 49
0.1
 74
0
 49
-2.8999999999999999
 74
0
  0
LTYPE
  5
53
100
AcDbSymbolTableRecord
100
AcDbLinetypeTableRecord
  2
ACAD_ISO08W100
 70
0
  3
ISO long-dash short-dash ____ __ ____ __ ____ _
 72
65
 73
4
 40
36.0
 49
24.0
 74
0
 49
-3.0
 74
0
 49
6.0
 74
0
 49
-3.0
 74
0
  0
LTYPE
  5
54
100
AcDbSymbolTableRecord
100
AcDbLinetypeTableRecord
  2
ACAD_ISO15W100
 70
0
  3
ISO double-dash triple-dot __ __ . . . __ __ . .
 72
65
 73
10
 40
39.0000000000000071
 49
12.0
 74
0
 49
-3.0
 74
0
 49
12.0
 74
0
 49
-2.9500000000000002
 74
0
 49
0.1
 74
0
 49
-2.9000000000000004
 74
0
 49
0.1
 74
0
 49
-2.9000000000000004
 74
0
 49
0.1
 74
0
 49
-2.9500000000000002
 74
0
  0
LTYPE
  5
55
100
AcDbSymbolTableRecord
100
AcDbLinetypeTableRecord
  2
CENTERX2
 70
0
  3
Center (2x) ________  __  ________  __  _____
 72
65
 73
4
 40
101.6000000000000085
 49
63.5
 74
0
 49
-12.6999999999999993
 74
0
 49
12.6999999999999993
 74
0
 49
-12.6999999999999993
 74
0
  0
LTYPE
  5
56
100
AcDbSymbolTableRecord
100
AcDbLinetypeTableRecord
  2
DIVIDEX2
 70
0
  3
Divide (2x) ________  .  .  ________  .  .  _
 72
65
 73
6
 40
63.5
 49
25.3999999999999986
 74
0
 49
-12.6499999999999986
 74
0
 49
0.1
 74
0
 49
-12.5999999999999979
 74
0
 49
0.1
 74
0
 49
-12.6499999999999986
 74
0
  0
ENDTAB
  0
TABLE
  2
LAYER
  5
2
100
AcDbSymbolTable
 70
7
  0
LAYER
  5
57
100
AcDbSymbolTableRecord
100
AcDbLayerTableRecord
  2
Ejes de revoluci\U+00f3n
 70
0
 62
6
420
16711935
  6
ACAD_ISO04W100
370
20
390
F
  0
LAYER
  5
58
100
AcDbSymbolTableRecord
100
AcDbLayerTableRecord
  2
Contornos Visibles
 70
0
 62
7
420
16777215
  6
Continuous
370
50
390
F
  0
LAYER
  5
59
100
AcDbSymbolTableRecord
100
AcDbLayerTableRecord
  2
Referencias
 70
1
 62
2
420
16776960
  6
Continuous
370
25
390
F
  0
LAYER
  5
5A
100
AcDbSymbolTableRecord
100
AcDbLayerTableRecord
  2
Referencias 2
 70
0
 62
3
420
65280
  6
Continuous
370
25
390
F
  0
LAYER
  5
5B
100
AcDbSymbolTableRecord
100
AcDbLayerTableRecord
  2
Cotas
 70
0
 62
1
420
16711680
  6
Continuous
370
20
390
F
  0
LAYER
  5
5C
100
AcDbSymbolTableRecord
100
AcDbLayerTableRecord
  2
Contornos Ocultos
 70
0
 62
252
420
10526884
  6
ACAD_ISO02W100
370
30
390
F
  0
LAYER
  5
10
100
AcDbSymbolTableRecord
100
AcDbLayerTableRecord
  2
0
 70
0
 62
7
420
16777215
  6
Continuous
370
25
390
F
  0
ENDTAB
  0
TABLE
  2
STYLE
  5
3
100
AcDbSymbolTable
 70
9
  0
STYLE
  5
5D
100
AcDbSymbolTableRecord
100
AcDbTextStyleTableRecord
  2
Standard
 70
0
 40
0.0
 41
1.0
 50
0.0
 71
0
 42
2.5
  3

  4

1001
ACAD
1000
txt
1071
0
  0
STYLE
  5
5E
100
AcDbSymbolTableRecord
100
AcDbTextStyleTableRecord
  2
textstyle0
 70
0
 40
0.0
 41
1.0
 50
0.0
 71
0
 42
2.5
  3

  4

1001
ACAD
1000
Arial
1071
0
  0
STYLE
  5
5F
100
AcDbSymbolTableRecord
100
AcDbTextStyleTableRecord
  2
textstyle1
 70
0
 40
0.0
 41
1.0
 50
0.0
 71
0
 42
2.5
  3

  4

1001
ACAD
1000
Arial
1071
0
  0
STYLE
  5
60
100
AcDbSymbolTableRecord
100
AcDbTextStyleTableRecord
  2
textstyle2
 70
0
 40
0.0
 41
1.0
 50
0.0
 71
0
 42
2.5
  3

  4

1001
ACAD
1000
Arial
1071
0
  0
STYLE
  5
61
100
AcDbSymbolTableRecord
100
AcDbTextStyleTableRecord
  2
textstyle3
 70
0
 40
0.0
 41
1.0
 50
0.0
 71
0
 42
2.5
  3

  4

1001
ACAD
1000
Arial
1071
0
  0
STYLE
  5
62
100
AcDbSymbolTableRecord
100
AcDbTextStyleTableRecord
  2
textstyle4
 70
0
 40
0.0
 41
1.0
 50
0.0
 71
0
 42
2.5
  3

  4

1001
ACAD
1000
Arial
1071
0
  0
STYLE
  5
63
100
AcDbSymbolTableRecord
100
AcDbTextStyleTableRecord
  2
textstyle5
 70
0
 40
0.0
 41
1.0
 50
0.0
 71
0
 42
2.5
  3

  4

1001
ACAD
1000
Arial
1071
0
  0
STYLE
  5
64
100
AcDbSymbolTableRecord
100
AcDbTextStyleTableRecord
  2
textstyle6
 70
0
 40
0.0
 41
1.0
 50
0.0
 71
0
 42
2.5
  3

  4

1001
ACAD
1000
Arial
1071
0
  0
STYLE
  5
65
100
AcDbSymbolTableRecord
100
AcDbTextStyleTableRecord
  2
textstyle7
 70
0
 40
0.0
 41
1.0
 50
0.0
 71
0
 42
2.5
  3

  4

1001
ACAD
1000
Arial
1071
0
  0
ENDTAB
  0
TABLE
  2
VIEW
  5
6
100
AcDbSymbolTable
 70
0
  0
ENDTAB
  0
TABLE
  2
UCS
  5
7
100
AcDbSymbolTable
 70
0
  0
ENDTAB
  0
TABLE
  2
APPID
  5
9
100
AcDbSymbolTable
 70
1
  0
APPID
  5
12
100
AcDbSymbolTableRecord
100
AcDbRegAppTableRecord
  2
ACAD
 70
0
  0
APPID
  5
66
100
AcDbSymbolTableRecord
100
AcDbRegAppTableRecord
  2
QCAD
 70
0
  0
ENDTAB
  0
TABLE
  2
DIMSTYLE
  5
A
100
AcDbSymbolTable
 70
1
100
AcDbDimStyleTable
 71
0
  0
DIMSTYLE
105
27
100
AcDbSymbolTableRecord
100
AcDbDimStyleTableRecord
  2
Standard
 41
2.5
 42
0.625
 43
3.75
 44
1.25
 70
0
 73
0
 74
0
 77
1
 78
8
140
2.5
141
2.5
143
0.03937007874016
147
0.625
171
3
172
1
271
2
272
2
274
3
278
44
283
0
284
8
340
5D
  0
ENDTAB
  0
TABLE
  2
BLOCK_RECORD
  5
1
100
AcDbSymbolTable
 70
1
  0
BLOCK_RECORD
  5
1F
100
AcDbSymbolTableRecord
100
AcDbBlockTableRecord
  2
*Model_Space
340
22
  0
BLOCK_RECORD
  5
1B
100
AcDbSymbolTableRecord
100
AcDbBlockTableRecord
  2
*Paper_Space
340
1E
  0
BLOCK_RECORD
  5
23
100
AcDbSymbolTableRecord
100
AcDbBlockTableRecord
  2
*Paper_Space0
340
26
  0
ENDTAB
  0
ENDSEC
  0
SECTION
  2
BLOCKS
  0
BLOCK
  5
20
100
AcDbEntity
  8
0
100
AcDbBlockBegin
  2
*Model_Space
 70
0
 10
0.0
 20
0.0
 30
0.0
  3
*Model_Space
  1

  0
ENDBLK
  5
21
100
AcDbEntity
  8
0
100
AcDbBlockEnd
  0
BLOCK
  5
1C
100
AcDbEntity
 67
1
  8
0
100
AcDbBlockBegin
  2
*Paper_Space
 70
0
 10
0.0
 20
0.0
 30
0.0
  3
*Paper_Space
  1

  0
ENDBLK
  5
1D
100
AcDbEntity
 67
1
  8
0
100
AcDbBlockEnd
  0
BLOCK
  5
24
100
AcDbEntity
  8
0
100
AcDbBlockBegin
  2
*Paper_Space0
 70
0
 10
0.0
 20
0.0
 30
0.0
  3
*Paper_Space0
  1

  0
ENDBLK
  5
25
100
AcDbEntity
  8
0
100
AcDbBlockEnd
  0
ENDSEC
  0
SECTION
  2
ENTITIES
  0
IMAGE
  5
67
100
AcDbEntity
  8
0
 62
256
370
-1
 48
1.0
  6
BYLAYER
100
AcDbRasterImage
 90
0
 10
2192.5344449706722116
 20
693.830999978304817
 30
0.0
 11
0.125
 21
0.0
 31
0.0
 12
0.0
 22
0.125
 32
0.0
 13
200.0
 23
141.0
340
68
 70
15
280
0
281
50
282
50
283
0
  0
CIRCLE
  5
69
100
AcDbEntity
  8
Contornos Visibles
 62
256
370
-1
 48
1.0
  6
BYLAYER
100
AcDbCircle
 10
2673.5798411482592201
 20
764.2101906709530112
 30
0.0
 40
35.0
  0
CIRCLE
  5
6A
100
AcDbEntity
  8
Ejes de revoluci\U+00f3n
 62
256
370
-1
 48
1.0
  6
BYLAYER
100
AcDbCircle
 10
2673.5798411482592201
 20
764.2101906709530112
 30
0.0
 40
45.0
  0
XLINE
  5
6B
100
AcDbEntity
  8
Referencias
 62
256
370
-1
 48
1.0
  6
BYLAYER
100
AcDbLine
 10
2673.5798411482592201
 20
764.2101906709530112
 30
0.0
 11
1.0
 21
0.0
 31
0.0
  0
CIRCLE
  5
6C
100
AcDbEntity
  8
Contornos Visibles
 62
256
370
-1
 48
1.0
  6
BYLAYER
100
AcDbCircle
 10
2673.5798411482592201
 20
809.2101906709530112
 30
0.0
 40
3.25
  0
CIRCLE
  5
6D
100
AcDbEntity
  8
Contornos Visibles
 62
256
370
-1
 48
1.0
  6
BYLAYER
100
AcDbCircle
 10
2630.7822979149773346
 20
778.115955417825603
 30
0.0
 40
3.25
  0
CIRCLE
  5
6E
100
AcDbEntity
  8
Contornos Visibles
 62
256
370
-1
 48
1.0
  6
BYLAYER
100
AcDbCircle
 10
2647.1295047950980006
 20
727.8044259240804195
 30
0.0
 40
3.25
  0
CIRCLE
  5
6F
100
AcDbEntity
  8
Contornos Visibles
 62
256
370
-1
 48
1.0
  6
BYLAYER
100
AcDbCircle
 10
2700.0301775014204395
 20
727.8044259240804195
 30
0.0
 40
3.25
  0
CIRCLE
  5
70
100
AcDbEntity
  8
Contornos Visibles
 62
256
370
-1
 48
1.0
  6
BYLAYER
100
AcDbCircle
 10
2716.3773843815411055
 20
778.115955417825603
 30
0.0
 40
3.25
  0
LINE
  5
71
100
AcDbEntity
  8
Ejes de revoluci\U+00f3n
 62
256
370
-1
 48
1.0
  6
BYLAYER
100
AcDbLine
 10
2673.5798411482592201
 20
813.4601906709530112
 30
0.0
 11
2673.5798411482592201
 21
804.9601906709530112
 31
0.0
  0
LINE
  5
72
100
AcDbEntity
  8
Ejes de revoluci\U+00f3n
 62
256
370
-1
 48
1.0
  6
BYLAYER
100
AcDbLine
 10
2626.7403077207227398
 20
779.4292776439191357
 30
0.0
 11
2634.8242881092319294
 21
776.8026331917320704
 31
0.0
  0
LINE
  5
73
100
AcDbEntity
  8
Ejes de revoluci\U+00f3n
 62
256
370
-1
 48
1.0
  6
BYLAYER
100
AcDbLine
 10
2644.6314174728549915
 20
724.3661036979868868
 30
0.0
 11
2649.6275921173410097
 21
731.2427481501739521
 31
0.0
  0
LINE
  5
74
100
AcDbEntity
  8
Ejes de revoluci\U+00f3n
 62
256
370
-1
 48
1.0
  6
BYLAYER
100
AcDbLine
 10
2702.5282648236634486
 20
724.3661036979868868
 30
0.0
 11
2697.5320901791774304
 21
731.2427481501738384
 31
0.0
  0
LINE
  5
75
100
AcDbEntity
  8
Ejes de revoluci\U+00f3n
 62
256
370
-1
 48
1.0
  6
BYLAYER
100
AcDbLine
 10
2720.4193745757957004
 20
779.4292776439191357
 30
0.0
 11
2712.3353941872865107
 21
776.8026331917320704
 31
0.0
  0
CIRCLE
  5
76
100
AcDbEntity
  8
Ejes de revoluci\U+00f3n
 62
256
370
-1
 48
1.0
  6
BYLAYER
100
AcDbCircle
 10
2673.5798411482592201
 20
764.2101906709530112
 30
0.0
 40
76.0
  0
ARC
  5
77
100
AcDbEntity
  8
Contornos Visibles
 62
256
370
-1
 48
1.0
  6
BYLAYER
100
AcDbCircle
 10
2673.5798411482833217
 20
764.2101906710192907
 30
0.0
 40
81.0000000000688658
100
AcDbArc
 50
250.3546690731708964
 51
262.4556326298752538
  0
ARC
  5
78
100
AcDbEntity
  8
Contornos Visibles
 62
256
370
-1
 48
1.0
  6
BYLAYER
100
AcDbCircle
 10
2673.5798411482360279
 20
764.2101906710205412
 30
0.0
 40
81.0000000000699885
100
AcDbArc
 50
277.5443673701240073
 51
289.6453309268288194
  0
ARC
  5
79
100
AcDbEntity
  8
Contornos Visibles
 62
256
370
-1
 48
1.0
  6
BYLAYER
100
AcDbCircle
 10
2673.5798411482815027
 20
764.2101906710208823
 30
0.0
 40
81.0000000000699885
100
AcDbArc
 50
349.5443673701239504
 51
1.6453309268288054
  0
ARC
  5
7A
100
AcDbEntity
  8
Contornos Visibles
 62
256
370
-1
 48
1.0
  6
BYLAYER
100
AcDbCircle
 10
2673.5798411482810479
 20
764.2101906710200865
 30
0.0
 40
81.0000000000688658
100
AcDbArc
 50
322.3546690731708964
 51
334.4556326298752538
  0
ARC
  5
7B
100
AcDbEntity
  8
Contornos Visibles
 62
256
370
-1
 48
1.0
  6
BYLAYER
100
AcDbCircle
 10
2673.5798411482014671
 20
764.2101906709949617
 30
0.0
 40
81.0000000000699885
100
AcDbArc
 50
61.5443673701239788
 51
73.6453309268288052
  0
ARC
  5
7C
100
AcDbEntity
  8
Contornos Visibles
 62
256
370
-1
 48
1.0
  6
BYLAYER
100
AcDbCircle
 10
2673.5798411482023766
 20
764.2101906709945069
 30
0.0
 40
81.0000000000688658
100
AcDbArc
 50
34.3546690731708892
 51
46.4556326298752538
  0
ARC
  5
7D
100
AcDbEntity
  8
Contornos Visibles
 62
256
370
-1
 48
1.0
  6
BYLAYER
100
AcDbCircle
 10
2673.5798411482014671
 20
764.2101906709110608
 30
0.0
 40
81.0000000000699885
100
AcDbArc
 50
133.5443673701239788
 51
145.6453309268288479
  0
ARC
  5
7E
100
AcDbEntity
  8
Contornos Visibles
 62
256
370
-1
 48
1.0
  6
BYLAYER
100
AcDbCircle
 10
2673.5798411482023766
 20
764.2101906709115156
 30
0.0
 40
81.0000000000688658
100
AcDbArc
 50
106.3546690731709248
 51
118.4556326298753106
  0
ARC
  5
7F
100
AcDbEntity
  8
Contornos Visibles
 62
256
370
-1
 48
1.0
  6
BYLAYER
100
AcDbCircle
 10
2673.5798411482815027
 20
764.2101906708851402
 30
0.0
 40
81.0000000000699885
100
AcDbArc
 50
205.5443673701239504
 51
217.6453309268288479
  0
ARC
  5
80
100
AcDbEntity
  8
Contornos Visibles
 62
256
370
-1
 48
1.0
  6
BYLAYER
100
AcDbCircle
 10
2673.5798411482810479
 20
764.210190670885936
 30
0.0
 40
81.0000000000688658
100
AcDbArc
 50
178.3546690731709248
 51
190.4556326298753106
  0
ARC
  5
81
100
AcDbEntity
  8
Contornos Visibles
 62
256
370
-1
 48
1.0
  6
BYLAYER
100
AcDbCircle
 10
2673.5798411482592201
 20
688.2101906709530112
 30
0.0
 40
5.0
100
AcDbArc
 50
1.8850696544423036
 51
178.1149303455576955
  0
ARC
  5
82
100
AcDbEntity
  8
Contornos Visibles
 62
256
370
-1
 48
1.0
  6
BYLAYER
100
AcDbCircle
 10
2745.8601363866910106
 20
740.7248990984569446
 30
0.0
 40
5.0
100
AcDbArc
 50
73.8850696544423045
 51
250.114930345557724
  0
ARC
  5
83
100
AcDbEntity
  8
Contornos Visibles
 62
256
370
-1
 48
1.0
  6
BYLAYER
100
AcDbCircle
 10
2718.2515203224870675
 20
825.6954822434489643
 30
0.0
 40
5.0
100
AcDbArc
 50
145.8850696544423045
 51
322.1149303455576955
  0
ARC
  5
84
100
AcDbEntity
  8
Contornos Visibles
 62
256
370
-1
 48
1.0
  6
BYLAYER
100
AcDbCircle
 10
2628.9081619740313727
 20
825.6954822434490779
 30
0.0
 40
5.0
100
AcDbArc
 50
217.8850696544423329
 51
34.1149303455577169
  0
ARC
  5
85
100
AcDbEntity
  8
Contornos Visibles
 62
256
370
-1
 48
1.0
  6
BYLAYER
100
AcDbCircle
 10
2601.2995459098274296
 20
740.7248990984570582
 30
0.0
 40
5.0
100
AcDbArc
 50
289.8850696544422476
 51
106.114930345557724
  0
LINE
  5
86
100
AcDbEntity
  8
Contornos Visibles
 62
256
370
-1
 48
1.0
  6
BYLAYER
100
AcDbLine
 10
2701.8498248938194592
 20
708.2998961515504561
 30
0.0
 11
2705.5399836063820658
 21
703.2208284159099776
 31
0.0
  0
LINE
  5
87
100
AcDbEntity
  8
Contornos Visibles
 62
256
370
-1
 48
1.0
  6
BYLAYER
100
AcDbLine
 10
2723.3876534436917609
 20
678.6556183292980222
 30
0.0
 11
2729.0753880693318933
 21
670.8271232221291029
 31
0.0
  0
LINE
  5
88
100
AcDbEntity
  8
Contornos Visibles
 62
256
370
-1
 48
1.0
  6
BYLAYER
100
AcDbLine
 10
2735.4895964869997442
 20
773.8193117607222575
 30
0.0
 11
2741.4603987078080536
 21
775.7593430045739069
 31
0.0
  0
LINE
  5
89
100
AcDbEntity
  8
Contornos Visibles
 62
256
370
-1
 48
1.0
  6
BYLAYER
100
AcDbLine
 10
2683.5721904372308018
 20
826.0592486258464078
 30
0.0
 11
2683.5721904372312565
 21
832.3373216094239524
 31
0.0
  0
LINE
  5
8A
100
AcDbEntity
  8
Contornos Visibles
 62
256
370
-1
 48
1.0
  6
BYLAYER
100
AcDbLine
 10
2617.8456972975641293
 20
792.8258895694699504
 30
0.0
 11
2611.8748950767558199
 21
794.7659208133217135
 31
0.0
  0
LINE
  5
8B
100
AcDbEntity
  8
Contornos Visibles
 62
256
370
-1
 48
1.0
  6
BYLAYER
100
AcDbLine
 10
2629.1418966256819658
 20
720.0466072471759844
 30
0.0
 11
2625.4517379131189045
 21
714.9675395115356196
 31
0.0
  0
LINE
  5
8C
100
AcDbEntity
  8
Contornos Visibles
 62
256
370
-1
 48
1.0
  6
BYLAYER
100
AcDbLine
 10
2770.3385351245615311
 20
785.1424183168777517
 30
0.0
 11
2779.5414830678369071
 21
788.1326373670540306
 31
0.0
  0
LINE
  5
8D
100
AcDbEntity
  8
Contornos Visibles
 62
256
370
-1
 48
1.0
  6
BYLAYER
100
AcDbLine
 10
2683.5721904372312565
 20
862.7015911580397187
 30
0.0
 11
2683.5721904372312565
 21
872.3781432720249995
 31
0.0
  0
LINE
  5
8E
100
AcDbEntity
  8
Contornos Visibles
 62
256
370
-1
 48
1.0
  6
BYLAYER
100
AcDbLine
 10
2582.9967586600023424
 20
804.1489961256257857
 30
0.0
 11
2573.7938107167269663
 21
807.1392151758020646
 31
0.0
  0
LINE
  5
8F
100
AcDbEntity
  8
Contornos Visibles
 62
256
370
-1
 48
1.0
  6
BYLAYER
100
AcDbLine
 10
2607.6040680758092094
 20
690.4023294249238916
 30
0.0
 11
2601.916333450169077
 21
682.5738343177548586
 31
0.0
  0
LINE
  5
90
100
AcDbEntity
  8
Contornos Visibles
 62
256
370
-1
 48
1.0
  6
BYLAYER
100
AcDbLine
 10
2645.3098574026998904
 20
708.2998961515501151
 30
0.0
 11
2641.6196986901372838
 21
703.2208284159098639
 31
0.0
  0
LINE
  5
91
100
AcDbEntity
  8
Contornos Visibles
 62
256
370
-1
 48
1.0
  6
BYLAYER
100
AcDbLine
 10
2623.772028852827134
 20
678.6556183292974538
 30
0.0
 11
2618.0842942271874563
 21
670.8271232221288756
 31
0.0
  0
LINE
  5
92
100
AcDbEntity
  8
Contornos Visibles
 62
256
370
-1
 48
1.0
  6
BYLAYER
100
AcDbLine
 10
2718.0177856708373838
 20
720.0466072471767802
 30
0.0
 11
2721.7079443833995356
 21
714.9675395115364154
 31
0.0
  0
LINE
  5
93
100
AcDbEntity
  8
Contornos Visibles
 62
256
370
-1
 48
1.0
  6
BYLAYER
100
AcDbLine
 10
2729.3139849989538561
 20
792.8258895694707462
 30
0.0
 11
2735.2847872197617107
 21
794.7659208133222819
 31
0.0
  0
LINE
  5
94
100
AcDbEntity
  8
Contornos Visibles
 62
256
370
-1
 48
1.0
  6
BYLAYER
100
AcDbLine
 10
2663.5874918592867289
 20
826.0592486258461804
 30
0.0
 11
2663.5874918592867289
 21
832.3373216094234976
 31
0.0
  0
LINE
  5
95
100
AcDbEntity
  8
Contornos Visibles
 62
256
370
-1
 48
1.0
  6
BYLAYER
100
AcDbLine
 10
2611.6700858095186959
 20
773.819311760721348
 30
0.0
 11
2605.6992835887108413
 21
775.7593430045729974
 31
0.0
  0
LINE
  5
96
100
AcDbEntity
  8
Contornos Visibles
 62
256
370
-1
 48
1.0
  6
BYLAYER
100
AcDbLine
 10
2739.5556142207096855
 20
690.4023294249240053
 30
0.0
 11
2745.2433488463498179
 21
682.5738343177556544
 31
0.0
  0
LINE
  5
97
100
AcDbEntity
  8
Contornos Visibles
 62
256
370
-1
 48
1.0
  6
BYLAYER
100
AcDbLine
 10
2764.1629236365160978
 20
804.1489961256264678
 30
0.0
 11
2773.3658715797905643
 21
807.1392151758027467
 31
0.0
  0
LINE
  5
98
100
AcDbEntity
  8
Contornos Visibles
 62
256
370
-1
 48
1.0
  6
BYLAYER
100
AcDbLine
 10
2663.5874918592867289
 20
862.7015911580399461
 30
0.0
 11
2663.5874918592862741
 21
872.3781432720246585
 31
0.0
  0
LINE
  5
99
100
AcDbEntity
  8
Contornos Visibles
 62
256
370
-1
 48
1.0
  6
BYLAYER
100
AcDbLine
 10
2576.8211471719564543
 20
785.1424183168771833
 30
0.0
 11
2567.618199228681533
 21
788.1326373670531211
 31
0.0
  0
ARC
  5
9A
100
AcDbEntity
  8
Contornos Visibles
 62
256
370
-1
 48
1.0
  6
BYLAYER
100
AcDbCircle
 10
2663.6015058905504702
 20
688.8680854077950926
 30
0.0
 40
5.0
100
AcDbArc
 50
262.455632629887873
 51
356.2278163149429702
  0
ARC
  5
9B
100
AcDbEntity
  8
Contornos Visibles
 62
256
370
-1
 48
1.0
  6
BYLAYER
100
AcDbCircle
 10
2742.150966139978209
 20
731.4382389840294536
 30
0.0
 40
5.0
100
AcDbArc
 50
334.4556326298878162
 51
68.2278163149429986
  0
ARC
  5
9C
100
AcDbEntity
  8
Contornos Visibles
 62
256
370
-1
 48
1.0
  6
BYLAYER
100
AcDbCircle
 10
2725.93746229766748
 20
819.2981159139227429
 30
0.0
 40
5.0
100
AcDbArc
 50
46.4556326298878233
 51
140.2278163149429986
  0
ARC
  5
9D
100
AcDbEntity
  8
Contornos Visibles
 62
256
370
-1
 48
1.0
  6
BYLAYER
100
AcDbCircle
 10
2637.3675055969652021
 20
831.0283525277451417
 30
0.0
 40
5.0
100
AcDbArc
 50
118.4556326298878162
 51
212.227816314943027
  0
ARC
  5
9E
100
AcDbEntity
  8
Contornos Visibles
 62
256
370
-1
 48
1.0
  6
BYLAYER
100
AcDbCircle
 10
2598.841765816134739
 20
750.4181605212726254
 30
0.0
 40
5.0
100
AcDbArc
 50
190.4556326298878162
 51
284.227816314943027
  0
ARC
  5
9F
100
AcDbEntity
  8
Contornos Visibles
 62
256
370
-1
 48
1.0
  6
BYLAYER
100
AcDbCircle
 10
2683.5581764059679699
 20
688.8680854077950926
 30
0.0
 40
5.0
100
AcDbArc
 50
183.7721836850570298
 51
277.544367370112127
  0
ARC
  5
A0
100
AcDbEntity
  8
Contornos Visibles
 62
256
370
-1
 48
1.0
  6
BYLAYER
100
AcDbCircle
 10
2748.3179164803837011
 20
750.4181605212726254
 30
0.0
 40
5.0
100
AcDbArc
 50
255.7721836850570014
 51
349.5443673701121838
  0
ARC
  5
A1
100
AcDbEntity
  8
Contornos Visibles
 62
256
370
-1
 48
1.0
  6
BYLAYER
100
AcDbCircle
 10
2709.7921766995536927
 20
831.0283525277451417
 30
0.0
 40
5.0
100
AcDbArc
 50
327.772183685056973
 51
61.5443673701121696
  0
ARC
  5
A2
100
AcDbEntity
  8
Contornos Visibles
 62
256
370
-1
 48
1.0
  6
BYLAYER
100
AcDbCircle
 10
2621.2222199988509601
 20
819.2981159139227429
 30
0.0
 40
5.0
100
AcDbArc
 50
39.7721836850570014
 51
133.5443673701121554
  0
ARC
  5
A3
100
AcDbEntity
  8
Contornos Visibles
 62
256
370
-1
 48
1.0
  6
BYLAYER
100
AcDbCircle
 10
2605.0087161565402312
 20
731.4382389840294536
 30
0.0
 40
5.0
100
AcDbArc
 50
111.7721836850569872
 51
205.5443673701121554
  0
ARC
  5
A4
100
AcDbEntity
  8
Contornos Visibles
 62
256
370
-1
 48
1.0
  6
BYLAYER
100
AcDbCircle
 10
2649.7098686338867992
 20
697.3429758929851232
 30
0.0
 40
10.0
100
AcDbArc
 50
144.0000000000001137
 51
250.3546690731704132
  0
ARC
  5
A5
100
AcDbEntity
  8
Contornos Visibles
 62
256
370
-1
 48
1.0
  6
BYLAYER
100
AcDbCircle
 10
2729.798114327149051
 20
720.8453920344611561
 30
0.0
 40
10.0
100
AcDbArc
 50
216.0000000000001137
 51
322.3546690731704416
  0
ARC
  5
A6
100
AcDbEntity
  8
Contornos Visibles
 62
256
370
-1
 48
1.0
  6
BYLAYER
100
AcDbCircle
 10
2732.1946172760121954
 20
804.2764859762738752
 30
0.0
 40
10.0
100
AcDbArc
 50
288.0000000000001137
 51
34.3546690731704345
  0
ARC
  5
A7
100
AcDbEntity
  8
Contornos Visibles
 62
256
370
-1
 48
1.0
  6
BYLAYER
100
AcDbCircle
 10
2653.5874918592867289
 20
832.3373216094234976
 30
0.0
 40
10.0
100
AcDbArc
 50
0.0000000000001018
 51
106.3546690731704274
  0
ARC
  5
A8
100
AcDbEntity
  8
Contornos Visibles
 62
256
370
-1
 48
1.0
  6
BYLAYER
100
AcDbCircle
 10
2602.6091136449613259
 20
766.2487778416214041
 30
0.0
 40
10.0
100
AcDbArc
 50
72.0000000000000995
 51
178.3546690731704416
  0
ARC
  5
A9
100
AcDbEntity
  8
Contornos Visibles
 62
256
370
-1
 48
1.0
  6
BYLAYER
100
AcDbCircle
 10
2697.4498136626325504
 20
697.3429758929852369
 30
0.0
 40
10.0
100
AcDbArc
 50
289.6453309268293879
 51
35.9999999999999147
  0
ARC
  5
AA
100
AcDbEntity
  8
Contornos Visibles
 62
256
370
-1
 48
1.0
  6
BYLAYER
100
AcDbCircle
 10
2744.5505686515571142
 20
766.2487778416223136
 30
0.0
 40
10.0
100
AcDbArc
 50
1.6453309268293654
 51
107.9999999999999147
  0
ARC
  5
AB
100
AcDbEntity
  8
Contornos Visibles
 62
256
370
-1
 48
1.0
  6
BYLAYER
100
AcDbCircle
 10
2693.5721904372312565
 20
832.3373216094239524
 30
0.0
 40
10.0
100
AcDbArc
 50
73.6453309268293737
 51
179.9999999999998863
  0
ARC
  5
AC
100
AcDbEntity
  8
Contornos Visibles
 62
256
370
-1
 48
1.0
  6
BYLAYER
100
AcDbCircle
 10
2614.9650650205053353
 20
804.276485976273193
 30
0.0
 40
10.0
100
AcDbArc
 50
145.6453309268293594
 51
251.9999999999999147
  0
ARC
  5
AD
100
AcDbEntity
  8
Contornos Visibles
 62
256
370
-1
 48
1.0
  6
BYLAYER
100
AcDbCircle
 10
2617.3615679693698439
 20
720.8453920344603603
 30
0.0
 40
10.0
100
AcDbArc
 50
217.6453309268293594
 51
323.9999999999998863
  0
ARC
  5
AE
100
AcDbEntity
  8
Contornos Visibles
 62
256
370
-1
 48
1.0
  6
BYLAYER
100
AcDbCircle
 10
2673.5798411482592201
 20
764.2101906709530112
 30
0.0
 40
55.0
100
AcDbArc
 50
251.9131255259035527
 51
288.0868744740973852
  0
ARC
  5
AF
100
AcDbEntity
  8
Contornos Visibles
 62
256
370
-1
 48
1.0
  6
BYLAYER
100
AcDbCircle
 10
2673.5798411482592201
 20
764.2101906709530112
 30
0.0
 40
55.0
100
AcDbArc
 50
323.9131255259035242
 51
0.0868744740973994
  0
ARC
  5
B0
100
AcDbEntity
  8
Contornos Visibles
 62
256
370
-1
 48
1.0
  6
BYLAYER
100
AcDbCircle
 10
2673.5798411482592201
 20
764.2101906709530112
 30
0.0
 40
55.0
100
AcDbArc
 50
35.9131255259035669
 51
72.0868744740973995
  0
ARC
  5
B1
100
AcDbEntity
  8
Contornos Visibles
 62
256
370
-1
 48
1.0
  6
BYLAYER
100
AcDbCircle
 10
2673.5798411482592201
 20
764.2101906709530112
 30
0.0
 40
55.0
100
AcDbArc
 50
107.9131255259035242
 51
144.0868744740974137
  0
ARC
  5
B2
100
AcDbEntity
  8
Contornos Visibles
 62
256
370
-1
 48
1.0
  6
BYLAYER
100
AcDbCircle
 10
2673.5798411482592201
 20
764.2101906709530112
 30
0.0
 40
55.0
100
AcDbArc
 50
179.9131255259035242
 51
216.0868744740974137
  0
ARC
  5
B3
100
AcDbEntity
  8
Contornos Visibles
 62
256
370
-1
 48
1.0
  6
BYLAYER
100
AcDbCircle
 10
2693.7596549500699439
 20
702.4220436286257154
 30
0.0
 40
10.0
100
AcDbArc
 50
35.9999999999999147
 51
108.08687447409784
  0
ARC
  5
B4
100
AcDbEntity
  8
Contornos Visibles
 62
256
370
-1
 48
1.0
  6
BYLAYER
100
AcDbCircle
 10
2738.5797664307492596
 20
764.3087465977706643
 30
0.0
 40
10.0
100
AcDbArc
 50
107.9999999999999147
 51
180.0868744740978116
  0
ARC
  5
B5
100
AcDbEntity
  8
Contornos Visibles
 62
256
370
-1
 48
1.0
  6
BYLAYER
100
AcDbCircle
 10
2693.5721904372312565
 20
826.0592486258464078
 30
0.0
 40
10.0
100
AcDbArc
 50
179.9999999999998863
 51
252.0868744740978116
  0
ARC
  5
B6
100
AcDbEntity
  8
Contornos Visibles
 62
256
370
-1
 48
1.0
  6
BYLAYER
100
AcDbCircle
 10
2620.9358672413136446
 20
802.33645473242143
 30
0.0
 40
10.0
100
AcDbArc
 50
251.9999999999999147
 51
324.08687447409784
  0
ARC
  5
B7
100
AcDbEntity
  8
Contornos Visibles
 62
256
370
-1
 48
1.0
  6
BYLAYER
100
AcDbCircle
 10
2621.0517266819324504
 20
725.9244597701007251
 30
0.0
 40
10.0
100
AcDbArc
 50
323.9999999999998863
 51
36.0868744740978045
  0
ARC
  5
B8
100
AcDbEntity
  8
Contornos Visibles
 62
256
370
-1
 48
1.0
  6
BYLAYER
100
AcDbCircle
 10
2653.4000273464494057
 20
702.4220436286254881
 30
0.0
 40
10.0
100
AcDbArc
 50
71.91312552590216
 51
144.0000000000006253
  0
ARC
  5
B9
100
AcDbEntity
  8
Contornos Visibles
 62
256
370
-1
 48
1.0
  6
BYLAYER
100
AcDbCircle
 10
2726.1079556145864444
 20
725.9244597701015209
 30
0.0
 40
10.0
100
AcDbArc
 50
143.91312552590216
 51
216.0000000000006253
  0
ARC
  5
BA
100
AcDbEntity
  8
Contornos Visibles
 62
256
370
-1
 48
1.0
  6
BYLAYER
100
AcDbCircle
 10
2726.2238150552043408
 20
802.3364547324222258
 30
0.0
 40
10.0
100
AcDbArc
 50
215.91312552590216
 51
288.0000000000006253
  0
ARC
  5
BB
100
AcDbEntity
  8
Contornos Visibles
 62
256
370
-1
 48
1.0
  6
BYLAYER
100
AcDbCircle
 10
2653.5874918592867289
 20
826.0592486258460667
 30
0.0
 40
10.0
100
AcDbArc
 50
287.9131255259022169
 51
0.0000000000006107
  0
ARC
  5
BC
100
AcDbEntity
  8
Contornos Visibles
 62
256
370
-1
 48
1.0
  6
BYLAYER
100
AcDbCircle
 10
2608.5799158657691805
 20
764.3087465977698685
 30
0.0
 40
10.0
100
AcDbArc
 50
359.91312552590216
 51
72.0000000000006111
  0
LINE
  5
BD
100
AcDbEntity
  8
Contornos Visibles
 62
256
370
-1
 48
1.0
  6
BYLAYER
100
AcDbLine
 10
2662.0798411482592201
 20
663.7101906709530112
 30
0.0
 11
2685.0798411482592201
 21
663.7101906709530112
 31
0.0
  0
LINE
  5
BE
100
AcDbEntity
  8
Contornos Visibles
 62
256
370
-1
 48
1.0
  6
BYLAYER
100
AcDbLine
 10
2765.6073256006102383
 20
722.2168327988764531
 30
0.0
 11
2772.7147164712341691
 21
744.0911326736650153
 31
0.0
  0
LINE
  5
BF
100
AcDbEntity
  8
Contornos Visibles
 62
256
370
-1
 48
1.0
  6
BYLAYER
100
AcDbLine
 10
2741.9559544389649091
 20
838.7568682042717683
 30
0.0
 11
2723.3485635683409782
 21
852.2759290069986946
 31
0.0
  0
LINE
  5
C0
100
AcDbEntity
  8
Contornos Visibles
 62
256
370
-1
 48
1.0
  6
BYLAYER
100
AcDbLine
 10
2623.8111187281779166
 20
852.2759290069986946
 30
0.0
 11
2605.2037278575535311
 21
838.7568682042717683
 31
0.0
  0
LINE
  5
C1
100
AcDbEntity
  8
Contornos Visibles
 62
256
370
-1
 48
1.0
  6
BYLAYER
100
AcDbLine
 10
2574.444965825284271
 20
744.0911326736652427
 30
0.0
 11
2581.5523566959082018
 21
722.2168327988764531
 31
0.0
  0
ARC
  5
C2
100
AcDbEntity
  8
Contornos Visibles
 62
256
370
-1
 48
1.0
  6
BYLAYER
100
AcDbCircle
 10
2673.5798411482592201
 20
764.2101906709530112
 30
0.0
 40
90.5
100
AcDbArc
 50
283.0105750854505118
 51
294.5256719884732775
  0
ARC
  5
C3
100
AcDbEntity
  8
Contornos Visibles
 62
256
370
-1
 48
1.0
  6
BYLAYER
100
AcDbCircle
 10
2673.5798411482592201
 20
764.2101906709530112
 30
0.0
 40
90.5
100
AcDbArc
 50
245.4743280115270068
 51
256.9894249145494314
  0
ARC
  5
C4
100
AcDbEntity
  8
Contornos Visibles
 62
256
370
-1
 48
1.0
  6
BYLAYER
100
AcDbCircle
 10
2673.5798411482592201
 20
764.2101906709530112
 30
0.0
 40
90.5
100
AcDbArc
 50
317.4743280115270068
 51
328.9894249145494314
  0
ARC
  5
C5
100
AcDbEntity
  8
Contornos Visibles
 62
256
370
-1
 48
1.0
  6
BYLAYER
100
AcDbCircle
 10
2673.5798411482592201
 20
764.2101906709530112
 30
0.0
 40
90.5
100
AcDbArc
 50
355.0105750854505686
 51
6.5256719884732997
  0
ARC
  5
C6
100
AcDbEntity
  8
Contornos Visibles
 62
256
370
-1
 48
1.0
  6
BYLAYER
100
AcDbCircle
 10
2673.5798411482592201
 20
764.2101906709530112
 30
0.0
 40
90.5
100
AcDbArc
 50
29.4743280115270032
 51
40.9894249145494243
  0
ARC
  5
C7
100
AcDbEntity
  8
Contornos Visibles
 62
256
370
-1
 48
1.0
  6
BYLAYER
100
AcDbCircle
 10
2673.5798411482592201
 20
764.2101906709530112
 30
0.0
 40
90.5
100
AcDbArc
 50
67.010575085450526
 51
78.5256719884733059
  0
ARC
  5
C8
100
AcDbEntity
  8
Contornos Visibles
 62
256
370
-1
 48
1.0
  6
BYLAYER
100
AcDbCircle
 10
2673.5798411482592201
 20
764.2101906709530112
 30
0.0
 40
90.5
100
AcDbArc
 50
101.4743280115270068
 51
112.9894249145494314
  0
ARC
  5
C9
100
AcDbEntity
  8
Contornos Visibles
 62
256
370
-1
 48
1.0
  6
BYLAYER
100
AcDbCircle
 10
2673.5798411482592201
 20
764.2101906709530112
 30
0.0
 40
90.5
100
AcDbArc
 50
139.0105750854505686
 51
150.5256719884733059
  0
ARC
  5
CA
100
AcDbEntity
  8
Contornos Visibles
 62
256
370
-1
 48
1.0
  6
BYLAYER
100
AcDbCircle
 10
2673.5798411482592201
 20
764.2101906709530112
 30
0.0
 40
90.5
100
AcDbArc
 50
173.4743280115270068
 51
184.989424914549403
  0
ARC
  5
CB
100
AcDbEntity
  8
Contornos Visibles
 62
256
370
-1
 48
1.0
  6
BYLAYER
100
AcDbCircle
 10
2673.5798411482592201
 20
764.2101906709530112
 30
0.0
 40
90.5
100
AcDbArc
 50
211.0105750854505686
 51
222.5256719884733059
  0
ARC
  5
CC
100
AcDbEntity
  8
Contornos Visibles
 62
256
370
-1
 48
1.0
  6
BYLAYER
100
AcDbCircle
 10
2631.8621987965766493
 20
672.7777658063728268
 30
0.0
 40
10.0
100
AcDbArc
 50
65.474328011525941
 51
144.0000000000006253
  0
ARC
  5
CD
100
AcDbEntity
  8
Contornos Visibles
 62
256
370
-1
 48
1.0
  6
BYLAYER
100
AcDbCircle
 10
2747.6457841644592008
 20
696.2801819478488596
 30
0.0
 40
10.0
100
AcDbArc
 50
137.4743280115259552
 51
216.0000000000006253
  0
ARC
  5
CE
100
AcDbEntity
  8
Contornos Visibles
 62
256
370
-1
 48
1.0
  6
BYLAYER
100
AcDbCircle
 10
2761.0727536927661276
 20
813.6595612885779474
 30
0.0
 40
10.0
100
AcDbArc
 50
209.4743280115259552
 51
288.0000000000006253
  0
ARC
  5
CF
100
AcDbEntity
  8
Contornos Visibles
 62
256
370
-1
 48
1.0
  6
BYLAYER
100
AcDbCircle
 10
2653.5874918592867289
 20
862.7015911580397187
 30
0.0
 40
10.0
100
AcDbArc
 50
281.4743280115259267
 51
0.0000000000006107
  0
ARC
  5
D0
100
AcDbEntity
  8
Contornos Visibles
 62
256
370
-1
 48
1.0
  6
BYLAYER
100
AcDbCircle
 10
2573.7309772282073936
 20
775.63185315392559
 30
0.0
 40
10.0
100
AcDbArc
 50
353.4743280115259267
 51
72.0000000000006111
  0
ARC
  5
D1
100
AcDbEntity
  8
Contornos Visibles
 62
256
370
-1
 48
1.0
  6
BYLAYER
100
AcDbCircle
 10
2715.2974834999422455
 20
672.7777658063731678
 30
0.0
 40
10.0
100
AcDbArc
 50
36.0000000000004334
 51
114.5256719884745991
  0
ARC
  5
D2
100
AcDbEntity
  8
Contornos Visibles
 62
256
370
-1
 48
1.0
  6
BYLAYER
100
AcDbCircle
 10
2773.4287050683110465
 20
775.6318531539260448
 30
0.0
 40
10.0
100
AcDbArc
 50
108.0000000000004405
 51
186.5256719884746133
  0
ARC
  5
D3
100
AcDbEntity
  8
Contornos Visibles
 62
256
370
-1
 48
1.0
  6
BYLAYER
100
AcDbCircle
 10
2693.5721904372312565
 20
862.7015911580397187
 30
0.0
 40
10.0
100
AcDbArc
 50
180.0000000000004263
 51
258.5256719884746417
  0
ARC
  5
D4
100
AcDbEntity
  8
Contornos Visibles
 62
256
370
-1
 48
1.0
  6
BYLAYER
100
AcDbCircle
 10
2586.0869286037518577
 20
813.6595612885774926
 30
0.0
 40
10.0
100
AcDbArc
 50
252.0000000000004263
 51
330.5256719884746417
  0
ARC
  5
D5
100
AcDbEntity
  8
Contornos Visibles
 62
256
370
-1
 48
1.0
  6
BYLAYER
100
AcDbCircle
 10
2599.513898132059694
 20
696.2801819478486323
 30
0.0
 40
10.0
100
AcDbArc
 50
324.0000000000003979
 51
42.5256719884746204
  0
ARC
  5
D6
100
AcDbEntity
  8
Contornos Visibles
 62
256
370
-1
 48
1.0
  6
BYLAYER
100
AcDbCircle
 10
2673.5798411482592201
 20
764.2101906709530112
 30
0.0
 40
120.0
100
AcDbArc
 50
244.4716291437876521
 51
270.0
  0
ARC
  5
D7
100
AcDbEntity
  8
Contornos Visibles
 62
256
370
-1
 48
1.0
  6
BYLAYER
100
AcDbCircle
 10
2673.5798411482592201
 20
764.2101906709530112
 30
0.0
 40
120.0
100
AcDbArc
 50
270.0
 51
295.5283708562128027
  0
ARC
  5
D8
100
AcDbEntity
  8
Contornos Visibles
 62
256
370
-1
 48
1.0
  6
BYLAYER
100
AcDbCircle
 10
2673.5798411482592201
 20
764.2101906709530112
 30
0.0
 40
120.0
100
AcDbArc
 50
342.0
 51
7.5283708562128089
  0
ARC
  5
D9
100
AcDbEntity
  8
Contornos Visibles
 62
256
370
-1
 48
1.0
  6
BYLAYER
100
AcDbCircle
 10
2673.5798411482592201
 20
764.2101906709530112
 30
0.0
 40
120.0
100
AcDbArc
 50
316.4716291437876521
 51
342.0
  0
ARC
  5
DA
100
AcDbEntity
  8
Contornos Visibles
 62
256
370
-1
 48
1.0
  6
BYLAYER
100
AcDbCircle
 10
2673.5798411482592201
 20
764.2101906709530112
 30
0.0
 40
120.0
100
AcDbArc
 50
54.0
 51
79.5283708562128169
  0
ARC
  5
DB
100
AcDbEntity
  8
Contornos Visibles
 62
256
370
-1
 48
1.0
  6
BYLAYER
100
AcDbCircle
 10
2673.5798411482592201
 20
764.2101906709530112
 30
0.0
 40
120.0
100
AcDbArc
 50
28.4716291437876521
 51
54.0
  0
ARC
  5
DC
100
AcDbEntity
  8
Contornos Visibles
 62
256
370
-1
 48
1.0
  6
BYLAYER
100
AcDbCircle
 10
2673.5798411482592201
 20
764.2101906709530112
 30
0.0
 40
120.0
100
AcDbArc
 50
125.9999999999999858
 51
151.5283708562128595
  0
ARC
  5
DD
100
AcDbEntity
  8
Contornos Visibles
 62
256
370
-1
 48
1.0
  6
BYLAYER
100
AcDbCircle
 10
2673.5798411482592201
 20
764.2101906709530112
 30
0.0
 40
120.0
100
AcDbArc
 50
100.4716291437876379
 51
125.9999999999999858
  0
ARC
  5
DE
100
AcDbEntity
  8
Contornos Visibles
 62
256
370
-1
 48
1.0
  6
BYLAYER
100
AcDbCircle
 10
2673.5798411482592201
 20
764.2101906709530112
 30
0.0
 40
120.0
100
AcDbArc
 50
198.0000000000000284
 51
223.5283708562128595
  0
ARC
  5
DF
100
AcDbEntity
  8
Contornos Visibles
 62
256
370
-1
 48
1.0
  6
BYLAYER
100
AcDbCircle
 10
2673.5798411482592201
 20
764.2101906709530112
 30
0.0
 40
120.0
100
AcDbArc
 50
172.4716291437876521
 51
198.0000000000000284
  0
ARC
  5
E0
100
AcDbEntity
  8
Contornos Visibles
 62
256
370
-1
 48
1.0
  6
BYLAYER
100
AcDbCircle
 10
2626.1744641709369716
 20
664.9492706992040212
 30
0.0
 40
10.0
100
AcDbArc
 50
143.9999999999995737
 51
244.4716291437868847
  0
ARC
  5
E1
100
AcDbEntity
  8
Contornos Visibles
 62
256
370
-1
 48
1.0
  6
BYLAYER
100
AcDbCircle
 10
2753.3335187900993333
 20
688.4516868406803951
 30
0.0
 40
10.0
100
AcDbArc
 50
215.9999999999995453
 51
316.4716291437868563
  0
ARC
  5
E2
100
AcDbEntity
  8
Contornos Visibles
 62
256
370
-1
 48
1.0
  6
BYLAYER
100
AcDbCircle
 10
2770.2757016360415037
 20
816.6497803387543399
 30
0.0
 40
10.0
100
AcDbArc
 50
287.9999999999996021
 51
28.4716291437868847
  0
ARC
  5
E3
100
AcDbEntity
  8
Contornos Visibles
 62
256
370
-1
 48
1.0
  6
BYLAYER
100
AcDbCircle
 10
2653.5874918592862741
 20
872.3781432720247722
 30
0.0
 40
10.0
100
AcDbArc
 50
0.0
 51
100.4716291437869415
  0
ARC
  5
E4
100
AcDbEntity
  8
Contornos Visibles
 62
256
370
-1
 48
1.0
  6
BYLAYER
100
AcDbCircle
 10
2564.5280292849320176
 20
778.6220722041015279
 30
0.0
 40
10.0
100
AcDbArc
 50
71.9999999999995879
 51
172.4716291437869415
  0
ARC
  5
E5
100
AcDbEntity
  8
Contornos Visibles
 62
256
370
-1
 48
1.0
  6
BYLAYER
100
AcDbCircle
 10
2720.985218125582378
 20
664.9492706992043622
 30
0.0
 40
10.0
100
AcDbArc
 50
295.5283708562133711
 51
35.9999999999999147
  0
ARC
  5
E6
100
AcDbEntity
  8
Contornos Visibles
 62
256
370
-1
 48
1.0
  6
BYLAYER
100
AcDbCircle
 10
2782.6316530115864225
 20
778.6220722041024374
 30
0.0
 40
10.0
100
AcDbArc
 50
7.5283708562133684
 51
107.9999999999999147
  0
ARC
  5
E7
100
AcDbEntity
  8
Contornos Visibles
 62
256
370
-1
 48
1.0
  6
BYLAYER
100
AcDbCircle
 10
2693.5721904372312565
 20
872.3781432720249995
 30
0.0
 40
10.0
100
AcDbArc
 50
79.5283708562133711
 51
179.9999999999998863
  0
ARC
  5
E8
100
AcDbEntity
  8
Contornos Visibles
 62
256
370
-1
 48
1.0
  6
BYLAYER
100
AcDbCircle
 10
2576.8839806604764817
 20
816.6497803387536578
 30
0.0
 40
10.0
100
AcDbArc
 50
151.5283708562133711
 51
251.9999999999999147
  0
ARC
  5
E9
100
AcDbEntity
  8
Contornos Visibles
 62
256
370
-1
 48
1.0
  6
BYLAYER
100
AcDbCircle
 10
2593.8261635064195616
 20
688.4516868406795993
 30
0.0
 40
10.0
100
AcDbArc
 50
223.5283708562133711
 51
323.9999999999998863
  0
LINE
  5
EA
100
AcDbEntity
  8
Contornos Visibles
 62
256
370
-1
 48
1.0
  6
BYLAYER
100
AcDbLine
 10
2657.0798411482592201
 20
668.7101906709530112
 30
0.0
 11
2657.0798411482592201
 21
671.161816155328097
 31
0.0
  0
LINE
  5
EB
100
AcDbEntity
  8
Contornos Visibles
 62
256
370
-1
 48
1.0
  6
BYLAYER
100
AcDbLine
 10
2759.3069580472597409
 20
719.006635189275471
 30
0.0
 11
2756.9753236548294808
 21
719.7642291277900313
 31
0.0
  0
LINE
  5
EC
100
AcDbEntity
  8
Contornos Visibles
 62
256
370
-1
 48
1.0
  6
BYLAYER
100
AcDbLine
 10
2743.0621131493771827
 20
831.7728569709346402
 30
0.0
 11
2741.6210838455172052
 21
829.7894502902324803
 31
0.0
  0
LINE
  5
ED
100
AcDbEntity
  8
Contornos Visibles
 62
256
370
-1
 48
1.0
  6
BYLAYER
100
AcDbLine
 10
2630.7951299615147036
 20
851.1697702965863073
 30
0.0
 11
2632.2361592653746811
 21
849.1863636158841473
 31
0.0
  0
LINE
  5
EE
100
AcDbEntity
  8
Contornos Visibles
 62
256
370
-1
 48
1.0
  6
BYLAYER
100
AcDbLine
 10
2577.6551634348852531
 20
750.3915002270156265
 30
0.0
 11
2579.9867978273155131
 21
751.1490941655301867
 31
0.0
  0
LINE
  5
EF
100
AcDbEntity
  8
Contornos Visibles
 62
256
370
-1
 48
1.0
  6
BYLAYER
100
AcDbLine
 10
2690.0798411482592201
 20
668.7101906709530112
 30
0.0
 11
2690.0798411482592201
 21
671.161816155328097
 31
0.0
  0
LINE
  5
F0
100
AcDbEntity
  8
Contornos Visibles
 62
256
370
-1
 48
1.0
  6
BYLAYER
100
AcDbLine
 10
2769.504518861633187
 20
750.3915002270156265
 30
0.0
 11
2767.172884469202927
 21
751.1490941655301867
 31
0.0
  0
LINE
  5
F1
100
AcDbEntity
  8
Contornos Visibles
 62
256
370
-1
 48
1.0
  6
BYLAYER
100
AcDbLine
 10
2716.3645523350037365
 20
851.1697702965863073
 30
0.0
 11
2714.923523031143759
 21
849.1863636158841473
 31
0.0
  0
LINE
  5
F2
100
AcDbEntity
  8
Contornos Visibles
 62
256
370
-1
 48
1.0
  6
BYLAYER
100
AcDbLine
 10
2604.0975691471412574
 20
831.7728569709346402
 30
0.0
 11
2605.5385984510012349
 21
829.7894502902324803
 31
0.0
  0
LINE
  5
F3
100
AcDbEntity
  8
Contornos Visibles
 62
256
370
-1
 48
1.0
  6
BYLAYER
100
AcDbLine
 10
2587.8527242492586993
 20
719.006635189275471
 30
0.0
 11
2590.1843586416889593
 21
719.764229127790145
 31
0.0
  0
ARC
  5
F4
100
AcDbEntity
  8
Contornos Visibles
 62
256
370
-1
 48
1.0
  6
BYLAYER
100
AcDbCircle
 10
2662.0798411482592201
 20
668.7101906709530112
 30
0.0
 40
5.0
100
AcDbArc
 50
180.0
 51
270.0
  0
ARC
  5
F5
100
AcDbEntity
  8
Contornos Visibles
 62
256
370
-1
 48
1.0
  6
BYLAYER
100
AcDbCircle
 10
2760.8520430191342712
 20
723.7619177707512108
 30
0.0
 40
5.0
100
AcDbArc
 50
251.9999999999999716
 51
342.0
  0
ARC
  5
F6
100
AcDbEntity
  8
Contornos Visibles
 62
256
370
-1
 48
1.0
  6
BYLAYER
100
AcDbCircle
 10
2739.0170281775021977
 20
834.7117832323970106
 30
0.0
 40
5.0
100
AcDbArc
 50
324.0
 51
54.0
  0
ARC
  5
F7
100
AcDbEntity
  8
Contornos Visibles
 62
256
370
-1
 48
1.0
  6
BYLAYER
100
AcDbCircle
 10
2626.7500449896401733
 20
848.2308440351239369
 30
0.0
 40
5.0
100
AcDbArc
 50
36.0
 51
125.9999999999999858
  0
ARC
  5
F8
100
AcDbEntity
  8
Contornos Visibles
 62
256
370
-1
 48
1.0
  6
BYLAYER
100
AcDbCircle
 10
2579.2002484067602381
 20
745.6362176455398867
 30
0.0
 40
5.0
100
AcDbArc
 50
108.0
 51
198.0000000000000284
  0
ARC
  5
F9
100
AcDbEntity
  8
Contornos Visibles
 62
256
370
-1
 48
1.0
  6
BYLAYER
100
AcDbCircle
 10
2652.0798411482592201
 20
671.161816155328097
 30
0.0
 40
5.0
100
AcDbArc
 50
0.0
 51
76.9894249145508951
  0
ARC
  5
FA
100
AcDbEntity
  8
Contornos Visibles
 62
256
370
-1
 48
1.0
  6
BYLAYER
100
AcDbCircle
 10
2755.4302386829549505
 20
715.0089465463142915
 30
0.0
 40
5.0
100
AcDbArc
 50
72.0
 51
148.9894249145509093
  0
ARC
  5
FB
100
AcDbEntity
  8
Contornos Visibles
 62
256
370
-1
 48
1.0
  6
BYLAYER
100
AcDbCircle
 10
2745.6661688173917355
 20
826.8505240287701099
 30
0.0
 40
5.0
100
AcDbArc
 50
144.0
 51
220.9894249145508809
  0
ARC
  5
FC
100
AcDbEntity
  8
Contornos Visibles
 62
256
370
-1
 48
1.0
  6
BYLAYER
100
AcDbCircle
 10
2636.2812442372496662
 20
852.1252898773465176
 30
0.0
 40
5.0
100
AcDbArc
 50
216.0
 51
292.9894249145509093
  0
ARC
  5
FD
100
AcDbEntity
  8
Contornos Visibles
 62
256
370
-1
 48
1.0
  6
BYLAYER
100
AcDbCircle
 10
2578.4417128554409828
 20
755.9043767470060402
 30
0.0
 40
5.0
100
AcDbArc
 50
288.0
 51
4.9894249145508986
  0
ARC
  5
FE
100
AcDbEntity
  8
Contornos Visibles
 62
256
370
-1
 48
1.0
  6
BYLAYER
100
AcDbCircle
 10
2695.0798411482592201
 20
671.161816155328097
 30
0.0
 40
5.0
100
AcDbArc
 50
103.0105750854491191
 51
180.0
  0
ARC
  5
FF
100
AcDbEntity
  8
Contornos Visibles
 62
256
370
-1
 48
1.0
  6
BYLAYER
100
AcDbCircle
 10
2768.7179694410774573
 20
755.9043767470059265
 30
0.0
 40
5.0
100
AcDbArc
 50
175.0105750854491191
 51
251.9999999999999716
  0
ARC
  5
100
100
AcDbEntity
  8
Contornos Visibles
 62
256
370
-1
 48
1.0
  6
BYLAYER
100
AcDbCircle
 10
2710.8784380592687739
 20
852.1252898773465176
 30
0.0
 40
5.0
100
AcDbArc
 50
247.010575085449176
 51
324.0
  0
ARC
  5
101
100
AcDbEntity
  8
Contornos Visibles
 62
256
370
-1
 48
1.0
  6
BYLAYER
100
AcDbCircle
 10
2601.4935134791267046
 20
826.8505240287702236
 30
0.0
 40
5.0
100
AcDbArc
 50
319.0105750854491475
 51
36.0
  0
ARC
  5
102
100
AcDbEntity
  8
Contornos Visibles
 62
256
370
-1
 48
1.0
  6
BYLAYER
100
AcDbCircle
 10
2591.7294436135634896
 20
715.0089465463144052
 30
0.0
 40
5.0
100
AcDbArc
 50
31.0105750854491511
 51
108.0
  0
ARC
  5
103
100
AcDbEntity
  8
Contornos Visibles
 62
256
370
-1
 48
1.0
  6
BYLAYER
100
AcDbCircle
 10
2685.0798411482592201
 20
668.7101906709530112
 30
0.0
 40
5.0
100
AcDbArc
 50
270.0
 51
0.0
  0
ARC
  5
104
100
AcDbEntity
  8
Contornos Visibles
 62
256
370
-1
 48
1.0
  6
BYLAYER
100
AcDbCircle
 10
2767.959433889758202
 20
745.636217645539773
 30
0.0
 40
5.0
100
AcDbArc
 50
342.0
 51
72.0
  0
ARC
  5
105
100
AcDbEntity
  8
Contornos Visibles
 62
256
370
-1
 48
1.0
  6
BYLAYER
100
AcDbCircle
 10
2720.4096373068787216
 20
848.2308440351239369
 30
0.0
 40
5.0
100
AcDbArc
 50
54.0
 51
144.0
  0
ARC
  5
106
100
AcDbEntity
  8
Contornos Visibles
 62
256
370
-1
 48
1.0
  6
BYLAYER
100
AcDbCircle
 10
2608.1426541190162425
 20
834.7117832323971243
 30
0.0
 40
5.0
100
AcDbArc
 50
125.9999999999999858
 51
216.0
  0
ARC
  5
107
100
AcDbEntity
  8
Contornos Visibles
 62
256
370
-1
 48
1.0
  6
BYLAYER
100
AcDbCircle
 10
2586.3076392773837142
 20
723.7619177707514382
 30
0.0
 40
5.0
100
AcDbArc
 50
198.0000000000000284
 51
288.0
  0
CIRCLE
  5
108
100
AcDbEntity
  8
Ejes de revoluci\U+00f3n
 62
256
370
-1
 48
1.0
  6
BYLAYER
100
AcDbCircle
 10
2673.5798411482592201
 20
764.2101906709530112
 30
0.0
 40
126.0
  0
LINE
  5
109
100
AcDbEntity
  8
Referencias
 62
256
370
-1
 48
1.0
  6
BYLAYER
100
AcDbLine
 10
2673.5798411482592201
 20
764.2101906709530112
 30
0.0
 11
2673.5798411482592201
 21
959.947598208830982
 31
0.0
  0
CIRCLE
  5
10A
100
AcDbEntity
  8
Contornos Visibles
 62
256
370
-1
 48
1.0
  6
BYLAYER
100
AcDbCircle
 10
2673.5798411482592201
 20
764.2101906709530112
 30
0.0
 40
150.0
  0
LINE
  5
10B
100
AcDbEntity
  8
Referencias
 62
256
370
-1
 48
1.0
  6
BYLAYER
100
AcDbLine
 10
2609.3010801796053784
 20
837.6057463590551606
 30
0.0
 11
2673.5798411482592201
 21
914.2101906709530112
 31
0.0
  0
CIRCLE
  5
10C
100
AcDbEntity
  8
Ejes de revoluci\U+00f3n
 62
256
370
-1
 48
1.0
  6
BYLAYER
100
AcDbCircle
 10
2673.5798411482592201
 20
764.2101906709530112
 30
0.0
 40
134.0
  0
CIRCLE
  5
10D
100
AcDbEntity
  8
Ejes de revoluci\U+00f3n
 62
256
370
-1
 48
1.0
  6
BYLAYER
100
AcDbCircle
 10
2673.5798411482592201
 20
764.2101906709530112
 30
0.0
 40
142.0
  0
CIRCLE
  5
10E
100
AcDbEntity
  8
Contornos Visibles
 62
256
370
-1
 48
1.0
  6
BYLAYER
100
AcDbCircle
 10
2651.8585755519488885
 20
888.3237943608569367
 30
0.0
 40
2.5
  0
CIRCLE
  5
10F
100
AcDbEntity
  8
Contornos Visibles
 62
256
370
-1
 48
1.0
  6
BYLAYER
100
AcDbCircle
 10
2576.9549401957233385
 20
683.3422210172473115
 30
0.0
 40
2.5
  0
CIRCLE
  5
110
100
AcDbEntity
  8
Contornos Visibles
 62
256
370
-1
 48
1.0
  6
BYLAYER
100
AcDbCircle
 10
2791.9260076971049784
 20
720.9645566347546719
 30
0.0
 40
2.5
  0
CIRCLE
  5
111
100
AcDbEntity
  8
Contornos Visibles
 62
256
370
-1
 48
1.0
  6
BYLAYER
100
AcDbCircle
 10
2659.5349278172338927
 20
897.472114751029153
 30
0.0
 40
2.5
  0
CIRCLE
  5
112
100
AcDbEntity
  8
Contornos Visibles
 62
256
370
-1
 48
1.0
  6
BYLAYER
100
AcDbCircle
 10
2565.1940862032329278
 20
685.4159768922962712
 30
0.0
 40
2.5
  0
CIRCLE
  5
113
100
AcDbEntity
  8
Contornos Visibles
 62
256
370
-1
 48
1.0
  6
BYLAYER
100
AcDbCircle
 10
2796.0105094243108397
 20
709.7424803695336095
 30
0.0
 40
2.5
  0
CIRCLE
  5
114
100
AcDbEntity
  8
Contornos Visibles
 62
256
370
-1
 48
1.0
  6
BYLAYER
100
AcDbCircle
 10
2666.7282633022687151
 20
906.0447981580551868
 30
0.0
 40
2.5
  0
CIRCLE
  5
115
100
AcDbEntity
  8
Contornos Visibles
 62
256
370
-1
 48
1.0
  6
BYLAYER
100
AcDbCircle
 10
2554.1732568516295032
 20
687.3592464567675506
 30
0.0
 40
2.5
  0
CIRCLE
  5
116
100
AcDbEntity
  8
Contornos Visibles
 62
256
370
-1
 48
1.0
  6
BYLAYER
100
AcDbCircle
 10
2799.8380032908794419
 20
699.22652739803641
 30
0.0
 40
2.5
  0
LINE
  5
117
100
AcDbEntity
  8
Ejes de revoluci\U+00f3n
 62
256
370
-1
 48
1.0
  6
BYLAYER
100
AcDbLine
 10
2666.8488896727967585
 20
903.5477099980710136
 30
0.0
 11
2666.7282633022687151
 21
908.5447981580551868
 31
0.0
  0
LINE
  5
118
100
AcDbEntity
  8
Ejes de revoluci\U+00f3n
 62
256
370
-1
 48
1.0
  6
BYLAYER
100
AcDbLine
 10
2556.2754854484010139
 20
688.7122560380031473
 30
0.0
 11
2552.0081933421683971
 21
686.1092464567675506
 31
0.0
  0
LINE
  5
119
100
AcDbEntity
  8
Ejes de revoluci\U+00f3n
 62
256
370
-1
 48
1.0
  6
BYLAYER
100
AcDbLine
 10
2797.6151483235798878
 20
700.3706059767847592
 30
0.0
 11
2802.0030668003405481
 21
697.9765273980362963
 31
0.0
  0
LINE
  5
11A
100
AcDbEntity
  8
Ejes de revoluci\U+00f3n
 62
256
370
-1
 48
1.0
  6
BYLAYER
100
AcDbLine
 10
2659.5349278172338927
 20
894.972114751029153
 30
0.0
 11
2659.5349278172338927
 21
899.972114751029153
 31
0.0
  0
LINE
  5
11B
100
AcDbEntity
  8
Ejes de revoluci\U+00f3n
 62
256
370
-1
 48
1.0
  6
BYLAYER
100
AcDbLine
 10
2567.3591497126935792
 20
686.6659768922963849
 30
0.0
 11
2563.0290226937718217
 21
684.1659768922962712
 31
0.0
  0
LINE
  5
11C
100
AcDbEntity
  8
Ejes de revoluci\U+00f3n
 62
256
370
-1
 48
1.0
  6
BYLAYER
100
AcDbLine
 10
2793.8454459148497335
 20
710.9924803695336095
 30
0.0
 11
2798.1755729337719458
 21
708.4924803695334958
 31
0.0
  0
LINE
  5
11D
100
AcDbEntity
  8
Ejes de revoluci\U+00f3n
 62
256
370
-1
 48
1.0
  6
BYLAYER
100
AcDbLine
 10
2651.8585755519488885
 20
885.8237943608569367
 30
0.0
 11
2651.8585755519488885
 21
890.8237943608569367
 31
0.0
  0
LINE
  5
11E
100
AcDbEntity
  8
Ejes de revoluci\U+00f3n
 62
256
370
-1
 48
1.0
  6
BYLAYER
100
AcDbLine
 10
2579.1200037051844447
 20
684.5922210172474252
 30
0.0
 11
2574.7898766862622324
 21
682.0922210172474252
 31
0.0
  0
LINE
  5
11F
100
AcDbEntity
  8
Ejes de revoluci\U+00f3n
 62
256
370
-1
 48
1.0
  6
BYLAYER
100
AcDbLine
 10
2789.7609441876438723
 20
722.2145566347546719
 30
0.0
 11
2794.0910712065660846
 21
719.7145566347546719
 31
0.0
  0
DIMENSION
  5
120
100
AcDbEntity
  8
Cotas
 62
256
370
-1
 48
1.0
  6
BYLAYER
100
AcDbDimension
 10
2707.3328794889876008
 20
773.4693700497819009
 30
0.0
 11
2701.4575070393862006
 21
774.3921510773275259
 31
0.0
 70
131
 71
8
 72
2
 74
0
 75
0
 41
1.0
 42
0.0
  1
\U+00f8<>
  3
Standard
100
AcDbDiametricDimension
 15
2639.8268028075308393
 25
754.9510112921241216
 35
0.0
 40
0.0
1001
ACAD
1000
DSTYLE
1002
{
1070
279
1070
2
1070
144
1040
1.0
1070
40
1040
1.0
1002
}
  0
DIMENSION
  5
121
100
AcDbEntity
  8
Cotas
 62
256
370
-1
 48
1.0
  6
BYLAYER
100
AcDbDimension
 10
2718.2312885046312658
 20
758.6201773452854695
 30
0.0
 11
2634.5662435681642819
 21
770.9743492941263412
 31
0.0
 70
131
 71
8
 72
2
 74
0
 75
0
 41
1.0
 42
0.0
  1
\U+00f8<>
  3
Standard
100
AcDbDiametricDimension
 15
2628.9283937918871743
 25
769.8002039966204393
 35
0.0
 40
0.0
1001
ACAD
1000
DSTYLE
1002
{
1070
279
1070
2
1070
144
1040
1.0
1070
40
1040
1.0
1002
}
  0
DIMENSION
  5
122
100
AcDbEntity
  8
Cotas
 62
256
370
-1
 48
1.0
  6
BYLAYER
100
AcDbDimension
 10
2649.5383103402068627
 20
729.9862040626301223
 30
0.0
 11
2640.5919908644132192
 21
726.6746471082198013
 31
0.0
 70
131
 71
8
 72
2
 74
0
 75
0
 41
1.0
 42
0.0
  1
\U+00f8<>
  3
Standard
100
AcDbDiametricDimension
 15
2644.7206992499891385
 25
725.6226477855307166
 35
0.0
 40
0.0
1001
ACAD
1000
DSTYLE
1002
{
1070
279
1070
2
1070
144
1040
1.0
1070
40
1040
1.0
1002
}
  0
LINE
  5
123
100
AcDbEntity
  8
Referencias
 62
256
370
-1
 48
1.0
  6
BYLAYER
100
AcDbLine
 10
2673.5798411482592201
 20
747.2101906709528976
 30
0.0
 11
2673.5798411482592201
 21
764.2101906709528976
 31
0.0
  0
DIMENSION
  5
124
100
AcDbEntity
  8
Cotas
 62
256
370
-1
 48
1.0
  6
BYLAYER
100
AcDbDimension
 10
2853.8127910733419412
 20
764.2101906709530112
 30
0.0
 11
2851.9377910733419412
 21
755.7101906709528976
 31
0.0
 70
0
 71
8
 72
2
 74
0
 75
0
 41
1.0
 42
0.0
  1

  3
Standard
100
AcDbAlignedDimension
 13
2673.5798411482596748
 23
764.2101906709530112
 33
0.0
 14
2673.5798411482592201
 24
747.2101906709528976
 34
0.0
 50
90.0
100
AcDbRotatedDimension
1001
ACAD
1000
DSTYLE
1002
{
1070
144
1040
1.0
1070
40
1040
1.0
1002
}
  0
DIMENSION
  5
125
100
AcDbEntity
  8
Cotas
 62
256
370
-1
 48
1.0
  6
BYLAYER
100
AcDbDimension
 10
2868.7186548905729069
 20
764.2101906709528976
 30
0.0
 11
2866.8436548905729069
 21
713.9601906709528976
 31
0.0
 70
0
 71
8
 72
2
 74
0
 75
0
 41
1.0
 42
0.0
  1

  3
Standard
100
AcDbAlignedDimension
 13
2673.5798411482592201
 23
764.2101906709528976
 33
0.0
 14
2685.0798411482592201
 24
663.7101906709530112
 34
0.0
 50
90.0
100
AcDbRotatedDimension
1001
ACAD
1000
DSTYLE
1002
{
1070
144
1040
1.0
1070
40
1040
1.0
1002
}
  0
DIMENSION
  5
126
100
AcDbEntity
  8
Cotas
 62
256
370
-1
 48
1.0
  6
BYLAYER
100
AcDbDimension
 10
2631.8621987965766493
 20
672.7777658063728268
 30
0.0
 11
2631.9259187736329295
 21
678.1173879619681202
 31
0.0
 70
4
 71
8
 72
2
 74
0
 41
1.0
 42
0.0
  1
R<>
  3
Standard
100
AcDbRadialDimension
 15
2628.4629425444481967
 25
682.1822890230153007
 35
0.0
 40
0.0
1001
ACAD
1000
DSTYLE
1002
{
1070
144
1040
1.0
1070
40
1040
1.0
1002
}
  0
DIMENSION
  5
127
100
AcDbEntity
  8
Cotas
 62
256
370
-1
 48
1.0
  6
BYLAYER
100
AcDbDimension
 10
2720.985218125582378
 20
664.9492706992043622
 30
0.0
 11
2726.0950680731980356
 21
666.5000958063163807
 31
0.0
 70
4
 71
8
 72
2
 74
0
 41
1.0
 42
0.0
  1
R<>
  3
Standard
100
AcDbRadialDimension
 15
2730.9646756384072432
 25
664.3086243461192453
 35
0.0
 40
0.0
1001
ACAD
1000
DSTYLE
1002
{
1070
144
1040
1.0
1070
40
1040
1.0
1002
}
  0
DIMENSION
  5
128
100
AcDbEntity
  8
Cotas
 62
256
370
-1
 48
1.0
  6
BYLAYER
100
AcDbDimension
 10
2690.0798411482592201
 20
589.131369240527647
 30
0.0
 11
2673.5798411482592201
 21
591.006369240527647
 31
0.0
 70
0
 71
8
 72
2
 74
0
 75
0
 41
1.0
 42
0.0
  1

  3
Standard
100
AcDbAlignedDimension
 13
2690.0798411482592201
 23
671.161816155328097
 33
0.0
 14
2657.0798411482592201
 24
671.161816155328097
 34
0.0
 50
0.0
100
AcDbRotatedDimension
1001
ACAD
1000
DSTYLE
1002
{
1070
144
1040
1.0
1070
40
1040
1.0
1002
}
  0
DIMENSION
  5
129
100
AcDbEntity
  8
Cotas
 62
256
370
-1
 48
1.0
  6
BYLAYER
100
AcDbDimension
 10
2641.5003148018458887
 20
679.5865888249563795
 30
0.0
 11
2640.1596340790088107
 21
684.2806070003276773
 31
0.0
 70
131
 71
8
 72
2
 74
0
 75
0
 41
1.0
 42
0.0
  1
\U+00f8<>
  3
Standard
100
AcDbDiametricDimension
 15
2705.6593674946725514
 25
848.833792516949643
 35
0.0
 40
0.0
1001
ACAD
1000
DSTYLE
1002
{
1070
279
1070
2
1070
144
1040
1.0
1070
40
1040
1.0
1002
}
  0
MTEXT
  5
12A
100
AcDbEntity
  8
Cotas
 62
256
370
-1
 48
1.0
  6
BYLAYER
100
AcDbMText
 10
2609.9683589862374902
 20
617.5263680851679737
 30
0.0
 40
2.5
 41
0.0
 71
1
 72
1
  1
%%c240
  7
textstyle0
 50
0.0
 73
2
 44
1.0
  0
LEADER
  5
12B
100
AcDbEntity
  8
Cotas
 62
256
370
-1
 48
1.0
  6
BYLAYER
100
AcDbLeader
  3
Standard
 71
1
 72
0
 73
3
 74
0
 75
0
 40
1.0
 41
10.0
 76
3
 10
2640.7692699137833188
 20
648.7828697487926775
 10
2617.7870077568682063
 20
614.6314158341448319
 10
2609.7183589862374902
 20
614.6314158341448319
1001
ACAD
1000
DSTYLE
1002
{
1070
40
1040
1.0
1002
}
  0
DIMENSION
  5
12C
100
AcDbEntity
  8
Cotas
 62
256
370
-1
 48
1.0
  6
BYLAYER
100
AcDbDimension
 10
2674.2048411482592201
 20
747.2101906709528976
 30
0.0
 11
2673.3606928511385377
 21
569.560499211510546
 31
0.0
 70
2
 71
8
 72
2
 74
0
 75
0
 41
1.0
 42
0.0
  1

  3
Standard
100
AcDb2LineAngularDimension
 13
2618.0842942271874563
 23
670.8271232221288756
 33
0.0
 14
2623.772028852827134
 24
678.6556183292974538
 34
0.0
 15
2723.3876534436917609
 25
678.6556183292980222
 35
0.0
 16
2740.2099964085755346
 26
580.3491842687170674
 36
0.0
  0
LINE
  5
12D
100
AcDbEntity
  8
Cotas
 62
256
370
-1
 48
1.0
  6
BYLAYER
100
AcDbLine
 10
2673.5798411482592201
 20
747.2101906709528976
 30
0.0
 11
2723.3876534436917609
 21
678.6556183292980222
 31
0.0
  0
LINE
  5
12E
100
AcDbEntity
  8
Cotas
 62
256
370
-1
 48
1.0
  6
BYLAYER
100
AcDbLine
 10
2617.7169284445044468
 20
670.3214876006444456
 30
0.0
 11
2673.5798411482592201
 21
747.2101906709531249
 31
0.0
  0
DIMENSION
  5
12F
100
AcDbEntity
  8
Cotas
 62
256
370
-1
 48
1.0
  6
BYLAYER
100
AcDbDimension
 10
2617.3615679693698439
 20
720.8453920344603603
 30
0.0
 11
2620.9887858834622421
 21
716.9263468441512259
 31
0.0
 70
4
 71
8
 72
2
 74
0
 41
1.0
 42
0.0
  1
R<>
  3
Standard
100
AcDbRadialDimension
 15
2621.1447148716852098
 25
711.5886215654737725
 35
0.0
 40
0.0
1001
ACAD
1000
DSTYLE
1002
{
1070
144
1040
1.0
1070
40
1040
1.0
1002
}
  0
DIMENSION
  5
130
100
AcDbEntity
  8
Cotas
 62
256
370
-1
 48
1.0
  6
BYLAYER
100
AcDbDimension
 10
2602.6091136449613259
 20
766.2487778416214041
 30
0.0
 11
2602.024714313862205
 21
771.5567061024224813
 31
0.0
 70
4
 71
8
 72
2
 74
0
 41
1.0
 42
0.0
  1
R<>
  3
Standard
100
AcDbRadialDimension
 15
2598.0942688381237531
 25
775.1715675606594687
 35
0.0
 40
0.0
1001
ACAD
1000
DSTYLE
1002
{
1070
144
1040
1.0
1070
40
1040
1.0
1002
}
  0
DIMENSION
  5
131
100
AcDbEntity
  8
Cotas
 62
256
370
-1
 48
1.0
  6
BYLAYER
100
AcDbDimension
 10
2564.5280292849320176
 20
778.6220722041015279
 30
0.0
 11
2563.7315274939965093
 21
783.9023382861314531
 31
0.0
 70
4
 71
8
 72
2
 74
0
 41
1.0
 42
0.0
  1
R<>
  3
Standard
100
AcDbRadialDimension
 15
2559.6594676249706026
 25
787.3568937456759613
 35
0.0
 40
0.0
1001
ACAD
1000
DSTYLE
1002
{
1070
144
1040
1.0
1070
40
1040
1.0
1002
}
  0
DIMENSION
  5
132
100
AcDbEntity
  8
Cotas
 62
256
370
-1
 48
1.0
  6
BYLAYER
100
AcDbDimension
 10
2593.8261635064195616
 20
688.4516868406795993
 30
0.0
 11
2596.1771399912931884
 21
683.657050820336508
 31
0.0
 70
4
 71
8
 72
2
 74
0
 41
1.0
 42
0.0
  1
R<>
  3
Standard
100
AcDbRadialDimension
 15
2594.7957862610410302
 25
678.4988062670104227
 35
0.0
 40
0.0
1001
ACAD
1000
DSTYLE
1002
{
1070
144
1040
1.0
1070
40
1040
1.0
1002
}
  0
MTEXT
  5
133
100
AcDbEntity
  8
Cotas
 62
256
370
-1
 48
1.0
  6
BYLAYER
100
AcDbMText
 10
2538.0645421387803253
 20
873.1350324148099844
 30
0.0
 40
2.5
 41
0.0
 71
1
 72
1
  1
%%c252
  7
textstyle6
 50
0.0
 73
2
 44
1.0
  0
MTEXT
  5
134
100
AcDbEntity
  8
Cotas
 62
256
370
-1
 48
1.0
  6
BYLAYER
100
AcDbMText
 10
2553.6157824280148816
 20
892.0881065173143725
 30
0.0
 40
2.5
 41
0.0
 71
1
 72
1
  1
%%c268
  7
textstyle7
 50
0.0
 73
2
 44
1.0
  0
MTEXT
  5
135
100
AcDbEntity
  8
Cotas
 62
256
370
-1
 48
1.0
  6
BYLAYER
100
AcDbMText
 10
2571.1109277534033026
 20
904.2375129932787559
 30
0.0
 40
2.5
 41
0.0
 71
1
 72
1
  1
%%c284
  7
textstyle4
 50
0.0
 73
2
 44
1.0
  0
MTEXT
  5
136
100
AcDbEntity
  8
Cotas
 62
256
370
-1
 48
1.0
  6
BYLAYER
100
AcDbMText
 10
2661.2595238050585067
 20
848.3502432038424104
 30
0.0
 40
2.5
 41
0.0
 71
1
 72
1
  1
%%c152
  7
textstyle5
 50
0.0
 73
2
 44
1.0
  0
LEADER
  5
137
100
AcDbEntity
  8
Cotas
 62
256
370
-1
 48
1.0
  6
BYLAYER
100
AcDbLeader
  3
Standard
 71
1
 72
0
 73
3
 74
0
 75
0
 40
1.0
 41
10.0
 76
3
 10
2667.4685867687767313
 20
839.9640854217132073
 10
2669.0611193696863666
 20
845.4552909528192686
 10
2661.0095238050585067
 20
845.4552909528192686
1001
ACAD
1000
DSTYLE
1002
{
1070
40
1040
1.0
1002
}
  0
LEADER
  5
138
100
AcDbEntity
  8
Cotas
 62
256
370
-1
 48
1.0
  6
BYLAYER
100
AcDbLeader
  3
Standard
 71
1
 72
0
 73
3
 74
0
 75
0
 40
1.0
 41
10.0
 76
3
 10
2578.8156168633231573
 20
847.2507939664151309
 10
2545.8661377034081852
 20
870.2400801637868426
 10
2537.8145421387803253
 20
870.2400801637868426
1001
ACAD
1000
DSTYLE
1002
{
1070
40
1040
1.0
1002
}
  0
LEADER
  5
139
100
AcDbEntity
  8
Cotas
 62
256
370
-1
 48
1.0
  6
BYLAYER
100
AcDbLeader
  3
Standard
 71
1
 72
0
 73
3
 74
0
 75
0
 40
1.0
 41
10.0
 76
3
 10
2592.8193961973770456
 20
871.1389077273896646
 10
2561.44807376344761
 20
889.1931542662912307
 10
2553.3657824280148816
 20
889.1931542662912307
1001
ACAD
1000
DSTYLE
1002
{
1070
40
1040
1.0
1002
}
  0
LEADER
  5
13A
100
AcDbEntity
  8
Cotas
 62
256
370
-1
 48
1.0
  6
BYLAYER
100
AcDbLeader
  3
Standard
 71
1
 72
0
 73
3
 74
0
 75
0
 40
1.0
 41
10.0
 76
3
 10
2610.4383232782156483
 20
891.3996113043806417
 10
2578.9278712034333694
 20
901.3425607422556141
 10
2570.8609277534033026
 20
901.3425607422556141
1001
ACAD
1000
DSTYLE
1002
{
1070
40
1040
1.0
1002
}
  0
MTEXT
  5
13B
100
AcDbEntity
  8
Cotas
 62
256
370
-1
 48
1.0
  6
BYLAYER
100
AcDbMText
 10
2639.993562691945499
 20
927.7882374908998599
 30
0.0
 40
2.5
 41
0.0
 71
1
 72
1
  1
%%c5
  7
textstyle3
 50
0.0
 73
2
 44
1.0
  0
LEADER
  5
13C
100
AcDbEntity
  8
Cotas
 62
256
370
-1
 48
1.0
  6
BYLAYER
100
AcDbLeader
  3
Standard
 71
1
 72
0
 73
3
 74
0
 75
0
 40
1.0
 41
10.0
 76
3
 10
2666.7282633022687151
 20
908.5447981580551868
 10
2643.9531094100366317
 20
924.9376235754838262
 10
2639.743562691945499
 20
924.9376235754838262
1001
ACAD
1000
DSTYLE
1002
{
1070
40
1040
1.0
1002
}
  0
DIMENSION
  5
13D
100
AcDbEntity
  8
Cotas
 62
256
370
-1
 48
1.0
  6
BYLAYER
100
AcDbDimension
 10
2673.5798411482592201
 20
914.2101906709530112
 30
0.0
 11
2661.7776501710272896
 21
881.7839374609161496
 31
0.0
 70
2
 71
8
 72
2
 74
0
 75
0
 41
1.0
 42
0.0
  1

  3
Standard
100
AcDb2LineAngularDimension
 13
2668.3352323264853112
 23
907.9599092658525024
 33
0.0
 14
2673.5798411482592201
 24
914.2101906709530112
 34
0.0
 15
2673.5798411482592201
 25
959.947598208830982
 35
0.0
 16
2658.3774880669743652
 26
881.1562943490075668
 36
0.0
  0
DIMENSION
  5
13E
100
AcDbEntity
  8
Cotas
 62
256
370
-1
 48
1.0
  6
BYLAYER
100
AcDbDimension
 10
2683.5721904372312565
 20
934.5702981259192939
 30
0.0
 11
2673.5798411482587653
 21
936.4452981259192939
 31
0.0
 70
0
 71
8
 72
2
 74
0
 75
0
 41
1.0
 42
0.0
  1
20
  3
Standard
100
AcDbAlignedDimension
 13
2683.5721904372312565
 23
867.5398672150323591
 33
0.0
 14
2663.5874918592862741
 24
867.5398672150322454
 34
0.0
 50
0.0
100
AcDbRotatedDimension
1001
ACAD
1000
DSTYLE
1002
{
1070
144
1040
1.0
1070
40
1040
1.0
1002
}
  0
DIMENSION
  5
13F
100
AcDbEntity
  8
Cotas
 62
256
370
-1
 48
1.0
  6
BYLAYER
100
AcDbDimension
 10
2804.6054571434397076
 20
837.2327074249205907
 30
0.0
 11
2800.0659768452155731
 21
837.2576395537713552
 31
0.0
 70
131
 71
8
 72
2
 74
0
 75
0
 41
1.0
 42
0.0
  1
\U+00f8<>
  3
Standard
100
AcDbDiametricDimension
 15
2542.5542251530787325
 25
691.1876739169854318
 35
0.0
 40
0.0
1001
ACAD
1000
DSTYLE
1002
{
1070
279
1070
2
1070
144
1040
1.0
1070
40
1040
1.0
1002
}
  0
MTEXT
  5
140
100
AcDbEntity
  8
Cotas
 62
256
370
-1
 48
1.0
  6
BYLAYER
100
AcDbMText
 10
2733.3128128775424557
 20
825.0876215847217736
 30
0.0
 40
2.5
 41
0.0
 71
1
 72
1
  1
R81
  7
textstyle2
 50
0.0
 73
2
 44
1.0
  0
MTEXT
  5
141
100
AcDbEntity
  8
Cotas
 62
256
370
-1
 48
1.0
  6
BYLAYER
100
AcDbMText
 10
2708.8452581690035004
 20
814.7943744314741252
 30
0.0
 40
2.5
 41
0.0
 71
1
 72
1
  1
R55
  7
textstyle1
 50
0.0
 73
2
 44
1.0
  0
LEADER
  5
142
100
AcDbEntity
  8
Cotas
 62
256
370
-1
 48
1.0
  6
BYLAYER
100
AcDbLeader
  3
Standard
 71
1
 72
0
 73
3
 74
0
 75
0
 40
1.0
 41
10.0
 76
3
 10
2705.9080300243449528
 20
808.7061253615753458
 10
2708.5952581690035004
 20
812.0017414164673255
 10
2715.0873188117425343
 20
812.0017414164673255
1001
ACAD
1000
DSTYLE
1002
{
1070
40
1040
1.0
1002
}
  0
LEADER
  5
143
100
AcDbEntity
  8
Cotas
 62
256
370
-1
 48
1.0
  6
BYLAYER
100
AcDbLeader
  3
Standard
 71
1
 72
0
 73
3
 74
0
 75
0
 40
1.0
 41
10.0
 76
3
 10
2736.518418312481117
 20
815.1977921496606996
 10
2739.0535092638015158
 20
822.2847566461133511
 10
2733.0628128775424557
 20
822.2847566461133511
1001
ACAD
1000
DSTYLE
1002
{
1070
40
1040
1.0
1002
}
  0
DIMENSION
  5
144
100
AcDbEntity
  8
Cotas
 62
256
370
-1
 48
1.0
  6
BYLAYER
100
AcDbDimension
 10
2709.7921766995536927
 20
831.0283525277451417
 30
0.0
 11
2719.121150494554513
 21
836.0276342138101882
 31
0.0
 70
4
 71
8
 72
2
 74
0
 41
1.0
 42
0.0
  1
R<>
  3
Standard
100
AcDbRadialDimension
 15
2714.5479354745211822
 25
832.5719711575621886
 35
0.0
 40
0.0
1001
ACAD
1000
DSTYLE
1002
{
1070
144
1040
1.0
1070
40
1040
1.0
1002
}
  0
DIMENSION
  5
145
100
AcDbEntity
  8
Cotas
 62
256
370
-1
 48
1.0
  6
BYLAYER
100
AcDbDimension
 10
2725.93746229766748
 20
819.2981159139227429
 30
0.0
 11
2725.1384844204767433
 21
829.8519874213935736
 31
0.0
 70
4
 71
8
 72
2
 74
0
 41
1.0
 42
0.0
  1
R<>
  3
Standard
100
AcDbRadialDimension
 15
2726.449226262403954
 25
824.2718567238562173
 35
0.0
 40
0.0
1001
ACAD
1000
DSTYLE
1002
{
1070
144
1040
1.0
1070
40
1040
1.0
1002
}
  0
DIMENSION
  5
146
100
AcDbEntity
  8
Cotas
 62
256
370
-1
 48
1.0
  6
BYLAYER
100
AcDbDimension
 10
2768.7179694410774573
 20
755.9043767470059265
 30
0.0
 11
2758.4546477380285978
 21
753.3184925531246563
 31
0.0
 70
4
 71
8
 72
2
 74
0
 41
1.0
 42
0.0
  1
R<>
  3
Standard
100
AcDbRadialDimension
 15
2764.1625897208991773
 25
753.8431839843108264
 35
0.0
 40
0.0
1001
ACAD
1000
DSTYLE
1002
{
1070
144
1040
1.0
1070
40
1040
1.0
1002
}
  0
DIMENSION
  5
147
100
AcDbEntity
  8
Cotas
 62
256
370
-1
 48
1.0
  6
BYLAYER
100
AcDbDimension
 10
2755.4302386829549505
 20
715.0089465463142915
 30
0.0
 11
2755.9079993116797596
 21
725.5822295854693493
 31
0.0
 70
4
 71
8
 72
2
 74
0
 41
1.0
 42
0.0
  1
R<>
  3
Standard
100
AcDbRadialDimension
 15
2754.7675047108559738
 25
719.9648302901308625
 35
0.0
 40
0.0
1001
ACAD
1000
DSTYLE
1002
{
1070
144
1040
1.0
1070
40
1040
1.0
1002
}
  0
DIMENSION
  5
148
100
AcDbEntity
  8
Cotas
 62
256
370
-1
 48
1.0
  6
BYLAYER
100
AcDbDimension
 10
2726.1079556145864444
 20
725.9244597701015209
 30
0.0
 11
2721.0622470172634166
 21
727.672730272884678
 31
0.0
 70
4
 71
8
 72
2
 74
0
 41
1.0
 42
0.0
  1
R<>
  3
Standard
100
AcDbRadialDimension
 15
2716.1111380174506849
 25
725.6721941767417547
 35
0.0
 40
0.0
1001
ACAD
1000
DSTYLE
1002
{
1070
144
1040
1.0
1070
40
1040
1.0
1002
}
  0
DIMENSION
  5
149
100
AcDbEntity
  8
Cotas
 62
256
370
-1
 48
1.0
  6
BYLAYER
100
AcDbDimension
 10
2738.5797664307492596
 20
764.3087465977706643
 30
0.0
 11
2736.2330900663928333
 21
769.1054887256080974
 31
0.0
 70
4
 71
8
 72
2
 74
0
 41
1.0
 42
0.0
  1
R<>
  3
Standard
100
AcDbRadialDimension
 15
2731.3110240091900778
 25
771.1764524453610647
 35
0.0
 40
0.0
1001
ACAD
1000
DSTYLE
1002
{
1070
144
1040
1.0
1070
40
1040
1.0
1002
}
  0
DIMENSION
  5
14A
100
AcDbEntity
  8
Cotas
 62
256
370
-1
 48
1.0
  6
BYLAYER
100
AcDbDimension
 10
2628.9081619740313727
 20
825.6954822434490779
 30
0.0
 11
2639.4918281794348331
 21
825.6028588282869123
 31
0.0
 70
4
 71
8
 72
2
 74
0
 41
1.0
 42
0.0
  1
R<>
  3
Standard
100
AcDbRadialDimension
 15
2633.8211386454026979
 25
824.766687203324409
 35
0.0
 40
0.0
1001
ACAD
1000
DSTYLE
1002
{
1070
144
1040
1.0
1070
40
1040
1.0
1002
}
  0
LINE
  5
14B
100
AcDbEntity
  8
Ejes de revoluci\U+00f3n
 62
256
370
-1
 48
1.0
  6
BYLAYER
100
AcDbLine
 10
2673.5798411482592201
 20
913.5851906709523291
 30
0.0
 11
2673.5798411482592201
 21
614.2101906709530112
 31
0.0
  0
LINE
  5
14C
100
AcDbEntity
  8
Ejes de revoluci\U+00f3n
 62
256
370
-1
 48
1.0
  6
BYLAYER
100
AcDbLine
 10
2523.5798411482592201
 20
764.2101906709530112
 30
0.0
 11
2823.5798411482592201
 21
764.2101906709530112
 31
0.0
  0
ENDSEC
  0
SECTION
  2
OBJECTS
  0
DICTIONARY
  5
C
100
AcDbDictionary
280
0
281
1
  3
ACAD_GROUP
350
D
  3
ACAD_LAYOUT
350
1A
  3
ACAD_MLINESTYLE
350
17
  3
ACAD_PLOTSETTINGS
350
19
  3
ACAD_PLOTSTYLENAME
350
E
  3
AcDbVariableDictionary
350
14D
  3
QCAD_OBJECTS
350
14E
  0
DICTIONARY
  5
D
100
AcDbDictionary
280
0
281
1
  0
ACDBDICTIONARYWDFLT
  5
E
100
AcDbDictionary
281
1
  3
Normal
350
F
100
AcDbDictionaryWithDefault
340
F
  0
ACDBPLACEHOLDER
  5
F
  0
DICTIONARY
  5
17
100
AcDbDictionary
280
0
281
1
  3
Standard
350
18
  0
MLINESTYLE
  5
18
100
AcDbMlineStyle
  2
STANDARD
 70
0
  3

 62
256
 51
90.0
 52
90.0
 71
2
 49
0.5
 62
256
  6
BYLAYER
 49
-0.5
 62
256
  6
BYLAYER
  0
DICTIONARY
  5
19
100
AcDbDictionary
280
0
281
1
  0
DICTIONARY
  5
1A
100
AcDbDictionary
281
1
  3
Layout1
350
1E
  3
Layout2
350
26
  3
Model
350
22
  0
LAYOUT
  5
1E
100
AcDbPlotSettings
  1

  2
none_device
  4

  6

 40
0.0
 41
0.0
 42
0.0
 43
0.0
 44
0.0
 45
0.0
 46
0.0
 47
0.0
 48
0.0
 49
0.0
140
0.0
141
0.0
142
1.0
143
1.0
 70
688
 72
0
 73
0
 74
5
  7

 75
16
147
1.0
148
0.0
149
0.0
100
AcDbLayout
  1
Layout1
 70
1
 71
1
 10
0.0
 20
0.0
 11
420.0
 21
297.0
 12
0.0
 22
0.0
 32
0.0
 14
100000000000000000000.0
 24
100000000000000000000.0
 34
100000000000000000000.0
 15
-100000000000000000000.0
 25
-100000000000000000000.0
 35
-100000000000000000000.0
146
0.0
 13
0.0
 23
0.0
 33
0.0
 16
1.0
 26
0.0
 36
0.0
 17
0.0
 27
1.0
 37
0.0
 76
0
330
1B
  0
LAYOUT
  5
22
100
AcDbPlotSettings
  1

  2
none_device
  4

  6

 40
0.0
 41
0.0
 42
0.0
 43
0.0
 44
0.0
 45
0.0
 46
0.0
 47
0.0
 48
0.0
 49
0.0
140
0.0
141
0.0
142
1.0
143
1.0
 70
1712
 72
0
 73
0
 74
0
  7

 75
0
147
1.0
148
0.0
149
0.0
100
AcDbLayout
  1
Model
 70
1
 71
0
 10
0.0
 20
0.0
 11
12.0
 21
9.0
 12
0.0
 22
0.0
 32
0.0
 14
0.0
 24
0.0
 34
0.0
 15
0.0
 25
0.0
 35
0.0
146
0.0
 13
0.0
 23
0.0
 33
0.0
 16
1.0
 26
0.0
 36
0.0
 17
0.0
 27
1.0
 37
0.0
 76
0
330
1F
  0
LAYOUT
  5
26
100
AcDbPlotSettings
  1

  2
none_device
  4

  6

 40
0.0
 41
0.0
 42
0.0
 43
0.0
 44
0.0
 45
0.0
 46
0.0
 47
0.0
 48
0.0
 49
0.0
140
0.0
141
0.0
142
1.0
143
1.0
 70
688
 72
0
 73
0
 74
5
  7

 75
16
147
1.0
148
0.0
149
0.0
100
AcDbLayout
  1
Layout2
 70
1
 71
2
 10
0.0
 20
0.0
 11
12.0
 21
9.0
 12
0.0
 22
0.0
 32
0.0
 14
0.0
 24
0.0
 34
0.0
 15
0.0
 25
0.0
 35
0.0
146
0.0
 13
0.0
 23
0.0
 33
0.0
 16
1.0
 26
0.0
 36
0.0
 17
0.0
 27
1.0
 37
0.0
 76
0
330
23
  0
DICTIONARY
  5
14D
100
AcDbDictionary
281
1
  3
DIMASSOC
350
150
  3
HIDETEXT
350
14F
  0
DICTIONARYVAR
  5
14F
100
DictionaryVariables
280
0
  1
2
  0
DICTIONARYVAR
  5
150
100
DictionaryVariables
280
0
  1
1
  0
DICTIONARY
  5
14E
100
AcDbDictionary
281
1
  3
ColorSettings/BackgroundColor
350
151
  3
ColorSettings/ColorMode
350
152
  3
Grid/DisplayGrid00
350
153
  3
Grid/DisplayGrid01
350
154
  3
Grid/DisplayGrid02
350
155
  3
Grid/DisplayGrid03
350
156
  3
Grid/GridSpacingX00
350
157
  3
Grid/GridSpacingX01
350
158
  3
Grid/GridSpacingX02
350
159
  3
Grid/GridSpacingX03
350
15A
  3
Grid/GridSpacingY00
350
15B
  3
Grid/GridSpacingY01
350
15C
  3
Grid/GridSpacingY02
350
15D
  3
Grid/GridSpacingY03
350
15E
  3
Grid/IsometricGrid00
350
15F
  3
Grid/IsometricGrid01
350
160
  3
Grid/IsometricGrid02
350
161
  3
Grid/IsometricGrid03
350
162
  3
Grid/IsometricProjection00
350
163
  3
Grid/IsometricProjection01
350
164
  3
Grid/IsometricProjection02
350
165
  3
Grid/IsometricProjection03
350
166
  3
Grid/MetaGridSpacingX00
350
167
  3
Grid/MetaGridSpacingX01
350
168
  3
Grid/MetaGridSpacingX02
350
169
  3
Grid/MetaGridSpacingX03
350
16A
  3
Grid/MetaGridSpacingY00
350
16B
  3
Grid/MetaGridSpacingY01
350
16C
  3
Grid/MetaGridSpacingY02
350
16D
  3
Grid/MetaGridSpacingY03
350
16E
  3
MultiPageSettings/Columns
350
16F
  3
MultiPageSettings/GlueMarginsBottom
350
170
  3
MultiPageSettings/GlueMarginsLeft
350
171
  3
MultiPageSettings/GlueMarginsRight
350
172
  3
MultiPageSettings/GlueMarginsTop
350
173
  3
MultiPageSettings/PrintCropMarks
350
174
  3
MultiPageSettings/Rows
350
175
  3
PageSettings/OffsetX
350
176
  3
PageSettings/OffsetY
350
177
  3
PageSettings/PageOrientation
350
178
  3
PageSettings/PaperHeight
350
179
  3
PageSettings/PaperWidth
350
17A
  3
PageSettings/Scale
350
17B
  3
PageSettings/ShowPaperBorders
350
17C
  3
PageTagSettings/EnablePageTags
350
17D
  3
PageTagSettings/TagAlignment
350
17E
  3
PageTagSettings/TagFont
350
17F
  3
PageTagSettings/TagPosition
350
180
  3
QCADVersion
350
181
  3
UnitSettings/PaperUnit
350
182
  3
ViewportCenter
350
183
  3
ViewportHeight
350
184
  3
ViewportWidth
350
185
  0
XRECORD
  5
151
330
14E
100
AcDbXrecord
280
1
1000
Blanca
  0
XRECORD
  5
152
330
14E
100
AcDbXrecord
280
1
1000
FullColor
  0
XRECORD
  5
153
330
14E
100
AcDbXrecord
280
1
290
0
  0
XRECORD
  5
154
330
14E
100
AcDbXrecord
280
1
290
1
  0
XRECORD
  5
155
330
14E
100
AcDbXrecord
280
1
290
1
  0
XRECORD
  5
156
330
14E
100
AcDbXrecord
280
1
290
1
  0
XRECORD
  5
157
330
14E
100
AcDbXrecord
280
1
1000
auto
  0
XRECORD
  5
158
330
14E
100
AcDbXrecord
280
1
1000
auto
  0
XRECORD
  5
159
330
14E
100
AcDbXrecord
280
1
1000
auto
  0
XRECORD
  5
15A
330
14E
100
AcDbXrecord
280
1
1000
auto
  0
XRECORD
  5
15B
330
14E
100
AcDbXrecord
280
1
1000
auto
  0
XRECORD
  5
15C
330
14E
100
AcDbXrecord
280
1
1000
auto
  0
XRECORD
  5
15D
330
14E
100
AcDbXrecord
280
1
1000
auto
  0
XRECORD
  5
15E
330
14E
100
AcDbXrecord
280
1
1000
auto
  0
XRECORD
  5
15F
330
14E
100
AcDbXrecord
280
1
290
0
  0
XRECORD
  5
160
330
14E
100
AcDbXrecord
280
1
290
0
  0
XRECORD
  5
161
330
14E
100
AcDbXrecord
280
1
290
0
  0
XRECORD
  5
162
330
14E
100
AcDbXrecord
280
1
290
0
  0
XRECORD
  5
163
330
14E
100
AcDbXrecord
280
1
 90
65537
  0
XRECORD
  5
164
330
14E
100
AcDbXrecord
280
1
 90
65537
  0
XRECORD
  5
165
330
14E
100
AcDbXrecord
280
1
 90
65537
  0
XRECORD
  5
166
330
14E
100
AcDbXrecord
280
1
 90
65537
  0
XRECORD
  5
167
330
14E
100
AcDbXrecord
280
1
1000
auto
  0
XRECORD
  5
168
330
14E
100
AcDbXrecord
280
1
1000
auto
  0
XRECORD
  5
169
330
14E
100
AcDbXrecord
280
1
1000
auto
  0
XRECORD
  5
16A
330
14E
100
AcDbXrecord
280
1
1000
auto
  0
XRECORD
  5
16B
330
14E
100
AcDbXrecord
280
1
1000
1
  0
XRECORD
  5
16C
330
14E
100
AcDbXrecord
280
1
1000
auto
  0
XRECORD
  5
16D
330
14E
100
AcDbXrecord
280
1
1000
auto
  0
XRECORD
  5
16E
330
14E
100
AcDbXrecord
280
1
1000
auto
  0
XRECORD
  5
16F
330
14E
100
AcDbXrecord
280
1
 90
1
  0
XRECORD
  5
170
330
14E
100
AcDbXrecord
280
1
 40
10.0
  0
XRECORD
  5
171
330
14E
100
AcDbXrecord
280
1
 40
10.0
  0
XRECORD
  5
172
330
14E
100
AcDbXrecord
280
1
 40
10.0
  0
XRECORD
  5
173
330
14E
100
AcDbXrecord
280
1
 40
10.0
  0
XRECORD
  5
174
330
14E
100
AcDbXrecord
280
1
290
0
  0
XRECORD
  5
175
330
14E
100
AcDbXrecord
280
1
 90
1
  0
XRECORD
  5
176
330
14E
100
AcDbXrecord
280
1
 40
793.1665914866936191
  0
XRECORD
  5
177
330
14E
100
AcDbXrecord
280
1
 40
306.6308471493692309
  0
XRECORD
  5
178
330
14E
100
AcDbXrecord
280
1
1000
Portrait
  0
XRECORD
  5
179
330
14E
100
AcDbXrecord
280
1
 40
279.3999999999999773
  0
XRECORD
  5
17A
330
14E
100
AcDbXrecord
280
1
 40
215.9000000000000057
  0
XRECORD
  5
17B
330
14E
100
AcDbXrecord
280
1
 90
1
  0
XRECORD
  5
17C
330
14E
100
AcDbXrecord
280
1
290
1
  0
XRECORD
  5
17D
330
14E
100
AcDbXrecord
280
1
290
0
  0
XRECORD
  5
17E
330
14E
100
AcDbXrecord
280
1
1000
Inside
  0
XRECORD
  5
17F
330
14E
100
AcDbXrecord
280
1
1000
Arial,10,-1,5,50,0,0,0,0,0
  0
XRECORD
  5
180
330
14E
100
AcDbXrecord
280
1
1000
TopLeft
  0
XRECORD
  5
181
330
14E
100
AcDbXrecord
280
1
1000
3.28.1
  0
XRECORD
  5
182
330
14E
100
AcDbXrecord
280
1
 90
4
  0
XRECORD
  5
184
330
14E
100
AcDbXrecord
280
1
 40
142.293848646494439
  0
XRECORD
  5
185
330
14E
100
AcDbXrecord
280
1
 40
265.0514516796383759
  0
IMAGEDEF
  5
68
100
AcDbRasterImageDef
 90
0
  1
C:/Users/iamth/Documents/Estudio aut\U+00f3nomo/CAD/QCad/1. StudyCadCam/2D CAD EXERCISES 58a.png
 10
200.0
 20
141.0
 11
1.0
 21
1.0
280
1
281
0
  0
ENDSEC
  0
EOF
