999
dxflib 3.26.4.0
  0
SECTION
  2
HEADER
  9
$ACADVER
  1
AC1015
  9
$HANDSEED
  5
FFFF
  9
$DIMADEC
 70
0
  9
$DIMASZ
 40
2.5
  9
$DIMATFIT
 70
0
  9
$DIMAUNIT
 70
0
  9
$DIMAZIN
 70
2
  9
$DIMBLK
  1
0
  9
$DIMBLK1
  1
0
  9
$DIMBLK2
  1
0
  9
$DIMDEC
 70
4
  9
$DIMDLI
 40
5.0
  9
$DIMDSEP
 70
46
  9
$DIMEXE
 40
1.25
  9
$DIMEXO
 40
0.625
  9
$DIMGAP
 40
0.625
  9
$DIMLFAC
 40
1.0
  9
$DIMLUNIT
 70
2
  9
$DIMSCALE
 40
1.0
  9
$DIMTAD
 70
1
  9
$DIMTIH
 70
0
  9
$DIMTSZ
 40
0.0
  9
$DIMTXT
 40
2.5
  9
$DIMZIN
 70
8
  9
$DWGCODEPAGE
  3
ANSI_1252
  9
$INSUNITS
 70
4
  9
$LTSCALE
 40
1.0
  9
$MAXACTVP
 70
64
  9
$MEASUREMENT
 70
1
  9
$MIRRTEXT
 70
0
  9
$PDMODE
 70
0
  9
$PDSIZE
 40
0.0
  0
ENDSEC
  0
SECTION
  2
TABLES
  0
TABLE
  2
VPORT
  5
8
100
AcDbSymbolTable
 70
1
  0
VPORT
  5
30
100
AcDbSymbolTableRecord
100
AcDbViewportTableRecord
  2
*Active
 70
0
 10
0.0
 20
0.0
 11
1.0
 21
1.0
 12
286.3055555555554861
 22
148.5
 13
0.0
 23
0.0
 14
10.0
 24
10.0
 15
10.0
 25
10.0
 16
0.0
 26
0.0
 36
1.0
 17
0.0
 27
0.0
 37
0.0
 40
297.0
 41
1.92798353909465
 42
50.0
 43
0.0
 44
0.0
 50
0.0
 51
0.0
 71
0
 72
100
 73
1
 74
3
 75
1
 76
1
 77
0
 78
0
281
0
 65
1
110
0.0
120
0.0
130
0.0
111
1.0
121
0.0
131
0.0
112
0.0
122
1.0
132
0.0
 79
0
146
0.0
  0
ENDTAB
  0
TABLE
  2
LTYPE
  5
5
100
AcDbSymbolTable
 70
41
  0
LTYPE
  5
16
100
AcDbSymbolTableRecord
100
AcDbLinetypeTableRecord
  2
Continuous
 70
0
  3
Solid line
 72
65
 73
0
 40
0.0
  0
LTYPE
  5
31
100
AcDbSymbolTableRecord
100
AcDbLinetypeTableRecord
  2
PHANTOM2
 70
0
  3
Phantom (.5x) ___ _ _ ___ _ _ ___ _ _ ___ _ _
 72
65
 73
6
 40
31.7500000000000036
 49
15.875
 74
0
 49
-3.1749999999999998
 74
0
 49
3.1749999999999998
 74
0
 49
-3.1749999999999998
 74
0
 49
3.1749999999999998
 74
0
 49
-3.1749999999999998
 74
0
  0
LTYPE
  5
32
100
AcDbSymbolTableRecord
100
AcDbLinetypeTableRecord
  2
ACAD_ISO06W100
 70
0
  3
ISO long-dash triple-dot ____ ... ____ ... ____
 72
65
 73
8
 40
36.0000000000000071
 49
24.0
 74
0
 49
-2.9500000000000002
 74
0
 49
0.1
 74
0
 49
-2.9000000000000004
 74
0
 49
0.1
 74
0
 49
-2.9000000000000004
 74
0
 49
0.1
 74
0
 49
-2.9500000000000002
 74
0
  0
LTYPE
  5
15
100
AcDbSymbolTableRecord
100
AcDbLinetypeTableRecord
  2
BYLAYER
 70
0
  3

 72
65
 73
0
 40
0.0
  0
LTYPE
  5
33
100
AcDbSymbolTableRecord
100
AcDbLinetypeTableRecord
  2
CENTER2
 70
0
  3
Center (.5x) ___ _ ___ _ ___ _ ___ _ ___ _ ___
 72
65
 73
4
 40
28.5750000000000028
 49
19.0500000000000007
 74
0
 49
-3.1749999999999998
 74
0
 49
3.1749999999999998
 74
0
 49
-3.1749999999999998
 74
0
  0
LTYPE
  5
34
100
AcDbSymbolTableRecord
100
AcDbLinetypeTableRecord
  2
DASHDOT
 70
0
  3
Dash dot __ . __ . __ . __ . __ . __ . __ . __
 72
65
 73
4
 40
25.4000000000000021
 49
12.6999999999999993
 74
0
 49
-6.2999999999999998
 74
0
 49
0.1
 74
0
 49
-6.2999999999999998
 74
0
  0
LTYPE
  5
35
100
AcDbSymbolTableRecord
100
AcDbLinetypeTableRecord
  2
BORDERX2
 70
0
  3
Border (2x) ____  ____  .  ____  ____  .  ___
 72
65
 73
6
 40
88.8999999999999773
 49
25.3999999999999986
 74
0
 49
-12.6999999999999993
 74
0
 49
25.3999999999999986
 74
0
 49
-12.6499999999999986
 74
0
 49
0.1
 74
0
 49
-12.6499999999999986
 74
0
  0
LTYPE
  5
36
100
AcDbSymbolTableRecord
100
AcDbLinetypeTableRecord
  2
HIDDENX2
 70
0
  3
Hidden (2x) ____ ____ ____ ____ ____ ____ ____ 
 72
65
 73
2
 40
19.0499999999999972
 49
12.6999999999999993
 74
0
 49
-6.3499999999999996
 74
0
  0
LTYPE
  5
37
100
AcDbSymbolTableRecord
100
AcDbLinetypeTableRecord
  2
ACAD_ISO02W100
 70
0
  3
ISO dash __ __ __ __ __ __ __ __ __ __ __ __ __
 72
65
 73
2
 40
15.0
 49
12.0
 74
0
 49
-3.0
 74
0
  0
LTYPE
  5
38
100
AcDbSymbolTableRecord
100
AcDbLinetypeTableRecord
  2
PHANTOM
 70
0
  3
Phantom ______  __  __  ______  __  __  ______ 
 72
65
 73
6
 40
63.5000000000000071
 49
31.75
 74
0
 49
-6.3499999999999996
 74
0
 49
6.3499999999999996
 74
0
 49
-6.3499999999999996
 74
0
 49
6.3499999999999996
 74
0
 49
-6.3499999999999996
 74
0
  0
LTYPE
  5
39
100
AcDbSymbolTableRecord
100
AcDbLinetypeTableRecord
  2
DOT
 70
0
  3
Dot . . . . . . . . . . . . . . . . . . . . . . . .
 72
65
 73
2
 40
6.3499999999999996
 49
0.1
 74
0
 49
-6.25
 74
0
  0
LTYPE
  5
3A
100
AcDbSymbolTableRecord
100
AcDbLinetypeTableRecord
  2
ACAD_ISO05W100
 70
0
  3
ISO long-dash double-dot ____ .. ____ .. ____ . 
 72
65
 73
6
 40
33.0000000000000071
 49
24.0
 74
0
 49
-2.9500000000000002
 74
0
 49
0.1
 74
0
 49
-2.9000000000000004
 74
0
 49
0.1
 74
0
 49
-2.9500000000000002
 74
0
  0
LTYPE
  5
3B
100
AcDbSymbolTableRecord
100
AcDbLinetypeTableRecord
  2
DASHDOTX2
 70
0
  3
Dash dot (2x) ____  .  ____  .  ____  .  ___
 72
65
 73
4
 40
50.7999999999999972
 49
25.3999999999999986
 74
0
 49
-12.6499999999999986
 74
0
 49
0.1
 74
0
 49
-12.6499999999999986
 74
0
  0
LTYPE
  5
3C
100
AcDbSymbolTableRecord
100
AcDbLinetypeTableRecord
  2
HIDDEN
 70
0
  3
Hidden __ __ __ __ __ __ __ __ __ __ __ __ __ __
 72
65
 73
2
 40
9.5249999999999986
 49
6.3499999999999996
 74
0
 49
-3.1749999999999998
 74
0
  0
LTYPE
  5
3D
100
AcDbSymbolTableRecord
100
AcDbLinetypeTableRecord
  2
ACAD_ISO10W100
 70
0
  3
ISO dash dot __ . __ . __ . __ . __ . __ . __ . 
 72
65
 73
4
 40
18.0
 49
12.0
 74
0
 49
-2.9500000000000002
 74
0
 49
0.1
 74
0
 49
-2.9500000000000002
 74
0
  0
LTYPE
  5
3E
100
AcDbSymbolTableRecord
100
AcDbLinetypeTableRecord
  2
DASHED2
 70
0
  3
Dashed (.5x) _ _ _ _ _ _ _ _ _ _ _ _ _ _ _ _ _ 
 72
65
 73
2
 40
9.5249999999999986
 49
6.3499999999999996
 74
0
 49
-3.1749999999999998
 74
0
  0
LTYPE
  5
3F
100
AcDbSymbolTableRecord
100
AcDbLinetypeTableRecord
  2
ACAD_ISO12W100
 70
0
  3
ISO dash double-dot __ . . __ . . __ . . __ . . 
 72
65
 73
6
 40
21.0
 49
12.0
 74
0
 49
-2.9500000000000002
 74
0
 49
0.1
 74
0
 49
-2.9000000000000004
 74
0
 49
0.1
 74
0
 49
-2.9500000000000002
 74
0
  0
LTYPE
  5
40
100
AcDbSymbolTableRecord
100
AcDbLinetypeTableRecord
  2
ACAD_ISO13W100
 70
0
  3
ISO double-dash double-dot __ __ . . __ __ . . _
 72
65
 73
8
 40
36.0000000000000071
 49
12.0
 74
0
 49
-3.0
 74
0
 49
12.0
 74
0
 49
-2.9500000000000002
 74
0
 49
0.1
 74
0
 49
-2.9000000000000004
 74
0
 49
0.1
 74
0
 49
-2.9500000000000002
 74
0
  0
LTYPE
  5
41
100
AcDbSymbolTableRecord
100
AcDbLinetypeTableRecord
  2
CENTERX2
 70
0
  3
Center (2x) ________  __  ________  __  _____
 72
65
 73
4
 40
101.6000000000000085
 49
63.5
 74
0
 49
-12.6999999999999993
 74
0
 49
12.6999999999999993
 74
0
 49
-12.6999999999999993
 74
0
  0
LTYPE
  5
42
100
AcDbSymbolTableRecord
100
AcDbLinetypeTableRecord
  2
DOT2
 70
0
  3
Dot (.5x) ........................................
 72
65
 73
2
 40
3.1749999999999998
 49
0.1
 74
0
 49
-3.0749999999999997
 74
0
  0
LTYPE
  5
43
100
AcDbSymbolTableRecord
100
AcDbLinetypeTableRecord
  2
DIVIDEX2
 70
0
  3
Divide (2x) ________  .  .  ________  .  .  _
 72
65
 73
6
 40
63.5
 49
25.3999999999999986
 74
0
 49
-12.6499999999999986
 74
0
 49
0.1
 74
0
 49
-12.5999999999999979
 74
0
 49
0.1
 74
0
 49
-12.6499999999999986
 74
0
  0
LTYPE
  5
44
100
AcDbSymbolTableRecord
100
AcDbLinetypeTableRecord
  2
ACAD_ISO14W100
 70
0
  3
ISO dash triple-dot __ . . . __ . . . __ . . . _
 72
65
 73
8
 40
24.0000000000000036
 49
12.0
 74
0
 49
-2.9500000000000002
 74
0
 49
0.1
 74
0
 49
-2.9000000000000004
 74
0
 49
0.1
 74
0
 49
-2.9000000000000004
 74
0
 49
0.1
 74
0
 49
-2.9500000000000002
 74
0
  0
LTYPE
  5
45
100
AcDbSymbolTableRecord
100
AcDbLinetypeTableRecord
  2
DASHEDX2
 70
0
  3
Dashed (2x) ____  ____  ____  ____  ____  ___
 72
65
 73
2
 40
38.0999999999999943
 49
25.3999999999999986
 74
0
 49
-12.6999999999999993
 74
0
  0
LTYPE
  5
46
100
AcDbSymbolTableRecord
100
AcDbLinetypeTableRecord
  2
DIVIDE
 70
0
  3
Divide ____ . . ____ . . ____ . . ____ . . ____
 72
65
 73
6
 40
31.7500000000000036
 49
12.6999999999999993
 74
0
 49
-6.2999999999999998
 74
0
 49
0.1
 74
0
 49
-6.25
 74
0
 49
0.1
 74
0
 49
-6.2999999999999998
 74
0
  0
LTYPE
  5
47
100
AcDbSymbolTableRecord
100
AcDbLinetypeTableRecord
  2
HIDDEN2
 70
0
  3
Hidden (.5x) _ _ _ _ _ _ _ _ _ _ _ _ _ _ _ _ _ 
 72
65
 73
2
 40
4.7624999999999993
 49
3.1749999999999998
 74
0
 49
-1.5874999999999999
 74
0
  0
LTYPE
  5
48
100
AcDbSymbolTableRecord
100
AcDbLinetypeTableRecord
  2
DIVIDE2
 70
0
  3
Divide (.5x) __..__..__..__..__..__..__..__.._
 72
65
 73
6
 40
15.8749999999999982
 49
6.3499999999999996
 74
0
 49
-3.125
 74
0
 49
0.1
 74
0
 49
-3.0750000000000002
 74
0
 49
0.1
 74
0
 49
-3.125
 74
0
  0
LTYPE
  5
49
100
AcDbSymbolTableRecord
100
AcDbLinetypeTableRecord
  2
PHANTOMX2
 70
0
  3
Phantom (2x) ____________    ____    ____   _
 72
65
 73
6
 40
127.0000000000000142
 49
63.5
 74
0
 49
-12.6999999999999993
 74
0
 49
12.6999999999999993
 74
0
 49
-12.6999999999999993
 74
0
 49
12.6999999999999993
 74
0
 49
-12.6999999999999993
 74
0
  0
LTYPE
  5
4A
100
AcDbSymbolTableRecord
100
AcDbLinetypeTableRecord
  2
DOTX2
 70
0
  3
Dot (2x) .  .  .  .  .  .  .  .  .  .  .  .  .  .
 72
65
 73
2
 40
12.6999999999999993
 49
0.1
 74
0
 49
-12.5999999999999996
 74
0
  0
LTYPE
  5
4B
100
AcDbSymbolTableRecord
100
AcDbLinetypeTableRecord
  2
ACAD_ISO03W100
 70
0
  3
ISO dash space __    __    __    __    __    __
 72
65
 73
2
 40
30.0
 49
12.0
 74
0
 49
-18.0
 74
0
  0
LTYPE
  5
4C
100
AcDbSymbolTableRecord
100
AcDbLinetypeTableRecord
  2
DASHDOT2
 70
0
  3
Dash dot (.5x) _._._._._._._._._._._._._._._.
 72
65
 73
4
 40
12.6999999999999993
 49
6.3499999999999996
 74
0
 49
-3.125
 74
0
 49
0.1
 74
0
 49
-3.125
 74
0
  0
LTYPE
  5
4D
100
AcDbSymbolTableRecord
100
AcDbLinetypeTableRecord
  2
BORDER
 70
0
  3
Border __ __ . __ __ . __ __ . __ __ . __ __ .
 72
65
 73
6
 40
44.4499999999999957
 49
12.6999999999999993
 74
0
 49
-6.3499999999999996
 74
0
 49
12.6999999999999993
 74
0
 49
-6.2999999999999998
 74
0
 49
0.1
 74
0
 49
-6.2999999999999998
 74
0
  0
LTYPE
  5
4E
100
AcDbSymbolTableRecord
100
AcDbLinetypeTableRecord
  2
ACAD_ISO11W100
 70
0
  3
ISO double-dash dot __ __ . __ __ . __ __ . __ _
 72
65
 73
6
 40
33.0
 49
12.0
 74
0
 49
-3.0
 74
0
 49
12.0
 74
0
 49
-2.9500000000000002
 74
0
 49
0.1
 74
0
 49
-2.9500000000000002
 74
0
  0
LTYPE
  5
4F
100
AcDbSymbolTableRecord
100
AcDbLinetypeTableRecord
  2
ACAD_ISO15W100
 70
0
  3
ISO double-dash triple-dot __ __ . . . __ __ . .
 72
65
 73
10
 40
39.0000000000000071
 49
12.0
 74
0
 49
-3.0
 74
0
 49
12.0
 74
0
 49
-2.9500000000000002
 74
0
 49
0.1
 74
0
 49
-2.9000000000000004
 74
0
 49
0.1
 74
0
 49
-2.9000000000000004
 74
0
 49
0.1
 74
0
 49
-2.9500000000000002
 74
0
  0
LTYPE
  5
50
100
AcDbSymbolTableRecord
100
AcDbLinetypeTableRecord
  2
DASHED
 70
0
  3
Dashed __ __ __ __ __ __ __ __ __ __ __ __ __ _
 72
65
 73
2
 40
19.0499999999999972
 49
12.6999999999999993
 74
0
 49
-6.3499999999999996
 74
0
  0
LTYPE
  5
51
100
AcDbSymbolTableRecord
100
AcDbLinetypeTableRecord
  2
BORDER2
 70
0
  3
Border (.5x) __.__.__.__.__.__.__.__.__.__.__.
 72
65
 73
6
 40
22.2250000000000014
 49
6.3499999999999996
 74
0
 49
-3.1749999999999998
 74
0
 49
6.3499999999999996
 74
0
 49
-3.125
 74
0
 49
0.1
 74
0
 49
-3.125
 74
0
  0
LTYPE
  5
52
100
AcDbSymbolTableRecord
100
AcDbLinetypeTableRecord
  2
ACAD_ISO04W100
 70
0
  3
ISO long-dash dot ____ . ____ . ____ . ____ . _
 72
65
 73
4
 40
30.0
 49
24.0
 74
0
 49
-2.9500000000000002
 74
0
 49
0.1
 74
0
 49
-2.9500000000000002
 74
0
  0
LTYPE
  5
53
100
AcDbSymbolTableRecord
100
AcDbLinetypeTableRecord
  2
ACAD_ISO07W100
 70
0
  3
ISO dot . . . . . . . . . . . . . . . . . . . . 
 72
65
 73
2
 40
3.0
 49
0.1
 74
0
 49
-2.8999999999999999
 74
0
  0
LTYPE
  5
54
100
AcDbSymbolTableRecord
100
AcDbLinetypeTableRecord
  2
ACAD_ISO08W100
 70
0
  3
ISO long-dash short-dash ____ __ ____ __ ____ _
 72
65
 73
4
 40
36.0
 49
24.0
 74
0
 49
-3.0
 74
0
 49
6.0
 74
0
 49
-3.0
 74
0
  0
LTYPE
  5
55
100
AcDbSymbolTableRecord
100
AcDbLinetypeTableRecord
  2
ACAD_ISO09W100
 70
0
  3
ISO long-dash double-short-dash ____ __ __ ____
 72
65
 73
6
 40
45.0
 49
24.0
 74
0
 49
-3.0
 74
0
 49
6.0
 74
0
 49
-3.0
 74
0
 49
6.0
 74
0
 49
-3.0
 74
0
  0
LTYPE
  5
56
100
AcDbSymbolTableRecord
100
AcDbLinetypeTableRecord
  2
CENTER
 70
0
  3
Center ____ _ ____ _ ____ _ ____ _ ____ _ ____
 72
65
 73
4
 40
50.8000000000000043
 49
31.75
 74
0
 49
-6.3499999999999996
 74
0
 49
6.3499999999999996
 74
0
 49
-6.3499999999999996
 74
0
  0
LTYPE
  5
14
100
AcDbSymbolTableRecord
100
AcDbLinetypeTableRecord
  2
BYBLOCK
 70
0
  3

 72
65
 73
0
 40
0.0
  0
ENDTAB
  0
TABLE
  2
LAYER
  5
2
100
AcDbSymbolTable
 70
7
  0
LAYER
  5
57
100
AcDbSymbolTableRecord
100
AcDbLayerTableRecord
  2
Contornos Ocultos
 70
0
 62
252
420
10526884
  6
ACAD_ISO02W100
370
30
390
F
  0
LAYER
  5
58
100
AcDbSymbolTableRecord
100
AcDbLayerTableRecord
  2
Cotas
 70
0
 62
1
420
16711680
  6
Continuous
370
20
390
F
  0
LAYER
  5
59
100
AcDbSymbolTableRecord
100
AcDbLayerTableRecord
  2
Referencias 2
 70
1
 62
3
420
65280
  6
Continuous
370
25
390
F
  0
LAYER
  5
5A
100
AcDbSymbolTableRecord
100
AcDbLayerTableRecord
  2
Ejes de revoluci\U+00f3n
 70
0
 62
6
420
16711935
  6
ACAD_ISO04W100
370
20
390
F
  0
LAYER
  5
5B
100
AcDbSymbolTableRecord
100
AcDbLayerTableRecord
  2
Contornos Visibles
 70
0
 62
7
420
16777215
  6
Continuous
370
50
390
F
  0
LAYER
  5
10
100
AcDbSymbolTableRecord
100
AcDbLayerTableRecord
  2
0
 70
0
 62
7
420
16777215
  6
Continuous
370
25
390
F
  0
LAYER
  5
5C
100
AcDbSymbolTableRecord
100
AcDbLayerTableRecord
  2
Referencias
 70
1
 62
2
420
16776960
  6
Continuous
370
25
390
F
  0
ENDTAB
  0
TABLE
  2
STYLE
  5
3
100
AcDbSymbolTable
 70
1
  0
STYLE
  5
5D
100
AcDbSymbolTableRecord
100
AcDbTextStyleTableRecord
  2
Standard
 70
0
 40
0.0
 41
1.0
 50
0.0
 71
0
 42
2.5
  3

  4

1001
ACAD
1000
txt
1071
0
  0
ENDTAB
  0
TABLE
  2
VIEW
  5
6
100
AcDbSymbolTable
 70
0
  0
ENDTAB
  0
TABLE
  2
UCS
  5
7
100
AcDbSymbolTable
 70
0
  0
ENDTAB
  0
TABLE
  2
APPID
  5
9
100
AcDbSymbolTable
 70
1
  0
APPID
  5
12
100
AcDbSymbolTableRecord
100
AcDbRegAppTableRecord
  2
ACAD
 70
0
  0
APPID
  5
5E
100
AcDbSymbolTableRecord
100
AcDbRegAppTableRecord
  2
QCAD
 70
0
  0
ENDTAB
  0
TABLE
  2
DIMSTYLE
  5
A
100
AcDbSymbolTable
 70
1
100
AcDbDimStyleTable
 71
0
  0
DIMSTYLE
105
27
100
AcDbSymbolTableRecord
100
AcDbDimStyleTableRecord
  2
Standard
 41
2.5
 42
0.625
 43
3.75
 44
1.25
 70
0
 73
0
 74
0
 77
1
 78
8
140
2.5
141
2.5
143
0.03937007874016
147
0.625
171
3
172
1
271
2
272
2
274
3
278
44
283
0
284
8
340
5D
  0
ENDTAB
  0
TABLE
  2
BLOCK_RECORD
  5
1
100
AcDbSymbolTable
 70
1
  0
BLOCK_RECORD
  5
1F
100
AcDbSymbolTableRecord
100
AcDbBlockTableRecord
  2
*Model_Space
340
22
  0
BLOCK_RECORD
  5
1B
100
AcDbSymbolTableRecord
100
AcDbBlockTableRecord
  2
*Paper_Space
340
1E
  0
BLOCK_RECORD
  5
23
100
AcDbSymbolTableRecord
100
AcDbBlockTableRecord
  2
*Paper_Space0
340
26
  0
ENDTAB
  0
ENDSEC
  0
SECTION
  2
BLOCKS
  0
BLOCK
  5
20
100
AcDbEntity
  8
0
100
AcDbBlockBegin
  2
*Model_Space
 70
0
 10
0.0
 20
0.0
 30
0.0
  3
*Model_Space
  1

  0
ENDBLK
  5
21
100
AcDbEntity
  8
0
100
AcDbBlockEnd
  0
BLOCK
  5
1C
100
AcDbEntity
 67
1
  8
0
100
AcDbBlockBegin
  2
*Paper_Space
 70
0
 10
0.0
 20
0.0
 30
0.0
  3
*Paper_Space
  1

  0
ENDBLK
  5
1D
100
AcDbEntity
 67
1
  8
0
100
AcDbBlockEnd
  0
BLOCK
  5
24
100
AcDbEntity
  8
0
100
AcDbBlockBegin
  2
*Paper_Space0
 70
0
 10
0.0
 20
0.0
 30
0.0
  3
*Paper_Space0
  1

  0
ENDBLK
  5
25
100
AcDbEntity
  8
0
100
AcDbBlockEnd
  0
ENDSEC
  0
SECTION
  2
ENTITIES
  0
CIRCLE
  5
5F
100
AcDbEntity
  8
Ejes de revoluci\U+00f3n
 62
256
370
-1
 48
1.0
  6
BYLAYER
100
AcDbCircle
 10
411.722883463919743
 20
136.2917245245483571
 30
0.0
 40
19.0000000000000284
  0
IMAGE
  5
60
100
AcDbEntity
  8
0
 62
256
370
-1
 48
1.0
  6
BYLAYER
100
AcDbRasterImage
 90
0
 10
-60.1643454390864463
 20
43.7509655630306611
 30
0.0
 11
0.125
 21
0.0
 31
0.0
 12
0.0
 22
0.125
 32
0.0
 13
200.0
 23
141.0
340
61
 70
15
280
0
281
50
282
50
283
0
  0
CIRCLE
  5
62
100
AcDbEntity
  8
Ejes de revoluci\U+00f3n
 62
256
370
-1
 48
1.0
  6
BYLAYER
100
AcDbCircle
 10
411.722883463919743
 20
136.2917245245483571
 30
0.0
 40
6.0
  0
CIRCLE
  5
63
100
AcDbEntity
  8
Ejes de revoluci\U+00f3n
 62
256
370
-1
 48
1.0
  6
BYLAYER
100
AcDbCircle
 10
411.722883463919743
 20
136.2917245245483571
 30
0.0
 40
12.5
  0
XLINE
  5
64
100
AcDbEntity
  8
Referencias
 62
256
370
-1
 48
1.0
  6
BYLAYER
100
AcDbLine
 10
411.722883463919743
 20
136.2917245245483571
 30
0.0
 11
1.0
 21
0.0
 31
0.0
  0
ARC
  5
65
100
AcDbEntity
  8
Contornos Visibles
 62
256
370
-1
 48
1.0
  6
BYLAYER
100
AcDbCircle
 10
411.722883463919743
 20
136.2917245245483571
 30
0.0
 40
5.9999999999999893
100
AcDbArc
 50
70.5287793655092656
 51
109.4712206344907344
  0
ARC
  5
66
100
AcDbEntity
  8
Contornos Visibles
 62
256
370
-1
 48
1.0
  6
BYLAYER
100
AcDbCircle
 10
411.722883463919743
 20
136.2917245245483571
 30
0.0
 40
5.9999999999999893
100
AcDbArc
 50
310.5287793655092514
 51
349.4712206344907486
  0
ARC
  5
67
100
AcDbEntity
  8
Contornos Visibles
 62
256
370
-1
 48
1.0
  6
BYLAYER
100
AcDbCircle
 10
411.722883463919743
 20
136.2917245245483571
 30
0.0
 40
5.9999999999999893
100
AcDbArc
 50
190.528779365509223
 51
229.4712206344907202
  0
LINE
  5
68
100
AcDbEntity
  8
Contornos Visibles
 62
256
370
-1
 48
1.0
  6
BYLAYER
100
AcDbLine
 10
409.722883463919743
 20
141.9485787740407261
 30
0.0
 11
409.722883463919743
 21
139.1640058478173785
 31
0.0
  0
LINE
  5
69
100
AcDbEntity
  8
Contornos Visibles
 62
256
370
-1
 48
1.0
  6
BYLAYER
100
AcDbLine
 10
417.6218629494861148
 20
135.1953482073710404
 30
0.0
 11
415.210352056686304
 21
136.5876346704827142
 31
0.0
  0
LINE
  5
6A
100
AcDbEntity
  8
Contornos Visibles
 62
256
370
-1
 48
1.0
  6
BYLAYER
100
AcDbLine
 10
407.8239039783533713
 20
131.7312465922333047
 30
0.0
 11
410.235414871153182
 21
133.1235330553449785
 31
0.0
  0
LINE
  5
6B
100
AcDbEntity
  8
Contornos Visibles
 62
256
370
-1
 48
1.0
  6
BYLAYER
100
AcDbLine
 10
413.722883463919743
 20
141.9485787740407261
 30
0.0
 11
413.722883463919743
 21
139.1640058478173785
 31
0.0
  0
LINE
  5
6C
100
AcDbEntity
  8
Contornos Visibles
 62
256
370
-1
 48
1.0
  6
BYLAYER
100
AcDbLine
 10
415.6218629494860579
 20
131.7312465922333047
 30
0.0
 11
413.210352056686304
 21
133.1235330553449785
 31
0.0
  0
LINE
  5
6D
100
AcDbEntity
  8
Contornos Visibles
 62
256
370
-1
 48
1.0
  6
BYLAYER
100
AcDbLine
 10
405.8239039783533713
 20
135.1953482073710688
 30
0.0
 11
408.235414871153182
 21
136.5876346704827142
 31
0.0
  0
ARC
  5
6E
100
AcDbEntity
  8
Contornos Visibles
 62
256
370
-1
 48
1.0
  6
BYLAYER
100
AcDbCircle
 10
411.722883463919743
 20
136.2917245245483571
 30
0.0
 40
3.5000000000000098
100
AcDbArc
 50
4.8499045790462105
 51
55.1500954209535763
  0
ARC
  5
6F
100
AcDbEntity
  8
Contornos Visibles
 62
256
370
-1
 48
1.0
  6
BYLAYER
100
AcDbCircle
 10
411.722883463919743
 20
136.2917245245483571
 30
0.0
 40
3.5000000000000058
100
AcDbArc
 50
124.8499045790464379
 51
175.1500954209537895
  0
ARC
  5
70
100
AcDbEntity
  8
Contornos Visibles
 62
256
370
-1
 48
1.0
  6
BYLAYER
100
AcDbCircle
 10
411.722883463919743
 20
136.2917245245483571
 30
0.0
 40
3.4999999999999996
100
AcDbArc
 50
244.8499045790462958
 51
295.1500954209537326
  0
CIRCLE
  5
71
100
AcDbEntity
  8
Contornos Visibles
 62
256
370
-1
 48
1.0
  6
BYLAYER
100
AcDbCircle
 10
411.722883463919743
 20
148.7917245245483571
 30
0.0
 40
3.0
  0
CIRCLE
  5
72
100
AcDbEntity
  8
Contornos Visibles
 62
256
370
-1
 48
1.0
  6
BYLAYER
100
AcDbCircle
 10
422.5482010112252169
 20
142.5417245245483571
 30
0.0
 40
3.0
  0
CIRCLE
  5
73
100
AcDbEntity
  8
Contornos Visibles
 62
256
370
-1
 48
1.0
  6
BYLAYER
100
AcDbCircle
 10
422.5482010112252169
 20
130.0417245245483571
 30
0.0
 40
3.0
  0
CIRCLE
  5
74
100
AcDbEntity
  8
Contornos Visibles
 62
256
370
-1
 48
1.0
  6
BYLAYER
100
AcDbCircle
 10
411.7228834639196862
 20
123.7917245245483571
 30
0.0
 40
3.0
  0
CIRCLE
  5
75
100
AcDbEntity
  8
Contornos Visibles
 62
256
370
-1
 48
1.0
  6
BYLAYER
100
AcDbCircle
 10
400.8975659166142691
 20
130.0417245245483855
 30
0.0
 40
3.0
  0
CIRCLE
  5
76
100
AcDbEntity
  8
Contornos Visibles
 62
256
370
-1
 48
1.0
  6
BYLAYER
100
AcDbCircle
 10
400.8975659166142691
 20
142.5417245245483571
 30
0.0
 40
3.0
  0
CIRCLE
  5
77
100
AcDbEntity
  8
Referencias
 62
256
370
-1
 48
1.0
  6
BYLAYER
100
AcDbCircle
 10
411.722883463919743
 20
136.2917245245483571
 30
0.0
 40
19.0
  0
CIRCLE
  5
78
100
AcDbEntity
  8
Contornos Visibles
 62
256
370
-1
 48
1.0
  6
BYLAYER
100
AcDbCircle
 10
411.722883463919743
 20
136.2917245245483571
 30
0.0
 40
64.0
  0
CIRCLE
  5
79
100
AcDbEntity
  8
Ejes de revoluci\U+00f3n
 62
256
370
-1
 48
1.0
  6
BYLAYER
100
AcDbCircle
 10
411.722883463919743
 20
136.2917245245483571
 30
0.0
 40
46.0
  0
ARC
  5
7A
100
AcDbEntity
  8
Contornos Visibles
 62
256
370
-1
 48
1.0
  6
BYLAYER
100
AcDbCircle
 10
411.722883463919743
 20
157.7917245245483571
 30
0.0
 40
3.0
100
AcDbArc
 50
201.5520888872131025
 51
338.447911112786926
  0
ARC
  5
7B
100
AcDbEntity
  8
Contornos Visibles
 62
256
370
-1
 48
1.0
  6
BYLAYER
100
AcDbCircle
 10
430.342429645285165
 20
125.5417245245483429
 30
0.0
 40
3.0
100
AcDbArc
 50
81.5520888872130598
 51
218.4479111127868407
  0
ARC
  5
7C
100
AcDbEntity
  8
Contornos Visibles
 62
256
370
-1
 48
1.0
  6
BYLAYER
100
AcDbCircle
 10
393.1033372825543211
 20
125.5417245245483713
 30
0.0
 40
3.0
100
AcDbArc
 50
321.5520888872130172
 51
98.4479111127868975
  0
XLINE
  5
7D
100
AcDbEntity
  8
Referencias 2
 62
256
370
-1
 48
1.0
  6
BYLAYER
100
AcDbLine
 10
411.722883463919743
 20
136.2917245245483571
 30
0.0
 11
0.0
 21
1.0
 31
0.0
  0
ARC
  5
7E
100
AcDbEntity
  8
Contornos Visibles
 62
256
370
-1
 48
1.0
  6
BYLAYER
100
AcDbCircle
 10
411.722883463919743
 20
182.2917245245483571
 30
0.0
 40
12.0
100
AcDbArc
 50
338.447911112786926
 51
201.5520888872130172
  0
ARC
  5
7F
100
AcDbEntity
  8
Contornos Visibles
 62
256
370
-1
 48
1.0
  6
BYLAYER
100
AcDbCircle
 10
451.5600520380039029
 20
113.2917245245483286
 30
0.0
 40
12.0
100
AcDbArc
 50
218.4479111127868407
 51
81.5520888872130172
  0
ARC
  5
80
100
AcDbEntity
  8
Contornos Visibles
 62
256
370
-1
 48
1.0
  6
BYLAYER
100
AcDbCircle
 10
371.8857148898355263
 20
113.2917245245483997
 30
0.0
 40
12.0
100
AcDbArc
 50
98.4479111127868975
 51
321.5520888872129603
  0
LINE
  5
81
100
AcDbEntity
  8
Contornos Visibles
 62
256
370
-1
 48
1.0
  6
BYLAYER
100
AcDbLine
 10
400.561875596060986
 20
177.8835612592422422
 30
0.0
 11
408.9326314969550253
 21
156.6896837082218212
 31
0.0
  0
LINE
  5
82
100
AcDbEntity
  8
Contornos Visibles
 62
256
370
-1
 48
1.0
  6
BYLAYER
100
AcDbLine
 10
453.3229746001488252
 20
125.161522502605095
 30
0.0
 11
430.7831602858213955
 21
128.5091740190625558
 31
0.0
  0
LINE
  5
83
100
AcDbEntity
  8
Contornos Visibles
 62
256
370
-1
 48
1.0
  6
BYLAYER
100
AcDbLine
 10
381.283800195549361
 20
105.8300898117977766
 30
0.0
 11
395.4528586089827513
 21
123.6763158463606942
 31
0.0
  0
LINE
  5
84
100
AcDbEntity
  8
Contornos Visibles
 62
256
370
-1
 48
1.0
  6
BYLAYER
100
AcDbLine
 10
393.7414439531141852
 20
178.631632804081022
 30
0.0
 11
402.1140051692487418
 21
157.4331843838820362
 31
0.0
  0
LINE
  5
85
100
AcDbEntity
  8
Contornos Visibles
 62
256
370
-1
 48
1.0
  6
BYLAYER
100
AcDbLine
 10
457.3810393833009016
 20
130.6941537977528469
 30
0.0
 11
434.8363639225271982
 21
134.0425272999394792
 31
0.0
  0
LINE
  5
86
100
AcDbEntity
  8
Contornos Visibles
 62
256
370
-1
 48
1.0
  6
BYLAYER
100
AcDbLine
 10
384.0461670553440854
 20
99.5493869718112023
 30
0.0
 11
398.218281299983289
 21
117.3994618898235416
 31
0.0
  0
LINE
  5
87
100
AcDbEntity
  8
Contornos Visibles
 62
256
370
-1
 48
1.0
  6
BYLAYER
100
AcDbLine
 10
422.8838913317785
 20
177.8835612592422422
 30
0.0
 11
414.5131354308844607
 21
156.6896837082218212
 31
0.0
  0
LINE
  5
88
100
AcDbEntity
  8
Contornos Visibles
 62
256
370
-1
 48
1.0
  6
BYLAYER
100
AcDbLine
 10
442.1619667322900682
 20
105.830089811797734
 30
0.0
 11
427.9929083188566779
 21
123.67631584636068
 31
0.0
  0
LINE
  5
89
100
AcDbEntity
  8
Contornos Visibles
 62
256
370
-1
 48
1.0
  6
BYLAYER
100
AcDbLine
 10
370.122792327690604
 20
125.1615225026051093
 30
0.0
 11
392.6626066420180905
 21
128.5091740190625842
 31
0.0
  0
LINE
  5
8A
100
AcDbEntity
  8
Contornos Visibles
 62
256
370
-1
 48
1.0
  6
BYLAYER
100
AcDbLine
 10
366.0647275445386413
 20
130.6941537977526195
 30
0.0
 11
388.6094030053122879
 21
134.0425272999392234
 31
0.0
  0
LINE
  5
8B
100
AcDbEntity
  8
Contornos Visibles
 62
256
370
-1
 48
1.0
  6
BYLAYER
100
AcDbLine
 10
429.7043229747250734
 20
178.6316328040811072
 30
0.0
 11
421.3317617585905168
 21
157.4331843838821783
 31
0.0
  0
LINE
  5
8C
100
AcDbEntity
  8
Contornos Visibles
 62
256
370
-1
 48
1.0
  6
BYLAYER
100
AcDbLine
 10
439.3995998724954575
 20
99.5493869718113018
 30
0.0
 11
425.2274856278564243
 21
117.3994618898236553
 31
0.0
  0
LINE
  5
8D
100
AcDbEntity
  8
Referencias 2
 62
256
370
-1
 48
1.0
  6
BYLAYER
100
AcDbLine
 10
411.722883463919743
 20
136.2917245245483571
 30
0.0
 11
437.6047879741718134
 21
232.8843071534551825
 31
0.0
  0
CIRCLE
  5
8E
100
AcDbEntity
  8
Ejes de revoluci\U+00f3n
 62
256
370
-1
 48
1.0
  6
BYLAYER
100
AcDbCircle
 10
411.7228834639197999
 20
136.2917245245483571
 30
0.0
 40
57.0
  0
CIRCLE
  5
8F
100
AcDbEntity
  8
Contornos Visibles
 62
256
370
-1
 48
1.0
  6
BYLAYER
100
AcDbCircle
 10
426.4755690347634527
 20
191.3494966230252885
 30
0.0
 40
2.9999999999999942
  0
CIRCLE
  5
90
100
AcDbEntity
  8
Contornos Visibles
 62
256
370
-1
 48
1.0
  6
BYLAYER
100
AcDbCircle
 10
396.9701978930760333
 20
191.3494966230252885
 30
0.0
 40
2.9999999999999942
  0
CIRCLE
  5
91
100
AcDbEntity
  8
Contornos Visibles
 62
256
370
-1
 48
1.0
  6
BYLAYER
100
AcDbCircle
 10
466.7806555623967597
 20
121.5390389537047042
 30
0.0
 40
2.9999999999999942
  0
CIRCLE
  5
92
100
AcDbEntity
  8
Contornos Visibles
 62
256
370
-1
 48
1.0
  6
BYLAYER
100
AcDbCircle
 10
452.02796999155305
 20
95.9866379969151637
 30
0.0
 40
2.9999999999999942
  0
CIRCLE
  5
93
100
AcDbEntity
  8
Contornos Visibles
 62
256
370
-1
 48
1.0
  6
BYLAYER
100
AcDbCircle
 10
371.4177969362865497
 20
95.9866379969150785
 30
0.0
 40
2.9999999999999942
  0
CIRCLE
  5
94
100
AcDbEntity
  8
Contornos Visibles
 62
256
370
-1
 48
1.0
  6
BYLAYER
100
AcDbCircle
 10
356.6651113654428968
 20
121.5390389537047042
 30
0.0
 40
2.9999999999999942
  0
LINE
  5
95
100
AcDbEntity
  8
Referencias 2
 62
256
370
-1
 48
1.0
  6
BYLAYER
100
AcDbLine
 10
411.722883463919743
 20
136.291724524548215
 30
0.0
 11
350.1567359313539214
 21
215.0927998852204155
 31
0.0
  0
ARC
  5
96
100
AcDbEntity
  8
Contornos Visibles
 62
256
370
-1
 48
1.0
  6
BYLAYER
100
AcDbCircle
 10
383.4024555989394116
 20
172.5402191904575204
 30
0.0
 40
11.9999999999999929
100
AcDbArc
 50
30.5052825460734525
 51
128.0
  0
ARC
  5
97
100
AcDbEntity
  8
Contornos Visibles
 62
256
370
-1
 48
1.0
  6
BYLAYER
100
AcDbCircle
 10
457.2752146260319819
 20
142.6936871687113921
 30
0.0
 40
11.9999999999999929
100
AcDbArc
 50
270.5052825460734311
 51
8.0000000000000107
  0
ARC
  5
98
100
AcDbEntity
  8
Contornos Visibles
 62
256
370
-1
 48
1.0
  6
BYLAYER
100
AcDbCircle
 10
394.4909801667878355
 20
93.6412672144761302
 30
0.0
 40
11.9999999999999929
100
AcDbArc
 50
150.5052825460734311
 51
247.9999999999999716
  0
LINE
  5
99
100
AcDbEntity
  8
Referencias 2
 62
256
370
-1
 48
1.0
  6
BYLAYER
100
AcDbLine
 10
411.722883463919743
 20
136.2917245245481865
 30
0.0
 11
312.696076589762697
 21
150.2090346205547178
 31
0.0
  0
ARC
  5
9A
100
AcDbEntity
  8
Contornos Visibles
 62
256
370
-1
 48
1.0
  6
BYLAYER
100
AcDbCircle
 10
366.1705523018075041
 20
142.6936871687112216
 30
0.0
 40
12.0000000000000071
100
AcDbArc
 50
172.0000000000001705
 51
269.4947174539270236
  0
ARC
  5
9B
100
AcDbEntity
  8
Contornos Visibles
 62
256
370
-1
 48
1.0
  6
BYLAYER
100
AcDbCircle
 10
440.0433113288999607
 20
172.5402191904576057
 30
0.0
 40
12.0000000000000071
100
AcDbArc
 50
52.0000000000001279
 51
149.494717453927052
  0
ARC
  5
9C
100
AcDbEntity
  8
Contornos Visibles
 62
256
370
-1
 48
1.0
  6
BYLAYER
100
AcDbCircle
 10
428.9547867610517642
 20
93.6412672144761871
 30
0.0
 40
12.0000000000000071
100
AcDbArc
 50
292.0000000000001705
 51
29.4947174539269774
  0
ARC
  5
9D
100
AcDbEntity
  8
Contornos Visibles
 62
256
370
-1
 48
1.0
  6
BYLAYER
100
AcDbCircle
 10
411.722883463919743
 20
136.2917245245483571
 30
0.0
 40
19.000000000000032
100
AcDbArc
 50
126.4511656006563101
 51
173.5488343993445142
  0
ARC
  5
9E
100
AcDbEntity
  8
Contornos Visibles
 62
256
370
-1
 48
1.0
  6
BYLAYER
100
AcDbCircle
 10
411.722883463919743
 20
136.2917245245483571
 30
0.0
 40
19.000000000000032
100
AcDbArc
 50
6.4511656006563083
 51
53.5488343993444929
  0
ARC
  5
9F
100
AcDbEntity
  8
Contornos Visibles
 62
256
370
-1
 48
1.0
  6
BYLAYER
100
AcDbCircle
 10
411.722883463919743
 20
136.2917245245483571
 30
0.0
 40
19.000000000000032
100
AcDbArc
 50
246.4511656006562248
 51
293.5488343993445142
  0
ARC
  5
A0
100
AcDbEntity
  8
Contornos Visibles
 62
256
370
-1
 48
1.0
  6
BYLAYER
100
AcDbCircle
 10
397.4635852243075647
 20
155.5964496900044765
 30
0.0
 40
5.0
100
AcDbArc
 50
306.4511656006559974
 51
21.5520888872131735
  0
ARC
  5
A1
100
AcDbEntity
  8
Contornos Visibles
 62
256
370
-1
 48
1.0
  6
BYLAYER
100
AcDbCircle
 10
435.5709149900876014
 20
138.9882764574631437
 30
0.0
 40
5.0
100
AcDbArc
 50
186.4511656006558837
 51
261.5520888872131877
  0
ARC
  5
A2
100
AcDbEntity
  8
Contornos Visibles
 62
256
370
-1
 48
1.0
  6
BYLAYER
100
AcDbCircle
 10
402.134150177364063
 20
114.2904474261774226
 30
0.0
 40
5.0
100
AcDbArc
 50
66.4511656006559264
 51
141.5520888872131593
  0
ARC
  5
A3
100
AcDbEntity
  8
Contornos Visibles
 62
256
370
-1
 48
1.0
  6
BYLAYER
100
AcDbCircle
 10
387.8748519377518846
 20
138.9882764574628595
 30
0.0
 40
5.0
100
AcDbArc
 50
278.4479111127870965
 51
353.548834399344571
  0
ARC
  5
A4
100
AcDbEntity
  8
Contornos Visibles
 62
256
370
-1
 48
1.0
  6
BYLAYER
100
AcDbCircle
 10
425.982181703531694
 20
155.596449690004647
 30
0.0
 40
5.0
100
AcDbArc
 50
158.4479111127871249
 51
233.5488343993445426
  0
ARC
  5
A5
100
AcDbEntity
  8
Contornos Visibles
 62
256
370
-1
 48
1.0
  6
BYLAYER
100
AcDbCircle
 10
421.3116167504756504
 20
114.2904474261775505
 30
0.0
 40
5.0
100
AcDbArc
 50
38.4479111127870539
 51
113.548834399344571
  0
ARC
  5
A6
100
AcDbEntity
  8
Contornos Visibles
 62
256
370
-1
 48
1.0
  6
BYLAYER
100
AcDbCircle
 10
411.722883463919743
 20
136.291724524548215
 30
0.0
 40
58.0000000000000711
100
AcDbArc
 50
127.9999999999999858
 51
172.0
  0
ARC
  5
A7
100
AcDbEntity
  8
Contornos Visibles
 62
256
370
-1
 48
1.0
  6
BYLAYER
100
AcDbCircle
 10
411.7228834639196862
 20
136.2917245245482434
 30
0.0
 40
58.0000000000000711
100
AcDbArc
 50
7.99999999999996
 51
52.0000000000000284
  0
ARC
  5
A8
100
AcDbEntity
  8
Contornos Visibles
 62
256
370
-1
 48
1.0
  6
BYLAYER
100
AcDbCircle
 10
411.7228834639196862
 20
136.2917245245484708
 30
0.0
 40
58.0000000000000711
100
AcDbArc
 50
247.9999999999999716
 51
291.9999999999999432
  0
LINE
  5
A9
100
AcDbEntity
  8
Ejes de revoluci\U+00f3n
 62
256
370
-1
 48
1.0
  6
BYLAYER
100
AcDbLine
 10
419.0840993960874812
 20
140.5417245245483571
 30
0.0
 11
426.0123026263629527
 21
144.5417245245483571
 31
0.0
  0
LINE
  5
AA
100
AcDbEntity
  8
Ejes de revoluci\U+00f3n
 62
256
370
-1
 48
1.0
  6
BYLAYER
100
AcDbLine
 10
397.4334643014765334
 20
128.0417245245483855
 30
0.0
 11
404.3616675317520048
 21
132.0417245245483855
 31
0.0
  0
LINE
  5
AB
100
AcDbEntity
  8
Ejes de revoluci\U+00f3n
 62
256
370
-1
 48
1.0
  6
BYLAYER
100
AcDbLine
 10
404.3616675317520048
 20
140.5417245245483571
 30
0.0
 11
397.4334643014765334
 21
144.5417245245483571
 31
0.0
  0
LINE
  5
AC
100
AcDbEntity
  8
Ejes de revoluci\U+00f3n
 62
256
370
-1
 48
1.0
  6
BYLAYER
100
AcDbLine
 10
426.0123026263629527
 20
128.0417245245483571
 30
0.0
 11
419.0840993960874812
 21
132.0417245245483571
 31
0.0
  0
LINE
  5
AD
100
AcDbEntity
  8
Ejes de revoluci\U+00f3n
 62
256
370
-1
 48
1.0
  6
BYLAYER
100
AcDbLine
 10
411.7228834639196862
 20
119.7917245245483571
 30
0.0
 11
411.7228834639196862
 21
127.7917245245483571
 31
0.0
  0
LINE
  5
AE
100
AcDbEntity
  8
Ejes de revoluci\U+00f3n
 62
256
370
-1
 48
1.0
  6
BYLAYER
100
AcDbLine
 10
411.722883463919743
 20
144.7917245245483571
 30
0.0
 11
411.722883463919743
 21
152.7917245245483571
 31
0.0
  0
LINE
  5
AF
100
AcDbEntity
  8
Ejes de revoluci\U+00f3n
 62
256
370
-1
 48
1.0
  6
BYLAYER
100
AcDbLine
 10
425.4402928543533449
 20
187.4857933178690246
 30
0.0
 11
427.5108452151735605
 21
195.2131999281815524
 31
0.0
  0
LINE
  5
B0
100
AcDbEntity
  8
Ejes de revoluci\U+00f3n
 62
256
370
-1
 48
1.0
  6
BYLAYER
100
AcDbLine
 10
449.1995428668068939
 20
98.8150651216613483
 30
0.0
 11
454.8563971162992061
 21
93.1582108721689224
 31
0.0
  0
LINE
  5
B1
100
AcDbEntity
  8
Ejes de revoluci\U+00f3n
 62
256
370
-1
 48
1.0
  6
BYLAYER
100
AcDbLine
 10
360.5288146705991608
 20
122.5743151341146842
 30
0.0
 11
352.8014080602865761
 21
120.5037627732946248
 31
0.0
  0
LINE
  5
B2
100
AcDbEntity
  8
Ejes de revoluci\U+00f3n
 62
256
370
-1
 48
1.0
  6
BYLAYER
100
AcDbLine
 10
398.0054740734861412
 20
187.4857933178690246
 30
0.0
 11
395.9349217126659255
 21
195.2131999281815524
 31
0.0
  0
LINE
  5
B3
100
AcDbEntity
  8
Ejes de revoluci\U+00f3n
 62
256
370
-1
 48
1.0
  6
BYLAYER
100
AcDbLine
 10
462.9169522572404958
 20
122.574315134114741
 30
0.0
 11
470.6443588675530236
 21
120.5037627732946248
 31
0.0
  0
LINE
  5
B4
100
AcDbEntity
  8
Ejes de revoluci\U+00f3n
 62
256
370
-1
 48
1.0
  6
BYLAYER
100
AcDbLine
 10
374.2462240610327626
 20
98.815065121661263
 30
0.0
 11
368.5893698115403936
 21
93.158210872168894
 31
0.0
  0
DIMENSION
  5
B5
100
AcDbEntity
  8
Cotas
 62
256
370
-1
 48
1.0
  6
BYLAYER
100
AcDbDimension
 10
409.722883463919743
 20
143.9269121078106366
 30
0.0
 11
407.222883463919743
 21
145.8019121078106366
 31
0.0
 70
128
 71
8
 72
2
 74
0
 75
0
 41
1.0
 42
0.0
  1

  3
Standard
100
AcDbAlignedDimension
 13
409.722883463919743
 23
141.9485787740407261
 33
0.0
 14
413.722883463919743
 24
141.9485787740407261
 34
0.0
 50
0.0
100
AcDbRotatedDimension
1001
ACAD
1000
DSTYLE
1002
{
1070
279
1070
2
1070
144
1040
1.0
1070
40
1040
1.0
1002
}
  0
DIMENSION
  5
B6
100
AcDbEntity
  8
Cotas
 62
256
370
-1
 48
1.0
  6
BYLAYER
100
AcDbDimension
 10
403.4956421279675851
 20
131.5417245245483855
 30
0.0
 11
395.1619956838536041
 21
130.5019167868279339
 31
0.0
 70
131
 71
8
 72
2
 74
0
 75
0
 41
1.0
 42
0.0
  1
\U+00f8<>
  3
Standard
100
AcDbDiametricDimension
 15
398.2994897052609531
 25
128.5417245245483855
 35
0.0
 40
0.0
1001
ACAD
1000
DSTYLE
1002
{
1070
279
1070
2
1070
144
1040
1.0
1070
40
1040
1.0
1002
}
  0
DIMENSION
  5
B7
100
AcDbEntity
  8
Cotas
 62
256
370
-1
 48
1.0
  6
BYLAYER
100
AcDbDimension
 10
411.722883463919743
 20
136.2917245245483571
 30
0.0
 11
404.240373667305164
 21
122.6890096737969884
 31
0.0
 70
132
 71
8
 72
2
 74
0
 41
1.0
 42
0.0
  1
R<>
  3
Standard
100
AcDbRadialDimension
 15
410.4521180635284736
 25
133.0305659425152101
 35
0.0
 40
0.0
1001
ACAD
1000
DSTYLE
1002
{
1070
279
1070
2
1070
144
1040
1.0
1070
40
1040
1.0
1002
}
  0
DIMENSION
  5
B8
100
AcDbEntity
  8
Cotas
 62
256
370
-1
 48
1.0
  6
BYLAYER
100
AcDbDimension
 10
417.7120301157428912
 20
136.6524493267946241
 30
0.0
 11
420.6914949827718146
 21
137.5445372830811834
 31
0.0
 70
131
 71
8
 72
2
 74
0
 75
0
 41
1.0
 42
0.0
  1
\U+00f8<>
  3
Standard
100
AcDbDiametricDimension
 15
405.7337368120965948
 25
135.93099972230209
 35
0.0
 40
0.0
1001
ACAD
1000
DSTYLE
1002
{
1070
279
1070
2
1070
144
1040
1.0
1070
40
1040
1.0
1002
}
  0
DIMENSION
  5
B9
100
AcDbEntity
  8
Cotas
 62
256
370
-1
 48
1.0
  6
BYLAYER
100
AcDbDimension
 10
415.9700816923586899
 20
117.7725099837438165
 30
0.0
 11
417.8872995666760062
 21
121.8948661800882434
 31
0.0
 70
131
 71
8
 72
2
 74
0
 75
0
 41
1.0
 42
0.0
  1
\U+00f8<>
  3
Standard
100
AcDbDiametricDimension
 15
407.4756852354807961
 25
154.8109390653528976
 35
0.0
 40
0.0
1001
ACAD
1000
DSTYLE
1002
{
1070
279
1070
2
1070
144
1040
1.0
1070
40
1040
1.0
1002
}
  0
DIMENSION
  5
BA
100
AcDbEntity
  8
Cotas
 62
256
370
-1
 48
1.0
  6
BYLAYER
100
AcDbDimension
 10
408.9186308375404906
 20
152.4990575961649313
 30
0.0
 11
410.4267878183528637
 21
160.9891321128582149
 31
0.0
 70
4
 71
8
 72
2
 74
0
 41
1.0
 42
0.0
  1
R<>
  3
Standard
100
AcDbRadialDimension
 15
410.0730466904210516
 25
155.2680509220178635
 35
0.0
 40
0.0
1001
ACAD
1000
DSTYLE
1002
{
1070
144
1040
1.0
1070
40
1040
1.0
1002
}
  0
DIMENSION
  5
BB
100
AcDbEntity
  8
Cotas
 62
256
370
-1
 48
1.0
  6
BYLAYER
100
AcDbDimension
 10
404.3261602452907937
 20
148.3484694247460709
 30
0.0
 11
395.9501358679468694
 21
154.8187696553833632
 31
0.0
 70
4
 71
8
 72
2
 74
0
 41
1.0
 42
0.0
  1
R<>
  3
Standard
100
AcDbRadialDimension
 15
399.8903547037834869
 25
150.6557685379806628
 35
0.0
 40
0.0
1001
ACAD
1000
DSTYLE
1002
{
1070
144
1040
1.0
1070
40
1040
1.0
1002
}
  0
DIMENSION
  5
BC
100
AcDbEntity
  8
Cotas
 62
256
370
-1
 48
1.0
  6
BYLAYER
100
AcDbDimension
 10
385.4118749509181043
 20
157.7917245245483571
 30
0.0
 11
383.5368749509181043
 21
147.0417245245483571
 31
0.0
 70
0
 71
8
 72
2
 74
0
 75
0
 41
1.0
 42
0.0
  1

  3
Standard
100
AcDbAlignedDimension
 13
411.722883463919743
 23
157.7917245245483571
 33
0.0
 14
411.722883463919743
 24
136.2917245245483571
 34
0.0
 50
90.0
100
AcDbRotatedDimension
1001
ACAD
1000
DSTYLE
1002
{
1070
144
1040
1.0
1070
40
1040
1.0
1002
}
  0
DIMENSION
  5
BD
100
AcDbEntity
  8
Cotas
 62
256
370
-1
 48
1.0
  6
BYLAYER
100
AcDbDimension
 10
383.4024555989394116
 20
172.5402191904575204
 30
0.0
 11
383.4383532890070683
 21
178.826262171208441
 31
0.0
 70
4
 71
8
 72
2
 74
0
 41
1.0
 42
0.0
  1
R<>
  3
Standard
100
AcDbRadialDimension
 15
387.0471050446149093
 25
183.9733522001857295
 35
0.0
 40
0.0
1001
ACAD
1000
DSTYLE
1002
{
1070
144
1040
1.0
1070
40
1040
1.0
1002
}
  0
DIMENSION
  5
BE
100
AcDbEntity
  8
Cotas
 62
256
370
-1
 48
1.0
  6
BYLAYER
100
AcDbDimension
 10
411.722883463919743
 20
182.2917245245483571
 30
0.0
 11
414.5168676634594362
 21
187.9228236439674617
 31
0.0
 70
4
 71
8
 72
2
 74
0
 41
1.0
 42
0.0
  1
R<>
  3
Standard
100
AcDbRadialDimension
 15
420.0200214328569928
 25
190.9610671480936901
 35
0.0
 40
0.0
1001
ACAD
1000
DSTYLE
1002
{
1070
144
1040
1.0
1070
40
1040
1.0
1002
}
  0
DIMENSION
  5
BF
100
AcDbEntity
  8
Cotas
 62
256
370
-1
 48
1.0
  6
BYLAYER
100
AcDbDimension
 10
423.9121391031042663
 20
133.5218785066966802
 30
0.0
 11
426.5626530282982571
 21
134.100875447236092
 31
0.0
 70
131
 71
8
 72
2
 74
0
 75
0
 41
1.0
 42
0.0
  1
\U+00f8<>
  3
Standard
100
AcDbDiametricDimension
 15
399.5336278247352197
 25
139.0615705424000339
 35
0.0
 40
0.0
1001
ACAD
1000
DSTYLE
1002
{
1070
279
1070
2
1070
144
1040
1.0
1070
40
1040
1.0
1002
}
  0
DIMENSION
  5
C0
100
AcDbEntity
  8
Cotas
 62
256
370
-1
 48
1.0
  6
BYLAYER
100
AcDbDimension
 10
429.4755315791438761
 20
191.3345055485255841
 30
0.0
 11
431.9502577079319963
 21
193.4912940921397251
 31
0.0
 70
131
 71
8
 72
2
 74
0
 75
0
 41
1.0
 42
0.0
  1
\U+00f8<>
  3
Standard
100
AcDbDiametricDimension
 15
423.4756064903830293
 25
191.3644876975249929
 35
0.0
 40
0.0
1001
ACAD
1000
DSTYLE
1002
{
1070
279
1070
2
1070
144
1040
1.0
1070
40
1040
1.0
1002
}
  0
DIMENSION
  5
C1
100
AcDbEntity
  8
Cotas
 62
256
370
-1
 48
1.0
  6
BYLAYER
100
AcDbDimension
 10
411.722883463919743
 20
136.2917245245483571
 30
0.0
 11
432.0076597575856567
 21
147.2937005159750754
 31
0.0
 70
4
 71
8
 72
2
 74
0
 41
1.0
 42
0.0
  1
R<>
  3
Standard
100
AcDbRadialDimension
 15
453.8065570612138799
 25
154.8649422467528325
 35
0.0
 40
0.0
1001
ACAD
1000
DSTYLE
1002
{
1070
144
1040
1.0
1070
40
1040
1.0
1002
}
  0
DIMENSION
  5
C2
100
AcDbEntity
  8
Cotas
 62
256
370
-1
 48
1.0
  6
BYLAYER
100
AcDbDimension
 10
509.5326548736494487
 20
198.4597097386174767
 30
0.0
 11
483.4804181639009357
 21
185.5835073707128515
 31
0.0
 70
132
 71
8
 72
2
 74
0
 41
1.0
 42
0.0
  1
R<>
  3
Standard
100
AcDbRadialDimension
 15
459.3031814541524795
 25
169.4597097386165672
 35
0.0
 40
0.0
1001
ACAD
1000
DSTYLE
1002
{
1070
279
1070
2
1070
144
1040
1.0
1070
40
1040
1.0
1002
}
  0
DIMENSION
  5
C3
100
AcDbEntity
  8
Cotas
 62
256
370
-1
 48
1.0
  6
BYLAYER
100
AcDbDimension
 10
456.3461682764631746
 20
171.7566713388131916
 30
0.0
 11
450.0405158435855242
 21
170.1260258762986837
 31
0.0
 70
131
 71
8
 72
2
 74
0
 75
0
 41
1.0
 42
0.0
  1
\U+00f8<>
  3
Standard
100
AcDbDiametricDimension
 15
367.0995986513764251
 25
100.8267777102835225
 35
0.0
 40
0.0
1001
ACAD
1000
DSTYLE
1002
{
1070
279
1070
2
1070
144
1040
1.0
1070
40
1040
1.0
1002
}
  0
DIMENSION
  5
C4
100
AcDbEntity
  8
Cotas
 62
256
370
-1
 48
1.0
  6
BYLAYER
100
AcDbDimension
 10
428.2873023504810703
 20
198.1109774070487219
 30
0.0
 11
423.0996317497834411
 21
222.7067071063365802
 31
0.0
 70
2
 71
8
 72
2
 74
0
 75
0
 41
1.0
 42
0.0
  1

  3
Standard
100
AcDb2LineAngularDimension
 13
411.722883463919743
 23
137.2917245245483571
 33
0.0
 14
411.722883463919743
 24
136.2917245245483571
 34
0.0
 15
411.722883463919743
 25
136.2917245245483571
 35
0.0
 16
427.2479816969818671
 26
220.1524072864920356
 36
0.0
  0
DIMENSION
  5
C5
100
AcDbEntity
  8
Cotas
 62
256
370
-1
 48
1.0
  6
BYLAYER
100
AcDbDimension
 10
411.722883463919743
 20
222.8273785845694306
 30
0.0
 11
383.3461501803199667
 21
218.7037419996842971
 31
0.0
 70
2
 71
8
 72
2
 74
0
 75
0
 41
1.0
 42
0.0
  1

  3
Standard
100
AcDb2LineAngularDimension
 13
372.3205490430775626
 23
186.7244127553785233
 33
0.0
 14
411.722883463919743
 24
136.291724524548215
 34
0.0
 15
411.722883463919743
 25
137.9167245245483571
 35
0.0
 16
411.722883463919743
 26
221.5773785845694306
 36
0.0
  0
DIMENSION
  5
C6
100
AcDbEntity
  8
Cotas
 62
256
370
-1
 48
1.0
  6
BYLAYER
100
AcDbDimension
 10
348.3457270644591972
 20
145.1988029859923586
 30
0.0
 11
336.2395428374736071
 21
179.8720515545579985
 31
0.0
 70
2
 71
8
 72
2
 74
0
 75
0
 41
1.0
 42
0.0
  1

  3
Standard
100
AcDb2LineAngularDimension
 13
359.2157918612116418
 23
203.4977370522268814
 33
0.0
 14
411.722883463919743
 24
136.291724524548215
 34
0.0
 15
411.722883463919743
 25
136.2917245245481865
 35
0.0
 16
359.2157918612133471
 26
203.4977370522277624
 36
0.0
  0
DIMENSION
  5
C7
100
AcDbEntity
  8
Cotas
 62
256
370
-1
 48
1.0
  6
BYLAYER
100
AcDbDimension
 10
464.3597586971648639
 20
99.8862391455592729
 30
0.0
 11
469.6084259172062048
 21
99.3934199112788264
 31
0.0
 70
131
 71
8
 72
2
 74
0
 75
0
 41
1.0
 42
0.0
  1
\U+00f8<>
  3
Standard
100
AcDbDiametricDimension
 15
359.0860082306746222
 25
172.6972099035374413
 35
0.0
 40
0.0
1001
ACAD
1000
DSTYLE
1002
{
1070
279
1070
2
1070
144
1040
1.0
1070
40
1040
1.0
1002
}
  0
ENDSEC
  0
SECTION
  2
OBJECTS
  0
DICTIONARY
  5
C
100
AcDbDictionary
280
0
281
1
  3
ACAD_GROUP
350
D
  3
ACAD_LAYOUT
350
1A
  3
ACAD_MLINESTYLE
350
17
  3
ACAD_PLOTSETTINGS
350
19
  3
ACAD_PLOTSTYLENAME
350
E
  3
AcDbVariableDictionary
350
C8
  3
QCAD_OBJECTS
350
C9
  0
DICTIONARY
  5
D
100
AcDbDictionary
280
0
281
1
  0
ACDBDICTIONARYWDFLT
  5
E
100
AcDbDictionary
281
1
  3
Normal
350
F
100
AcDbDictionaryWithDefault
340
F
  0
ACDBPLACEHOLDER
  5
F
  0
DICTIONARY
  5
17
100
AcDbDictionary
280
0
281
1
  3
Standard
350
18
  0
MLINESTYLE
  5
18
100
AcDbMlineStyle
  2
STANDARD
 70
0
  3

 62
256
 51
90.0
 52
90.0
 71
2
 49
0.5
 62
256
  6
BYLAYER
 49
-0.5
 62
256
  6
BYLAYER
  0
DICTIONARY
  5
19
100
AcDbDictionary
280
0
281
1
  0
DICTIONARY
  5
1A
100
AcDbDictionary
281
1
  3
Layout1
350
1E
  3
Layout2
350
26
  3
Model
350
22
  0
LAYOUT
  5
1E
100
AcDbPlotSettings
  1

  2
none_device
  4

  6

 40
0.0
 41
0.0
 42
0.0
 43
0.0
 44
0.0
 45
0.0
 46
0.0
 47
0.0
 48
0.0
 49
0.0
140
0.0
141
0.0
142
1.0
143
1.0
 70
688
 72
0
 73
0
 74
5
  7

 75
16
147
1.0
148
0.0
149
0.0
100
AcDbLayout
  1
Layout1
 70
1
 71
1
 10
0.0
 20
0.0
 11
420.0
 21
297.0
 12
0.0
 22
0.0
 32
0.0
 14
100000000000000000000.0
 24
100000000000000000000.0
 34
100000000000000000000.0
 15
-100000000000000000000.0
 25
-100000000000000000000.0
 35
-100000000000000000000.0
146
0.0
 13
0.0
 23
0.0
 33
0.0
 16
1.0
 26
0.0
 36
0.0
 17
0.0
 27
1.0
 37
0.0
 76
0
330
1B
  0
LAYOUT
  5
22
100
AcDbPlotSettings
  1

  2
none_device
  4

  6

 40
0.0
 41
0.0
 42
0.0
 43
0.0
 44
0.0
 45
0.0
 46
0.0
 47
0.0
 48
0.0
 49
0.0
140
0.0
141
0.0
142
1.0
143
1.0
 70
1712
 72
0
 73
0
 74
0
  7

 75
0
147
1.0
148
0.0
149
0.0
100
AcDbLayout
  1
Model
 70
1
 71
0
 10
0.0
 20
0.0
 11
12.0
 21
9.0
 12
0.0
 22
0.0
 32
0.0
 14
0.0
 24
0.0
 34
0.0
 15
0.0
 25
0.0
 35
0.0
146
0.0
 13
0.0
 23
0.0
 33
0.0
 16
1.0
 26
0.0
 36
0.0
 17
0.0
 27
1.0
 37
0.0
 76
0
330
1F
  0
LAYOUT
  5
26
100
AcDbPlotSettings
  1

  2
none_device
  4

  6

 40
0.0
 41
0.0
 42
0.0
 43
0.0
 44
0.0
 45
0.0
 46
0.0
 47
0.0
 48
0.0
 49
0.0
140
0.0
141
0.0
142
1.0
143
1.0
 70
688
 72
0
 73
0
 74
5
  7

 75
16
147
1.0
148
0.0
149
0.0
100
AcDbLayout
  1
Layout2
 70
1
 71
2
 10
0.0
 20
0.0
 11
12.0
 21
9.0
 12
0.0
 22
0.0
 32
0.0
 14
0.0
 24
0.0
 34
0.0
 15
0.0
 25
0.0
 35
0.0
146
0.0
 13
0.0
 23
0.0
 33
0.0
 16
1.0
 26
0.0
 36
0.0
 17
0.0
 27
1.0
 37
0.0
 76
0
330
23
  0
DICTIONARY
  5
C8
100
AcDbDictionary
281
1
  3
DIMASSOC
350
CB
  3
HIDETEXT
350
CA
  0
DICTIONARYVAR
  5
CA
100
DictionaryVariables
280
0
  1
2
  0
DICTIONARYVAR
  5
CB
100
DictionaryVariables
280
0
  1
1
  0
DICTIONARY
  5
C9
100
AcDbDictionary
281
1
  3
ColorSettings/BackgroundColor
350
CC
  3
ColorSettings/ColorMode
350
CD
  3
Grid/DisplayGrid00
350
CE
  3
Grid/DisplayGrid01
350
CF
  3
Grid/DisplayGrid02
350
D0
  3
Grid/DisplayGrid03
350
D1
  3
Grid/GridSpacingX00
350
D2
  3
Grid/GridSpacingX01
350
D3
  3
Grid/GridSpacingX02
350
D4
  3
Grid/GridSpacingX03
350
D5
  3
Grid/GridSpacingY00
350
D6
  3
Grid/GridSpacingY01
350
D7
  3
Grid/GridSpacingY02
350
D8
  3
Grid/GridSpacingY03
350
D9
  3
Grid/IsometricGrid00
350
DA
  3
Grid/IsometricGrid01
350
DB
  3
Grid/IsometricGrid02
350
DC
  3
Grid/IsometricGrid03
350
DD
  3
Grid/IsometricProjection00
350
DE
  3
Grid/IsometricProjection01
350
DF
  3
Grid/IsometricProjection02
350
E0
  3
Grid/IsometricProjection03
350
E1
  3
Grid/MetaGridSpacingX00
350
E2
  3
Grid/MetaGridSpacingX01
350
E3
  3
Grid/MetaGridSpacingX02
350
E4
  3
Grid/MetaGridSpacingX03
350
E5
  3
Grid/MetaGridSpacingY00
350
E6
  3
Grid/MetaGridSpacingY01
350
E7
  3
Grid/MetaGridSpacingY02
350
E8
  3
Grid/MetaGridSpacingY03
350
E9
  3
MultiPageSettings/Columns
350
EA
  3
MultiPageSettings/GlueMarginsBottom
350
EB
  3
MultiPageSettings/GlueMarginsLeft
350
EC
  3
MultiPageSettings/GlueMarginsRight
350
ED
  3
MultiPageSettings/GlueMarginsTop
350
EE
  3
MultiPageSettings/PrintCropMarks
350
EF
  3
MultiPageSettings/Rows
350
F0
  3
PageSettings/OffsetX
350
F1
  3
PageSettings/OffsetY
350
F2
  3
PageSettings/PageOrientation
350
F3
  3
PageSettings/PaperHeight
350
F4
  3
PageSettings/PaperWidth
350
F5
  3
PageSettings/Scale
350
F6
  3
PageSettings/ShowPaperBorders
350
F7
  3
PageTagSettings/EnablePageTags
350
F8
  3
PageTagSettings/TagAlignment
350
F9
  3
PageTagSettings/TagFont
350
FA
  3
PageTagSettings/TagPosition
350
FB
  3
QCADVersion
350
FC
  3
UnitSettings/PaperUnit
350
FD
  3
ViewportCenter
350
FE
  3
ViewportHeight
350
FF
  3
ViewportWidth
350
100
  0
XRECORD
  5
CC
330
C9
100
AcDbXrecord
280
1
1000
Blanca
  0
XRECORD
  5
CD
330
C9
100
AcDbXrecord
280
1
1000
FullColor
  0
XRECORD
  5
CE
330
C9
100
AcDbXrecord
280
1
290
0
  0
XRECORD
  5
CF
330
C9
100
AcDbXrecord
280
1
290
1
  0
XRECORD
  5
D0
330
C9
100
AcDbXrecord
280
1
290
1
  0
XRECORD
  5
D1
330
C9
100
AcDbXrecord
280
1
290
1
  0
XRECORD
  5
D2
330
C9
100
AcDbXrecord
280
1
1000
auto
  0
XRECORD
  5
D3
330
C9
100
AcDbXrecord
280
1
1000
auto
  0
XRECORD
  5
D4
330
C9
100
AcDbXrecord
280
1
1000
auto
  0
XRECORD
  5
D5
330
C9
100
AcDbXrecord
280
1
1000
auto
  0
XRECORD
  5
D6
330
C9
100
AcDbXrecord
280
1
1000
auto
  0
XRECORD
  5
D7
330
C9
100
AcDbXrecord
280
1
1000
auto
  0
XRECORD
  5
D8
330
C9
100
AcDbXrecord
280
1
1000
auto
  0
XRECORD
  5
D9
330
C9
100
AcDbXrecord
280
1
1000
auto
  0
XRECORD
  5
DA
330
C9
100
AcDbXrecord
280
1
290
0
  0
XRECORD
  5
DB
330
C9
100
AcDbXrecord
280
1
290
0
  0
XRECORD
  5
DC
330
C9
100
AcDbXrecord
280
1
290
0
  0
XRECORD
  5
DD
330
C9
100
AcDbXrecord
280
1
290
0
  0
XRECORD
  5
DE
330
C9
100
AcDbXrecord
280
1
 90
65537
  0
XRECORD
  5
DF
330
C9
100
AcDbXrecord
280
1
 90
65537
  0
XRECORD
  5
E0
330
C9
100
AcDbXrecord
280
1
 90
65537
  0
XRECORD
  5
E1
330
C9
100
AcDbXrecord
280
1
 90
65537
  0
XRECORD
  5
E2
330
C9
100
AcDbXrecord
280
1
1000
auto
  0
XRECORD
  5
E3
330
C9
100
AcDbXrecord
280
1
1000
auto
  0
XRECORD
  5
E4
330
C9
100
AcDbXrecord
280
1
1000
auto
  0
XRECORD
  5
E5
330
C9
100
AcDbXrecord
280
1
1000
auto
  0
XRECORD
  5
E6
330
C9
100
AcDbXrecord
280
1
1000
1
  0
XRECORD
  5
E7
330
C9
100
AcDbXrecord
280
1
1000
auto
  0
XRECORD
  5
E8
330
C9
100
AcDbXrecord
280
1
1000
auto
  0
XRECORD
  5
E9
330
C9
100
AcDbXrecord
280
1
1000
auto
  0
XRECORD
  5
EA
330
C9
100
AcDbXrecord
280
1
 90
1
  0
XRECORD
  5
EB
330
C9
100
AcDbXrecord
280
1
 40
10.0
  0
XRECORD
  5
EC
330
C9
100
AcDbXrecord
280
1
 40
10.0
  0
XRECORD
  5
ED
330
C9
100
AcDbXrecord
280
1
 40
10.0
  0
XRECORD
  5
EE
330
C9
100
AcDbXrecord
280
1
 40
10.0
  0
XRECORD
  5
EF
330
C9
100
AcDbXrecord
280
1
290
0
  0
XRECORD
  5
F0
330
C9
100
AcDbXrecord
280
1
 90
1
  0
XRECORD
  5
F1
330
C9
100
AcDbXrecord
280
1
 40
793.1665914866936191
  0
XRECORD
  5
F2
330
C9
100
AcDbXrecord
280
1
 40
306.6308471493692309
  0
XRECORD
  5
F3
330
C9
100
AcDbXrecord
280
1
1000
Portrait
  0
XRECORD
  5
F4
330
C9
100
AcDbXrecord
280
1
 40
279.3999999999999773
  0
XRECORD
  5
F5
330
C9
100
AcDbXrecord
280
1
 40
215.9000000000000057
  0
XRECORD
  5
F6
330
C9
100
AcDbXrecord
280
1
 90
1
  0
XRECORD
  5
F7
330
C9
100
AcDbXrecord
280
1
290
1
  0
XRECORD
  5
F8
330
C9
100
AcDbXrecord
280
1
290
0
  0
XRECORD
  5
F9
330
C9
100
AcDbXrecord
280
1
1000
Inside
  0
XRECORD
  5
FA
330
C9
100
AcDbXrecord
280
1
1000
Arial,10,-1,5,50,0,0,0,0,0
  0
XRECORD
  5
FB
330
C9
100
AcDbXrecord
280
1
1000
TopLeft
  0
XRECORD
  5
FC
330
C9
100
AcDbXrecord
280
1
1000
3.28.1
  0
XRECORD
  5
FD
330
C9
100
AcDbXrecord
280
1
 90
4
  0
XRECORD
  5
FF
330
C9
100
AcDbXrecord
280
1
 40
123.7302737853689507
  0
XRECORD
  5
100
330
C9
100
AcDbXrecord
280
1
 40
215.0493668659663058
  0
IMAGEDEF
  5
61
100
AcDbRasterImageDef
 90
0
  1
C:/Users/iamth/Documents/CAD/QCad/Learn QCAD/1. StudyCadCam/2D CAD EXERCISES 34a.png
 10
200.0
 20
141.0
 11
1.0
 21
1.0
280
1
281
0
  0
ENDSEC
  0
EOF
