999
dxflib 3.26.4.0
  0
SECTION
  2
HEADER
  9
$ACADVER
  1
AC1015
  9
$HANDSEED
  5
FFFF
  9
$DIMADEC
 70
0
  9
$DIMASZ
 40
2.5
  9
$DIMATFIT
 70
0
  9
$DIMAUNIT
 70
0
  9
$DIMAZIN
 70
2
  9
$DIMBLK
  1
0
  9
$DIMBLK1
  1
0
  9
$DIMBLK2
  1
0
  9
$DIMDEC
 70
4
  9
$DIMDLI
 40
5.0
  9
$DIMDSEP
 70
46
  9
$DIMEXE
 40
1.25
  9
$DIMEXO
 40
0.625
  9
$DIMGAP
 40
0.625
  9
$DIMLFAC
 40
1.0
  9
$DIMLUNIT
 70
2
  9
$DIMSCALE
 40
1.0
  9
$DIMTAD
 70
1
  9
$DIMTIH
 70
0
  9
$DIMTSZ
 40
0.0
  9
$DIMTXT
 40
2.5
  9
$DIMZIN
 70
8
  9
$DWGCODEPAGE
  3
ANSI_1252
  9
$INSUNITS
 70
4
  9
$LTSCALE
 40
1.0
  9
$MAXACTVP
 70
64
  9
$MEASUREMENT
 70
1
  9
$MIRRTEXT
 70
0
  9
$PDMODE
 70
0
  9
$PDSIZE
 40
0.0
  0
ENDSEC
  0
SECTION
  2
TABLES
  0
TABLE
  2
VPORT
  5
8
100
AcDbSymbolTable
 70
1
  0
VPORT
  5
30
100
AcDbSymbolTableRecord
100
AcDbViewportTableRecord
  2
*Active
 70
0
 10
0.0
 20
0.0
 11
1.0
 21
1.0
 12
286.3055555555554861
 22
148.5
 13
0.0
 23
0.0
 14
10.0
 24
10.0
 15
10.0
 25
10.0
 16
0.0
 26
0.0
 36
1.0
 17
0.0
 27
0.0
 37
0.0
 40
297.0
 41
1.92798353909465
 42
50.0
 43
0.0
 44
0.0
 50
0.0
 51
0.0
 71
0
 72
100
 73
1
 74
3
 75
1
 76
1
 77
0
 78
0
281
0
 65
1
110
0.0
120
0.0
130
0.0
111
1.0
121
0.0
131
0.0
112
0.0
122
1.0
132
0.0
 79
0
146
0.0
  0
ENDTAB
  0
TABLE
  2
LTYPE
  5
5
100
AcDbSymbolTable
 70
41
  0
LTYPE
  5
16
100
AcDbSymbolTableRecord
100
AcDbLinetypeTableRecord
  2
Continuous
 70
0
  3
Solid line
 72
65
 73
0
 40
0.0
  0
LTYPE
  5
31
100
AcDbSymbolTableRecord
100
AcDbLinetypeTableRecord
  2
HIDDEN
 70
0
  3
Hidden __ __ __ __ __ __ __ __ __ __ __ __ __ __
 72
65
 73
2
 40
9.5249999999999986
 49
6.3499999999999996
 74
0
 49
-3.1749999999999998
 74
0
  0
LTYPE
  5
32
100
AcDbSymbolTableRecord
100
AcDbLinetypeTableRecord
  2
BORDER2
 70
0
  3
Border (.5x) __.__.__.__.__.__.__.__.__.__.__.
 72
65
 73
6
 40
22.2250000000000014
 49
6.3499999999999996
 74
0
 49
-3.1749999999999998
 74
0
 49
6.3499999999999996
 74
0
 49
-3.125
 74
0
 49
0.1
 74
0
 49
-3.125
 74
0
  0
LTYPE
  5
33
100
AcDbSymbolTableRecord
100
AcDbLinetypeTableRecord
  2
DOT2
 70
0
  3
Dot (.5x) ........................................
 72
65
 73
2
 40
3.1749999999999998
 49
0.1
 74
0
 49
-3.0749999999999997
 74
0
  0
LTYPE
  5
34
100
AcDbSymbolTableRecord
100
AcDbLinetypeTableRecord
  2
ACAD_ISO14W100
 70
0
  3
ISO dash triple-dot __ . . . __ . . . __ . . . _
 72
65
 73
8
 40
24.0000000000000036
 49
12.0
 74
0
 49
-2.9500000000000002
 74
0
 49
0.1
 74
0
 49
-2.9000000000000004
 74
0
 49
0.1
 74
0
 49
-2.9000000000000004
 74
0
 49
0.1
 74
0
 49
-2.9500000000000002
 74
0
  0
LTYPE
  5
35
100
AcDbSymbolTableRecord
100
AcDbLinetypeTableRecord
  2
DASHED2
 70
0
  3
Dashed (.5x) _ _ _ _ _ _ _ _ _ _ _ _ _ _ _ _ _ 
 72
65
 73
2
 40
9.5249999999999986
 49
6.3499999999999996
 74
0
 49
-3.1749999999999998
 74
0
  0
LTYPE
  5
36
100
AcDbSymbolTableRecord
100
AcDbLinetypeTableRecord
  2
ACAD_ISO03W100
 70
0
  3
ISO dash space __    __    __    __    __    __
 72
65
 73
2
 40
30.0
 49
12.0
 74
0
 49
-18.0
 74
0
  0
LTYPE
  5
37
100
AcDbSymbolTableRecord
100
AcDbLinetypeTableRecord
  2
CENTER2
 70
0
  3
Center (.5x) ___ _ ___ _ ___ _ ___ _ ___ _ ___
 72
65
 73
4
 40
28.5750000000000028
 49
19.0500000000000007
 74
0
 49
-3.1749999999999998
 74
0
 49
3.1749999999999998
 74
0
 49
-3.1749999999999998
 74
0
  0
LTYPE
  5
38
100
AcDbSymbolTableRecord
100
AcDbLinetypeTableRecord
  2
CENTER
 70
0
  3
Center ____ _ ____ _ ____ _ ____ _ ____ _ ____
 72
65
 73
4
 40
50.8000000000000043
 49
31.75
 74
0
 49
-6.3499999999999996
 74
0
 49
6.3499999999999996
 74
0
 49
-6.3499999999999996
 74
0
  0
LTYPE
  5
39
100
AcDbSymbolTableRecord
100
AcDbLinetypeTableRecord
  2
ACAD_ISO02W100
 70
0
  3
ISO dash __ __ __ __ __ __ __ __ __ __ __ __ __
 72
65
 73
2
 40
15.0
 49
12.0
 74
0
 49
-3.0
 74
0
  0
LTYPE
  5
3A
100
AcDbSymbolTableRecord
100
AcDbLinetypeTableRecord
  2
DIVIDE
 70
0
  3
Divide ____ . . ____ . . ____ . . ____ . . ____
 72
65
 73
6
 40
31.7500000000000036
 49
12.6999999999999993
 74
0
 49
-6.2999999999999998
 74
0
 49
0.1
 74
0
 49
-6.25
 74
0
 49
0.1
 74
0
 49
-6.2999999999999998
 74
0
  0
LTYPE
  5
3B
100
AcDbSymbolTableRecord
100
AcDbLinetypeTableRecord
  2
DIVIDEX2
 70
0
  3
Divide (2x) ________  .  .  ________  .  .  _
 72
65
 73
6
 40
63.5
 49
25.3999999999999986
 74
0
 49
-12.6499999999999986
 74
0
 49
0.1
 74
0
 49
-12.5999999999999979
 74
0
 49
0.1
 74
0
 49
-12.6499999999999986
 74
0
  0
LTYPE
  5
3C
100
AcDbSymbolTableRecord
100
AcDbLinetypeTableRecord
  2
DASHDOT2
 70
0
  3
Dash dot (.5x) _._._._._._._._._._._._._._._.
 72
65
 73
4
 40
12.6999999999999993
 49
6.3499999999999996
 74
0
 49
-3.125
 74
0
 49
0.1
 74
0
 49
-3.125
 74
0
  0
LTYPE
  5
3D
100
AcDbSymbolTableRecord
100
AcDbLinetypeTableRecord
  2
BORDERX2
 70
0
  3
Border (2x) ____  ____  .  ____  ____  .  ___
 72
65
 73
6
 40
88.8999999999999773
 49
25.3999999999999986
 74
0
 49
-12.6999999999999993
 74
0
 49
25.3999999999999986
 74
0
 49
-12.6499999999999986
 74
0
 49
0.1
 74
0
 49
-12.6499999999999986
 74
0
  0
LTYPE
  5
3E
100
AcDbSymbolTableRecord
100
AcDbLinetypeTableRecord
  2
CENTERX2
 70
0
  3
Center (2x) ________  __  ________  __  _____
 72
65
 73
4
 40
101.6000000000000085
 49
63.5
 74
0
 49
-12.6999999999999993
 74
0
 49
12.6999999999999993
 74
0
 49
-12.6999999999999993
 74
0
  0
LTYPE
  5
3F
100
AcDbSymbolTableRecord
100
AcDbLinetypeTableRecord
  2
DASHED
 70
0
  3
Dashed __ __ __ __ __ __ __ __ __ __ __ __ __ _
 72
65
 73
2
 40
19.0499999999999972
 49
12.6999999999999993
 74
0
 49
-6.3499999999999996
 74
0
  0
LTYPE
  5
14
100
AcDbSymbolTableRecord
100
AcDbLinetypeTableRecord
  2
BYBLOCK
 70
0
  3

 72
65
 73
0
 40
0.0
  0
LTYPE
  5
40
100
AcDbSymbolTableRecord
100
AcDbLinetypeTableRecord
  2
BORDER
 70
0
  3
Border __ __ . __ __ . __ __ . __ __ . __ __ .
 72
65
 73
6
 40
44.4499999999999957
 49
12.6999999999999993
 74
0
 49
-6.3499999999999996
 74
0
 49
12.6999999999999993
 74
0
 49
-6.2999999999999998
 74
0
 49
0.1
 74
0
 49
-6.2999999999999998
 74
0
  0
LTYPE
  5
41
100
AcDbSymbolTableRecord
100
AcDbLinetypeTableRecord
  2
ACAD_ISO12W100
 70
0
  3
ISO dash double-dot __ . . __ . . __ . . __ . . 
 72
65
 73
6
 40
21.0
 49
12.0
 74
0
 49
-2.9500000000000002
 74
0
 49
0.1
 74
0
 49
-2.9000000000000004
 74
0
 49
0.1
 74
0
 49
-2.9500000000000002
 74
0
  0
LTYPE
  5
42
100
AcDbSymbolTableRecord
100
AcDbLinetypeTableRecord
  2
ACAD_ISO05W100
 70
0
  3
ISO long-dash double-dot ____ .. ____ .. ____ . 
 72
65
 73
6
 40
33.0000000000000071
 49
24.0
 74
0
 49
-2.9500000000000002
 74
0
 49
0.1
 74
0
 49
-2.9000000000000004
 74
0
 49
0.1
 74
0
 49
-2.9500000000000002
 74
0
  0
LTYPE
  5
43
100
AcDbSymbolTableRecord
100
AcDbLinetypeTableRecord
  2
ACAD_ISO13W100
 70
0
  3
ISO double-dash double-dot __ __ . . __ __ . . _
 72
65
 73
8
 40
36.0000000000000071
 49
12.0
 74
0
 49
-3.0
 74
0
 49
12.0
 74
0
 49
-2.9500000000000002
 74
0
 49
0.1
 74
0
 49
-2.9000000000000004
 74
0
 49
0.1
 74
0
 49
-2.9500000000000002
 74
0
  0
LTYPE
  5
44
100
AcDbSymbolTableRecord
100
AcDbLinetypeTableRecord
  2
DIVIDE2
 70
0
  3
Divide (.5x) __..__..__..__..__..__..__..__.._
 72
65
 73
6
 40
15.8749999999999982
 49
6.3499999999999996
 74
0
 49
-3.125
 74
0
 49
0.1
 74
0
 49
-3.0750000000000002
 74
0
 49
0.1
 74
0
 49
-3.125
 74
0
  0
LTYPE
  5
45
100
AcDbSymbolTableRecord
100
AcDbLinetypeTableRecord
  2
ACAD_ISO07W100
 70
0
  3
ISO dot . . . . . . . . . . . . . . . . . . . . 
 72
65
 73
2
 40
3.0
 49
0.1
 74
0
 49
-2.8999999999999999
 74
0
  0
LTYPE
  5
46
100
AcDbSymbolTableRecord
100
AcDbLinetypeTableRecord
  2
ACAD_ISO11W100
 70
0
  3
ISO double-dash dot __ __ . __ __ . __ __ . __ _
 72
65
 73
6
 40
33.0
 49
12.0
 74
0
 49
-3.0
 74
0
 49
12.0
 74
0
 49
-2.9500000000000002
 74
0
 49
0.1
 74
0
 49
-2.9500000000000002
 74
0
  0
LTYPE
  5
47
100
AcDbSymbolTableRecord
100
AcDbLinetypeTableRecord
  2
DOT
 70
0
  3
Dot . . . . . . . . . . . . . . . . . . . . . . . .
 72
65
 73
2
 40
6.3499999999999996
 49
0.1
 74
0
 49
-6.25
 74
0
  0
LTYPE
  5
15
100
AcDbSymbolTableRecord
100
AcDbLinetypeTableRecord
  2
BYLAYER
 70
0
  3

 72
65
 73
0
 40
0.0
  0
LTYPE
  5
48
100
AcDbSymbolTableRecord
100
AcDbLinetypeTableRecord
  2
HIDDEN2
 70
0
  3
Hidden (.5x) _ _ _ _ _ _ _ _ _ _ _ _ _ _ _ _ _ 
 72
65
 73
2
 40
4.7624999999999993
 49
3.1749999999999998
 74
0
 49
-1.5874999999999999
 74
0
  0
LTYPE
  5
49
100
AcDbSymbolTableRecord
100
AcDbLinetypeTableRecord
  2
ACAD_ISO15W100
 70
0
  3
ISO double-dash triple-dot __ __ . . . __ __ . .
 72
65
 73
10
 40
39.0000000000000071
 49
12.0
 74
0
 49
-3.0
 74
0
 49
12.0
 74
0
 49
-2.9500000000000002
 74
0
 49
0.1
 74
0
 49
-2.9000000000000004
 74
0
 49
0.1
 74
0
 49
-2.9000000000000004
 74
0
 49
0.1
 74
0
 49
-2.9500000000000002
 74
0
  0
LTYPE
  5
4A
100
AcDbSymbolTableRecord
100
AcDbLinetypeTableRecord
  2
HIDDENX2
 70
0
  3
Hidden (2x) ____ ____ ____ ____ ____ ____ ____ 
 72
65
 73
2
 40
19.0499999999999972
 49
12.6999999999999993
 74
0
 49
-6.3499999999999996
 74
0
  0
LTYPE
  5
4B
100
AcDbSymbolTableRecord
100
AcDbLinetypeTableRecord
  2
DOTX2
 70
0
  3
Dot (2x) .  .  .  .  .  .  .  .  .  .  .  .  .  .
 72
65
 73
2
 40
12.6999999999999993
 49
0.1
 74
0
 49
-12.5999999999999996
 74
0
  0
LTYPE
  5
4C
100
AcDbSymbolTableRecord
100
AcDbLinetypeTableRecord
  2
PHANTOM
 70
0
  3
Phantom ______  __  __  ______  __  __  ______ 
 72
65
 73
6
 40
63.5000000000000071
 49
31.75
 74
0
 49
-6.3499999999999996
 74
0
 49
6.3499999999999996
 74
0
 49
-6.3499999999999996
 74
0
 49
6.3499999999999996
 74
0
 49
-6.3499999999999996
 74
0
  0
LTYPE
  5
4D
100
AcDbSymbolTableRecord
100
AcDbLinetypeTableRecord
  2
ACAD_ISO06W100
 70
0
  3
ISO long-dash triple-dot ____ ... ____ ... ____
 72
65
 73
8
 40
36.0000000000000071
 49
24.0
 74
0
 49
-2.9500000000000002
 74
0
 49
0.1
 74
0
 49
-2.9000000000000004
 74
0
 49
0.1
 74
0
 49
-2.9000000000000004
 74
0
 49
0.1
 74
0
 49
-2.9500000000000002
 74
0
  0
LTYPE
  5
4E
100
AcDbSymbolTableRecord
100
AcDbLinetypeTableRecord
  2
DASHDOT
 70
0
  3
Dash dot __ . __ . __ . __ . __ . __ . __ . __
 72
65
 73
4
 40
25.4000000000000021
 49
12.6999999999999993
 74
0
 49
-6.2999999999999998
 74
0
 49
0.1
 74
0
 49
-6.2999999999999998
 74
0
  0
LTYPE
  5
4F
100
AcDbSymbolTableRecord
100
AcDbLinetypeTableRecord
  2
ACAD_ISO08W100
 70
0
  3
ISO long-dash short-dash ____ __ ____ __ ____ _
 72
65
 73
4
 40
36.0
 49
24.0
 74
0
 49
-3.0
 74
0
 49
6.0
 74
0
 49
-3.0
 74
0
  0
LTYPE
  5
50
100
AcDbSymbolTableRecord
100
AcDbLinetypeTableRecord
  2
ACAD_ISO09W100
 70
0
  3
ISO long-dash double-short-dash ____ __ __ ____
 72
65
 73
6
 40
45.0
 49
24.0
 74
0
 49
-3.0
 74
0
 49
6.0
 74
0
 49
-3.0
 74
0
 49
6.0
 74
0
 49
-3.0
 74
0
  0
LTYPE
  5
51
100
AcDbSymbolTableRecord
100
AcDbLinetypeTableRecord
  2
ACAD_ISO04W100
 70
0
  3
ISO long-dash dot ____ . ____ . ____ . ____ . _
 72
65
 73
4
 40
30.0
 49
24.0
 74
0
 49
-2.9500000000000002
 74
0
 49
0.1
 74
0
 49
-2.9500000000000002
 74
0
  0
LTYPE
  5
52
100
AcDbSymbolTableRecord
100
AcDbLinetypeTableRecord
  2
ACAD_ISO10W100
 70
0
  3
ISO dash dot __ . __ . __ . __ . __ . __ . __ . 
 72
65
 73
4
 40
18.0
 49
12.0
 74
0
 49
-2.9500000000000002
 74
0
 49
0.1
 74
0
 49
-2.9500000000000002
 74
0
  0
LTYPE
  5
53
100
AcDbSymbolTableRecord
100
AcDbLinetypeTableRecord
  2
DASHDOTX2
 70
0
  3
Dash dot (2x) ____  .  ____  .  ____  .  ___
 72
65
 73
4
 40
50.7999999999999972
 49
25.3999999999999986
 74
0
 49
-12.6499999999999986
 74
0
 49
0.1
 74
0
 49
-12.6499999999999986
 74
0
  0
LTYPE
  5
54
100
AcDbSymbolTableRecord
100
AcDbLinetypeTableRecord
  2
DASHEDX2
 70
0
  3
Dashed (2x) ____  ____  ____  ____  ____  ___
 72
65
 73
2
 40
38.0999999999999943
 49
25.3999999999999986
 74
0
 49
-12.6999999999999993
 74
0
  0
LTYPE
  5
55
100
AcDbSymbolTableRecord
100
AcDbLinetypeTableRecord
  2
PHANTOMX2
 70
0
  3
Phantom (2x) ____________    ____    ____   _
 72
65
 73
6
 40
127.0000000000000142
 49
63.5
 74
0
 49
-12.6999999999999993
 74
0
 49
12.6999999999999993
 74
0
 49
-12.6999999999999993
 74
0
 49
12.6999999999999993
 74
0
 49
-12.6999999999999993
 74
0
  0
LTYPE
  5
56
100
AcDbSymbolTableRecord
100
AcDbLinetypeTableRecord
  2
PHANTOM2
 70
0
  3
Phantom (.5x) ___ _ _ ___ _ _ ___ _ _ ___ _ _
 72
65
 73
6
 40
31.7500000000000036
 49
15.875
 74
0
 49
-3.1749999999999998
 74
0
 49
3.1749999999999998
 74
0
 49
-3.1749999999999998
 74
0
 49
3.1749999999999998
 74
0
 49
-3.1749999999999998
 74
0
  0
ENDTAB
  0
TABLE
  2
LAYER
  5
2
100
AcDbSymbolTable
 70
7
  0
LAYER
  5
10
100
AcDbSymbolTableRecord
100
AcDbLayerTableRecord
  2
0
 70
0
 62
7
420
16777215
  6
Continuous
370
25
390
F
  0
LAYER
  5
57
100
AcDbSymbolTableRecord
100
AcDbLayerTableRecord
  2
Contornos Ocultos
 70
0
 62
252
420
10526884
  6
ACAD_ISO02W100
370
30
390
F
  0
LAYER
  5
58
100
AcDbSymbolTableRecord
100
AcDbLayerTableRecord
  2
Ejes de revoluci\U+00f3n
 70
0
 62
6
420
16711935
  6
ACAD_ISO04W100
370
20
390
F
  0
LAYER
  5
59
100
AcDbSymbolTableRecord
100
AcDbLayerTableRecord
  2
Cotas
 70
0
 62
1
420
16711680
  6
Continuous
370
20
390
F
  0
LAYER
  5
5A
100
AcDbSymbolTableRecord
100
AcDbLayerTableRecord
  2
Referencias 2
 70
1
 62
3
420
65280
  6
Continuous
370
25
390
F
  0
LAYER
  5
5B
100
AcDbSymbolTableRecord
100
AcDbLayerTableRecord
  2
Referencias
 70
1
 62
2
420
16776960
  6
Continuous
370
25
390
F
  0
LAYER
  5
5C
100
AcDbSymbolTableRecord
100
AcDbLayerTableRecord
  2
Contornos Visibles
 70
0
 62
7
420
16777215
  6
Continuous
370
50
390
F
  0
ENDTAB
  0
TABLE
  2
STYLE
  5
3
100
AcDbSymbolTable
 70
11
  0
STYLE
  5
5D
100
AcDbSymbolTableRecord
100
AcDbTextStyleTableRecord
  2
Standard
 70
0
 40
0.0
 41
1.0
 50
0.0
 71
0
 42
2.5
  3

  4

1001
ACAD
1000
txt
1071
0
  0
STYLE
  5
5E
100
AcDbSymbolTableRecord
100
AcDbTextStyleTableRecord
  2
textstyle0
 70
0
 40
0.0
 41
1.0
 50
0.0
 71
0
 42
2.5
  3

  4

1001
ACAD
1000
Arial
1071
0
  0
STYLE
  5
5F
100
AcDbSymbolTableRecord
100
AcDbTextStyleTableRecord
  2
textstyle1
 70
0
 40
0.0
 41
1.0
 50
0.0
 71
0
 42
2.5
  3

  4

1001
ACAD
1000
Arial
1071
0
  0
STYLE
  5
60
100
AcDbSymbolTableRecord
100
AcDbTextStyleTableRecord
  2
textstyle2
 70
0
 40
0.0
 41
1.0
 50
0.0
 71
0
 42
2.5
  3

  4

1001
ACAD
1000
Arial
1071
0
  0
STYLE
  5
61
100
AcDbSymbolTableRecord
100
AcDbTextStyleTableRecord
  2
textstyle3
 70
0
 40
0.0
 41
1.0
 50
0.0
 71
0
 42
2.5
  3

  4

1001
ACAD
1000
Arial
1071
0
  0
STYLE
  5
62
100
AcDbSymbolTableRecord
100
AcDbTextStyleTableRecord
  2
textstyle4
 70
0
 40
0.0
 41
1.0
 50
0.0
 71
0
 42
2.5
  3

  4

1001
ACAD
1000
Arial
1071
0
  0
STYLE
  5
63
100
AcDbSymbolTableRecord
100
AcDbTextStyleTableRecord
  2
textstyle5
 70
0
 40
0.0
 41
1.0
 50
0.0
 71
0
 42
2.5
  3

  4

1001
ACAD
1000
Arial
1071
0
  0
STYLE
  5
64
100
AcDbSymbolTableRecord
100
AcDbTextStyleTableRecord
  2
textstyle6
 70
0
 40
0.0
 41
1.0
 50
0.0
 71
0
 42
2.5
  3

  4

1001
ACAD
1000
Arial
1071
0
  0
STYLE
  5
65
100
AcDbSymbolTableRecord
100
AcDbTextStyleTableRecord
  2
textstyle7
 70
0
 40
0.0
 41
1.0
 50
0.0
 71
0
 42
2.5
  3

  4

1001
ACAD
1000
Arial
1071
0
  0
STYLE
  5
66
100
AcDbSymbolTableRecord
100
AcDbTextStyleTableRecord
  2
textstyle8
 70
0
 40
0.0
 41
1.0
 50
0.0
 71
0
 42
2.5
  3

  4

1001
ACAD
1000
Arial
1071
0
  0
STYLE
  5
67
100
AcDbSymbolTableRecord
100
AcDbTextStyleTableRecord
  2
textstyle9
 70
0
 40
0.0
 41
1.0
 50
0.0
 71
0
 42
2.5
  3

  4

1001
ACAD
1000
Arial
1071
0
  0
ENDTAB
  0
TABLE
  2
VIEW
  5
6
100
AcDbSymbolTable
 70
0
  0
ENDTAB
  0
TABLE
  2
UCS
  5
7
100
AcDbSymbolTable
 70
0
  0
ENDTAB
  0
TABLE
  2
APPID
  5
9
100
AcDbSymbolTable
 70
1
  0
APPID
  5
12
100
AcDbSymbolTableRecord
100
AcDbRegAppTableRecord
  2
ACAD
 70
0
  0
APPID
  5
68
100
AcDbSymbolTableRecord
100
AcDbRegAppTableRecord
  2
QCAD
 70
0
  0
ENDTAB
  0
TABLE
  2
DIMSTYLE
  5
A
100
AcDbSymbolTable
 70
1
100
AcDbDimStyleTable
 71
0
  0
DIMSTYLE
105
27
100
AcDbSymbolTableRecord
100
AcDbDimStyleTableRecord
  2
Standard
 41
2.5
 42
0.625
 43
3.75
 44
1.25
 70
0
 73
0
 74
0
 77
1
 78
8
140
2.5
141
2.5
143
0.03937007874016
147
0.625
171
3
172
1
271
2
272
2
274
3
278
44
283
0
284
8
340
5D
  0
ENDTAB
  0
TABLE
  2
BLOCK_RECORD
  5
1
100
AcDbSymbolTable
 70
1
  0
BLOCK_RECORD
  5
1F
100
AcDbSymbolTableRecord
100
AcDbBlockTableRecord
  2
*Model_Space
340
22
  0
BLOCK_RECORD
  5
1B
100
AcDbSymbolTableRecord
100
AcDbBlockTableRecord
  2
*Paper_Space
340
1E
  0
BLOCK_RECORD
  5
23
100
AcDbSymbolTableRecord
100
AcDbBlockTableRecord
  2
*Paper_Space0
340
26
  0
ENDTAB
  0
ENDSEC
  0
SECTION
  2
BLOCKS
  0
BLOCK
  5
20
100
AcDbEntity
  8
0
100
AcDbBlockBegin
  2
*Model_Space
 70
0
 10
0.0
 20
0.0
 30
0.0
  3
*Model_Space
  1

  0
ENDBLK
  5
21
100
AcDbEntity
  8
0
100
AcDbBlockEnd
  0
BLOCK
  5
1C
100
AcDbEntity
 67
1
  8
0
100
AcDbBlockBegin
  2
*Paper_Space
 70
0
 10
0.0
 20
0.0
 30
0.0
  3
*Paper_Space
  1

  0
ENDBLK
  5
1D
100
AcDbEntity
 67
1
  8
0
100
AcDbBlockEnd
  0
BLOCK
  5
24
100
AcDbEntity
  8
0
100
AcDbBlockBegin
  2
*Paper_Space0
 70
0
 10
0.0
 20
0.0
 30
0.0
  3
*Paper_Space0
  1

  0
ENDBLK
  5
25
100
AcDbEntity
  8
0
100
AcDbBlockEnd
  0
ENDSEC
  0
SECTION
  2
ENTITIES
  0
IMAGE
  5
69
100
AcDbEntity
  8
0
 62
256
370
-1
 48
1.0
  6
BYLAYER
100
AcDbRasterImage
 90
0
 10
234.2315571916798547
 20
74.2726651391998587
 30
0.0
 11
0.09765625
 21
0.0
 31
0.0
 12
0.0
 22
0.09765625
 32
0.0
 13
200.0
 23
141.0
340
6A
 70
15
280
0
281
50
282
50
283
0
  0
LINE
  5
6B
100
AcDbEntity
  8
Contornos Visibles
 62
256
370
-1
 48
1.0
  6
BYLAYER
100
AcDbLine
 10
749.1610670060078974
 20
158.4745822163893081
 30
0.0
 11
752.7937796460346362
 21
147.2942423288903342
 31
0.0
  0
LINE
  5
6C
100
AcDbEntity
  8
Contornos Visibles
 62
256
370
-1
 48
1.0
  6
BYLAYER
100
AcDbLine
 10
752.7937796460346362
 20
147.2942423288903342
 30
0.0
 11
764.5494846918841176
 21
147.2942423288903342
 31
0.0
  0
LINE
  5
6D
100
AcDbEntity
  8
Contornos Visibles
 62
256
370
-1
 48
1.0
  6
BYLAYER
100
AcDbLine
 10
764.5494846918841176
 20
147.2942423288903342
 30
0.0
 11
768.1821973319108565
 21
158.4745822163892797
 31
0.0
  0
LINE
  5
6E
100
AcDbEntity
  8
Contornos Visibles
 62
256
370
-1
 48
1.0
  6
BYLAYER
100
AcDbLine
 10
768.1821973319108565
 20
158.4745822163892797
 30
0.0
 11
758.6716321689593769
 21
165.3844122726398211
 31
0.0
  0
LINE
  5
6F
100
AcDbEntity
  8
Contornos Visibles
 62
256
370
-1
 48
1.0
  6
BYLAYER
100
AcDbLine
 10
758.6716321689593769
 20
165.3844122726398211
 30
0.0
 11
749.1610670060078974
 21
158.4745822163893081
 31
0.0
  0
CIRCLE
  5
70
100
AcDbEntity
  8
Contornos Visibles
 62
256
370
-1
 48
1.0
  6
BYLAYER
100
AcDbCircle
 10
758.6716321689596043
 20
155.3844122726399632
 30
0.0
 40
9.9999999999999307
  0
CIRCLE
  5
71
100
AcDbEntity
  8
Referencias
 62
256
370
-1
 48
1.0
  6
BYLAYER
100
AcDbCircle
 10
758.6716321689596043
 20
155.3844122726399632
 30
0.0
 40
20.0
  0
ARC
  5
72
100
AcDbEntity
  8
Contornos Visibles
 62
256
370
-1
 48
1.0
  6
BYLAYER
100
AcDbCircle
 10
758.6716321689596043
 20
155.3844122726399632
 30
0.0
 40
18.0
100
AcDbArc
 50
13.872102735011195
 51
46.1278972649889383
  0
ARC
  5
73
100
AcDbEntity
  8
Contornos Visibles
 62
256
370
-1
 48
1.0
  6
BYLAYER
100
AcDbCircle
 10
758.6716321689596043
 20
155.3844122726399632
 30
0.0
 40
18.0
100
AcDbArc
 50
73.872102735011353
 51
106.1278972649886612
  0
ARC
  5
74
100
AcDbEntity
  8
Contornos Visibles
 62
256
370
-1
 48
1.0
  6
BYLAYER
100
AcDbCircle
 10
758.6716321689596043
 20
155.3844122726399632
 30
0.0
 40
18.0
100
AcDbArc
 50
133.8721027350111115
 51
166.1278972649888033
  0
ARC
  5
75
100
AcDbEntity
  8
Contornos Visibles
 62
256
370
-1
 48
1.0
  6
BYLAYER
100
AcDbCircle
 10
758.6716321689596043
 20
155.3844122726399632
 30
0.0
 40
18.0
100
AcDbArc
 50
193.8721027350111967
 51
226.1278972649888885
  0
ARC
  5
76
100
AcDbEntity
  8
Contornos Visibles
 62
256
370
-1
 48
1.0
  6
BYLAYER
100
AcDbCircle
 10
758.6716321689596043
 20
155.3844122726399632
 30
0.0
 40
18.0
100
AcDbArc
 50
253.8721027350113104
 51
286.1278972649886896
  0
ARC
  5
77
100
AcDbEntity
  8
Contornos Visibles
 62
256
370
-1
 48
1.0
  6
BYLAYER
100
AcDbCircle
 10
758.6716321689596043
 20
155.3844122726399632
 30
0.0
 40
18.0
100
AcDbArc
 50
313.872102735011083
 51
346.1278972649888033
  0
LWPOLYLINE
  5
78
100
AcDbEntity
  8
Contornos Visibles
 62
256
370
-1
 48
1.0
  6
BYLAYER
100
AcDbPolyline
 90
6
 70
129
 10
779.6716321689596043
 20
157.1164630802088311
 10
777.6716321689596043
 20
157.1164630802088311
 10
776.6716321689596043
 20
155.3844122726399632
 10
777.6716321689596043
 20
153.6523614650710954
 10
779.6716321689596043
 20
153.6523614650710954
 10
780.6716321689596043
 20
155.3844122726399632
  0
LWPOLYLINE
  5
79
100
AcDbEntity
  8
Contornos Visibles
 62
256
370
-1
 48
1.0
  6
BYLAYER
100
AcDbPolyline
 90
6
 70
129
 10
770.6716321689596043
 20
138.0639041969511993
 10
769.6716321689596043
 20
139.7959550045200672
 10
767.6716321689596043
 20
139.7959550045200672
 10
766.6716321689596043
 20
138.0639041969511993
 10
767.6716321689596043
 20
136.3318533893823314
 10
769.6716321689596043
 20
136.331853389382303
  0
LWPOLYLINE
  5
7A
100
AcDbEntity
  8
Contornos Visibles
 62
256
370
-1
 48
1.0
  6
BYLAYER
100
AcDbPolyline
 90
6
 70
129
 10
749.6716321689596043
 20
136.331853389382303
 10
750.6716321689596043
 20
138.0639041969511993
 10
749.6716321689596043
 20
139.7959550045200672
 10
747.6716321689596043
 20
139.7959550045200672
 10
746.6716321689596043
 20
138.0639041969512277
 10
747.6716321689596043
 20
136.331853389382303
  0
LWPOLYLINE
  5
7B
100
AcDbEntity
  8
Contornos Visibles
 62
256
370
-1
 48
1.0
  6
BYLAYER
100
AcDbPolyline
 90
6
 70
129
 10
737.6716321689596043
 20
153.6523614650710954
 10
739.6716321689596043
 20
153.6523614650711238
 10
740.6716321689596043
 20
155.3844122726399632
 10
739.6716321689596043
 20
157.1164630802088595
 10
737.6716321689596043
 20
157.1164630802088595
 10
736.6716321689596043
 20
155.3844122726399632
  0
LWPOLYLINE
  5
7C
100
AcDbEntity
  8
Contornos Visibles
 62
256
370
-1
 48
1.0
  6
BYLAYER
100
AcDbPolyline
 90
6
 70
129
 10
746.6716321689596043
 20
172.7049203483287272
 10
747.6716321689596043
 20
170.9728695407598593
 10
749.6716321689596043
 20
170.9728695407598593
 10
750.6716321689596043
 20
172.7049203483287556
 10
749.6716321689596043
 20
174.4369711558976235
 10
747.6716321689596043
 20
174.4369711558975951
  0
LWPOLYLINE
  5
7D
100
AcDbEntity
  8
Contornos Visibles
 62
256
370
-1
 48
1.0
  6
BYLAYER
100
AcDbPolyline
 90
6
 70
129
 10
767.6716321689596043
 20
174.4369711558976235
 10
766.6716321689596043
 20
172.7049203483287556
 10
767.6716321689596043
 20
170.9728695407598593
 10
769.6716321689594906
 20
170.9728695407598877
 10
770.6716321689596043
 20
172.7049203483287556
 10
769.6716321689596043
 20
174.4369711558976235
  0
CIRCLE
  5
7E
100
AcDbEntity
  8
Contornos Visibles
 62
256
370
-1
 48
1.0
  6
BYLAYER
100
AcDbCircle
 10
778.6716321689596043
 20
155.3844122726399632
 30
0.0
 40
3.0
  0
CIRCLE
  5
7F
100
AcDbEntity
  8
Contornos Visibles
 62
256
370
-1
 48
1.0
  6
BYLAYER
100
AcDbCircle
 10
768.6716321689596043
 20
138.0639041969511993
 30
0.0
 40
3.0
  0
CIRCLE
  5
80
100
AcDbEntity
  8
Contornos Visibles
 62
256
370
-1
 48
1.0
  6
BYLAYER
100
AcDbCircle
 10
748.6716321689596043
 20
138.0639041969511993
 30
0.0
 40
3.0
  0
CIRCLE
  5
81
100
AcDbEntity
  8
Contornos Visibles
 62
256
370
-1
 48
1.0
  6
BYLAYER
100
AcDbCircle
 10
738.6716321689596043
 20
155.3844122726399632
 30
0.0
 40
3.0
  0
CIRCLE
  5
82
100
AcDbEntity
  8
Contornos Visibles
 62
256
370
-1
 48
1.0
  6
BYLAYER
100
AcDbCircle
 10
748.6716321689596043
 20
172.7049203483287272
 30
0.0
 40
3.0
  0
CIRCLE
  5
83
100
AcDbEntity
  8
Contornos Visibles
 62
256
370
-1
 48
1.0
  6
BYLAYER
100
AcDbCircle
 10
768.6716321689596043
 20
172.7049203483287556
 30
0.0
 40
3.0
  0
CIRCLE
  5
84
100
AcDbEntity
  8
Contornos Visibles
 62
256
370
-1
 48
1.0
  6
BYLAYER
100
AcDbCircle
 10
778.6716321689596043
 20
155.3844122726399632
 30
0.0
 40
5.0
  0
CIRCLE
  5
85
100
AcDbEntity
  8
Contornos Visibles
 62
256
370
-1
 48
1.0
  6
BYLAYER
100
AcDbCircle
 10
768.6716321689596043
 20
138.0639041969511993
 30
0.0
 40
5.0
  0
CIRCLE
  5
86
100
AcDbEntity
  8
Contornos Visibles
 62
256
370
-1
 48
1.0
  6
BYLAYER
100
AcDbCircle
 10
748.6716321689596043
 20
138.0639041969511993
 30
0.0
 40
5.0
  0
CIRCLE
  5
87
100
AcDbEntity
  8
Contornos Visibles
 62
256
370
-1
 48
1.0
  6
BYLAYER
100
AcDbCircle
 10
738.6716321689596043
 20
155.3844122726399632
 30
0.0
 40
5.0
  0
CIRCLE
  5
88
100
AcDbEntity
  8
Contornos Visibles
 62
256
370
-1
 48
1.0
  6
BYLAYER
100
AcDbCircle
 10
748.6716321689596043
 20
172.7049203483287272
 30
0.0
 40
5.0
  0
CIRCLE
  5
89
100
AcDbEntity
  8
Contornos Visibles
 62
256
370
-1
 48
1.0
  6
BYLAYER
100
AcDbCircle
 10
768.6716321689596043
 20
172.7049203483287556
 30
0.0
 40
5.0
  0
LINE
  5
8A
100
AcDbEntity
  8
Referencias 2
 62
256
370
-1
 48
1.0
  6
BYLAYER
100
AcDbLine
 10
758.6716321689596043
 20
155.3844122726399632
 30
0.0
 11
827.9536644717146601
 21
195.3844122726399632
 31
0.0
  0
ARC
  5
8B
100
AcDbEntity
  8
Contornos Visibles
 62
256
370
-1
 48
1.0
  6
BYLAYER
100
AcDbCircle
 10
778.6716321689596043
 20
155.3844122726399632
 30
0.0
 40
9.0
100
AcDbArc
 50
285.3009408517225438
 51
74.6990591482774704
  0
ARC
  5
8C
100
AcDbEntity
  8
Contornos Visibles
 62
256
370
-1
 48
1.0
  6
BYLAYER
100
AcDbCircle
 10
768.671632168959718
 20
138.0639041969512846
 30
0.0
 40
9.0
100
AcDbArc
 50
225.300940851722487
 51
14.6990591482774811
  0
ARC
  5
8D
100
AcDbEntity
  8
Contornos Visibles
 62
256
370
-1
 48
1.0
  6
BYLAYER
100
AcDbCircle
 10
748.6716321689598317
 20
138.0639041969512846
 30
0.0
 40
9.0
100
AcDbArc
 50
165.3009408517225722
 51
314.699059148277513
  0
ARC
  5
8E
100
AcDbEntity
  8
Contornos Visibles
 62
256
370
-1
 48
1.0
  6
BYLAYER
100
AcDbCircle
 10
738.6716321689598317
 20
155.3844122726399632
 30
0.0
 40
9.0
100
AcDbArc
 50
105.3009408517224443
 51
254.6990591482775699
  0
ARC
  5
8F
100
AcDbEntity
  8
Contornos Visibles
 62
256
370
-1
 48
1.0
  6
BYLAYER
100
AcDbCircle
 10
748.671632168959718
 20
172.7049203483286419
 30
0.0
 40
9.0
100
AcDbArc
 50
45.3009408517225012
 51
194.6990591482776551
  0
ARC
  5
90
100
AcDbEntity
  8
Contornos Visibles
 62
256
370
-1
 48
1.0
  6
BYLAYER
100
AcDbCircle
 10
768.6716321689596043
 20
172.7049203483286419
 30
0.0
 40
9.0
100
AcDbArc
 50
345.3009408517225438
 51
134.699059148277712
  0
ARC
  5
91
100
AcDbEntity
  8
Contornos Visibles
 62
256
370
-1
 48
1.0
  6
BYLAYER
100
AcDbCircle
 10
758.671632168959718
 20
155.3844122726399632
 30
0.0
 40
24.0
100
AcDbArc
 50
21.2050908132988987
 51
24.020843203698778
  0
ARC
  5
92
100
AcDbEntity
  8
Contornos Visibles
 62
256
370
-1
 48
1.0
  6
BYLAYER
100
AcDbCircle
 10
758.671632168959718
 20
155.3844122726399632
 30
0.0
 40
24.0
100
AcDbArc
 50
35.9791567963014032
 51
38.7949091867012683
  0
ARC
  5
93
100
AcDbEntity
  8
Referencias
 62
256
370
-1
 48
1.0
  6
BYLAYER
100
AcDbCircle
 10
758.671632168959718
 20
155.3844122726399632
 30
0.0
 40
24.0
100
AcDbArc
 50
24.020843203698778
 51
35.9791567963014032
  0
ARC
  5
94
100
AcDbEntity
  8
Contornos Visibles
 62
256
370
-1
 48
1.0
  6
BYLAYER
100
AcDbCircle
 10
758.671632168959718
 20
155.3844122726399632
 30
0.0
 40
24.0
100
AcDbArc
 50
261.2050908132987956
 51
278.7949091867012044
  0
ARC
  5
95
100
AcDbEntity
  8
Contornos Visibles
 62
256
370
-1
 48
1.0
  6
BYLAYER
100
AcDbCircle
 10
758.671632168959718
 20
155.3844122726399632
 30
0.0
 40
24.0
100
AcDbArc
 50
155.9791567963064551
 51
158.7949091867063487
  0
ARC
  5
96
100
AcDbEntity
  8
Contornos Visibles
 62
256
370
-1
 48
1.0
  6
BYLAYER
100
AcDbCircle
 10
758.671632168959718
 20
155.3844122726399632
 30
0.0
 40
24.0
100
AcDbArc
 50
141.2050908133039684
 51
144.0208432037038051
  0
ARC
  5
97
100
AcDbEntity
  8
Contornos Visibles
 62
256
370
-1
 48
1.0
  6
BYLAYER
100
AcDbCircle
 10
758.671632168959718
 20
155.3844122726399632
 30
0.0
 40
24.0
100
AcDbArc
 50
215.9791567962961949
 51
218.7949091866960316
  0
ARC
  5
98
100
AcDbEntity
  8
Contornos Visibles
 62
256
370
-1
 48
1.0
  6
BYLAYER
100
AcDbCircle
 10
758.671632168959718
 20
155.3844122726399632
 30
0.0
 40
24.0
100
AcDbArc
 50
335.9791567963011971
 51
338.7949091867010907
  0
ARC
  5
99
100
AcDbEntity
  8
Contornos Visibles
 62
256
370
-1
 48
1.0
  6
BYLAYER
100
AcDbCircle
 10
758.671632168959718
 20
155.3844122726399632
 30
0.0
 40
24.0
100
AcDbArc
 50
321.2050908132987388
 51
324.0208432036985755
  0
ARC
  5
9A
100
AcDbEntity
  8
Contornos Visibles
 62
256
370
-1
 48
1.0
  6
BYLAYER
100
AcDbCircle
 10
758.671632168959718
 20
155.3844122726399632
 30
0.0
 40
24.0
100
AcDbArc
 50
201.2050908132936797
 51
204.0208432036935449
  0
ARC
  5
9B
100
AcDbEntity
  8
Contornos Visibles
 62
256
370
-1
 48
1.0
  6
BYLAYER
100
AcDbCircle
 10
758.671632168959718
 20
155.3844122726399632
 30
0.0
 40
24.0
100
AcDbArc
 50
81.2050908132988383
 51
98.7949091867011759
  0
ARC
  5
9C
100
AcDbEntity
  8
Referencias
 62
256
370
-1
 48
1.0
  6
BYLAYER
100
AcDbCircle
 10
758.671632168959718
 20
155.3844122726399632
 30
0.0
 40
24.0
100
AcDbArc
 50
278.7949091867012044
 51
21.2050908132988987
  0
ARC
  5
9D
100
AcDbEntity
  8
Referencias
 62
256
370
-1
 48
1.0
  6
BYLAYER
100
AcDbCircle
 10
758.671632168959718
 20
155.3844122726399632
 30
0.0
 40
24.0
100
AcDbArc
 50
38.7949091867012683
 51
81.2050908132988241
  0
ARC
  5
9E
100
AcDbEntity
  8
Referencias
 62
256
370
-1
 48
1.0
  6
BYLAYER
100
AcDbCircle
 10
758.671632168959718
 20
155.3844122726399632
 30
0.0
 40
24.0
100
AcDbArc
 50
98.7949091867011759
 51
261.2050908132987956
  0
LINE
  5
9F
100
AcDbEntity
  8
Referencias
 62
256
370
-1
 48
1.0
  6
BYLAYER
100
AcDbLine
 10
785.9261208689090381
 20
168.2330473142332323
 30
0.0
 11
783.4261208689090381
 21
172.5631743331554446
 31
0.0
  0
LINE
  5
A0
100
AcDbEntity
  8
Referencias 2
 62
256
370
-1
 48
1.0
  6
BYLAYER
100
AcDbLine
 10
758.6716321689596043
 20
155.3844122726399632
 30
0.0
 11
798.6716321689596043
 21
155.3844122726399632
 31
0.0
  0
LINE
  5
A1
100
AcDbEntity
  8
Contornos Visibles
 62
256
370
-1
 48
1.0
  6
BYLAYER
100
AcDbLine
 10
778.0931705732488126
 20
169.4841940443810984
 30
0.0
 11
783.4261208689089244
 21
172.5631743331554446
 31
0.0
  0
LINE
  5
A2
100
AcDbEntity
  8
Contornos Visibles
 62
256
370
-1
 48
1.0
  6
BYLAYER
100
AcDbLine
 10
783.4261208689090381
 20
172.5631743331554162
 30
0.0
 11
797.1716321689596043
 21
180.4991489823886468
 31
0.0
  0
LINE
  5
A3
100
AcDbEntity
  8
Contornos Visibles
 62
256
370
-1
 48
1.0
  6
BYLAYER
100
AcDbLine
 10
739.2500937646693728
 20
169.4841940443793362
 30
0.0
 11
733.91714346900892
 21
172.5631743331531993
 31
0.0
  0
LINE
  5
A4
100
AcDbEntity
  8
Contornos Visibles
 62
256
370
-1
 48
1.0
  6
BYLAYER
100
AcDbLine
 10
733.9171434690088063
 20
172.5631743331531709
 30
0.0
 11
720.1716321689580127
 21
180.4991489823848667
 31
0.0
  0
LINE
  5
A5
100
AcDbEntity
  8
Contornos Visibles
 62
256
370
-1
 48
1.0
  6
BYLAYER
100
AcDbLine
 10
739.2500937646693728
 20
141.2846305009005903
 30
0.0
 11
733.91714346900892
 21
138.2056502121267272
 31
0.0
  0
LINE
  5
A6
100
AcDbEntity
  8
Contornos Visibles
 62
256
370
-1
 48
1.0
  6
BYLAYER
100
AcDbLine
 10
733.9171434690088063
 20
138.2056502121267556
 30
0.0
 11
720.1716321689581264
 21
130.2696755628951166
 31
0.0
  0
LINE
  5
A7
100
AcDbEntity
  8
Contornos Visibles
 62
256
370
-1
 48
1.0
  6
BYLAYER
100
AcDbLine
 10
778.0931705732488126
 20
141.2846305008988281
 30
0.0
 11
783.4261208689089244
 21
138.2056502121244819
 31
0.0
  0
LINE
  5
A8
100
AcDbEntity
  8
Contornos Visibles
 62
256
370
-1
 48
1.0
  6
BYLAYER
100
AcDbLine
 10
783.4261208689090381
 20
138.2056502121245103
 30
0.0
 11
797.1716321689596043
 21
130.2696755628912797
 31
0.0
  0
LINE
  5
A9
100
AcDbEntity
  8
Contornos Visibles
 62
256
370
-1
 48
1.0
  6
BYLAYER
100
AcDbLine
 10
780.5931705732488126
 20
165.1540670254589145
 30
0.0
 11
785.9261208689089244
 21
168.2330473142332039
 31
0.0
  0
LINE
  5
AA
100
AcDbEntity
  8
Contornos Visibles
 62
256
370
-1
 48
1.0
  6
BYLAYER
100
AcDbLine
 10
785.9261208689090381
 20
168.2330473142332039
 30
0.0
 11
794.171632168959718
 21
172.9935954829235527
 31
0.0
  0
LINE
  5
AB
100
AcDbEntity
  8
Contornos Visibles
 62
256
370
-1
 48
1.0
  6
BYLAYER
100
AcDbLine
 10
736.7500937646697139
 20
165.1540670254568965
 30
0.0
 11
731.4171434690093747
 21
168.2330473142307312
 31
0.0
  0
LINE
  5
AC
100
AcDbEntity
  8
Contornos Visibles
 62
256
370
-1
 48
1.0
  6
BYLAYER
100
AcDbLine
 10
731.417143469009261
 20
168.2330473142307312
 30
0.0
 11
723.1716321689576716
 21
172.9935954829206253
 31
0.0
  0
LINE
  5
AD
100
AcDbEntity
  8
Contornos Visibles
 62
256
370
-1
 48
1.0
  6
BYLAYER
100
AcDbLine
 10
780.5931705732488126
 20
145.614757519821012
 30
0.0
 11
785.9261208689089244
 21
142.5357772310467226
 31
0.0
  0
LINE
  5
AE
100
AcDbEntity
  8
Contornos Visibles
 62
256
370
-1
 48
1.0
  6
BYLAYER
100
AcDbLine
 10
785.9261208689090381
 20
142.5357772310467226
 30
0.0
 11
794.1716321689596043
 21
137.7752290623564306
 31
0.0
  0
LINE
  5
AF
100
AcDbEntity
  8
Contornos Visibles
 62
256
370
-1
 48
1.0
  6
BYLAYER
100
AcDbLine
 10
736.7500937646697139
 20
145.61475751982303
 30
0.0
 11
731.4171434690093747
 21
142.5357772310491953
 31
0.0
  0
LINE
  5
B0
100
AcDbEntity
  8
Contornos Visibles
 62
256
370
-1
 48
1.0
  6
BYLAYER
100
AcDbLine
 10
731.417143469009261
 20
142.5357772310491953
 30
0.0
 11
723.171632168957558
 21
137.7752290623592444
 31
0.0
  0
LINE
  5
B1
100
AcDbEntity
  8
Contornos Visibles
 62
256
370
-1
 48
1.0
  6
BYLAYER
100
AcDbLine
 10
798.671632168959718
 20
170.3955192715702935
 30
0.0
 11
798.671632168959718
 21
140.373305273709633
 31
0.0
  0
LINE
  5
B2
100
AcDbEntity
  8
Contornos Visibles
 62
256
370
-1
 48
1.0
  6
BYLAYER
100
AcDbLine
 10
718.671632168957899
 20
170.3955192715671956
 30
0.0
 11
718.671632168957899
 21
140.3733052737127593
 31
0.0
  0
ARC
  5
B3
100
AcDbEntity
  8
Contornos Visibles
 62
256
370
-1
 48
1.0
  6
BYLAYER
100
AcDbCircle
 10
721.671632168957899
 20
170.3955192715671956
 30
0.0
 40
3.0
100
AcDbArc
 50
60.0000000000048459
 51
180.0
  0
ARC
  5
B4
100
AcDbEntity
  8
Contornos Visibles
 62
256
370
-1
 48
1.0
  6
BYLAYER
100
AcDbCircle
 10
721.6716321689577853
 20
140.3733052737127593
 30
0.0
 40
3.0
100
AcDbArc
 50
180.0
 51
299.9999999999943725
  0
ARC
  5
B5
100
AcDbEntity
  8
Contornos Visibles
 62
256
370
-1
 48
1.0
  6
BYLAYER
100
AcDbCircle
 10
795.6716321689596043
 20
140.373305273709633
 30
0.0
 40
3.0
100
AcDbArc
 50
239.9999999999991758
 51
0.0
  0
ARC
  5
B6
100
AcDbEntity
  8
Contornos Visibles
 62
256
370
-1
 48
1.0
  6
BYLAYER
100
AcDbCircle
 10
795.671632168959718
 20
170.3955192715702935
 30
0.0
 40
3.0
100
AcDbArc
 50
0.0
 51
120.00000000000027
  0
LINE
  5
B7
100
AcDbEntity
  8
Contornos Visibles
 62
256
370
-1
 48
1.0
  6
BYLAYER
100
AcDbLine
 10
798.6716321689596043
 20
183.0972251937419344
 30
0.0
 11
798.6716321689596043
 21
186.3844122726399632
 31
0.0
  0
LINE
  5
B8
100
AcDbEntity
  8
Contornos Visibles
 62
256
370
-1
 48
1.0
  6
BYLAYER
100
AcDbLine
 10
798.6716321689596043
 20
127.6715993515380205
 30
0.0
 11
798.6716321689596043
 21
124.3844122726399917
 31
0.0
  0
LINE
  5
B9
100
AcDbEntity
  8
Contornos Visibles
 62
256
370
-1
 48
1.0
  6
BYLAYER
100
AcDbLine
 10
718.671632168957899
 20
183.0972251937384101
 30
0.0
 11
718.671632168957899
 21
186.3844122726399632
 31
0.0
  0
LINE
  5
BA
100
AcDbEntity
  8
Contornos Visibles
 62
256
370
-1
 48
1.0
  6
BYLAYER
100
AcDbLine
 10
718.671632168957899
 20
127.6715993515416585
 30
0.0
 11
718.671632168957899
 21
124.3844122726399775
 31
0.0
  0
LINE
  5
BB
100
AcDbEntity
  8
Contornos Visibles
 62
256
370
-1
 48
1.0
  6
BYLAYER
100
AcDbLine
 10
800.6716321689596043
 20
122.3844122726399632
 30
0.0
 11
808.6716321689596043
 21
122.3844122726399632
 31
0.0
  0
LINE
  5
BC
100
AcDbEntity
  8
Contornos Visibles
 62
256
370
-1
 48
1.0
  6
BYLAYER
100
AcDbLine
 10
800.6716321689596043
 20
188.3844122726399632
 30
0.0
 11
808.6716321689596043
 21
188.3844122726399632
 31
0.0
  0
LINE
  5
BD
100
AcDbEntity
  8
Contornos Visibles
 62
256
370
-1
 48
1.0
  6
BYLAYER
100
AcDbLine
 10
708.671632168957899
 20
188.3844122726399632
 30
0.0
 11
716.6716321689577853
 21
188.3844122726399632
 31
0.0
  0
LINE
  5
BE
100
AcDbEntity
  8
Contornos Visibles
 62
256
370
-1
 48
1.0
  6
BYLAYER
100
AcDbLine
 10
708.671632168957899
 20
122.3844122726399632
 30
0.0
 11
716.6716321689577853
 21
122.3844122726399632
 31
0.0
  0
ARC
  5
BF
100
AcDbEntity
  8
Contornos Visibles
 62
256
370
-1
 48
1.0
  6
BYLAYER
100
AcDbCircle
 10
716.6716321689577853
 20
124.3844122726399775
 30
0.0
 40
2.0
100
AcDbArc
 50
270.0
 51
0.0
  0
ARC
  5
C0
100
AcDbEntity
  8
Contornos Visibles
 62
256
370
-1
 48
1.0
  6
BYLAYER
100
AcDbCircle
 10
716.6716321689577853
 20
186.3844122726399632
 30
0.0
 40
2.0
100
AcDbArc
 50
0.0
 51
90.0
  0
ARC
  5
C1
100
AcDbEntity
  8
Contornos Visibles
 62
256
370
-1
 48
1.0
  6
BYLAYER
100
AcDbCircle
 10
800.6716321689596043
 20
186.3844122726399632
 30
0.0
 40
2.0
100
AcDbArc
 50
90.0
 51
180.0
  0
ARC
  5
C2
100
AcDbEntity
  8
Contornos Visibles
 62
256
370
-1
 48
1.0
  6
BYLAYER
100
AcDbCircle
 10
800.6716321689596043
 20
124.3844122726399917
 30
0.0
 40
2.0
100
AcDbArc
 50
180.0
 51
270.0
  0
LINE
  5
C3
100
AcDbEntity
  8
Contornos Visibles
 62
256
370
-1
 48
1.0
  6
BYLAYER
100
AcDbLine
 10
808.6716321689596043
 20
188.3844122726399632
 30
0.0
 11
808.6716321689596043
 21
122.3844122726399632
 31
0.0
  0
LINE
  5
C4
100
AcDbEntity
  8
Contornos Visibles
 62
256
370
-1
 48
1.0
  6
BYLAYER
100
AcDbLine
 10
708.671632168957899
 20
188.3844122726399632
 30
0.0
 11
708.671632168957899
 21
122.3844122726399632
 31
0.0
  0
LINE
  5
C5
100
AcDbEntity
  8
Ejes de revoluci\U+00f3n
 62
256
370
-1
 48
1.0
  6
BYLAYER
100
AcDbLine
 10
706.7101079418932841
 20
125.3844122726400201
 30
0.0
 11
810.6331563960259246
 21
185.3844122726399348
 31
0.0
  0
LINE
  5
C6
100
AcDbEntity
  8
Ejes de revoluci\U+00f3n
 62
256
370
-1
 48
1.0
  6
BYLAYER
100
AcDbLine
 10
810.6331563960258109
 20
125.3844122726399917
 30
0.0
 11
706.7101079418933978
 21
185.3844122726399632
 31
0.0
  0
LINE
  5
C7
100
AcDbEntity
  8
Ejes de revoluci\U+00f3n
 62
256
370
-1
 48
1.0
  6
BYLAYER
100
AcDbLine
 10
708.671632168959718
 20
155.3844122726399632
 30
0.0
 11
808.6716321689594906
 21
155.3844122726399632
 31
0.0
  0
LINE
  5
C8
100
AcDbEntity
  8
Ejes de revoluci\U+00f3n
 62
256
370
-1
 48
1.0
  6
BYLAYER
100
AcDbLine
 10
758.6716321689596043
 20
115.3844122726400343
 30
0.0
 11
758.6716321689596043
 21
195.3844122726399064
 31
0.0
  0
CIRCLE
  5
C9
100
AcDbEntity
  8
Ejes de revoluci\U+00f3n
 62
256
370
-1
 48
1.0
  6
BYLAYER
100
AcDbCircle
 10
758.6716321689596043
 20
155.3844122726399917
 30
0.0
 40
20.0
  0
LINE
  5
CA
100
AcDbEntity
  8
Ejes de revoluci\U+00f3n
 62
256
370
-1
 48
1.0
  6
BYLAYER
100
AcDbLine
 10
765.6716321689596043
 20
167.5087679256221236
 30
0.0
 11
771.6716321689596043
 21
177.9010727710353876
 31
0.0
  0
LINE
  5
CB
100
AcDbEntity
  8
Ejes de revoluci\U+00f3n
 62
256
370
-1
 48
1.0
  6
BYLAYER
100
AcDbLine
 10
745.6716321689596043
 20
132.8677517742445673
 30
0.0
 11
751.6716321689596043
 21
143.2600566196578313
 31
0.0
  0
LINE
  5
CC
100
AcDbEntity
  8
Ejes de revoluci\U+00f3n
 62
256
370
-1
 48
1.0
  6
BYLAYER
100
AcDbLine
 10
751.6716321689596043
 20
167.5087679256220952
 30
0.0
 11
745.6716321689596043
 21
177.9010727710353592
 31
0.0
  0
LINE
  5
CD
100
AcDbEntity
  8
Ejes de revoluci\U+00f3n
 62
256
370
-1
 48
1.0
  6
BYLAYER
100
AcDbLine
 10
771.6716321689596043
 20
132.8677517742445673
 30
0.0
 11
765.6716321689596043
 21
143.2600566196578313
 31
0.0
  0
MTEXT
  5
CE
100
AcDbEntity
  8
Cotas
 62
256
370
-1
 48
1.0
  6
BYLAYER
100
AcDbMText
 10
731.798830324175924
 20
122.1514702987993957
 30
0.0
 40
2.5
 41
0.0
 71
1
 72
1
  1
R9
  7
textstyle5
 50
0.0
 73
2
 44
1.0
  0
MTEXT
  5
CF
100
AcDbEntity
  8
Cotas
 62
256
370
-1
 48
1.0
  6
BYLAYER
100
AcDbMText
 10
749.5988303241758786
 20
119.4514702987993928
 30
0.0
 40
2.5
 41
0.0
 71
1
 72
1
  1
R24
  7
textstyle6
 50
0.0
 73
2
 44
1.0
  0
DIMENSION
  5
D0
100
AcDbEntity
  8
Cotas
 62
256
370
-1
 48
1.0
  6
BYLAYER
100
AcDbDimension
 10
727.2943878189834095
 20
140.155503146704234
 30
0.0
 11
730.1681854510792391
 21
138.9279396372428721
 31
0.0
 70
1
 71
8
 72
2
 74
0
 75
0
 41
1.0
 42
0.0
  1

  3
Standard
100
AcDbAlignedDimension
 13
727.2943878189834095
 23
140.155503146704234
 33
0.0
 14
729.7943878189830684
 24
135.8253761277818228
 34
0.0
1001
ACAD
1000
DSTYLE
1002
{
1070
144
1040
1.0
1070
40
1040
1.0
1002
}
  0
LEADER
  5
D1
100
AcDbEntity
  8
Cotas
 62
256
370
-1
 48
1.0
  6
BYLAYER
100
AcDbLeader
  3
Standard
 71
1
 72
0
 73
3
 74
0
 75
0
 40
1.0
 41
10.0
 76
3
 10
744.1173594204607298
 20
130.3012629111339606
 10
736.0840548110411419
 20
119.3486053601909305
 10
731.548830324175924
 20
119.3486053601909305
1001
ACAD
1000
DSTYLE
1002
{
1070
40
1040
1.0
1002
}
  0
LEADER
  5
D2
100
AcDbEntity
  8
Cotas
 62
256
370
-1
 48
1.0
  6
BYLAYER
100
AcDbLeader
  3
Standard
 71
1
 72
0
 73
3
 74
0
 75
0
 40
1.0
 41
10.0
 76
3
 10
757.6041101457452669
 20
131.4081657621881618
 10
755.811900516710466
 20
116.6912383751977558
 10
749.3488303241758786
 20
116.6912383751977558
1001
ACAD
1000
DSTYLE
1002
{
1070
40
1040
1.0
1002
}
  0
MTEXT
  5
D3
100
AcDbEntity
  8
Cotas
 62
256
370
-1
 48
1.0
  6
BYLAYER
100
AcDbMText
 10
746.3753673612130797
 20
166.3902295580586213
 30
0.0
 40
2.5
 41
0.0
 71
1
 72
1
  1
R20
  7
textstyle4
 50
0.0
 73
2
 44
1.0
  0
LEADER
  5
D4
100
AcDbEntity
  8
Cotas
 62
256
370
-1
 48
1.0
  6
BYLAYER
100
AcDbLeader
  3
Standard
 71
1
 72
0
 73
3
 74
0
 75
0
 40
1.0
 41
10.0
 76
3
 10
744.0809503013889525
 20
165.9253800953469806
 10
746.1253673612130797
 20
163.5873646194501418
 10
752.5901428743478618
 20
163.5873646194501418
1001
ACAD
1000
DSTYLE
1002
{
1070
40
1040
1.0
1002
}
  0
MTEXT
  5
D5
100
AcDbEntity
  8
Cotas
 62
256
370
-1
 48
1.0
  6
BYLAYER
100
AcDbMText
 10
773.1471266204725907
 20
169.2957851136141016
 30
0.0
 40
2.5
 41
0.0
 71
1
 72
1
  1
R10
  7
textstyle1
 50
0.0
 73
2
 44
1.0
  0
LEADER
  5
D6
100
AcDbEntity
  8
Cotas
 62
256
370
-1
 48
1.0
  6
BYLAYER
100
AcDbLeader
  3
Standard
 71
1
 72
0
 73
3
 74
0
 75
0
 40
1.0
 41
10.0
 76
3
 10
765.3545588649002411
 20
162.8233967985468666
 10
772.8971266204725907
 20
166.4929201750056507
 10
779.3619021336073729
 20
166.4929201750056507
1001
ACAD
1000
DSTYLE
1002
{
1070
40
1040
1.0
1002
}
  0
MTEXT
  5
D7
100
AcDbEntity
  8
Cotas
 62
256
370
-1
 48
1.0
  6
BYLAYER
100
AcDbMText
 10
765.5082377315834492
 20
191.0550443728733114
 30
0.0
 40
2.5
 41
0.0
 71
1
 72
1
  1
R18
  7
textstyle0
 50
0.0
 73
2
 44
1.0
  0
MTEXT
  5
D8
100
AcDbEntity
  8
Cotas
 62
256
370
-1
 48
1.0
  6
BYLAYER
100
AcDbMText
 10
778.0082377315834492
 20
183.994859187688121
 30
0.0
 40
2.5
 41
0.0
 71
1
 72
1
  1
R5
  7
textstyle3
 50
0.0
 73
2
 44
1.0
  0
LEADER
  5
D9
100
AcDbEntity
  8
Cotas
 62
256
370
-1
 48
1.0
  6
BYLAYER
100
AcDbLeader
  3
Standard
 71
1
 72
0
 73
3
 74
0
 75
0
 40
1.0
 41
10.0
 76
3
 10
761.6253753287003292
 20
173.1404084808588948
 10
765.2582377315834492
 20
188.252179434264832
 10
771.7366558095204709
 20
188.252179434264832
1001
ACAD
1000
DSTYLE
1002
{
1070
40
1040
1.0
1002
}
  0
LEADER
  5
DA
100
AcDbEntity
  8
Cotas
 62
256
370
-1
 48
1.0
  6
BYLAYER
100
AcDbLeader
  3
Standard
 71
1
 72
0
 73
3
 74
0
 75
0
 40
1.0
 41
10.0
 76
3
 10
771.8580947530166441
 20
176.5580302871190668
 10
777.7582377315834492
 20
181.2022261726812928
 10
782.3071047832507929
 20
181.2022261726812928
1001
ACAD
1000
DSTYLE
1002
{
1070
40
1040
1.0
1002
}
  0
MTEXT
  5
DB
100
AcDbEntity
  8
Cotas
 62
256
370
-1
 48
1.0
  6
BYLAYER
100
AcDbMText
 10
784.7790710649167067
 20
166.1129147432437207
 30
0.0
 40
2.5
 41
0.0
 71
1
 72
1
  1
R3
  7
textstyle2
 50
0.0
 73
2
 44
1.0
  0
LEADER
  5
DC
100
AcDbEntity
  8
Cotas
 62
256
370
-1
 48
1.0
  6
BYLAYER
100
AcDbLeader
  3
Standard
 71
1
 72
0
 73
3
 74
0
 75
0
 40
1.0
 41
10.0
 76
3
 10
780.8284975320947296
 20
157.4695817634267598
 10
784.5290710649167067
 20
163.3083444840349898
 10
789.0591795899811132
 20
163.3083444840349898
1001
ACAD
1000
DSTYLE
1002
{
1070
40
1040
1.0
1002
}
  0
DIMENSION
  5
DD
100
AcDbEntity
  8
Cotas
 62
256
370
-1
 48
1.0
  6
BYLAYER
100
AcDbDimension
 10
778.6716321689596043
 20
144.0643036321325781
 30
0.0
 11
784.1424969908426874
 21
146.0318962247251875
 31
0.0
 70
128
 71
8
 72
2
 74
0
 75
0
 41
1.0
 42
0.0
  1

  3
Standard
100
AcDbAlignedDimension
 13
778.6716321689596043
 23
155.3844122726399632
 33
0.0
 14
780.6716321689596043
 24
155.3844122726401054
 34
0.0
 50
0.0
100
AcDbRotatedDimension
1001
ACAD
1000
DSTYLE
1002
{
1070
279
1070
2
1070
144
1040
1.0
1070
40
1040
1.0
1002
}
  0
DIMENSION
  5
DE
100
AcDbEntity
  8
Cotas
 62
256
370
-1
 48
1.0
  6
BYLAYER
100
AcDbDimension
 10
792.3866577608403077
 20
174.8497913738473812
 30
0.0
 11
795.1931055192719668
 21
165.1703115632508911
 31
0.0
 70
2
 71
8
 72
2
 74
0
 75
0
 41
1.0
 42
0.0
  1

  3
Standard
100
AcDb2LineAngularDimension
 13
795.7015378854896426
 23
155.3844122726399917
 33
0.0
 14
708.671632168959718
 24
155.3844122726399632
 34
0.0
 15
706.7101079418932841
 25
125.3844122726400201
 35
0.0
 16
793.5452747686206294
 26
164.0527295580585303
 36
0.0
  0
MTEXT
  5
DF
100
AcDbEntity
  8
Cotas
 62
256
370
-1
 48
1.0
  6
BYLAYER
100
AcDbMText
 10
792.8786081019537733
 20
144.0527295580585019
 30
0.0
 40
2.5
 41
0.0
 71
1
 72
1
  1
R3
  7
textstyle9
 50
0.0
 73
2
 44
1.0
  0
LEADER
  5
E0
100
AcDbEntity
  8
Cotas
 62
256
370
-1
 48
1.0
  6
BYLAYER
100
AcDbLeader
  3
Standard
 71
1
 72
0
 73
3
 74
0
 75
0
 40
1.0
 41
10.0
 76
3
 10
797.1716321689596043
 20
137.7752290623563169
 10
797.1587166270181797
 20
141.2481592988497709
 10
792.6286081019537733
 20
141.2481592988497709
1001
ACAD
1000
DSTYLE
1002
{
1070
40
1040
1.0
1002
}
  0
ARC
  5
E1
100
AcDbEntity
  8
Contornos Visibles
 62
256
370
-1
 48
1.0
  6
BYLAYER
100
AcDbCircle
 10
795.6716321689596043
 20
127.6715993515380205
 30
0.0
 40
3.0
100
AcDbArc
 50
0.0
 51
59.99999999999946
  0
ARC
  5
E2
100
AcDbEntity
  8
Contornos Visibles
 62
256
370
-1
 48
1.0
  6
BYLAYER
100
AcDbCircle
 10
721.671632168957899
 20
127.6715993515416585
 30
0.0
 40
3.0
100
AcDbArc
 50
119.9999999999948841
 51
180.0
  0
ARC
  5
E3
100
AcDbEntity
  8
Contornos Visibles
 62
256
370
-1
 48
1.0
  6
BYLAYER
100
AcDbCircle
 10
721.671632168957899
 20
183.0972251937384101
 30
0.0
 40
3.0
100
AcDbArc
 50
180.0
 51
240.0000000000042917
  0
ARC
  5
E4
100
AcDbEntity
  8
Contornos Visibles
 62
256
370
-1
 48
1.0
  6
BYLAYER
100
AcDbCircle
 10
795.6716321689596043
 20
183.0972251937419344
 30
0.0
 40
3.0
100
AcDbArc
 50
300.0000000000002274
 51
0.0
  0
MTEXT
  5
E5
100
AcDbEntity
  8
Cotas
 62
256
370
-1
 48
1.0
  6
BYLAYER
100
AcDbMText
 10
784.1202747686205612
 20
124.1027295580584848
 30
0.0
 40
2.5
 41
0.0
 71
1
 72
1
  1
R3
  7
textstyle7
 50
0.0
 73
2
 44
1.0
  0
MTEXT
  5
E6
100
AcDbEntity
  8
Cotas
 62
256
370
-1
 48
1.0
  6
BYLAYER
100
AcDbMText
 10
790.9952747686205612
 20
114.1721740025029419
 30
0.0
 40
2.5
 41
0.0
 71
1
 72
1
  1
R2
  7
textstyle8
 50
0.0
 73
2
 44
1.0
  0
LEADER
  5
E7
100
AcDbEntity
  8
Cotas
 62
256
370
-1
 48
1.0
  6
BYLAYER
100
AcDbLeader
  3
Standard
 71
1
 72
0
 73
3
 74
0
 75
0
 40
1.0
 41
10.0
 76
3
 10
798.2697083803129772
 20
129.1715993515380205
 10
788.4003832936849676
 20
121.2981592988497539
 10
783.8702747686205612
 20
121.2981592988497539
1001
ACAD
1000
DSTYLE
1002
{
1070
40
1040
1.0
1002
}
  0
LEADER
  5
E8
100
AcDbEntity
  8
Cotas
 62
256
370
-1
 48
1.0
  6
BYLAYER
100
AcDbLeader
  3
Standard
 71
1
 72
0
 73
3
 74
0
 75
0
 40
1.0
 41
10.0
 76
3
 10
799.2574186065864978
 20
122.9701987102668994
 10
795.2498034846807968
 20
111.4119420789013049
 10
790.7452747686205612
 20
111.4119420789013049
1001
ACAD
1000
DSTYLE
1002
{
1070
40
1040
1.0
1002
}
  0
DIMENSION
  5
E9
100
AcDbEntity
  8
Cotas
 62
256
370
-1
 48
1.0
  6
BYLAYER
100
AcDbDimension
 10
825.0591636575094299
 20
122.3844122726399632
 30
0.0
 11
823.1841636575094299
 21
155.3844122726399632
 31
0.0
 70
0
 71
8
 72
2
 74
0
 75
0
 41
1.0
 42
0.0
  1

  3
Standard
100
AcDbAlignedDimension
 13
808.6716321689596043
 23
122.3844122726399632
 33
0.0
 14
808.6716321689596043
 24
188.3844122726399632
 34
0.0
 50
90.0
100
AcDbRotatedDimension
1001
ACAD
1000
DSTYLE
1002
{
1070
144
1040
1.0
1070
40
1040
1.0
1002
}
  0
DIMENSION
  5
EA
100
AcDbEntity
  8
Cotas
 62
256
370
-1
 48
1.0
  6
BYLAYER
100
AcDbDimension
 10
758.6716321689596043
 20
205.5526495580585049
 30
0.0
 11
778.6716321689596043
 21
207.4276495580585049
 31
0.0
 70
0
 71
8
 72
2
 74
0
 75
0
 41
1.0
 42
0.0
  1

  3
Standard
100
AcDbAlignedDimension
 13
758.6716321689596043
 23
179.3844122726399632
 33
0.0
 14
798.6716321689596043
 24
186.3844122726399632
 34
0.0
 50
0.0
100
AcDbRotatedDimension
1001
ACAD
1000
DSTYLE
1002
{
1070
144
1040
1.0
1070
40
1040
1.0
1002
}
  0
DIMENSION
  5
EB
100
AcDbEntity
  8
Cotas
 62
256
370
-1
 48
1.0
  6
BYLAYER
100
AcDbDimension
 10
798.6716321689596043
 20
205.5526495580585049
 30
0.0
 11
803.6716321689596043
 21
207.4276495580585049
 31
0.0
 70
0
 71
8
 72
2
 74
0
 75
0
 41
1.0
 42
0.0
  1

  3
Standard
100
AcDbAlignedDimension
 13
798.6716321689596043
 23
187.0094122726399632
 33
0.0
 14
808.6716321689596043
 24
188.3844122726399632
 34
0.0
 50
0.0
100
AcDbRotatedDimension
1001
ACAD
1000
DSTYLE
1002
{
1070
144
1040
1.0
1070
40
1040
1.0
1002
}
  0
ENDSEC
  0
SECTION
  2
OBJECTS
  0
DICTIONARY
  5
C
100
AcDbDictionary
280
0
281
1
  3
ACAD_GROUP
350
D
  3
ACAD_LAYOUT
350
1A
  3
ACAD_MLINESTYLE
350
17
  3
ACAD_PLOTSETTINGS
350
19
  3
ACAD_PLOTSTYLENAME
350
E
  3
AcDbVariableDictionary
350
EC
  3
QCAD_OBJECTS
350
ED
  0
DICTIONARY
  5
D
100
AcDbDictionary
280
0
281
1
  0
ACDBDICTIONARYWDFLT
  5
E
100
AcDbDictionary
281
1
  3
Normal
350
F
100
AcDbDictionaryWithDefault
340
F
  0
ACDBPLACEHOLDER
  5
F
  0
DICTIONARY
  5
17
100
AcDbDictionary
280
0
281
1
  3
Standard
350
18
  0
MLINESTYLE
  5
18
100
AcDbMlineStyle
  2
STANDARD
 70
0
  3

 62
256
 51
90.0
 52
90.0
 71
2
 49
0.5
 62
256
  6
BYLAYER
 49
-0.5
 62
256
  6
BYLAYER
  0
DICTIONARY
  5
19
100
AcDbDictionary
280
0
281
1
  0
DICTIONARY
  5
1A
100
AcDbDictionary
281
1
  3
Layout1
350
1E
  3
Layout2
350
26
  3
Model
350
22
  0
LAYOUT
  5
1E
100
AcDbPlotSettings
  1

  2
none_device
  4

  6

 40
0.0
 41
0.0
 42
0.0
 43
0.0
 44
0.0
 45
0.0
 46
0.0
 47
0.0
 48
0.0
 49
0.0
140
0.0
141
0.0
142
1.0
143
1.0
 70
688
 72
0
 73
0
 74
5
  7

 75
16
147
1.0
148
0.0
149
0.0
100
AcDbLayout
  1
Layout1
 70
1
 71
1
 10
0.0
 20
0.0
 11
420.0
 21
297.0
 12
0.0
 22
0.0
 32
0.0
 14
100000000000000000000.0
 24
100000000000000000000.0
 34
100000000000000000000.0
 15
-100000000000000000000.0
 25
-100000000000000000000.0
 35
-100000000000000000000.0
146
0.0
 13
0.0
 23
0.0
 33
0.0
 16
1.0
 26
0.0
 36
0.0
 17
0.0
 27
1.0
 37
0.0
 76
0
330
1B
  0
LAYOUT
  5
22
100
AcDbPlotSettings
  1

  2
none_device
  4

  6

 40
0.0
 41
0.0
 42
0.0
 43
0.0
 44
0.0
 45
0.0
 46
0.0
 47
0.0
 48
0.0
 49
0.0
140
0.0
141
0.0
142
1.0
143
1.0
 70
1712
 72
0
 73
0
 74
0
  7

 75
0
147
1.0
148
0.0
149
0.0
100
AcDbLayout
  1
Model
 70
1
 71
0
 10
0.0
 20
0.0
 11
12.0
 21
9.0
 12
0.0
 22
0.0
 32
0.0
 14
0.0
 24
0.0
 34
0.0
 15
0.0
 25
0.0
 35
0.0
146
0.0
 13
0.0
 23
0.0
 33
0.0
 16
1.0
 26
0.0
 36
0.0
 17
0.0
 27
1.0
 37
0.0
 76
0
330
1F
  0
LAYOUT
  5
26
100
AcDbPlotSettings
  1

  2
none_device
  4

  6

 40
0.0
 41
0.0
 42
0.0
 43
0.0
 44
0.0
 45
0.0
 46
0.0
 47
0.0
 48
0.0
 49
0.0
140
0.0
141
0.0
142
1.0
143
1.0
 70
688
 72
0
 73
0
 74
5
  7

 75
16
147
1.0
148
0.0
149
0.0
100
AcDbLayout
  1
Layout2
 70
1
 71
2
 10
0.0
 20
0.0
 11
12.0
 21
9.0
 12
0.0
 22
0.0
 32
0.0
 14
0.0
 24
0.0
 34
0.0
 15
0.0
 25
0.0
 35
0.0
146
0.0
 13
0.0
 23
0.0
 33
0.0
 16
1.0
 26
0.0
 36
0.0
 17
0.0
 27
1.0
 37
0.0
 76
0
330
23
  0
DICTIONARY
  5
EC
100
AcDbDictionary
281
1
  3
DIMASSOC
350
EF
  3
HIDETEXT
350
EE
  0
DICTIONARYVAR
  5
EE
100
DictionaryVariables
280
0
  1
2
  0
DICTIONARYVAR
  5
EF
100
DictionaryVariables
280
0
  1
1
  0
DICTIONARY
  5
ED
100
AcDbDictionary
281
1
  3
ColorSettings/BackgroundColor
350
F0
  3
ColorSettings/ColorMode
350
F1
  3
Grid/DisplayGrid00
350
F2
  3
Grid/DisplayGrid01
350
F3
  3
Grid/DisplayGrid02
350
F4
  3
Grid/DisplayGrid03
350
F5
  3
Grid/GridSpacingX00
350
F6
  3
Grid/GridSpacingX01
350
F7
  3
Grid/GridSpacingX02
350
F8
  3
Grid/GridSpacingX03
350
F9
  3
Grid/GridSpacingY00
350
FA
  3
Grid/GridSpacingY01
350
FB
  3
Grid/GridSpacingY02
350
FC
  3
Grid/GridSpacingY03
350
FD
  3
Grid/IsometricGrid00
350
FE
  3
Grid/IsometricGrid01
350
FF
  3
Grid/IsometricGrid02
350
100
  3
Grid/IsometricGrid03
350
101
  3
Grid/IsometricProjection00
350
102
  3
Grid/IsometricProjection01
350
103
  3
Grid/IsometricProjection02
350
104
  3
Grid/IsometricProjection03
350
105
  3
Grid/MetaGridSpacingX00
350
106
  3
Grid/MetaGridSpacingX01
350
107
  3
Grid/MetaGridSpacingX02
350
108
  3
Grid/MetaGridSpacingX03
350
109
  3
Grid/MetaGridSpacingY00
350
10A
  3
Grid/MetaGridSpacingY01
350
10B
  3
Grid/MetaGridSpacingY02
350
10C
  3
Grid/MetaGridSpacingY03
350
10D
  3
MultiPageSettings/Columns
350
10E
  3
MultiPageSettings/GlueMarginsBottom
350
10F
  3
MultiPageSettings/GlueMarginsLeft
350
110
  3
MultiPageSettings/GlueMarginsRight
350
111
  3
MultiPageSettings/GlueMarginsTop
350
112
  3
MultiPageSettings/PrintCropMarks
350
113
  3
MultiPageSettings/Rows
350
114
  3
PageSettings/OffsetX
350
115
  3
PageSettings/OffsetY
350
116
  3
PageSettings/PageOrientation
350
117
  3
PageSettings/PaperHeight
350
118
  3
PageSettings/PaperWidth
350
119
  3
PageSettings/Scale
350
11A
  3
PageSettings/ShowPaperBorders
350
11B
  3
PageTagSettings/EnablePageTags
350
11C
  3
PageTagSettings/TagAlignment
350
11D
  3
PageTagSettings/TagFont
350
11E
  3
PageTagSettings/TagPosition
350
11F
  3
QCADVersion
350
120
  3
UnitSettings/PaperUnit
350
121
  3
ViewportCenter
350
122
  3
ViewportHeight
350
123
  3
ViewportWidth
350
124
  0
XRECORD
  5
F0
330
ED
100
AcDbXrecord
280
1
1000
Blanca
  0
XRECORD
  5
F1
330
ED
100
AcDbXrecord
280
1
1000
FullColor
  0
XRECORD
  5
F2
330
ED
100
AcDbXrecord
280
1
290
0
  0
XRECORD
  5
F3
330
ED
100
AcDbXrecord
280
1
290
1
  0
XRECORD
  5
F4
330
ED
100
AcDbXrecord
280
1
290
1
  0
XRECORD
  5
F5
330
ED
100
AcDbXrecord
280
1
290
1
  0
XRECORD
  5
F6
330
ED
100
AcDbXrecord
280
1
1000
auto
  0
XRECORD
  5
F7
330
ED
100
AcDbXrecord
280
1
1000
auto
  0
XRECORD
  5
F8
330
ED
100
AcDbXrecord
280
1
1000
auto
  0
XRECORD
  5
F9
330
ED
100
AcDbXrecord
280
1
1000
auto
  0
XRECORD
  5
FA
330
ED
100
AcDbXrecord
280
1
1000
auto
  0
XRECORD
  5
FB
330
ED
100
AcDbXrecord
280
1
1000
auto
  0
XRECORD
  5
FC
330
ED
100
AcDbXrecord
280
1
1000
auto
  0
XRECORD
  5
FD
330
ED
100
AcDbXrecord
280
1
1000
auto
  0
XRECORD
  5
FE
330
ED
100
AcDbXrecord
280
1
290
0
  0
XRECORD
  5
FF
330
ED
100
AcDbXrecord
280
1
290
0
  0
XRECORD
  5
100
330
ED
100
AcDbXrecord
280
1
290
0
  0
XRECORD
  5
101
330
ED
100
AcDbXrecord
280
1
290
0
  0
XRECORD
  5
102
330
ED
100
AcDbXrecord
280
1
 90
65537
  0
XRECORD
  5
103
330
ED
100
AcDbXrecord
280
1
 90
65537
  0
XRECORD
  5
104
330
ED
100
AcDbXrecord
280
1
 90
65537
  0
XRECORD
  5
105
330
ED
100
AcDbXrecord
280
1
 90
65537
  0
XRECORD
  5
106
330
ED
100
AcDbXrecord
280
1
1000
auto
  0
XRECORD
  5
107
330
ED
100
AcDbXrecord
280
1
1000
auto
  0
XRECORD
  5
108
330
ED
100
AcDbXrecord
280
1
1000
auto
  0
XRECORD
  5
109
330
ED
100
AcDbXrecord
280
1
1000
auto
  0
XRECORD
  5
10A
330
ED
100
AcDbXrecord
280
1
1000
1
  0
XRECORD
  5
10B
330
ED
100
AcDbXrecord
280
1
1000
auto
  0
XRECORD
  5
10C
330
ED
100
AcDbXrecord
280
1
1000
auto
  0
XRECORD
  5
10D
330
ED
100
AcDbXrecord
280
1
1000
auto
  0
XRECORD
  5
10E
330
ED
100
AcDbXrecord
280
1
 90
1
  0
XRECORD
  5
10F
330
ED
100
AcDbXrecord
280
1
 40
10.0
  0
XRECORD
  5
110
330
ED
100
AcDbXrecord
280
1
 40
10.0
  0
XRECORD
  5
111
330
ED
100
AcDbXrecord
280
1
 40
10.0
  0
XRECORD
  5
112
330
ED
100
AcDbXrecord
280
1
 40
10.0
  0
XRECORD
  5
113
330
ED
100
AcDbXrecord
280
1
290
0
  0
XRECORD
  5
114
330
ED
100
AcDbXrecord
280
1
 90
1
  0
XRECORD
  5
115
330
ED
100
AcDbXrecord
280
1
 40
793.1665914866936191
  0
XRECORD
  5
116
330
ED
100
AcDbXrecord
280
1
 40
306.6308471493692309
  0
XRECORD
  5
117
330
ED
100
AcDbXrecord
280
1
1000
Portrait
  0
XRECORD
  5
118
330
ED
100
AcDbXrecord
280
1
 40
279.3999999999999773
  0
XRECORD
  5
119
330
ED
100
AcDbXrecord
280
1
 40
215.9000000000000057
  0
XRECORD
  5
11A
330
ED
100
AcDbXrecord
280
1
 90
1
  0
XRECORD
  5
11B
330
ED
100
AcDbXrecord
280
1
290
1
  0
XRECORD
  5
11C
330
ED
100
AcDbXrecord
280
1
290
0
  0
XRECORD
  5
11D
330
ED
100
AcDbXrecord
280
1
1000
Inside
  0
XRECORD
  5
11E
330
ED
100
AcDbXrecord
280
1
1000
Arial,10,-1,5,50,0,0,0,0,0
  0
XRECORD
  5
11F
330
ED
100
AcDbXrecord
280
1
1000
TopLeft
  0
XRECORD
  5
120
330
ED
100
AcDbXrecord
280
1
1000
3.28.1
  0
XRECORD
  5
121
330
ED
100
AcDbXrecord
280
1
 90
4
  0
XRECORD
  5
123
330
ED
100
AcDbXrecord
280
1
 40
339.2669593062606737
  0
XRECORD
  5
124
330
ED
100
AcDbXrecord
280
1
 40
625.1368156123037352
  0
IMAGEDEF
  5
6A
100
AcDbRasterImageDef
 90
0
  1
C:/Users/iamth/Documents/QCad/StudyCadCam/2D CAD EXERCISES 26b.png
 10
200.0
 20
141.0
 11
1.0
 21
1.0
280
1
281
0
  0
ENDSEC
  0
EOF
