999
dxflib 3.26.4.0
  0
SECTION
  2
HEADER
  9
$ACADVER
  1
AC1015
  9
$HANDSEED
  5
FFFF
  9
$DIMADEC
 70
0
  9
$DIMASZ
 40
2.5
  9
$DIMATFIT
 70
0
  9
$DIMAUNIT
 70
0
  9
$DIMAZIN
 70
2
  9
$DIMBLK
  1
0
  9
$DIMBLK1
  1
0
  9
$DIMBLK2
  1
0
  9
$DIMDEC
 70
4
  9
$DIMDLI
 40
5.0
  9
$DIMDSEP
 70
46
  9
$DIMEXE
 40
1.25
  9
$DIMEXO
 40
0.625
  9
$DIMGAP
 40
0.625
  9
$DIMLFAC
 40
1.0
  9
$DIMLUNIT
 70
2
  9
$DIMSCALE
 40
1.0
  9
$DIMTAD
 70
1
  9
$DIMTIH
 70
0
  9
$DIMTSZ
 40
0.0
  9
$DIMTXT
 40
2.5
  9
$DIMZIN
 70
8
  9
$DWGCODEPAGE
  3
ANSI_1252
  9
$INSUNITS
 70
4
  9
$LTSCALE
 40
1.0
  9
$MAXACTVP
 70
64
  9
$MEASUREMENT
 70
1
  9
$MIRRTEXT
 70
0
  9
$PDMODE
 70
0
  9
$PDSIZE
 40
0.0
  0
ENDSEC
  0
SECTION
  2
TABLES
  0
TABLE
  2
VPORT
  5
8
100
AcDbSymbolTable
 70
1
  0
VPORT
  5
30
100
AcDbSymbolTableRecord
100
AcDbViewportTableRecord
  2
*Active
 70
0
 10
0.0
 20
0.0
 11
1.0
 21
1.0
 12
286.3055555555554861
 22
148.5
 13
0.0
 23
0.0
 14
10.0
 24
10.0
 15
10.0
 25
10.0
 16
0.0
 26
0.0
 36
1.0
 17
0.0
 27
0.0
 37
0.0
 40
297.0
 41
1.92798353909465
 42
50.0
 43
0.0
 44
0.0
 50
0.0
 51
0.0
 71
0
 72
100
 73
1
 74
3
 75
1
 76
1
 77
0
 78
0
281
0
 65
1
110
0.0
120
0.0
130
0.0
111
1.0
121
0.0
131
0.0
112
0.0
122
1.0
132
0.0
 79
0
146
0.0
  0
ENDTAB
  0
TABLE
  2
LTYPE
  5
5
100
AcDbSymbolTable
 70
41
  0
LTYPE
  5
16
100
AcDbSymbolTableRecord
100
AcDbLinetypeTableRecord
  2
Continuous
 70
0
  3
Solid line
 72
65
 73
0
 40
0.0
  0
LTYPE
  5
31
100
AcDbSymbolTableRecord
100
AcDbLinetypeTableRecord
  2
DASHDOTX2
 70
0
  3
Dash dot (2x) ____  .  ____  .  ____  .  ___
 72
65
 73
4
 40
50.7999999999999972
 49
25.3999999999999986
 74
0
 49
-12.6499999999999986
 74
0
 49
0.1
 74
0
 49
-12.6499999999999986
 74
0
  0
LTYPE
  5
32
100
AcDbSymbolTableRecord
100
AcDbLinetypeTableRecord
  2
DASHDOT2
 70
0
  3
Dash dot (.5x) _._._._._._._._._._._._._._._.
 72
65
 73
4
 40
12.6999999999999993
 49
6.3499999999999996
 74
0
 49
-3.125
 74
0
 49
0.1
 74
0
 49
-3.125
 74
0
  0
LTYPE
  5
33
100
AcDbSymbolTableRecord
100
AcDbLinetypeTableRecord
  2
ACAD_ISO15W100
 70
0
  3
ISO double-dash triple-dot __ __ . . . __ __ . .
 72
65
 73
10
 40
39.0000000000000071
 49
12.0
 74
0
 49
-3.0
 74
0
 49
12.0
 74
0
 49
-2.9500000000000002
 74
0
 49
0.1
 74
0
 49
-2.9000000000000004
 74
0
 49
0.1
 74
0
 49
-2.9000000000000004
 74
0
 49
0.1
 74
0
 49
-2.9500000000000002
 74
0
  0
LTYPE
  5
34
100
AcDbSymbolTableRecord
100
AcDbLinetypeTableRecord
  2
ACAD_ISO04W100
 70
0
  3
ISO long-dash dot ____ . ____ . ____ . ____ . _
 72
65
 73
4
 40
30.0
 49
24.0
 74
0
 49
-2.9500000000000002
 74
0
 49
0.1
 74
0
 49
-2.9500000000000002
 74
0
  0
LTYPE
  5
35
100
AcDbSymbolTableRecord
100
AcDbLinetypeTableRecord
  2
DASHED2
 70
0
  3
Dashed (.5x) _ _ _ _ _ _ _ _ _ _ _ _ _ _ _ _ _ 
 72
65
 73
2
 40
9.5249999999999986
 49
6.3499999999999996
 74
0
 49
-3.1749999999999998
 74
0
  0
LTYPE
  5
36
100
AcDbSymbolTableRecord
100
AcDbLinetypeTableRecord
  2
DOTX2
 70
0
  3
Dot (2x) .  .  .  .  .  .  .  .  .  .  .  .  .  .
 72
65
 73
2
 40
12.6999999999999993
 49
0.1
 74
0
 49
-12.5999999999999996
 74
0
  0
LTYPE
  5
37
100
AcDbSymbolTableRecord
100
AcDbLinetypeTableRecord
  2
PHANTOMX2
 70
0
  3
Phantom (2x) ____________    ____    ____   _
 72
65
 73
6
 40
127.0000000000000142
 49
63.5
 74
0
 49
-12.6999999999999993
 74
0
 49
12.6999999999999993
 74
0
 49
-12.6999999999999993
 74
0
 49
12.6999999999999993
 74
0
 49
-12.6999999999999993
 74
0
  0
LTYPE
  5
38
100
AcDbSymbolTableRecord
100
AcDbLinetypeTableRecord
  2
ACAD_ISO10W100
 70
0
  3
ISO dash dot __ . __ . __ . __ . __ . __ . __ . 
 72
65
 73
4
 40
18.0
 49
12.0
 74
0
 49
-2.9500000000000002
 74
0
 49
0.1
 74
0
 49
-2.9500000000000002
 74
0
  0
LTYPE
  5
39
100
AcDbSymbolTableRecord
100
AcDbLinetypeTableRecord
  2
ACAD_ISO02W100
 70
0
  3
ISO dash __ __ __ __ __ __ __ __ __ __ __ __ __
 72
65
 73
2
 40
15.0
 49
12.0
 74
0
 49
-3.0
 74
0
  0
LTYPE
  5
3A
100
AcDbSymbolTableRecord
100
AcDbLinetypeTableRecord
  2
ACAD_ISO03W100
 70
0
  3
ISO dash space __    __    __    __    __    __
 72
65
 73
2
 40
30.0
 49
12.0
 74
0
 49
-18.0
 74
0
  0
LTYPE
  5
3B
100
AcDbSymbolTableRecord
100
AcDbLinetypeTableRecord
  2
ACAD_ISO12W100
 70
0
  3
ISO dash double-dot __ . . __ . . __ . . __ . . 
 72
65
 73
6
 40
21.0
 49
12.0
 74
0
 49
-2.9500000000000002
 74
0
 49
0.1
 74
0
 49
-2.9000000000000004
 74
0
 49
0.1
 74
0
 49
-2.9500000000000002
 74
0
  0
LTYPE
  5
3C
100
AcDbSymbolTableRecord
100
AcDbLinetypeTableRecord
  2
ACAD_ISO06W100
 70
0
  3
ISO long-dash triple-dot ____ ... ____ ... ____
 72
65
 73
8
 40
36.0000000000000071
 49
24.0
 74
0
 49
-2.9500000000000002
 74
0
 49
0.1
 74
0
 49
-2.9000000000000004
 74
0
 49
0.1
 74
0
 49
-2.9000000000000004
 74
0
 49
0.1
 74
0
 49
-2.9500000000000002
 74
0
  0
LTYPE
  5
3D
100
AcDbSymbolTableRecord
100
AcDbLinetypeTableRecord
  2
DOT2
 70
0
  3
Dot (.5x) ........................................
 72
65
 73
2
 40
3.1749999999999998
 49
0.1
 74
0
 49
-3.0749999999999997
 74
0
  0
LTYPE
  5
3E
100
AcDbSymbolTableRecord
100
AcDbLinetypeTableRecord
  2
ACAD_ISO07W100
 70
0
  3
ISO dot . . . . . . . . . . . . . . . . . . . . 
 72
65
 73
2
 40
3.0
 49
0.1
 74
0
 49
-2.8999999999999999
 74
0
  0
LTYPE
  5
3F
100
AcDbSymbolTableRecord
100
AcDbLinetypeTableRecord
  2
BORDER2
 70
0
  3
Border (.5x) __.__.__.__.__.__.__.__.__.__.__.
 72
65
 73
6
 40
22.2250000000000014
 49
6.3499999999999996
 74
0
 49
-3.1749999999999998
 74
0
 49
6.3499999999999996
 74
0
 49
-3.125
 74
0
 49
0.1
 74
0
 49
-3.125
 74
0
  0
LTYPE
  5
40
100
AcDbSymbolTableRecord
100
AcDbLinetypeTableRecord
  2
ACAD_ISO08W100
 70
0
  3
ISO long-dash short-dash ____ __ ____ __ ____ _
 72
65
 73
4
 40
36.0
 49
24.0
 74
0
 49
-3.0
 74
0
 49
6.0
 74
0
 49
-3.0
 74
0
  0
LTYPE
  5
41
100
AcDbSymbolTableRecord
100
AcDbLinetypeTableRecord
  2
DASHDOT
 70
0
  3
Dash dot __ . __ . __ . __ . __ . __ . __ . __
 72
65
 73
4
 40
25.4000000000000021
 49
12.6999999999999993
 74
0
 49
-6.2999999999999998
 74
0
 49
0.1
 74
0
 49
-6.2999999999999998
 74
0
  0
LTYPE
  5
42
100
AcDbSymbolTableRecord
100
AcDbLinetypeTableRecord
  2
CENTERX2
 70
0
  3
Center (2x) ________  __  ________  __  _____
 72
65
 73
4
 40
101.6000000000000085
 49
63.5
 74
0
 49
-12.6999999999999993
 74
0
 49
12.6999999999999993
 74
0
 49
-12.6999999999999993
 74
0
  0
LTYPE
  5
43
100
AcDbSymbolTableRecord
100
AcDbLinetypeTableRecord
  2
PHANTOM
 70
0
  3
Phantom ______  __  __  ______  __  __  ______ 
 72
65
 73
6
 40
63.5000000000000071
 49
31.75
 74
0
 49
-6.3499999999999996
 74
0
 49
6.3499999999999996
 74
0
 49
-6.3499999999999996
 74
0
 49
6.3499999999999996
 74
0
 49
-6.3499999999999996
 74
0
  0
LTYPE
  5
44
100
AcDbSymbolTableRecord
100
AcDbLinetypeTableRecord
  2
BORDER
 70
0
  3
Border __ __ . __ __ . __ __ . __ __ . __ __ .
 72
65
 73
6
 40
44.4499999999999957
 49
12.6999999999999993
 74
0
 49
-6.3499999999999996
 74
0
 49
12.6999999999999993
 74
0
 49
-6.2999999999999998
 74
0
 49
0.1
 74
0
 49
-6.2999999999999998
 74
0
  0
LTYPE
  5
45
100
AcDbSymbolTableRecord
100
AcDbLinetypeTableRecord
  2
ACAD_ISO05W100
 70
0
  3
ISO long-dash double-dot ____ .. ____ .. ____ . 
 72
65
 73
6
 40
33.0000000000000071
 49
24.0
 74
0
 49
-2.9500000000000002
 74
0
 49
0.1
 74
0
 49
-2.9000000000000004
 74
0
 49
0.1
 74
0
 49
-2.9500000000000002
 74
0
  0
LTYPE
  5
46
100
AcDbSymbolTableRecord
100
AcDbLinetypeTableRecord
  2
ACAD_ISO11W100
 70
0
  3
ISO double-dash dot __ __ . __ __ . __ __ . __ _
 72
65
 73
6
 40
33.0
 49
12.0
 74
0
 49
-3.0
 74
0
 49
12.0
 74
0
 49
-2.9500000000000002
 74
0
 49
0.1
 74
0
 49
-2.9500000000000002
 74
0
  0
LTYPE
  5
47
100
AcDbSymbolTableRecord
100
AcDbLinetypeTableRecord
  2
DASHEDX2
 70
0
  3
Dashed (2x) ____  ____  ____  ____  ____  ___
 72
65
 73
2
 40
38.0999999999999943
 49
25.3999999999999986
 74
0
 49
-12.6999999999999993
 74
0
  0
LTYPE
  5
48
100
AcDbSymbolTableRecord
100
AcDbLinetypeTableRecord
  2
BORDERX2
 70
0
  3
Border (2x) ____  ____  .  ____  ____  .  ___
 72
65
 73
6
 40
88.8999999999999773
 49
25.3999999999999986
 74
0
 49
-12.6999999999999993
 74
0
 49
25.3999999999999986
 74
0
 49
-12.6499999999999986
 74
0
 49
0.1
 74
0
 49
-12.6499999999999986
 74
0
  0
LTYPE
  5
49
100
AcDbSymbolTableRecord
100
AcDbLinetypeTableRecord
  2
CENTER2
 70
0
  3
Center (.5x) ___ _ ___ _ ___ _ ___ _ ___ _ ___
 72
65
 73
4
 40
28.5750000000000028
 49
19.0500000000000007
 74
0
 49
-3.1749999999999998
 74
0
 49
3.1749999999999998
 74
0
 49
-3.1749999999999998
 74
0
  0
LTYPE
  5
4A
100
AcDbSymbolTableRecord
100
AcDbLinetypeTableRecord
  2
DIVIDE
 70
0
  3
Divide ____ . . ____ . . ____ . . ____ . . ____
 72
65
 73
6
 40
31.7500000000000036
 49
12.6999999999999993
 74
0
 49
-6.2999999999999998
 74
0
 49
0.1
 74
0
 49
-6.25
 74
0
 49
0.1
 74
0
 49
-6.2999999999999998
 74
0
  0
LTYPE
  5
4B
100
AcDbSymbolTableRecord
100
AcDbLinetypeTableRecord
  2
DIVIDEX2
 70
0
  3
Divide (2x) ________  .  .  ________  .  .  _
 72
65
 73
6
 40
63.5
 49
25.3999999999999986
 74
0
 49
-12.6499999999999986
 74
0
 49
0.1
 74
0
 49
-12.5999999999999979
 74
0
 49
0.1
 74
0
 49
-12.6499999999999986
 74
0
  0
LTYPE
  5
15
100
AcDbSymbolTableRecord
100
AcDbLinetypeTableRecord
  2
BYLAYER
 70
0
  3

 72
65
 73
0
 40
0.0
  0
LTYPE
  5
4C
100
AcDbSymbolTableRecord
100
AcDbLinetypeTableRecord
  2
HIDDEN2
 70
0
  3
Hidden (.5x) _ _ _ _ _ _ _ _ _ _ _ _ _ _ _ _ _ 
 72
65
 73
2
 40
4.7624999999999993
 49
3.1749999999999998
 74
0
 49
-1.5874999999999999
 74
0
  0
LTYPE
  5
4D
100
AcDbSymbolTableRecord
100
AcDbLinetypeTableRecord
  2
CENTER
 70
0
  3
Center ____ _ ____ _ ____ _ ____ _ ____ _ ____
 72
65
 73
4
 40
50.8000000000000043
 49
31.75
 74
0
 49
-6.3499999999999996
 74
0
 49
6.3499999999999996
 74
0
 49
-6.3499999999999996
 74
0
  0
LTYPE
  5
4E
100
AcDbSymbolTableRecord
100
AcDbLinetypeTableRecord
  2
ACAD_ISO14W100
 70
0
  3
ISO dash triple-dot __ . . . __ . . . __ . . . _
 72
65
 73
8
 40
24.0000000000000036
 49
12.0
 74
0
 49
-2.9500000000000002
 74
0
 49
0.1
 74
0
 49
-2.9000000000000004
 74
0
 49
0.1
 74
0
 49
-2.9000000000000004
 74
0
 49
0.1
 74
0
 49
-2.9500000000000002
 74
0
  0
LTYPE
  5
4F
100
AcDbSymbolTableRecord
100
AcDbLinetypeTableRecord
  2
HIDDENX2
 70
0
  3
Hidden (2x) ____ ____ ____ ____ ____ ____ ____ 
 72
65
 73
2
 40
19.0499999999999972
 49
12.6999999999999993
 74
0
 49
-6.3499999999999996
 74
0
  0
LTYPE
  5
50
100
AcDbSymbolTableRecord
100
AcDbLinetypeTableRecord
  2
PHANTOM2
 70
0
  3
Phantom (.5x) ___ _ _ ___ _ _ ___ _ _ ___ _ _
 72
65
 73
6
 40
31.7500000000000036
 49
15.875
 74
0
 49
-3.1749999999999998
 74
0
 49
3.1749999999999998
 74
0
 49
-3.1749999999999998
 74
0
 49
3.1749999999999998
 74
0
 49
-3.1749999999999998
 74
0
  0
LTYPE
  5
51
100
AcDbSymbolTableRecord
100
AcDbLinetypeTableRecord
  2
HIDDEN
 70
0
  3
Hidden __ __ __ __ __ __ __ __ __ __ __ __ __ __
 72
65
 73
2
 40
9.5249999999999986
 49
6.3499999999999996
 74
0
 49
-3.1749999999999998
 74
0
  0
LTYPE
  5
14
100
AcDbSymbolTableRecord
100
AcDbLinetypeTableRecord
  2
BYBLOCK
 70
0
  3

 72
65
 73
0
 40
0.0
  0
LTYPE
  5
52
100
AcDbSymbolTableRecord
100
AcDbLinetypeTableRecord
  2
DIVIDE2
 70
0
  3
Divide (.5x) __..__..__..__..__..__..__..__.._
 72
65
 73
6
 40
15.8749999999999982
 49
6.3499999999999996
 74
0
 49
-3.125
 74
0
 49
0.1
 74
0
 49
-3.0750000000000002
 74
0
 49
0.1
 74
0
 49
-3.125
 74
0
  0
LTYPE
  5
53
100
AcDbSymbolTableRecord
100
AcDbLinetypeTableRecord
  2
ACAD_ISO09W100
 70
0
  3
ISO long-dash double-short-dash ____ __ __ ____
 72
65
 73
6
 40
45.0
 49
24.0
 74
0
 49
-3.0
 74
0
 49
6.0
 74
0
 49
-3.0
 74
0
 49
6.0
 74
0
 49
-3.0
 74
0
  0
LTYPE
  5
54
100
AcDbSymbolTableRecord
100
AcDbLinetypeTableRecord
  2
ACAD_ISO13W100
 70
0
  3
ISO double-dash double-dot __ __ . . __ __ . . _
 72
65
 73
8
 40
36.0000000000000071
 49
12.0
 74
0
 49
-3.0
 74
0
 49
12.0
 74
0
 49
-2.9500000000000002
 74
0
 49
0.1
 74
0
 49
-2.9000000000000004
 74
0
 49
0.1
 74
0
 49
-2.9500000000000002
 74
0
  0
LTYPE
  5
55
100
AcDbSymbolTableRecord
100
AcDbLinetypeTableRecord
  2
DASHED
 70
0
  3
Dashed __ __ __ __ __ __ __ __ __ __ __ __ __ _
 72
65
 73
2
 40
19.0499999999999972
 49
12.6999999999999993
 74
0
 49
-6.3499999999999996
 74
0
  0
LTYPE
  5
56
100
AcDbSymbolTableRecord
100
AcDbLinetypeTableRecord
  2
DOT
 70
0
  3
Dot . . . . . . . . . . . . . . . . . . . . . . . .
 72
65
 73
2
 40
6.3499999999999996
 49
0.1
 74
0
 49
-6.25
 74
0
  0
ENDTAB
  0
TABLE
  2
LAYER
  5
2
100
AcDbSymbolTable
 70
7
  0
LAYER
  5
57
100
AcDbSymbolTableRecord
100
AcDbLayerTableRecord
  2
Referencias
 70
1
 62
2
420
16776960
  6
Continuous
370
25
390
F
  0
LAYER
  5
58
100
AcDbSymbolTableRecord
100
AcDbLayerTableRecord
  2
Referencias 2
 70
1
 62
3
420
65280
  6
Continuous
370
25
390
F
  0
LAYER
  5
59
100
AcDbSymbolTableRecord
100
AcDbLayerTableRecord
  2
Cotas
 70
0
 62
1
420
16711680
  6
Continuous
370
20
390
F
  0
LAYER
  5
10
100
AcDbSymbolTableRecord
100
AcDbLayerTableRecord
  2
0
 70
0
 62
7
420
16777215
  6
Continuous
370
25
390
F
  0
LAYER
  5
5A
100
AcDbSymbolTableRecord
100
AcDbLayerTableRecord
  2
Contornos Visibles
 70
0
 62
7
420
16777215
  6
Continuous
370
50
390
F
  0
LAYER
  5
5B
100
AcDbSymbolTableRecord
100
AcDbLayerTableRecord
  2
Ejes de revoluci\U+00f3n
 70
0
 62
6
420
16711935
  6
ACAD_ISO04W100
370
20
390
F
  0
LAYER
  5
5C
100
AcDbSymbolTableRecord
100
AcDbLayerTableRecord
  2
Contornos Ocultos
 70
0
 62
252
420
10526884
  6
ACAD_ISO02W100
370
30
390
F
  0
ENDTAB
  0
TABLE
  2
STYLE
  5
3
100
AcDbSymbolTable
 70
1
  0
STYLE
  5
5D
100
AcDbSymbolTableRecord
100
AcDbTextStyleTableRecord
  2
Standard
 70
0
 40
0.0
 41
1.0
 50
0.0
 71
0
 42
2.5
  3

  4

1001
ACAD
1000
txt
1071
0
  0
ENDTAB
  0
TABLE
  2
VIEW
  5
6
100
AcDbSymbolTable
 70
0
  0
ENDTAB
  0
TABLE
  2
UCS
  5
7
100
AcDbSymbolTable
 70
0
  0
ENDTAB
  0
TABLE
  2
APPID
  5
9
100
AcDbSymbolTable
 70
1
  0
APPID
  5
12
100
AcDbSymbolTableRecord
100
AcDbRegAppTableRecord
  2
ACAD
 70
0
  0
APPID
  5
5E
100
AcDbSymbolTableRecord
100
AcDbRegAppTableRecord
  2
QCAD
 70
0
  0
ENDTAB
  0
TABLE
  2
DIMSTYLE
  5
A
100
AcDbSymbolTable
 70
1
100
AcDbDimStyleTable
 71
0
  0
DIMSTYLE
105
27
100
AcDbSymbolTableRecord
100
AcDbDimStyleTableRecord
  2
Standard
 41
2.5
 42
0.625
 43
3.75
 44
1.25
 70
0
 73
0
 74
0
 77
1
 78
8
140
2.5
141
2.5
143
0.03937007874016
147
0.625
171
3
172
1
271
2
272
2
274
3
278
44
283
0
284
8
340
5D
  0
ENDTAB
  0
TABLE
  2
BLOCK_RECORD
  5
1
100
AcDbSymbolTable
 70
1
  0
BLOCK_RECORD
  5
1F
100
AcDbSymbolTableRecord
100
AcDbBlockTableRecord
  2
*Model_Space
340
22
  0
BLOCK_RECORD
  5
1B
100
AcDbSymbolTableRecord
100
AcDbBlockTableRecord
  2
*Paper_Space
340
1E
  0
BLOCK_RECORD
  5
23
100
AcDbSymbolTableRecord
100
AcDbBlockTableRecord
  2
*Paper_Space0
340
26
  0
ENDTAB
  0
ENDSEC
  0
SECTION
  2
BLOCKS
  0
BLOCK
  5
20
100
AcDbEntity
  8
0
100
AcDbBlockBegin
  2
*Model_Space
 70
0
 10
0.0
 20
0.0
 30
0.0
  3
*Model_Space
  1

  0
ENDBLK
  5
21
100
AcDbEntity
  8
0
100
AcDbBlockEnd
  0
BLOCK
  5
1C
100
AcDbEntity
 67
1
  8
0
100
AcDbBlockBegin
  2
*Paper_Space
 70
0
 10
0.0
 20
0.0
 30
0.0
  3
*Paper_Space
  1

  0
ENDBLK
  5
1D
100
AcDbEntity
 67
1
  8
0
100
AcDbBlockEnd
  0
BLOCK
  5
24
100
AcDbEntity
  8
0
100
AcDbBlockBegin
  2
*Paper_Space0
 70
0
 10
0.0
 20
0.0
 30
0.0
  3
*Paper_Space0
  1

  0
ENDBLK
  5
25
100
AcDbEntity
  8
0
100
AcDbBlockEnd
  0
ENDSEC
  0
SECTION
  2
ENTITIES
  0
LINE
  5
5F
100
AcDbEntity
  8
Referencias
 62
256
370
-1
 48
1.0
  6
BYLAYER
100
AcDbLine
 10
2258.8766949807786659
 20
621.0872129809624766
 30
0.0
 11
2446.8766949807786659
 21
621.0872129809624766
 31
0.0
  0
IMAGE
  5
60
100
AcDbEntity
  8
0
 62
256
370
-1
 48
1.0
  6
BYLAYER
100
AcDbRasterImage
 90
0
 10
1822.1140585847410875
 20
592.0745636809406278
 30
0.0
 11
0.09765625
 21
0.0
 31
0.0
 12
0.0
 22
0.09765625
 32
0.0
 13
200.0
 23
141.0
340
61
 70
15
280
0
281
50
282
50
283
0
  0
LINE
  5
62
100
AcDbEntity
  8
Referencias
 62
256
370
-1
 48
1.0
  6
BYLAYER
100
AcDbLine
 10
2352.8766949807786659
 20
611.0872129809624766
 30
0.0
 11
2352.8766949807786659
 21
631.0872129809624766
 31
0.0
  0
LINE
  5
63
100
AcDbEntity
  8
Contornos Visibles
 62
256
370
-1
 48
1.0
  6
BYLAYER
100
AcDbLine
 10
2417.6934868345424547
 20
631.0872129809624766
 30
0.0
 11
2295.2584755493285229
 21
631.0872129809624766
 31
0.0
  0
LINE
  5
64
100
AcDbEntity
  8
Contornos Visibles
 62
256
370
-1
 48
1.0
  6
BYLAYER
100
AcDbLine
 10
2291.372848599322424
 20
611.0872129809624766
 30
0.0
 11
2411.0832161111566165
 21
611.0872129809624766
 31
0.0
  0
ARC
  5
65
100
AcDbEntity
  8
Contornos Visibles
 62
256
370
-1
 48
1.0
  6
BYLAYER
100
AcDbCircle
 10
2460.3996565488259876
 20
624.7106796123978256
 30
0.0
 40
13.999999999999913
100
AcDbArc
 50
136.0027191338744501
 51
253.9972808661260331
  0
LINE
  5
66
100
AcDbEntity
  8
Referencias 2
 62
256
370
-1
 48
1.0
  6
BYLAYER
100
AcDbLine
 10
2446.8766949807791207
 20
621.0872129809624766
 30
0.0
 11
2470.0589148117169316
 21
627.2988700634230099
 31
0.0
  0
LINE
  5
67
100
AcDbEntity
  8
Referencias 2
 62
256
370
-1
 48
1.0
  6
BYLAYER
100
AcDbLine
 10
2473.1647433529469708
 20
615.7077601479542182
 30
0.0
 11
2466.9530862704868923
 21
638.8899799788918017
 31
0.0
  0
LINE
  5
68
100
AcDbEntity
  8
Contornos Visibles
 62
256
370
-1
 48
1.0
  6
BYLAYER
100
AcDbLine
 10
2450.3284378176354039
 20
634.4354188514989801
 30
0.0
 11
2466.9530862704868923
 21
638.8899799788918017
 31
0.0
  0
LINE
  5
69
100
AcDbEntity
  8
Contornos Visibles
 62
256
370
-1
 48
1.0
  6
BYLAYER
100
AcDbLine
 10
2456.5400949000959372
 20
611.2531990205615102
 30
0.0
 11
2473.1647433529469708
 21
615.7077601479542182
 31
0.0
  0
ARC
  5
6A
100
AcDbEntity
  8
Contornos Visibles
 62
256
370
-1
 48
1.0
  6
BYLAYER
100
AcDbCircle
 10
2470.0589148117169316
 20
627.2988700634230099
 30
0.0
 40
40.000000000000135
100
AcDbArc
 50
226.0658043074973591
 51
228.9155266000072686
  0
ARC
  5
6B
100
AcDbEntity
  8
Contornos Visibles
 62
256
370
-1
 48
1.0
  6
BYLAYER
100
AcDbCircle
 10
2470.0589148117169316
 20
627.2988700634230099
 30
0.0
 40
40.000000000000135
100
AcDbArc
 50
160.2767379225904847
 51
226.0658043074973591
  0
ARC
  5
6C
100
AcDbEntity
  8
Contornos Visibles
 62
256
370
-1
 48
1.0
  6
BYLAYER
100
AcDbCircle
 10
2411.0832161111566165
 20
566.0872129809624766
 30
0.0
 40
45.0
100
AcDbArc
 50
46.0658043074974088
 51
90.0
  0
ARC
  5
6D
100
AcDbEntity
  8
Contornos Visibles
 62
256
370
-1
 48
1.0
  6
BYLAYER
100
AcDbCircle
 10
2446.8766949807791207
 20
621.0872129809624766
 30
0.0
 40
30.0
100
AcDbArc
 50
301.957763300002739
 51
338.130102354155099
  0
LINE
  5
6E
100
AcDbEntity
  8
Contornos Visibles
 62
256
370
-1
 48
1.0
  6
BYLAYER
100
AcDbLine
 10
2474.7176576235619905
 20
609.9122051902190833
 30
0.0
 11
2473.1647433529465161
 21
615.7077601479542182
 31
0.0
  0
LINE
  5
6F
100
AcDbEntity
  8
Contornos Visibles
 62
256
370
-1
 48
1.0
  6
BYLAYER
100
AcDbLine
 10
2466.9530862704868923
 20
638.889979978891688
 30
0.0
 11
2465.4001719998718727
 21
644.6855349366257997
 31
0.0
  0
ARC
  5
70
100
AcDbEntity
  8
Contornos Visibles
 62
256
370
-1
 48
1.0
  6
BYLAYER
100
AcDbCircle
 10
2454.2868104926214983
 20
609.2090738968656751
 30
0.0
 40
16.0
100
AcDbArc
 50
228.9155266000070981
 51
301.9577633000027959
  0
ARC
  5
71
100
AcDbEntity
  8
Contornos Visibles
 62
256
370
-1
 48
1.0
  6
BYLAYER
100
AcDbCircle
 10
2232.7966976709740266
 20
614.0990987631944336
 30
0.0
 40
27.0000000000000178
100
AcDbArc
 50
15.0000000000002895
 51
45.0
  0
ARC
  5
72
100
AcDbEntity
  8
Contornos Visibles
 62
256
370
-1
 48
1.0
  6
BYLAYER
100
AcDbCircle
 10
2232.7966976709740266
 20
614.0990987631944336
 30
0.0
 40
27.0000000000000178
100
AcDbArc
 50
345.0000000000003979
 51
15.0000000000000693
  0
LINE
  5
73
100
AcDbEntity
  8
Referencias
 62
256
370
-1
 48
1.0
  6
BYLAYER
100
AcDbLine
 10
2232.7966976709740266
 20
614.0990987631944336
 30
0.0
 11
2258.8766949807786659
 21
621.0872129809624766
 31
0.0
  0
LINE
  5
74
100
AcDbEntity
  8
Referencias
 62
256
370
-1
 48
1.0
  6
BYLAYER
100
AcDbLine
 10
2236.2907547798581618
 20
601.0591001082920002
 30
0.0
 11
2229.3026405620898913
 21
627.1390974180968669
 31
0.0
  0
LINE
  5
75
100
AcDbEntity
  8
Contornos Visibles
 62
256
370
-1
 48
1.0
  6
BYLAYER
100
AcDbLine
 10
2229.3026405620894366
 20
627.1390974180967532
 30
0.0
 11
2251.8885807630108502
 21
633.1909818552312572
 31
0.0
  0
LINE
  5
76
100
AcDbEntity
  8
Contornos Visibles
 62
256
370
-1
 48
1.0
  6
BYLAYER
100
AcDbLine
 10
2236.2907547798581618
 20
601.0591001082918865
 30
0.0
 11
2258.8766949807786659
 21
607.1109845454263905
 31
0.0
  0
ARC
  5
77
100
AcDbEntity
  8
Contornos Visibles
 62
256
370
-1
 48
1.0
  6
BYLAYER
100
AcDbCircle
 10
2258.8766949807786659
 20
621.0872129809625903
 30
0.0
 40
34.0
100
AcDbArc
 50
232.4280055430438097
 51
265.5287793655108999
  0
ARC
  5
78
100
AcDbEntity
  8
Contornos Visibles
 62
256
370
-1
 48
1.0
  6
BYLAYER
100
AcDbCircle
 10
2258.8766949807786659
 20
621.0872129809625903
 30
0.0
 40
34.0
100
AcDbArc
 50
124.4712206344906207
 51
157.5719944569584356
  0
ARC
  5
79
100
AcDbEntity
  8
Referencias 2
 62
256
370
-1
 48
1.0
  6
BYLAYER
100
AcDbCircle
 10
2258.8766949807786659
 20
621.0872129809625903
 30
0.0
 40
34.0
100
AcDbArc
 50
265.5287793655108999
 51
124.4712206344907202
  0
ARC
  5
7A
100
AcDbEntity
  8
Referencias 2
 62
256
370
-1
 48
1.0
  6
BYLAYER
100
AcDbCircle
 10
2258.8766949807786659
 20
621.0872129809625903
 30
0.0
 40
34.0
100
AcDbArc
 50
157.5719944569584356
 51
232.4280055430438097
  0
LINE
  5
7B
100
AcDbEntity
  8
Contornos Visibles
 62
256
370
-1
 48
1.0
  6
BYLAYER
100
AcDbLine
 10
2229.3026405620894366
 20
627.1390974180967532
 30
0.0
 11
2227.4484665342311018
 21
634.0589690961388669
 31
0.0
  0
LINE
  5
7C
100
AcDbEntity
  8
Contornos Visibles
 62
256
370
-1
 48
1.0
  6
BYLAYER
100
AcDbLine
 10
2238.1449288077169513
 20
594.1392284302492044
 30
0.0
 11
2236.2907547798581618
 21
601.0591001082917728
 31
0.0
  0
ARC
  5
7D
100
AcDbEntity
  8
Contornos Visibles
 62
256
370
-1
 48
1.0
  6
BYLAYER
100
AcDbCircle
 10
2232.7966976709740266
 20
614.0990987631943199
 30
0.0
 40
42.9999999999999787
100
AcDbArc
 50
336.0575587310192986
 51
9.3528645036861882
  0
ARC
  5
7E
100
AcDbEntity
  8
Contornos Visibles
 62
256
370
-1
 48
1.0
  6
BYLAYER
100
AcDbCircle
 10
2232.7966976709740266
 20
614.0990987631943199
 30
0.0
 40
42.9999999999999787
100
AcDbArc
 50
9.3528645036861882
 51
53.9424412689820656
  0
ARC
  5
7F
100
AcDbEntity
  8
Referencias
 62
256
370
-1
 48
1.0
  6
BYLAYER
100
AcDbCircle
 10
2232.7966976709740266
 20
614.0990987631943199
 30
0.0
 40
42.9999999999999787
100
AcDbArc
 50
53.9424412689821651
 51
336.0575587310192986
  0
ARC
  5
80
100
AcDbEntity
  8
Contornos Visibles
 62
256
370
-1
 48
1.0
  6
BYLAYER
100
AcDbCircle
 10
2257.4734448684580457
 20
603.141993864934193
 30
0.0
 40
16.0
100
AcDbArc
 50
265.5287793655107862
 51
336.057558731019185
  0
ARC
  5
81
100
AcDbEntity
  8
Contornos Visibles
 62
256
370
-1
 48
1.0
  6
BYLAYER
100
AcDbCircle
 10
2248.6888351776310628
 20
635.9266035557607211
 30
0.0
 40
16.0
100
AcDbArc
 50
53.9424412689824209
 51
124.4712206344907486
  0
ARC
  5
82
100
AcDbEntity
  8
Contornos Visibles
 62
256
370
-1
 48
1.0
  6
BYLAYER
100
AcDbCircle
 10
2295.2584755493285229
 20
676.0872129809624766
 30
0.0
 40
45.0
100
AcDbArc
 50
224.7819299224875351
 51
270.0
  0
ARC
  5
83
100
AcDbEntity
  8
Contornos Visibles
 62
256
370
-1
 48
1.0
  6
BYLAYER
100
AcDbCircle
 10
2291.4435485049743875
 20
591.0872129809624766
 30
0.0
 40
20.0
100
AcDbArc
 50
90.0
 51
158.5759214500671703
  0
LINE
  5
84
100
AcDbEntity
  8
Ejes de revoluci\U+00f3n
 62
256
370
-1
 48
1.0
  6
BYLAYER
100
AcDbLine
 10
2503.2798318482368813
 20
621.0872129809624766
 30
0.0
 11
2216.8475555633099248
 21
621.0872129809624766
 31
0.0
  0
DIMENSION
  5
85
100
AcDbEntity
  8
Cotas
 62
256
370
-1
 48
1.0
  6
BYLAYER
100
AcDbDimension
 10
2305.9325116604209143
 20
631.0872129809624766
 30
0.0
 11
2304.0575116604209143
 21
621.0872129809624766
 31
0.0
 70
0
 71
8
 72
2
 74
0
 75
0
 41
1.0
 42
0.0
  1

  3
Standard
100
AcDbAlignedDimension
 13
2305.156726547411381
 23
631.0872129809624766
 33
0.0
 14
2305.9325116604209143
 24
611.0872129809624766
 34
0.0
 50
90.0
100
AcDbRotatedDimension
1001
ACAD
1000
DSTYLE
1002
{
1070
144
1040
1.0
1070
40
1040
1.0
1002
}
  0
DIMENSION
  5
86
100
AcDbEntity
  8
Cotas
 62
256
370
-1
 48
1.0
  6
BYLAYER
100
AcDbDimension
 10
2295.2584755493285229
 20
676.0872129809624766
 30
0.0
 11
2285.7961459869225109
 21
655.5877021513740601
 31
0.0
 70
4
 71
8
 72
2
 74
0
 41
1.0
 42
0.0
  1
R<>
  3
Standard
100
AcDbRadialDimension
 15
2279.8573537971710721
 25
633.8047645091057802
 35
0.0
 40
0.0
1001
ACAD
1000
DSTYLE
1002
{
1070
144
1040
1.0
1070
40
1040
1.0
1002
}
  0
DIMENSION
  5
87
100
AcDbEntity
  8
Cotas
 62
256
370
-1
 48
1.0
  6
BYLAYER
100
AcDbDimension
 10
2291.4435485049743875
 20
591.0872129809624766
 30
0.0
 11
2288.3372609560656201
 21
600.7756908110189897
 31
0.0
 70
4
 71
8
 72
2
 74
0
 41
1.0
 42
0.0
  1
R<>
  3
Standard
100
AcDbRadialDimension
 15
2281.9321783286472964
 25
608.680786733014088
 35
0.0
 40
0.0
1001
ACAD
1000
DSTYLE
1002
{
1070
144
1040
1.0
1070
40
1040
1.0
1002
}
  0
DIMENSION
  5
88
100
AcDbEntity
  8
Cotas
 62
256
370
-1
 48
1.0
  6
BYLAYER
100
AcDbDimension
 10
2273.1649780367165476
 20
575.2696853392025105
 30
0.0
 11
2271.1104999883918936
 21
583.2254847929942798
 31
0.0
 70
4
 71
8
 72
2
 74
0
 41
1.0
 42
0.0
  1
R<>
  3
Standard
100
AcDbRadialDimension
 15
2265.7348879827582095
 25
589.4398568903895921
 35
0.0
 40
0.0
1001
ACAD
1000
DSTYLE
1002
{
1070
144
1040
1.0
1070
40
1040
1.0
1002
}
  0
DIMENSION
  5
89
100
AcDbEntity
  8
Cotas
 62
256
370
-1
 48
1.0
  6
BYLAYER
100
AcDbDimension
 10
2258.8766949807786659
 20
621.0872129809625903
 30
0.0
 11
2251.5820601783107122
 21
594.4654267340185925
 31
0.0
 70
132
 71
8
 72
2
 74
0
 41
1.0
 42
0.0
  1
R<>
  3
Standard
100
AcDbRadialDimension
 15
2252.5145591726404746
 25
587.6877634651576727
 35
0.0
 40
0.0
1001
ACAD
1000
DSTYLE
1002
{
1070
279
1070
2
1070
144
1040
1.0
1070
40
1040
1.0
1002
}
  0
DIMENSION
  5
8A
100
AcDbEntity
  8
Cotas
 62
256
370
-1
 48
1.0
  6
BYLAYER
100
AcDbDimension
 10
2207.9007970217990078
 20
621.4044907249385687
 30
0.0
 11
2213.2059650549749676
 21
608.8497777796033006
 31
0.0
 70
1
 71
8
 72
2
 74
0
 75
0
 41
1.0
 42
0.0
  1

  3
Standard
100
AcDbAlignedDimension
 13
2229.3026405620894366
 23
627.1390974180967532
 33
0.0
 14
2236.290754779857707
 24
601.0591001082917728
 34
0.0
1001
ACAD
1000
DSTYLE
1002
{
1070
144
1040
1.0
1070
40
1040
1.0
1002
}
  0
DIMENSION
  5
8B
100
AcDbEntity
  8
Cotas
 62
256
370
-1
 48
1.0
  6
BYLAYER
100
AcDbDimension
 10
2236.2907547798581618
 20
601.0591001082918865
 30
0.0
 11
2201.3809086569135616
 21
606.6507555448574749
 31
0.0
 70
2
 71
8
 72
2
 74
0
 75
0
 41
1.0
 42
0.0
  1

  3
Standard
100
AcDb2LineAngularDimension
 13
2503.2798318482368813
 23
621.0872129809624766
 33
0.0
 14
2216.8475555633099248
 24
621.0872129809624766
 34
0.0
 15
2258.8766949807786659
 25
607.1109845454263905
 35
0.0
 16
2200.2521424000956358
 26
601.6486222248475997
 36
0.0
  0
DIMENSION
  5
8C
100
AcDbEntity
  8
Cotas
 62
256
370
-1
 48
1.0
  6
BYLAYER
100
AcDbDimension
 10
2232.7966976709740266
 20
614.0990987631944336
 30
0.0
 11
2246.3350747081026384
 21
615.6732563793664212
 31
0.0
 70
4
 71
8
 72
2
 74
0
 41
1.0
 42
0.0
  1
R<>
  3
Standard
100
AcDbRadialDimension
 15
2259.7900133576195003
 25
613.49834237239304
 35
0.0
 40
0.0
1001
ACAD
1000
DSTYLE
1002
{
1070
144
1040
1.0
1070
40
1040
1.0
1002
}
  0
DIMENSION
  5
8D
100
AcDbEntity
  8
Cotas
 62
256
370
-1
 48
1.0
  6
BYLAYER
100
AcDbDimension
 10
2247.2272743077414816
 20
664.5634428114765342
 30
0.0
 11
2233.7019899432721104
 21
662.880496626884451
 31
0.0
 70
1
 71
8
 72
2
 74
0
 75
0
 41
1.0
 42
0.0
  1

  3
Standard
100
AcDbAlignedDimension
 13
2258.8766949807782112
 23
621.0872129809624766
 33
0.0
 14
2232.7966976709740266
 24
614.0990987631943199
 34
0.0
1001
ACAD
1000
DSTYLE
1002
{
1070
144
1040
1.0
1070
40
1040
1.0
1002
}
  0
DIMENSION
  5
8E
100
AcDbEntity
  8
Cotas
 62
256
370
-1
 48
1.0
  6
BYLAYER
100
AcDbDimension
 10
2232.7966976709740266
 20
614.0990987631943199
 30
0.0
 11
2256.518021781297648
 21
645.3762139234873985
 31
0.0
 70
132
 71
8
 72
2
 74
0
 41
1.0
 42
0.0
  1
R<>
  3
Standard
100
AcDbRadialDimension
 15
2261.2437561157944401
 25
646.3444839498683905
 35
0.0
 40
0.0
1001
ACAD
1000
DSTYLE
1002
{
1070
279
1070
2
1070
144
1040
1.0
1070
40
1040
1.0
1002
}
  0
DIMENSION
  5
8F
100
AcDbEntity
  8
Cotas
 62
256
370
-1
 48
1.0
  6
BYLAYER
100
AcDbDimension
 10
2258.8766949807786659
 20
694.8776603746910041
 30
0.0
 11
2352.8766949807786659
 21
696.7526603746910041
 31
0.0
 70
0
 71
8
 72
2
 74
0
 75
0
 41
1.0
 42
0.0
  1

  3
Standard
100
AcDbAlignedDimension
 13
2258.8766949807786659
 23
621.0872129809630451
 33
0.0
 14
2446.8766949807791207
 24
621.0872129809624766
 34
0.0
 50
0.0
100
AcDbRotatedDimension
1001
ACAD
1000
DSTYLE
1002
{
1070
144
1040
1.0
1070
40
1040
1.0
1002
}
  0
DIMENSION
  5
90
100
AcDbEntity
  8
Cotas
 62
256
370
-1
 48
1.0
  6
BYLAYER
100
AcDbDimension
 10
2414.9761158519913806
 20
651.0872129809624766
 30
0.0
 11
2421.3255440133016236
 21
643.1373458736228486
 31
0.0
 70
4
 71
8
 72
2
 74
0
 41
1.0
 42
0.0
  1
R<>
  3
Standard
100
AcDbRadialDimension
 15
2424.363738404014839
 25
633.427299537778822
 35
0.0
 40
0.0
1001
ACAD
1000
DSTYLE
1002
{
1070
144
1040
1.0
1070
40
1040
1.0
1002
}
  0
DIMENSION
  5
91
100
AcDbEntity
  8
Cotas
 62
256
370
-1
 48
1.0
  6
BYLAYER
100
AcDbDimension
 10
2433.0506882906561259
 20
672.6865724142896852
 30
0.0
 11
2444.1565124965577525
 21
677.6035118798120038
 31
0.0
 70
1
 71
8
 72
2
 74
0
 75
0
 41
1.0
 42
0.0
  1

  3
Standard
100
AcDbAlignedDimension
 13
2446.8766949807795754
 23
621.0872129809624766
 33
0.0
 14
2470.0589148117169316
 24
627.2988700634230099
 34
0.0
1001
ACAD
1000
DSTYLE
1002
{
1070
144
1040
1.0
1070
40
1040
1.0
1002
}
  0
CIRCLE
  5
92
100
AcDbEntity
  8
Referencias
 62
256
370
-1
 48
1.0
  6
BYLAYER
100
AcDbCircle
 10
2470.0589148117169316
 20
627.2988700634230099
 30
0.0
 40
40.000000000000135
  0
ARC
  5
93
100
AcDbEntity
  8
Contornos Visibles
 62
256
370
-1
 48
1.0
  6
BYLAYER
100
AcDbCircle
 10
2446.8766949807795754
 20
621.0872129809624766
 30
0.0
 40
30.0
100
AcDbArc
 50
51.8698976458440342
 51
88.0422366999972894
  0
ARC
  5
94
100
AcDbEntity
  8
Contornos Visibles
 62
256
370
-1
 48
1.0
  6
BYLAYER
100
AcDbCircle
 10
2447.354973716963741
 20
635.0790409333964135
 30
0.0
 40
16.0
100
AcDbArc
 50
88.0422366999969626
 51
161.0844733999920777
  0
ARC
  5
95
100
AcDbEntity
  8
Contornos Visibles
 62
256
370
-1
 48
1.0
  6
BYLAYER
100
AcDbCircle
 10
2417.6934868345424547
 20
647.0872129809624766
 30
0.0
 40
16.0
100
AcDbArc
 50
270.0
 51
336.853857092744704
  0
DIMENSION
  5
96
100
AcDbEntity
  8
Cotas
 62
256
370
-1
 48
1.0
  6
BYLAYER
100
AcDbDimension
 10
2470.0589148117169316
 20
627.2988700634230099
 30
0.0
 11
2436.7110198682012197
 21
639.2817814410402661
 31
0.0
 70
132
 71
8
 72
2
 74
0
 41
1.0
 42
0.0
  1
R<>
  3
Standard
100
AcDbRadialDimension
 15
2431.6901871547293013
 25
638.6055379184504091
 35
0.0
 40
0.0
1001
ACAD
1000
DSTYLE
1002
{
1070
279
1070
2
1070
144
1040
1.0
1070
40
1040
1.0
1002
}
  0
DIMENSION
  5
97
100
AcDbEntity
  8
Cotas
 62
256
370
-1
 48
1.0
  6
BYLAYER
100
AcDbDimension
 10
2485.8804599613608843
 20
643.9615544742027851
 30
0.0
 11
2490.7973994268822935
 21
632.8557302683010448
 31
0.0
 70
1
 71
8
 72
2
 74
0
 75
0
 41
1.0
 42
0.0
  1

  3
Standard
100
AcDbAlignedDimension
 13
2466.9530862704868923
 23
638.8899799788918017
 33
0.0
 14
2473.1647433529465161
 24
615.7077601479541045
 34
0.0
1001
ACAD
1000
DSTYLE
1002
{
1070
144
1040
1.0
1070
40
1040
1.0
1002
}
  0
DIMENSION
  5
98
100
AcDbEntity
  8
Cotas
 62
256
370
-1
 48
1.0
  6
BYLAYER
100
AcDbDimension
 10
2466.9530862704868923
 20
638.8899799788918017
 30
0.0
 11
2481.3554793960706775
 21
631.7304253437388297
 31
0.0
 70
2
 71
8
 72
2
 74
0
 75
0
 41
1.0
 42
0.0
  1

  3
Standard
100
AcDb2LineAngularDimension
 13
2216.8475555633099248
 23
621.0872129809624766
 33
0.0
 14
2503.2798318482368813
 24
621.0872129809624766
 34
0.0
 15
2450.3284378176354039
 25
634.4354188514989801
 35
0.0
 16
2479.6605429071182698
 26
630.1531371714449961
 36
0.0
  0
DIMENSION
  5
99
100
AcDbEntity
  8
Cotas
 62
256
370
-1
 48
1.0
  6
BYLAYER
100
AcDbDimension
 10
2446.7722434413431074
 20
600.2509956327847931
 30
0.0
 11
2448.5079963395537561
 21
607.2868173244106629
 31
0.0
 70
4
 71
8
 72
2
 74
0
 41
1.0
 42
0.0
  1
R<>
  3
Standard
100
AcDbRadialDimension
 15
2453.5282156577986825
 25
612.5130036009144305
 35
0.0
 40
0.0
1001
ACAD
1000
DSTYLE
1002
{
1070
144
1040
1.0
1070
40
1040
1.0
1002
}
  0
DIMENSION
  5
9A
100
AcDbEntity
  8
Cotas
 62
256
370
-1
 48
1.0
  6
BYLAYER
100
AcDbDimension
 10
2446.8766949807791207
 20
621.0872129809624766
 30
0.0
 11
2467.9978961772890216
 21
605.8500386157162438
 31
0.0
 70
132
 71
8
 72
2
 74
0
 41
1.0
 42
0.0
  1
R<>
  3
Standard
100
AcDbRadialDimension
 15
2469.2249447281019457
 25
601.0733244724470978
 35
0.0
 40
0.0
1001
ACAD
1000
DSTYLE
1002
{
1070
279
1070
2
1070
144
1040
1.0
1070
40
1040
1.0
1002
}
  0
DIMENSION
  5
9B
100
AcDbEntity
  8
Cotas
 62
256
370
-1
 48
1.0
  6
BYLAYER
100
AcDbDimension
 10
2451.3594241522255288
 20
577.4775596472494499
 30
0.0
 11
2449.4887181520371087
 21
585.4785648379024678
 31
0.0
 70
4
 71
8
 72
2
 74
0
 41
1.0
 42
0.0
  1
R<>
  3
Standard
100
AcDbRadialDimension
 15
2451.3680116117279795
 25
593.4775573427348263
 35
0.0
 40
0.0
1001
ACAD
1000
DSTYLE
1002
{
1070
144
1040
1.0
1070
40
1040
1.0
1002
}
  0
DIMENSION
  5
9C
100
AcDbEntity
  8
Cotas
 62
256
370
-1
 48
1.0
  6
BYLAYER
100
AcDbDimension
 10
2411.0832161111566165
 20
566.0872129809624766
 30
0.0
 11
2417.8251632782512388
 21
587.6351078525295861
 31
0.0
 70
4
 71
8
 72
2
 74
0
 41
1.0
 42
0.0
  1
R<>
  3
Standard
100
AcDbRadialDimension
 15
2428.0406661873003031
 25
607.7698818844179414
 35
0.0
 40
0.0
1001
ACAD
1000
DSTYLE
1002
{
1070
144
1040
1.0
1070
40
1040
1.0
1002
}
  0
ENDSEC
  0
SECTION
  2
OBJECTS
  0
DICTIONARY
  5
C
100
AcDbDictionary
280
0
281
1
  3
ACAD_GROUP
350
D
  3
ACAD_LAYOUT
350
1A
  3
ACAD_MLINESTYLE
350
17
  3
ACAD_PLOTSETTINGS
350
19
  3
ACAD_PLOTSTYLENAME
350
E
  3
AcDbVariableDictionary
350
9D
  3
QCAD_OBJECTS
350
9E
  0
DICTIONARY
  5
D
100
AcDbDictionary
280
0
281
1
  0
ACDBDICTIONARYWDFLT
  5
E
100
AcDbDictionary
281
1
  3
Normal
350
F
100
AcDbDictionaryWithDefault
340
F
  0
ACDBPLACEHOLDER
  5
F
  0
DICTIONARY
  5
17
100
AcDbDictionary
280
0
281
1
  3
Standard
350
18
  0
MLINESTYLE
  5
18
100
AcDbMlineStyle
  2
STANDARD
 70
0
  3

 62
256
 51
90.0
 52
90.0
 71
2
 49
0.5
 62
256
  6
BYLAYER
 49
-0.5
 62
256
  6
BYLAYER
  0
DICTIONARY
  5
19
100
AcDbDictionary
280
0
281
1
  0
DICTIONARY
  5
1A
100
AcDbDictionary
281
1
  3
Layout1
350
1E
  3
Layout2
350
26
  3
Model
350
22
  0
LAYOUT
  5
1E
100
AcDbPlotSettings
  1

  2
none_device
  4

  6

 40
0.0
 41
0.0
 42
0.0
 43
0.0
 44
0.0
 45
0.0
 46
0.0
 47
0.0
 48
0.0
 49
0.0
140
0.0
141
0.0
142
1.0
143
1.0
 70
688
 72
0
 73
0
 74
5
  7

 75
16
147
1.0
148
0.0
149
0.0
100
AcDbLayout
  1
Layout1
 70
1
 71
1
 10
0.0
 20
0.0
 11
420.0
 21
297.0
 12
0.0
 22
0.0
 32
0.0
 14
100000000000000000000.0
 24
100000000000000000000.0
 34
100000000000000000000.0
 15
-100000000000000000000.0
 25
-100000000000000000000.0
 35
-100000000000000000000.0
146
0.0
 13
0.0
 23
0.0
 33
0.0
 16
1.0
 26
0.0
 36
0.0
 17
0.0
 27
1.0
 37
0.0
 76
0
330
1B
  0
LAYOUT
  5
22
100
AcDbPlotSettings
  1

  2
none_device
  4

  6

 40
0.0
 41
0.0
 42
0.0
 43
0.0
 44
0.0
 45
0.0
 46
0.0
 47
0.0
 48
0.0
 49
0.0
140
0.0
141
0.0
142
1.0
143
1.0
 70
1712
 72
0
 73
0
 74
0
  7

 75
0
147
1.0
148
0.0
149
0.0
100
AcDbLayout
  1
Model
 70
1
 71
0
 10
0.0
 20
0.0
 11
12.0
 21
9.0
 12
0.0
 22
0.0
 32
0.0
 14
0.0
 24
0.0
 34
0.0
 15
0.0
 25
0.0
 35
0.0
146
0.0
 13
0.0
 23
0.0
 33
0.0
 16
1.0
 26
0.0
 36
0.0
 17
0.0
 27
1.0
 37
0.0
 76
0
330
1F
  0
LAYOUT
  5
26
100
AcDbPlotSettings
  1

  2
none_device
  4

  6

 40
0.0
 41
0.0
 42
0.0
 43
0.0
 44
0.0
 45
0.0
 46
0.0
 47
0.0
 48
0.0
 49
0.0
140
0.0
141
0.0
142
1.0
143
1.0
 70
688
 72
0
 73
0
 74
5
  7

 75
16
147
1.0
148
0.0
149
0.0
100
AcDbLayout
  1
Layout2
 70
1
 71
2
 10
0.0
 20
0.0
 11
12.0
 21
9.0
 12
0.0
 22
0.0
 32
0.0
 14
0.0
 24
0.0
 34
0.0
 15
0.0
 25
0.0
 35
0.0
146
0.0
 13
0.0
 23
0.0
 33
0.0
 16
1.0
 26
0.0
 36
0.0
 17
0.0
 27
1.0
 37
0.0
 76
0
330
23
  0
DICTIONARY
  5
9D
100
AcDbDictionary
281
1
  3
DIMASSOC
350
A0
  3
HIDETEXT
350
9F
  0
DICTIONARYVAR
  5
9F
100
DictionaryVariables
280
0
  1
2
  0
DICTIONARYVAR
  5
A0
100
DictionaryVariables
280
0
  1
1
  0
DICTIONARY
  5
9E
100
AcDbDictionary
281
1
  3
ColorSettings/BackgroundColor
350
A1
  3
ColorSettings/ColorMode
350
A2
  3
Grid/DisplayGrid00
350
A3
  3
Grid/DisplayGrid01
350
A4
  3
Grid/DisplayGrid02
350
A5
  3
Grid/DisplayGrid03
350
A6
  3
Grid/GridSpacingX00
350
A7
  3
Grid/GridSpacingX01
350
A8
  3
Grid/GridSpacingX02
350
A9
  3
Grid/GridSpacingX03
350
AA
  3
Grid/GridSpacingY00
350
AB
  3
Grid/GridSpacingY01
350
AC
  3
Grid/GridSpacingY02
350
AD
  3
Grid/GridSpacingY03
350
AE
  3
Grid/IsometricGrid00
350
AF
  3
Grid/IsometricGrid01
350
B0
  3
Grid/IsometricGrid02
350
B1
  3
Grid/IsometricGrid03
350
B2
  3
Grid/IsometricProjection00
350
B3
  3
Grid/IsometricProjection01
350
B4
  3
Grid/IsometricProjection02
350
B5
  3
Grid/IsometricProjection03
350
B6
  3
Grid/MetaGridSpacingX00
350
B7
  3
Grid/MetaGridSpacingX01
350
B8
  3
Grid/MetaGridSpacingX02
350
B9
  3
Grid/MetaGridSpacingX03
350
BA
  3
Grid/MetaGridSpacingY00
350
BB
  3
Grid/MetaGridSpacingY01
350
BC
  3
Grid/MetaGridSpacingY02
350
BD
  3
Grid/MetaGridSpacingY03
350
BE
  3
MultiPageSettings/Columns
350
BF
  3
MultiPageSettings/GlueMarginsBottom
350
C0
  3
MultiPageSettings/GlueMarginsLeft
350
C1
  3
MultiPageSettings/GlueMarginsRight
350
C2
  3
MultiPageSettings/GlueMarginsTop
350
C3
  3
MultiPageSettings/PrintCropMarks
350
C4
  3
MultiPageSettings/Rows
350
C5
  3
PageSettings/OffsetX
350
C6
  3
PageSettings/OffsetY
350
C7
  3
PageSettings/PageOrientation
350
C8
  3
PageSettings/PaperHeight
350
C9
  3
PageSettings/PaperWidth
350
CA
  3
PageSettings/Scale
350
CB
  3
PageSettings/ShowPaperBorders
350
CC
  3
PageTagSettings/EnablePageTags
350
CD
  3
PageTagSettings/TagAlignment
350
CE
  3
PageTagSettings/TagFont
350
CF
  3
PageTagSettings/TagPosition
350
D0
  3
QCADVersion
350
D1
  3
UnitSettings/PaperUnit
350
D2
  3
ViewportCenter
350
D3
  3
ViewportHeight
350
D4
  3
ViewportWidth
350
D5
  0
XRECORD
  5
A1
330
9E
100
AcDbXrecord
280
1
1000
Blanca
  0
XRECORD
  5
A2
330
9E
100
AcDbXrecord
280
1
1000
FullColor
  0
XRECORD
  5
A3
330
9E
100
AcDbXrecord
280
1
290
0
  0
XRECORD
  5
A4
330
9E
100
AcDbXrecord
280
1
290
1
  0
XRECORD
  5
A5
330
9E
100
AcDbXrecord
280
1
290
1
  0
XRECORD
  5
A6
330
9E
100
AcDbXrecord
280
1
290
1
  0
XRECORD
  5
A7
330
9E
100
AcDbXrecord
280
1
1000
auto
  0
XRECORD
  5
A8
330
9E
100
AcDbXrecord
280
1
1000
auto
  0
XRECORD
  5
A9
330
9E
100
AcDbXrecord
280
1
1000
auto
  0
XRECORD
  5
AA
330
9E
100
AcDbXrecord
280
1
1000
auto
  0
XRECORD
  5
AB
330
9E
100
AcDbXrecord
280
1
1000
auto
  0
XRECORD
  5
AC
330
9E
100
AcDbXrecord
280
1
1000
auto
  0
XRECORD
  5
AD
330
9E
100
AcDbXrecord
280
1
1000
auto
  0
XRECORD
  5
AE
330
9E
100
AcDbXrecord
280
1
1000
auto
  0
XRECORD
  5
AF
330
9E
100
AcDbXrecord
280
1
290
0
  0
XRECORD
  5
B0
330
9E
100
AcDbXrecord
280
1
290
0
  0
XRECORD
  5
B1
330
9E
100
AcDbXrecord
280
1
290
0
  0
XRECORD
  5
B2
330
9E
100
AcDbXrecord
280
1
290
0
  0
XRECORD
  5
B3
330
9E
100
AcDbXrecord
280
1
 90
65537
  0
XRECORD
  5
B4
330
9E
100
AcDbXrecord
280
1
 90
65537
  0
XRECORD
  5
B5
330
9E
100
AcDbXrecord
280
1
 90
65537
  0
XRECORD
  5
B6
330
9E
100
AcDbXrecord
280
1
 90
65537
  0
XRECORD
  5
B7
330
9E
100
AcDbXrecord
280
1
1000
auto
  0
XRECORD
  5
B8
330
9E
100
AcDbXrecord
280
1
1000
auto
  0
XRECORD
  5
B9
330
9E
100
AcDbXrecord
280
1
1000
auto
  0
XRECORD
  5
BA
330
9E
100
AcDbXrecord
280
1
1000
auto
  0
XRECORD
  5
BB
330
9E
100
AcDbXrecord
280
1
1000
1
  0
XRECORD
  5
BC
330
9E
100
AcDbXrecord
280
1
1000
auto
  0
XRECORD
  5
BD
330
9E
100
AcDbXrecord
280
1
1000
auto
  0
XRECORD
  5
BE
330
9E
100
AcDbXrecord
280
1
1000
auto
  0
XRECORD
  5
BF
330
9E
100
AcDbXrecord
280
1
 90
1
  0
XRECORD
  5
C0
330
9E
100
AcDbXrecord
280
1
 40
10.0
  0
XRECORD
  5
C1
330
9E
100
AcDbXrecord
280
1
 40
10.0
  0
XRECORD
  5
C2
330
9E
100
AcDbXrecord
280
1
 40
10.0
  0
XRECORD
  5
C3
330
9E
100
AcDbXrecord
280
1
 40
10.0
  0
XRECORD
  5
C4
330
9E
100
AcDbXrecord
280
1
290
0
  0
XRECORD
  5
C5
330
9E
100
AcDbXrecord
280
1
 90
1
  0
XRECORD
  5
C6
330
9E
100
AcDbXrecord
280
1
 40
793.1665914866936191
  0
XRECORD
  5
C7
330
9E
100
AcDbXrecord
280
1
 40
306.6308471493692309
  0
XRECORD
  5
C8
330
9E
100
AcDbXrecord
280
1
1000
Portrait
  0
XRECORD
  5
C9
330
9E
100
AcDbXrecord
280
1
 40
279.3999999999999773
  0
XRECORD
  5
CA
330
9E
100
AcDbXrecord
280
1
 40
215.9000000000000057
  0
XRECORD
  5
CB
330
9E
100
AcDbXrecord
280
1
 90
1
  0
XRECORD
  5
CC
330
9E
100
AcDbXrecord
280
1
290
1
  0
XRECORD
  5
CD
330
9E
100
AcDbXrecord
280
1
290
0
  0
XRECORD
  5
CE
330
9E
100
AcDbXrecord
280
1
1000
Inside
  0
XRECORD
  5
CF
330
9E
100
AcDbXrecord
280
1
1000
Arial,10,-1,5,50,0,0,0,0,0
  0
XRECORD
  5
D0
330
9E
100
AcDbXrecord
280
1
1000
TopLeft
  0
XRECORD
  5
D1
330
9E
100
AcDbXrecord
280
1
1000
3.28.1
  0
XRECORD
  5
D2
330
9E
100
AcDbXrecord
280
1
 90
4
  0
XRECORD
  5
D4
330
9E
100
AcDbXrecord
280
1
 40
194.0083410614234936
  0
XRECORD
  5
D5
330
9E
100
AcDbXrecord
280
1
 40
357.4817800747919136
  0
IMAGEDEF
  5
61
100
AcDbRasterImageDef
 90
0
  1
C:/Users/iamth/Documents/QCad/StudyCadCam/2D CAD EXERCISES 21.png
 10
200.0
 20
141.0
 11
1.0
 21
1.0
280
1
281
0
  0
ENDSEC
  0
EOF
